<svg width="24" height="25" viewBox="0 0 24 25" fill="none" xmlns="http://www.w3.org/2000/svg">
  <path d="M16.5 12.378H21C21.1989 12.378 21.3897 12.457 21.5303 12.5977C21.671 12.7383 21.75 12.9291 21.75 13.128V19.128C21.75 19.3269 21.671 19.5177 21.5303 19.6583C21.3897 19.799 21.1989 19.878 21 19.878H3C2.80109 19.878 2.61032 19.799 2.46967 19.6583C2.32902 19.5177 2.25 19.3269 2.25 19.128V13.128C2.25 12.9291 2.32902 12.7383 2.46967 12.5977C2.61032 12.457 2.80109 12.378 3 12.378H7.5" stroke="#333333" stroke-width="2" stroke-linecap="round" stroke-linejoin="round"/>
  <path d="M12 2.62799V12.378" stroke="#333333" stroke-width="2" stroke-linecap="round" stroke-linejoin="round"/>
  <path d="M7.5 7.87799L12 12.378L16.5 7.87799" stroke="#333333" stroke-width="2" stroke-linecap="round" stroke-linejoin="round"/>
  <path d="M17.625 17.253C18.2463 17.253 18.75 16.7493 18.75 16.128C18.75 15.5067 18.2463 15.003 17.625 15.003C17.0037 15.003 16.5 15.5067 16.5 16.128C16.5 16.7493 17.0037 17.253 17.625 17.253Z" fill="#333333"/>
</svg>