<svg width="89" height="83" viewBox="0 0 89 83" fill="none" xmlns="http://www.w3.org/2000/svg">
<g clip-path="url(#clip0)">
<path d="M49.5453 14.3602C45.2401 13.2216 40.9355 12.0783 36.6283 10.9505C36.1999 10.8384 36.0546 10.6722 36.1724 10.2773C36.2861 9.89483 36.3872 9.50173 36.4262 9.10137C36.4761 8.59096 36.6923 8.46242 37.2563 8.5586C40.4643 9.10525 43.6723 9.68778 46.8869 10.1094C50.6505 10.6032 54.4207 10.9444 58.188 11.3527C58.3994 11.3755 58.6106 11.4075 58.9099 11.4468C58.8398 11.7049 58.8004 11.9127 58.7278 12.1064C56.4891 18.0681 54.7513 24.2057 53.2466 30.4255C53.015 31.3821 53.1524 31.3312 52.0678 31.1084C50.4486 30.7754 50.4605 30.7806 50.6766 29.2672C51.2232 25.4381 51.7576 21.6068 52.2954 17.7756C52.3097 17.674 52.3027 17.5675 52.307 17.3985C52.1509 17.4578 52.0446 17.4829 51.9565 17.5338C48.2222 19.6949 44.6147 22.0066 41.4963 24.9165C34.9713 31.0048 30.8604 38.3977 29.7245 47.3732C28.8054 54.6357 30.0253 61.8149 33.0507 68.8961C34.6935 72.7414 36.8566 76.3487 39.392 79.7861C39.9148 80.4947 39.9068 80.5002 39.2038 80.9242C38.8087 81.1628 38.4012 81.3856 38.0179 81.6394C37.6188 81.9035 37.3629 81.8026 37.0616 81.3914C34.8952 78.4318 32.9357 75.3738 31.3388 72.1332C28.323 66.0137 26.5722 59.7008 26.3387 53.1716C25.962 42.6459 29.249 33.5541 35.9525 25.8271C38.6343 22.7356 41.7313 20.0579 45.2241 17.7947C46.6916 16.8436 48.199 15.944 49.6887 15.0217C49.8748 14.9065 50.0647 14.7967 50.2527 14.6845C50.2429 14.6358 50.233 14.5869 50.2229 14.5384C49.9971 14.479 49.7711 14.4203 49.5452 14.3603L49.5453 14.3602Z" fill="#333333"/>
<path d="M50.2232 14.5382C49.9972 14.4788 49.7712 14.4202 49.5453 14.3602C45.2401 13.2216 40.9355 12.0782 36.6283 10.9504C36.1999 10.8384 36.0546 10.6722 36.1724 10.2772C36.2861 9.89477 36.3872 9.50167 36.4262 9.10132C36.4761 8.5909 36.6923 8.46236 37.2563 8.55854C40.4643 9.1052 43.6723 9.68773 46.8869 10.1093C50.6505 10.6032 54.4207 10.9444 58.188 11.3526C58.3994 11.3754 58.6106 11.4075 58.9099 11.4468C58.8398 11.7049 58.8004 11.9126 58.7278 12.1064C56.4891 18.0681 54.7513 24.2056 53.2466 30.4254C53.015 31.382 53.1524 31.3311 52.0678 31.1083C50.4486 30.7753 50.4605 30.7806 50.6766 29.2672C51.2232 25.438 51.7576 21.6067 52.2954 17.7756C52.3097 17.674 52.3027 17.5674 52.307 17.3984C52.1509 17.4577 52.0446 17.4829 51.9565 17.5338C48.2222 19.6949 44.6147 22.0065 41.4963 24.9164C34.9713 31.0048 30.8604 38.3977 29.7245 47.3731C28.8054 54.6356 30.0253 61.8149 33.0507 68.8961C34.6935 72.7414 36.8566 76.3486 39.392 79.786C39.9148 80.4946 39.9068 80.5002 39.2038 80.9242C38.8087 81.1627 38.4012 81.3856 38.0179 81.6394C37.6188 81.9035 37.3629 81.8025 37.0616 81.3914C34.8952 78.4318 32.9357 75.3737 31.3388 72.1332C28.323 66.0136 26.5722 59.7008 26.3387 53.1716C25.962 42.6459 29.249 33.554 35.9525 25.8271C38.6343 22.7355 41.7313 20.0579 45.2241 17.7946C46.6916 16.8436 48.199 15.944 49.6887 15.0216C49.8748 14.9065 50.0647 14.7967 50.2527 14.6845C50.2428 14.6356 50.2329 14.5867 50.2231 14.5383L50.2232 14.5382Z" fill="#333333"/>
</g>
<defs>
<clipPath id="clip0">
<rect width="59.4645" height="63.656" fill="white" transform="matrix(0.858705 -0.51247 -0.584357 -0.811497 37.1979 82.1304)"/>
</clipPath>
</defs>
</svg>
