<svg xmlns="http://www.w3.org/2000/svg" width="24" height="20" viewBox="0 0 24 20" fill="none">
  <path d="M24 10C24 10.2873 23.8946 10.5629 23.7071 10.766C23.5196 10.9692 23.2652 11.0833 23 11.0833H1C0.734784 11.0833 0.48043 10.9692 0.292893 10.766C0.105357 10.5629 0 10.2873 0 10C0 9.71268 0.105357 9.43713 0.292893 9.23397C0.48043 9.0308 0.734784 8.91667 1 8.91667H23C23.2652 8.91667 23.5196 9.0308 23.7071 9.23397C23.8946 9.43713 24 9.71268 24 10ZM1 2.41667H23C23.2652 2.41667 23.5196 2.30253 23.7071 2.09937C23.8946 1.8962 24 1.62065 24 1.33333C24 1.04602 23.8946 0.770466 23.7071 0.567301C23.5196 0.364137 23.2652 0.25 23 0.25H1C0.734784 0.25 0.48043 0.364137 0.292893 0.567301C0.105357 0.770466 0 1.04602 0 1.33333C0 1.62065 0.105357 1.8962 0.292893 2.09937C0.48043 2.30253 0.734784 2.41667 1 2.41667ZM23 17.5833H1C0.734784 17.5833 0.48043 17.6975 0.292893 17.9006C0.105357 18.1038 0 18.3793 0 18.6667C0 18.954 0.105357 19.2295 0.292893 19.4327C0.48043 19.6359 0.734784 19.75 1 19.75H23C23.2652 19.75 23.5196 19.6359 23.7071 19.4327C23.8946 19.2295 24 18.954 24 18.6667C24 18.3793 23.8946 18.1038 23.7071 17.9006C23.5196 17.6975 23.2652 17.5833 23 17.5833Z" fill="#F2F2F2"/>
</svg>