<svg width="379" height="72" viewBox="0 0 379 72" fill="none"
  xmlns="http://www.w3.org/2000/svg">
  <g>
    <path fill-rule="evenodd" clip-rule="evenodd" d="M112.021 -53.6398C145.057 -54.3035 162.924 -67.6675 184.284 -53.554C205.686 -39.4128 176.566 -19.4584 169.067 -1.41098C161.638 16.4673 171.025 40.2981 141.813 48.6574C112.447 57.0609 103.522 40.8288 74.6528 31.9023C48.9207 23.9456 20.2726 17.0006 10.9736 1.39795C0.66272 -15.9024 2.52439 -37.2074 25.8818 -49.9296C47.5894 -61.7531 81.742 -53.0314 112.021 -53.6398Z" fill="#534DAC"/>
    <path fill-rule="evenodd" clip-rule="evenodd" d="M284.021 -3.63975C317.057 -4.30348 334.924 -17.6675 356.284 -3.55397C377.686 10.5872 348.566 30.5416 341.067 48.589C333.638 66.4673 343.025 90.2981 313.813 98.6574C284.447 107.061 275.522 90.8288 246.653 81.9023C220.921 73.9456 192.273 67.0006 182.974 51.398C172.663 34.0976 174.524 12.7926 197.882 0.070447C219.589 -11.7531 253.742 -3.03143 284.021 -3.63975Z" fill="#423D89"/>
    <path fill-rule="evenodd" clip-rule="evenodd" d="M251.603 35.563C260.248 21.4036 259.419 10.2328 271.162 5.00651C282.928 -0.229977 283.505 17.4835 289.116 25.5324C300.328 41.6155 325.088 34.503 320.734 49.123C316.356 63.82 307.076 63.2118 295.5 73.0166C285.181 81.7561 256.71 93.4716 247.595 93.1916C237.489 92.8811 228.976 86.3377 229.903 73.0166C230.764 60.6364 243.681 48.5403 251.603 35.563Z" fill="#534DAC"/>
  </g>
</svg>