<svg width="227" height="192" viewBox="0 0 227 192" fill="none" xmlns="http://www.w3.org/2000/svg">
<path fill-rule="evenodd" clip-rule="evenodd" d="M111.977 28.9543C128.045 29.5589 143.716 26.9153 158.927 32.1283C176.149 38.0302 194.049 45.2694 204.022 60.4994C214.503 76.5066 218.352 97.1244 213.626 115.665C209.096 133.44 194.23 146.216 179.418 157.035C166.472 166.491 151.217 171.312 135.264 172.903C120.145 174.411 106.002 169.895 91.3656 165.816C72.6002 160.586 51.6071 159.718 37.9865 145.791C22.0258 129.471 9.48348 107.087 11.712 84.3686C13.9761 61.287 29.2411 39.231 49.5396 28.0124C68.2141 17.6913 90.6548 28.152 111.977 28.9543Z" stroke="#333333" stroke-width="1.5"/>
</svg>
