<svg width="49" height="46" viewBox="0 0 49 46" fill="none" xmlns="http://www.w3.org/2000/svg">
<path d="M7.74121 35.0209C7.85013 35.1661 7.95941 35.3109 8.06799 35.4564C10.1392 38.227 12.2078 41.0001 14.2855 43.7652C14.4922 44.0401 14.5004 44.2099 14.238 44.3887C13.9841 44.5618 13.7327 44.7475 13.5157 44.9677C13.2389 45.2483 13.0452 45.2201 12.7483 44.8888C11.0592 43.0046 9.38741 41.0989 7.63394 39.2862C5.5811 37.1637 3.45057 35.1291 1.35417 33.056C1.23648 32.9397 1.12335 32.818 0.960163 32.6492C1.12746 32.5291 1.25175 32.4242 1.38949 32.3437C5.6309 29.8701 9.65233 27.0483 13.5715 24.0641C14.1743 23.6052 14.0661 23.5689 14.6189 24.2286C15.4439 25.2138 15.4391 25.2048 14.5768 26.0038C12.3952 28.0254 10.22 30.0541 8.04278 32.0811C7.98505 32.1349 7.93786 32.202 7.85361 32.3008C7.97726 32.3412 8.05412 32.3778 8.13234 32.3901C11.4493 32.9127 14.7616 33.2838 18.0651 33.0601C24.9772 32.5922 31.0494 30.1729 36.0746 25.3638C40.1407 21.4726 42.8644 16.5924 44.4416 10.894C45.2981 7.79963 45.723 4.59484 45.8391 1.31068C45.863 0.633622 45.8705 0.634179 46.5032 0.722295C46.8589 0.771682 47.2146 0.836458 47.5705 0.871015C47.941 0.90709 48.0481 1.09164 48.033 1.48348C47.9229 4.30307 47.6392 7.081 47.0468 9.79187C45.9281 14.9113 43.9459 19.5318 40.9355 23.5447C36.0827 30.0142 29.6917 33.8483 21.8798 35.2082C18.7545 35.7524 15.5762 35.8478 12.357 35.5035C11.0043 35.3589 9.65229 35.1642 8.30004 34.9917C8.13116 34.9702 7.96247 34.9435 7.7939 34.9192C7.77632 34.9533 7.75874 34.9873 7.7413 35.0209L7.74121 35.0209Z" fill="#333333"/>
</svg>
