<svg width="540" height="451" viewBox="0 0 540 451" fill="none" xmlns="http://www.w3.org/2000/svg">
<path fill-rule="evenodd" clip-rule="evenodd" d="M231.671 344.742C234.643 344.444 237.895 345.212 239.865 347.516C241.762 349.729 241.12 352.955 241.202 355.891C241.283 358.98 242.313 362.423 240.343 364.762C238.311 367.184 234.787 367.22 231.671 367.229C228.545 367.229 225.319 366.904 222.971 364.79C220.486 362.558 218.643 359.242 219.059 355.891C219.447 352.747 222.582 351.066 224.922 348.989C227 347.155 228.933 345.013 231.671 344.742Z" fill="#03DAC6"/>
<path d="M255.86 362V349.42L252.66 351.72V350.1L255.98 347.7H257.6V362H255.86ZM266.868 362.18C263.448 362.18 261.188 359.42 261.188 355.26V354.46C261.188 350.24 263.328 347.52 266.828 347.52C270.348 347.52 272.408 350.34 272.408 354.42V355.22C272.408 359.38 270.388 362.18 266.868 362.18ZM266.868 360.74C269.368 360.74 270.648 358.82 270.648 355.2V354.4C270.648 351.08 269.248 348.92 266.828 348.92C264.408 348.92 262.968 350.92 262.968 354.44V355.24C262.968 358.86 264.488 360.74 266.868 360.74ZM283.815 362.18C281.315 362.18 279.815 360.92 279.715 358.78H281.335C281.455 360.02 282.115 360.8 283.795 360.8C285.375 360.8 286.075 360.26 286.075 359.14C286.075 358.04 285.255 357.68 283.635 357.38C280.915 356.88 279.995 356.12 279.995 354.3C279.995 352.36 281.895 351.36 283.535 351.36C285.415 351.36 287.035 352.12 287.315 354.38H285.715C285.475 353.24 284.835 352.74 283.515 352.74C282.315 352.74 281.535 353.34 281.535 354.24C281.535 355.18 282.055 355.56 283.975 355.9C286.135 356.3 287.655 356.78 287.655 359C287.655 360.9 286.355 362.18 283.815 362.18ZM294.524 362.18C291.544 362.18 289.404 359.92 289.404 356.86V356.7C289.404 353.56 291.584 351.36 294.544 351.36C297.504 351.36 299.684 353.54 299.684 356.68V356.84C299.684 360 297.504 362.18 294.524 362.18ZM294.544 360.8C296.644 360.8 297.964 359.22 297.964 356.86V356.72C297.964 354.3 296.624 352.74 294.544 352.74C292.444 352.74 291.124 354.3 291.124 356.7V356.86C291.124 359.24 292.424 360.8 294.544 360.8ZM302.254 362V351.54H303.914V353.14C304.394 352.16 305.534 351.36 307.034 351.36C308.374 351.36 309.554 351.92 310.094 353.32C310.814 351.96 312.374 351.36 313.674 351.36C315.554 351.36 317.194 352.48 317.194 355.52V362H315.534V355.4C315.534 353.56 314.754 352.8 313.314 352.8C311.954 352.8 310.554 353.72 310.554 355.6V362H308.894V355.4C308.894 353.56 308.114 352.8 306.674 352.8C305.314 352.8 303.914 353.72 303.914 355.6V362H302.254ZM320.457 362V351.54H322.117V353.14C322.597 352.16 323.737 351.36 325.237 351.36C326.577 351.36 327.757 351.92 328.297 353.32C329.017 351.96 330.577 351.36 331.877 351.36C333.757 351.36 335.397 352.48 335.397 355.52V362H333.737V355.4C333.737 353.56 332.957 352.8 331.517 352.8C330.157 352.8 328.757 353.72 328.757 355.6V362H327.097V355.4C327.097 353.56 326.317 352.8 324.877 352.8C323.517 352.8 322.117 353.72 322.117 355.6V362H320.457ZM342.94 362.18C339.98 362.18 337.88 360.1 337.88 356.88V356.72C337.88 353.56 339.9 351.36 342.78 351.36C345.2 351.36 347.48 352.82 347.48 356.56V357.1H339.6C339.68 359.48 340.82 360.8 342.96 360.8C344.58 360.8 345.52 360.2 345.74 358.98H347.4C347.04 361.08 345.3 362.18 342.94 362.18ZM339.66 355.76H345.78C345.62 353.6 344.5 352.74 342.78 352.74C341.08 352.74 339.94 353.9 339.66 355.76ZM350.028 362V351.54H351.688V353.42C352.348 352.24 353.248 351.42 355.128 351.36V352.92C353.028 353.02 351.688 353.68 351.688 356.26V362H350.028ZM358.387 349.36C357.787 349.36 357.287 348.86 357.287 348.26C357.287 347.66 357.787 347.16 358.387 347.16C358.987 347.16 359.487 347.66 359.487 348.26C359.487 348.86 358.987 349.36 358.387 349.36ZM356.047 365.82V364.42C357.227 364.32 357.587 363.72 357.587 362.8V351.54H359.247V362.66C359.247 364.66 358.367 365.74 356.047 365.82ZM366.985 362.18C364.005 362.18 361.865 359.92 361.865 356.86V356.7C361.865 353.56 364.045 351.36 367.005 351.36C369.965 351.36 372.145 353.54 372.145 356.68V356.84C372.145 360 369.965 362.18 366.985 362.18ZM367.005 360.8C369.105 360.8 370.425 359.22 370.425 356.86V356.72C370.425 354.3 369.085 352.74 367.005 352.74C364.905 352.74 363.585 354.3 363.585 356.7V356.86C363.585 359.24 364.885 360.8 367.005 360.8ZM379.915 362.18C378.215 362.18 376.975 361.32 376.375 360.28V362H374.715V346.54H376.375V353.3C376.975 352.28 378.395 351.36 379.915 351.36C382.655 351.36 384.675 353.36 384.675 356.62V356.78C384.675 359.98 382.795 362.18 379.915 362.18ZM379.755 360.8C381.835 360.8 382.955 359.4 382.955 356.86V356.7C382.955 354.06 381.495 352.74 379.735 352.74C377.795 352.74 376.315 354.02 376.315 356.7V356.86C376.315 359.54 377.715 360.8 379.755 360.8ZM392.454 362.18C390.754 362.18 389.514 361.32 388.914 360.28V362H387.254V346.54H388.914V353.3C389.514 352.28 390.934 351.36 392.454 351.36C395.194 351.36 397.214 353.36 397.214 356.62V356.78C397.214 359.98 395.334 362.18 392.454 362.18ZM392.294 360.8C394.374 360.8 395.494 359.4 395.494 356.86V356.7C395.494 354.06 394.034 352.74 392.274 352.74C390.334 352.74 388.854 354.02 388.854 356.7V356.86C388.854 359.54 390.254 360.8 392.294 360.8ZM404.073 362.18C401.113 362.18 399.013 360.1 399.013 356.88V356.72C399.013 353.56 401.033 351.36 403.913 351.36C406.333 351.36 408.613 352.82 408.613 356.56V357.1H400.733C400.813 359.48 401.953 360.8 404.093 360.8C405.713 360.8 406.653 360.2 406.873 358.98H408.533C408.173 361.08 406.433 362.18 404.073 362.18ZM400.793 355.76H406.913C406.753 353.6 405.633 352.74 403.913 352.74C402.213 352.74 401.073 353.9 400.793 355.76ZM411.16 362V351.54H412.82V353.42C413.48 352.24 414.38 351.42 416.26 351.36V352.92C414.16 353.02 412.82 353.68 412.82 356.26V362H411.16ZM424.813 349.36C424.213 349.36 423.713 348.86 423.713 348.26C423.713 347.66 424.213 347.16 424.813 347.16C425.413 347.16 425.913 347.66 425.913 348.26C425.913 348.86 425.413 349.36 424.813 349.36ZM424.013 362V351.54H425.673V362H424.013ZM437.424 362V349.12H433.264V347.7H443.324V349.12H439.164V362H437.424ZM444.774 362V351.54H446.434V353.42C447.094 352.24 447.994 351.42 449.874 351.36V352.92C447.774 353.02 446.434 353.68 446.434 356.26V362H444.774ZM456.34 362.18C453.36 362.18 451.22 359.92 451.22 356.86V356.7C451.22 353.56 453.4 351.36 456.36 351.36C459.32 351.36 461.5 353.54 461.5 356.68V356.84C461.5 360 459.32 362.18 456.34 362.18ZM456.36 360.8C458.46 360.8 459.78 359.22 459.78 356.86V356.72C459.78 354.3 458.44 352.74 456.36 352.74C454.26 352.74 452.94 354.3 452.94 356.7V356.86C452.94 359.24 454.24 360.8 456.36 360.8ZM464.071 362V351.54H465.731V353.2C466.211 352.22 467.371 351.36 469.091 351.36C471.251 351.36 472.771 352.54 472.771 355.58V362H471.111V355.46C471.111 353.62 470.331 352.8 468.651 352.8C467.111 352.8 465.731 353.78 465.731 355.66V362H464.071ZM479.964 362.18C477.224 362.18 475.244 360.24 475.244 356.98V356.82C475.244 353.62 477.244 351.36 480.124 351.36C481.864 351.36 482.944 352.2 483.544 353.22V346.54H485.204V362H483.544V360.2C482.944 361.22 481.484 362.18 479.964 362.18ZM480.144 360.8C482.084 360.8 483.604 359.52 483.604 356.84V356.68C483.604 354 482.324 352.74 480.284 352.74C478.204 352.74 476.964 354.2 476.964 356.74V356.9C476.964 359.54 478.384 360.8 480.144 360.8ZM488.563 362V346.54H490.223V353.2C490.703 352.22 491.863 351.36 493.583 351.36C495.743 351.36 497.263 352.54 497.263 355.58V362H495.603V355.46C495.603 353.62 494.823 352.8 493.143 352.8C491.603 352.8 490.223 353.78 490.223 355.66V362H488.563ZM504.796 362.18C501.836 362.18 499.736 360.1 499.736 356.88V356.72C499.736 353.56 501.756 351.36 504.636 351.36C507.056 351.36 509.336 352.82 509.336 356.56V357.1H501.456C501.536 359.48 502.676 360.8 504.816 360.8C506.436 360.8 507.376 360.2 507.596 358.98H509.256C508.896 361.08 507.156 362.18 504.796 362.18ZM501.516 355.76H507.636C507.476 353.6 506.356 352.74 504.636 352.74C502.936 352.74 501.796 353.9 501.516 355.76ZM512.723 349.36C512.123 349.36 511.623 348.86 511.623 348.26C511.623 347.66 512.123 347.16 512.723 347.16C513.323 347.16 513.823 347.66 513.823 348.26C513.823 348.86 513.323 349.36 512.723 349.36ZM511.923 362V351.54H513.583V362H511.923ZM516.981 362V351.54H518.641V353.14C519.121 352.16 520.261 351.36 521.761 351.36C523.101 351.36 524.281 351.92 524.821 353.32C525.541 351.96 527.101 351.36 528.401 351.36C530.281 351.36 531.921 352.48 531.921 355.52V362H530.261V355.4C530.261 353.56 529.481 352.8 528.041 352.8C526.681 352.8 525.281 353.72 525.281 355.6V362H523.621V355.4C523.621 353.56 522.841 352.8 521.401 352.8C520.041 352.8 518.641 353.72 518.641 355.6V362H516.981Z" fill="white"/>
<path fill-rule="evenodd" clip-rule="evenodd" d="M221.671 381.289C224.643 380.991 227.895 381.759 229.865 384.063C231.762 386.276 231.12 389.501 231.202 392.438C231.292 395.527 232.313 398.969 230.343 401.309C228.311 403.73 224.787 403.767 221.671 403.776C218.545 403.776 215.319 403.45 212.971 401.336C210.486 399.105 208.643 395.789 209.059 392.438C209.447 389.294 212.582 387.604 214.922 385.535C217 383.701 218.933 381.56 221.671 381.289Z" fill="#E61A6B"/>
<path d="M251.86 402V389.42L248.66 391.72V390.1L251.98 387.7H253.6V402H251.86ZM262.868 402.18C259.448 402.18 257.188 399.42 257.188 395.26V394.46C257.188 390.24 259.328 387.52 262.828 387.52C266.348 387.52 268.408 390.34 268.408 394.42V395.22C268.408 399.38 266.388 402.18 262.868 402.18ZM262.868 400.74C265.368 400.74 266.648 398.82 266.648 395.2V394.4C266.648 391.08 265.248 388.92 262.828 388.92C260.408 388.92 258.968 390.92 258.968 394.44V395.24C258.968 398.86 260.488 400.74 262.868 400.74ZM279.815 402.18C277.315 402.18 275.815 400.92 275.715 398.78H277.335C277.455 400.02 278.115 400.8 279.795 400.8C281.375 400.8 282.075 400.26 282.075 399.14C282.075 398.04 281.255 397.68 279.635 397.38C276.915 396.88 275.995 396.12 275.995 394.3C275.995 392.36 277.895 391.36 279.535 391.36C281.415 391.36 283.035 392.12 283.315 394.38H281.715C281.475 393.24 280.835 392.74 279.515 392.74C278.315 392.74 277.535 393.34 277.535 394.24C277.535 395.18 278.055 395.56 279.975 395.9C282.135 396.3 283.655 396.78 283.655 399C283.655 400.9 282.355 402.18 279.815 402.18ZM290.524 402.18C287.544 402.18 285.404 399.92 285.404 396.86V396.7C285.404 393.56 287.584 391.36 290.544 391.36C293.504 391.36 295.684 393.54 295.684 396.68V396.84C295.684 400 293.504 402.18 290.524 402.18ZM290.544 400.8C292.644 400.8 293.964 399.22 293.964 396.86V396.72C293.964 394.3 292.624 392.74 290.544 392.74C288.444 392.74 287.124 394.3 287.124 396.7V396.86C287.124 399.24 288.424 400.8 290.544 400.8ZM298.254 402V391.54H299.914V393.14C300.394 392.16 301.534 391.36 303.034 391.36C304.374 391.36 305.554 391.92 306.094 393.32C306.814 391.96 308.374 391.36 309.674 391.36C311.554 391.36 313.194 392.48 313.194 395.52V402H311.534V395.4C311.534 393.56 310.754 392.8 309.314 392.8C307.954 392.8 306.554 393.72 306.554 395.6V402H304.894V395.4C304.894 393.56 304.114 392.8 302.674 392.8C301.314 392.8 299.914 393.72 299.914 395.6V402H298.254ZM316.457 402V391.54H318.117V393.14C318.597 392.16 319.737 391.36 321.237 391.36C322.577 391.36 323.757 391.92 324.297 393.32C325.017 391.96 326.577 391.36 327.877 391.36C329.757 391.36 331.397 392.48 331.397 395.52V402H329.737V395.4C329.737 393.56 328.957 392.8 327.517 392.8C326.157 392.8 324.757 393.72 324.757 395.6V402H323.097V395.4C323.097 393.56 322.317 392.8 320.877 392.8C319.517 392.8 318.117 393.72 318.117 395.6V402H316.457ZM338.94 402.18C335.98 402.18 333.88 400.1 333.88 396.88V396.72C333.88 393.56 335.9 391.36 338.78 391.36C341.2 391.36 343.48 392.82 343.48 396.56V397.1H335.6C335.68 399.48 336.82 400.8 338.96 400.8C340.58 400.8 341.52 400.2 341.74 398.98H343.4C343.04 401.08 341.3 402.18 338.94 402.18ZM335.66 395.76H341.78C341.62 393.6 340.5 392.74 338.78 392.74C337.08 392.74 335.94 393.9 335.66 395.76ZM346.028 402V391.54H347.688V393.42C348.348 392.24 349.248 391.42 351.128 391.36V392.92C349.028 393.02 347.688 393.68 347.688 396.26V402H346.028ZM354.387 389.36C353.787 389.36 353.287 388.86 353.287 388.26C353.287 387.66 353.787 387.16 354.387 387.16C354.987 387.16 355.487 387.66 355.487 388.26C355.487 388.86 354.987 389.36 354.387 389.36ZM352.047 405.82V404.42C353.227 404.32 353.587 403.72 353.587 402.8V391.54H355.247V402.66C355.247 404.66 354.367 405.74 352.047 405.82ZM362.985 402.18C360.005 402.18 357.865 399.92 357.865 396.86V396.7C357.865 393.56 360.045 391.36 363.005 391.36C365.965 391.36 368.145 393.54 368.145 396.68V396.84C368.145 400 365.965 402.18 362.985 402.18ZM363.005 400.8C365.105 400.8 366.425 399.22 366.425 396.86V396.72C366.425 394.3 365.085 392.74 363.005 392.74C360.905 392.74 359.585 394.3 359.585 396.7V396.86C359.585 399.24 360.885 400.8 363.005 400.8ZM375.915 402.18C374.215 402.18 372.975 401.32 372.375 400.28V402H370.715V386.54H372.375V393.3C372.975 392.28 374.395 391.36 375.915 391.36C378.655 391.36 380.675 393.36 380.675 396.62V396.78C380.675 399.98 378.795 402.18 375.915 402.18ZM375.755 400.8C377.835 400.8 378.955 399.4 378.955 396.86V396.7C378.955 394.06 377.495 392.74 375.735 392.74C373.795 392.74 372.315 394.02 372.315 396.7V396.86C372.315 399.54 373.715 400.8 375.755 400.8ZM388.454 402.18C386.754 402.18 385.514 401.32 384.914 400.28V402H383.254V386.54H384.914V393.3C385.514 392.28 386.934 391.36 388.454 391.36C391.194 391.36 393.214 393.36 393.214 396.62V396.78C393.214 399.98 391.334 402.18 388.454 402.18ZM388.294 400.8C390.374 400.8 391.494 399.4 391.494 396.86V396.7C391.494 394.06 390.034 392.74 388.274 392.74C386.334 392.74 384.854 394.02 384.854 396.7V396.86C384.854 399.54 386.254 400.8 388.294 400.8ZM400.073 402.18C397.113 402.18 395.013 400.1 395.013 396.88V396.72C395.013 393.56 397.033 391.36 399.913 391.36C402.333 391.36 404.613 392.82 404.613 396.56V397.1H396.733C396.813 399.48 397.953 400.8 400.093 400.8C401.713 400.8 402.653 400.2 402.873 398.98H404.533C404.173 401.08 402.433 402.18 400.073 402.18ZM396.793 395.76H402.913C402.753 393.6 401.633 392.74 399.913 392.74C398.213 392.74 397.073 393.9 396.793 395.76ZM407.16 402V391.54H408.82V393.42C409.48 392.24 410.38 391.42 412.26 391.36V392.92C410.16 393.02 408.82 393.68 408.82 396.26V402H407.16ZM420.813 389.36C420.213 389.36 419.713 388.86 419.713 388.26C419.713 387.66 420.213 387.16 420.813 387.16C421.413 387.16 421.913 387.66 421.913 388.26C421.913 388.86 421.413 389.36 420.813 389.36ZM420.013 402V391.54H421.673V402H420.013ZM436.864 402.18C432.644 402.18 429.784 398.94 429.784 394.94V394.78C429.784 390.72 432.624 387.52 436.824 387.52C441.024 387.52 443.804 390.72 443.804 394.74V394.9C443.804 398.94 441.024 402.18 436.864 402.18ZM436.864 400.74C440.044 400.74 442.004 398.34 442.004 394.88V394.72C442.004 391.52 440.124 388.92 436.824 388.92C433.504 388.92 431.584 391.36 431.584 394.76V394.92C431.584 398.38 433.884 400.74 436.864 400.74ZM449.815 402.18C447.315 402.18 445.815 400.92 445.715 398.78H447.335C447.455 400.02 448.115 400.8 449.795 400.8C451.375 400.8 452.075 400.26 452.075 399.14C452.075 398.04 451.255 397.68 449.635 397.38C446.915 396.88 445.995 396.12 445.995 394.3C445.995 392.36 447.895 391.36 449.535 391.36C451.415 391.36 453.035 392.12 453.315 394.38H451.715C451.475 393.24 450.835 392.74 449.515 392.74C448.315 392.74 447.535 393.34 447.535 394.24C447.535 395.18 448.055 395.56 449.975 395.9C452.135 396.3 453.655 396.78 453.655 399C453.655 400.9 452.355 402.18 449.815 402.18ZM456.224 402V386.54H457.904V402H456.224ZM465.641 402.18C462.661 402.18 460.521 399.92 460.521 396.86V396.7C460.521 393.56 462.701 391.36 465.661 391.36C468.621 391.36 470.801 393.54 470.801 396.68V396.84C470.801 400 468.621 402.18 465.641 402.18ZM465.661 400.8C467.761 400.8 469.081 399.22 469.081 396.86V396.72C469.081 394.3 467.741 392.74 465.661 392.74C463.561 392.74 462.241 394.3 462.241 396.7V396.86C462.241 399.24 463.541 400.8 465.661 400.8Z" fill="white"/>
<path fill-rule="evenodd" clip-rule="evenodd" d="M211.671 418.289C214.643 417.991 217.895 418.759 219.865 421.063C221.762 423.276 221.12 426.501 221.202 429.438C221.283 432.527 222.313 435.969 220.343 438.309C218.311 440.73 214.787 440.767 211.671 440.776C208.545 440.776 205.319 440.45 202.971 438.336C200.486 436.105 198.643 432.789 199.059 429.438C199.447 426.294 202.582 424.604 204.922 422.535C207 420.701 208.933 418.56 211.671 418.289Z" fill="#FFC4BC"/>
<path d="M249.8 437.861C252.76 437.861 254.88 436.301 254.88 433.701C254.88 431.721 253.8 430.541 252.12 430.101C253.42 429.561 254.38 428.601 254.38 426.981C254.38 425.001 252.8 423.201 250.08 423.201C247.36 423.201 245.5 425.061 245.4 427.321H246.92C247.1 425.701 248.3 424.621 250.08 424.621C251.82 424.621 252.68 425.661 252.68 427.021C252.68 428.581 251.86 429.461 250 429.461H249V430.921H250.08C252.1 430.921 253.1 431.861 253.1 433.701C253.1 435.381 252.08 436.461 249.84 436.461C247.58 436.461 246.56 435.161 246.4 433.461H244.8C244.9 435.961 246.76 437.861 249.8 437.861ZM266.283 437.861C268.823 437.861 270.123 436.581 270.123 434.681C270.123 432.461 268.603 431.981 266.443 431.581C264.523 431.241 264.003 430.861 264.003 429.921C264.003 429.021 264.783 428.421 265.983 428.421C267.303 428.421 267.943 428.921 268.183 430.061H269.783C269.503 427.801 267.883 427.041 266.003 427.041C264.363 427.041 262.463 428.041 262.463 429.981C262.463 431.801 263.383 432.561 266.103 433.061C267.723 433.361 268.543 433.721 268.543 434.821C268.543 435.941 267.843 436.481 266.263 436.481C264.583 436.481 263.923 435.701 263.803 434.461H262.183C262.283 436.601 263.783 437.861 266.283 437.861ZM277.013 436.481C274.893 436.481 273.593 434.921 273.593 432.541V432.381C273.593 429.981 274.913 428.421 277.013 428.421C279.093 428.421 280.433 429.981 280.433 432.401V432.541C280.433 434.901 279.113 436.481 277.013 436.481ZM276.993 437.861C279.973 437.861 282.153 435.681 282.153 432.521V432.361C282.153 429.221 279.973 427.041 277.013 427.041C274.053 427.041 271.873 429.241 271.873 432.381V432.541C271.873 435.601 274.013 437.861 276.993 437.861ZM284.723 437.681H286.383V431.281C286.383 429.401 287.783 428.481 289.143 428.481C290.583 428.481 291.363 429.241 291.363 431.081V437.681H293.023V431.281C293.023 429.401 294.423 428.481 295.783 428.481C297.223 428.481 298.003 429.241 298.003 431.081V437.681H299.663V431.201C299.663 428.161 298.023 427.041 296.143 427.041C294.843 427.041 293.283 427.641 292.563 429.001C292.023 427.601 290.843 427.041 289.503 427.041C288.003 427.041 286.863 427.841 286.383 428.821V427.221H284.723V437.681ZM302.926 437.681H304.586V431.281C304.586 429.401 305.986 428.481 307.346 428.481C308.786 428.481 309.566 429.241 309.566 431.081V437.681H311.226V431.281C311.226 429.401 312.626 428.481 313.986 428.481C315.426 428.481 316.206 429.241 316.206 431.081V437.681H317.866V431.201C317.866 428.161 316.226 427.041 314.346 427.041C313.046 427.041 311.486 427.641 310.766 429.001C310.226 427.601 309.046 427.041 307.706 427.041C306.206 427.041 305.066 427.841 304.586 428.821V427.221H302.926V437.681ZM325.409 437.861C327.769 437.861 329.509 436.761 329.869 434.661H328.209C327.989 435.881 327.049 436.481 325.429 436.481C323.289 436.481 322.149 435.161 322.069 432.781H329.949V432.241C329.949 428.501 327.669 427.041 325.249 427.041C322.369 427.041 320.349 429.241 320.349 432.401V432.561C320.349 435.781 322.449 437.861 325.409 437.861ZM322.129 431.441C322.409 429.581 323.549 428.421 325.249 428.421C326.969 428.421 328.089 429.281 328.249 431.441H322.129ZM332.496 437.681H334.156V431.941C334.156 429.361 335.496 428.701 337.596 428.601V427.041C335.716 427.101 334.816 427.921 334.156 429.101V427.221H332.496V437.681ZM338.516 441.501C340.836 441.421 341.716 440.341 341.716 438.341V427.221H340.056V438.481C340.056 439.401 339.696 440.001 338.516 440.101V441.501ZM340.856 425.041C341.456 425.041 341.956 424.541 341.956 423.941C341.956 423.341 341.456 422.841 340.856 422.841C340.256 422.841 339.756 423.341 339.756 423.941C339.756 424.541 340.256 425.041 340.856 425.041ZM349.474 436.481C347.354 436.481 346.054 434.921 346.054 432.541V432.381C346.054 429.981 347.374 428.421 349.474 428.421C351.554 428.421 352.894 429.981 352.894 432.401V432.541C352.894 434.901 351.574 436.481 349.474 436.481ZM349.454 437.861C352.434 437.861 354.614 435.681 354.614 432.521V432.361C354.614 429.221 352.434 427.041 349.474 427.041C346.514 427.041 344.334 429.241 344.334 432.381V432.541C344.334 435.601 346.474 437.861 349.454 437.861ZM362.384 437.861C365.264 437.861 367.144 435.661 367.144 432.461V432.301C367.144 429.041 365.124 427.041 362.384 427.041C360.864 427.041 359.444 427.961 358.844 428.981V422.221H357.184V437.681H358.844V435.961C359.444 437.001 360.684 437.861 362.384 437.861ZM362.224 436.481C360.184 436.481 358.784 435.221 358.784 432.541V432.381C358.784 429.701 360.264 428.421 362.204 428.421C363.964 428.421 365.424 429.741 365.424 432.381V432.541C365.424 435.081 364.304 436.481 362.224 436.481ZM374.923 437.861C377.803 437.861 379.683 435.661 379.683 432.461V432.301C379.683 429.041 377.663 427.041 374.923 427.041C373.403 427.041 371.983 427.961 371.383 428.981V422.221H369.723V437.681H371.383V435.961C371.983 437.001 373.223 437.861 374.923 437.861ZM374.763 436.481C372.723 436.481 371.323 435.221 371.323 432.541V432.381C371.323 429.701 372.803 428.421 374.743 428.421C376.503 428.421 377.963 429.741 377.963 432.381V432.541C377.963 435.081 376.843 436.481 374.763 436.481ZM386.542 437.861C388.902 437.861 390.642 436.761 391.002 434.661H389.342C389.122 435.881 388.182 436.481 386.562 436.481C384.422 436.481 383.282 435.161 383.202 432.781H391.082V432.241C391.082 428.501 388.802 427.041 386.382 427.041C383.502 427.041 381.482 429.241 381.482 432.401V432.561C381.482 435.781 383.582 437.861 386.542 437.861ZM383.262 431.441C383.542 429.581 384.682 428.421 386.382 428.421C388.102 428.421 389.222 429.281 389.382 431.441H383.262ZM393.629 437.681H395.289V431.941C395.289 429.361 396.629 428.701 398.729 428.601V427.041C396.849 427.101 395.949 427.921 395.289 429.101V427.221H393.629V437.681ZM406.482 437.681H408.142V427.221H406.482V437.681ZM407.282 425.041C407.882 425.041 408.382 424.541 408.382 423.941C408.382 423.341 407.882 422.841 407.282 422.841C406.682 422.841 406.182 423.341 406.182 423.941C406.182 424.541 406.682 425.041 407.282 425.041ZM416.952 437.681H421.852C424.712 437.681 426.552 436.381 426.552 433.681V433.601C426.552 431.741 425.772 430.681 423.692 430.181C425.332 429.621 425.852 428.461 425.852 427.161V427.081C425.852 424.261 423.912 423.381 421.252 423.381H416.952V437.681ZM418.652 436.321V430.981H421.572C423.872 430.981 424.852 431.821 424.852 433.581V433.661C424.852 435.401 423.892 436.321 421.812 436.321H418.652ZM418.652 429.621V424.741H421.212C423.212 424.741 424.152 425.401 424.152 427.021V427.101C424.152 428.861 423.352 429.621 421.252 429.621H418.652ZM433.554 437.861C435.914 437.861 437.654 436.761 438.014 434.661H436.354C436.134 435.881 435.194 436.481 433.574 436.481C431.434 436.481 430.294 435.161 430.214 432.781H438.094V432.241C438.094 428.501 435.814 427.041 433.394 427.041C430.514 427.041 428.494 429.241 428.494 432.401V432.561C428.494 435.781 430.594 437.861 433.554 437.861ZM430.274 431.441C430.554 429.581 431.694 428.421 433.394 428.421C435.114 428.421 436.234 429.281 436.394 431.441H430.274ZM440.641 437.681H442.301V431.941C442.301 429.361 443.641 428.701 445.741 428.601V427.041C443.861 427.101 442.961 427.921 442.301 429.101V427.221H440.641V437.681ZM452.048 441.501C454.968 441.501 457.028 440.021 457.048 436.981V427.221H455.388V428.901C454.788 427.881 453.708 427.041 451.968 427.041C449.088 427.041 447.088 429.401 447.088 432.241V432.381C447.088 435.261 449.108 437.341 451.848 437.341C453.368 437.341 454.788 436.381 455.388 435.361V436.881C455.388 439.121 454.088 440.101 452.028 440.101C450.248 440.101 449.248 439.481 449.008 438.281H447.308C447.588 440.041 448.948 441.501 452.048 441.501ZM452.028 435.961C450.268 435.961 448.808 434.601 448.808 432.321V432.161C448.808 429.961 450.048 428.421 452.128 428.421C454.168 428.421 455.448 429.781 455.448 432.121V432.261C455.448 434.601 453.968 435.961 452.028 435.961ZM464.687 437.861C467.047 437.861 468.787 436.761 469.147 434.661H467.487C467.267 435.881 466.327 436.481 464.707 436.481C462.567 436.481 461.427 435.161 461.347 432.781H469.227V432.241C469.227 428.501 466.947 427.041 464.527 427.041C461.647 427.041 459.627 429.241 459.627 432.401V432.561C459.627 435.781 461.727 437.861 464.687 437.861ZM461.407 431.441C461.687 429.581 462.827 428.421 464.527 428.421C466.247 428.421 467.367 429.281 467.527 431.441H461.407ZM471.774 437.681H473.434V431.341C473.434 429.461 474.814 428.481 476.354 428.481C478.034 428.481 478.814 429.301 478.814 431.141V437.681H480.474V431.261C480.474 428.221 478.954 427.041 476.794 427.041C475.074 427.041 473.914 427.901 473.434 428.881V427.221H471.774V437.681Z" fill="white"/>
<path fill-rule="evenodd" clip-rule="evenodd" d="M240.538 113.244C242.985 112.999 245.662 113.631 247.284 115.527C248.845 117.349 248.317 120.004 248.384 122.421C248.459 124.964 249.299 127.798 247.678 129.724C246.004 131.717 243.104 131.747 240.538 131.754C237.965 131.754 235.31 131.486 233.377 129.746C231.332 127.909 229.815 125.18 230.157 122.421C230.476 119.833 233.057 118.45 234.983 116.739C236.694 115.23 238.285 113.467 240.538 113.244V113.244Z" fill="#997671"/>
<path fill-rule="evenodd" clip-rule="evenodd" d="M253.527 90.9823C255.973 90.7369 258.651 91.3691 260.272 93.2654C261.834 95.0874 261.306 97.7423 261.372 100.159C261.439 102.703 262.287 105.536 260.666 107.462C258.993 109.455 256.092 109.485 253.527 109.492C250.954 109.492 248.299 109.225 246.365 107.484C244.32 105.648 242.803 102.918 243.145 100.159C243.465 97.5713 246.045 96.1806 247.971 94.4776C249.682 92.968 251.273 91.2054 253.527 90.9823V90.9823Z" fill="#997671"/>
<path fill-rule="evenodd" clip-rule="evenodd" d="M240.538 68.7084C242.985 68.463 245.662 69.0951 247.284 70.9915C248.845 72.8135 248.317 75.4684 248.384 77.8854C248.459 80.4287 249.299 83.2621 247.678 85.1883C246.004 87.1813 243.104 87.211 240.538 87.2185C237.965 87.2185 235.31 86.9508 233.377 85.2106C231.332 83.3737 229.815 80.6444 230.157 77.8854C230.476 75.2974 233.057 73.9141 234.983 72.2037C236.694 70.694 238.285 68.9315 240.538 68.7084V68.7084Z" fill="#997671"/>
<path fill-rule="evenodd" clip-rule="evenodd" d="M262.804 68.7084C265.251 68.463 267.928 69.0951 269.549 70.9915C271.111 72.8135 270.583 75.4684 270.65 77.8854C270.724 80.4287 271.565 83.2621 269.943 85.1883C268.27 87.1813 265.37 87.211 262.804 87.2185C260.231 87.2185 257.576 86.9508 255.642 85.2106C253.597 83.3737 252.08 80.6444 252.422 77.8854C252.742 75.2974 255.323 73.9141 257.249 72.2037C258.959 70.694 260.551 68.9315 262.804 68.7084V68.7084Z" fill="#997671"/>
<path fill-rule="evenodd" clip-rule="evenodd" d="M275.79 46.4346C278.237 46.1892 280.914 46.8213 282.535 48.7177C284.097 50.5397 283.569 53.1946 283.636 55.6116C283.703 58.1549 284.551 60.9883 282.93 62.9145C281.256 64.9075 278.356 64.9372 275.79 64.9447C273.217 64.9447 270.562 64.677 268.629 62.9368C266.584 61.0999 265.067 58.3706 265.409 55.6116C265.728 53.0236 268.309 51.6403 270.235 49.9299C271.946 48.4202 273.537 46.6577 275.79 46.4346V46.4346Z" fill="#997671"/>
<path fill-rule="evenodd" clip-rule="evenodd" d="M342.592 46.4346C345.039 46.1892 347.716 46.8213 349.337 48.7177C350.899 50.5397 350.371 53.1946 350.438 55.6116C350.505 58.1549 351.353 60.9883 349.731 62.9145C348.058 64.9075 345.158 64.9372 342.592 64.9447C340.019 64.9447 337.364 64.677 335.431 62.9368C333.385 61.0999 331.868 58.3706 332.21 55.6116C332.53 53.0236 335.111 51.6403 337.037 49.9299C338.747 48.4202 340.339 46.6577 342.592 46.4346V46.4346Z" fill="#997671"/>
<path fill-rule="evenodd" clip-rule="evenodd" d="M285.069 68.7084C287.515 68.463 290.193 69.0951 291.814 70.9915C293.376 72.8135 292.848 75.4684 292.914 77.8854C292.989 80.4287 293.829 83.2621 292.208 85.1883C290.535 87.1813 287.634 87.211 285.069 87.2185C282.496 87.2185 279.841 86.9508 277.907 85.2106C275.862 83.3737 274.345 80.6444 274.687 77.8854C275.007 75.2974 277.587 73.9141 279.513 72.2037C281.224 70.694 282.815 68.9315 285.069 68.7084V68.7084Z" fill="#997671"/>
<path fill-rule="evenodd" clip-rule="evenodd" d="M298.062 46.4346C300.509 46.1892 303.186 46.8213 304.807 48.7177C306.369 50.5397 305.841 53.1946 305.908 55.6116C305.975 58.1549 306.822 60.9883 305.201 62.9145C303.528 64.9075 300.628 64.9372 298.062 64.9447C295.489 64.9447 292.834 64.677 290.9 62.9368C288.855 61.0999 287.338 58.3706 287.68 55.6116C288 53.0236 290.58 51.6403 292.507 49.9299C294.217 48.4202 295.809 46.6577 298.062 46.4346V46.4346Z" fill="#997671"/>
<path fill-rule="evenodd" clip-rule="evenodd" d="M364.866 46.4346C367.312 46.1892 369.989 46.8213 371.611 48.7177C373.172 50.5397 372.644 53.1946 372.711 55.6116C372.778 58.1549 373.626 60.9883 372.005 62.9145C370.332 64.9075 367.431 64.9372 364.866 64.9447C362.292 64.9447 359.638 64.677 357.704 62.9368C355.659 61.0999 354.142 58.3706 354.484 55.6116C354.804 53.0236 357.384 51.6403 359.31 49.9299C361.021 48.4202 362.612 46.6577 364.866 46.4346V46.4346Z" fill="#997671"/>
<path fill-rule="evenodd" clip-rule="evenodd" d="M353.725 24.1736C356.172 23.9282 358.849 24.5603 360.47 26.4567C362.032 28.2787 361.504 30.9336 361.571 33.3506C361.638 35.8939 362.485 38.7273 360.864 40.6535C359.191 42.6465 356.291 42.6763 353.725 42.6837C351.152 42.6837 348.497 42.416 346.563 40.6758C344.518 38.8389 343.001 36.1096 343.343 33.3506C343.663 30.7626 346.244 29.3794 348.17 27.6689C349.88 26.1592 351.472 24.3967 353.725 24.1736V24.1736Z" fill="#997671"/>
<path fill-rule="evenodd" clip-rule="evenodd" d="M372.286 1.89983C374.733 1.65442 377.41 2.28654 379.032 4.18291C380.593 6.00491 380.065 8.65983 380.132 11.0768C380.199 13.6201 381.047 16.4535 379.426 18.3797C377.752 20.3727 374.852 20.4025 372.286 20.4099C369.713 20.4099 367.058 20.1422 365.125 18.402C363.08 16.5651 361.563 13.8358 361.905 11.0768C362.225 8.48879 364.805 7.10555 366.731 5.3951C368.442 3.88544 370.033 2.12293 372.286 1.89983V1.89983Z" fill="#997671"/>
<path fill-rule="evenodd" clip-rule="evenodd" d="M375.998 24.1736C378.445 23.9282 381.122 24.5603 382.743 26.4567C384.305 28.2787 383.777 30.9336 383.844 33.3506C383.911 35.8939 384.759 38.7273 383.138 40.6535C381.464 42.6465 378.564 42.6763 375.998 42.6837C373.425 42.6837 370.77 42.416 368.837 40.6758C366.792 38.8389 365.275 36.1096 365.617 33.3506C365.936 30.7626 368.517 29.3794 370.443 27.6689C372.154 26.1592 373.745 24.3967 375.998 24.1736V24.1736Z" fill="#997671"/>
<path fill-rule="evenodd" clip-rule="evenodd" d="M398.276 24.1736C400.722 23.9282 403.4 24.5603 405.021 26.4567C406.583 28.2787 406.055 30.9336 406.121 33.3506C406.188 35.8939 407.036 38.7273 405.415 40.6535C403.742 42.6465 400.841 42.6763 398.276 42.6837C395.703 42.6837 393.048 42.416 391.114 40.6758C389.069 38.8389 387.552 36.1096 387.894 33.3506C388.214 30.7626 390.794 29.3794 392.72 27.6689C394.431 26.1592 396.022 24.3967 398.276 24.1736V24.1736Z" fill="#997671"/>
<path fill-rule="evenodd" clip-rule="evenodd" d="M420.536 24.1736C422.983 23.9282 425.66 24.5603 427.282 26.4567C428.843 28.2787 428.315 30.9336 428.382 33.3506C428.449 35.8939 429.297 38.7273 427.676 40.6535C426.002 42.6465 423.102 42.6763 420.536 42.6837C417.963 42.6837 415.308 42.416 413.375 40.6758C411.33 38.8389 409.813 36.1096 410.155 33.3506C410.475 30.7626 413.055 29.3794 414.981 27.6689C416.692 26.1592 418.283 24.3967 420.536 24.1736V24.1736Z" fill="#997671"/>
<path fill-rule="evenodd" clip-rule="evenodd" d="M411.257 0.0509513C413.704 -0.194461 416.381 0.437662 418.002 2.33403C419.564 4.15604 419.036 6.81095 419.103 9.2279C419.177 11.7713 420.018 14.6047 418.396 16.5308C416.723 18.5238 413.823 18.5536 411.257 18.561C408.684 18.561 406.029 18.2933 404.096 16.5531C402.05 14.7162 400.533 11.9869 400.875 9.2279C401.195 6.63991 403.776 5.25667 405.702 3.54622C407.412 2.03656 409.004 0.274054 411.257 0.0509513V0.0509513Z" fill="#997671"/>
<path fill-rule="evenodd" clip-rule="evenodd" d="M409.405 46.4346C411.851 46.1892 414.529 46.8213 416.15 48.7177C417.711 50.5397 417.183 53.1946 417.25 55.6116C417.317 58.1549 418.165 60.9883 416.544 62.9145C414.871 64.9075 411.97 64.9372 409.405 64.9447C406.832 64.9447 404.177 64.677 402.243 62.9368C400.198 61.0999 398.681 58.3706 399.023 55.6116C399.343 53.0236 401.923 51.6403 403.849 49.9299C405.56 48.4202 407.151 46.6577 409.405 46.4346V46.4346Z" fill="#997671"/>
<path fill-rule="evenodd" clip-rule="evenodd" d="M307.339 68.7084C309.786 68.463 312.463 69.0951 314.084 70.9915C315.646 72.8135 315.118 75.4684 315.185 77.8854C315.259 80.4287 316.1 83.2621 314.478 85.1883C312.805 87.1813 309.905 87.211 307.339 87.2185C304.766 87.2185 302.111 86.9508 300.178 85.2106C298.132 83.3737 296.615 80.6444 296.957 77.8854C297.277 75.2974 299.858 73.9141 301.784 72.2037C303.494 70.694 305.086 68.9315 307.339 68.7084V68.7084Z" fill="#997671"/>
<path fill-rule="evenodd" clip-rule="evenodd" d="M320.334 46.4346C322.781 46.1892 325.458 46.8213 327.079 48.7177C328.641 50.5397 328.113 53.1946 328.18 55.6116C328.247 58.1549 329.095 60.9883 327.474 62.9145C325.8 64.9075 322.9 64.9372 320.334 64.9447C317.761 64.9447 315.106 64.677 313.173 62.9368C311.128 61.0999 309.611 58.3706 309.953 55.6116C310.272 53.0236 312.853 51.6403 314.779 49.9299C316.489 48.4202 318.081 46.6577 320.334 46.4346V46.4346Z" fill="#997671"/>
<path fill-rule="evenodd" clip-rule="evenodd" d="M387.128 46.4346C389.575 46.1892 392.252 46.8213 393.873 48.7177C395.435 50.5397 394.907 53.1946 394.974 55.6116C395.041 58.1549 395.889 60.9883 394.267 62.9145C392.594 64.9075 389.694 64.9372 387.128 64.9447C384.555 64.9447 381.9 64.677 379.967 62.9368C377.922 61.0999 376.404 58.3706 376.747 55.6116C377.066 53.0236 379.647 51.6403 381.573 49.9299C383.283 48.4202 384.875 46.6577 387.128 46.4346V46.4346Z" fill="#997671"/>
<path fill-rule="evenodd" clip-rule="evenodd" d="M431.662 46.4346C434.109 46.1892 436.786 46.8213 438.408 48.7177C439.969 50.5397 439.441 53.1946 439.508 55.6116C439.575 58.1549 440.423 60.9883 438.802 62.9145C437.128 64.9075 434.228 64.9372 431.662 64.9447C429.089 64.9447 426.434 64.677 424.501 62.9368C422.456 61.0999 420.939 58.3706 421.281 55.6116C421.601 53.0236 424.181 51.6403 426.107 49.9299C427.818 48.4202 429.409 46.6577 431.662 46.4346V46.4346Z" fill="#997671"/>
<path fill-rule="evenodd" clip-rule="evenodd" d="M442.8 24.1736C445.247 23.9282 447.924 24.5603 449.545 26.4567C451.107 28.2787 450.579 30.9336 450.646 33.3506C450.713 35.8939 451.561 38.7273 449.939 40.6535C448.266 42.6465 445.366 42.6763 442.8 42.6837C440.227 42.6837 437.572 42.416 435.638 40.6758C433.593 38.8389 432.076 36.1096 432.418 33.3506C432.738 30.7626 435.319 29.3794 437.245 27.6689C438.955 26.1592 440.547 24.3967 442.8 24.1736V24.1736Z" fill="#997671"/>
<path fill-rule="evenodd" clip-rule="evenodd" d="M465.07 22.3183C467.516 22.0729 470.194 22.705 471.815 24.6014C473.376 26.4234 472.848 29.0783 472.915 31.4952C472.982 34.0386 473.83 36.872 472.209 38.7981C470.536 40.7912 467.635 40.8209 465.07 40.8284C462.497 40.8284 459.842 40.5606 457.908 38.8204C455.863 36.9836 454.346 34.2543 454.688 31.4952C455.008 28.9072 457.588 27.524 459.514 25.8136C461.225 24.3039 462.816 22.5414 465.07 22.3183V22.3183Z" fill="#997671"/>
<path fill-rule="evenodd" clip-rule="evenodd" d="M487.343 22.3183C489.79 22.0729 492.467 22.705 494.088 24.6014C495.65 26.4234 495.122 29.0783 495.189 31.4952C495.256 34.0386 496.104 36.872 494.482 38.7981C492.809 40.7912 489.909 40.8209 487.343 40.8284C484.77 40.8284 482.115 40.5606 480.182 38.8204C478.136 36.9836 476.619 34.2543 476.961 31.4952C477.281 28.9072 479.862 27.524 481.788 25.8136C483.498 24.3039 485.09 22.5414 487.343 22.3183V22.3183Z" fill="#997671"/>
<path fill-rule="evenodd" clip-rule="evenodd" d="M509.605 3.76091C512.052 3.5155 514.729 4.14762 516.35 6.04399C517.912 7.866 517.384 10.5209 517.451 12.9379C517.518 15.4812 518.365 18.3146 516.744 20.2407C515.071 22.2338 512.17 22.2635 509.605 22.271C507.032 22.271 504.377 22.0033 502.443 20.2631C500.398 18.4262 498.881 15.6969 499.223 12.9379C499.543 10.3499 502.123 8.96664 504.05 7.25618C505.76 5.74652 507.351 3.98401 509.605 3.76091V3.76091Z" fill="#997671"/>
<path fill-rule="evenodd" clip-rule="evenodd" d="M531.873 11.1814C534.32 10.936 536.997 11.5682 538.619 13.4645C540.18 15.2865 539.652 17.9414 539.719 20.3584C539.786 22.9018 540.634 25.7352 539.013 27.6613C537.339 29.6543 534.439 29.6841 531.873 29.6915C529.3 29.6915 526.645 29.4238 524.712 27.6836C522.667 25.8467 521.15 23.1174 521.492 20.3584C521.811 17.7704 524.392 16.3872 526.318 14.6767C528.029 13.1671 529.62 11.4045 531.873 11.1814V11.1814Z" fill="#997671"/>
<path fill-rule="evenodd" clip-rule="evenodd" d="M509.605 27.8836C512.052 27.6382 514.729 28.2703 516.35 30.1667C517.912 31.9887 517.384 34.6436 517.451 37.0605C517.518 39.6039 518.365 42.4373 516.744 44.3634C515.071 46.3565 512.17 46.3862 509.605 46.3937C507.032 46.3937 504.377 46.1259 502.443 44.3857C500.398 42.5489 498.881 39.8196 499.223 37.0605C499.543 34.4726 502.123 33.0893 504.05 31.3789C505.76 29.8692 507.351 28.1067 509.605 27.8836V27.8836Z" fill="#997671"/>
<path fill-rule="evenodd" clip-rule="evenodd" d="M531.873 50.1453C534.32 49.8999 536.997 50.532 538.619 52.4284C540.18 54.2504 539.652 56.9053 539.719 59.3223C539.786 61.8656 540.634 64.699 539.013 66.6251C537.339 68.6182 534.439 68.6479 531.873 68.6554C529.3 68.6554 526.645 68.3876 524.712 66.6474C522.667 64.8106 521.15 62.0813 521.492 59.3223C521.811 56.7343 524.392 55.351 526.318 53.6406C528.029 52.1309 529.62 50.3684 531.873 50.1453Z" fill="#997671"/>
<path fill-rule="evenodd" clip-rule="evenodd" d="M481.773 0.0509513C484.219 -0.194461 486.897 0.437662 488.518 2.33403C490.08 4.15604 489.552 6.81095 489.619 9.2279C489.685 11.7713 490.533 14.6047 488.912 16.5308C487.239 18.5238 484.338 18.5536 481.773 18.561C479.2 18.561 476.545 18.2933 474.611 16.5531C472.566 14.7162 471.049 11.9869 471.391 9.2279C471.711 6.63991 474.291 5.25667 476.218 3.54622C477.928 2.03656 479.519 0.274054 481.773 0.0509513V0.0509513Z" fill="#997671"/>
<path fill-rule="evenodd" clip-rule="evenodd" d="M452.083 1.89983C454.53 1.65442 457.207 2.28654 458.828 4.18291C460.39 6.00491 459.862 8.65983 459.929 11.0768C459.996 13.6201 460.844 16.4535 459.223 18.3797C457.549 20.3727 454.649 20.4025 452.083 20.4099C449.51 20.4099 446.855 20.1422 444.922 18.402C442.877 16.5651 441.36 13.8358 441.702 11.0768C442.021 8.48879 444.602 7.10555 446.528 5.3951C448.239 3.88544 449.83 2.12293 452.083 1.89983V1.89983Z" fill="#997671"/>
<path fill-rule="evenodd" clip-rule="evenodd" d="M422.39 68.7084C424.837 68.463 427.514 69.0951 429.135 70.9915C430.697 72.8135 430.169 75.4684 430.236 77.8854C430.303 80.4287 431.15 83.2621 429.529 85.1883C427.856 87.1813 424.956 87.211 422.39 87.2185C419.817 87.2185 417.162 86.9508 415.228 85.2106C413.183 83.3737 411.666 80.6444 412.008 77.8854C412.328 75.2974 414.909 73.9141 416.835 72.2037C418.545 70.694 420.137 68.9315 422.39 68.7084V68.7084Z" fill="#997671"/>
<path fill-rule="evenodd" clip-rule="evenodd" d="M400.124 68.7084C402.571 68.463 405.248 69.0951 406.869 70.9915C408.431 72.8135 407.903 75.4684 407.97 77.8854C408.037 80.4287 408.885 83.2621 407.264 85.1883C405.59 87.1813 402.69 87.211 400.124 87.2185C397.551 87.2185 394.896 86.9508 392.963 85.2106C390.918 83.3737 389.401 80.6444 389.743 77.8854C390.062 75.2974 392.643 73.9141 394.569 72.2037C396.28 70.694 397.871 68.9315 400.124 68.7084V68.7084Z" fill="#997671"/>
<path fill-rule="evenodd" clip-rule="evenodd" d="M377.85 68.7084C380.297 68.463 382.974 69.0951 384.595 70.9915C386.157 72.8135 385.629 75.4684 385.696 77.8854C385.77 80.4287 386.61 83.2621 384.989 85.1883C383.316 87.1813 380.416 87.211 377.85 87.2185C375.277 87.2185 372.622 86.9508 370.688 85.2106C368.643 83.3737 367.126 80.6444 367.468 77.8854C367.788 75.2974 370.369 73.9141 372.295 72.2037C374.005 70.694 375.597 68.9315 377.85 68.7084V68.7084Z" fill="#997671"/>
<path fill-rule="evenodd" clip-rule="evenodd" d="M275.79 90.9823C278.237 90.7369 280.914 91.3691 282.535 93.2654C284.097 95.0874 283.569 97.7423 283.636 100.159C283.703 102.703 284.551 105.536 282.93 107.462C281.256 109.455 278.356 109.485 275.79 109.492C273.217 109.492 270.562 109.225 268.629 107.484C266.584 105.648 265.067 102.918 265.409 100.159C265.728 97.5713 268.309 96.1806 270.235 94.4776C271.946 92.968 273.537 91.2054 275.79 90.9823V90.9823Z" fill="#997671"/>
<path fill-rule="evenodd" clip-rule="evenodd" d="M218.273 113.244C220.719 112.999 223.397 113.631 225.018 115.527C226.58 117.349 226.052 120.004 226.119 122.421C226.185 124.964 227.033 127.798 225.412 129.724C223.739 131.717 220.838 131.747 218.273 131.754C215.7 131.754 213.045 131.486 211.111 129.746C209.066 127.909 207.549 125.18 207.891 122.421C208.211 119.833 210.791 118.45 212.718 116.739C214.428 115.23 216.019 113.467 218.273 113.244V113.244Z" fill="#997671"/>
<path fill-rule="evenodd" clip-rule="evenodd" d="M195.999 90.9823C198.446 90.7369 201.123 91.3691 202.744 93.2654C204.306 95.0874 203.778 97.7423 203.845 100.159C203.912 102.703 204.76 105.536 203.139 107.462C201.465 109.455 198.565 109.485 195.999 109.492C193.426 109.492 190.771 109.225 188.838 107.484C186.793 105.648 185.276 102.918 185.618 100.159C185.937 97.5713 188.518 96.1806 190.444 94.4776C192.155 92.968 193.746 91.2054 195.999 90.9823Z" fill="#997671"/>
<path fill-rule="evenodd" clip-rule="evenodd" d="M218.273 76.1291C220.719 75.8837 223.397 76.5158 225.018 78.4122C226.58 80.2342 226.052 82.8891 226.119 85.306C226.185 87.8494 227.033 90.6828 225.412 92.6089C223.739 94.602 220.838 94.6317 218.273 94.6391C215.7 94.6391 213.045 94.3714 211.111 92.6312C209.066 90.7943 207.549 88.0651 207.891 85.306C208.211 82.718 210.791 81.3348 212.718 79.6243C214.428 78.1147 216.019 76.3522 218.273 76.1291V76.1291Z" fill="#997671"/>
<path fill-rule="evenodd" clip-rule="evenodd" d="M231.258 135.511C233.705 135.265 236.382 135.897 238.003 137.794C239.565 139.616 239.037 142.271 239.104 144.688C239.171 147.231 240.019 150.064 238.397 151.991C236.724 153.984 233.824 154.013 231.258 154.021C228.685 154.021 226.03 153.753 224.097 152.013C222.051 150.176 220.534 147.447 220.876 144.688C221.196 142.1 223.777 140.709 225.703 139.006C227.413 137.496 229.005 135.734 231.258 135.511V135.511Z" fill="#997671"/>
<path fill-rule="evenodd" clip-rule="evenodd" d="M208.99 135.511C211.436 135.265 214.113 135.897 215.735 137.794C217.296 139.616 216.768 142.271 216.835 144.688C216.902 147.231 217.75 150.064 216.129 151.991C214.456 153.984 211.555 154.013 208.99 154.021C206.416 154.021 203.762 153.753 201.828 152.013C199.783 150.176 198.266 147.447 198.608 144.688C198.928 142.1 201.508 140.709 203.434 139.006C205.145 137.496 206.736 135.734 208.99 135.511V135.511Z" fill="#997671"/>
<path fill-rule="evenodd" clip-rule="evenodd" d="M221.974 157.779C224.421 157.533 227.098 158.166 228.719 160.062C230.281 161.884 229.753 164.539 229.82 166.956C229.894 169.499 230.734 172.333 229.113 174.259C227.44 176.252 224.54 176.281 221.974 176.289C219.401 176.289 216.746 176.021 214.812 174.281C212.767 172.444 211.25 169.715 211.592 166.956C211.912 164.368 214.493 162.985 216.419 161.274C218.129 159.764 219.721 158.002 221.974 157.779V157.779Z" fill="#997671"/>
<path fill-rule="evenodd" clip-rule="evenodd" d="M199.709 157.779C202.156 157.533 204.833 158.166 206.454 160.062C208.016 161.884 207.488 164.539 207.555 166.956C207.622 169.499 208.47 172.333 206.849 174.259C205.175 176.252 202.275 176.281 199.709 176.289C197.136 176.289 194.481 176.021 192.548 174.281C190.503 172.444 188.986 169.715 189.328 166.956C189.647 164.368 192.228 162.985 194.154 161.274C195.865 159.764 197.456 158.002 199.709 157.779V157.779Z" fill="#997671"/>
<path fill-rule="evenodd" clip-rule="evenodd" d="M212.697 180.053C215.143 179.807 217.821 180.439 219.442 182.336C221.003 184.158 220.475 186.813 220.542 189.23C220.617 191.773 221.457 194.606 219.836 196.532C218.163 198.526 215.262 198.555 212.697 198.563C210.123 198.563 207.469 198.295 205.535 196.555C203.49 194.718 201.973 191.989 202.315 189.23C202.635 186.642 205.215 185.258 207.141 183.548C208.852 182.038 210.443 180.276 212.697 180.053V180.053Z" fill="#997671"/>
<path fill-rule="evenodd" clip-rule="evenodd" d="M190.427 180.053C192.874 179.807 195.551 180.439 197.172 182.336C198.734 184.158 198.206 186.813 198.273 189.23C198.347 191.773 199.188 194.606 197.566 196.532C195.893 198.526 192.993 198.555 190.427 198.563C187.854 198.563 185.199 198.295 183.265 196.555C181.22 194.718 179.703 191.989 180.045 189.23C180.365 186.642 182.946 185.258 184.872 183.548C186.582 182.038 188.174 180.276 190.427 180.053V180.053Z" fill="#997671"/>
<path fill-rule="evenodd" clip-rule="evenodd" d="M168.166 180.053C170.613 179.807 173.29 180.439 174.911 182.336C176.473 184.158 175.945 186.813 176.012 189.23C176.086 191.773 176.927 194.606 175.306 196.532C173.632 198.526 170.732 198.555 168.166 198.563C165.593 198.563 162.938 198.295 161.005 196.555C158.96 194.718 157.443 191.989 157.785 189.23C158.104 186.642 160.685 185.258 162.611 183.548C164.322 182.038 165.913 180.276 168.166 180.053V180.053Z" fill="#997671"/>
<path fill-rule="evenodd" clip-rule="evenodd" d="M203.421 202.314C205.868 202.068 208.545 202.7 210.166 204.597C211.728 206.419 211.2 209.074 211.267 211.491C211.334 214.034 212.182 216.867 210.56 218.793C208.887 220.787 205.987 220.816 203.421 220.824C200.848 220.824 198.193 220.556 196.26 218.816C194.215 216.979 192.697 214.25 193.04 211.491C193.359 208.903 195.94 207.519 197.866 205.809C199.576 204.299 201.168 202.537 203.421 202.314V202.314Z" fill="#997671"/>
<path fill-rule="evenodd" clip-rule="evenodd" d="M181.158 202.314C183.604 202.068 186.281 202.7 187.903 204.597C189.464 206.419 188.936 209.074 189.003 211.491C189.07 214.034 189.918 216.867 188.297 218.793C186.624 220.787 183.723 220.816 181.158 220.824C178.584 220.824 175.93 220.556 173.996 218.816C171.951 216.979 170.434 214.25 170.776 211.491C171.096 208.903 173.676 207.519 175.602 205.809C177.313 204.299 178.904 202.537 181.158 202.314Z" fill="#997671"/>
<path fill-rule="evenodd" clip-rule="evenodd" d="M158.883 202.314C161.33 202.068 164.007 202.7 165.628 204.597C167.19 206.419 166.662 209.074 166.729 211.491C166.796 214.034 167.644 216.867 166.022 218.793C164.349 220.787 161.449 220.816 158.883 220.824C156.31 220.824 153.655 220.556 151.722 218.816C149.676 216.979 148.159 214.25 148.501 211.491C148.821 208.903 151.402 207.519 153.328 205.809C155.038 204.299 156.63 202.537 158.883 202.314Z" fill="#997671"/>
<path fill-rule="evenodd" clip-rule="evenodd" d="M194.148 224.582C196.594 224.336 199.272 224.969 200.893 226.865C202.455 228.687 201.927 231.342 201.994 233.759C202.06 236.302 202.908 239.136 201.287 241.062C199.614 243.055 196.713 243.084 194.148 243.092C191.575 243.092 188.92 242.824 186.986 241.084C184.941 239.247 183.424 236.518 183.766 233.759C184.086 231.171 186.666 229.78 188.593 228.077C190.303 226.567 191.894 224.805 194.148 224.582Z" fill="#997671"/>
<path fill-rule="evenodd" clip-rule="evenodd" d="M171.876 224.582C174.323 224.336 177 224.969 178.621 226.865C180.183 228.687 179.655 231.342 179.722 233.759C179.789 236.302 180.637 239.136 179.016 241.062C177.342 243.055 174.442 243.084 171.876 243.092C169.303 243.092 166.648 242.824 164.715 241.084C162.67 239.247 161.152 236.518 161.495 233.759C161.814 231.171 164.395 229.78 166.321 228.077C168.031 226.567 169.623 224.805 171.876 224.582Z" fill="#997671"/>
<path fill-rule="evenodd" clip-rule="evenodd" d="M149.61 224.582C152.056 224.336 154.734 224.969 156.355 226.865C157.917 228.687 157.389 231.342 157.455 233.759C157.522 236.302 158.37 239.136 156.749 241.062C155.076 243.055 152.175 243.084 149.61 243.092C147.037 243.092 144.382 242.824 142.448 241.084C140.403 239.247 138.886 236.518 139.228 233.759C139.548 231.171 142.128 229.78 144.054 228.077C145.765 226.567 147.356 224.805 149.61 224.582Z" fill="#997671"/>
<path fill-rule="evenodd" clip-rule="evenodd" d="M184.867 246.855C187.313 246.609 189.99 247.242 191.612 249.138C193.173 250.96 192.645 253.615 192.712 256.032C192.787 258.575 193.627 261.409 192.006 263.335C190.333 265.328 187.432 265.357 184.867 265.365C182.293 265.365 179.638 265.097 177.705 263.357C175.66 261.52 174.143 258.791 174.485 256.032C174.805 253.444 177.385 252.061 179.311 250.35C181.022 248.84 182.613 247.078 184.867 246.855V246.855Z" fill="#997671"/>
<path fill-rule="evenodd" clip-rule="evenodd" d="M162.595 246.855C165.042 246.609 167.719 247.242 169.34 249.138C170.902 250.96 170.374 253.615 170.441 256.032C170.508 258.575 171.356 261.409 169.734 263.335C168.061 265.328 165.161 265.357 162.595 265.365C160.022 265.365 157.367 265.097 155.433 263.357C153.388 261.52 151.871 258.791 152.213 256.032C152.533 253.444 155.114 252.061 157.04 250.35C158.75 248.84 160.342 247.078 162.595 246.855Z" fill="#997671"/>
<path fill-rule="evenodd" clip-rule="evenodd" d="M140.329 246.855C142.776 246.609 145.453 247.242 147.075 249.138C148.636 250.96 148.108 253.615 148.175 256.032C148.25 258.575 149.09 261.409 147.469 263.335C145.795 265.328 142.895 265.357 140.329 265.365C137.756 265.365 135.101 265.097 133.168 263.357C131.123 261.52 129.606 258.791 129.948 256.032C130.267 253.444 132.848 252.061 134.774 250.35C136.485 248.84 138.076 247.078 140.329 246.855Z" fill="#997671"/>
<path fill-rule="evenodd" clip-rule="evenodd" d="M118.063 246.855C120.51 246.609 123.187 247.242 124.808 249.138C126.37 250.96 125.842 253.615 125.909 256.032C125.983 258.575 126.823 261.409 125.202 263.335C123.529 265.328 120.628 265.357 118.063 265.365C115.49 265.365 112.835 265.097 110.901 263.357C108.856 261.52 107.339 258.791 107.681 256.032C108.001 253.444 110.581 252.061 112.508 250.35C114.218 248.84 115.809 247.078 118.063 246.855Z" fill="#997671"/>
<path fill-rule="evenodd" clip-rule="evenodd" d="M153.32 269.123C155.766 268.878 158.444 269.51 160.065 271.406C161.626 273.228 161.098 275.883 161.165 278.3C161.232 280.843 162.08 283.677 160.459 285.603C158.786 287.596 155.885 287.626 153.32 287.633C150.747 287.633 148.092 287.365 146.158 285.625C144.113 283.788 142.596 281.059 142.938 278.3C143.258 275.712 145.838 274.321 147.764 272.618C149.475 271.109 151.066 269.346 153.32 269.123Z" fill="#997671"/>
<path fill-rule="evenodd" clip-rule="evenodd" d="M131.057 269.123C133.504 268.878 136.181 269.51 137.802 271.406C139.364 273.228 138.836 275.883 138.903 278.3C138.97 280.843 139.817 283.677 138.196 285.603C136.523 287.596 133.623 287.626 131.057 287.633C128.484 287.633 125.829 287.365 123.895 285.625C121.85 283.788 120.333 281.059 120.675 278.3C120.995 275.712 123.576 274.321 125.502 272.618C127.212 271.109 128.804 269.346 131.057 269.123Z" fill="#997671"/>
<path fill-rule="evenodd" clip-rule="evenodd" d="M108.78 269.123C111.226 268.878 113.904 269.51 115.525 271.406C117.086 273.228 116.558 275.883 116.625 278.3C116.692 280.843 117.54 283.677 115.919 285.603C114.246 287.596 111.345 287.626 108.78 287.633C106.206 287.633 103.552 287.365 101.618 285.625C99.5729 283.788 98.0558 281.059 98.3979 278.3C98.7177 275.712 101.298 274.321 103.224 272.618C104.935 271.109 106.526 269.346 108.78 269.123Z" fill="#03DAC6"/>
<path fill-rule="evenodd" clip-rule="evenodd" d="M86.5169 269.123C88.9636 268.878 91.6408 269.51 93.262 271.406C94.8238 273.228 94.2957 275.883 94.3627 278.3C94.4296 280.843 95.2774 283.677 93.6562 285.603C91.9829 287.596 89.0826 287.626 86.5169 287.633C83.9438 287.633 81.2889 287.365 79.3553 285.625C77.3102 283.788 75.7931 281.059 76.1352 278.3C76.455 275.712 79.0355 274.321 80.9617 272.618C82.6721 271.109 84.2636 269.346 86.5169 269.123V269.123Z" fill="#997671"/>
<path fill-rule="evenodd" clip-rule="evenodd" d="M144.039 291.384C146.486 291.139 149.163 291.771 150.785 293.667C152.346 295.489 151.818 298.144 151.885 300.561C151.952 303.104 152.8 305.938 151.179 307.864C149.505 309.857 146.605 309.887 144.039 309.894C141.466 309.894 138.811 309.626 136.878 307.886C134.833 306.049 133.316 303.32 133.658 300.561C133.977 297.973 136.558 296.59 138.484 294.879C140.195 293.37 141.786 291.607 144.039 291.384Z" fill="#997671"/>
<path fill-rule="evenodd" clip-rule="evenodd" d="M121.773 291.384C124.219 291.139 126.897 291.771 128.518 293.667C130.08 295.489 129.552 298.144 129.619 300.561C129.685 303.104 130.533 305.938 128.912 307.864C127.239 309.857 124.338 309.887 121.773 309.894C119.2 309.894 116.545 309.626 114.611 307.886C112.566 306.049 111.049 303.32 111.391 300.561C111.711 297.973 114.291 296.59 116.218 294.879C117.928 293.37 119.519 291.607 121.773 291.384Z" fill="#997671"/>
<path fill-rule="evenodd" clip-rule="evenodd" d="M99.4993 291.384C101.946 291.139 104.623 291.771 106.244 293.667C107.806 295.489 107.278 298.144 107.345 300.561C107.419 303.104 108.26 305.938 106.639 307.864C104.965 309.857 102.065 309.887 99.4993 309.894C96.9262 309.894 94.2713 309.626 92.3377 307.886C90.2926 306.049 88.7755 303.32 89.1176 300.561C89.4374 297.973 92.018 296.59 93.9441 294.879C95.6545 293.37 97.246 291.607 99.4993 291.384Z" fill="#997671"/>
<path fill-rule="evenodd" clip-rule="evenodd" d="M77.2327 291.384C79.6794 291.139 82.3567 291.771 83.9779 293.667C85.5396 295.489 85.0116 298.144 85.0785 300.561C85.1454 303.104 85.9932 305.938 84.372 307.864C82.6987 309.857 79.7984 309.887 77.2327 309.894C74.6596 309.894 72.0047 309.626 70.0711 307.886C68.026 306.049 66.5089 303.32 66.851 300.561C67.1708 297.973 69.7514 296.59 71.6775 294.879C73.3879 293.37 74.9794 291.607 77.2327 291.384Z" fill="#997671"/>
<path fill-rule="evenodd" clip-rule="evenodd" d="M54.9671 291.384C57.4138 291.139 60.091 291.771 61.7122 293.667C63.274 295.489 62.7459 298.144 62.8129 300.561C62.8798 303.104 63.7276 305.938 62.1064 307.864C60.4331 309.857 57.5328 309.887 54.9671 309.894C52.394 309.894 49.7391 309.626 47.8055 307.886C45.7604 306.049 44.2433 303.32 44.5854 300.561C44.9052 297.973 47.4857 296.59 49.4119 294.879C51.1223 293.37 52.7138 291.607 54.9671 291.384Z" fill="#997671"/>
<path fill-rule="evenodd" clip-rule="evenodd" d="M136.617 313.645C139.063 313.4 141.74 314.032 143.362 315.921C144.923 317.743 144.395 320.398 144.462 322.815C144.529 325.358 145.377 328.191 143.756 330.117C142.083 332.111 139.182 332.14 136.617 332.148C134.043 332.148 131.388 331.88 129.455 330.14C127.41 328.303 125.893 325.574 126.235 322.815C126.555 320.227 129.135 318.843 131.061 317.133C132.772 315.623 134.363 313.861 136.617 313.638V313.645Z" fill="#997671"/>
<path fill-rule="evenodd" clip-rule="evenodd" d="M114.35 313.645C116.797 313.4 119.474 314.032 121.095 315.921C122.657 317.743 122.129 320.398 122.196 322.815C122.27 325.358 123.11 328.191 121.489 330.117C119.816 332.111 116.916 332.14 114.35 332.148C111.777 332.148 109.122 331.88 107.188 330.14C105.143 328.303 103.626 325.574 103.968 322.815C104.288 320.227 106.869 318.843 108.795 317.133C110.505 315.623 112.097 313.861 114.35 313.638V313.645Z" fill="#997671"/>
<path fill-rule="evenodd" clip-rule="evenodd" d="M92.0872 313.645C94.5339 313.4 97.2111 314.032 98.8324 315.921C100.394 317.743 99.8661 320.398 99.933 322.814C99.9999 325.358 100.848 328.191 99.2265 330.117C97.5532 332.11 94.6529 332.14 92.0872 332.148C89.5141 332.148 86.8592 331.88 84.9256 330.14C82.8805 328.303 81.3634 325.573 81.7055 322.814C82.0253 320.226 84.6059 318.843 86.532 317.133C88.2424 315.623 89.8339 313.861 92.0872 313.638V313.645Z" fill="#997671"/>
<path fill-rule="evenodd" clip-rule="evenodd" d="M69.8138 313.645C72.2605 313.4 74.9377 314.032 76.5589 315.921C78.1206 317.743 77.5926 320.398 77.6596 322.814C77.7265 325.358 78.5743 328.191 76.9531 330.117C75.2798 332.11 72.3795 332.14 69.8138 332.148C67.2407 332.148 64.5858 331.88 62.6522 330.14C60.6071 328.303 59.09 325.573 59.4321 322.814C59.7519 320.226 62.3324 318.843 64.2585 317.133C65.969 315.623 67.5605 313.861 69.8138 313.638V313.645Z" fill="#997671"/>
<path fill-rule="evenodd" clip-rule="evenodd" d="M47.5462 313.645C49.9929 313.4 52.6701 314.032 54.2913 315.921C55.8531 317.743 55.3251 320.398 55.392 322.814C55.4663 325.358 56.3067 328.191 54.6855 330.117C53.0122 332.11 50.1119 332.14 47.5462 332.148C44.9731 332.148 42.3182 331.88 40.3846 330.14C38.3395 328.303 36.8224 325.573 37.1645 322.814C37.4843 320.226 40.0648 318.843 41.991 317.133C43.7014 315.623 45.2929 313.861 47.5462 313.638V313.645Z" fill="#997671"/>
<path fill-rule="evenodd" clip-rule="evenodd" d="M131.057 335.919C133.504 335.673 136.181 336.305 137.802 338.202C139.364 340.024 138.836 342.679 138.903 345.096C138.97 347.639 139.817 350.472 138.196 352.399C136.523 354.392 133.623 354.421 131.057 354.429C128.484 354.429 125.829 354.161 123.895 352.421C121.85 350.584 120.333 347.855 120.675 345.096C120.995 342.508 123.576 341.124 125.502 339.414C127.212 337.904 128.804 336.142 131.057 335.919Z" fill="#997671"/>
<path fill-rule="evenodd" clip-rule="evenodd" d="M108.78 335.919C111.226 335.673 113.904 336.305 115.525 338.202C117.086 340.024 116.558 342.679 116.625 345.096C116.692 347.639 117.54 350.472 115.919 352.399C114.246 354.392 111.345 354.421 108.78 354.429C106.206 354.429 103.552 354.161 101.618 352.421C99.5729 350.584 98.0558 347.855 98.3979 345.096C98.7177 342.508 101.298 341.124 103.224 339.414C104.935 337.904 106.526 336.142 108.78 335.919Z" fill="#997671"/>
<path fill-rule="evenodd" clip-rule="evenodd" d="M86.5169 335.919C88.9636 335.673 91.6408 336.305 93.262 338.202C94.8238 340.024 94.2957 342.679 94.3627 345.096C94.4296 347.639 95.2774 350.472 93.6562 352.399C91.9829 354.392 89.0826 354.421 86.5169 354.429C83.9438 354.429 81.2889 354.161 79.3553 352.421C77.3102 350.584 75.7931 347.855 76.1352 345.096C76.455 342.508 79.0355 341.124 80.9617 339.414C82.6721 337.904 84.2636 336.142 86.5169 335.919V335.919Z" fill="#997671"/>
<path fill-rule="evenodd" clip-rule="evenodd" d="M41.9769 335.919C44.4236 335.673 47.1008 336.305 48.722 338.202C50.2837 340.024 49.7557 342.679 49.8226 345.096C49.897 347.639 50.7374 350.472 49.1162 352.399C47.4429 354.392 44.5426 354.421 41.9769 354.429C39.4038 354.429 36.7488 354.161 34.8153 352.421C32.7702 350.584 31.2531 347.855 31.5952 345.096C31.915 342.508 34.4955 341.124 36.4216 339.414C38.1321 337.904 39.7235 336.142 41.9769 335.919V335.919Z" fill="#997671"/>
<path fill-rule="evenodd" clip-rule="evenodd" d="M64.2484 335.919C66.695 335.673 69.3723 336.305 70.9935 338.202C72.5552 340.024 72.0272 342.679 72.0941 345.096C72.1611 347.639 73.0088 350.472 71.3876 352.399C69.7144 354.392 66.814 354.421 64.2484 354.429C61.6752 354.429 59.0203 354.161 57.0868 352.421C55.0417 350.584 53.5246 347.855 53.8667 345.096C54.1864 342.508 56.767 341.124 58.6931 339.414C60.4036 337.904 61.995 336.142 64.2484 335.919V335.919Z" fill="#997671"/>
<path fill-rule="evenodd" clip-rule="evenodd" d="M19.7132 335.919C22.1599 335.673 24.8371 336.305 26.4583 338.202C28.0201 340.024 27.492 342.679 27.559 345.096C27.6333 347.639 28.4737 350.472 26.8525 352.399C25.1792 354.392 22.2789 354.421 19.7132 354.429C17.1401 354.429 14.4852 354.161 12.5516 352.421C10.5065 350.584 8.98941 347.855 9.3315 345.096C9.65128 342.508 12.2318 341.124 14.158 339.414C15.8684 337.904 17.4599 336.142 19.7132 335.919V335.919Z" fill="#997671"/>
<path fill-rule="evenodd" clip-rule="evenodd" d="M25.2816 313.645C27.7283 313.4 30.4055 314.032 32.0267 315.921C33.5884 317.743 33.0604 320.398 33.1273 322.814C33.2017 325.358 34.0421 328.191 32.4208 330.117C30.7476 332.11 27.8472 332.14 25.2816 332.148C22.7084 332.148 20.0535 331.88 18.12 330.14C16.0749 328.303 14.5578 325.573 14.8999 322.814C15.2196 320.226 17.8002 318.843 19.7263 317.133C21.4368 315.623 23.0282 313.861 25.2816 313.638V313.645Z" fill="#997671"/>
<path fill-rule="evenodd" clip-rule="evenodd" d="M153.32 345.2C155.766 344.955 158.444 345.587 160.065 347.483C161.626 349.305 161.098 351.96 161.165 354.377C161.232 356.921 162.08 359.754 160.459 361.68C158.786 363.673 155.885 363.703 153.32 363.71C150.747 363.71 148.092 363.443 146.158 361.703C144.113 359.866 142.596 357.136 142.938 354.377C143.258 351.789 145.838 350.399 147.764 348.696C149.475 347.186 151.066 345.423 153.32 345.2Z" fill="#997671"/>
<path fill-rule="evenodd" clip-rule="evenodd" d="M145.899 367.469C148.345 367.223 151.023 367.855 152.644 369.752C154.206 371.574 153.678 374.229 153.745 376.645C153.819 379.189 154.659 382.022 153.038 383.948C151.365 385.941 148.464 385.971 145.899 385.979C143.326 385.979 140.671 385.711 138.737 383.971C136.692 382.134 135.175 379.405 135.517 376.645C135.837 374.058 138.417 372.674 140.344 370.964C142.054 369.454 143.645 367.692 145.899 367.469V367.469Z" fill="#997671"/>
<path fill-rule="evenodd" clip-rule="evenodd" d="M136.617 389.736C139.063 389.49 141.74 390.122 143.362 392.019C144.923 393.841 144.395 396.496 144.462 398.913C144.529 401.456 145.377 404.289 143.756 406.216C142.083 408.209 139.182 408.238 136.617 408.246C134.043 408.246 131.388 407.978 129.455 406.238C127.41 404.401 125.893 401.672 126.235 398.913C126.555 396.325 129.135 394.941 131.061 393.231C132.772 391.721 134.363 389.959 136.617 389.736Z" fill="#997671"/>
<path fill-rule="evenodd" clip-rule="evenodd" d="M131.056 412.003C133.503 411.758 136.18 412.39 137.801 414.286C139.363 416.108 138.835 418.763 138.902 421.18C138.969 423.724 139.816 426.557 138.195 428.483C136.522 430.476 133.622 430.506 131.056 430.513C128.483 430.513 125.828 430.246 123.894 428.505C121.849 426.669 120.332 423.939 120.674 421.18C120.994 418.592 123.575 417.209 125.501 415.499C127.211 413.989 128.803 412.226 131.056 412.003Z" fill="#997671"/>
<path fill-rule="evenodd" clip-rule="evenodd" d="M121.773 358.186C124.219 357.941 126.897 358.573 128.518 360.469C130.08 362.291 129.552 364.946 129.619 367.363C129.685 369.907 130.533 372.74 128.912 374.666C127.239 376.659 124.338 376.689 121.773 376.696C119.2 376.696 116.545 376.429 114.611 374.688C112.566 372.851 111.049 370.122 111.391 367.363C111.711 364.775 114.291 363.385 116.218 361.681C117.928 360.172 119.519 358.409 121.773 358.186Z" fill="#997671"/>
<path fill-rule="evenodd" clip-rule="evenodd" d="M99.4993 358.186C101.946 357.941 104.623 358.573 106.244 360.469C107.806 362.291 107.278 364.946 107.345 367.363C107.419 369.907 108.26 372.74 106.639 374.666C104.965 376.659 102.065 376.689 99.4993 376.696C96.9262 376.696 94.2713 376.429 92.3377 374.688C90.2926 372.851 88.7755 370.122 89.1176 367.363C89.4374 364.775 92.018 363.385 93.9441 361.681C95.6545 360.172 97.246 358.409 99.4993 358.186Z" fill="#997671"/>
<path fill-rule="evenodd" clip-rule="evenodd" d="M77.2327 358.186C79.6794 357.941 82.3567 358.573 83.9779 360.469C85.5396 362.291 85.0116 364.946 85.0785 367.363C85.1454 369.907 85.9932 372.74 84.372 374.666C82.6987 376.659 79.7984 376.689 77.2327 376.696C74.6596 376.696 72.0047 376.429 70.0711 374.688C68.026 372.851 66.5089 370.122 66.851 367.363C67.1708 364.775 69.7514 363.385 71.6775 361.681C73.3879 360.172 74.9794 358.409 77.2327 358.186Z" fill="#997671"/>
<path fill-rule="evenodd" clip-rule="evenodd" d="M32.7025 358.186C35.1492 357.941 37.8264 358.573 39.4476 360.469C41.0093 362.291 40.4813 364.946 40.5482 367.363C40.6226 369.907 41.4629 372.74 39.8417 374.666C38.1685 376.659 35.2681 376.689 32.7025 376.696C30.1293 376.696 27.4744 376.429 25.5409 374.688C23.4958 372.851 21.9787 370.122 22.3208 367.363C22.6405 364.775 25.2211 363.385 27.1472 361.681C28.8577 360.172 30.4491 358.409 32.7025 358.186V358.186Z" fill="#997671"/>
<path fill-rule="evenodd" clip-rule="evenodd" d="M54.9671 358.186C57.4138 357.941 60.091 358.573 61.7122 360.469C63.274 362.291 62.7459 364.946 62.8129 367.363C62.8798 369.907 63.7276 372.74 62.1064 374.666C60.4331 376.659 57.5328 376.689 54.9671 376.696C52.394 376.696 49.7391 376.429 47.8055 374.688C45.7604 372.851 44.2433 370.122 44.5854 367.363C44.9052 364.775 47.4857 363.385 49.4119 361.681C51.1223 360.172 52.7138 358.409 54.9671 358.186Z" fill="#997671"/>
<path fill-rule="evenodd" clip-rule="evenodd" d="M10.43 358.186C12.8767 357.941 15.5539 358.573 17.1751 360.469C18.7368 362.291 18.2088 364.946 18.2758 367.363C18.3501 369.907 19.1905 372.74 17.5693 374.666C15.896 376.659 12.9957 376.689 10.43 376.696C7.85689 376.696 5.20197 376.429 3.26841 374.688C1.22331 372.851 -0.293791 370.122 0.0482999 367.363C0.36808 364.775 2.94863 363.385 4.87475 361.681C6.5852 360.172 8.17667 358.409 10.43 358.186Z" fill="#FFC4BC"/>
<path fill-rule="evenodd" clip-rule="evenodd" d="M112.49 380.454C114.936 380.208 117.613 380.84 119.235 382.737C120.796 384.559 120.268 387.214 120.335 389.63C120.402 392.174 121.25 395.007 119.629 396.933C117.956 398.926 115.055 398.956 112.49 398.964C109.916 398.964 107.262 398.696 105.328 396.956C103.283 395.119 101.766 392.39 102.108 389.63C102.428 387.042 105.008 385.659 106.934 383.949C108.645 382.439 110.236 380.677 112.49 380.454Z" fill="#E61A6B"/>
<path fill-rule="evenodd" clip-rule="evenodd" d="M90.2288 380.454C92.6755 380.208 95.3527 380.84 96.974 382.737C98.5357 384.559 98.0077 387.214 98.0746 389.63C98.149 392.174 98.9893 395.007 97.3681 396.933C95.6948 398.926 92.7945 398.956 90.2288 398.964C87.6557 398.964 85.0008 398.696 83.0672 396.956C81.0221 395.119 79.505 392.39 79.8471 389.63C80.1669 387.042 82.7475 385.659 84.6736 383.949C86.384 382.439 87.9755 380.677 90.2288 380.454Z" fill="#997671"/>
<path fill-rule="evenodd" clip-rule="evenodd" d="M67.9554 380.454C70.4021 380.208 73.0793 380.84 74.7005 382.737C76.2622 384.559 75.7342 387.214 75.8012 389.63C75.8681 392.174 76.7159 395.007 75.0947 396.933C73.4214 398.926 70.5211 398.956 67.9554 398.964C65.3823 398.964 62.7274 398.696 60.7938 396.956C58.7487 395.119 57.2316 392.39 57.5737 389.63C57.8935 387.042 60.474 385.659 62.4001 383.949C64.1106 382.439 65.7021 380.677 67.9554 380.454Z" fill="#997671"/>
<path fill-rule="evenodd" clip-rule="evenodd" d="M45.6868 380.454C48.1335 380.208 50.8108 380.84 52.432 382.737C53.9937 384.559 53.4657 387.214 53.5326 389.63C53.607 392.174 54.4473 395.007 52.8261 396.933C51.1528 398.926 48.2525 398.956 45.6868 398.964C43.1137 398.964 40.4588 398.696 38.5252 396.956C36.4801 395.119 34.963 392.39 35.3051 389.63C35.6249 387.042 38.2055 385.659 40.1316 383.949C41.842 382.439 43.4335 380.677 45.6868 380.454Z" fill="#997671"/>
<path fill-rule="evenodd" clip-rule="evenodd" d="M103.219 402.727C105.666 402.482 108.343 403.114 109.964 405.011C111.526 406.833 110.998 409.487 111.065 411.904C111.132 414.448 111.98 417.281 110.358 419.207C108.685 421.2 105.785 421.23 103.219 421.238C100.646 421.238 97.991 420.97 96.0575 419.23C94.0124 417.393 92.4953 414.663 92.8374 411.904C93.1571 409.316 95.7377 407.933 97.6638 406.223C99.3743 404.713 100.966 402.951 103.219 402.727Z" fill="#997671"/>
<path fill-rule="evenodd" clip-rule="evenodd" d="M80.9446 402.727C83.3913 402.482 86.0686 403.114 87.6898 405.011C89.2515 406.833 88.7235 409.487 88.7904 411.904C88.8573 414.448 89.7051 417.281 88.0839 419.207C86.4107 421.2 83.5103 421.23 80.9446 421.238C78.3715 421.238 75.7166 420.97 73.7831 419.23C71.738 417.393 70.2209 414.663 70.5629 411.904C70.8827 409.316 73.4633 407.933 75.3894 406.223C77.0999 404.713 78.6913 402.951 80.9446 402.727Z" fill="#997671"/>
<path fill-rule="evenodd" clip-rule="evenodd" d="M73.5257 424.996C75.9724 424.75 78.6496 425.382 80.2708 427.271C81.8325 429.093 81.3045 431.748 81.3715 434.165C81.4458 436.709 82.2862 439.542 80.665 441.468C78.9917 443.461 76.0914 443.491 73.5257 443.498C70.9526 443.498 68.2977 443.231 66.3641 441.49C64.319 439.653 62.8019 436.924 63.144 434.165C63.4638 431.577 66.0443 430.194 67.9705 428.484C69.6809 426.974 71.2724 425.211 73.5257 424.988V424.996Z" fill="#997671"/>
<path fill-rule="evenodd" clip-rule="evenodd" d="M58.681 402.727C61.1277 402.482 63.8049 403.114 65.4261 405.011C66.9878 406.833 66.4598 409.487 66.5267 411.904C66.5937 414.448 67.4415 417.281 65.8203 419.207C64.147 421.2 61.2467 421.23 58.681 421.238C56.1079 421.238 53.4529 420.97 51.5194 419.23C49.4743 417.393 47.9572 414.663 48.2993 411.904C48.6191 409.316 51.1996 407.933 53.1257 406.223C54.8362 404.713 56.4276 402.951 58.681 402.727Z" fill="#997671"/>
<path fill-rule="evenodd" clip-rule="evenodd" d="M51.2601 424.996C53.7068 424.75 56.384 425.382 58.0052 427.271C59.5669 429.093 59.0389 431.748 59.1058 434.165C59.1802 436.709 60.0206 439.542 58.3994 441.468C56.7261 443.461 53.8258 443.491 51.2601 443.498C48.687 443.498 46.032 443.231 44.0985 441.49C42.0534 439.653 40.5363 436.924 40.8784 434.165C41.1982 431.577 43.7787 430.194 45.7048 428.484C47.4153 426.974 49.0067 425.211 51.2601 424.988V424.996Z" fill="#997671"/>
<path fill-rule="evenodd" clip-rule="evenodd" d="M36.4075 402.727C38.8542 402.482 41.5315 403.114 43.1527 405.011C44.7144 406.833 44.1864 409.487 44.2533 411.904C44.3277 414.448 45.168 417.281 43.5468 419.207C41.8735 421.2 38.9732 421.23 36.4075 421.238C33.8344 421.238 31.1795 420.97 29.2459 419.23C27.2008 417.393 25.6837 414.663 26.0258 411.904C26.3456 409.316 28.9262 407.933 30.8523 406.223C32.5627 404.713 34.1542 402.951 36.4075 402.727V402.727Z" fill="#997671"/>
<path fill-rule="evenodd" clip-rule="evenodd" d="M14.1468 399.018C16.5935 398.772 19.2707 399.404 20.8919 401.301C22.4536 403.123 21.9256 405.778 21.9926 408.195C22.0669 410.738 22.9073 413.571 21.2861 415.497C19.6128 417.491 16.7125 417.52 14.1468 417.528C11.5737 417.528 8.91876 417.26 6.98521 415.52C4.9401 413.683 3.42301 410.954 3.7651 408.195C4.08488 405.607 6.66543 404.223 8.59155 402.513C10.302 401.003 11.8935 399.241 14.1468 399.018V399.018Z" fill="#997671"/>
<path fill-rule="evenodd" clip-rule="evenodd" d="M28.9964 424.996C31.4431 424.75 34.1203 425.382 35.7415 427.271C37.3033 429.093 36.7752 431.748 36.8422 434.165C36.9165 436.709 37.7569 439.542 36.1357 441.468C34.4624 443.461 31.5621 443.491 28.9964 443.498C26.4233 443.498 23.7684 443.231 21.8348 441.49C19.7897 439.653 18.2726 436.924 18.6147 434.165C18.9345 431.577 21.515 430.194 23.4412 428.484C25.1516 426.974 26.7431 425.211 28.9964 424.988V424.996Z" fill="#997671"/>
</svg>
