<svg width="253" height="104" viewBox="0 0 253 104" fill="none" xmlns="http://www.w3.org/2000/svg">
<mask id="mask0" mask-type="alpha" maskUnits="userSpaceOnUse" x="0" y="0" width="253" height="104">
<path d="M12.1997 33.8193L23.8892 59.1929L35.5322 33.8193H47.2681L23.7964 82.1079L0.510254 33.8193H12.1997Z" fill="black"/>
<path d="M62.4272 33.8193V79H51.9902V33.8193H62.4272ZM50.4131 15.0327C50.4131 13.2082 51.078 11.631 52.4077 10.3013C53.7375 8.97152 55.3301 8.30664 57.1855 8.30664C59.0719 8.30664 60.68 8.97152 62.0098 10.3013C63.3395 11.6001 64.0044 13.1927 64.0044 15.0791C64.0044 16.9655 63.3395 18.5736 62.0098 19.9033C60.7109 21.2331 59.1183 21.8979 57.2319 21.8979C55.3455 21.8979 53.7375 21.2331 52.4077 19.9033C51.078 18.5736 50.4131 16.95 50.4131 15.0327Z" fill="black"/>
<path d="M106.578 0.652832H117.062V79H106.578V74.2686C102.465 78.2887 97.811 80.2988 92.6157 80.2988C86.4308 80.2988 81.2974 78.0413 77.2153 73.5264C73.1642 68.9186 71.1387 63.1667 71.1387 56.2705C71.1387 49.529 73.1642 43.9007 77.2153 39.3857C81.2355 34.8398 86.2917 32.5669 92.3838 32.5669C97.6719 32.5669 102.403 34.7316 106.578 39.061V0.652832ZM81.8076 56.2705C81.8076 60.5999 82.9673 64.1253 85.2866 66.8467C87.6678 69.599 90.6675 70.9751 94.2856 70.9751C98.1512 70.9751 101.275 69.6453 103.656 66.9858C106.037 64.2336 107.228 60.7391 107.228 56.5024C107.228 52.2658 106.037 48.7713 103.656 46.019C101.275 43.3286 98.1821 41.9834 94.3784 41.9834C90.7912 41.9834 87.7915 43.3441 85.3794 46.0654C82.9982 48.8177 81.8076 52.2194 81.8076 56.2705Z" fill="black"/>
<path d="M154.115 41.5195L145.487 46.1118C144.127 43.3286 142.441 41.937 140.431 41.937C139.472 41.937 138.653 42.2617 137.973 42.9111C137.292 43.5296 136.952 44.3337 136.952 45.3232C136.952 47.055 138.962 48.7713 142.982 50.4722C148.518 52.8534 152.244 55.049 154.162 57.0591C156.079 59.0692 157.038 61.7751 157.038 65.1768C157.038 69.5371 155.43 73.1862 152.213 76.124C149.09 78.9072 145.317 80.2988 140.895 80.2988C133.319 80.2988 127.953 76.6034 124.799 69.2124L133.705 65.084C134.942 67.2487 135.885 68.6248 136.535 69.2124C137.803 70.3875 139.318 70.9751 141.081 70.9751C144.606 70.9751 146.369 69.367 146.369 66.1509C146.369 64.2954 145.008 62.5636 142.287 60.9556C141.235 60.4299 140.184 59.9196 139.132 59.4248C138.081 58.93 137.014 58.4198 135.932 57.894C132.901 56.4097 130.767 54.9253 129.53 53.4409C127.953 51.5545 127.165 49.127 127.165 46.1582C127.165 42.2308 128.51 38.9837 131.2 36.417C133.952 33.8503 137.292 32.5669 141.22 32.5669C147.003 32.5669 151.301 35.5511 154.115 41.5195Z" fill="black"/>
<path d="M178.32 70.604L158.002 33.8193H170.109L183.933 59.7959L196.828 33.8193H208.61L172.614 103.585H160.693L178.32 70.604Z" fill="black"/>
<path d="M213.379 33.8193H223.862V37.9941C227.511 34.376 231.624 32.5669 236.201 32.5669C241.458 32.5669 245.556 34.2214 248.494 37.5303C251.029 40.3444 252.297 44.9367 252.297 51.3071V79H241.814V53.7656C241.814 49.3125 241.195 46.2355 239.958 44.5347C238.752 42.8029 236.557 41.937 233.372 41.937C229.908 41.937 227.45 43.0812 225.996 45.3696C224.574 47.6271 223.862 51.57 223.862 57.1982V79H213.379V33.8193Z" fill="black"/>
</mask>
<g mask="url(#mask0)">
<path fill-rule="evenodd" clip-rule="evenodd" d="M2166 1343.54H-1051V-962H2166V1343.54Z" fill="#03DAC6"/>
<path fill-rule="evenodd" clip-rule="evenodd" d="M317.84 26.5667C335.314 4.46854 373.281 -38.2441 361.89 -72.0978C354.531 -93.9709 332.14 -95.5028 311.362 -107.472C299.979 -114.029 288.692 -120.485 281.525 -142.655C261.276 -205.302 269.956 -240.956 208.981 -274.86C148.006 -308.764 186.29 -249.282 186.29 -249.282L65.3455 -173.972C65.3455 -173.972 101.18 -142.655 140.729 -106.586C180.279 -70.5176 201.064 -74.8803 240.187 -50.8564C289.671 -20.4716 317.84 26.5667 317.84 26.5667Z" fill="#EDE8D7"/>
<path fill-rule="evenodd" clip-rule="evenodd" d="M689.5 423.499L686.471 448.487L607.066 482.883H545.467L487.238 547.849L337.09 373.16L294.259 413.103L240.244 295.837C240.244 295.837 238.657 279.288 253.433 262.879C263.713 251.465 293.141 245.342 293.141 245.342C293.141 245.342 268.357 223.01 254.088 197.489C241.168 174.38 233.184 149.549 234.373 133.505C238.437 78.6411 317.839 26.5665 317.839 26.5665L339.497 45.4352C339.497 45.4352 425.639 169.594 422.269 251.887C422.269 251.887 464.791 223.577 519.326 254.094C573.86 284.612 538.218 272.292 549.428 293.762C573.677 340.208 535.118 397.813 563.327 427.71C577.579 442.818 604.051 446.026 624.009 441.207C647.329 435.577 663.256 420.308 663.256 420.308L658.078 375.084L689.5 423.499Z" fill="#333333"/>
<path fill-rule="evenodd" clip-rule="evenodd" d="M158.163 102.69C158.163 102.69 122.786 76.1149 121.003 47.5547C119.693 26.5673 129.592 -3.25 171.866 -15.2242C171.866 -15.2242 143.651 -48.4092 84.3203 -63.7736L58.2838 -38.5906L50.174 68.1177L154.322 130.008L158.163 102.69Z" fill="#FFC4BC"/>
<path fill-rule="evenodd" clip-rule="evenodd" d="M84.3204 -63.7739C93.197 -98.3847 38.6645 -81.8694 34.8162 -119.062C30.9695 -156.253 65.344 -173.974 65.344 -173.974C65.344 -173.974 13.6182 -203.897 -9.03931 -240.662C-31.6969 -277.425 -40.6731 -306.067 -40.6731 -306.067C-40.6731 -306.067 -33.4056 -277.425 -85.5606 -268.021C-110.215 -263.575 -131.729 -253.356 -136.859 -238.096C-142.578 -221.075 -144.874 -184.966 -117.149 -159.72C-64.5668 -111.839 -43.2386 -74.3688 -43.2386 -74.3688C-43.2386 -74.3688 19.6029 -76.9328 23.8772 -5.97018C26.2435 33.3072 17.7398 64.7256 16.7046 87.6355C15.8703 106.118 32.294 132.838 50.8091 139.901C92.2759 155.717 123.056 139.805 123.056 139.805L155.738 100.847C155.738 100.847 103.159 94.7052 81.5893 56.0162C59.1745 15.8129 74.8298 -26.7663 84.3204 -63.7739Z" fill="#E61A6B"/>
<path fill-rule="evenodd" clip-rule="evenodd" d="M11.5347 154.766C11.5347 154.766 -27.4662 127.368 -16.733 70.9777C-16.733 70.9777 -34.4443 127.528 -49.783 145.078C-49.783 145.078 -65.2985 153.551 -62.5239 155.194C-56.8254 158.571 -28.2732 156.477 -10.1086 156.477L11.5347 154.766Z" fill="#E61A6B"/>
<path fill-rule="evenodd" clip-rule="evenodd" d="M317.84 26.5667C317.84 26.5667 267.375 1.33393 214.508 31.9727C214.508 31.9727 135.807 124.26 115.98 146.906C96.1548 169.551 96.756 179.162 121.989 198.989C147.22 218.814 160.438 225.966 191.077 188.145C221.716 150.326 317.84 26.5667 317.84 26.5667Z" fill="#423D89"/>
<path fill-rule="evenodd" clip-rule="evenodd" d="M371.31 176.76C301.018 148.523 261.367 121.489 317.84 58.4075C374.313 -4.67358 410.787 -44.2676 382.628 -93.6722C363.498 -127.232 337.064 -163.278 356.29 -197.167C381.681 -241.928 427.951 -231.286 402.633 -318.037C402.633 -318.037 338.778 -273.786 240.34 -367.54C205.801 -400.437 223.831 -361.779 223.831 -361.779C223.831 -361.779 194.528 -397.613 197.624 -442.102C199.481 -468.794 206.063 -503.186 248.26 -528.504C248.26 -528.504 304.541 -492.28 368.42 -434.868C409.02 -398.376 450.44 -351.282 489.661 -306.068V-183.118C489.661 -183.118 428.382 -212.917 408.557 -181.489C401.992 -171.081 405.4 -153.059 416.987 -137.848C440.384 -107.127 484.472 -72.2893 458.46 -25.6834C447.526 -6.09296 410.96 34.3772 413.363 100.461C415.767 166.547 472.165 201.392 472.165 201.392C472.165 201.392 441.599 204.996 371.31 176.76Z" fill="#423D89"/>
</g>
</svg>
