<?xml version="1.0" encoding="UTF-8"?>
<svg width="542px" height="819px" viewBox="0 0 542 819" version="1.1" xmlns="http://www.w3.org/2000/svg" xmlns:xlink="http://www.w3.org/1999/xlink">
  <g id="8-copy-2" transform="translate(0.000000, -23.000000)" fill="#35316E" fill-rule="nonzero">
    <path d="M79.3288518,1067.37445 C184.251483,1075.70078 230.330859,931.817182 311.401839,864.625677 C385.090017,803.551987 502.857932,783.326421 532.078134,692.13586 C561.294162,600.970372 476.816697,516.085675 452.789713,423.412881 C426.462517,321.867958 462.570831,194.337027 384.785271,124.029154 C306.717924,53.4655371 184.408031,81.1482367 79.3288518,85.8494273 C-20.8368078,90.3333184 -149.636137,68.1269835 -206.911824,150.50626 C-267.516766,237.67281 -144.257148,360.58011 -180.962431,460.221322 C-220.587856,567.790414 -427.348705,590.870125 -410.926404,704.335972 C-395.741876,809.24983 -212.608083,766.757336 -127.47103,829.803436 C-40.9981003,893.83783 -27.8981654,1058.86842 79.3288518,1067.37445 Z" id="Path-Copy-3" transform="translate(63.146863, 572.146498) rotate(-24.000000) translate(-63.146863, -572.146498) "></path>
  </g>
</svg>