<?xml version="1.0" encoding="UTF-8"?>
<svg width="388px" height="281px" viewBox="0 0 388 281" version="1.1" xmlns="http://www.w3.org/2000/svg" xmlns:xlink="http://www.w3.org/1999/xlink">
  <g id="4-copy-5" fill="#EDE8D7" fill-rule="nonzero">
    <path d="M-21.7455284,43.1555573 C-8.28179204,102.715542 -36.9746365,175.394446 6.15866148,218.61638 C50.4795722,263.029786 126.120569,270.509026 185.81769,251.149379 C239.792905,233.645478 253.849544,166.654973 293.006717,125.591778 C329.20818,87.6278784 391.088043,72.2409297 404.719395,21.5916882 C419.117775,-31.9079991 396.730259,-90.2079879 362.88823,-134.066768 C330.573822,-175.945738 278.517987,-192.848192 227.758197,-207.751188 C176.764581,-222.722634 124.584173,-233.8121 73.532392,-219.02093 C16.0229766,-202.358689 -50.2292373,-177.554026 -70.6777739,-121.285873 C-90.820377,-65.8577974 -34.7473146,-14.3606923 -21.7455284,43.1555573 Z" id="Path" transform="translate(167.079148, 17.595895) rotate(-152.000000) translate(-167.079148, -17.595895) "></path>
  </g>
</svg>