<?xml version="1.0" encoding="UTF-8"?>
<svg width="315px" height="648px" viewBox="0 0 315 648" version="1.1" xmlns="http://www.w3.org/2000/svg" xmlns:xlink="http://www.w3.org/1999/xlink">
  <g id="6-copy-2" transform="translate(0.000000, -174.000000)" fill="#EDE8D7" fill-rule="nonzero">
    <path d="M-136.149069,685.151225 C-80.6096118,719.378801 -75.4355217,813.013701 -11.1366187,826.904119 C52.8047969,840.717022 107.40426,782.971983 163.209324,749.818864 C219.252117,716.525785 300.997211,696.212313 313.76685,633.88953 C326.842908,570.07026 231.849146,529.937695 221.429379,465.666033 C209.164414,390.012668 292.4833,308.256757 250.448083,243.322657 C210.259847,181.241896 110.443416,160.994528 37.816639,182.029544 C-32.7283705,202.461658 -36.2595348,304.468491 -97.4264641,344.078448 C-154.58543,381.092957 -242.942593,348.519441 -291.70183,395.416603 C-347.760235,449.332572 -406.102277,538.111746 -369.688957,605.936436 C-330.762297,678.43964 -207.44362,641.212629 -136.149069,685.151225 Z" id="Path-Copy-7"></path>
  </g>
</svg>