<?xml version="1.0" encoding="UTF-8"?>
<svg width="475px" height="248px" viewBox="0 0 475 248" version="1.1" xmlns="http://www.w3.org/2000/svg" xmlns:xlink="http://www.w3.org/1999/xlink">
  <!-- Generator: Sketch 61.2 (89653) - https://sketch.com -->
  <title>Path Copy 2</title>
  <desc>Created with Sketch.</desc>
  <g id="Page-1" stroke="none" stroke-width="1" fill="none" fill-rule="evenodd">
    <g id="4-copy-3" transform="translate(-286.000000, 0.000000)" fill="#EDE8D7">
      <path d="M740.865151,-347.577717 C814.759868,-368.647841 877.961005,-398.952021 946.212359,-380.043658 C1012.87634,-361.575549 1015.92116,-338.608944 1050.2615,-289.204496 C1082.37613,-243.006003 1090.95697,-190.294003 1103.18143,-136.34026 C1120.37702,-60.4358825 1175.46618,13.1938469 1136.13777,89.8037601 C1093.77018,172.323242 998.776409,249.288745 894.738569,269.6872 C792.5762,289.713132 719.783041,213.374145 625.873879,189.84311 C535.803784,167.271605 406.997854,198.445004 356.910331,134.912905 C306.7505,71.2904973 260.193609,-26.4290508 284.766243,-106.910945 C304.710077,-172.237928 449.266016,-230.859497 504.453466,-284.18108 C557.855829,-335.769867 665.097788,-325.982673 740.865151,-347.577717 Z" id="Path-Copy-2"></path>
    </g>
  </g>
</svg>