<?xml version="1.0" encoding="UTF-8"?>
<svg width="425px" height="637px" viewBox="0 0 425 637" version="1.1" xmlns="http://www.w3.org/2000/svg" xmlns:xlink="http://www.w3.org/1999/xlink">
  <g id="4-copy-4" transform="translate(-336.000000, -205.000000)" fill="#EDE8D7">
    <path d="M736.865151,334.422283 C810.759868,313.352159 873.961005,283.047979 942.212359,301.956342 C1008.87634,320.424451 1011.92116,343.391056 1046.2615,392.795504 C1078.37613,438.993997 1086.95697,491.705997 1099.18143,545.65974 C1116.37702,621.564117 1171.46618,695.193847 1132.13777,771.80376 C1089.77018,854.323242 994.776409,931.288745 890.738569,951.6872 C788.5762,971.713132 715.783041,895.374145 621.873879,871.84311 C531.803784,849.271605 402.997854,880.445004 352.910331,816.912905 C302.7505,753.290497 256.193609,655.570949 280.766243,575.089055 C300.710077,509.762072 445.266016,451.140503 500.453466,397.81892 C553.855829,346.230133 661.097788,356.017327 736.865151,334.422283 Z" id="Path-Copy-2" transform="translate(710.000000, 625.500000) rotate(111.000000) translate(-710.000000, -625.500000) "></path>
  </g>
</svg>