<?xml version="1.0" encoding="UTF-8"?>
<svg width="655px" height="431px" viewBox="0 0 655 431" version="1.1" xmlns="http://www.w3.org/2000/svg" xmlns:xlink="http://www.w3.org/1999/xlink">
  <!-- Generator: Sketch 61.2 (89653) - https://sketch.com -->
  <title>Group 2</title>
  <desc>Created with Sketch.</desc>
  <defs>
    <path d="M136.566933,331.601196 C168.64801,326.908251 205.213617,325.067591 226.142413,300.362995 C246.192901,276.696531 233.877417,241.149715 239.077878,210.600657 C243.239133,186.149335 256.663203,164.067311 253.530822,139.46432 C249.914265,111.051899 238.657177,84.4698305 220.22602,62.5114986 C197.311809,35.2137816 172.165665,-2.43138709 136.566933,0.123448334 C100.578498,2.70626178 86.6687764,48.4076291 61.2214989,73.9235877 C41.0174913,94.1826227 12.2090298,107.023064 2.97426161,134.073396 C-6.31660008,161.285706 8.82717973,189.148874 12.1352225,217.705602 C16.5680883,255.994266 -2.84175285,303.639369 25.625719,329.697218 C53.5617783,355.26766 99.0551158,337.089307 136.566933,331.601196 Z" id="path-1"></path>
  </defs>
  <g id="Page-1" stroke="none" stroke-width="1" fill="none" fill-rule="evenodd">
    <g id="1-copy" transform="translate(-329.000000, 0.000000)">
      <g id="Group-2" transform="translate(329.000000, -199.000000)">
        <path d="M274.54488,553.806358 C333.191108,558.460339 358.947054,478.036982 404.261466,440.480467 C445.449279,406.343489 511.275345,395.038462 527.6079,344.067738 C543.938122,293.111028 496.719665,245.66495 483.289846,193.865736 C468.574329,137.107468 488.756976,65.82439 445.278941,26.5259897 C401.643403,-12.9153584 333.27861,2.55781375 274.54488,5.18553185 C218.557548,7.69179099 146.565502,-4.72038148 114.551407,41.3252981 C80.6764348,90.0468123 149.572074,158.745524 129.055752,214.439717 C106.907225,274.565178 -8.661207,287.465522 0.51799469,350.886958 C9.00534659,409.528284 111.367498,385.777215 158.95463,421.016667 C207.288447,456.808524 214.610621,549.05194 274.54488,553.806358 Z" id="Path-Copy-3" fill="#35316E" fill-rule="nonzero"></path>
        <g id="Clipped-Copy-4" transform="translate(401.000000, 287.000000)">
          <mask id="mask-2" fill="white">
            <use xlink:href="#path-1"></use>
          </mask>
          <g id="Path"></g>
          <g id="Group" mask="url(#mask-2)">
            <g transform="translate(-1950.000000, -930.000000)" id="Path">
              <polygon fill="#03DAC6" points="2955.7995 2109.1592 0 2109.1592 0 0 2955.7995 0"></polygon>
              <path d="M2174.44653,946.858215 C2171.97556,948.152315 2020.205,959.505108 2020.205,959.505108 C2020.205,959.505108 1971.68799,925.983487 1946.39191,886.531062 C1921.09584,847.079224 1877.08772,824.585401 1857.94618,819.638407 L1848.18931,799.429847 L1855.06756,773.052251 L1902.98345,754.62308 L1904.66572,790.774078 L1882.71646,808.17238 L1988.6318,850.740941 L2098.96004,863.387835 L2179.71341,922.033539 L2174.44653,946.858215 Z" fill="#EDE8D7"></path>
              <path d="M2659.17504,1370.86297 C2640.07042,1355.18082 2589.26263,1232.68389 2487.64409,1226.17956 C2386.02702,1219.67524 2439.39293,1167.85386 2393.83872,1180.75663 C2348.28304,1193.65793 2304.73308,1178.70224 2304.73308,1178.70224 L2107.80561,1070.09484 L2147.35298,1043.6996 L2659.17504,1253.22333 L2690.69212,1361.00721 L2659.17504,1370.86297 Z" fill="#423D89"></path>
              <polygon fill="#EDE8D7" points="2162.60123 1228.06189 2177.99422 1301.10359 2179.00594 1315.56663 2256.63405 1321.72832 2258.28087 1301.42564"></polygon>
              <path d="M2208.92346,1175.70081 L2166.46203,1185.34775 C2166.46203,1185.34775 2211.10052,1229.5854 2212.18904,1228.06189 C2213.27757,1226.53985 2237.59442,1212.44739 2237.59442,1212.44739 L2208.92346,1175.70081 Z" fill="#EDE8D7"></path>
              <path d="M2111.49361,1224.30459 C2112.08145,1225.75016 2144.26611,1296.71247 2144.26611,1296.71247 L2089.52367,1284.71703 L1987.78402,1264.77612 L1940.72625,1214.25472 L1950.52596,1169.08619 L2026.73912,1160.05249 L2024.56059,1212.80915 L2034.75317,1232.68683 C2034.75317,1232.68683 2044.70795,1238.42646 2049.70306,1234.07652 C2053.97742,1230.35451 2061.92204,1222.23256 2067.1904,1218.1032 C2078.25882,1209.43125 2111.49361,1224.30459 2111.49361,1224.30459" fill="#EDE8D7"></path>
              <path d="M2275.98384,1037.00557 L2115.39724,1070.09337 L2036.74855,986.638577 C2036.74855,986.638577 2040.80875,957.816895 2062.59406,930.867247 C2084.38086,903.91907 2123.97697,894.17508 2159.19681,934.15691 C2194.41518,974.138741 2233.92415,1006.12362 2233.92415,1006.12362 L2275.98384,1037.00557 Z" fill="#FFC4BC"></path>
              <path d="M2560.82946,1151.29819 C2561.90174,1156.63194 2560.3657,1164.56419 2553.16989,1167.79945 C2541.85334,1172.88908 2533.26624,1175.86257 2523.46506,1182.81984 C2501.6502,1198.30052 2494.77342,1212.11063 2478.2092,1249.0278 C2461.64349,1285.94496 2463.34644,1290.75519 2420.0136,1310.32405 C2397.08363,1320.67686 2355.22775,1338.65162 2305.55723,1345.08978 C2266.64496,1350.13383 2223.21611,1345.21183 2197.12394,1340.29425 C2175.94566,1336.30313 2189.96654,1341.71335 2172.27243,1338.89574 C2092.01975,1326.12091 1976.34783,1274.78481 1976.34783,1274.78481 C1976.34783,1274.78481 1989.79713,1252.91157 2033.28653,1256.92916 C2076.77594,1260.94676 2115.35146,1296.71982 2179.23044,1308.51819 C2243.1109,1320.31804 2312.60385,1308.26379 2312.60385,1308.26379 C2312.60385,1308.26379 2436.5793,1271.05839 2450.13789,1238.77058 C2463.69501,1206.4857 2484.31795,1171.32734 2513.46006,1152.74817 C2542.60217,1134.17047 2559.03642,1142.37037 2560.82946,1151.29819" fill="#FFC4BC"></path>
              <path d="M1933.88936,819.752964 C1915.09047,810.922197 1904.78875,802.781127 1897.54569,796.417975 C1883.66068,784.216664 1876.88877,783.771081 1870.91,789.140129 C1866.40376,793.187135 1865.56912,804.020817 1879.27836,815.985366 C1898.93832,833.142495 1932.06382,854.303983 1988.27585,858.936275 C2052.38967,864.218559 2125.78921,878.746311 2161.16266,937.299516 C2180.68821,969.619682 2193.10658,997.141381 2226.85684,1018.43228 C2254.24874,1035.71147 2286.23254,1063.12287 2395.95374,1051.7642 C2489.57892,1042.07315 2564.89704,1033.18356 2628.51312,1015.31761 C2723.60345,988.612081 2777.80533,953.671361 2791.92664,892.053049 C2806.96368,826.4367 2792.98268,766.961007 2716.86551,717.932236 C2687.39847,698.951601 2643.80716,686.081181 2596.15122,668.260826 C2596.15122,668.260826 2584.33545,686.642939 2563.65786,693.260499 C2563.65786,693.260499 2703.2316,727.083646 2756.40254,828.552849 C2768.25228,851.164318 2759.00201,868.128802 2752.90212,886.576649 C2731.63079,950.918456 2630.38297,993.135551 2557.57274,1003.19718 C2463.09093,1016.25437 2329.82681,1046.93485 2258.91449,1005.9398 C2228.19645,988.182675 2198.9864,947.043506 2189.54856,929.345208 C2171.34047,895.203007 2157.7996,866.946465 2095.31635,850.173155 C2024.46459,831.151344 1958.57988,831.352812 1933.88936,819.752964" fill="#E61A6B"></path>
              <path d="M2241.00031,1313.69607 C2241.00031,1313.69607 2184.29054,1282.30236 2162.59975,1228.06189 C2162.59975,1228.06189 2269.53539,1256.68799 2308.37529,1245.6396 C2347.21519,1234.59122 2396.74983,1269.70105 2366.38331,1302.89327 C2366.38331,1302.89327 2318.96812,1319.96804 2241.00031,1313.69607 Z" fill="#E61A6B"></path>
              <path d="M1863.59648,1280.6715 C1861.48589,1276.8892 1847.77517,1276.35244 1842.67371,1286.47436 C1839.4229,1292.92869 1842.22028,1309.03731 1845.48586,1314.15194 C1852.66542,1325.39003 1881.57121,1342.58834 1899.01424,1340.04131 C1936.84478,1334.51638 1922.50044,1293.35075 1969.4105,1286.82289 C2016.32057,1280.29356 2013.29426,1236.09855 1984.03842,1228.06336 C1954.78258,1220.02817 1968.15803,1187.90654 1996.90874,1176.85668 C2025.66093,1165.80829 2040.97564,1149.89674 2033.40912,1120.26624 C2027.7346,1098.043 2018.63794,1087.47697 2004.09716,1096.32979 C1999.24974,1099.27975 1981.01211,1121.71475 1977.48067,1125.10589 C1963.3564,1138.666 1959.66102,1122.10445 1982.36058,1102.16501 C2005.05867,1082.22703 1997.30753,1062.56994 1983.18326,1048.78188 C1969.06046,1034.99236 1946.44952,1061.12731 1930.81283,1057.61118 C1915.17614,1054.09652 1935.21568,1018.61022 1883.66113,1019.13521 L1840.81273,1063.81992 C1840.81273,1063.81992 1874.58071,1071.87129 1873.57194,1105.01791 C1872.56317,1138.16454 1883.156,1148.70999 1905.35044,1160.76424 C1918.82573,1168.08179 1923.56533,1182.47425 1916.44633,1192.90647 C1911.84173,1199.65638 1898.37766,1202.35929 1892.23642,1208.47391 C1876.59973,1224.0443 1922.50044,1238.52352 1920.98654,1271.96426 C1919.47412,1305.40353 1891.33842,1330.39291 1863.59648,1280.6715" fill="#E61A6B"></path>
              <path d="M2107.80561,1102.16648 C2107.80561,1102.16648 2136.88421,1103.92087 2153.18554,1107.86935 C2169.48687,1111.81635 2188.33744,1147.03648 2198.56547,1182.00514 L2182.26414,1188.58594 C2182.26414,1188.58594 2168.49139,1184.88452 2162.60123,1169.97 C2156.71107,1155.05549 2143.49366,1157.43929 2147.45785,1177.61843 C2151.42351,1197.79758 2153.18554,1200.42843 2153.18554,1200.42843 L2100.75603,1178.93459 L2097.23198,1143.40123 C2097.23198,1143.40123 2080.48904,1147.78794 2065.06947,1142.963 L2065.06947,1122.34563 C2065.06947,1122.34563 2100.3159,1129.80288 2107.80561,1102.16648" fill="#E61A6B"></path>
              <path d="M2056.49122,1312.68579 C2056.49122,1312.68579 2045.66059,1311.18287 2037.05872,1313.81224 C2016.01188,1320.24598 2016.23048,1341.25453 2016.23048,1386.28335 C2016.23048,1422.11671 2015.9336,1440.18412 2015.9336,1440.18412 L1966.98089,1445.65758 L1966.98089,1519.48161 C1966.98089,1553.4297 1927.40693,1577.5235 1883.66039,1541.68279 C1863.6046,1525.25066 1854.69241,1491.26875 1845.48646,1460.1118 C1836.27902,1428.95339 1799.7491,1346.66917 1723.77668,1336.65459 C1647.80426,1326.63708 1643.20955,1302.51827 1643.20955,1302.51827 C1643.20955,1302.51827 1665.26811,1285.66555 1665.26811,1260.36588 C1665.26811,1260.36588 1706.99992,1276.65832 1706.99992,1229.97951 C1706.99992,1229.97951 1755.77533,1330.41056 1841.01581,1338.89574 C1841.01581,1338.89574 1837.35883,1307.31821 1816.52173,1290.34343 C1795.6861,1273.37012 1797.01242,1257.90709 1803.66322,1228.47659 C1806.49753,1215.93558 1800.8939,1205.41219 1795.89879,1200.62107 C1789.14755,1194.14322 1785.43888,1185.89039 1785.76086,1178.04931 C1786.29257,1165.07007 1796.96354,1156.11283 1806.5092,1143.41153 C1818.10342,1127.98232 1814.87919,1110.75019 1801.51851,1098.92682 L1848.18798,1056.12885 C1848.18798,1056.12885 1871.041,1063.86404 1876.05827,1096.07244 C1881.34435,1130.00876 1881.46118,1141.84096 1904.29958,1155.00402 C1917.15528,1162.41275 1926.47496,1175.18905 1926.2549,1181.8875 C1925.89008,1193.04912 1915.8969,1202.10194 1897.84211,1208.29156 C1868.95552,1218.19143 1922.14005,1225.86486 1923.88731,1269.58488 C1925.63457,1313.30784 1896.23827,1318.83718 1883.63528,1316.26515 C1871.81508,1313.85342 1865.69585,1309.0226 1861.0552,1298.9742 C1857.89892,1292.13458 1855.59204,1285.80231 1851.98527,1287.34347 C1848.1673,1288.97433 1848.7609,1297.92274 1852.38834,1306.56234 C1856.75426,1316.9622 1866.21426,1327.25471 1886.90958,1328.28558 C1924.79417,1330.17232 1927.3257,1286.82289 1969.41198,1286.82289 L1969.41198,1319.09306 C1969.41198,1319.09306 2011.46281,1289.1111 2056.49122,1312.68579" fill="#423D89"></path>
              <path d="M2263.25235,1209.44596 C2250.83694,1205.98424 2198.39562,1230.95744 2198.56694,1205.77542 C2198.56694,1205.77542 2210.44179,1209.11508 2198.56694,1182.00514 C2192.32674,1167.75533 2186.52668,1155.81137 2186.52668,1155.81137 C2186.52668,1155.81137 2219.42177,1144.83063 2248.30246,1164.45096 C2277.18314,1184.07276 2303.7184,1185.54921 2328.86087,1187.24037 C2354.00482,1188.93299 2366.5443,1211.13711 2358.38995,1240.90878 C2350.23559,1270.67898 2310.18458,1265.1717 2292.13304,1236.51031 C2279.56106,1216.55028 2272.37117,1211.98857 2263.25235,1209.44596" fill="#03DAC6"></path>
              <path d="M2107.80561,1102.16648 C2103.69225,1097.49301 2092.67257,1091.24309 2096.52894,1081.57116 C2100.81511,1070.82424 2121.4351,1066.85959 2127.84515,1067.65517 C2138.26075,1068.94927 2158.9664,1083.14026 2154.93575,1100.02386 C2153.80291,1104.77527 2151.28616,1102.04001 2144.26611,1106.09437 C2144.26611,1106.09437 2125.54699,1122.32357 2107.80561,1102.16648" fill="#03DAC6"></path>
              <path d="M1926.03187,1063.83463 C1926.03187,1063.83463 1942.48237,1016.17201 1990.82067,1028.35715 C1994.62092,1034.94089 2002.97023,1043.6996 2013.95151,1040.9614 C2031.11834,1056.12737 2027.11427,1086.57992 2027.11427,1086.57992 C2027.11427,1086.57992 2038.30971,1110.86195 2055.60947,1118.46038 L2047.6486,1142.53654 C2047.6486,1142.53654 2032.21721,1134.11606 2029.62069,1127.09557 C2029.62069,1127.09557 2025.30794,1099.45034 2000.46234,1110.31049 C1991.0496,1114.4222 1984.10784,1121.81769 1977.81004,1127.09851 C1969.92597,1133.70577 1962.48351,1134.694 1957.10291,1128.92201 C1953.25687,1124.79854 1952.84775,1116.631 1960.25328,1109.60609 C1965.32963,1104.78997 1971.89772,1098.62241 1978.005,1089.71076 C1993.02283,1067.79781 1973.13838,1051.02597 1959.44095,1054.52004 C1945.745,1058.01412 1938.92583,1068.98897 1926.03187,1063.83463" fill="#423D89"></path>
              <path d="M2044.70647,1238.42646 C2044.70647,1238.42646 2018.66895,1241.70289 2001.79309,1228.06189 C1984.9187,1214.42384 2009.5073,1197.62111 2025.41871,1213.46208 C2033.19201,1221.20169 2046.12141,1225.96633 2048.97935,1230.21775 C2051.97169,1234.66916 2044.70647,1238.42646 2044.70647,1238.42646" fill="#423D89"></path>
              <path d="M2447.85154,818.547244 C2495.75561,847.389515 2506.61873,907.080793 2480.61075,956.663969 C2469.13617,978.538683 2446.3982,1004.51187 2412.10442,1017.60582 C2369.91327,1033.7159 2312.51524,1032.68356 2264.83271,1009.11328 C2178.39743,966.385901 2203.84416,902.742615 2117.06327,857.187916 C2080.03266,837.748464 2071.54008,813.670838 2071.54008,813.670838 C2070.8843,813.689955 2122.49261,809.562068 2152.51943,783.615348 C2170.60789,767.98614 2181.51827,742.142346 2184.16057,713.416265 C2184.16057,713.416265 2236.49703,731.352781 2262.99093,780.38892 C2280.3542,812.525264 2304.43916,818.636949 2326.87139,818.667831 C2327.86539,818.669302 2331.66859,817.870783 2332.66998,817.829607 C2366.63735,802.120988 2421.76381,802.840097 2447.85154,818.547244" fill="#333333"></path>
              <path d="M2450.13789,1238.77058 C2450.13789,1238.77058 2396.5977,1235.71179 2393.83872,1180.75516 C2393.83872,1180.75516 2348.02604,1186.80067 2315.46032,1169.21413 C2282.89606,1151.62907 2253.64171,1098.87093 2208.9338,1097.22243 C2186.10131,1096.38126 2169.36723,1085.84905 2156.36694,1079.05502 C2143.91164,1072.54481 2134.70716,1069.74337 2134.70716,1069.74337 C2134.70716,1069.74337 2140.68298,1072.93892 2144.26611,1079.05502 C2151.14584,1090.79751 2148.22735,1107.49435 2133.02489,1111.60606 C2133.02489,1111.60606 2166.32467,1102.84 2186.52668,1155.81137 C2186.52668,1155.81137 2224.08457,1146.49972 2271.1187,1179.61253 C2305.52621,1203.83721 2347.17974,1177.52726 2358.483,1222.90755 C2362.75292,1240.04997 2352.4924,1252.26011 2352.4924,1252.26011 C2352.4924,1252.26011 2383.52208,1276.40244 2366.38331,1302.89327 C2390.25264,1296.71247 2432.49105,1274.8951 2450.13789,1238.77058" fill="#333333"></path>
              <path d="M2300.91511,1247.17635 C2280.92135,1224.30459 2275.85091,1188.85799 2220.76877,1201.12548 C2207.44501,1204.09162 2194.39598,1214.66795 2182.26414,1188.58447 C2175.62811,1174.31848 2173.33585,1170.87293 2169.48391,1164.20979 C2166.28627,1158.67898 2159.54095,1149.90115 2151.53133,1151.29819 C2145.6397,1152.32465 2143.35778,1158.3128 2143.44935,1166.80681 C2143.63397,1183.77277 2153.29927,1210.73124 2162.60123,1228.06189 C2162.60123,1228.06189 2196.79901,1284.54939 2300.91511,1247.17635" fill="#333333"></path>
              <path d="M2100.75603,1178.93459 L2097.23198,1143.40123 C2097.23198,1143.40123 2065.58936,1151.87465 2029.62069,1127.09557 C2029.62069,1127.09557 2031.27195,1136.65573 2027.64598,1147.64824 C2024.02297,1158.63339 2014.47288,1169.61854 1996.90874,1176.85815 C1968.6927,1200.42843 1998.19666,1224.30606 1998.19666,1224.30606 C1998.19666,1224.30606 1994.10545,1215.14 1998.99866,1212.69739 C2003.89038,1210.25477 2017.76652,1214.53413 2024.55321,1212.64445 C2024.55321,1212.64445 2037.3482,1194.16528 2049.32348,1179.664 C2061.30024,1165.16124 2100.75603,1178.93459 2100.75603,1178.93459" fill="#333333"></path>
              <path d="M2027.11427,1086.57992 C2027.11427,1086.57992 2032.81686,1112.9531 2061.30024,1121.97651 C2089.78362,1130.99993 2099.88757,1111.86635 2115.09594,1108.52963 C2097.96751,1089.37694 2116.70879,1069.0875 2127.84515,1067.65517 C2127.84515,1067.65517 2083.63351,1044.95252 2069.06763,996.289922 C2054.50322,947.625852 2062.59406,930.867247 2062.59406,930.867247 L1946.39191,886.531062 C1946.39191,886.531062 1952.07087,893.805967 1959.09977,913.418946 C1966.48019,934.015735 1967.51998,970.765255 1946.39191,992.388502 C1921.92589,1017.42494 1883.66068,1019.13668 1883.66068,1019.13668 C1883.66068,1019.13668 1908.03218,1018.58816 1913.29462,1036.8688 C1918.55692,1055.14945 1919.29098,1060.2582 1926.03187,1063.83463 C1926.03187,1063.83463 1944.70669,1019.33521 1990.81919,1028.35862 C1990.81919,1028.35862 1988.39992,1016.34848 1993.43786,1007.5986 C1998.21291,999.306059 2010.16603,994.076715 2020.24636,1000.03546 C2040.96087,1012.28236 2026.64903,1038.58937 2013.95003,1040.9614 C2019.87859,1050.56568 2019.64966,1051.04509 2027.11427,1086.57992" fill="#333333"></path>
            </g>
          </g>
        </g>
      </g>
    </g>
  </g>
</svg>