<?xml version="1.0" encoding="UTF-8"?>
<svg width="211px" height="115px" viewBox="0 0 211 115" version="1.1" xmlns="http://www.w3.org/2000/svg" xmlns:xlink="http://www.w3.org/1999/xlink">
  <!-- Generator: Sketch 61.2 (89653) - https://sketch.com -->
  <title>18501043386790106 copy 2</title>
  <desc>Created with Sketch.</desc>
  <g id="Page-1" stroke="none" stroke-width="1" fill="none" fill-rule="evenodd">
    <g id="4-copy" transform="translate(-447.000000, -727.000000)" fill="#9AF0E8" fill-rule="nonzero">
      <g id="18501043386790106-copy-2" transform="translate(555.500000, 866.000000) rotate(-15.000000) translate(-555.500000, -866.000000) translate(434.000000, 727.000000)">
        <path d="M123.353042,277.684955 C139.415567,279.034012 155.292587,271.623072 169.156525,263.400184 C182.425055,255.53044 197.278807,245.877614 201.831994,231.138032 C206.997987,214.414675 188.65117,195.757843 195.080698,179.478429 C200.395104,166.022476 227.054919,170.119713 231.383243,156.314961 C235.343877,143.682918 211.814807,134.443894 213.324439,121.291854 C215.694532,100.6434 246.742584,86.4910852 241.71258,66.3248997 C237.624862,49.9365088 208.626453,57.7320016 194.986179,47.7704895 C181.857402,38.1825244 178.706158,18.2524202 164.665654,10.0574158 C150.701415,1.90692521 132.430973,-2.96755916 117.160151,2.34586389 C100.792738,8.04084171 93.6291278,27.2635649 81.026816,39.1592246 C71.7913748,47.8768051 61.8730879,55.3845296 52.2234818,63.641326 C42.2463449,72.178378 30.9500498,79.0067855 22.607062,89.1467595 C13.4664889,100.25611 -0.104739016,111.693266 0.8780131,126.046034 C1.93293606,141.452832 19.2205742,150.469663 27.6900984,163.382814 C34.0070693,173.014051 43.2964321,181.655816 44.8380678,193.070202 C47.6936174,214.212905 27.6373438,239.204181 40.2541968,256.408341 C50.4640814,270.330393 74.9158055,252.607533 91.6408572,256.889813 C103.983059,260.049908 110.657405,276.618677 123.353042,277.684955" id="Shape"></path>
      </g>
    </g>
  </g>
</svg>