
    <svg
      width="430"
      height="430"
      viewBox="0 0 430 430"
      xmlns="http://www.w3.org/2000/svg"
      xmlns:xlink="http://www.w3.org/1999/xlink"
    >
      <path stroke="none" stroke-width="0" fill="#B91456" d="M215,427.01257263237494C259.75111034686785,431.6755767313133,313.15115265701,423.65612051573424,340.81934082268515,388.17546595394447C368.23145029690545,353.02319717360655,339.7740385389199,301.86183473189425,346.9074751304159,257.8593367502244C352.39739732776866,223.99483297142532,382.25343994262516,196.18537558106988,377.4505119997165,162.21662898817203C372.26194253794256,125.52042964442082,347.37174685296867,95.36387966346004,320.34606869887716,70.00357565015133C290.1100312876759,41.63074087672485,256.4248806928803,7.98359520547586,215.00000000000006,9.776629224215867C173.81352141112546,11.559344249262429,149.89483731917994,55.26749074994986,116.07769325344248,78.84512546273457C81.28916860052774,103.10001596645877,21.148219363567875,107.92311548304153,14.219738633280409,149.7625384671619C7.009971091456117,193.30058461931634,69.08929834640017,216.21397647278866,86.62347139383465,256.71206267815023C101.42014912393472,290.8874485743345,84.47284453942751,334.0621678477551,106.89020180045645,363.80037166763873C132.64882118341282,397.970995100617,172.43863011398196,422.57773647531354,215,427.01257263237494" />
    </svg>
