<?xml version="1.0" encoding="UTF-8"?>
<svg width="414px" height="299px" viewBox="0 0 414 299" version="1.1" xmlns="http://www.w3.org/2000/svg" xmlns:xlink="http://www.w3.org/1999/xlink">
    <!-- Generator: Sketch 48.2 (47327) - http://www.bohemiancoding.com/sketch -->
    <title>undraw_Bibliophile_hwqc</title>
    <desc>Created with Sketch.</desc>
    <defs>
        <linearGradient x1="50%" y1="99.9981053%" x2="50%" y2="0.00457553381%" id="linearGradient-1">
            <stop stop-color="#808080" stop-opacity="0.25" offset="0%"></stop>
            <stop stop-color="#808080" stop-opacity="0.12" offset="54%"></stop>
            <stop stop-color="#808080" stop-opacity="0.1" offset="100%"></stop>
        </linearGradient>
        <linearGradient x1="90656%" y1="80907%" x2="90656%" y2="16443%" id="linearGradient-2">
            <stop stop-color="#808080" stop-opacity="0.25" offset="0%"></stop>
            <stop stop-color="#808080" stop-opacity="0.12" offset="54%"></stop>
            <stop stop-color="#808080" stop-opacity="0.1" offset="100%"></stop>
        </linearGradient>
    </defs>
    <g id="Master" stroke="none" stroke-width="1" fill="none" fill-rule="evenodd" transform="translate(-808.000000, -2489.000000)">
        <g id="Section" transform="translate(-231.000000, 462.000000)">
            <g id="Ansettelse" transform="translate(450.000000, 1217.000000)">
                <g id="undraw_Bibliophile_hwqc" transform="translate(589.000000, 810.000000)">
                    <path d="M357.503007,171.774821 C344.42873,193.100949 346.740691,222.067315 352.34231,244.907724 C354.217184,252.555609 356.38345,260.620304 354.715617,269.18976 C352.675876,279.667362 345.368084,287.927079 337.987444,292.653472 C324.529757,301.276462 309.208698,301.100561 298.112816,292.198422 C288.508398,284.50465 282.220476,271.044372 272.424354,263.767409 C256.010577,251.588152 233.40473,259.109847 213.739637,270.650506 C199.825692,278.810799 184.512302,289.139268 171.717914,283.384235 C162.71545,279.334679 157.148338,267.824612 154.56799,255.28208 C153.325742,249.228779 152.589595,242.613358 149.702518,238.005507 C147.984842,235.267565 145.615369,233.43972 143.157712,231.944558 C120.724399,218.304555 90.2471479,229.917869 68.6266646,214.457669 C54.0225822,204.014481 45.7831038,182.359494 43.1490779,159.17493 C40.515052,135.990366 42.8461841,111.153858 45.752431,86.6997453 C47.8305126,69.32375 50.6217365,50.7164451 59.6855462,36.5487376 C69.2707932,21.5627064 84.315797,14.8249195 97.3594012,16.1671234 C110.403005,17.5093273 121.698261,25.856994 131.421535,36.0516251 C143.575628,48.7930019 154.510478,65.0868215 170.291629,69.1440246 C181.027106,71.9087352 192.805457,68.6048487 204.242574,66.7158211 C223.363225,63.5572445 242.200153,64.3602724 260.895218,65.4348003 C278.796626,66.4634409 296.809222,67.7712292 313.468382,74.0883825 C325.258236,78.5585714 334.27987,87.9310548 345.272231,94.0034757 C352.438162,97.9612563 360.539613,98.4316013 367.210945,103.723938 C375.427419,110.22464 382.508999,122.308299 379.14266,137.607894 C375.941188,152.157995 364.438891,160.459775 357.503007,171.774821 Z" id="Shape" fill="#6C63FF" fill-rule="nonzero" opacity="0.1"></path>
                    <path d="M111.880573,106.281011 C111.880573,106.281011 55.980355,93.5406707 127.107437,19 C127.107437,19 157.766317,48.6203226 146.520928,85.4395183 C141.999978,100.243871 127.449357,109.382838 112.708781,106.455271 L111.880573,106.281011 Z" id="Shape" fill="#6C63FF" fill-rule="nonzero"></path>
                    <path d="M111.767635,106.281011 C110.536786,106.002195 56.8938891,92.2821265 127.040827,19 C127.040827,19 157.792989,48.6203226 146.513386,85.4395183 C141.97868,100.243871 127.383788,109.382838 112.598362,106.455271 L111.767635,106.281011 Z" id="Shape" fill="#FFFFFF" fill-rule="nonzero" opacity="0.4"></path>
                    <path d="M114,106 C114,106 142.330921,61.0249029 127.906647,19" id="Shape" stroke="#535461"></path>
                    <path d="M345.258119,150 C345.258119,150 335.192252,110.637796 350.445851,82.6128019 C356.852124,70.8515559 359.396375,57.451985 357.256982,44.3106911 C356.230002,38.0770024 354.617061,31.9478162 352.438385,26" id="Shape" stroke="#535461" stroke-width="2"></path>
                    <path d="M361.997567,8.82064591 C361.784459,13.5781478 352.170464,27 352.170464,27 C352.170464,27 343.790889,12.8391184 344.003997,8.08161648 C344.311481,3.39576425 348.479064,-0.193191608 353.3792,0.00806611546 C358.279337,0.209323839 362.110481,4.12680232 361.997567,8.82064591 Z" id="Shape" fill="#6C63FF" fill-rule="nonzero"></path>
                    <path d="M373.342541,35.8145457 C370.65424,39.7118242 356,46 356,46 C356,46 356.938652,29.6963206 359.626953,25.7990421 C361.337015,23.2025887 364.279032,21.7614579 367.316314,22.0324508 C370.353595,22.3034437 373.010503,24.2441228 374.260503,27.1046795 C375.510504,29.9652362 375.157847,33.2977073 373.338786,35.8145457 L373.342541,35.8145457 Z" id="Shape" fill="#6C63FF" fill-rule="nonzero"></path>
                    <path d="M371.957741,81.1443935 C367.516339,83.1909966 351,80.9232478 351,80.9232478 C351,80.9232478 360.249307,66.7819844 364.690709,64.7313605 C369.11086,62.7970808 374.235226,64.8289202 376.215239,69.3009007 C378.195252,73.7728811 376.302162,79.039073 371.957741,81.1443935 Z" id="Shape" fill="#6C63FF" fill-rule="nonzero"></path>
                    <path d="M362.311607,113.910834 C358.346762,116.443657 342,117 342,117 C342,117 348.649334,102.860844 352.614178,100.324361 C356.576425,97.8886334 361.870494,98.9057766 364.515016,102.610854 C367.159538,106.315932 366.179354,111.34271 362.311607,113.910834 Z" id="Shape" fill="#6C63FF" fill-rule="nonzero"></path>
                    <path d="M337.216674,46.424681 C340.444167,49.8890037 356,54 356,54 C356,54 352.821927,38.0448693 349.594434,34.5843958 C346.344803,31.2300054 341.040958,31.1278335 337.667673,34.3546419 C334.294388,37.5814503 334.093828,42.9490111 337.216674,46.424681 Z" id="Shape" fill="#6C63FF" fill-rule="nonzero"></path>
                    <path d="M327.298513,85.3098223 C331.516929,87.6572913 348,86.8748017 348,86.8748017 C348,86.8748017 340.059222,72.3752679 335.8369,70.0160615 C331.636379,67.7937545 326.43295,69.334839 324.114327,73.4879017 C321.795705,77.6409644 323.209105,82.8884923 327.298513,85.3098223 Z" id="Shape" fill="#6C63FF" fill-rule="nonzero"></path>
                    <path d="M324.080915,125.080206 C327.795231,128.043524 344,130 344,130 C344,130 338.664048,114.744824 334.949731,111.792947 C331.228383,108.941763 325.88155,109.555794 322.921698,113.174249 C319.961845,116.792704 320.477153,122.08527 324.080915,125.080206 Z" id="Shape" fill="#6C63FF" fill-rule="nonzero"></path>
                    <path d="M361.997567,8.82064591 C361.784459,13.5781478 352.170464,27 352.170464,27 C352.170464,27 343.790889,12.8391184 344.003997,8.08161648 C344.311481,3.39576425 348.479064,-0.193191608 353.3792,0.00806611546 C358.279337,0.209323839 362.110481,4.12680232 361.997567,8.82064591 Z" id="Shape" fill="#FC6681" fill-rule="nonzero"></path>
                    <path d="M373.342541,35.8145457 C370.65424,39.7118242 356,46 356,46 C356,46 356.938652,29.6963206 359.626953,25.7990421 C361.337015,23.2025887 364.279032,21.7614579 367.316314,22.0324508 C370.353595,22.3034437 373.010503,24.2441228 374.260503,27.1046795 C375.510504,29.9652362 375.157847,33.2977073 373.338786,35.8145457 L373.342541,35.8145457 Z" id="Shape" fill="#FC6681" fill-rule="nonzero"></path>
                    <path d="M371.957741,81.1443935 C367.516339,83.1909966 351,80.9232478 351,80.9232478 C351,80.9232478 360.249307,66.7819844 364.690709,64.7313605 C369.11086,62.7970808 374.235226,64.8289202 376.215239,69.3009007 C378.195252,73.7728811 376.302162,79.039073 371.957741,81.1443935 Z" id="Shape" fill="#FC6681" fill-rule="nonzero"></path>
                    <path d="M362.311607,113.910834 C358.346762,116.443657 342,117 342,117 C342,117 348.649334,102.860844 352.614178,100.324361 C356.576425,97.8886334 361.870494,98.9057766 364.515016,102.610854 C367.159538,106.315932 366.179354,111.34271 362.311607,113.910834 Z" id="Shape" fill="#FC6681" fill-rule="nonzero"></path>
                    <path d="M337.216674,46.424681 C340.444167,49.8890037 356,54 356,54 C356,54 352.821927,38.0448693 349.594434,34.5843958 C346.344803,31.2300054 341.040958,31.1278335 337.667673,34.3546419 C334.294388,37.5814503 334.093828,42.9490111 337.216674,46.424681 Z" id="Shape" fill="#FC6681" fill-rule="nonzero"></path>
                    <path d="M327.298513,85.3098223 C331.516929,87.6572913 348,86.8748017 348,86.8748017 C348,86.8748017 340.059222,72.3752679 335.8369,70.0160615 C331.636379,67.7937545 326.43295,69.334839 324.114327,73.4879017 C321.795705,77.6409644 323.209105,82.8884923 327.298513,85.3098223 Z" id="Shape" fill="#FC6681" fill-rule="nonzero"></path>
                    <path d="M324.080915,125.080206 C327.795231,128.043524 344,130 344,130 C344,130 338.664048,114.744824 334.949731,111.792947 C331.228383,108.941763 325.88155,109.555794 322.921698,113.174249 C319.961845,116.792704 320.477153,122.08527 324.080915,125.080206 Z" id="Shape" fill="#FC6681" fill-rule="nonzero"></path>
                    <path d="M310,125 C310,125 350.513686,90.6169001 359.51842,73.2768312 C368.523154,55.9367623 380,41 380,41" id="Shape" stroke="#535461" stroke-width="2"></path>
                    <path d="M376,79.7350024 L358,76 C358,76 362.241739,93.4659937 376,79.7350024 Z" id="Shape" fill="#6C63FF" fill-rule="nonzero"></path>
                    <path d="M347.70209,60 L358,75.9670104 C358,75.9670104 337.878631,77.4807764 347.70209,60 Z" id="Shape" fill="#6C63FF" fill-rule="nonzero"></path>
                    <path d="M381,66.9130535 L365,64 C365,64 375.054208,79.8639051 381,66.9130535 Z" id="Shape" fill="#6C63FF" fill-rule="nonzero"></path>
                    <path d="M357.463202,52 L365,61.9568209 C365,61.9568209 351.658126,63.2261872 357.463202,52 Z" id="Shape" fill="#6C63FF" fill-rule="nonzero"></path>
                    <path d="M374,50 C374,50 387.99595,50.6653976 389.616123,51.9961929 C391.236296,53.3269881 387.53137,61.1327638 382.198464,59.8603368 C376.865559,58.5879097 374,50 374,50 Z" id="Shape" fill="#6C63FF" fill-rule="nonzero"></path>
                    <path d="M367.861818,37 C367.861818,37 373.19498,47.1856957 372.994485,49.1227353 C372.793991,51.059775 364.868977,53.2375119 363.265018,45.8943359 C361.66106,38.55116 367.861818,37 367.861818,37 Z" id="Shape" fill="#6C63FF" fill-rule="nonzero"></path>
                    <circle id="Oval" fill="#FFD037" fill-rule="nonzero" transform="translate(383.000000, 44.000000) rotate(-72.430000) translate(-383.000000, -44.000000) " cx="383" cy="44" r="4"></circle>
                    <circle id="Oval" fill="#FFD037" fill-rule="nonzero" transform="translate(377.000000, 39.000000) rotate(-72.430000) translate(-377.000000, -39.000000) " cx="377" cy="39" r="4"></circle>
                    <path d="M125.823587,134 C125.823587,134 142.191583,121.684543 121.636425,78.5804416 C121.636425,78.5804416 94.2295476,44.3280757 121.636425,12 C121.636425,12 61.8742063,13.5394322 63.0161596,69.7287066 C64.1581128,125.917981 92.8972689,134 92.8972689,134 L125.823587,134 Z" id="Shape" fill="#6C63FF" fill-rule="nonzero"></path>
                    <path d="M110.919318,134 C110.919318,134 106.805372,104.368735 95.7892674,86.2821184 C93.6135107,82.6240733 92.0489446,78.6271715 91.1587047,74.4527016 C87.4778062,58.0477557 92.72755,40.8924077 104.621145,29.1514999 L122,12" id="Shape" stroke="#535461" stroke-width="2"></path>
                    <path d="M159.914119,35 C159.914119,35 163.518578,39.8125155 158.250522,47.0759871 C152.982467,54.3394587 148.641064,60.4854731 150.395866,65 C150.395866,65 158.341728,51.5085672 164.810054,51.3185995 C171.278379,51.1286317 167.028182,43.112739 159.914119,35 Z" id="Shape" fill="#6C63FF" fill-rule="nonzero"></path>
                    <path d="M159.825248,35 C160.14064,35.4650976 160.389085,35.9730133 160.563156,36.5085672 C166.946062,44.077477 170.344129,51.1435312 164.212112,51.3223243 C158.497013,51.486218 151.641846,61.8040725 150,64.4077477 C150.054198,64.6086901 150.119482,64.8064161 150.195546,65 C150.195546,65 158.231366,51.5085672 164.772922,51.3185995 C171.314478,51.1286317 167.019852,43.112739 159.825248,35 Z" id="Shape" fill="#000000" fill-rule="nonzero" opacity="0.1"></path>
                    <path d="M167,41.3058232 C167,43.3481688 166.776316,45 166.5,45 C166.223684,45 166,43.3436801 166,41.3058232 C166,39.2679662 166.280702,40.2240533 166.557018,40.2240533 C166.833333,40.2240533 167,39.2679662 167,41.3058232 Z" id="Shape" fill="#FFD037" fill-rule="nonzero"></path>
                    <path d="M169.049686,43.0078327 C167.483885,43.7134302 166.125553,44.1374359 166.008118,43.9594182 C165.890683,43.7814005 167.061119,43.0660931 168.623005,42.3604957 C170.184892,41.6548983 169.570315,42.1695312 169.68775,42.3604957 C169.805185,42.5514601 170.611572,42.3022353 169.049686,43.0078327 Z" id="Shape" fill="#FFD037" fill-rule="nonzero"></path>
                    <path d="M140.086823,35 C140.086823,35 136.482707,39.8125155 141.750262,47.0759871 C147.017816,54.3394587 151.358807,60.4854731 149.604171,65 C149.604171,65 141.659064,51.5085672 135.191354,51.3185995 C128.723643,51.1286317 132.96614,43.112739 140.086823,35 Z" id="Shape" fill="#6C63FF" fill-rule="nonzero"></path>
                    <path d="M140.18007,35 C139.864848,35.4650976 139.616538,35.9730133 139.442561,36.5085672 C133.06311,44.077477 129.666882,51.1435312 135.79558,51.3223243 C141.507586,51.486218 148.359043,61.8040725 150,64.4077477 C149.945831,64.6086901 149.880583,64.8064161 149.80456,65 C149.80456,65 141.762027,51.5048423 135.224011,51.3223243 C128.685995,51.1398063 132.981984,43.112739 140.18007,35 Z" id="Shape" fill="#000000" fill-rule="nonzero" opacity="0.1"></path>
                    <path d="M134,41.3058232 C134,43.3481688 134.223684,45 134.5,45 C134.776316,45 135,43.3436801 135,41.3058232 C135,39.2679662 134.719298,40.2240533 134.442982,40.2240533 C134.166667,40.2240533 134,39.2679662 134,41.3058232 Z" id="Shape" fill="#FFD037" fill-rule="nonzero"></path>
                    <path d="M130.950314,43.0078327 C132.516115,43.7134302 133.874447,44.1374359 133.991882,43.9594182 C134.109317,43.7814005 132.938881,43.0660931 131.376995,42.3604957 C129.815108,41.6548983 130.429685,42.1695312 130.31225,42.3604957 C130.194815,42.5514601 129.388428,42.3022353 130.950314,43.0078327 Z" id="Shape" fill="#FFD037" fill-rule="nonzero"></path>
                    <path d="M414,249.549635 L380.369458,101.280834 L367.874604,101.280834 C367.375577,95.6151723 367.041613,90.126442 366.914937,84.956958 C366.914937,84.956958 321.618693,94.8882137 285.496857,66.1560371 C249.375021,37.4238606 206.907872,68.6407742 206.907872,68.6407742 L206.742809,68.5215376 L206.742809,68.4638425 L206.742809,68.536923 C203.794715,66.4445128 163.112545,38.5085291 128.330403,66.1791152 C92.2239221,94.9112917 46.9123227,84.980036 46.9123227,84.980036 C46.7856467,90.2149078 46.4478442,95.7497943 45.9373018,101.469305 L34.3445341,101.469305 L0,250.084277 C0,250.084277 139.612239,255.322995 188.536022,250.491989 C190.290292,254.207556 197.852462,257 206.911711,257 C217.09185,257 225.37185,253.472904 225.65975,249.076535 C263.743143,251.980523 345.69096,256.623058 414,249.549635 Z" id="Shape" fill="url(#linearGradient-1)" fill-rule="nonzero"></path>
                    <path d="M38.6757008,102.169437 L5,247.862224 C5,247.862224 190.379754,254.816846 205.308712,245.081915 C205.308712,245.081915 320.392027,256.730715 411,247.34236 L378.020189,102 L38.6757008,102.169437 Z" id="Shape" fill="#E2E2EC" fill-rule="nonzero"></path>
                    <path d="M49.3525032,105.161831 L18,241.073165 C18,241.073165 190.596183,247.56183 204.494794,238.48001 C204.494794,238.48001 311.640803,249.345827 396,240.587671 L365.284836,105 L49.3525032,105.161831 Z" id="Shape" fill="#000000" fill-rule="nonzero" opacity="0.1"></path>
                    <path d="M364.254137,84.1664677 C364.254137,84.1664677 319.862294,93.8435822 284.488623,65.8457914 C249.114953,37.8480005 207.496159,68.26507 207.496159,68.26507 C207.496159,68.26507 165.881206,37.8480005 130.507536,65.8457914 C95.1338656,93.8435822 50.7420218,84.1664677 50.7420218,84.1664677 C49.3439744,140.506567 23,231.757775 23,231.757775 C23,231.757775 71.5514187,244.891549 135.711805,218.279484 C199.872192,191.667419 207.5,227.612081 207.5,227.612081 C207.5,227.612081 215.127808,191.663591 279.288195,218.279484 C343.448581,244.895377 392,231.757775 392,231.757775 C392,231.757775 365.640662,140.506567 364.254137,84.1664677 Z" id="Shape" fill="#F1F2FB" fill-rule="nonzero"></path>
                    <path d="M121,229.866152 C121,229.866152 179.60974,216.915241 206.648572,236 C206.648572,236 232.658085,212.823492 293,230.889089" id="Shape" fill="#000000" fill-rule="nonzero" opacity="0.1"></path>
                    <ellipse id="Oval" fill="#E8EAF8" fill-rule="nonzero" cx="207" cy="245" rx="18" ry="8"></ellipse>
                    <path d="M207,69 C207,69 220.264949,135.824184 207.347958,230" id="Shape" fill="#000000" fill-rule="nonzero" opacity="0.1"></path>
                    <path d="M63,107.077313 C63,107.077313 90.6677201,113.653359 114.61664,107.077313 C138.56556,100.501266 182.536716,78.9893238 197,107.077313" id="Shape" stroke="#000000" stroke-width="4" opacity="0.1"></path>
                    <path d="M63,118.350836 C63,118.350836 90.6677201,124.311455 114.61664,118.350836 C138.56556,112.390217 190.42088,112.711448 197,118.350836" id="Shape" stroke="#000000" stroke-width="4" opacity="0.1"></path>
                    <path d="M63,139.077313 C63,139.077313 90.6677201,145.653359 114.61664,139.077313 C138.56556,132.501266 182.536716,110.989324 197,139.077313" id="Shape" stroke="#000000" stroke-width="4" opacity="0.1"></path>
                    <path d="M63,150.350836 C63,150.350836 90.6677201,156.311455 114.61664,150.350836 C138.56556,144.390217 190.42088,144.711448 197,150.350836" id="Shape" stroke="#000000" stroke-width="4" opacity="0.1"></path>
                    <path d="M351,107.077313 C351,107.077313 323.33228,113.653359 299.38336,107.077313 C275.43444,100.501266 231.463284,78.9893238 217,107.077313" id="Shape" stroke="#000000" stroke-width="4" opacity="0.1"></path>
                    <path d="M351,118.350836 C351,118.350836 323.33228,124.311455 299.38336,118.350836 C275.43444,112.390217 223.57912,112.711448 217,118.350836" id="Shape" stroke="#000000" stroke-width="4" opacity="0.1"></path>
                    <path d="M351,139.077313 C351,139.077313 323.33228,145.653359 299.38336,139.077313 C275.43444,132.501266 231.463284,110.989324 217,139.077313" id="Shape" stroke="#000000" stroke-width="4" opacity="0.1"></path>
                    <path d="M351,150.350836 C351,150.350836 323.33228,156.311455 299.38336,150.350836 C275.43444,144.390217 223.57912,144.711448 217,150.350836" id="Shape" stroke="#000000" stroke-width="4" opacity="0.1"></path>
                    <path d="M351.305066,275.458299 C352.46986,274.55311 353.576415,273.481904 353.914205,272.189341 C354.273516,270.76341 353.473241,269.300713 352.093243,268.861091 C350.419822,268.331417 348.633804,269.291946 347.274878,270.264332 C345.915951,271.236719 344.366775,272.347453 342.592405,272.141908 C344.428897,270.790053 345.310258,268.584396 344.797748,266.608001 C344.711373,266.177401 344.497242,265.784174 344.18429,265.481455 C343.256337,264.655322 341.571268,265.011073 340.460831,265.659331 C336.923739,267.72664 335.937547,271.715006 335.918133,275.308093 C335.56093,274.011578 335.863776,272.663676 335.852128,271.331586 C335.84048,269.999495 335.405624,268.529057 334.054463,267.813602 C333.19018,267.43343 332.254396,267.251258 331.313313,267.279975 C329.72531,267.232542 327.95094,267.362984 326.867682,268.331417 C325.520403,269.517255 325.869841,271.545036 327.042401,272.865269 C328.214961,274.185501 330.000978,275.015587 331.643338,275.928681 C332.897434,276.624373 334.163177,277.434695 334.931941,278.533571 C335.030298,278.679279 335.112344,278.835728 335.176548,279 L345.143304,279 C347.333068,278.083145 349.402766,276.89351 351.305066,275.458299 Z" id="Shape" fill="#6C63FF" fill-rule="nonzero"></path>
                    <path d="M282.957033,136.678369 C282.957033,136.678369 283.052547,137.230162 283.213011,138.211127 C283.128959,138.364403 283.044906,138.517678 282.957033,138.667122 C279.824156,143.955136 279.342763,151.572942 279.636948,157.826593 C279.911431,162.87047 280.792735,167.862586 282.261687,172.694342 C284.053623,178.973884 284.953951,185.475442 284.936093,192.007089 C286.175807,193.351582 287.665799,194.43984 289.32212,195.210552 C289.406173,195.467289 289.494046,195.727858 289.570458,195.976931 C291.014316,200.803071 291.990539,205.757673 292.485561,210.771874 L293.471271,223.28684 C293.471271,223.28684 301.024559,251.612202 303.320728,256.881056 C304.955936,260.628649 304.596802,268.376738 304.252949,272.530512 C303.27106,275.323963 302.075218,277.987129 301.020738,278.278353 C299.110448,278.822482 297.200157,283.436082 299.98154,285.754378 C300.189932,285.927819 300.413736,286.081739 300.650142,286.214206 L300.760939,286.275516 L300.963429,286.378977 L301.261435,286.513093 L301.414258,286.570572 L301.731366,286.677865 L301.868907,286.720016 C302.01791,286.762166 302.170733,286.804317 302.335018,286.842636 C304.271632,287.224787 306.280618,286.90571 308.00476,285.942141 C310.098438,285.627926 311.959061,284.501349 313.353573,283.363276 L313.315367,285.359693 L315.607715,285.359693 L315.500739,281.370691 C315.913362,280.907032 316.142596,280.604313 316.142596,280.604313 C316.142596,280.604313 316.211367,278.194051 316.474987,275.389105 L316.306881,284.390224 L318.59923,284.390224 L317.980296,267.778963 C318.095988,267.530675 318.249359,267.301876 318.434945,267.100718 C320.345235,265.184771 317.044253,259.003925 315.336454,257.973146 C316.10057,253.911338 319.015673,248.044708 322.377784,236.798099 C327.302513,220.320954 321.063504,204.192512 321.063504,204.192512 L321.063504,191.547261 C322.717816,190.834529 323.692064,190.347878 323.692064,190.347878 C323.692064,190.347878 321.399715,176.844284 323.692064,167.295203 C325.17827,161.122022 325.564148,155.638581 324.32246,150.392718 C325.972951,144.69086 327.306333,140.288014 327.306333,140.288014 L329.598682,116.576253 C330.183231,113.016423 330.57675,109.970067 330.828909,107.379707 C330.870935,107.057828 330.9015,106.732117 330.916782,106.410238 C331.337046,101.585883 331.245352,98.3632599 330.97027,96.2557182 C331.103893,95.2898611 331.149929,94.313842 331.107811,93.3396468 C331.160956,92.8395462 331.181376,92.3364908 331.16894,91.8337124 C331.49751,91.4505229 331.818439,91.0673335 332.124085,90.6841441 C332.937557,89.6708674 333.628781,88.5647199 334.183378,87.3887152 C336.708782,82.6103432 336.781373,76.7743685 333.254977,72.5631168 C331.084888,69.9689245 330.408645,67.1754737 328.53274,64.412678 C326.817299,61.8836279 326.49255,58.8525996 326.079927,55.9403601 C325.568954,52.3203517 324.867536,48.7299663 323.978607,45.1842333 C323.714987,44.1419581 322.270808,43.5020318 321.552539,42.6360237 C320.165668,40.961486 316.115852,41.0189644 313.781478,40.6472706 C309.861562,40.0226719 305.616897,39.440224 302.048474,40.9844773 C299.565097,42.0612396 297.780886,44.0193375 295.840031,45.7475217 C293.750173,47.6059904 289.471123,48.5026536 288.806342,50.7289841 C288.214152,51.5796646 288.183587,52.6449312 289.1884,54.0703958 C290.158827,55.4422139 291.687059,56.4231788 293.112136,57.4501264 C293.295524,57.5804108 293.46745,57.718359 293.647017,57.8333158 C292.655334,63.9041644 295.732871,69.9126342 301.23087,72.6397547 C301.192664,72.8888278 301.150638,73.134069 301.104791,73.3754784 C300.685533,75.5241327 300.108323,77.6387255 299.377888,79.7019356 C298.953804,80.9741244 294.048178,83.196623 290.590553,84.6220876 C290.190684,84.2103041 289.714353,83.8809619 289.1884,83.6526184 C286.55984,82.9935326 277.696093,87.9328441 277.038953,89.5805586 C276.855565,90.0403859 277.336958,91.3125748 278.120177,92.9143065 C278.172,93.6441404 278.290943,94.3676113 278.475491,95.0754948 C278.280642,98.4475616 278.632135,103.888851 280.324652,112.637066 L282.957033,136.678369 Z M319.825636,140.383811 C319.703378,140.150065 319.577298,139.912488 319.443578,139.667247 C315.794924,132.267859 313.628654,120.304686 318.855209,113.169699 C319.32132,113.219513 319.78743,113.265496 320.253541,113.296151 C320.563008,123.006171 320.383441,138.969842 320.383441,138.969842 C320.383441,138.969842 320.17713,139.506307 319.825636,140.383811 Z M306.801277,196.781629 C307.542469,200.517725 308.413562,204.859261 309.227345,208.806112 C310.195104,213.401907 310.129847,218.156218 309.036316,222.723552 L305.949287,213.435041 L305.231018,197.092012 L305.185171,196.421431 C305.681846,196.337129 306.174701,196.246441 306.663736,196.149366 L306.801277,196.781629 Z" id="Shape" fill="url(#linearGradient-2)" fill-rule="nonzero"></path>
                    <path d="M309.965012,208.276398 C310.868142,212.843968 310.807531,217.569166 309.787582,222.108572 C309.605127,222.971297 309.363063,223.818381 309.063379,224.642858 L309.888971,260.509781 L309.983117,264.576247 C310.747934,264.74788 311.521864,264.86934 312.300567,264.939946 C313.022832,265.020018 313.750912,265.020018 314.473176,264.939946 C315.197379,264.843217 315.834678,264.611069 316.175054,264.166118 C316.515429,263.721167 316.587849,263.005376 316.106254,261.964578 C315.576658,260.820702 315.371505,259.536369 315.516029,258.269549 C315.544997,257.913589 315.599312,257.538282 315.66449,257.151368 C316.388694,253.115856 319.093592,247.281193 322.233013,236.107118 C326.828081,219.740658 321.009109,203.703075 321.009109,203.703075 L321.009109,188.636646 L306,187 C306,187 306.724203,191.054858 307.719982,196.324626 C308.393491,200.039 309.204599,204.353091 309.965012,208.276398 Z" id="Shape" fill="#FDC2CC" fill-rule="nonzero"></path>
                    <path d="M309.965012,208.276398 C310.868142,212.843968 310.807531,217.569166 309.787582,222.108572 C309.605127,222.971297 309.363063,223.818381 309.063379,224.642858 L309.888971,260.509781 L309.983117,264.576247 C310.747934,264.74788 311.521864,264.86934 312.300567,264.939946 C313.022832,265.020018 313.750912,265.020018 314.473176,264.939946 C315.197379,264.843217 315.834678,264.611069 316.175054,264.166118 C316.515429,263.721167 316.587849,263.005376 316.106254,261.964578 C315.576658,260.820702 315.371505,259.536369 315.516029,258.269549 C315.544997,257.913589 315.599312,257.538282 315.66449,257.151368 C316.388694,253.115856 319.093592,247.281193 322.233013,236.107118 C326.828081,219.740658 321.009109,203.703075 321.009109,203.703075 L321.009109,188.636646 L306,187 C306,187 306.724203,191.054858 307.719982,196.324626 C308.393491,200.039 309.204599,204.353091 309.965012,208.276398 Z" id="Shape" fill="#000000" fill-rule="nonzero" opacity="0.1"></path>
                    <path d="M287,189 C288.051426,191.209803 288.934443,193.495464 289.641555,195.837582 C291.071754,200.591166 292.03878,205.471282 292.529194,210.410106 L293.505839,222.739229 C293.505839,222.739229 300.988322,250.637943 303.264597,255.830363 C304.883367,259.523348 304.529621,267.154748 304.187411,271.25423 C304.048989,272.918565 303.914412,274 303.914412,274 L307.232697,269.946537 L311.581458,264.627566 L313.565508,262.20009 L314,261.670878 C313.475125,260.582788 313.050424,259.449401 312.731131,258.284683 C312.731131,258.284683 312.731131,258.284683 312.731131,258.284683 C311.724937,254.732003 311.061847,251.09146 310.750926,247.412813 C309.774281,237.357771 309.451296,223.728626 309.451296,223.728626 L308.936058,222.194676 L305.860011,213.025491 L305.148676,196.919016 L304.883367,190.955786 L287,189 Z" id="Shape" fill="#FDC2CC" fill-rule="nonzero"></path>
                    <path d="M312.096238,259.235363 C310.269711,261.532892 308.903758,264.13939 308.068603,266.920852 C306.991632,270.456408 305.097923,275.889187 303.508489,276.325819 C301.13835,276.978834 298.768211,283.516716 304.86171,284.826611 C310.955208,286.136505 316.039796,279.59476 316.039796,279.59476 C316.039796,279.59476 316.380103,268.153466 318.409935,266.19442 C320.439766,264.235374 316.716407,257.693628 315.022878,257.040613 C314.346268,256.773997 313.201235,257.855916 312.096238,259.235363 Z" id="Shape" fill="#5F5D7E" fill-rule="nonzero"></path>
                    <path d="M303.379131,283.851304 C304.918499,284.17354 306.519149,284.028137 307.975129,283.433801 C311.633773,281.970445 314.131961,278.544412 314.404885,274.615989 C314.68343,271.113604 315.27147,266.405101 316.466894,265.210579 C318.014368,263.664273 316.080026,259.2573 314.416491,257.150457 C314.633589,257.004703 314.904047,256.962254 315.15541,257.034484 C316.791864,257.687798 320.39361,264.228675 318.428318,266.192484 C316.463025,268.156293 316.138056,279.598961 316.138056,279.598961 C316.138056,279.598961 311.236431,286.139837 305.344423,284.825477 C304.487389,284.659989 303.68308,284.289967 303,283.746928 C303.123798,283.785586 303.247596,283.820378 303.379131,283.851304 Z" id="Shape" fill="#000000" fill-rule="nonzero" opacity="0.1"></path>
                    <path d="M317.449324,266.620868 L318,284 L316,284 L316.277027,266.632799 C316.293419,266.268427 316.555113,265.986927 316.864865,266.000469 C317.169625,265.988883 317.427703,266.262831 317.449324,266.620868 Z" id="Shape" fill="#5F5D7E" fill-rule="nonzero"></path>
                    <path d="M317.449324,266.620868 L318,284 L316,284 L316.277027,266.632799 C316.293419,266.268427 316.555113,265.986927 316.864865,266.000469 C317.169625,265.988883 317.427703,266.262831 317.449324,266.620868 Z" id="Shape" fill="#000000" fill-rule="nonzero" opacity="0.15"></path>
                    <path d="M310.096238,259.237116 C308.269711,261.534505 306.903758,264.140844 306.068603,266.922136 C304.991632,270.457477 303.097923,275.889924 301.508489,276.326529 C299.13835,276.979504 296.768211,283.516987 302.86171,284.826801 C308.955208,286.136616 314.039796,279.587542 314.039796,279.587542 C314.039796,279.587542 314.380103,268.146948 316.409935,266.188021 C318.439766,264.229095 314.716407,257.687749 313.022878,257.034773 C312.338261,256.791356 311.201235,257.857754 310.096238,259.237116 Z" id="Shape" fill="#5F5D7E" fill-rule="nonzero"></path>
                    <path d="M300.382907,283.845737 C301.921903,284.167907 303.522166,284.022533 304.977795,283.428321 C308.635553,281.965268 311.133137,278.539946 311.405996,274.612336 C311.684474,271.110678 312.272372,266.403151 313.467506,265.208877 C315.014607,263.662891 313.080731,259.256832 311.417599,257.150426 C311.634645,257.004702 311.905037,256.962262 312.156339,257.034477 C313.792397,257.687656 317.393273,264.227176 315.428456,266.190578 C313.463639,268.15398 313.142615,279.594276 313.142615,279.594276 C313.142615,279.594276 308.23444,286.133796 302.343857,284.827438 C301.48703,284.661985 300.682915,284.29204 300,283.749113 C300.139239,283.787763 300.251404,283.822547 300.382907,283.845737 Z" id="Shape" fill="#000000" fill-rule="nonzero" opacity="0.1"></path>
                    <path d="M314.45302,267.621446 L315,285 L313,285 L313.275168,267.633376 C313.29145,267.269017 313.551387,266.987525 313.85906,267.001067 C314.166882,266.980601 314.431482,267.256971 314.45302,267.621446 Z" id="Shape" fill="#5F5D7E" fill-rule="nonzero"></path>
                    <path d="M314.45302,267.621446 L315,285 L313,285 L313.275168,267.633376 C313.29145,267.269017 313.551387,266.987525 313.85906,267.001067 C314.166882,266.980601 314.431482,267.256971 314.45302,267.621446 Z" id="Shape" fill="#000000" fill-rule="nonzero" opacity="0.15"></path>
                    <path d="M288,87.8367558 L300.866776,108.071441 L315.984477,110 C315.984477,110 325.311369,91.693874 324.991981,90.7295945 C324.672592,89.7653149 319.843749,87.8405522 315.341899,84.306126 C310.840048,80.7716997 316.307667,66 316.307667,66 L301.513156,67.2831752 C301.57019,67.4805867 301.627224,67.6628128 301.669048,67.8830026 C302.258395,70.3772217 302.049272,73.14478 301.596806,75.5782571 C301.184192,77.6697285 300.617383,79.7279045 299.901007,81.7359793 C299.258429,83.660742 288,87.8367558 288,87.8367558 Z" id="Shape" fill="#FDC2CC" fill-rule="nonzero"></path>
                    <path d="M306,187 C306,187 306.771828,190.913693 307.833092,196 C312.693713,194.999364 317.439391,193.533221 322,191.623237 L322,188.579668 L306,187 Z" id="Shape" fill="#000000" fill-rule="nonzero" opacity="0.1"></path>
                    <path d="M287,189 C288.042592,191.07726 288.918189,193.225829 289.61936,195.427468 C294.106969,197.341649 299.688837,197.287576 305,196.433224 L304.73692,190.827665 L287,189 Z" id="Shape" fill="#000000" fill-rule="nonzero" opacity="0.1"></path>
                    <path d="M283.829071,139.362623 C280.76053,144.586547 280.289031,152.101464 280.578014,158.297907 C280.846852,163.276788 281.709918,168.204579 283.148441,172.974098 C284.905234,179.174454 285.788481,185.594248 285.772101,192.04392 C296.707821,204.075475 323.727719,190.41793 323.727719,190.41793 C323.727719,190.41793 321.476695,177.087121 323.727719,167.654074 C325.294311,161.0963 325.628922,155.318848 324.039517,149.783564 C323.308029,147.254092 322.229032,144.840908 320.834088,142.614602 C320.408219,141.930379 319.993757,141.173122 319.594504,140.362049 C315.868146,132.743345 313.715984,120.227453 319.708576,113.323724 C320.331533,112.605166 321.033128,111.960384 321.799899,111.40175 C327.024406,107.577023 329.404712,103.329461 330.408547,99.7353701 C331.036522,97.50231 331.166392,95.1561831 330.788788,92.8662364 C330.146181,89.2875214 321.138281,86.0355421 321.138281,86.0355421 C321.461485,96.7678428 307.951536,105.87031 307.951536,105.87031 C307.951536,105.87031 292.509965,85.7088065 289.939538,85.0591794 C287.369112,84.4095524 278.680613,89.2875214 278.038007,90.9135111 C277.3954,92.5395008 285.114285,104.571056 285.114285,104.571056 C285.114285,104.571056 289.943341,128.957057 283.829071,139.362623 Z" id="Shape" fill="#D39999" fill-rule="nonzero"></path>
                    <path d="M322.813303,111.142746 C328.388622,107.476144 330.92876,103.404189 332,99.9586889 C331.73219,94.7996509 330.376909,94 330.376909,94 C330.376909,94 319.035558,103.971683 320.066221,107.413499 C320.301569,108.20578 320.471993,110.276765 320.581552,113 C321.245425,112.305987 321.994166,111.682888 322.813303,111.142746 Z" id="Shape" fill="#000000" fill-rule="nonzero" opacity="0.1"></path>
                    <path d="M303.312853,184.920734 C305.500725,191.86433 316.443777,179.630003 316.757914,174.343179 C316.957484,170.959299 320.486904,157.693396 323,148.57724 C322.289035,146.00596 321.240309,143.552888 319.884501,141.289785 C319.470579,140.594253 319.067745,139.824479 318.679693,139 C317.493364,142.083004 312.72957,154.719802 313.00675,158.4788 C313.320887,162.777031 311.129319,169.056355 311.129319,169.056355 C311.129319,169.056355 301.124982,177.977138 303.312853,184.920734 Z" id="Shape" fill="#000000" fill-rule="nonzero" opacity="0.1"></path>
                    <path d="M329.425963,94 C329.425963,94 332.967547,96.2738681 329.425963,118.044619 L327.173956,141.44011 C327.173956,141.44011 318.485472,170.358949 318.162126,175.559654 C317.838781,180.760359 306.578749,192.778827 304.322939,185.957223 C302.067128,179.135619 312.368536,170.358949 312.368536,170.358949 C312.368536,170.358949 314.620542,164.186473 314.301001,159.96138 C313.981459,155.736287 320.414133,140.141854 320.414133,140.141854 C320.414133,140.141854 320.737478,111.549499 319.771246,107.973534 C318.805013,104.397569 329.425963,94 329.425963,94 Z" id="Shape" fill="#FDC2CC" fill-rule="nonzero"></path>
                    <path d="M281.898723,91 C281.898723,91 277.626596,91.9698021 281.898723,113.610898 L284.528023,137.191599 C284.528023,137.191599 290.442976,171.107947 290.112857,174.990973 C289.782739,178.874 302.929238,188.881289 303.911827,183.390834 C304.894416,177.90038 297.340519,168.855257 297.340519,168.855257 C297.340519,168.855257 294.047098,161.738284 294.047098,148.49323 L293.390744,137.833043 L288.796266,99.399861 L281.898723,91 Z" id="Shape" fill="#000000" fill-rule="nonzero" opacity="0.1"></path>
                    <path d="M280.898723,91 C280.898723,91 276.626596,91.9698021 280.898723,113.610898 L283.528023,137.191599 C283.528023,137.191599 289.442976,171.107947 289.112857,174.990973 C288.782739,178.874 301.929238,188.881289 302.911827,183.390834 C303.894416,177.90038 296.340519,168.855257 296.340519,168.855257 C296.340519,168.855257 293.054865,161.749738 293.054865,148.504685 L292.398511,137.844497 L287.807917,99.399861 L280.898723,91 Z" id="Shape" fill="#FDC2CC" fill-rule="nonzero"></path>
                    <path d="M279.099449,92.395738 C279.099449,92.395738 277.088258,102.870483 291.154715,106.472991 C305.221172,110.075498 289.480042,94.0286684 289.480042,94.0286684 C289.480042,94.0286684 284.123466,86.1774463 279.099449,92.395738 Z" id="Shape" fill="#000000" fill-rule="nonzero" opacity="0.1"></path>
                    <path d="M279.09893,92.3977196 C279.09893,92.3977196 277.092084,102.86987 291.155838,106.472816 C305.219592,110.075762 289.481487,94.0308488 289.481487,94.0308488 C289.481487,94.0308488 284.121982,86.1748009 279.09893,92.3977196 Z" id="Shape" fill="#D39999" fill-rule="nonzero"></path>
                    <path d="M330.900556,92.395738 C330.900556,92.395738 332.911647,102.870483 318.845893,106.472991 C304.780139,110.075498 320.516522,94.0286684 320.516522,94.0286684 C320.516522,94.0286684 325.860955,86.1774463 330.900556,92.395738 Z" id="Shape" fill="#000000" fill-rule="nonzero" opacity="0.1"></path>
                    <path d="M330.898766,92.3977196 C330.898766,92.3977196 332.924797,102.86987 318.84942,106.472816 C304.774043,110.075762 320.52327,94.0308488 320.52327,94.0308488 C320.52327,94.0308488 325.877216,86.1748009 330.898766,92.3977196 Z" id="Shape" fill="#D39999" fill-rule="nonzero"></path>
                    <path d="M301,73.9604172 C302.851216,74.4203223 304.924419,70.7207911 307.112579,70.7207911 C309.431554,70.7207911 311.615751,74.6807098 313.550211,73.8420592 C314.114233,71.1753228 314.933573,68.5525191 316,66 L301.075317,67.1227096 C301.685782,69.3309307 301.471723,71.792776 301,73.9604172 Z" id="Shape" fill="#000000" fill-rule="nonzero" opacity="0.1"></path>
                    <circle id="Oval" fill="#FDC2CC" fill-rule="nonzero" cx="308" cy="62" r="14"></circle>
                    <path d="M289.788456,56.2381482 C290.732685,57.5939195 292.22079,58.5491219 293.606918,59.5813568 C295.320429,60.8329642 296.939014,62.2144729 298.448925,63.714148 C299.515732,64.7082911 300.428765,65.8614438 301.156974,67.1343891 C302.233395,69.1834524 302.376918,71.5021293 302.505333,73.7591802 L303.823477,97.0730528 C303.910346,98.6137019 303.997215,100.189016 303.61197,101.695 C303.221364,102.978101 302.67179,104.205125 301.976565,105.346339 C300.235406,108.496966 298.445148,111.709219 295.642676,114.205071 C294.706001,115.03317 293.565372,116.103921 294.060148,117.190079 C294.460501,118.064397 295.691776,118.345565 296.749313,118.472669 C301.187189,119.081225 306.104734,119.601194 309.840105,117.394215 C311.248895,116.562264 312.415962,115.368261 313.994713,114.852144 C316.192878,114.139593 318.617658,114.882957 320.959347,114.879105 C323.444558,114.879105 325.816461,114.0356 328.135488,113.203649 C328.58057,113.088977 328.987446,112.854917 329.313886,112.525763 C329.498986,112.252054 329.614495,111.935732 329.650031,111.605226 C330.001284,109.714079 330.333653,107.753603 329.759562,105.900972 C329.13637,103.894277 327.493412,102.157195 327.308343,100.085022 C327.06662,97.204008 329.672693,94.8583697 331.546043,92.4896217 C335.534467,87.4478475 336.422042,80.1875386 332.327865,75.2150936 C330.216569,72.6499129 329.555608,69.8844477 327.731358,67.1536472 C326.061961,64.653944 325.7447,61.6535299 325.344346,58.772516 C324.846355,55.190863 324.163039,51.6385614 323.297258,48.1304823 C323.044204,47.0982474 321.635415,46.4665813 320.936685,45.6076694 C319.584549,43.9514716 315.649002,44.009246 313.382852,43.6394902 C309.568167,43.0232305 305.451328,42.4454871 301.965234,43.9745814 C299.548008,45.0376292 297.810626,46.9788471 295.922168,48.685116 C293.248111,51.1193416 286.759369,51.8819629 289.788456,56.2381482 Z" id="Shape" fill="#000000" fill-rule="nonzero" opacity="0.1"></path>
                    <path d="M289.789711,55.2381482 C290.733677,56.5939195 292.221368,57.5491219 293.607111,58.5813568 C295.320409,59.8354298 296.938551,61.2195195 298.44777,62.7218513 C299.51428,63.7159943 300.427059,64.869147 301.155065,66.1420923 C302.231187,68.1911556 302.37467,70.5098325 302.503049,72.7668835 L303.832154,96.0730528 C303.918999,97.6137019 304.005844,99.1890157 303.620705,100.695 C303.230209,101.978101 302.680788,103.205125 301.985756,104.346339 C300.245082,107.496966 298.455322,110.709219 295.65363,113.205071 C294.717215,114.03317 293.576904,115.103921 294.071542,116.190079 C294.471784,117.064397 295.702716,117.345565 296.759958,117.472669 C301.1966,118.081225 306.112776,118.601194 309.847107,116.394215 C311.255505,115.562264 312.422247,114.368261 314.000559,113.852144 C316.198112,113.139593 318.622218,113.882957 320.963254,113.879105 C323.447774,113.879105 325.819017,113.0356 328.137398,112.203649 C328.582357,112.088977 328.98912,111.854917 329.315468,111.525763 C329.500517,111.252054 329.615994,110.935732 329.65152,110.605226 C330.002676,108.714079 330.334952,106.753603 329.76102,104.900972 C329.138002,102.894277 327.495501,101.157195 327.310484,99.0850218 C327.068828,96.204008 329.674175,93.8583697 331.547004,91.4896217 C335.534318,86.4478475 336.421646,79.1875386 332.328608,74.2150936 C330.2179,71.6499129 329.557123,68.8844477 327.733381,66.1536472 C326.064448,63.653944 325.747275,60.6535299 325.347034,57.772516 C324.849181,54.190863 324.166055,50.6385614 323.300515,47.1304823 C323.047532,46.0982474 321.639134,45.4665813 320.940599,44.6076694 C319.588839,42.9514716 315.654388,43.009246 313.388869,42.6394902 C309.575245,42.0232305 305.459552,41.4454871 301.974428,42.9745814 C299.557874,44.0376292 297.820976,45.9788471 295.933044,47.685116 C293.229524,50.1193416 286.761467,50.8819629 289.789711,55.2381482 Z" id="Shape" fill="#865A61" fill-rule="nonzero"></path>
                </g>
            </g>
        </g>
    </g>
</svg>