<?xml version="1.0" encoding="UTF-8"?>
<svg width="230px" height="380px" viewBox="0 0 230 380" version="1.1" xmlns="http://www.w3.org/2000/svg" xmlns:xlink="http://www.w3.org/1999/xlink">
    <!-- Generator: Sketch 48.2 (47327) - http://www.bohemiancoding.com/sketch -->
    <title>Artboard</title>
    <desc>Created with Sketch.</desc>
    <defs>
        <linearGradient x1="50%" y1="100.004407%" x2="50%" y2="-3.13124773e-15%" id="linearGradient-1">
            <stop stop-color="#808080" stop-opacity="0.25" offset="0%"></stop>
            <stop stop-color="#808080" stop-opacity="0.12" offset="54%"></stop>
            <stop stop-color="#808080" stop-opacity="0.1" offset="100%"></stop>
        </linearGradient>
        <linearGradient x1="45355%" y1="191601%" x2="45355%" y2="173058%" id="linearGradient-2">
            <stop stop-color="#808080" stop-opacity="0.25" offset="0%"></stop>
            <stop stop-color="#808080" stop-opacity="0.12" offset="54%"></stop>
            <stop stop-color="#808080" stop-opacity="0.1" offset="100%"></stop>
        </linearGradient>
        <linearGradient x1="49.4998976%" y1="26856%" x2="50.5001024%" y2="24903%" id="linearGradient-3">
            <stop stop-color="#808080" stop-opacity="0.25" offset="0%"></stop>
            <stop stop-color="#808080" stop-opacity="0.12" offset="54%"></stop>
            <stop stop-color="#808080" stop-opacity="0.1" offset="100%"></stop>
        </linearGradient>
        <linearGradient x1="46.5845126%" y1="25809%" x2="53.4154874%" y2="10327%" id="linearGradient-4">
            <stop stop-color="#808080" stop-opacity="0.25" offset="0%"></stop>
            <stop stop-color="#808080" stop-opacity="0.12" offset="54%"></stop>
            <stop stop-color="#808080" stop-opacity="0.1" offset="100%"></stop>
        </linearGradient>
    </defs>
    <g id="Page-1" stroke="none" stroke-width="1" fill="none" fill-rule="evenodd">
        <g id="Artboard">
            <rect id="Rectangle" fill="#33333D" x="0" y="0" width="230" height="380"></rect>
            <g id="undraw_taken_yju1" transform="translate(1.000000, 92.000000)" fill-rule="nonzero">
                <g id="Group" opacity="0.8" transform="translate(77.000000, 5.000000)" fill="url(#linearGradient-1)">
                    <ellipse id="Oval" cx="40" cy="31.0842982" rx="39.8530612" ry="30.8531579"></ellipse>
                </g>
                <ellipse id="Oval" fill="#03DAC6" cx="117" cy="36" rx="39" ry="30"></ellipse>
                <path d="M84.1451864,39.3999517 C84.1451864,22.8364953 101.434759,9.40893073 122.760902,9.40893073 C129.381146,9.37261182 135.935349,10.729178 142,13.3909727 C135.213061,8.79526913 126.333684,6 116.615715,6 C95.2895724,6 78,19.4275646 78,35.991021 C78,47.1126237 85.7954076,56.8230751 97.3739204,62 C89.2684222,56.5040792 84.1451864,48.4183442 84.1451864,39.3999517 Z" id="Shape" fill="#FFFFFF" opacity="0.1"></path>
                <polygon id="Shape" fill="#03DAC6" opacity="0.2" points="117 48 160 122.501355 203 197 117 197 31 197 74 122.501355"></polygon>
                <g id="Group" opacity="0.3" transform="translate(93.000000, 121.000000)" fill="url(#linearGradient-2)">
                    <path d="M34.6077931,32.6356425 L37.9241379,22.6193855 C40.2664024,15.458081 37.7331795,7.58006547 31.6841379,3.21374302 L31.7110345,3.19731844 C30.4057512,2.26406916 28.9754805,1.52655134 27.464069,1.0073743 L27.4183448,0.993687151 L27.3672414,0.97452514 C25.899218,0.470626272 24.3692997,0.177634722 22.8217241,0.104022346 C22.2712414,0.0784729981 21.7225517,0.0784729981 21.1756552,0.104022346 C20.226714,0.154787034 19.2837317,0.287574383 18.3568966,0.500949721 C18.0933103,0.561173184 17.8315172,0.628696462 17.5715172,0.703519553 C17.3115172,0.778342644 17.0533103,0.857728119 16.7968966,0.941675978 C16.2858621,1.1132216 15.7837931,1.3094041 15.2906897,1.53022346 C15.0450345,1.63972067 14.8011724,1.75560521 14.5591034,1.87787709 C13.8360323,2.24305923 13.1394415,2.66020449 12.4746207,3.12614525 C12.2522759,3.28126629 12.0344138,3.4418622 11.8210345,3.60793296 C9.16171081,5.6649247 7.17131832,8.48799939 6.1082069,11.7107263 L0.901034483,27.4646369 C0.0803715666,29.939538 -0.166342107,32.5741713 0.180206897,35.1622905 C0.234,35.5601304 0.300344828,35.9543203 0.379241379,36.3448603 C0.458137931,36.7354004 0.547793103,37.1222905 0.648206897,37.5055307 C0.718137931,37.7610242 0.794344828,38.0146927 0.876827586,38.2665363 C1.00055172,38.6443017 1.13682759,39.0165922 1.28565517,39.3834078 C1.38427586,39.6279516 1.48827586,39.8706704 1.59765517,40.1115642 C1.8182069,40.591527 2.05937931,41.06054 2.32117241,41.5186034 C2.58296552,41.9766667 2.86537931,42.4219553 3.16841379,42.8544693 C3.39613793,43.177486 3.63462069,43.493203 3.88386207,43.8016201 C4.21558621,44.2122346 4.56703448,44.6073371 4.9382069,44.9869274 C6.5449531,46.6343598 8.46757627,47.9276941 10.5864828,48.7864804 L10.677931,48.8248045 C10.7915641,48.6183717 10.9173089,48.419091 11.0544828,48.2280447 C11.8613793,47.1056983 13.2653793,46.3118436 14.6021379,46.607486 C14.6989655,46.6293855 14.7957931,46.6567598 14.8926207,46.6896089 C15.5704138,46.9332402 16.2374483,47.3657542 16.8910345,47.5820112 C17.3722345,47.8020686 17.9242758,47.795058 18.399931,47.5628492 C19.7044138,46.8538547 19.2202759,44.6173743 20.3445517,43.6346369 C20.3958613,43.590309 20.4497523,43.5491728 20.505931,43.5114525 L20.4628966,43.4457542 C21.3262759,42.8982682 22.5285517,43.2623464 23.5264138,43.6182123 C24.6022759,44.0014525 26.0062759,44.2615084 26.754,43.3663687 C27.2596552,42.7531844 27.2246897,41.8197207 27.7034483,41.1764246 C28.2628966,40.4373184 29.3172414,40.3551955 30.2290345,40.4865922 C30.7104828,40.5632402 33.6825517,44.0452514 35.9822069,42.8873184 C32.2758621,39.6845251 34.3173103,33.5143575 34.6077931,32.6356425 Z" id="Shape"></path>
                </g>
                <path d="M103.741382,168.425001 C104.53915,167.329764 105.907922,166.563098 107.219321,166.86155 C108.53072,167.160002 109.773817,168.41131 110.943148,167.784287 C112.221762,167.099764 111.749112,164.939409 112.855604,163.994767 C113.710746,163.260959 115.005752,163.638815 116.068532,164.008458 C117.131311,164.3781 118.500084,164.630005 119.224085,163.767506 C119.718592,163.176078 119.685807,162.275245 120.155725,161.661913 C120.702141,160.950009 121.745796,160.859652 122.63099,160.996556 C123.10364,161.070485 126.016039,164.4356 128.270006,163.315721 C124.622677,160.205248 126.630757,154.247159 126.903965,153.401089 L130.149677,143.735623 C133.018079,135.107442 128.395604,125.777315 119.803286,122.852193 C111.194048,119.97748 101.884404,124.610127 98.9657042,133.221349 L93.8485164,148.423237 C91.0908775,156.72495 95.2613204,165.742991 103.364355,169 C103.478342,168.800887 103.604247,168.608869 103.741382,168.425001 Z" id="Shape" fill="#FFFFFF"></path>
                <circle id="Oval" fill="#000000" opacity="0.2" transform="translate(110.000000, 132.000000) rotate(-71.400000) translate(-110.000000, -132.000000) " cx="110" cy="132" r="2"></circle>
                <circle id="Oval" fill="#000000" opacity="0.2" transform="translate(120.000000, 135.000000) rotate(-71.400000) translate(-120.000000, -135.000000) " cx="120" cy="135" r="2"></circle>
                <ellipse id="Oval" fill="#E0E0E0" transform="translate(112.500000, 140.000000) rotate(-71.400000) translate(-112.500000, -140.000000) " cx="112.5" cy="140" rx="2.5" ry="2"></ellipse>
                <circle id="Oval" fill="#FFFFFF" transform="translate(149.500000, 131.500000) rotate(-71.400000) translate(-149.500000, -131.500000) " cx="149.5" cy="131.5" r="2.5"></circle>
                <circle id="Oval" fill="#FFFFFF" transform="translate(158.500000, 128.500000) rotate(-71.400000) translate(-158.500000, -128.500000) " cx="158.5" cy="128.5" r="1.5"></circle>
                <g id="Group" opacity="0.8" transform="translate(91.000000, 67.000000)" fill="url(#linearGradient-3)">
                    <rect id="Rectangle-path" x="0.0973469388" y="0.0075" width="52.8053061" height="4.8825"></rect>
                </g>
                <rect id="Rectangle-path" fill="#E0E0E0" x="91" y="67" width="53" height="5"></rect>
                <path d="M154.343911,27 C154.848269,28.952353 155.103704,30.9611585 155.104083,32.9781818 C155.104083,49.6881818 137.696143,63.2345455 116.223997,63.2345455 C98.6504478,63.2454545 83.8026585,54.1745455 79,41.7272727 C82.5673789,55.5736364 98.2757916,66 117.119914,66 C138.59206,66 156,52.4536364 156,35.7436364 C155.995105,32.7508934 155.433432,29.7854326 154.343911,27 Z" id="Shape" fill="#000000" opacity="0.1"></path>
                <g id="Group" opacity="0.8" transform="translate(37.000000, 28.000000)" fill="url(#linearGradient-4)">
                    <ellipse id="Oval" cx="80.5" cy="20.9138462" rx="80.2777441" ry="20.8411538"></ellipse>
                </g>
                <path d="M117.5,29 C74.6993925,29 40,37.9553834 40,49 L195,49 C195,37.9527117 160.300607,29 117.5,29 Z" id="Shape" fill="#FFFFFF"></path>
                <path d="M117.5,69 C160.300607,69 195,60.0446166 195,49 L40,49 C40,60.0472883 74.6993925,69 117.5,69 Z" id="Shape" fill="#FFFFFF"></path>
                <path d="M117.5,69 C160.300607,69 195,60.0446166 195,49 L40,49 C40,60.0472883 74.6993925,69 117.5,69 Z" id="Shape" fill="#000000" opacity="0.05"></path>
                <rect id="Rectangle-path" fill="#000000" opacity="0.05" x="80" y="44" width="74" height="11" rx="5.5"></rect>
                <path d="M36.6705271,16.0419881 C36.1624836,15.8137931 35.9049503,15.2420692 36.0706969,14.7103651 C36.0835203,14.6704675 36.0915741,14.6291917 36.0946901,14.5873999 C36.1104106,14.3436498 35.9640229,14.1185636 35.7348383,14.0340907 C35.5056537,13.9496178 35.2482033,14.0258574 35.1019711,14.2215035 C35.0778438,14.2550368 35.0577132,14.2912718 35.0419881,14.3294729 C34.8137931,14.8375164 34.2420692,15.0950497 33.7103651,14.9293031 C33.6704675,14.9164797 33.6291917,14.9084259 33.5873999,14.9053099 C33.3436498,14.8895894 33.1185636,15.0359771 33.0340907,15.2651617 C32.9496178,15.4943463 33.0258574,15.7517967 33.2215035,15.8980289 C33.2550368,15.9221562 33.2912718,15.9422868 33.3294729,15.9580119 C33.8375164,16.1862069 34.0950497,16.7579308 33.9293031,17.2896349 C33.9164797,17.3295325 33.9084259,17.3708083 33.9053099,17.4126001 C33.8895894,17.6563502 34.0359771,17.8814364 34.2651617,17.9659093 C34.4943463,18.0503822 34.7517967,17.9741426 34.8980289,17.7784965 C34.9221562,17.7449632 34.9422868,17.7087282 34.9580119,17.6705271 C35.1862069,17.1624836 35.7579308,16.9049503 36.2896349,17.0706969 C36.3295325,17.0835203 36.3708083,17.0915741 36.4126001,17.0946901 C36.6563502,17.1104106 36.8814364,16.9640229 36.9659093,16.7348383 C37.0503822,16.5056537 36.9741426,16.2482033 36.7784965,16.1019711 C36.7449632,16.0778438 36.7087282,16.0577132 36.6705271,16.0419881 Z" id="Shape" fill="#4D8AF0" opacity="0.5"></path>
                <path d="M174.670527,99.0419881 C174.162484,98.8137931 173.90495,98.2420692 174.070697,97.7103651 C174.08352,97.6704675 174.091574,97.6291917 174.09469,97.5873999 C174.110411,97.3436498 173.964023,97.1185636 173.734838,97.0340907 C173.505654,96.9496178 173.248203,97.0258574 173.101971,97.2215035 C173.077844,97.2550368 173.057713,97.2912718 173.041988,97.3294729 C172.813793,97.8375164 172.242069,98.0950497 171.710365,97.9293031 C171.670467,97.9164797 171.629192,97.9084259 171.5874,97.9053099 C171.34365,97.8895894 171.118564,98.0359771 171.034091,98.2651617 C170.949618,98.4943463 171.025857,98.7517967 171.221504,98.8980289 C171.255037,98.9221562 171.291272,98.9422868 171.329473,98.9580119 C171.837516,99.1862069 172.09505,99.7579308 171.929303,100.289635 C171.91648,100.329533 171.908426,100.370808 171.90531,100.4126 C171.889589,100.65635 172.035977,100.881436 172.265162,100.965909 C172.494346,101.050382 172.751797,100.974143 172.898029,100.778496 C172.922156,100.744963 172.942287,100.708728 172.958012,100.670527 C173.186207,100.162484 173.757931,99.9049503 174.289635,100.070697 C174.329533,100.08352 174.370808,100.091574 174.4126,100.09469 C174.65635,100.110411 174.881436,99.9640229 174.965909,99.7348383 C175.050382,99.5056537 174.974143,99.2482033 174.778496,99.1019711 C174.744963,99.0778438 174.708728,99.0577132 174.670527,99.0419881 Z" id="Shape" fill="#4D8AF0" opacity="0.5"></path>
                <path d="M22.6705271,137.041988 C22.1624836,136.813793 21.9049503,136.242069 22.0706969,135.710365 C22.0835203,135.670467 22.0915741,135.629192 22.0946901,135.5874 C22.1104106,135.34365 21.9640229,135.118564 21.7348383,135.034091 C21.5056537,134.949618 21.2482033,135.025857 21.1019711,135.221504 C21.0778438,135.255037 21.0577132,135.291272 21.0419881,135.329473 C20.8137931,135.837516 20.2420692,136.09505 19.7103651,135.929303 C19.6704675,135.91648 19.6291917,135.908426 19.5873999,135.90531 C19.3436498,135.889589 19.1185636,136.035977 19.0340907,136.265162 C18.9496178,136.494346 19.0258574,136.751797 19.2215035,136.898029 C19.2550368,136.922156 19.2912718,136.942287 19.3294729,136.958012 C19.8375164,137.186207 20.0950497,137.757931 19.9293031,138.289635 C19.9164797,138.329533 19.9084259,138.370808 19.9053099,138.4126 C19.8895894,138.65635 20.0359771,138.881436 20.2651617,138.965909 C20.4943463,139.050382 20.7517967,138.974143 20.8980289,138.778496 C20.9221562,138.744963 20.9422868,138.708728 20.9580119,138.670527 C21.1862069,138.162484 21.7579308,137.90495 22.2896349,138.070697 C22.3295325,138.08352 22.3708083,138.091574 22.4126001,138.09469 C22.6563502,138.110411 22.8814364,137.964023 22.9659093,137.734838 C23.0503822,137.505654 22.9741426,137.248203 22.7784965,137.101971 C22.7449632,137.077844 22.7087282,137.057713 22.6705271,137.041988 Z" id="Shape" fill="#4D8AF0" opacity="0.5"></path>
                <path d="M7.67052705,48.0419881 C7.16248356,47.8137931 6.90495028,47.2420692 7.07069687,46.7103651 C7.0835203,46.6704675 7.09157411,46.6291917 7.09469008,46.5873999 C7.11041064,46.3436498 6.96402288,46.1185636 6.7348383,46.0340907 C6.50565371,45.9496178 6.24820325,46.0258574 6.10197113,46.2215035 C6.07784377,46.2550368 6.05771321,46.2912718 6.04198811,46.3294729 C5.81379308,46.8375164 5.24206919,47.0950497 4.71036511,46.9293031 C4.67046747,46.9164797 4.6291917,46.9084259 4.58739992,46.9053099 C4.34364984,46.8895894 4.11856356,47.0359771 4.03409069,47.2651617 C3.94961782,47.4943463 4.02585739,47.7517967 4.22150351,47.8980289 C4.25503676,47.9221562 4.29127177,47.9422868 4.32947295,47.9580119 C4.83751644,48.1862069 5.09504972,48.7579308 4.92930313,49.2896349 C4.9164797,49.3295325 4.90842589,49.3708083 4.90530992,49.4126001 C4.88958936,49.6563502 5.03597712,49.8814364 5.2651617,49.9659093 C5.49434629,50.0503822 5.75179675,49.9741426 5.89802887,49.7784965 C5.92215623,49.7449632 5.94228679,49.7087282 5.95801189,49.6705271 C6.18620692,49.1624836 6.75793081,48.9049503 7.28963489,49.0706969 C7.32953253,49.0835203 7.3708083,49.0915741 7.41260008,49.0946901 C7.65635016,49.1104106 7.88143644,48.9640229 7.96590931,48.7348383 C8.05038218,48.5056537 7.97414261,48.2482033 7.77849649,48.1019711 C7.74496324,48.0778438 7.70872823,48.0577132 7.67052705,48.0419881 Z" id="Shape" fill="#4D8AF0" opacity="0.5"></path>
                <path d="M171.671414,2.01635979 C171.173798,1.79102876 170.92155,1.22648039 171.083895,0.701449552 C171.096455,0.662052657 171.104344,0.621294919 171.107396,0.58002766 C171.122794,0.339336804 170.97941,0.117075506 170.75493,0.0336628295 C170.530449,-0.0497498473 170.278282,0.0255328606 170.135052,0.218723496 C170.111419,0.25183588 170.091702,0.287616118 170.0763,0.325337839 C169.852788,0.827005044 169.292799,1.08130611 168.772007,0.917639748 C168.732928,0.904977267 168.6925,0.897024538 168.651566,0.893947672 C168.389882,0.838606415 168.127386,0.984467891 168.034066,1.23707345 C167.940747,1.489679 168.044651,1.77311149 168.278491,1.90382243 C168.311336,1.92764697 168.346828,1.94752488 168.384245,1.96305262 C168.881861,2.18838365 169.134109,2.75293202 168.971764,3.27796286 C168.959204,3.31735975 168.951315,3.35811749 168.948263,3.39938475 C168.922702,3.65042626 169.071464,3.88631673 169.307798,3.96949576 C169.544133,4.0526748 169.806199,3.96137694 169.94117,3.74884287 C169.964802,3.71573049 169.98452,3.67995025 169.999922,3.64222853 C170.223434,3.14056132 170.783423,2.88626026 171.304215,3.04992662 C171.343293,3.0625891 171.383722,3.07054183 171.424656,3.0736187 C171.663403,3.08914196 171.88387,2.94459146 171.966609,2.71828329 C172.049348,2.49197513 171.974673,2.23775585 171.783043,2.09335904 C171.749317,2.06290218 171.71179,2.03701681 171.671414,2.01635979 Z" id="Shape" fill="#4D8AF0" opacity="0.5"></path>
                <g id="Group" opacity="0.5" transform="translate(28.000000, 70.000000)" fill="#47E6B1">
                    <rect id="Rectangle-path" x="2.05882353" y="0.236111111" width="1" height="4.72222222"></rect>
                    <rect id="Rectangle-path" transform="translate(2.500000, 2.656046) rotate(90.000000) translate(-2.500000, -2.656046) " x="2" y="0.294934641" width="1" height="4.72222222"></rect>
                </g>
                <g id="Group" opacity="0.5" transform="translate(223.000000, 48.000000)" fill="#47E6B1">
                    <rect id="Rectangle-path" x="2.05882353" y="0.236111111" width="1" height="4.72222222"></rect>
                    <rect id="Rectangle-path" transform="translate(2.500000, 2.656046) rotate(90.000000) translate(-2.500000, -2.656046) " x="2" y="0.294934641" width="1" height="4.72222222"></rect>
                </g>
                <g id="Group" opacity="0.5" transform="translate(196.000000, 124.000000)" fill="#47E6B1">
                    <rect id="Rectangle-path" x="2.05882353" y="0.236111111" width="1" height="4.72222222"></rect>
                    <rect id="Rectangle-path" transform="translate(2.500000, 2.656046) rotate(90.000000) translate(-2.500000, -2.656046) " x="2" y="0.294934641" width="1" height="4.72222222"></rect>
                </g>
                <circle id="Oval" fill="#F55F44" opacity="0.5" cx="196.5" cy="22.5" r="1.5"></circle>
                <circle id="Oval" fill="#F55F44" opacity="0.5" cx="1.5" cy="3.5" r="1.5"></circle>
                <circle id="Oval" fill="#F55F44" opacity="0.5" cx="50.5" cy="96.5" r="1.5"></circle>
            </g>
        </g>
    </g>
</svg>