<?xml version="1.0" encoding="UTF-8"?>
<svg width="535px" height="366px" viewBox="0 0 535 366" version="1.1" xmlns="http://www.w3.org/2000/svg" xmlns:xlink="http://www.w3.org/1999/xlink">
    <!-- Generator: Sketch 48.2 (47327) - http://www.bohemiancoding.com/sketch -->
    <title>undraw_graduation_9x4i (1)</title>
    <desc>Created with Sketch.</desc>
    <defs>
        <linearGradient x1="50.0006002%" y1="99.9985901%" x2="50.0006002%" y2="0.0022791182%" id="linearGradient-1">
            <stop stop-color="#808080" stop-opacity="0.25" offset="0%"></stop>
            <stop stop-color="#808080" stop-opacity="0.12" offset="54%"></stop>
            <stop stop-color="#808080" stop-opacity="0.1" offset="100%"></stop>
        </linearGradient>
        <linearGradient x1="-61266%" y1="280897%" x2="-61266%" y2="273527%" id="linearGradient-2">
            <stop stop-color="#808080" stop-opacity="0.25" offset="0%"></stop>
            <stop stop-color="#808080" stop-opacity="0.12" offset="54%"></stop>
            <stop stop-color="#808080" stop-opacity="0.1" offset="100%"></stop>
        </linearGradient>
    </defs>
    <g id="Master-Copy" stroke="none" stroke-width="1" fill="none" fill-rule="evenodd" transform="translate(-805.000000, -5842.000000)">
        <g id="undraw_graduation_9x4i-(1)" transform="translate(805.000000, 5842.000000)" fill-rule="nonzero">
            <path d="M522,128.953176 C521.999456,125.16094 519.969335,121.656972 516.674173,119.760854 L516.674173,89.9295216 L516.479937,89.9295216 L516.479937,89.8233602 L493.497425,89.8233602 L252.07454,28 L0,98.7783803 L0,111.161787 L120.645653,156.548876 L113.615561,277.472871 C177.801179,295.688905 228.327616,302.295886 268.014428,301.989892 L268.897889,301.989892 L270.107165,301.989892 C386.811706,300.416206 408.48469,238.574112 408.48469,238.574112 C402.16262,205.795241 403.04608,169.42562 404.098714,151.22832 L509.493704,104.111426 L507.996207,95.1688952 L509.58769,95.1688952 L509.58769,118.486918 C505.008523,119.258003 501.458399,122.897114 500.813666,127.480868 C500.168933,132.064623 502.578216,136.536378 506.768134,138.532674 L498.936035,157.267026 C499.754792,158.302326 500.858784,159.0771 502.112734,159.496414 L481.185366,215.655755 C483.428887,217.448714 485.832409,219.033177 488.365834,220.389301 L491.743035,222.631179 L491.824489,222.075393 C497.538788,224.573306 504.738054,226.146992 511.248094,223.074558 L513.015016,222.631179 L512.73306,222.281471 C514.172063,221.413671 515.492523,220.364185 516.661641,219.159079 L514.888454,159.003076 L513.37216,139.344496 C518.37,138.380537 521.984925,134.026743 522,128.953176 Z" id="Shape" fill="url(#linearGradient-1)"></path>
            <path d="M405,237.969224 C405,237.969224 366.9631,346.938447 118,276.020376 L124.930611,156.676415 L316.844629,129 L401.566026,141.104905 C401.566026,141.104905 396.352402,192.9974 405,237.969224 Z" id="Shape" fill="#33333D"></path>
            <polygon id="Shape" fill="#000000" opacity="0.15" points="125 155.460476 125 165.835635 268.266719 216 394.273367 162.381428 396 152 268.266719 198.703889"></polygon>
            <path d="M401.547741,141.105089 L316.838952,129 L314.06336,129.401204 L395.971497,141.111358 C395.971497,141.111358 390.78371,192.99837 399.430021,237.970875 C399.430021,237.970875 378.127515,299.022901 263,299.988299 C383.00203,300.985041 405,237.970875 405,237.970875 C396.359954,192.992101 401.547741,141.105089 401.547741,141.105089 Z" id="Shape" fill="#000000" opacity="0.15"></path>
            <rect id="Rectangle-path" fill="#33333D" x="504" y="92" width="7" height="31"></rect>
            <rect id="Rectangle-path" fill="#000000" opacity="0.1" x="504" y="92" width="7" height="31"></rect>
            <path d="M476,214.147666 C476,214.147666 497.001269,231.524903 511,217.585743 L509.249366,159.157116 L498.751903,154 L476,214.147666 Z" id="Shape" fill="#33333D"></path>
            <path d="M476,214.147666 C476,214.147666 497.001269,231.524903 511,217.585743 L509.249366,159.157116 L498.751903,154 L476,214.147666 Z" id="Shape" fill="#000000" opacity="0.1"></path>
            <polygon id="Shape" fill="#33333D" points="7 101.195716 7 113.312777 268.488767 212 504 106.391431 502.274022 96 266.756513 199.882938"></polygon>
            <polygon id="Shape" fill="#000000" opacity="0.07" points="7 101.195716 7 113.312777 268.488767 212 504 106.391431 502.274022 96 266.756513 199.882938"></polygon>
            <polygon id="Shape" fill="#33333D" points="7 100.07267 267.867359 201 502 94.8908114 252.768704 31"></polygon>
            <ellipse id="Oval" fill="#33333D" cx="257.5" cy="91" rx="17.5" ry="11"></ellipse>
            <ellipse id="Oval" fill="#000000" opacity="0.1" cx="257.5" cy="91" rx="17.5" ry="11"></ellipse>
            <rect id="Rectangle-path" fill="#33333D" x="270" y="92" width="241" height="5"></rect>
            <rect id="Rectangle-path" fill="#000000" opacity="0.1" x="270" y="92" width="241" height="5"></rect>
            <circle id="Oval" fill="#33333D" cx="505" cy="130" r="10"></circle>
            <circle id="Oval" fill="#000000" opacity="0.1" cx="505" cy="130" r="10"></circle>
            <path d="M493,157.969888 C493,157.969888 496.334676,163.403945 508,159.717906 L506.332662,137 L501.330648,137 L493,157.969888 Z" id="Shape" fill="#33333D"></path>
            <path d="M493,157.969888 C493,157.969888 496.334676,163.403945 508,159.717906 L506.332662,137 L501.330648,137 L493,157.969888 Z" id="Shape" fill="#000000" opacity="0.1"></path>
            <polygon id="Shape" fill="#FFFFFF" opacity="0.2" points="481 217.571429 488 209 486.248413 221"></polygon>
            <polygon id="Shape" fill="#FFFFFF" opacity="0.2" points="500 213 500 223 507 221.333333"></polygon>
            <path d="M152,219 C152,219 203.871867,235.916967 235,225.744713 L152,219 Z" id="Shape" fill="#000000" opacity="0.15"></path>
            <path d="M293,229.754969 C293,229.754969 347.570577,232.98378 375,216 L293,229.754969 Z" id="Shape" fill="#000000" opacity="0.15"></path>
            <path d="M331,272 C331,272 362.734657,259.622739 379,247 L331,272 Z" id="Shape" fill="#000000" opacity="0.15"></path>
            <path d="M138,244 C138,244 194,266.750879 208,257.9942 L138,244 Z" id="Shape" fill="#000000" opacity="0.15"></path>
            <ellipse id="Oval" fill="#E0E0E0" transform="translate(21.000000, 226.500000) rotate(-68.680000) translate(-21.000000, -226.500000) " cx="21" cy="226.5" rx="22" ry="3.5"></ellipse>
            <ellipse id="Oval" fill="#E0E0E0" transform="translate(307.000000, 338.000000) rotate(-68.680000) translate(-307.000000, -338.000000) " cx="307" cy="338" rx="22" ry="2"></ellipse>
            <rect id="Rectangle-path" fill="#F55F44" transform="translate(140.000000, 311.000000) rotate(34.480000) translate(-140.000000, -311.000000) " x="133" y="289" width="14" height="44"></rect>
            <rect id="Rectangle-path" fill="#000000" opacity="0.05" transform="translate(148.500000, 314.000000) rotate(-171.840000) translate(-148.500000, -314.000000) " x="141" y="292" width="15" height="44"></rect>
            <rect id="Rectangle-path" fill="#F55F44" transform="translate(149.000000, 315.000000) rotate(-171.950938) translate(-149.000000, -315.000000) " x="142" y="293" width="14" height="44"></rect>
            <rect id="Rectangle-path" fill="url(#linearGradient-2)" transform="translate(165.000000, 282.500000) rotate(-68.680000) translate(-165.000000, -282.500000) " x="142" y="129" width="46" height="307"></rect>
            <path d="M299.998672,358 C294.412002,355.914044 9.94325555,245.227217 14.0439093,246.832279 C27.1233645,222.475306 30.0452371,206 30.0452371,206 L316,317.167721 C316,317.167721 307.880204,334.829649 299.998672,358 Z" id="Shape" fill="#F5F5F5"></path>
            <rect id="Rectangle-path" fill="#000000" opacity="0.05" transform="translate(159.500000, 278.000000) rotate(21.161260) translate(-159.500000, -278.000000) " x="147" y="256" width="25" height="44"></rect>
            <rect id="Rectangle-path" fill="#F55F44" transform="translate(158.500000, 280.000000) rotate(21.320000) translate(-158.500000, -280.000000) " x="147" y="258" width="23" height="44"></rect>
            <rect id="Rectangle-path" fill="#000000" opacity="0.05" transform="translate(157.500000, 279.000000) rotate(21.320000) translate(-157.500000, -279.000000) " x="150" y="257" width="15" height="44"></rect>
            <rect id="Rectangle-path" fill="#F55F44" transform="translate(158.000000, 279.000000) rotate(21.320000) translate(-158.000000, -279.000000) " x="151" y="257" width="14" height="44"></rect>
            <circle id="Oval" fill="#DBDBDB" transform="translate(199.500000, 353.500000) rotate(-0.860000) translate(-199.500000, -353.500000) " cx="199.5" cy="353.5" r="1.5"></circle>
            <g id="Group" opacity="0.5" transform="translate(49.000000, 302.000000)" fill="#47E6B1">
                <rect id="Rectangle-path" x="4.67380952" y="0" width="1.85714286" height="11"></rect>
                <rect id="Rectangle-path" transform="translate(5.602381, 5.500000) rotate(90.000000) translate(-5.602381, -5.500000) " x="4.67380952" y="0" width="1.85714286" height="11"></rect>
            </g>
            <g id="Group" opacity="0.5" transform="translate(523.000000, 169.000000)" fill="#47E6B1">
                <rect id="Rectangle-path" x="4.67380952" y="0" width="1.85714286" height="11"></rect>
                <rect id="Rectangle-path" transform="translate(5.602381, 5.500000) rotate(90.000000) translate(-5.602381, -5.500000) " x="4.67380952" y="0" width="1.85714286" height="11"></rect>
            </g>
            <g id="Group" opacity="0.5" transform="translate(60.000000, 37.000000)" fill="#47E6B1">
                <rect id="Rectangle-path" x="4.67380952" y="0" width="1.85714286" height="11"></rect>
                <rect id="Rectangle-path" transform="translate(5.602381, 5.500000) rotate(90.000000) translate(-5.602381, -5.500000) " x="4.67380952" y="2.84217094e-14" width="1.85714286" height="11"></rect>
            </g>
            <g id="Group" opacity="0.5" transform="translate(466.000000, 20.000000)" fill="#47E6B1">
                <rect id="Rectangle-path" x="4.67380952" y="0" width="1.85714286" height="11"></rect>
                <rect id="Rectangle-path" transform="translate(5.602381, 5.500000) rotate(90.000000) translate(-5.602381, -5.500000) " x="4.67380952" y="0" width="1.85714286" height="11"></rect>
            </g>
            <path d="M43.335554,158.062104 C42.3202283,157.608158 41.8055476,156.470834 42.1367925,155.413121 C42.1624201,155.333753 42.1785156,155.251644 42.1847429,155.168508 C42.2161605,154.683619 41.9236043,154.235857 41.4655786,154.067816 C41.0075528,153.899775 40.4930377,154.051438 40.2007926,154.440634 C40.152574,154.507342 40.112343,154.579424 40.0809164,154.655417 C39.6248683,155.666062 38.4822772,156.17837 37.4196658,155.848652 C37.3399303,155.823143 37.2574406,155.807121 37.1739197,155.800923 C36.6867847,155.76965 36.2369495,156.060858 36.0681303,156.516772 C35.8993111,156.972686 36.051676,157.484829 36.4426751,157.775727 C36.5096914,157.823724 36.5821071,157.863769 36.6584522,157.895051 C37.6737779,158.348997 38.1884586,159.486321 37.8572137,160.544034 C37.8315861,160.623401 37.8154906,160.705511 37.8092633,160.788647 C37.7576587,161.282849 38.0459639,161.749936 38.5121824,161.927456 C38.978401,162.104977 39.5062795,161.948665 39.7992074,161.546351 C39.847426,161.479644 39.887657,161.407562 39.9190836,161.331569 C40.3751317,160.320924 41.5177228,159.808616 42.5803342,160.138333 C42.6600697,160.163843 42.7425594,160.179864 42.8260803,160.186063 C43.3132153,160.217336 43.7630505,159.926128 43.9318697,159.470214 C44.1006889,159.0143 43.948324,158.502156 43.5573249,158.211258 C43.4900235,158.15242 43.4155071,158.102304 43.335554,158.062104 Z" id="Shape" fill="#4D8AF0" opacity="0.5"></path>
            <path d="M150.335554,35.0621039 C149.320228,34.6081581 148.805548,33.4708342 149.136792,32.4131213 C149.16242,32.3337534 149.178516,32.2516439 149.184743,32.168508 C149.21616,31.6836187 148.923604,31.2358571 148.465579,31.0678162 C148.007553,30.8997753 147.493038,31.0514378 147.200793,31.4406344 C147.152574,31.5073418 147.112343,31.5794237 147.080916,31.6554168 C146.624868,32.666062 145.482277,33.17837 144.419666,32.8486522 C144.33993,32.8231427 144.257441,32.8071214 144.17392,32.8009228 C143.686785,32.7696501 143.236949,33.0608576 143.06813,33.5167719 C142.899311,33.9726862 143.051676,34.4848295 143.442675,34.7757274 C143.509691,34.8237237 143.582107,34.8637692 143.658452,34.8950509 C144.673778,35.3489967 145.188459,36.4863206 144.857214,37.5440335 C144.831586,37.6234014 144.815491,37.7055109 144.809263,37.7886468 C144.757659,38.2828485 145.045964,38.749936 145.512182,38.9274565 C145.978401,39.104977 146.50628,38.9486651 146.799207,38.5463513 C146.847426,38.479644 146.887657,38.4075621 146.919084,38.3315689 C147.375132,37.3209237 148.517723,36.8086157 149.580334,37.1383335 C149.66007,37.163843 149.742559,37.1798643 149.82608,37.1860629 C150.313215,37.2173356 150.763051,36.9261281 150.93187,36.4702138 C151.100689,36.0142995 150.948324,35.5021562 150.557325,35.2112583 C150.490024,35.1524204 150.415507,35.1023036 150.335554,35.0621039 Z" id="Shape" fill="#4D8AF0" opacity="0.5"></path>
            <path d="M178.335554,362.062104 C177.320228,361.608158 176.805548,360.470834 177.136792,359.413121 C177.16242,359.333753 177.178516,359.251644 177.184743,359.168508 C177.21616,358.683619 176.923604,358.235857 176.465579,358.067816 C176.007553,357.899775 175.493038,358.051438 175.200793,358.440634 C175.152574,358.507342 175.112343,358.579424 175.080916,358.655417 C174.624868,359.666062 173.482277,360.17837 172.419666,359.848652 C172.33993,359.823143 172.257441,359.807121 172.17392,359.800923 C171.686785,359.76965 171.236949,360.060858 171.06813,360.516772 C170.899311,360.972686 171.051676,361.484829 171.442675,361.775727 C171.509691,361.823724 171.582107,361.863769 171.658452,361.895051 C172.673778,362.348997 173.188459,363.486321 172.857214,364.544034 C172.831586,364.623401 172.815491,364.705511 172.809263,364.788647 C172.757659,365.282849 173.045964,365.749936 173.512182,365.927456 C173.978401,366.104977 174.50628,365.948665 174.799207,365.546351 C174.847426,365.479644 174.887657,365.407562 174.919084,365.331569 C175.375132,364.320924 176.517723,363.808616 177.580334,364.138333 C177.66007,364.163843 177.742559,364.179864 177.82608,364.186063 C178.313215,364.217336 178.763051,363.926128 178.93187,363.470214 C179.100689,363.0143 178.948324,362.502156 178.557325,362.211258 C178.490024,362.15242 178.415507,362.102304 178.335554,362.062104 Z" id="Shape" fill="#4D8AF0" opacity="0.5"></path>
            <circle id="Oval" fill="#F55F44" opacity="0.5" cx="512" cy="278" r="4"></circle>
            <circle id="Oval" fill="#4D8AF0" opacity="0.5" cx="346" cy="360" r="4"></circle>
            <circle id="Oval" fill="#47E6B1" opacity="0.5" cx="410" cy="290" r="4"></circle>
            <circle id="Oval" fill="#F55F44" opacity="0.5" cx="293" cy="4" r="4"></circle>
        </g>
    </g>
</svg>