<?xml version="1.0" encoding="UTF-8"?>
<svg width="535px" height="483px" viewBox="0 0 535 483" version="1.1" xmlns="http://www.w3.org/2000/svg" xmlns:xlink="http://www.w3.org/1999/xlink">
    <!-- Generator: Sketch 48.2 (47327) - http://www.bohemiancoding.com/sketch -->
    <title>undraw_files_6b3d</title>
    <desc>Created with Sketch.</desc>
    <defs>
        <linearGradient x1="45.012676%" y1="97.1729629%" x2="55.005408%" y2="2.81013515%" id="linearGradient-1">
            <stop stop-color="#808080" stop-opacity="0.25" offset="0%"></stop>
            <stop stop-color="#808080" stop-opacity="0.12" offset="54%"></stop>
            <stop stop-color="#808080" stop-opacity="0.1" offset="100%"></stop>
        </linearGradient>
        <linearGradient x1="68597%" y1="79720%" x2="68597%" y2="12694%" id="linearGradient-2">
            <stop stop-color="#808080" stop-opacity="0.25" offset="0%"></stop>
            <stop stop-color="#808080" stop-opacity="0.12" offset="54%"></stop>
            <stop stop-color="#808080" stop-opacity="0.1" offset="100%"></stop>
        </linearGradient>
        <linearGradient x1="51793%" y1="71946%" x2="51793%" y2="4968%" id="linearGradient-3">
            <stop stop-color="#808080" stop-opacity="0.25" offset="0%"></stop>
            <stop stop-color="#808080" stop-opacity="0.12" offset="54%"></stop>
            <stop stop-color="#808080" stop-opacity="0.1" offset="100%"></stop>
        </linearGradient>
        <linearGradient x1="53.1867171%" y1="99.1659119%" x2="48.0904069%" y2="-1.17864027%" id="linearGradient-4">
            <stop stop-color="#FFFFFF" stop-opacity="0.12" offset="0%"></stop>
            <stop stop-color="#FFFFFF" stop-opacity="0.09" offset="55%"></stop>
            <stop stop-color="#FFFFFF" stop-opacity="0.02" offset="100%"></stop>
        </linearGradient>
        <linearGradient x1="35617%" y1="63940%" x2="35617%" y2="57400%" id="linearGradient-5">
            <stop stop-color="#808080" stop-opacity="0.25" offset="0%"></stop>
            <stop stop-color="#808080" stop-opacity="0.12" offset="54%"></stop>
            <stop stop-color="#808080" stop-opacity="0.1" offset="100%"></stop>
        </linearGradient>
        <linearGradient x1="29600%" y1="67566%" x2="29600%" y2="47830%" id="linearGradient-6">
            <stop stop-color="#808080" stop-opacity="0.25" offset="0%"></stop>
            <stop stop-color="#808080" stop-opacity="0.12" offset="54%"></stop>
            <stop stop-color="#808080" stop-opacity="0.1" offset="100%"></stop>
        </linearGradient>
    </defs>
    <g id="Master-Copy" stroke="none" stroke-width="1" fill="none" fill-rule="evenodd" transform="translate(-99.000000, -5161.000000)">
        <g id="undraw_files_6b3d" transform="translate(99.000000, 5161.000000)" fill-rule="nonzero">
            <polygon id="Shape" fill="url(#linearGradient-1)" points="501.248942 483 195 457.811225 228.751058 39 535 64.1887752"></polygon>
            <polygon id="Shape" fill="#03DAC6" points="497.041025 477 198 452.484913 230.958975 45 530 69.5088142"></polygon>
            <polygon id="Shape" fill="url(#linearGradient-2)" points="516 413.343274 212.830783 472 134 58.6567256 437.169217 0"></polygon>
            <polygon id="Shape" fill="#E0E0E0" points="510 408.080563 215.560932 465 139 63.9131708 433.439068 7"></polygon>
            <rect id="Rectangle-path" fill="url(#linearGradient-3)" x="171" y="32" width="308" height="420"></rect>
            <rect id="Rectangle-path" fill="#FFFFFF" x="174" y="36" width="299" height="409"></rect>
            <path d="M275.004448,107.74668 C275.332715,135.282157 297.762232,157.337057 325.096825,156.996099 C352.431417,156.655142 374.336968,134.069863 373.996075,106.528073 C373.777704,85.5595898 360.47068,66.9666162 340.695849,60 L340.847358,72.8427331 C340.988083,82.1400381 333.583794,89.7998253 324.288781,89.9726913 C315.009484,90.0253772 307.430219,82.5716407 307.326183,73.2910291 L307.174675,60.448296 C287.579703,67.8869231 274.725612,86.7856929 275.004448,107.74668 Z" id="Shape" fill="url(#linearGradient-4)"></path>
            <path d="M373.999912,102.973914 C373.999912,75.3807226 351.841423,53 324.499994,53 C297.158566,53 275.000077,75.368071 275.000077,102.973914 C274.963402,123.985183 288.046686,142.775394 307.739086,149.993674 L307.739086,137.126973 C307.731953,127.828843 315.220941,120.270906 324.499994,120.211752 C333.779048,120.270906 341.268036,127.828843 341.260902,137.126973 L341.260902,150 C360.95548,142.780927 374.039243,123.987499 373.999912,102.973914 Z" id="Shape" fill="#03DAC6"></path>
            <ellipse id="Oval" stroke="#FFFFFF" fill="#FFFFFF" cx="324.5" cy="95" rx="18.5" ry="19"></ellipse>
            <path d="M325,120 C315.588585,120.059647 307.99277,127.680446 308.000005,137.055912 L308.000005,150.03601 C318.986155,153.987997 331.013845,153.987997 341.999995,150.03601 L341.999995,137.055912 C342.00723,127.680446 334.411415,120.059647 325,120 Z" id="Shape" stroke="#FFFFFF" fill="#FFFFFF"></path>
            <path d="M305.035227,93.8204182 C303.525854,90.9171721 302.834525,87.6675285 303.033433,84.4108241 C303.247468,81.1457159 304.741461,78.0908875 307.19916,75.8929889 C309.936816,73.5744157 313.647306,72.7564576 317.233074,72.4735547 C320.818843,72.1906519 324.454499,72.3628536 327.984142,71.6678967 C333.887038,70.4741767 339.05555,66.9903599 342.327214,62 C342.551715,64.7367774 342.776215,67.5350554 342.246145,70.2164822 C341.716075,72.897909 340.319184,75.5670357 337.961932,76.9815498 C340.818074,75.6715867 340.506268,78.7466175 339.888892,80.5854859 C341.304491,82.2829028 344.740592,82.5658057 344.915203,84.7613776 C345.089815,86.9569496 345.058634,89.2263223 344.19805,91.2496925 C343.337466,93.2730627 344.260411,96.8462485 342.052825,97" id="Shape" stroke="#FFFFFF" fill="#FFFFFF"></path>
            <path d="M339,77 C339,77 353.70369,78.1670171 343.243065,98" id="Shape" fill="#FFFFFF"></path>
            <rect id="Rectangle-path" fill="url(#linearGradient-5)" x="202" y="360" width="40" height="40"></rect>
            <rect id="Rectangle-path" fill="#03DAC6" x="206" y="363" width="34" height="34"></rect>
            <rect id="Rectangle-path" fill="#69F0AE" x="275" y="190" width="99" height="8"></rect>
            <rect id="Rectangle-path" fill="#E0E0E0" x="275" y="200" width="165" height="8"></rect>
            <rect id="Rectangle-path" fill="#E0E0E0" x="275" y="210" width="165" height="8"></rect>
            <rect id="Rectangle-path" fill="#69F0AE" x="275" y="278" width="99" height="8"></rect>
            <rect id="Rectangle-path" fill="#E0E0E0" x="275" y="288" width="165" height="8"></rect>
            <rect id="Rectangle-path" fill="#E0E0E0" x="275" y="298" width="165" height="8"></rect>
            <rect id="Rectangle-path" fill="#03DAC6" x="275" y="367" width="99" height="8"></rect>
            <rect id="Rectangle-path" fill="#E0E0E0" x="275" y="377" width="165" height="8"></rect>
            <rect id="Rectangle-path" fill="#E0E0E0" x="275" y="387" width="165" height="8"></rect>
            <path d="M144.677538,317.407175 L121.890437,317.407175 C119.573104,285.313944 93.2352514,260 61.0480032,260 C27.3407843,260 0,287.758006 0,322 C0,356.241994 27.3220961,384 61.0480032,384 C90.6251378,384 115.281056,362.638022 120.850129,334.24544 L144.652621,334.24544 C149.262751,334.245439 153,330.476065 153,325.826307 C153,321.176549 149.262751,317.407175 144.652621,317.407175 L144.677538,317.407175 Z" id="Shape" fill="url(#linearGradient-6)"></path>
            <path d="M61.5,264 C30.2966476,264 5,289.519873 5,321 C5,352.480127 30.2966476,378 61.5,378 C92.7033524,378 118,352.480127 118,321 C118,289.519873 92.7033524,264 61.5,264 Z M61.5,369.562028 C34.919828,369.562028 13.3740626,347.824264 13.3740626,321.006241 C13.3740626,294.188219 34.919828,272.450454 61.5,272.450454 C88.080172,272.450454 109.625937,294.175736 109.625937,321.012482 C109.625937,347.849228 88.080172,369.555787 61.5,369.555787 L61.5,369.562028 Z" id="Shape" fill="#FFFFFF"></path>
            <path d="M114,317 L141.03927,317 C144.883575,317 148,319.981155 148,323.658596 L148,325.341404 C148,329.018845 144.883575,332 141.03927,332 L114,332 L114,317 Z" id="Shape" fill="#FFFFFF"></path>
            <circle id="Oval" fill="#03DAC6" cx="62.5" cy="321.5" r="49.5"></circle>
            <path d="M67.2855711,301.976429 C63.5126886,303.987408 61.691084,309.517597 64.1981059,313.049378 C65.1984446,314.450778 66.6680781,315.380856 67.9462887,316.537168 C69.2244993,317.69348 70.3051122,319.308547 70.0828147,321.030447 C69.8650635,322.080416 69.3867518,323.056148 68.6934553,323.86467 C66.1555588,327.283332 63.024869,330.532319 62.2036033,334.742804 C61.4626116,338.563663 62.8210963,342.560482 65.0317215,345.734057 C66.2667076,347.537653 67.9277639,349.209278 70.0210654,349.787435 C72.3366644,350.415865 74.8436862,349.586337 76.813489,348.14723 C78.7832919,346.708124 80.2344006,344.722283 81.6793343,342.767864 L85.0446715,338.218026 C85.9647361,336.961165 86.8971507,335.622607 86.9959495,334.064099 C87.1132732,331.386985 84.6494759,329.382291 83.8096854,326.849715 C82.2536029,322.149054 86.5451796,317.291285 85.9709111,312.358104 C85.087896,304.904916 73.787773,298.488639 67.2855711,301.976429 Z" id="Shape" fill="#000000" opacity="0.2"></path>
        </g>
    </g>
</svg>