<?xml version="1.0" encoding="UTF-8"?>
<svg width="533px" height="409px" viewBox="0 0 533 409" version="1.1" xmlns="http://www.w3.org/2000/svg" xmlns:xlink="http://www.w3.org/1999/xlink">
    <!-- Generator: Sketch 48.2 (47327) - http://www.bohemiancoding.com/sketch -->
    <title>undraw_design_process_iqqg (2)</title>
    <desc>Created with Sketch.</desc>
    <defs>
        <linearGradient x1="50.0047728%" y1="99.9973558%" x2="50.0047728%" y2="-0.00264417356%" id="linearGradient-1">
            <stop stop-color="#808080" stop-opacity="0.25" offset="0%"></stop>
            <stop stop-color="#808080" stop-opacity="0.12" offset="54%"></stop>
            <stop stop-color="#808080" stop-opacity="0.1" offset="100%"></stop>
        </linearGradient>
        <linearGradient x1="60014%" y1="61406%" x2="60014%" y2="23588%" id="linearGradient-2">
            <stop stop-color="#808080" stop-opacity="0.25" offset="0%"></stop>
            <stop stop-color="#808080" stop-opacity="0.12" offset="54%"></stop>
            <stop stop-color="#808080" stop-opacity="0.1" offset="100%"></stop>
        </linearGradient>
        <linearGradient x1="100372%" y1="78845%" x2="100372%" y2="41027%" id="linearGradient-3">
            <stop stop-color="#808080" stop-opacity="0.25" offset="0%"></stop>
            <stop stop-color="#808080" stop-opacity="0.12" offset="54%"></stop>
            <stop stop-color="#808080" stop-opacity="0.1" offset="100%"></stop>
        </linearGradient>
    </defs>
    <g id="Master-Copy" stroke="none" stroke-width="1" fill="none" fill-rule="evenodd" transform="translate(-100.000000, -4096.000000)">
        <g id="undraw_design_process_iqqg-(2)" transform="translate(100.000000, 4096.000000)">
            <rect id="Rectangle-path" fill="url(#linearGradient-1)" fill-rule="nonzero" x="0" y="0" width="109" height="198" rx="7.96"></rect>
            <rect id="Rectangle-path" fill="#FFFFFF" fill-rule="nonzero" x="2" y="3" width="107" height="193" rx="13.64"></rect>
            <path d="M82.2144296,7 C81.5649603,11.2097325 77.9608061,14.3192309 73.7173475,14.3308916 L36.990549,14.3308916 C32.7470904,14.3192309 29.1429362,11.2097325 28.4934669,7 L9.03728761,7 C6.80755523,7 5,8.81456116 5,11.0529358 L5,185.947064 C5,188.185439 6.80755523,190 9.03728761,190 L101.962712,190 C103.033468,190 104.060368,189.572995 104.817506,188.812923 C105.574644,188.05285 106,187.02197 106,185.947064 L106,11.0529358 C106.000002,8.81660449 104.195624,7.00288932 101.967929,7 L82.2144296,7 Z" id="Shape" fill="#FAFAFA" fill-rule="nonzero"></path>
            <rect id="Rectangle-path" fill="#DBDBDB" fill-rule="nonzero" x="43" y="10" width="24" height="2" rx="1"></rect>
            <circle id="Oval" fill="#DBDBDB" fill-rule="nonzero" cx="72" cy="11" r="1"></circle>
            <rect id="Rectangle-path" fill="url(#linearGradient-2)" fill-rule="nonzero" x="212" y="91" width="109" height="198" rx="7.96"></rect>
            <rect id="Rectangle-path" fill="#FFFFFF" fill-rule="nonzero" x="214" y="94" width="107" height="193" rx="13.64"></rect>
            <path d="M293.198482,100 C292.563032,104.221604 288.955913,107.347194 284.703155,107.361253 L247.983942,107.361253 C243.731183,107.347194 240.124065,104.221604 239.488615,100 L220.036454,100 C217.807182,100 216,101.814301 216,104.052354 L216,278.947561 C216,281.185615 217.807182,282.999915 220.036454,282.999915 L312.937471,282.999915 C314.012516,283.006888 315.045915,282.583024 315.808546,281.822303 C316.571177,281.061583 317.000022,280.026863 317,278.947561 L317,104.078532 C317,101.840479 315.192818,100.026178 312.963546,100.026178 L293.198482,100 Z" id="Shape" fill="#FAFAFA" fill-rule="nonzero"></path>
            <rect id="Rectangle-path" fill="#DBDBDB" fill-rule="nonzero" x="255" y="101" width="24" height="2" rx="1"></rect>
            <circle id="Oval" fill="#DBDBDB" fill-rule="nonzero" cx="283" cy="102" r="1"></circle>
            <g id="Group" opacity="0.8" transform="translate(229.000000, 128.000000)" stroke="#FF0166" stroke-width="2">
                <polyline id="Shape" points="31.4293333 24.3237037 31.4293333 27.4348148 28.2293333 27.4348148"></polyline>
                <path d="M23.2693333,27.4348148 L5.91466667,27.4348148" id="Shape" stroke-dasharray="9.300000000000001"></path>
                <polyline id="Shape" points="3.44 27.4348148 0.24 27.4348148 0.24 24.3237037"></polyline>
                <path d="M0.24,17.302963 L0.24,6.76666667" id="Shape" stroke-dasharray="13.55"></path>
                <polyline id="Shape" points="0.24 3.2562963 0.24 0.145185185 3.44 0.145185185"></polyline>
                <path d="M8.39466667,0.145185185 L25.7493333,0.145185185" id="Shape" stroke-dasharray="9.300000000000001"></path>
                <polyline id="Shape" points="28.2293333 0.145185185 31.4293333 0.145185185 31.4293333 3.2562963"></polyline>
                <path d="M31.4293333,10.277037 L31.4293333,20.8133333" id="Shape" stroke-dasharray="13.55"></path>
            </g>
            <g id="Group" opacity="0.8" transform="translate(274.000000, 232.000000)" stroke="#FF0166" stroke-width="2">
                <polyline id="Shape" points="30.9560656 24.2511111 30.9560656 27.3622222 27.8085246 27.3622222"></polyline>
                <path d="M22.9298361,27.3622222 L5.85967213,27.3622222" id="Shape" stroke-dasharray="9.300000000000001"></path>
                <polyline id="Shape" points="3.42032787 27.3622222 0.272786885 27.3622222 0.272786885 24.2511111"></polyline>
                <path d="M0.278032787,17.2251852 L0.278032787,6.68888889" id="Shape" stroke-dasharray="13.55"></path>
                <polyline id="Shape" points="0.272786885 3.17851852 0.272786885 0.0674074074 3.42032787 0.0674074074"></polyline>
                <path d="M8.29901639,0.0674074074 L25.3691803,0.0674074074" id="Shape" stroke-dasharray="9.300000000000001"></path>
                <polyline id="Shape" points="27.8085246 0.0674074074 30.9560656 0.0674074074 30.9560656 3.17851852"></polyline>
                <path d="M30.9560656,10.2044444 L30.9560656,20.7355556" id="Shape" stroke-dasharray="13.55"></path>
            </g>
            <g id="Group" opacity="0.8" transform="translate(229.000000, 170.000000)" stroke="#FF0166" stroke-dasharray="12" stroke-width="2">
                <path d="M0.0628571429,0.276777778 L76.6542857,0.276777778" id="Shape"></path>
                <path d="M0.0628571429,15.5517778 L76.6542857,15.5517778" id="Shape"></path>
                <path d="M0.0628571429,30.8215556 L76.6542857,30.8215556" id="Shape"></path>
                <path d="M0.0628571429,46.0913333 L76.6542857,46.0913333" id="Shape"></path>
            </g>
            <rect id="Rectangle-path" fill="url(#linearGradient-3)" fill-rule="nonzero" x="424" y="183" width="109" height="198" rx="7.96"></rect>
            <rect id="Rectangle-path" fill="#FFFFFF" fill-rule="nonzero" x="424" y="185" width="107" height="193" rx="13.64"></rect>
            <path d="M504.21443,191 C503.578848,195.22221 499.970985,198.348249 495.717348,198.36231 L458.990549,198.36231 C454.736912,198.348249 451.129048,195.22221 450.493467,191 L431.037288,191 C428.807555,191 427,192.814561 427,195.052936 L427,369.947064 C427,372.185439 428.807555,374 431.037288,374 L523.962712,374 C526.192445,374 528,372.185439 528,369.947064 L528,195.052936 C528,192.814561 526.192445,191 523.962712,191 L504.21443,191 Z" id="Shape" fill="#FAFAFA" fill-rule="nonzero"></path>
            <rect id="Rectangle-path" fill="#DBDBDB" fill-rule="nonzero" x="466" y="193" width="24" height="2" rx="1"></rect>
            <circle id="Oval" fill="#DBDBDB" fill-rule="nonzero" cx="495" cy="194" r="1"></circle>
            <rect id="Rectangle-path" fill="#FF0166" fill-rule="nonzero" x="438" y="220" width="31" height="27"></rect>
            <rect id="Rectangle-path" fill="#FF0166" fill-rule="nonzero" x="484" y="324" width="31" height="27"></rect>
            <path d="M438,263 L515,263" id="Shape" stroke="#FF0166" stroke-width="2"></path>
            <path d="M438,279 L515,279" id="Shape" stroke="#FF0166" stroke-width="2"></path>
            <path d="M438,294 L515,294" id="Shape" stroke="#FF0166" stroke-width="2"></path>
            <path d="M438,309 L515,309" id="Shape" stroke="#FF0166" stroke-width="2"></path>
            <polyline id="Shape" stroke="#3AD29F" stroke-width="2" stroke-dasharray="12" points="122 22 267 22 267 75"></polyline>
            <polyline id="Shape" stroke="#3AD29F" stroke-width="2" stroke-dasharray="12" points="267 309 267 408 479 408 479 391.148936"></polyline>
            <rect id="Rectangle-path" fill="#F55F44" fill-rule="nonzero" opacity="0.5" x="108" y="269" width="5" height="5"></rect>
            <rect id="Rectangle-path" fill="#F55F44" fill-rule="nonzero" opacity="0.5" x="238" y="31" width="5" height="5"></rect>
            <rect id="Rectangle-path" fill="#F55F44" fill-rule="nonzero" opacity="0.5" x="61" y="236" width="5" height="5"></rect>
            <rect id="Rectangle-path" fill="#F55F44" fill-rule="nonzero" opacity="0.5" x="103" y="354" width="5" height="5"></rect>
            <rect id="Rectangle-path" fill="#F55F44" fill-rule="nonzero" opacity="0.5" x="221" y="373" width="5" height="5"></rect>
            <rect id="Rectangle-path" fill="#F55F44" fill-rule="nonzero" opacity="0.5" x="162" y="163" width="5" height="5"></rect>
            <rect id="Rectangle-path" fill="#F55F44" fill-rule="nonzero" opacity="0.5" x="379" y="328" width="5" height="5"></rect>
            <rect id="Rectangle-path" fill="#F55F44" fill-rule="nonzero" opacity="0.5" x="376" y="137" width="5" height="5"></rect>
            <rect id="Rectangle-path" fill="#F55F44" fill-rule="nonzero" opacity="0.5" x="294" y="309" width="5" height="5"></rect>
            <rect id="Rectangle-path" fill="#F55F44" fill-rule="nonzero" opacity="0.5" x="452" y="62" width="5" height="5"></rect>
            <rect id="Rectangle-path" fill="#F55F44" fill-rule="nonzero" opacity="0.5" x="329" y="52" width="5" height="5"></rect>
            <rect id="Rectangle-path" fill="#F55F44" fill-rule="nonzero" opacity="0.5" x="438" y="392" width="5" height="5"></rect>
        </g>
    </g>
</svg>