<?xml version="1.0" encoding="UTF-8"?>
<svg width="413px" height="441px" viewBox="0 0 413 441" version="1.1" xmlns="http://www.w3.org/2000/svg" xmlns:xlink="http://www.w3.org/1999/xlink">
    <!-- Generator: Sketch 48.2 (47327) - http://www.bohemiancoding.com/sketch -->
    <title>undraw_Astronaut_0o7w (3)</title>
    <desc>Created with Sketch.</desc>
    <defs>
        <linearGradient x1="50.0031612%" y1="100%" x2="50.0031612%" y2="0%" id="linearGradient-1">
            <stop stop-color="#808080" stop-opacity="0.25" offset="0%"></stop>
            <stop stop-color="#808080" stop-opacity="0.12" offset="54%"></stop>
            <stop stop-color="#808080" stop-opacity="0.1" offset="100%"></stop>
        </linearGradient>
        <linearGradient x1="44449%" y1="79567%" x2="44449%" y2="41160%" id="linearGradient-2">
            <stop stop-color="#808080" stop-opacity="0.25" offset="0%"></stop>
            <stop stop-color="#808080" stop-opacity="0.12" offset="54%"></stop>
            <stop stop-color="#808080" stop-opacity="0.1" offset="100%"></stop>
        </linearGradient>
        <linearGradient x1="44528%" y1="42726%" x2="44528%" y2="29414%" id="linearGradient-3">
            <stop stop-color="#808080" stop-opacity="0.25" offset="0%"></stop>
            <stop stop-color="#808080" stop-opacity="0.12" offset="54%"></stop>
            <stop stop-color="#808080" stop-opacity="0.1" offset="100%"></stop>
        </linearGradient>
        <linearGradient x1="40269%" y1="81138%" x2="40269%" y2="76240%" id="linearGradient-4">
            <stop stop-color="#808080" stop-opacity="0.25" offset="0%"></stop>
            <stop stop-color="#808080" stop-opacity="0.12" offset="54%"></stop>
            <stop stop-color="#808080" stop-opacity="0.1" offset="100%"></stop>
        </linearGradient>
        <linearGradient x1="48726%" y1="81138%" x2="48726%" y2="76240%" id="linearGradient-5">
            <stop stop-color="#808080" stop-opacity="0.25" offset="0%"></stop>
            <stop stop-color="#808080" stop-opacity="0.12" offset="54%"></stop>
            <stop stop-color="#808080" stop-opacity="0.1" offset="100%"></stop>
        </linearGradient>
        <linearGradient x1="59700%" y1="82348%" x2="59700%" y2="24826%" id="linearGradient-6">
            <stop stop-color="#808080" stop-opacity="0.25" offset="0%"></stop>
            <stop stop-color="#808080" stop-opacity="0.12" offset="54%"></stop>
            <stop stop-color="#808080" stop-opacity="0.1" offset="100%"></stop>
        </linearGradient>
        <linearGradient x1="77657%" y1="43503%" x2="77657%" y2="23000%" id="linearGradient-7">
            <stop stop-color="#808080" stop-opacity="0.25" offset="0%"></stop>
            <stop stop-color="#808080" stop-opacity="0.12" offset="54%"></stop>
            <stop stop-color="#808080" stop-opacity="0.1" offset="100%"></stop>
        </linearGradient>
        <linearGradient x1="19562%" y1="50422%" x2="19562%" y2="39459%" id="linearGradient-8">
            <stop stop-color="#808080" stop-opacity="0.25" offset="0%"></stop>
            <stop stop-color="#808080" stop-opacity="0.12" offset="54%"></stop>
            <stop stop-color="#808080" stop-opacity="0.1" offset="100%"></stop>
        </linearGradient>
    </defs>
    <g id="Master-Copy" stroke="none" stroke-width="1" fill="none" fill-rule="evenodd" transform="translate(-513.000000, -8047.000000)">
        <g id="undraw_Astronaut_0o7w-(3)" transform="translate(513.000000, 8047.000000)">
            <g id="cce41613-5798-418e-bd1c-d8ab89d50e24" transform="translate(67.000000, 179.000000)" fill="url(#linearGradient-1)" fill-rule="nonzero">
                <rect id="Rectangle-path" x="0.564" y="0.449219331" width="92.924875" height="158.290706" rx="13"></rect>
            </g>
            <rect id="3cc1ef72-f286-4cd9-bc37-3a4bc0282736" fill="#6200EE" fill-rule="nonzero" x="70" y="183" width="89" height="151" rx="13"></rect>
            <polyline id="3aab063b-c154-4fae-90f4-bd3dbd8a15cc" points="70 387 109 387 99.4146562 426"></polyline>
            <g id="1a4f509f-11ed-42f2-baf8-98baf11ce138" transform="translate(77.000000, 202.000000)" fill="#E0E0E0" fill-rule="nonzero">
                <polygon id="Shape" points="64.8297674 16.676129 14.2986047 17.703871 0.306356589 1.85806452 75.6406202 0.522580645"></polygon>
            </g>
            <g id="29eb97ed-3d6d-42b6-a356-b039b63b46ac" transform="translate(77.000000, 194.000000)" fill="#E0E0E0" fill-rule="nonzero">
                <polygon id="Shape" points="75.6406202 10.4011111 0.306356589 10.4011111 15.3413953 2.06555556 59.6099225 0.543888889"></polygon>
            </g>
            <path d="M207.618712,225.308444 C200.487304,222.140707 190.925672,226.490436 188.896554,233.806963 C183.534726,218.506083 170.551906,206.030163 154.956006,200.386154 C152.378318,199.45238 145.223315,196.609691 143.241386,198.825925 C142.315305,199.854257 140.545725,203.914398 140.657799,207.300804 L87.6116843,207.300804 C87.6116843,206.638889 87.6116843,205.976973 87.6116843,205.315058 C87.5821913,197.590744 81.4122551,197.324796 73.9151339,199.127333 C67.4161452,200.799519 61.4188838,204.025984 56.4375806,208.530075 C48.4685713,215.574744 42.9297854,224.752908 37.5207688,233.783324 L28.0830079,224.392401 C27.0389557,223.358158 25.8061481,222.241177 24.3138022,222.312096 C22.7329773,222.388925 21.5945474,223.754126 20.6684671,224.995217 C16.5040551,230.621496 12.209874,236.537364 11.2307063,243.387005 C10.24564,250.130266 12.593283,256.861708 14.8996358,263.297652 C17.1587998,269.579936 20.1552889,278.474423 26.6378508,280.714296 C33.6099966,283.125559 40.9714501,283.409237 47.0175156,279.272267 C56.4552764,272.771314 66.1820686,266.045782 73.071634,257.157206 L73.071634,324.70802 L73.8679451,324.70802 L67.3794845,425 L110.757793,424.775422 L113.848659,324.70802 L115.116858,324.70802 L117.228557,424.757692 L161.361886,424.98227 L154.737758,324.70802 L156.106233,324.70802 L156.106233,256.48938 L157.285953,257.470433 L178.686076,275.407155 C183.139519,279.142248 188.23591,283.090099 194.122714,282.800511 C198.35201,282.587753 202.186101,275.483984 204.88766,272.333977 C207.589219,269.183969 209.341103,265.389777 211.057596,261.648773 C213.900721,255.443318 216.796934,249.042834 216.991588,242.258203 C217.186242,235.473571 214.000997,228.139314 207.618712,225.308444 Z" id="Shape" fill="url(#linearGradient-2)" fill-rule="nonzero"></path>
            <path d="M204.061922,227.064813 C197.237813,223.929452 188.095749,228.24574 186.155272,235.490728 C181.02392,220.32172 168.608406,207.969222 153.715688,202.365723 C151.25028,201.438696 145.287294,198.622185 143.394002,200.818709 C142.509286,201.840211 142.580064,205.867172 142.68623,209.221005 L86.6542209,209.221005 C86.6542209,208.565591 86.6542209,207.904271 86.6542209,207.254761 C86.6247304,199.578735 83.3748739,199.336645 76.2027768,201.12575 C69.9566823,202.684574 64.2119269,206.121071 59.4875439,210.449169 C51.8671907,217.428448 46.5706914,226.527491 41.3921541,235.478919 L32.3562555,226.167309 C31.3594755,225.139902 30.1739562,224.035735 28.7466145,224.106591 C27.3192728,224.177446 26.1455497,225.535513 25.2608338,226.769581 C21.273714,232.343557 17.1686321,238.212765 16.219037,245.003095 C15.2812381,251.687143 17.5225185,258.365285 19.7579007,264.742291 C21.9166076,270.971682 24.7830872,277.950961 30.9643024,280.171104 C37.6350605,282.562481 44.6773993,278.258002 50.4575433,274.15428 C59.5111363,267.730037 68.7888573,261.04599 75.3770419,252.230369 L75.3770419,325.583654 L76.1378976,325.583654 L69.9448861,425 L109.668631,425 L114.387116,325.583654 L115.602126,325.583654 L119.26485,425 L159.820228,425 L153.479764,325.583654 L154.789143,325.583654 L154.789143,253.369964 L155.903885,254.344229 L176.376212,272.123086 C180.634645,275.825292 185.512378,279.74597 191.121477,279.450738 C195.167578,279.238171 198.8362,276.781843 201.419571,273.658291 C204.002941,270.534739 205.678003,266.773486 207.317677,263.065375 C210.036704,256.91865 212.802916,250.571167 212.991655,243.845787 C213.180394,237.120407 210.166462,229.87542 204.061922,227.064813 Z" id="Shape" fill="#FFFFFF" fill-rule="nonzero"></path>
            <path d="M30.6424112,197.265712 C28.0269193,196.378075 25.0452586,197.813783 23.4294659,200.095427 C21.8136732,202.377071 21.3312602,205.319974 21.3196358,208.143732 C21.3196358,209.811775 21.4126311,211.62875 20.441993,212.963184 C19.5308338,214.055754 18.2000486,214.686634 16.797741,214.690799 C15.4157264,214.686224 14.0361023,214.572701 12.6710761,214.351233 C10.189265,214.101027 7.44009241,214.422721 5.65574575,216.192037 C3.87139909,217.961354 3.69703297,221.511901 5.84173628,222.810592 C3.33086411,225.014791 3.40061056,229.584036 5.96960477,231.71079 C4.7520373,232.930768 4.31997288,234.755683 4.85656039,236.411966 C5.3931479,238.06825 6.80440153,239.265796 8.49210135,239.496974 C6.2950882,240.307166 5.48719183,243.619422 7.05067474,245.394696 C7.98062739,246.449137 9.37555638,246.854233 10.7472365,247.181884 C13.6688378,247.932503 16.6040009,248.635464 19.5527258,249.290767 C22.1682176,249.886496 24.9348268,250.404781 27.4689478,249.54693 C34.1704191,247.277201 31.5781761,238.615295 31.1538852,233.462235 C30.5106679,225.729666 30.2123081,217.971283 30.2588057,210.187084 C30.2646179,208.995625 31.0143923,197.396773 30.6424112,197.265712 Z" id="0c32cf8a-9850-40d7-b2dc-353b7a6759c6" fill="#6200EE" fill-rule="nonzero"></path>
            <path d="M159.988162,158.561941 L152.026935,158.561941 C147.333067,141.190369 132.718742,129 115.405294,129 C98.0918462,129 83.4656824,141.160694 78.7718143,158.561941 L71,158.561941 L71,176.580422 L77.6530992,176.580422 C80.5179569,195.477274 96.3220271,208 115.399375,208 C134.476723,208 150.280793,195.477274 153.14565,176.580422 L160,176.580422 L159.988162,158.561941 Z" id="Shape" fill="url(#linearGradient-3)" fill-rule="nonzero"></path>
            <path d="M157,159.365681 L149.471115,159.365681 C145.036132,143.68542 131.237098,131 114.902948,131 C98.5687977,131 84.769764,143.679536 80.3347805,159.365681 L73,159.365681 L73,175.634319 L79.2760311,175.634319 C81.981724,192.697268 96.9218542,204 114.902948,204 C132.884042,204 147.841818,192.691384 150.529865,175.634319 L157,175.634319 L157,159.365681 Z" id="Shape" fill="#FFFFFF" fill-rule="nonzero"></path>
            <circle id="7a3910d7-67a0-4ff3-88ee-27dedf2e16a4" fill="#6200EE" fill-rule="nonzero" cx="114.5" cy="170.5" r="29.5"></circle>
            <g id="34c43434-1451-4ab0-8354-03d0c452d8e6" transform="translate(67.000000, 404.000000)" fill="url(#linearGradient-4)" fill-rule="nonzero">
                <path d="M44.4974026,21.558 C44.4974026,31.5 34.5623377,29.802 22.3538961,29.802 C10.1454545,29.802 0.21038961,31.488 0.21038961,21.558 C0.21038961,11.628 10.1454545,0.528 22.3538961,0.528 C34.5623377,0.528 44.4974026,11.616 44.4974026,21.558 Z" id="Shape"></path>
            </g>
            <g id="ad2d4070-7865-476e-a143-7337cc82fa1a" transform="translate(117.000000, 404.000000)" fill="url(#linearGradient-5)" fill-rule="nonzero">
                <path d="M44.8305195,21.558 C44.8305195,31.5 34.8954545,29.802 22.687013,29.802 C10.4785714,29.802 0.543506494,31.5 0.543506494,21.558 C0.543506494,11.616 10.4785714,0.528 22.687013,0.528 C34.8954545,0.528 44.8305195,11.616 44.8305195,21.558 Z" id="Shape"></path>
            </g>
            <g id="7c5e0dbc-1e9f-4751-9c9a-ae23d0c67b0d" transform="translate(69.000000, 406.000000)" fill="#E0E0E0" fill-rule="nonzero">
                <path d="M41.6095775,19.3930435 C41.6095775,28.2971739 32.316338,26.7769565 20.8521127,26.7769565 C9.38788732,26.7769565 0.0946478873,28.2971739 0.0946478873,19.3930435 C0.0946478873,10.488913 9.38788732,0.563478261 20.8521127,0.563478261 C32.316338,0.563478261 41.6095775,10.488913 41.6095775,19.3930435 Z" id="Shape"></path>
            </g>
            <g id="296e55fe-bb0b-4dd7-ab7e-7a6e065d6a5f" transform="translate(119.000000, 407.000000)" fill="#E0E0E0" fill-rule="nonzero">
                <path d="M41.6450704,19.302 C41.6450704,28.404 32.351831,26.85 20.8876056,26.85 C9.42338028,26.85 0.130140845,28.404 0.130140845,19.302 C0.130140845,10.2 9.42338028,0.054 20.8876056,0.054 C32.351831,0.054 41.6450704,10.2 41.6450704,19.302 Z" id="Shape"></path>
            </g>
            <path d="M211.999987,108.532992 C212.006214,105.150981 209.759077,102.181038 206.508625,101.275298 C203.258173,100.369558 199.804495,101.750967 198.068821,104.651067 C196.333146,107.551167 196.742707,111.256108 199.06967,113.704885 L199.06967,438.310616 C199.072913,439.794573 200.272128,440.996749 201.752431,441 L206.546023,441 C208.026326,440.996749 209.225541,439.794573 209.228784,438.310616 L209.228784,114.349155 C210.978733,112.927424 211.996648,110.791038 211.999987,108.532992 Z" id="Shape" fill="url(#linearGradient-6)" fill-rule="nonzero"></path>
            <path d="M210.99998,108.609075 C211.007792,105.429117 208.776129,102.696779 205.69406,102.112769 C202.61199,101.528759 199.558162,103.259569 198.43339,106.227878 C197.308617,109.196188 198.433555,112.555781 201.108001,114.215523 L201.108001,436.314807 C201.111201,437.796451 202.294681,438.996754 203.75556,439 L205.66413,439 C207.125009,438.996754 208.308489,437.796451 208.311689,436.314807 L208.311689,113.920447 C209.994454,112.688535 210.993886,110.713913 210.99998,108.609075 Z" id="Shape" fill="#E0E0E0" fill-rule="nonzero"></path>
            <path d="M200.015806,230.672065 C198.8373,232.495191 196.480288,234.011513 194.518075,233.032099 C192.938876,232.247387 192.432119,230.264959 192.231773,228.506734 C191.785528,224.579228 191.98458,220.60506 192.821026,216.741965 C193.327784,214.381931 194.406117,211.744593 196.721881,211.125084 C198.165552,210.741578 199.709395,211.290286 200.976289,212.086798 C202.243183,212.883309 203.333301,213.921724 204.647336,214.665135 C207.145769,216.104755 210.186315,216.364359 213.0383,215.945453 C214.452508,215.73895 215.843145,215.355445 217.263245,215.255143 C218.680474,215.073638 220.119294,215.328842 221.388017,215.986754 C222.675217,216.683032 223.441077,218.064729 223.35023,219.526805 C223.167561,220.942825 221.676751,222.146442 220.303791,221.751137 C221.526421,222.417843 222.571212,223.368871 223.35023,224.524176 C224.128142,225.710433 224.213538,227.222529 223.574146,228.489033 C222.872935,229.66905 221.128745,230.259059 220.003272,229.438947 C221.152315,230.38296 222.360284,231.385975 222.878827,232.772495 C223.39737,234.159015 222.979,236.035242 221.594255,236.578049 C221.013637,236.730305 220.422872,236.840723 219.826496,236.908454 C219.237243,237.044156 218.618527,237.451262 218.571387,238.058971 C218.518354,238.761081 219.219565,239.238988 219.632042,239.828996 C220.551277,241.079814 220.04452,242.961941 218.930831,244.041657 C217.817143,245.121372 216.267407,245.605179 214.806059,246.053586 C212.590468,246.720295 210.374876,247.387005 208.147499,248.012414 C205.713884,248.696824 203.150633,249.334033 200.681662,248.803025 C197.517859,248.125543 195.051728,245.641911 194.393445,242.470181 C193.735162,239.298452 195.008843,236.036642 197.641116,234.153115 C198.854978,233.279902 199.084786,231.793081 200.062947,230.677965 C201.281692,229.237469 201.912961,227.389696 201.830706,225.50359 C201.830706,222.71875 202.891362,220.028312 202.243183,217.320173 C202.089977,217.320173 201.978019,217.320173 201.824813,217.379174 C201.70107,222.02844 202.797081,226.453504 200.015806,230.672065 Z" id="75078eba-178e-4938-aaf4-b7f041ea2d55" fill="#6200EE" fill-rule="nonzero"></path>
            <g id="59ef6675-eba5-4924-a41d-ef258633805a" transform="translate(208.000000, 90.000000)" fill="url(#linearGradient-7)" fill-rule="nonzero">
                <path d="M204.480115,99.4892233 C136.351585,22.498932 68.2230548,176.479515 0.0708933718,99.4892233 L0.0708933718,22.498932 C68.1994236,99.4892233 136.327954,-54.4913592 204.480115,22.498932 C204.480115,48.1623625 204.480115,73.8257929 204.480115,99.4892233 Z" id="Shape"></path>
            </g>
            <g id="aee1670e-e8ab-4e69-9ed6-c33b4299fb78" transform="translate(208.000000, 96.000000)" fill="#6200EE" fill-rule="nonzero">
                <path d="M201.646647,90.4118617 C134.462507,20.511383 67.2724781,160.31234 0.0883381924,90.4118617 L0.0883381924,20.5172872 C67.2724781,90.417766 134.462507,-49.3831915 201.646647,20.5172872 L201.646647,90.4118617 Z" id="Shape"></path>
            </g>
            <g id="d941d43a-1bd7-497d-a2ef-a3e2e2659e0c" transform="translate(85.000000, 233.000000)" fill="url(#linearGradient-8)" fill-rule="nonzero">
                <rect id="Rectangle-path" x="0.426407767" y="0.350810811" width="60.2893204" height="65.1854054" rx="6.38"></rect>
            </g>
            <rect id="304248a4-1768-4f23-b9cb-e161915f6967" fill="#6200EE" fill-rule="nonzero" x="87" y="235" width="57" height="61" rx="6.38"></rect>
            <rect id="076458b3-f8b8-42f1-ba43-cb3b5508f8a9" fill="#000000" fill-rule="nonzero" opacity="0.2" x="94" y="246" width="11" height="28"></rect>
            <rect id="45128737-2df6-4b8c-aef6-04e2ae683cff" fill="#000000" fill-rule="nonzero" opacity="0.2" x="117" y="257" width="14" height="9"></rect>
            <rect id="211ca6c0-c299-4849-b228-cb0ba183ce3b" fill="#000000" fill-rule="nonzero" opacity="0.2" x="127" y="242" width="8" height="7"></rect>
            <circle id="4ad46ce1-f00a-4f7a-9fe8-8c270b89c73d" fill="#000000" fill-rule="nonzero" opacity="0.2" cx="131.5" cy="279.5" r="8.5"></circle>
            <path d="M117.761172,147.458797 C126.896868,147.45041 135.504569,151.775276 141,159.134947 C136.689551,148.622621 126.743668,141.568813 115.475882,141.032761 C104.208095,140.496708 93.6478901,146.574962 88.3752292,156.631383 C83.1025683,166.687803 84.0671309,178.911089 90.8505861,188 C87.1499937,178.944443 88.1715619,168.624216 93.5742083,160.485048 C98.9768546,152.34588 108.04883,147.460032 117.761172,147.458797 Z" id="ff63785f-5c7f-4def-be10-0bb3de2ca90f" fill="#000000" fill-rule="nonzero" opacity="0.2"></path>
            <path d="M172.014436,25.5474006 L170.911199,25.5474006 C170.683727,25.5474006 170.132108,24.5993884 170.132108,24.324159 L170.132108,23.2232416 C170.132108,22.3608563 169.227909,20 168.426072,20 C167.624234,20 166.720035,22.3608563 166.720035,23.2232416 L166.720035,24.324159 C166.720035,24.7094801 166.441382,25.5474006 166.100175,25.5474006 L164.996938,25.5474006 C164.195101,25.5474006 162,26.2140673 162,27.0764526 C162,27.9388379 164.195101,28.6055046 164.996938,28.6055046 L166.293526,28.6055046 C166.708661,28.6055046 166.702975,29.0642202 166.702975,29.3027523 L166.702975,30.7767584 C166.702975,31.6391437 167.607174,34 168.409011,34 C169.210849,34 170.115048,31.6391437 170.115048,30.7767584 L170.115048,29.3027523 C170.115048,29.1070336 170.479003,28.6055046 170.683727,28.6055046 L172.003062,28.6055046 C172.804899,28.6055046 175,27.9388379 175,27.0764526 C175,26.2140673 172.816273,25.5474006 172.014436,25.5474006 Z" id="ee614fe0-a70d-49e2-ad0f-cfa0665daf52" fill="#2196F3" fill-rule="nonzero"></path>
            <path d="M10.0144357,86.5474006 L8.9111986,86.5474006 C8.68372703,86.5474006 8.13210849,85.5993884 8.13210849,85.324159 L8.13210849,84.2232416 C8.13210849,83.3608563 7.22790901,81 6.42607174,81 C5.62423447,81 4.720035,83.3608563 4.720035,84.2232416 L4.720035,85.324159 C4.720035,85.7094801 4.44138233,86.5474006 4.10017498,86.5474006 L2.99693788,86.5474006 C2.19510061,86.5474006 0,87.2140673 0,88.0764526 C0,88.9388379 2.19510061,89.6055046 2.99693788,89.6055046 L4.29352581,89.6055046 C4.70866142,89.6055046 4.70297463,90.0642202 4.70297463,90.3027523 L4.70297463,91.7767584 C4.70297463,92.6391437 5.6071741,95 6.40901137,95 C7.21084864,95 8.11504812,92.6391437 8.11504812,91.7767584 L8.11504812,90.3027523 C8.11504812,90.1070336 8.47900262,89.6055046 8.68372703,89.6055046 L10.0030621,89.6055046 C10.8048994,89.6055046 13,88.9388379 13,88.0764526 C13,87.2140673 10.816273,86.5474006 10.0144357,86.5474006 Z" id="acc1d592-062e-4dcd-a91f-f2c750c33fa0" fill="#2196F3" fill-rule="nonzero"></path>
            <path d="M271.931601,43.5544148 L271.168263,43.5544148 C271.014364,43.5544148 270.552668,42.9383984 270.552668,42.7782341 L270.552668,42.0698152 C270.552668,41.5154004 269.875513,40 269.321477,40 C268.767442,40 268.090287,41.5154004 268.090287,42.0698152 L268.090287,42.7782341 C268.090287,43.0246407 268.090287,43.5544148 267.844049,43.5544148 L267.068399,43.5544148 C266.514364,43.5544148 265,43.9240246 265,44.4784394 C265,45.0328542 266.514364,45.4024641 267.068399,45.4024641 L267.97948,45.4024641 C268.26881,45.4024641 268.084131,45.8213552 268.084131,45.9691992 L268.084131,46.9301848 C268.084131,47.4845996 268.761286,49 269.315321,49 C269.869357,49 270.546512,47.4845996 270.546512,46.9301848 L270.546512,45.9876797 C270.546512,45.8644764 270.866621,45.4209446 271.008208,45.4209446 L271.931601,45.4209446 C272.485636,45.4209446 274,45.0513347 274,44.4969199 C274,43.9425051 272.467168,43.5544148 271.931601,43.5544148 Z" id="e9c2f9d0-6216-43dd-aafe-1aef442d8198" fill="#1976D2" fill-rule="nonzero"></path>
            <path d="M65.9316005,76.5544148 L65.1682627,76.5544148 C65.0143639,76.5544148 64.5526676,75.9383984 64.5526676,75.7782341 L64.5526676,75.0698152 C64.5526676,74.5154004 63.875513,73 63.3214774,73 C62.7674419,73 62.0902873,74.5154004 62.0902873,75.0698152 L62.0902873,75.7782341 C62.0902873,76.0246407 62.0902873,76.5544148 61.8440492,76.5544148 L61.0683995,76.5544148 C60.5143639,76.5544148 59,76.9240246 59,77.4784394 C59,78.0328542 60.5143639,78.4024641 61.0683995,78.4024641 L61.9794802,78.4024641 C62.2688098,78.4024641 62.0841313,78.8213552 62.0841313,78.9691992 L62.0841313,79.9301848 C62.0841313,80.4845996 62.7612859,82 63.3153215,82 C63.869357,82 64.5465116,80.4845996 64.5465116,79.9301848 L64.5465116,78.9876797 C64.5465116,78.8644764 64.8666211,78.4209446 65.0082079,78.4209446 L65.9316005,78.4209446 C66.4856361,78.4209446 68,78.0513347 68,77.4969199 C68,76.9425051 66.4671683,76.5544148 65.9316005,76.5544148 Z" id="13867d9c-cfe7-4b60-a8c5-3f71e99c3e02" fill="#1976D2" fill-rule="nonzero"></path>
            <circle id="cb349740-a417-4f38-a613-4379a7fe1f38" fill="#64B5F6" fill-rule="nonzero" cx="233.5" cy="29.5" r="4.5"></circle>
            <circle id="be23bb10-1d2e-418b-af6d-2d6967ae971b" fill="#0D47A1" fill-rule="nonzero" cx="59" cy="128" r="2"></circle>
            <circle id="9efc09db-f667-434b-9915-b8177f90eb0b" fill="#0071BC" fill-rule="nonzero" cx="224.5" cy="71.5" r="1.5"></circle>
            <circle id="e31fdc7b-a5f8-44bf-aafe-55a25c9ddf7f" fill="#64B5F6" fill-rule="nonzero" cx="57" cy="38" r="4"></circle>
            <circle id="1b095ea7-cb8e-44fa-8db9-d77434a32042" fill="#64B5F6" fill-rule="nonzero" cx="283" cy="88" r="4"></circle>
            <circle id="0045b9d1-e494-49ec-9bae-4feb39b517d1" fill="#64B5F6" fill-rule="nonzero" cx="21" cy="53" r="2"></circle>
            <circle id="de43a1f8-3987-4c14-8b8b-500a4e27f972" fill="#82A9FF" fill-rule="nonzero" cx="190" cy="95" r="2"></circle>
            <circle id="b38b0c10-cbab-47c9-839f-7ab983c113e8" fill="#82A9FF" fill-rule="nonzero" cx="38" cy="132" r="4"></circle>
            <circle id="e67cfae9-b598-4bd2-a0f9-80d7ff6e0a16" fill="#0D47A1" fill-rule="nonzero" cx="114" cy="29" r="2"></circle>
            <circle id="991e40b0-3269-43b4-8db7-0a4a8d214268" fill="#64B5F6" fill-rule="nonzero" cx="168.5" cy="61.5" r="4.5"></circle>
            <circle id="1d77e6b8-da9e-4299-ade6-ad650e1207bd" fill="#0071BC" fill-rule="nonzero" cx="126.5" cy="117.5" r="1.5"></circle>
            <circle id="1e33811a-9f5a-4f3e-be99-0f7e1dde7905" fill="#0D47A1" fill-rule="nonzero" cx="114" cy="73" r="2"></circle>
            <path d="M335.014436,53.5474006 L333.911199,53.5474006 C333.683727,53.5474006 333.132108,52.5993884 333.132108,52.324159 L333.132108,51.2232416 C333.132108,50.3608563 332.227909,48 331.426072,48 C330.624234,48 329.720035,50.3608563 329.720035,51.2232416 L329.720035,52.324159 C329.720035,52.7094801 329.441382,53.5474006 329.100175,53.5474006 L327.996938,53.5474006 C327.195101,53.5474006 325,54.2140673 325,55.0764526 C325,55.9388379 327.195101,56.6055046 327.996938,56.6055046 L329.293526,56.6055046 C329.708661,56.6055046 329.702975,57.0642202 329.702975,57.3027523 L329.702975,58.7767584 C329.702975,59.6391437 330.607174,62 331.409011,62 C332.210849,62 333.115048,59.6391437 333.115048,58.7767584 L333.115048,57.3027523 C333.115048,57.1070336 333.479003,56.6055046 333.683727,56.6055046 L335.003062,56.6055046 C335.804899,56.6055046 338,55.9388379 338,55.0764526 C338,54.2140673 335.816273,53.5474006 335.014436,53.5474006 Z" id="c488d0a9-6894-4c9c-aef4-d1faab1984cf" fill="#2196F3" fill-rule="nonzero"></path>
            <path d="M390.931601,43.5544148 L390.168263,43.5544148 C390.014364,43.5544148 389.552668,42.9383984 389.552668,42.7782341 L389.552668,42.0698152 C389.552668,41.5154004 388.875513,40 388.321477,40 C387.767442,40 387.090287,41.5154004 387.090287,42.0698152 L387.090287,42.7782341 C387.090287,43.0246407 387.090287,43.5544148 386.844049,43.5544148 L386.068399,43.5544148 C385.514364,43.5544148 384,43.9240246 384,44.4784394 C384,45.0328542 385.514364,45.4024641 386.068399,45.4024641 L386.97948,45.4024641 C387.26881,45.4024641 387.084131,45.8213552 387.084131,45.9691992 L387.084131,46.9301848 C387.084131,47.4845996 387.761286,49 388.315321,49 C388.869357,49 389.546512,47.4845996 389.546512,46.9301848 L389.546512,45.9876797 C389.546512,45.8644764 389.866621,45.4209446 390.008208,45.4209446 L390.931601,45.4209446 C391.485636,45.4209446 393,45.0513347 393,44.4969199 C393,43.9425051 391.467168,43.5544148 390.931601,43.5544148 Z" id="406551cf-aa86-4f47-a144-357aa82de0d2" fill="#1976D2" fill-rule="nonzero"></path>
            <circle id="7be5003c-4472-46d4-8fd5-cb0f750e9b8b" fill="#0D47A1" fill-rule="nonzero" cx="384" cy="82" r="2"></circle>
            <circle id="7efbb3a7-f30e-4781-a185-7b9acf369ac6" fill="#0D47A1" fill-rule="nonzero" cx="302" cy="19" r="2"></circle>
            <circle id="e77aff23-9dcb-4e42-8690-c4669d7d47b5" fill="#64B5F6" fill-rule="nonzero" cx="382" cy="4" r="4"></circle>
            <circle id="9b535ee8-dcf2-4b65-b03e-5a5766db33df" fill="#82A9FF" fill-rule="nonzero" cx="346" cy="20" r="2"></circle>
            <circle id="f898004f-292d-4a15-988f-9ba9c1bfd06e" fill="#64B5F6" fill-rule="nonzero" cx="363" cy="78" r="4"></circle>
        </g>
    </g>
</svg>