<svg xmlns="http://www.w3.org/2000/svg" width="240" height="240" viewBox="0 0 240 240" fill="none">
<path fillRule="evenodd" clipRule="evenodd" d="M111.477 0.5209C140.748 -2.41729 169.963 7.12657 192.623 27.8288C217.67 50.7129 243.576 81.9094 239.592 117.569C235.743 152.026 199.096 165.617 174.778 187.575C154.49 205.892 137.167 227.612 111.477 233.244C79.1407 240.333 40.3807 247.751 16.8709 222.195C-6.69028 196.583 -0.353381 153.611 5.0629 117.569C9.49215 88.0951 24.6797 63.8334 43.8352 42.7636C62.9208 21.7706 84.6686 3.21181 111.477 0.5209Z" fill="#FAD2E2"/>
<g clip-path="url(#clip0_142_856)">
<path d="M130.5 109.5H109.5V130.5H130.5V109.5Z" stroke="#E61A6B" stroke-width="6" strokeLinecap="round" strokeLinejoin="round"/>
<path d="M147 90H93C91.3431 90 90 91.3431 90 93V147C90 148.657 91.3431 150 93 150H147C148.657 150 150 148.657 150 147V93C150 91.3431 148.657 90 147 90Z" stroke="#E61A6B" stroke-width="6" strokeLinecap="round" strokeLinejoin="round"/>
<path d="M150 111H159" stroke="#E61A6B" stroke-width="6" strokeLinecap="round" strokeLinejoin="round"/>
<path d="M150 129H159" stroke="#E61A6B" stroke-width="6" strokeLinecap="round" strokeLinejoin="round"/>
<path d="M81 111H90" stroke="#E61A6B" stroke-width="6" strokeLinecap="round" strokeLinejoin="round"/>
<path d="M81 129H90" stroke="#E61A6B" stroke-width="6" strokeLinecap="round" strokeLinejoin="round"/>
<path d="M129 150V159" stroke="#E61A6B" stroke-width="6" strokeLinecap="round" strokeLinejoin="round"/>
<path d="M111 150V159" stroke="#E61A6B" stroke-width="6" strokeLinecap="round" strokeLinejoin="round"/>
<path d="M129 81V90" stroke="#E61A6B" stroke-width="6" strokeLinecap="round" strokeLinejoin="round"/>
<path d="M111 81V90" stroke="#E61A6B" stroke-width="6" strokeLinecap="round" strokeLinejoin="round"/>
</g>
<defs>
<clipPath id="clip0_142_856">
<rect width="96" height="96" fill="white" transform="translate(72 72)"/>
</clipPath>
</defs>
</svg>