<svg xmlns="http://www.w3.org/2000/svg" width="240" height="240" viewBox="0 0 240 240" fill="none">
<path fill-rule="evenodd" clip-rule="evenodd" d="M144.172 0.388713C173.233 4.13411 184.038 36.199 201.778 57.8321C215.71 74.822 230.704 90.1976 235.002 111.153C240.485 137.886 244.883 166.703 228.776 189.464C209.712 216.402 178.81 236.487 144.172 239.501C106.746 242.757 69.0239 229.916 42.0148 205.713C14.6018 181.149 -4.54511 146.103 0.940031 111.153C5.99603 78.9377 40.9416 61.4534 67.9311 40.5819C91.2636 22.5384 114.059 -3.49231 144.172 0.388713Z" fill="#ffe7e4"/>
<g clip-path="url(#clip0_142_913)">
<path d="M126.789 120C127.633 119.055 128.668 118.298 129.824 117.781C130.981 117.263 132.234 116.995 133.502 116.995C134.769 116.995 136.022 117.263 137.179 117.781C138.335 118.298 139.37 119.055 140.214 120" stroke="#f5a4c4" stroke-width="6" strokeLinecap="round" strokeLinejoin="round"/>
<path d="M99.7891 120C100.633 119.055 101.668 118.298 102.824 117.781C103.981 117.263 105.234 116.995 106.502 116.995C107.769 116.995 109.022 117.263 110.179 117.781C111.335 118.298 112.37 119.055 113.214 120" stroke="#f5a4c4" stroke-width="6" strokeLinecap="round" strokeLinejoin="round"/>
<path d="M129.938 138C126.992 139.956 123.535 140.999 120 140.999C116.465 140.999 113.008 139.956 110.062 138" stroke="#f5a4c4" stroke-width="6" stroke-linecap="round" stroke-linejoin="round"/>
<path d="M153 90.1125C153.006 89.6232 152.89 89.1401 152.664 88.7064C152.437 88.2727 152.107 87.9018 151.702 87.627C151.297 87.3521 150.83 87.1818 150.344 87.1313C149.857 87.0808 149.365 87.1516 148.913 87.3375C143.25 89.5125 132.338 93 120 93C107.663 93 96.7502 89.5125 91.0877 87.3375C90.635 87.1516 90.1434 87.0808 89.6567 87.1313C89.17 87.1818 88.7033 87.3521 88.2985 87.627C87.8937 87.9018 87.5632 88.2727 87.3366 88.7064C87.1101 89.1401 86.9945 89.6232 87.0002 90.1125V111C87.0002 137.512 101.775 159 120 159C138.225 159 153 137.512 153 111V90.1125Z" stroke="#f5a4c4" stroke-width="6" strokeLinecap="round" strokeLinejoin="round"/>
</g>
<defs>
<clipPath id="clip0_142_913">
<rect width="96" height="96" fill="white" transform="translate(72 72)"/>
</clipPath>
</defs>
</svg>