<?xml version="1.0" encoding="UTF-8"?>
<svg width="530px" height="647px" viewBox="0 0 530 647" version="1.1" xmlns="http://www.w3.org/2000/svg" xmlns:xlink="http://www.w3.org/1999/xlink">
  <!-- Generator: Sketch 61.2 (89653) - https://sketch.com -->
  <title>Group</title>
  <desc>Created with Sketch.</desc>
  <g id="Page-1" stroke="none" stroke-width="1" fill="none" fill-rule="evenodd">
    <g id="4-copy-2" transform="translate(0.000000, -195.000000)" fill-rule="nonzero">
      <g id="Group" transform="translate(31.476790, 576.329305) rotate(-169.000000) translate(-31.476790, -576.329305) translate(-569.523210, 47.829305)">
        <path d="M209.272857,527.180698 C227.634944,529.05574 245.784968,518.755341 261.633711,507.326422 C276.801806,496.388335 293.782068,482.971958 298.987104,462.485545 C304.892677,439.2419 283.919271,413.310936 291.26927,390.684323 C297.344504,371.982014 327.821022,377.676729 332.769002,358.489626 C337.296653,340.932462 310.399088,328.091225 312.124843,309.811322 C314.834247,281.112221 350.327235,261.442044 344.57712,233.413243 C339.904192,210.635165 306.754279,221.470051 291.16122,207.624634 C276.152886,194.298407 272.5505,166.597733 256.499913,155.20757 C240.53651,143.879275 219.650413,137.104273 202.193372,144.489352 C183.482749,152.404751 175.293574,179.122243 160.887075,195.655914 C150.329459,207.772401 138.991239,218.20732 127.960165,229.683368 C116.554669,241.548941 103.641161,251.039683 94.1037645,265.133143 C83.6545982,280.573929 68.1404704,296.470331 69.2639165,316.419114 C70.4698655,337.832886 90.2324565,350.365299 99.9145045,368.313172 C107.135833,381.699543 117.75509,393.710654 119.517431,409.575408 C122.781791,438.961463 99.8541975,473.696614 114.277319,497.608521 C125.948883,516.958657 153.901193,492.325813 173.020656,498.277715 C187.129806,502.669904 194.759672,525.698687 209.272857,527.180698" id="Shape" fill="#9AF0E8" transform="translate(207.206157, 334.402596) rotate(-84.000000) translate(-207.206157, -334.402596) "></path>
        <path d="M771.719964,925.06843 C808.727475,912.10374 844.962498,899.265068 878.822567,879.47096 C910.382686,861.021369 937.131273,837.05399 964.247358,812.51969 C993.18406,786.338119 1025.80847,763.381967 1044.81758,729.280718 C1064.96941,693.129482 1089.63024,649.981142 1076.78936,610.625753 C1063.06957,568.576604 1006.02917,558.494723 977.951242,524.345262 C956.037382,497.692783 950.588765,461.69281 930.985027,433.292912 C907.238012,398.890655 891.078168,330.929655 850.140066,339.185447 C795.048547,350.295492 799.529706,450.664025 746.906495,470.415154 C708.594565,484.794814 677.554603,421.635317 636.707457,419.293351 C592.840139,416.778223 542.651668,425.58928 511.813807,456.936144 C482.015429,487.226367 478.065444,536.476405 479.623901,578.969694 C481.104843,619.349413 499.277065,657.32516 520.425192,691.736365 C538.845518,721.709024 573.601791,737.059508 594.2733,765.521629 C615.166946,794.289605 618.638858,832.989371 642.290266,859.529561 C668.966167,889.463656 703.60738,910.224905 739.359386,928.328525 C749.137502,933.279836 761.377566,928.69164 771.719964,925.06843" id="Shape-Copy" fill="#F1EDDF" transform="translate(779.835667, 634.496200) scale(-1, 1) rotate(46.000000) translate(-779.835667, -634.496200) "></path>
        <path d="M448.769766,489.003284 C490.105166,515.390451 493.955998,587.576683 541.810641,598.285264 C589.399223,608.934087 630.035031,564.416532 671.568109,538.857699 C713.27812,513.190967 774.117141,497.530642 783.620981,449.483953 C793.352875,400.283573 722.653494,369.344056 714.898553,319.794912 C705.770318,261.471239 767.780638,198.442911 736.495807,148.383072 C706.585597,100.522966 632.296931,84.9136026 578.244244,101.13019 C525.740918,116.881981 523.112838,195.522411 477.589175,226.059033 C435.048451,254.594739 369.288379,229.482742 332.999176,265.63731 C291.277547,307.202908 247.856315,375.645701 274.957033,427.933991 C303.928311,483.829102 395.708591,455.129572 448.769766,489.003284 Z" id="Path-Copy" fill="#9591CE" transform="translate(525.538757, 347.420499) rotate(118.000000) translate(-525.538757, -347.420499) "></path>
      </g>
    </g>
  </g>
</svg>