<?xml version="1.0" encoding="UTF-8"?>
<svg width="90px" height="22px" viewBox="0 0 90 22" version="1.1" xmlns="http://www.w3.org/2000/svg" xmlns:xlink="http://www.w3.org/1999/xlink">
  <g id="8-copy" transform="translate(-253.000000, -772.000000)" fill="#FFFFFF" fill-rule="nonzero">
    <path d="M256.532713,779.605249 L260.065745,787.168806 L263.584342,779.605249 L267.130851,779.605249 L260.037034,794 L253,779.605249 L256.532713,779.605249 Z M278.836646,779.605249 L282.00434,779.605249 L282.00434,793.073336 L278.836646,793.073336 L278.836646,791.662888 C277.537508,792.860943 276.140278,793.460364 274.644954,793.460364 C272.757257,793.460364 271.196537,792.787786 269.962795,791.441842 C268.738624,790.068366 268.126139,788.353488 268.126139,786.297994 C268.126139,784.278686 268.738624,782.596846 269.962795,781.250903 C271.186967,779.904959 272.719774,779.231594 274.560418,779.231594 C276.149848,779.231594 277.574991,779.877427 278.836646,781.167519 L278.836646,779.605249 Z M271.350456,786.297994 C271.350456,787.588086 271.700561,788.639039 272.401569,789.450853 C273.121717,790.27132 274.027684,790.68116 275.121065,790.68116 C276.289411,790.68116 277.233659,790.284693 277.953009,789.491758 C278.673157,788.671291 279.032832,787.629778 279.032832,786.367219 C279.032832,785.103872 278.673157,784.062359 277.953009,783.241892 C277.233659,782.439518 276.298981,782.039118 275.149775,782.039118 C274.065167,782.039118 273.1592,782.444238 272.430279,783.256052 C271.710131,784.075732 271.350456,785.0905 271.350456,786.297994 Z M285.986288,779.605249 L289.140425,779.605249 L289.140425,780.808024 C289.719414,780.208603 290.233806,779.798763 290.682004,779.577717 C291.139773,779.347231 291.682077,779.231594 292.308119,779.231594 C293.139918,779.231594 294.0092,779.499052 294.915964,780.033969 L293.471681,782.882397 C292.873551,782.458397 292.289777,782.246004 291.71956,782.246004 C290.000136,782.246004 289.140425,783.527443 289.140425,786.090321 L289.140425,793.073336 L285.986288,793.073336 L285.986288,779.605249 Z M300.327043,779.605249 L300.327043,793.073336 L297.172906,793.073336 L297.172906,779.605249 L300.327043,779.605249 Z M296.695998,774.005149 C296.695998,773.460793 296.896969,772.991168 297.298912,772.594701 C297.700855,772.198234 298.182549,772 298.743196,772 C299.312615,772 299.799094,772.198234 300.201037,772.594701 C300.60298,772.981728 300.803952,773.456073 300.803952,774.018522 C300.803952,774.58097 300.60298,775.060822 300.201037,775.456502 C299.808664,775.85297 299.32697,776.051203 298.756754,776.051203 C298.186537,776.051203 297.700855,775.85297 297.298912,775.456502 C296.896969,775.060822 296.695998,774.576251 296.695998,774.005149 Z M314.387873,779.605249 L317.555568,779.605249 L317.555568,793.073336 L314.387873,793.073336 L314.387873,791.662888 C313.088736,792.860943 311.691505,793.460364 310.196181,793.460364 C308.308484,793.460364 306.747765,792.787786 305.514023,791.441842 C304.289851,790.068366 303.677366,788.353488 303.677366,786.297994 C303.677366,784.278686 304.289851,782.596846 305.514023,781.250903 C306.738195,779.904959 308.271001,779.231594 310.112443,779.231594 C311.701075,779.231594 313.126219,779.877427 314.387873,781.167519 L314.387873,779.605249 Z M306.901683,786.297994 C306.901683,787.588086 307.252586,788.639039 307.952796,789.450853 C308.672945,790.27132 309.579709,790.68116 310.67309,790.68116 C311.840639,790.68116 312.784886,790.284693 313.504237,789.491758 C314.224385,788.671291 314.58406,787.629778 314.58406,786.367219 C314.58406,785.103872 314.224385,784.062359 313.504237,783.241892 C312.784886,782.439518 311.850209,782.039118 310.701003,782.039118 C309.616394,782.039118 308.710427,782.444238 307.981507,783.256052 C307.261359,784.075732 306.901683,785.0905 306.901683,786.297994 Z M321.537516,779.605249 L324.70521,779.605249 L324.70521,780.849716 C325.808161,779.77123 327.051473,779.231594 328.434348,779.231594 C330.022981,779.231594 331.261508,779.724819 332.149132,780.711267 C332.915535,781.550613 333.299136,782.919369 333.299136,784.818322 L333.299136,793.073336 L330.130644,793.073336 L330.130644,785.551471 C330.130644,784.223621 329.944027,783.306397 329.569997,782.799013 C329.205537,782.282976 328.542012,782.024958 327.579422,782.024958 C326.532296,782.024958 325.789818,782.36636 325.350392,783.048378 C324.920536,783.720957 324.70521,784.896199 324.70521,786.574105 L324.70521,793.073336 L321.537516,793.073336 L321.537516,779.605249 Z M340.546871,782.508742 L340.546871,793.073336 L337.392735,793.073336 L337.392735,782.508742 L336.046544,782.508742 L336.046544,779.605249 L337.392735,779.605249 L337.392735,774.669074 L340.546871,774.669074 L340.546871,779.605249 L343,779.605249 L343,782.508742 L340.546871,782.508742 Z" id="Shape"></path>
  </g>
</svg>