<?xml version="1.0" encoding="UTF-8"?>
<svg width="305px" height="518px" viewBox="0 0 305 518" version="1.1" xmlns="http://www.w3.org/2000/svg" xmlns:xlink="http://www.w3.org/1999/xlink">
  <!-- Generator: Sketch 61.2 (89653) - https://sketch.com -->
  <title>Group</title>
  <desc>Created with Sketch.</desc>
  <g id="Page-1" stroke="none" stroke-width="1" fill="none" fill-rule="evenodd">
    <g id="4-copy" fill-rule="nonzero">
      <g id="Group" transform="translate(-249.000000, -199.000000)">
        <path d="M342.949993,713.286745 C368.257958,704.417321 393.03765,695.634107 416.193204,682.09253 C437.775914,669.470766 456.068209,653.074164 474.611822,636.289719 C494.400482,618.37834 516.711021,602.67354 529.710591,579.344138 C543.491627,554.612296 560.356186,525.093584 551.574822,498.169711 C542.1924,469.402979 503.184744,462.505747 483.983363,439.143362 C468.997346,420.909825 465.271253,396.281465 451.865036,376.85248 C435.625397,353.317153 424.574323,306.823563 396.578382,312.471529 C358.903483,320.072151 361.96797,388.736434 325.981049,402.248609 C299.781043,412.086046 278.554048,368.877268 250.620309,367.275078 C220.621194,365.554425 186.299295,371.582259 165.210508,393.027327 C144.832582,413.749524 142.131345,447.442539 143.197112,476.513117 C144.209869,504.137756 156.637129,530.117785 171.099492,553.659234 C183.69642,574.164179 207.464854,584.665777 221.601276,604.137329 C235.88961,623.818124 238.263913,650.29347 254.43817,668.450188 C272.680758,688.92875 296.370506,703.131969 320.819881,715.517047 C327.506745,718.904345 335.877239,715.765461 342.949993,713.286745" id="Shape-Copy" fill="#F1EDDF" transform="translate(348.500000, 514.500000) scale(-1, 1) translate(-348.500000, -514.500000) "></path>
        <path d="M171.792955,303.389288 C196.697255,319.285288 199.017355,362.771288 227.849455,369.222288 C256.521255,375.637288 281.004055,348.819288 306.027455,333.422288 C331.157455,317.960288 367.812555,308.526288 373.538555,279.582288 C379.401955,249.943288 336.806055,231.304888 332.133755,201.455788 C326.634055,166.320788 363.994855,128.351638 345.145955,98.1948877 C327.125255,69.3632877 282.366835,59.9599877 249.800455,69.7290877 C218.167555,79.2181877 216.584155,126.592288 189.156455,144.987978 C163.525955,162.178288 123.905955,147.050468 102.041955,168.830488 C76.9049546,193.870188 50.7439546,235.101088 67.0719546,266.600288 C84.5269546,300.272288 139.823955,282.983288 171.792955,303.389288 Z" id="Path-Copy" fill="#423D89" transform="translate(218.045754, 218.097829) rotate(47.000000) translate(-218.045754, -218.097829) "></path>
      </g>
    </g>
  </g>
</svg>