<svg width="1512" height="792" viewBox="0 0 1512 792" fill="none" xmlns="http://www.w3.org/2000/svg">
  <line x1="104" y1="643" x2="1408" y2="643" stroke="#B7B4DE" stroke-width="2"/>
  <path d="M1348.41 691.18C1350.59 691.18 1352.37 689.98 1352.37 687.12V676.7H1350.63V687.04C1350.63 688.96 1349.73 689.76 1348.31 689.76C1347.45 689.76 1346.93 689.58 1346.41 689.36V690.8C1346.79 691 1347.33 691.18 1348.41 691.18ZM1358.35 691.18C1359.89 691.18 1360.83 690.66 1361.61 689.68V691H1363.27V684.1C1363.27 681.18 1361.45 680.36 1359.45 680.36C1357.43 680.36 1355.53 681.24 1355.31 683.62H1356.97C1357.13 682.34 1357.93 681.74 1359.37 681.74C1360.97 681.74 1361.61 682.44 1361.61 684.1V684.86H1360.11C1357.43 684.86 1354.87 685.68 1354.87 688.1C1354.87 690.24 1356.41 691.18 1358.35 691.18ZM1358.51 689.86C1357.05 689.86 1356.53 689.18 1356.53 688.1C1356.53 686.56 1358.07 686.04 1360.17 686.04H1361.61V687.34C1361.61 688.96 1360.27 689.86 1358.51 689.86ZM1366.53 691H1368.19V684.66C1368.19 682.78 1369.57 681.8 1371.11 681.8C1372.79 681.8 1373.57 682.62 1373.57 684.46V691H1375.23V684.58C1375.23 681.54 1373.71 680.36 1371.55 680.36C1369.83 680.36 1368.67 681.22 1368.19 682.2V680.54H1366.53V691ZM1382.02 691.18C1383.7 691.18 1384.86 690.32 1385.34 689.34V691H1387V680.54H1385.34V686.88C1385.34 688.76 1383.94 689.74 1382.46 689.74C1380.82 689.74 1380.04 688.92 1380.04 687.08V680.54H1378.38V687.16C1378.38 690.04 1379.94 691.18 1382.02 691.18ZM1392.98 691.18C1394.52 691.18 1395.46 690.66 1396.24 689.68V691H1397.9V684.1C1397.9 681.18 1396.08 680.36 1394.08 680.36C1392.06 680.36 1390.16 681.24 1389.94 683.62H1391.6C1391.76 682.34 1392.56 681.74 1394 681.74C1395.6 681.74 1396.24 682.44 1396.24 684.1V684.86H1394.74C1392.06 684.86 1389.5 685.68 1389.5 688.1C1389.5 690.24 1391.04 691.18 1392.98 691.18ZM1393.14 689.86C1391.68 689.86 1391.16 689.18 1391.16 688.1C1391.16 686.56 1392.7 686.04 1394.8 686.04H1396.24V687.34C1396.24 688.96 1394.9 689.86 1393.14 689.86ZM1401.16 691H1402.82V685.26C1402.82 682.68 1404.16 682.02 1406.26 681.92V680.36C1404.38 680.42 1403.48 681.24 1402.82 682.42V680.54H1401.16V691Z" fill="#534DAC"/>
  <path d="M110.42 691.18C113.26 691.18 115.36 689.36 115.36 686.96C115.36 684.26 113.68 683.3 110.5 682.8C107.58 682.36 107.06 681.64 107.06 680.24C107.06 678.9 108.08 677.92 110.04 677.92C112.02 677.92 113.06 678.66 113.4 680.46H114.96C114.68 677.92 112.9 676.52 110.04 676.52C107.34 676.52 105.44 678.2 105.44 680.4C105.44 682.94 107.22 683.88 110.22 684.34C112.94 684.78 113.68 685.46 113.68 687.08C113.68 688.7 112.26 689.78 110.42 689.78C107.54 689.78 106.86 688.34 106.64 686.64H104.96C105.22 689.08 106.6 691.18 110.42 691.18ZM122.499 691.18C124.859 691.18 126.599 690.08 126.959 687.98H125.299C125.079 689.2 124.139 689.8 122.519 689.8C120.379 689.8 119.239 688.48 119.159 686.1H127.039V685.56C127.039 681.82 124.759 680.36 122.339 680.36C119.459 680.36 117.439 682.56 117.439 685.72V685.88C117.439 689.1 119.539 691.18 122.499 691.18ZM119.219 684.76C119.499 682.9 120.639 681.74 122.339 681.74C124.059 681.74 125.179 682.6 125.339 684.76H119.219ZM129.586 694.64H131.246V689.28C131.846 690.32 133.066 691.18 134.786 691.18C137.666 691.18 139.546 688.98 139.546 685.78V685.62C139.546 682.36 137.526 680.36 134.786 680.36C133.266 680.36 131.846 681.28 131.246 682.3V680.54H129.586V694.64ZM134.626 689.8C132.586 689.8 131.186 688.54 131.186 685.86V685.7C131.186 683.02 132.666 681.74 134.606 681.74C136.366 681.74 137.826 683.06 137.826 685.7V685.86C137.826 688.4 136.706 689.8 134.626 689.8ZM145.305 691.14C145.985 691.14 146.385 691.04 146.725 690.92V689.52C146.365 689.66 145.965 689.74 145.445 689.74C144.605 689.74 144.145 689.24 144.145 688.22V681.94H146.585V680.54H144.145V678.16H142.485V680.54H140.985V681.94H142.485V688.38C142.485 690.02 143.405 691.14 145.305 691.14ZM153.515 691.18C155.875 691.18 157.615 690.08 157.975 687.98H156.315C156.095 689.2 155.155 689.8 153.535 689.8C151.395 689.8 150.255 688.48 150.175 686.1H158.055V685.56C158.055 681.82 155.775 680.36 153.355 680.36C150.475 680.36 148.455 682.56 148.455 685.72V685.88C148.455 689.1 150.555 691.18 153.515 691.18ZM150.235 684.76C150.515 682.9 151.655 681.74 153.355 681.74C155.075 681.74 156.195 682.6 156.355 684.76H150.235ZM160.602 691H162.262V684.6C162.262 682.72 163.662 681.8 165.022 681.8C166.462 681.8 167.242 682.56 167.242 684.4V691H168.902V684.6C168.902 682.72 170.302 681.8 171.662 681.8C173.102 681.8 173.882 682.56 173.882 684.4V691H175.542V684.52C175.542 681.48 173.902 680.36 172.022 680.36C170.722 680.36 169.162 680.96 168.442 682.32C167.902 680.92 166.722 680.36 165.382 680.36C163.882 680.36 162.742 681.16 162.262 682.14V680.54H160.602V691ZM184.005 691.18C186.885 691.18 188.765 688.98 188.765 685.78V685.62C188.765 682.36 186.745 680.36 184.005 680.36C182.485 680.36 181.065 681.28 180.465 682.3V675.54H178.805V691H180.465V689.28C181.065 690.32 182.305 691.18 184.005 691.18ZM183.845 689.8C181.805 689.8 180.405 688.54 180.405 685.86V685.7C180.405 683.02 181.885 681.74 183.825 681.74C185.585 681.74 187.045 683.06 187.045 685.7V685.86C187.045 688.4 185.925 689.8 183.845 689.8ZM195.624 691.18C197.984 691.18 199.724 690.08 200.084 687.98H198.424C198.204 689.2 197.264 689.8 195.644 689.8C193.504 689.8 192.364 688.48 192.284 686.1H200.164V685.56C200.164 681.82 197.884 680.36 195.464 680.36C192.584 680.36 190.564 682.56 190.564 685.72V685.88C190.564 689.1 192.664 691.18 195.624 691.18ZM192.344 684.76C192.624 682.9 193.764 681.74 195.464 681.74C197.184 681.74 198.304 682.6 198.464 684.76H192.344ZM202.711 691H204.371V685.26C204.371 682.68 205.711 682.02 207.811 681.92V680.36C205.931 680.42 205.031 681.24 204.371 682.42V680.54H202.711V691Z" fill="#534DAC"/>
  <path d="M104.3 627H114.64V624.94H108.56L111.74 621.84C113.44 620.2 114.54 618.58 114.54 616.72C114.54 614.2 112.78 612.5 109.82 612.5C106.8 612.5 104.92 614.3 104.74 617.42H107.18C107.42 615.4 108.32 614.58 109.74 614.58C111.12 614.58 111.88 615.42 111.88 616.76C111.88 618.12 111.06 619.38 109.7 620.82L104.3 626.52V627ZM119.203 627H121.883V612.7H119.503L116.183 615.06V617.4L119.203 615.34V627Z" fill="#35316E"/>
  <path d="M540.3 627H550.64V624.94H544.56L547.74 621.84C549.44 620.2 550.54 618.58 550.54 616.72C550.54 614.2 548.78 612.5 545.82 612.5C542.8 612.5 540.92 614.3 540.74 617.42H543.18C543.42 615.4 544.32 614.58 545.74 614.58C547.12 614.58 547.88 615.42 547.88 616.76C547.88 618.12 547.06 619.38 545.7 620.82L540.3 626.52V627ZM551.921 627H562.261V624.94H556.181L559.361 621.84C561.061 620.2 562.161 618.58 562.161 616.72C562.161 614.2 560.401 612.5 557.441 612.5C554.421 612.5 552.541 614.3 552.361 617.42H554.801C555.041 615.4 555.941 614.58 557.361 614.58C558.741 614.58 559.501 615.42 559.501 616.76C559.501 618.12 558.681 619.38 557.321 620.82L551.921 626.52V627Z" fill="#35316E"/>
  <path d="M1383.28 627H1393.62V624.94H1387.54L1390.72 621.84C1392.42 620.2 1393.52 618.58 1393.52 616.72C1393.52 614.2 1391.76 612.5 1388.8 612.5C1385.78 612.5 1383.9 614.3 1383.72 617.42H1386.16C1386.4 615.4 1387.3 614.58 1388.72 614.58C1390.1 614.58 1390.86 615.42 1390.86 616.76C1390.86 618.12 1390.04 619.38 1388.68 620.82L1383.28 626.52V627ZM1400.62 627.2C1403.9 627.2 1405.98 625.56 1405.98 622.92C1405.98 621.02 1404.88 619.84 1403.22 619.46C1404.6 618.94 1405.54 617.96 1405.54 616.34C1405.54 614.22 1403.8 612.5 1400.82 612.5C1397.76 612.5 1395.9 614.4 1395.76 616.88H1398.12C1398.28 615.44 1399.26 614.52 1400.78 614.52C1402.26 614.52 1403 615.38 1403 616.54C1403 617.88 1402.26 618.64 1400.62 618.64H1399.6V620.54H1400.7C1402.44 620.54 1403.28 621.32 1403.28 622.88C1403.28 624.3 1402.42 625.2 1400.56 625.2C1398.64 625.2 1397.8 624.08 1397.66 622.58H1395.24C1395.36 625.32 1397.22 627.2 1400.62 627.2Z" fill="#35316E"/>
  <path d="M323.8 691H325.46V678.74L332.68 691H334.68V676.7H333.02V688.52L326.06 676.7H323.8V691ZM342.493 691.18C345.473 691.18 347.653 689 347.653 685.84V685.68C347.653 682.54 345.473 680.36 342.513 680.36C339.553 680.36 337.373 682.56 337.373 685.7V685.86C337.373 688.92 339.513 691.18 342.493 691.18ZM342.513 689.8C340.393 689.8 339.093 688.24 339.093 685.86V685.7C339.093 683.3 340.413 681.74 342.513 681.74C344.593 681.74 345.933 683.3 345.933 685.72V685.86C345.933 688.22 344.613 689.8 342.513 689.8ZM352.55 691H354.67L358.43 680.54H356.71L353.65 689.32L350.55 680.54H348.75L352.55 691ZM364.601 691.18C366.961 691.18 368.701 690.08 369.061 687.98H367.401C367.181 689.2 366.241 689.8 364.621 689.8C362.481 689.8 361.341 688.48 361.261 686.1H369.141V685.56C369.141 681.82 366.861 680.36 364.441 680.36C361.561 680.36 359.541 682.56 359.541 685.72V685.88C359.541 689.1 361.641 691.18 364.601 691.18ZM361.321 684.76C361.601 682.9 362.741 681.74 364.441 681.74C366.161 681.74 367.281 682.6 367.441 684.76H361.321ZM371.688 691H373.348V684.6C373.348 682.72 374.748 681.8 376.108 681.8C377.548 681.8 378.328 682.56 378.328 684.4V691H379.988V684.6C379.988 682.72 381.388 681.8 382.748 681.8C384.188 681.8 384.968 682.56 384.968 684.4V691H386.628V684.52C386.628 681.48 384.988 680.36 383.108 680.36C381.808 680.36 380.248 680.96 379.528 682.32C378.988 680.92 377.808 680.36 376.468 680.36C374.968 680.36 373.828 681.16 373.348 682.14V680.54H371.688V691ZM395.091 691.18C397.971 691.18 399.851 688.98 399.851 685.78V685.62C399.851 682.36 397.831 680.36 395.091 680.36C393.571 680.36 392.151 681.28 391.551 682.3V675.54H389.891V691H391.551V689.28C392.151 690.32 393.391 691.18 395.091 691.18ZM394.931 689.8C392.891 689.8 391.491 688.54 391.491 685.86V685.7C391.491 683.02 392.971 681.74 394.911 681.74C396.671 681.74 398.131 683.06 398.131 685.7V685.86C398.131 688.4 397.011 689.8 394.931 689.8ZM406.71 691.18C409.07 691.18 410.81 690.08 411.17 687.98H409.51C409.29 689.2 408.35 689.8 406.73 689.8C404.59 689.8 403.45 688.48 403.37 686.1H411.25V685.56C411.25 681.82 408.97 680.36 406.55 680.36C403.67 680.36 401.65 682.56 401.65 685.72V685.88C401.65 689.1 403.75 691.18 406.71 691.18ZM403.43 684.76C403.71 682.9 404.85 681.74 406.55 681.74C408.27 681.74 409.39 682.6 409.55 684.76H403.43ZM413.797 691H415.457V685.26C415.457 682.68 416.797 682.02 418.897 681.92V680.36C417.017 680.42 416.117 681.24 415.457 682.42V680.54H413.797V691Z" fill="#534DAC"/>
  <path d="M542.76 691.18C544.94 691.18 546.72 689.98 546.72 687.12V676.7H544.98V687.04C544.98 688.96 544.08 689.76 542.66 689.76C541.8 689.76 541.28 689.58 540.76 689.36V690.8C541.14 691 541.68 691.18 542.76 691.18ZM552.698 691.18C554.238 691.18 555.178 690.66 555.958 689.68V691H557.618V684.1C557.618 681.18 555.798 680.36 553.798 680.36C551.778 680.36 549.878 681.24 549.658 683.62H551.318C551.478 682.34 552.278 681.74 553.718 681.74C555.318 681.74 555.958 682.44 555.958 684.1V684.86H554.458C551.778 684.86 549.218 685.68 549.218 688.1C549.218 690.24 550.758 691.18 552.698 691.18ZM552.858 689.86C551.398 689.86 550.878 689.18 550.878 688.1C550.878 686.56 552.418 686.04 554.518 686.04H555.958V687.34C555.958 688.96 554.618 689.86 552.858 689.86ZM560.879 691H562.539V684.66C562.539 682.78 563.919 681.8 565.459 681.8C567.139 681.8 567.919 682.62 567.919 684.46V691H569.579V684.58C569.579 681.54 568.059 680.36 565.899 680.36C564.179 680.36 563.019 681.22 562.539 682.2V680.54H560.879V691ZM576.372 691.18C578.052 691.18 579.212 690.32 579.692 689.34V691H581.352V680.54H579.692V686.88C579.692 688.76 578.292 689.74 576.812 689.74C575.172 689.74 574.392 688.92 574.392 687.08V680.54H572.732V687.16C572.732 690.04 574.292 691.18 576.372 691.18ZM587.327 691.18C588.867 691.18 589.807 690.66 590.587 689.68V691H592.247V684.1C592.247 681.18 590.427 680.36 588.427 680.36C586.407 680.36 584.507 681.24 584.287 683.62H585.947C586.107 682.34 586.907 681.74 588.347 681.74C589.947 681.74 590.587 682.44 590.587 684.1V684.86H589.087C586.407 684.86 583.847 685.68 583.847 688.1C583.847 690.24 585.387 691.18 587.327 691.18ZM587.487 689.86C586.027 689.86 585.507 689.18 585.507 688.1C585.507 686.56 587.047 686.04 589.147 686.04H590.587V687.34C590.587 688.96 589.247 689.86 587.487 689.86ZM595.508 691H597.168V685.26C597.168 682.68 598.508 682.02 600.608 681.92V680.36C598.728 680.42 597.828 681.24 597.168 682.42V680.54H595.508V691Z" fill="#534DAC"/>
  <path d="M757.8 691H759.4V678.96L764.3 691H764.84L769.58 678.96V691H771.32V676.7H768.92L764.64 687.84L760.22 676.7H757.8V691ZM777.429 691.18C778.969 691.18 779.909 690.66 780.689 689.68V691H782.349V684.1C782.349 681.18 780.529 680.36 778.529 680.36C776.509 680.36 774.609 681.24 774.389 683.62H776.049C776.209 682.34 777.009 681.74 778.449 681.74C780.049 681.74 780.689 682.44 780.689 684.1V684.86H779.189C776.509 684.86 773.949 685.68 773.949 688.1C773.949 690.24 775.489 691.18 777.429 691.18ZM777.589 689.86C776.129 689.86 775.609 689.18 775.609 688.1C775.609 686.56 777.149 686.04 779.249 686.04H780.689V687.34C780.689 688.96 779.349 689.86 777.589 689.86ZM785.61 691H787.27V685.26C787.27 682.68 788.61 682.02 790.71 681.92V680.36C788.83 680.42 787.93 681.24 787.27 682.42V680.54H785.61V691ZM796.272 691.18C798.812 691.18 800.112 689.9 800.112 688C800.112 685.78 798.592 685.3 796.432 684.9C794.512 684.56 793.992 684.18 793.992 683.24C793.992 682.34 794.772 681.74 795.972 681.74C797.292 681.74 797.932 682.24 798.172 683.38H799.772C799.492 681.12 797.872 680.36 795.992 680.36C794.352 680.36 792.452 681.36 792.452 683.3C792.452 685.12 793.372 685.88 796.092 686.38C797.712 686.68 798.532 687.04 798.532 688.14C798.532 689.26 797.832 689.8 796.252 689.8C794.572 689.8 793.912 689.02 793.792 687.78H792.172C792.272 689.92 793.772 691.18 796.272 691.18Z" fill="#534DAC"/>
  <path d="M887.8 691H889.4V678.96L894.3 691H894.84L899.58 678.96V691H901.32V676.7H898.92L894.64 687.84L890.22 676.7H887.8V691ZM907.429 691.18C908.969 691.18 909.909 690.66 910.689 689.68V691H912.349V684.1C912.349 681.18 910.529 680.36 908.529 680.36C906.509 680.36 904.609 681.24 904.389 683.62H906.049C906.209 682.34 907.009 681.74 908.449 681.74C910.049 681.74 910.689 682.44 910.689 684.1V684.86H909.189C906.509 684.86 903.949 685.68 903.949 688.1C903.949 690.24 905.489 691.18 907.429 691.18ZM907.589 689.86C906.129 689.86 905.609 689.18 905.609 688.1C905.609 686.56 907.149 686.04 909.249 686.04H910.689V687.34C910.689 688.96 909.349 689.86 907.589 689.86ZM916.45 678.36C917.05 678.36 917.55 677.86 917.55 677.26C917.55 676.66 917.05 676.16 916.45 676.16C915.85 676.16 915.35 676.66 915.35 677.26C915.35 677.86 915.85 678.36 916.45 678.36ZM915.65 691H917.31V680.54H915.65V691Z" fill="#534DAC"/>
  <line x1="759" y1="644" x2="759" y2="658" stroke="#B7B4DE" stroke-width="2"/>
  <line x1="822" y1="644" x2="822" y2="658" stroke="#B7B4DE" stroke-width="2"/>
  <line x1="887" y1="644" x2="887" y2="658" stroke="#B7B4DE" stroke-width="2"/>
  <line x1="105" y1="644" x2="105" y2="658" stroke="#B7B4DE" stroke-width="2"/>
  <line x1="214" y1="644" x2="214" y2="658" stroke="#B7B4DE" stroke-width="2"/>
  <line x1="323" y1="644" x2="323" y2="658" stroke="#B7B4DE" stroke-width="2"/>
  <line x1="432" y1="644" x2="432" y2="658" stroke="#B7B4DE" stroke-width="2"/>
  <line x1="541" y1="644" x2="541" y2="658" stroke="#B7B4DE" stroke-width="2"/>
  <line x1="650" y1="644" x2="650" y2="658" stroke="#B7B4DE" stroke-width="2"/>
  <line x1="1407" y1="644" x2="1407" y2="658" stroke="#B7B4DE" stroke-width="2"/>
  <path d="M1002.66 278H1004.05V272.88H1008.18V271.744H1004.05V267.696H1009.35V266.56H1002.66V278ZM1011.33 278H1012.67V265.632H1011.33V278ZM1018.81 278.144C1020.7 278.144 1022.09 277.264 1022.38 275.584H1021.05C1020.88 276.56 1020.13 277.04 1018.83 277.04C1017.12 277.04 1016.21 275.984 1016.14 274.08H1022.45V273.648C1022.45 270.656 1020.62 269.488 1018.69 269.488C1016.38 269.488 1014.77 271.248 1014.77 273.776V273.904C1014.77 276.48 1016.45 278.144 1018.81 278.144ZM1016.19 273.008C1016.41 271.52 1017.33 270.592 1018.69 270.592C1020.06 270.592 1020.96 271.28 1021.09 273.008H1016.19ZM1024.48 278H1025.81V273.408C1025.81 271.344 1026.88 270.816 1028.56 270.736V269.488C1027.06 269.536 1026.34 270.192 1025.81 271.136V269.632H1024.48V278ZM1033.69 278.144C1035.58 278.144 1036.97 277.264 1037.26 275.584H1035.93C1035.75 276.56 1035 277.04 1033.71 277.04C1031.99 277.04 1031.08 275.984 1031.02 274.08H1037.32V273.648C1037.32 270.656 1035.5 269.488 1033.56 269.488C1031.26 269.488 1029.64 271.248 1029.64 273.776V273.904C1029.64 276.48 1031.32 278.144 1033.69 278.144ZM1031.07 273.008C1031.29 271.52 1032.2 270.592 1033.56 270.592C1034.94 270.592 1035.83 271.28 1035.96 273.008H1031.07ZM1046.75 278.144C1047.96 278.144 1049.13 277.376 1049.61 276.56V278H1050.94V265.632H1049.61V270.976C1049.13 270.16 1048.27 269.488 1046.87 269.488C1044.57 269.488 1042.97 271.296 1042.97 273.856V273.984C1042.97 276.592 1044.55 278.144 1046.75 278.144ZM1046.89 277.04C1045.48 277.04 1044.35 276.032 1044.35 273.92V273.792C1044.35 271.76 1045.34 270.592 1047 270.592C1048.63 270.592 1049.66 271.6 1049.66 273.744V273.872C1049.66 276.016 1048.44 277.04 1046.89 277.04ZM1057.05 278.144C1058.94 278.144 1060.33 277.264 1060.62 275.584H1059.29C1059.11 276.56 1058.36 277.04 1057.07 277.04C1055.35 277.04 1054.44 275.984 1054.38 274.08H1060.68V273.648C1060.68 270.656 1058.86 269.488 1056.92 269.488C1054.62 269.488 1053 271.248 1053 273.776V273.904C1053 276.48 1054.68 278.144 1057.05 278.144ZM1054.43 273.008C1054.65 271.52 1055.56 270.592 1056.92 270.592C1058.3 270.592 1059.19 271.28 1059.32 273.008H1054.43ZM1065.39 278.144C1067.42 278.144 1068.46 277.12 1068.46 275.6C1068.46 273.824 1067.25 273.44 1065.52 273.12C1063.98 272.848 1063.57 272.544 1063.57 271.792C1063.57 271.072 1064.19 270.592 1065.15 270.592C1066.21 270.592 1066.72 270.992 1066.91 271.904H1068.19C1067.97 270.096 1066.67 269.488 1065.17 269.488C1063.85 269.488 1062.33 270.288 1062.33 271.84C1062.33 273.296 1063.07 273.904 1065.25 274.304C1066.54 274.544 1067.2 274.832 1067.2 275.712C1067.2 276.608 1066.64 277.04 1065.37 277.04C1064.03 277.04 1063.5 276.416 1063.41 275.424H1062.11C1062.19 277.136 1063.39 278.144 1065.39 278.144ZM1071.16 267.888C1071.64 267.888 1072.04 267.488 1072.04 267.008C1072.04 266.528 1071.64 266.128 1071.16 266.128C1070.68 266.128 1070.28 266.528 1070.28 267.008C1070.28 267.488 1070.68 267.888 1071.16 267.888ZM1070.52 278H1071.84V269.632H1070.52V278ZM1077.91 281.056C1080.24 281.056 1081.89 279.872 1081.91 277.44V269.632H1080.58V270.976C1080.1 270.16 1079.23 269.488 1077.84 269.488C1075.54 269.488 1073.94 271.376 1073.94 273.648V273.76C1073.94 276.064 1075.55 277.728 1077.75 277.728C1078.96 277.728 1080.1 276.96 1080.58 276.144V277.36C1080.58 279.152 1079.54 279.936 1077.89 279.936C1076.47 279.936 1075.67 279.44 1075.47 278.48H1074.11C1074.34 279.888 1075.43 281.056 1077.91 281.056ZM1077.89 276.624C1076.48 276.624 1075.31 275.536 1075.31 273.712V273.584C1075.31 271.824 1076.31 270.592 1077.97 270.592C1079.6 270.592 1080.63 271.68 1080.63 273.552V273.664C1080.63 275.536 1079.44 276.624 1077.89 276.624ZM1084.59 278H1085.92V272.928C1085.92 271.424 1087.03 270.64 1088.26 270.64C1089.6 270.64 1090.23 271.296 1090.23 272.768V278H1091.55V272.864C1091.55 270.432 1090.34 269.488 1088.61 269.488C1087.23 269.488 1086.31 270.176 1085.92 270.96V269.632H1084.59V278ZM1097.58 278.144C1099.47 278.144 1100.86 277.264 1101.15 275.584H1099.82C1099.64 276.56 1098.89 277.04 1097.6 277.04C1095.88 277.04 1094.97 275.984 1094.91 274.08H1101.21V273.648C1101.21 270.656 1099.39 269.488 1097.45 269.488C1095.15 269.488 1093.53 271.248 1093.53 273.776V273.904C1093.53 276.48 1095.21 278.144 1097.58 278.144ZM1094.96 273.008C1095.18 271.52 1096.09 270.592 1097.45 270.592C1098.83 270.592 1099.72 271.28 1099.85 273.008H1094.96ZM1103.25 278H1104.58V273.408C1104.58 271.344 1105.65 270.816 1107.33 270.736V269.488C1105.83 269.536 1105.11 270.192 1104.58 271.136V269.632H1103.25V278ZM1112.46 278.144C1114.34 278.144 1115.74 277.264 1116.02 275.584H1114.7C1114.52 276.56 1113.77 277.04 1112.47 277.04C1110.76 277.04 1109.85 275.984 1109.78 274.08H1116.09V273.648C1116.09 270.656 1114.26 269.488 1112.33 269.488C1110.02 269.488 1108.41 271.248 1108.41 273.776V273.904C1108.41 276.48 1110.09 278.144 1112.46 278.144ZM1109.83 273.008C1110.06 271.52 1110.97 270.592 1112.33 270.592C1113.7 270.592 1114.6 271.28 1114.73 273.008H1109.83Z" fill="#534DAC"/>
  <path d="M955.862 204H957.254V198.88H961.382V197.744H957.254V193.696H962.55V192.56H955.862V204ZM964.532 204H965.876V191.632H964.532V204ZM972.018 204.144C973.906 204.144 975.298 203.264 975.586 201.584H974.258C974.082 202.56 973.33 203.04 972.034 203.04C970.322 203.04 969.41 201.984 969.346 200.08H975.65V199.648C975.65 196.656 973.826 195.488 971.89 195.488C969.586 195.488 967.97 197.248 967.97 199.776V199.904C967.97 202.48 969.65 204.144 972.018 204.144ZM969.394 199.008C969.618 197.52 970.53 196.592 971.89 196.592C973.266 196.592 974.162 197.28 974.29 199.008H969.394ZM977.688 204H979.016V199.408C979.016 197.344 980.088 196.816 981.768 196.736V195.488C980.264 195.536 979.544 196.192 979.016 197.136V195.632H977.688V204ZM986.893 204.144C988.781 204.144 990.173 203.264 990.461 201.584H989.133C988.957 202.56 988.205 203.04 986.909 203.04C985.197 203.04 984.285 201.984 984.221 200.08H990.525V199.648C990.525 196.656 988.701 195.488 986.765 195.488C984.461 195.488 982.845 197.248 982.845 199.776V199.904C982.845 202.48 984.525 204.144 986.893 204.144ZM984.269 199.008C984.493 197.52 985.405 196.592 986.765 196.592C988.141 196.592 989.037 197.28 989.165 199.008H984.269ZM999.629 204.144C1000.97 204.144 1001.9 203.456 1002.29 202.672V204H1003.61V195.632H1002.29V200.704C1002.29 202.208 1001.17 202.992 999.981 202.992C998.669 202.992 998.045 202.336 998.045 200.864V195.632H996.717V200.928C996.717 203.232 997.965 204.144 999.629 204.144ZM1008.84 204.112C1009.39 204.112 1009.71 204.032 1009.98 203.936V202.816C1009.69 202.928 1009.37 202.992 1008.95 202.992C1008.28 202.992 1007.91 202.592 1007.91 201.776V196.752H1009.87V195.632H1007.91V193.728H1006.59V195.632H1005.39V196.752H1006.59V201.904C1006.59 203.216 1007.32 204.112 1008.84 204.112ZM1014.08 204H1015.78L1018.78 195.632H1017.41L1014.96 202.656L1012.48 195.632H1011.04L1014.08 204ZM1021.2 193.888C1021.68 193.888 1022.08 193.488 1022.08 193.008C1022.08 192.528 1021.68 192.128 1021.2 192.128C1020.72 192.128 1020.32 192.528 1020.32 193.008C1020.32 193.488 1020.72 193.888 1021.2 193.888ZM1020.56 204H1021.89V195.632H1020.56V204ZM1024.61 204H1025.94V199.664L1029.65 204H1031.27L1027.38 199.52L1030.96 195.632H1029.41L1025.94 199.488V191.632H1024.61V204ZM1032.89 204H1034.24V191.632H1032.89V204ZM1040.38 204.144C1042.27 204.144 1043.66 203.264 1043.95 201.584H1042.62C1042.44 202.56 1041.69 203.04 1040.39 203.04C1038.68 203.04 1037.77 201.984 1037.71 200.08H1044.01V199.648C1044.01 196.656 1042.19 195.488 1040.25 195.488C1037.95 195.488 1036.33 197.248 1036.33 199.776V199.904C1036.33 202.48 1038.01 204.144 1040.38 204.144ZM1037.75 199.008C1037.98 197.52 1038.89 196.592 1040.25 196.592C1041.63 196.592 1042.52 197.28 1042.65 199.008H1037.75ZM1046.05 204H1047.38V199.408C1047.38 197.344 1048.45 196.816 1050.13 196.736V195.488C1048.62 195.536 1047.9 196.192 1047.38 197.136V195.632H1046.05V204ZM1055.25 204.144C1057.14 204.144 1058.53 203.264 1058.82 201.584H1057.49C1057.32 202.56 1056.56 203.04 1055.27 203.04C1053.56 203.04 1052.64 201.984 1052.58 200.08H1058.88V199.648C1058.88 196.656 1057.06 195.488 1055.12 195.488C1052.82 195.488 1051.2 197.248 1051.2 199.776V199.904C1051.2 202.48 1052.88 204.144 1055.25 204.144ZM1052.63 199.008C1052.85 197.52 1053.76 196.592 1055.12 196.592C1056.5 196.592 1057.4 197.28 1057.52 199.008H1052.63Z" fill="#534DAC"/>
  <path d="M1021.76 554H1023.08L1024.18 550.704H1028.9L1030.02 554H1031.4L1027.52 542.56H1025.7L1021.76 554ZM1026.55 543.712L1028.53 549.6H1024.56L1026.55 543.712ZM1033.31 554H1034.64V548.928C1034.64 547.424 1035.74 546.64 1036.98 546.64C1038.32 546.64 1038.94 547.296 1038.94 548.768V554H1040.27V548.864C1040.27 546.432 1039.06 545.488 1037.33 545.488C1035.95 545.488 1035.02 546.176 1034.64 546.96V545.632H1033.31V554ZM1045.47 554.144C1047.5 554.144 1048.54 553.12 1048.54 551.6C1048.54 549.824 1047.32 549.44 1045.6 549.12C1044.06 548.848 1043.64 548.544 1043.64 547.792C1043.64 547.072 1044.27 546.592 1045.23 546.592C1046.28 546.592 1046.8 546.992 1046.99 547.904H1048.27C1048.04 546.096 1046.75 545.488 1045.24 545.488C1043.93 545.488 1042.41 546.288 1042.41 547.84C1042.41 549.296 1043.15 549.904 1045.32 550.304C1046.62 550.544 1047.28 550.832 1047.28 551.712C1047.28 552.608 1046.72 553.04 1045.45 553.04C1044.11 553.04 1043.58 552.416 1043.48 551.424H1042.19C1042.27 553.136 1043.47 554.144 1045.47 554.144ZM1053.99 554.144C1055.87 554.144 1057.27 553.264 1057.55 551.584H1056.23C1056.05 552.56 1055.3 553.04 1054 553.04C1052.29 553.04 1051.38 551.984 1051.31 550.08H1057.62V549.648C1057.62 546.656 1055.79 545.488 1053.86 545.488C1051.55 545.488 1049.94 547.248 1049.94 549.776V549.904C1049.94 552.48 1051.62 554.144 1053.99 554.144ZM1051.36 549.008C1051.59 547.52 1052.5 546.592 1053.86 546.592C1055.23 546.592 1056.13 547.28 1056.26 549.008H1051.36ZM1062.2 554.112C1062.74 554.112 1063.06 554.032 1063.34 553.936V552.816C1063.05 552.928 1062.73 552.992 1062.31 552.992C1061.64 552.992 1061.27 552.592 1061.27 551.776V546.752H1063.22V545.632H1061.27V543.728H1059.94V545.632H1058.74V546.752H1059.94V551.904C1059.94 553.216 1060.68 554.112 1062.2 554.112ZM1067.89 554.112C1068.43 554.112 1068.75 554.032 1069.02 553.936V552.816C1068.74 552.928 1068.42 552.992 1068 552.992C1067.33 552.992 1066.96 552.592 1066.96 551.776V546.752H1068.91V545.632H1066.96V543.728H1065.63V545.632H1064.43V546.752H1065.63V551.904C1065.63 553.216 1066.37 554.112 1067.89 554.112ZM1074.46 554.144C1076.34 554.144 1077.74 553.264 1078.02 551.584H1076.7C1076.52 552.56 1075.77 553.04 1074.47 553.04C1072.76 553.04 1071.85 551.984 1071.78 550.08H1078.09V549.648C1078.09 546.656 1076.26 545.488 1074.33 545.488C1072.02 545.488 1070.41 547.248 1070.41 549.776V549.904C1070.41 552.48 1072.09 554.144 1074.46 554.144ZM1071.83 549.008C1072.06 547.52 1072.97 546.592 1074.33 546.592C1075.7 546.592 1076.6 547.28 1076.73 549.008H1071.83ZM1089.24 554.144C1091.8 554.144 1093.62 552.848 1094.02 550.208H1092.73C1092.44 552.064 1091.14 553.008 1089.27 553.008C1086.81 553.008 1085.34 551.248 1085.34 548.336V548.208C1085.34 545.328 1086.92 543.488 1089.29 543.488C1091.24 543.488 1092.25 544.384 1092.54 546.128H1093.91C1093.67 543.648 1091.66 542.384 1089.27 542.384C1086.17 542.384 1083.9 544.832 1083.9 548.224V548.352C1083.9 551.872 1085.93 554.144 1089.24 554.144ZM1096.14 554H1099.14C1103.14 554 1104.96 551.488 1104.96 548.32V548.176C1104.96 544.992 1103.1 542.56 1099.17 542.56H1096.14V554ZM1097.54 552.864V543.68H1099.09C1102.24 543.68 1103.52 545.536 1103.52 548.176V548.304C1103.52 551.104 1102.05 552.864 1099.1 552.864H1097.54ZM1112.39 554.144C1115.72 554.144 1117.94 551.552 1117.94 548.32V548.192C1117.94 544.976 1115.72 542.416 1112.36 542.416C1109 542.416 1106.72 544.976 1106.72 548.224V548.352C1106.72 551.552 1109.01 554.144 1112.39 554.144ZM1112.39 552.992C1110 552.992 1108.16 551.104 1108.16 548.336V548.208C1108.16 545.488 1109.7 543.536 1112.36 543.536C1115 543.536 1116.5 545.616 1116.5 548.176V548.304C1116.5 551.072 1114.93 552.992 1112.39 552.992Z" fill="#534DAC"/>
  <path d="M933.709 481H935.021L936.125 477.704H940.845L941.965 481H943.341L939.469 469.56H937.645L933.709 481ZM938.493 470.712L940.477 476.6H936.509L938.493 470.712ZM945.258 481H946.586V475.928C946.586 474.424 947.69 473.64 948.922 473.64C950.266 473.64 950.89 474.296 950.89 475.768V481H952.218V475.864C952.218 473.432 951.002 472.488 949.274 472.488C947.898 472.488 946.97 473.176 946.586 473.96V472.632H945.258V481ZM957.413 481.144C959.445 481.144 960.485 480.12 960.485 478.6C960.485 476.824 959.269 476.44 957.541 476.12C956.005 475.848 955.589 475.544 955.589 474.792C955.589 474.072 956.213 473.592 957.173 473.592C958.229 473.592 958.741 473.992 958.933 474.904H960.213C959.989 473.096 958.693 472.488 957.189 472.488C955.877 472.488 954.357 473.288 954.357 474.84C954.357 476.296 955.093 476.904 957.269 477.304C958.565 477.544 959.221 477.832 959.221 478.712C959.221 479.608 958.661 480.04 957.397 480.04C956.053 480.04 955.525 479.416 955.429 478.424H954.133C954.213 480.136 955.413 481.144 957.413 481.144ZM965.932 481.144C967.82 481.144 969.212 480.264 969.5 478.584H968.172C967.996 479.56 967.244 480.04 965.948 480.04C964.236 480.04 963.324 478.984 963.26 477.08H969.564V476.648C969.564 473.656 967.74 472.488 965.804 472.488C963.5 472.488 961.884 474.248 961.884 476.776V476.904C961.884 479.48 963.564 481.144 965.932 481.144ZM963.308 476.008C963.532 474.52 964.444 473.592 965.804 473.592C967.18 473.592 968.076 474.28 968.204 476.008H963.308ZM974.146 481.112C974.69 481.112 975.01 481.032 975.282 480.936V479.816C974.994 479.928 974.674 479.992 974.258 479.992C973.586 479.992 973.218 479.592 973.218 478.776V473.752H975.17V472.632H973.218V470.728H971.89V472.632H970.69V473.752H971.89V478.904C971.89 480.216 972.626 481.112 974.146 481.112ZM979.833 481.112C980.377 481.112 980.697 481.032 980.969 480.936V479.816C980.681 479.928 980.361 479.992 979.945 479.992C979.273 479.992 978.905 479.592 978.905 478.776V473.752H980.857V472.632H978.905V470.728H977.577V472.632H976.377V473.752H977.577V478.904C977.577 480.216 978.313 481.112 979.833 481.112ZM986.401 481.144C988.289 481.144 989.681 480.264 989.969 478.584H988.641C988.465 479.56 987.713 480.04 986.417 480.04C984.705 480.04 983.793 478.984 983.729 477.08H990.033V476.648C990.033 473.656 988.209 472.488 986.273 472.488C983.969 472.488 982.353 474.248 982.353 476.776V476.904C982.353 479.48 984.033 481.144 986.401 481.144ZM983.777 476.008C984.001 474.52 984.913 473.592 986.273 473.592C987.649 473.592 988.545 474.28 988.673 476.008H983.777ZM1001.18 481.144C1003.74 481.144 1005.57 479.848 1005.97 477.208H1004.67C1004.38 479.064 1003.09 480.008 1001.22 480.008C998.753 480.008 997.281 478.248 997.281 475.336V475.208C997.281 472.328 998.865 470.488 1001.23 470.488C1003.18 470.488 1004.19 471.384 1004.48 473.128H1005.86C1005.62 470.648 1003.6 469.384 1001.22 469.384C998.113 469.384 995.841 471.832 995.841 475.224V475.352C995.841 478.872 997.873 481.144 1001.18 481.144ZM1010.28 481H1011.68V470.696H1015V469.56H1006.96V470.696H1010.28V481ZM1021.44 481.144C1024.77 481.144 1026.99 478.552 1026.99 475.32V475.192C1026.99 471.976 1024.77 469.416 1021.41 469.416C1018.05 469.416 1015.78 471.976 1015.78 475.224V475.352C1015.78 478.552 1018.07 481.144 1021.44 481.144ZM1021.44 479.992C1019.06 479.992 1017.22 478.104 1017.22 475.336V475.208C1017.22 472.488 1018.75 470.536 1021.41 470.536C1024.05 470.536 1025.55 472.616 1025.55 475.176V475.304C1025.55 478.072 1023.99 479.992 1021.44 479.992Z" fill="#534DAC"/>
  <path d="M1323.37 395H1324.76V383.56H1323.47L1320.81 385.48V386.776L1323.37 384.936V395ZM1326.98 395H1334.64V393.864H1329.12L1332.27 390.792C1333.68 389.416 1334.58 388.04 1334.58 386.632C1334.58 384.664 1333.23 383.416 1331.12 383.416C1328.94 383.416 1327.58 384.84 1327.41 387.08H1328.7C1328.93 385.288 1329.79 384.536 1331.12 384.536C1332.42 384.536 1333.17 385.304 1333.17 386.584C1333.17 387.752 1332.56 388.792 1331.52 389.896L1326.98 394.68V395ZM1344.13 395H1345.8L1349.75 383.56H1348.44L1345.03 393.656L1341.62 383.56H1340.25L1344.13 395ZM1353.11 395.144C1354.34 395.144 1355.1 394.728 1355.72 393.944V395H1357.05V389.48C1357.05 387.144 1355.59 386.488 1353.99 386.488C1352.38 386.488 1350.86 387.192 1350.68 389.096H1352.01C1352.14 388.072 1352.78 387.592 1353.93 387.592C1355.21 387.592 1355.72 388.152 1355.72 389.48V390.088H1354.52C1352.38 390.088 1350.33 390.744 1350.33 392.68C1350.33 394.392 1351.56 395.144 1353.11 395.144ZM1353.24 394.088C1352.07 394.088 1351.66 393.544 1351.66 392.68C1351.66 391.448 1352.89 391.032 1354.57 391.032H1355.72V392.072C1355.72 393.368 1354.65 394.088 1353.24 394.088ZM1359.66 395H1360.98V390.408C1360.98 388.344 1362.06 387.816 1363.74 387.736V386.488C1362.23 386.536 1361.51 387.192 1360.98 388.136V386.632H1359.66V395ZM1366.34 384.888C1366.82 384.888 1367.22 384.488 1367.22 384.008C1367.22 383.528 1366.82 383.128 1366.34 383.128C1365.86 383.128 1365.46 383.528 1365.46 384.008C1365.46 384.488 1365.86 384.888 1366.34 384.888ZM1365.7 395H1367.03V386.632H1365.7V395ZM1371.85 395.144C1373.08 395.144 1373.83 394.728 1374.45 393.944V395H1375.78V389.48C1375.78 387.144 1374.33 386.488 1372.73 386.488C1371.11 386.488 1369.59 387.192 1369.41 389.096H1370.74C1370.87 388.072 1371.51 387.592 1372.66 387.592C1373.94 387.592 1374.45 388.152 1374.45 389.48V390.088H1373.25C1371.11 390.088 1369.06 390.744 1369.06 392.68C1369.06 394.392 1370.29 395.144 1371.85 395.144ZM1371.97 394.088C1370.81 394.088 1370.39 393.544 1370.39 392.68C1370.39 391.448 1371.62 391.032 1373.3 391.032H1374.45V392.072C1374.45 393.368 1373.38 394.088 1371.97 394.088ZM1378.39 395H1379.72V389.928C1379.72 388.424 1380.82 387.64 1382.05 387.64C1383.4 387.64 1384.02 388.296 1384.02 389.768V395H1385.35V389.864C1385.35 387.432 1384.13 386.488 1382.41 386.488C1381.03 386.488 1380.1 387.176 1379.72 387.96V386.632H1378.39V395ZM1390.5 395.112C1391.04 395.112 1391.36 395.032 1391.63 394.936V393.816C1391.35 393.928 1391.03 393.992 1390.61 393.992C1389.94 393.992 1389.57 393.592 1389.57 392.776V387.752H1391.52V386.632H1389.57V384.728H1388.24V386.632H1387.04V387.752H1388.24V392.904C1388.24 394.216 1388.98 395.112 1390.5 395.112ZM1397.06 395.144C1398.95 395.144 1400.34 394.264 1400.63 392.584H1399.3C1399.13 393.56 1398.38 394.04 1397.08 394.04C1395.37 394.04 1394.46 392.984 1394.39 391.08H1400.7V390.648C1400.7 387.656 1398.87 386.488 1396.94 386.488C1394.63 386.488 1393.02 388.248 1393.02 390.776V390.904C1393.02 393.48 1394.7 395.144 1397.06 395.144ZM1394.44 390.008C1394.66 388.52 1395.58 387.592 1396.94 387.592C1398.31 387.592 1399.21 388.28 1399.34 390.008H1394.44ZM1402.73 395H1404.06V390.408C1404.06 388.344 1405.13 387.816 1406.81 387.736V386.488C1405.31 386.536 1404.59 387.192 1404.06 388.136V386.632H1402.73V395ZM1413.66 384.888C1414.14 384.888 1414.54 384.488 1414.54 384.008C1414.54 383.528 1414.14 383.128 1413.66 383.128C1413.18 383.128 1412.78 383.528 1412.78 384.008C1412.78 384.488 1413.18 384.888 1413.66 384.888ZM1413.02 395H1414.34V386.632H1413.02V395ZM1342.68 416H1346.6C1348.89 416 1350.36 414.96 1350.36 412.8V412.736C1350.36 411.248 1349.74 410.4 1348.07 410C1349.39 409.552 1349.8 408.624 1349.8 407.584V407.52C1349.8 405.264 1348.25 404.56 1346.12 404.56H1342.68V416ZM1344.04 409.552V405.648H1346.09C1347.69 405.648 1348.44 406.176 1348.44 407.472V407.536C1348.44 408.944 1347.8 409.552 1346.12 409.552H1344.04ZM1344.04 414.912V410.64H1346.38C1348.22 410.64 1349 411.312 1349 412.72V412.784C1349 414.176 1348.23 414.912 1346.57 414.912H1344.04ZM1355.96 416.144C1357.85 416.144 1359.24 415.264 1359.53 413.584H1358.2C1358.03 414.56 1357.28 415.04 1355.98 415.04C1354.27 415.04 1353.36 413.984 1353.29 412.08H1359.6V411.648C1359.6 408.656 1357.77 407.488 1355.84 407.488C1353.53 407.488 1351.92 409.248 1351.92 411.776V411.904C1351.92 414.48 1353.6 416.144 1355.96 416.144ZM1353.34 411.008C1353.56 409.52 1354.48 408.592 1355.84 408.592C1357.21 408.592 1358.11 409.28 1358.24 411.008H1353.34ZM1361.63 416H1362.96V411.408C1362.96 409.344 1364.03 408.816 1365.71 408.736V407.488C1364.21 407.536 1363.49 408.192 1362.96 409.136V407.632H1361.63V416ZM1370.76 419.056C1373.09 419.056 1374.74 417.872 1374.76 415.44V407.632H1373.43V408.976C1372.95 408.16 1372.09 407.488 1370.69 407.488C1368.39 407.488 1366.79 409.376 1366.79 411.648V411.76C1366.79 414.064 1368.41 415.728 1370.6 415.728C1371.81 415.728 1372.95 414.96 1373.43 414.144V415.36C1373.43 417.152 1372.39 417.936 1370.74 417.936C1369.32 417.936 1368.52 417.44 1368.33 416.48H1366.97C1367.19 417.888 1368.28 419.056 1370.76 419.056ZM1370.74 414.624C1369.33 414.624 1368.17 413.536 1368.17 411.712V411.584C1368.17 409.824 1369.16 408.592 1370.82 408.592C1372.45 408.592 1373.48 409.68 1373.48 411.552V411.664C1373.48 413.536 1372.29 414.624 1370.74 414.624ZM1380.87 416.144C1382.76 416.144 1384.15 415.264 1384.44 413.584H1383.11C1382.93 414.56 1382.18 415.04 1380.89 415.04C1379.17 415.04 1378.26 413.984 1378.2 412.08H1384.5V411.648C1384.5 408.656 1382.68 407.488 1380.74 407.488C1378.44 407.488 1376.82 409.248 1376.82 411.776V411.904C1376.82 414.48 1378.5 416.144 1380.87 416.144ZM1378.25 411.008C1378.47 409.52 1379.38 408.592 1380.74 408.592C1382.12 408.592 1383.01 409.28 1383.14 411.008H1378.25ZM1386.54 416H1387.87V410.928C1387.87 409.424 1388.97 408.64 1390.2 408.64C1391.55 408.64 1392.17 409.296 1392.17 410.768V416H1393.5V410.864C1393.5 408.432 1392.28 407.488 1390.56 407.488C1389.18 407.488 1388.25 408.176 1387.87 408.96V407.632H1386.54V416Z" fill="#E61A6B"/>
  <path d="M1160.82 231H1162.21V225.88H1166.34V224.744H1162.21V220.696H1167.5V219.56H1160.82V231ZM1169.49 231H1170.83V218.632H1169.49V231ZM1176.97 231.144C1178.86 231.144 1180.25 230.264 1180.54 228.584H1179.21C1179.04 229.56 1178.28 230.04 1176.99 230.04C1175.28 230.04 1174.36 228.984 1174.3 227.08H1180.6V226.648C1180.6 223.656 1178.78 222.488 1176.84 222.488C1174.54 222.488 1172.92 224.248 1172.92 226.776V226.904C1172.92 229.48 1174.6 231.144 1176.97 231.144ZM1174.35 226.008C1174.57 224.52 1175.48 223.592 1176.84 223.592C1178.22 223.592 1179.12 224.28 1179.24 226.008H1174.35ZM1182.64 231H1183.97V226.408C1183.97 224.344 1185.04 223.816 1186.72 223.736V222.488C1185.22 222.536 1184.5 223.192 1183.97 224.136V222.632H1182.64V231ZM1191.85 231.144C1193.73 231.144 1195.13 230.264 1195.41 228.584H1194.09C1193.91 229.56 1193.16 230.04 1191.86 230.04C1190.15 230.04 1189.24 228.984 1189.17 227.08H1195.48V226.648C1195.48 223.656 1193.65 222.488 1191.72 222.488C1189.41 222.488 1187.8 224.248 1187.8 226.776V226.904C1187.8 229.48 1189.48 231.144 1191.85 231.144ZM1189.22 226.008C1189.45 224.52 1190.36 223.592 1191.72 223.592C1193.09 223.592 1193.99 224.28 1194.12 226.008H1189.22ZM1201.75 231H1203.08V226.664L1206.79 231H1208.41L1204.52 226.52L1208.1 222.632H1206.55L1203.08 226.488V218.632H1201.75V231ZM1212.6 231.144C1213.94 231.144 1214.87 230.456 1215.25 229.672V231H1216.58V222.632H1215.25V227.704C1215.25 229.208 1214.13 229.992 1212.95 229.992C1211.64 229.992 1211.01 229.336 1211.01 227.864V222.632H1209.69V227.928C1209.69 230.232 1210.93 231.144 1212.6 231.144ZM1219.27 231H1220.59V225.928C1220.59 224.424 1221.7 223.64 1222.93 223.64C1224.27 223.64 1224.9 224.296 1224.9 225.768V231H1226.23V225.864C1226.23 223.432 1225.01 222.488 1223.28 222.488C1221.91 222.488 1220.98 223.176 1220.59 223.96V222.632H1219.27V231ZM1231.98 231.144C1233.2 231.144 1234.36 230.376 1234.84 229.56V231H1236.17V218.632H1234.84V223.976C1234.36 223.16 1233.5 222.488 1232.11 222.488C1229.8 222.488 1228.2 224.296 1228.2 226.856V226.984C1228.2 229.592 1229.79 231.144 1231.98 231.144ZM1232.12 230.04C1230.72 230.04 1229.58 229.032 1229.58 226.92V226.792C1229.58 224.76 1230.57 223.592 1232.24 223.592C1233.87 223.592 1234.89 224.6 1234.89 226.744V226.872C1234.89 229.016 1233.68 230.04 1232.12 230.04ZM1242.28 231.144C1244.17 231.144 1245.56 230.264 1245.85 228.584H1244.52C1244.35 229.56 1243.6 230.04 1242.3 230.04C1240.59 230.04 1239.68 228.984 1239.61 227.08H1245.92V226.648C1245.92 223.656 1244.09 222.488 1242.16 222.488C1239.85 222.488 1238.24 224.248 1238.24 226.776V226.904C1238.24 229.48 1239.92 231.144 1242.28 231.144ZM1239.66 226.008C1239.88 224.52 1240.8 223.592 1242.16 223.592C1243.53 223.592 1244.43 224.28 1244.56 226.008H1239.66ZM1247.95 231H1249.28V226.408C1249.28 224.344 1250.35 223.816 1252.03 223.736V222.488C1250.53 222.536 1249.81 223.192 1249.28 224.136V222.632H1247.95V231Z" fill="#534DAC"/>
  <path d="M1074.59 356H1076.26L1080.21 344.56H1078.9L1075.49 354.656L1072.08 344.56H1070.71L1074.59 356ZM1083.57 356.144C1084.8 356.144 1085.56 355.728 1086.18 354.944V356H1087.51V350.48C1087.51 348.144 1086.05 347.488 1084.45 347.488C1082.84 347.488 1081.32 348.192 1081.14 350.096H1082.47C1082.6 349.072 1083.24 348.592 1084.39 348.592C1085.67 348.592 1086.18 349.152 1086.18 350.48V351.088H1084.98C1082.84 351.088 1080.79 351.744 1080.79 353.68C1080.79 355.392 1082.02 356.144 1083.57 356.144ZM1083.7 355.088C1082.53 355.088 1082.12 354.544 1082.12 353.68C1082.12 352.448 1083.35 352.032 1085.03 352.032H1086.18V353.072C1086.18 354.368 1085.11 355.088 1083.7 355.088ZM1090.12 356H1091.45V351.408C1091.45 349.344 1092.52 348.816 1094.2 348.736V347.488C1092.69 347.536 1091.97 348.192 1091.45 349.136V347.632H1090.12V356ZM1096.81 345.888C1097.29 345.888 1097.69 345.488 1097.69 345.008C1097.69 344.528 1097.29 344.128 1096.81 344.128C1096.33 344.128 1095.93 344.528 1095.93 345.008C1095.93 345.488 1096.33 345.888 1096.81 345.888ZM1096.17 356H1097.49V347.632H1096.17V356ZM1102.31 356.144C1103.54 356.144 1104.29 355.728 1104.92 354.944V356H1106.24V350.48C1106.24 348.144 1104.79 347.488 1103.19 347.488C1101.57 347.488 1100.05 348.192 1099.88 350.096H1101.2C1101.33 349.072 1101.97 348.592 1103.12 348.592C1104.4 348.592 1104.92 349.152 1104.92 350.48V351.088H1103.72C1101.57 351.088 1099.52 351.744 1099.52 353.68C1099.52 355.392 1100.76 356.144 1102.31 356.144ZM1102.44 355.088C1101.27 355.088 1100.85 354.544 1100.85 353.68C1100.85 352.448 1102.08 352.032 1103.76 352.032H1104.92V353.072C1104.92 354.368 1103.84 355.088 1102.44 355.088ZM1108.85 356H1110.18V350.928C1110.18 349.424 1111.28 348.64 1112.52 348.64C1113.86 348.64 1114.48 349.296 1114.48 350.768V356H1115.81V350.864C1115.81 348.432 1114.6 347.488 1112.87 347.488C1111.49 347.488 1110.56 348.176 1110.18 348.96V347.632H1108.85V356ZM1120.96 356.112C1121.5 356.112 1121.82 356.032 1122.09 355.936V354.816C1121.81 354.928 1121.49 354.992 1121.07 354.992C1120.4 354.992 1120.03 354.592 1120.03 353.776V348.752H1121.98V347.632H1120.03V345.728H1118.7V347.632H1117.5V348.752H1118.7V353.904C1118.7 355.216 1119.44 356.112 1120.96 356.112ZM1126.65 356.112C1127.19 356.112 1127.51 356.032 1127.78 355.936V354.816C1127.49 354.928 1127.17 354.992 1126.76 354.992C1126.09 354.992 1125.72 354.592 1125.72 353.776V348.752H1127.67V347.632H1125.72V345.728H1124.39V347.632H1123.19V348.752H1124.39V353.904C1124.39 355.216 1125.13 356.112 1126.65 356.112ZM1132.62 356.144C1133.97 356.144 1134.89 355.456 1135.28 354.672V356H1136.61V347.632H1135.28V352.704C1135.28 354.208 1134.16 354.992 1132.97 354.992C1131.66 354.992 1131.04 354.336 1131.04 352.864V347.632H1129.71V352.928C1129.71 355.232 1130.96 356.144 1132.62 356.144ZM1139.29 356H1140.62V351.408C1140.62 349.344 1141.69 348.816 1143.37 348.736V347.488C1141.87 347.536 1141.15 348.192 1140.62 349.136V347.632H1139.29V356ZM1149.54 356H1150.87V350.88C1150.87 349.376 1151.99 348.64 1153.08 348.64C1154.23 348.64 1154.85 349.248 1154.85 350.72V356H1156.18V350.88C1156.18 349.376 1157.3 348.64 1158.39 348.64C1159.54 348.64 1160.16 349.248 1160.16 350.72V356H1161.49V350.816C1161.49 348.384 1160.18 347.488 1158.68 347.488C1157.64 347.488 1156.39 347.968 1155.81 349.056C1155.38 347.936 1154.44 347.488 1153.36 347.488C1152.16 347.488 1151.25 348.128 1150.87 348.912V347.632H1149.54V356ZM1167.53 356.144C1169.41 356.144 1170.81 355.264 1171.09 353.584H1169.77C1169.59 354.56 1168.84 355.04 1167.54 355.04C1165.83 355.04 1164.92 353.984 1164.85 352.08H1171.16V351.648C1171.16 348.656 1169.33 347.488 1167.4 347.488C1165.09 347.488 1163.48 349.248 1163.48 351.776V351.904C1163.48 354.48 1165.16 356.144 1167.53 356.144ZM1164.9 351.008C1165.13 349.52 1166.04 348.592 1167.4 348.592C1168.77 348.592 1169.67 349.28 1169.8 351.008H1164.9ZM1176.35 356.144C1177.56 356.144 1178.73 355.376 1179.21 354.56V356H1180.54V343.632H1179.21V348.976C1178.73 348.16 1177.87 347.488 1176.48 347.488C1174.17 347.488 1172.57 349.296 1172.57 351.856V351.984C1172.57 354.592 1174.16 356.144 1176.35 356.144ZM1176.49 355.04C1175.08 355.04 1173.95 354.032 1173.95 351.92V351.792C1173.95 349.76 1174.94 348.592 1176.6 348.592C1178.24 348.592 1179.26 349.6 1179.26 351.744V351.872C1179.26 354.016 1178.04 355.04 1176.49 355.04ZM1189.91 356H1191.3V345.696H1194.63V344.56H1186.58V345.696H1189.91V356ZM1195.79 356H1197.12V351.408C1197.12 349.344 1198.19 348.816 1199.87 348.736V347.488C1198.37 347.536 1197.65 348.192 1197.12 349.136V347.632H1195.79V356ZM1205.04 356.144C1207.43 356.144 1209.17 354.4 1209.17 351.872V351.744C1209.17 349.232 1207.43 347.488 1205.06 347.488C1202.69 347.488 1200.95 349.248 1200.95 351.76V351.888C1200.95 354.336 1202.66 356.144 1205.04 356.144ZM1205.06 355.04C1203.36 355.04 1202.32 353.792 1202.32 351.888V351.76C1202.32 349.84 1203.38 348.592 1205.06 348.592C1206.72 348.592 1207.79 349.84 1207.79 351.776V351.888C1207.79 353.776 1206.74 355.04 1205.06 355.04ZM1211.23 356H1212.55V350.928C1212.55 349.424 1213.66 348.64 1214.89 348.64C1216.23 348.64 1216.86 349.296 1216.86 350.768V356H1218.19V350.864C1218.19 348.432 1216.97 347.488 1215.24 347.488C1213.87 347.488 1212.94 348.176 1212.55 348.96V347.632H1211.23V356ZM1223.94 356.144C1225.16 356.144 1226.33 355.376 1226.81 354.56V356H1228.13V343.632H1226.81V348.976C1226.33 348.16 1225.46 347.488 1224.07 347.488C1221.77 347.488 1220.17 349.296 1220.17 351.856V351.984C1220.17 354.592 1221.75 356.144 1223.94 356.144ZM1224.09 355.04C1222.68 355.04 1221.54 354.032 1221.54 351.92V351.792C1221.54 349.76 1222.53 348.592 1224.2 348.592C1225.83 348.592 1226.85 349.6 1226.85 351.744V351.872C1226.85 354.016 1225.64 355.04 1224.09 355.04ZM1230.82 356H1232.15V350.928C1232.15 349.424 1233.25 348.64 1234.48 348.64C1235.83 348.64 1236.45 349.296 1236.45 350.768V356H1237.78V350.864C1237.78 348.432 1236.56 347.488 1234.84 347.488C1233.46 347.488 1232.53 348.176 1232.15 348.96V343.632H1230.82V356ZM1243.81 356.144C1245.7 356.144 1247.09 355.264 1247.38 353.584H1246.05C1245.87 354.56 1245.12 355.04 1243.82 355.04C1242.11 355.04 1241.2 353.984 1241.14 352.08H1247.44V351.648C1247.44 348.656 1245.62 347.488 1243.68 347.488C1241.38 347.488 1239.76 349.248 1239.76 351.776V351.904C1239.76 354.48 1241.44 356.144 1243.81 356.144ZM1241.18 351.008C1241.41 349.52 1242.32 348.592 1243.68 348.592C1245.06 348.592 1245.95 349.28 1246.08 351.008H1241.18ZM1250.15 345.888C1250.63 345.888 1251.03 345.488 1251.03 345.008C1251.03 344.528 1250.63 344.128 1250.15 344.128C1249.67 344.128 1249.27 344.528 1249.27 345.008C1249.27 345.488 1249.67 345.888 1250.15 345.888ZM1249.51 356H1250.84V347.632H1249.51V356ZM1253.55 356H1254.88V350.88C1254.88 349.376 1256 348.64 1257.09 348.64C1258.24 348.64 1258.87 349.248 1258.87 350.72V356H1260.19V350.88C1260.19 349.376 1261.31 348.64 1262.4 348.64C1263.55 348.64 1264.18 349.248 1264.18 350.72V356H1265.51V350.816C1265.51 348.384 1264.19 347.488 1262.69 347.488C1261.65 347.488 1260.4 347.968 1259.83 349.056C1259.39 347.936 1258.45 347.488 1257.38 347.488C1256.18 347.488 1255.27 348.128 1254.88 348.912V347.632H1253.55V356Z" fill="#534DAC"/>
  <path d="M1098.82 445H1105.78V443.864H1100.21V439.72H1104.47V438.584H1100.21V434.696H1105.49V433.56H1098.82V445ZM1111.13 448.056C1113.47 448.056 1115.12 446.872 1115.13 444.44V436.632H1113.81V437.976C1113.33 437.16 1112.46 436.488 1111.07 436.488C1108.77 436.488 1107.17 438.376 1107.17 440.648V440.76C1107.17 443.064 1108.78 444.728 1110.97 444.728C1112.19 444.728 1113.33 443.96 1113.81 443.144V444.36C1113.81 446.152 1112.77 446.936 1111.12 446.936C1109.69 446.936 1108.89 446.44 1108.7 445.48H1107.34C1107.57 446.888 1108.65 448.056 1111.13 448.056ZM1111.12 443.624C1109.71 443.624 1108.54 442.536 1108.54 440.712V440.584C1108.54 438.824 1109.53 437.592 1111.2 437.592C1112.83 437.592 1113.85 438.68 1113.85 440.552V440.664C1113.85 442.536 1112.67 443.624 1111.12 443.624ZM1117.82 445H1119.15V439.928C1119.15 438.424 1120.25 437.64 1121.48 437.64C1122.83 437.64 1123.45 438.296 1123.45 439.768V445H1124.78V439.864C1124.78 437.432 1123.56 436.488 1121.84 436.488C1120.46 436.488 1119.53 437.176 1119.15 437.96V436.632H1117.82V445ZM1130.81 445.144C1132.7 445.144 1134.09 444.264 1134.38 442.584H1133.05C1132.87 443.56 1132.12 444.04 1130.82 444.04C1129.11 444.04 1128.2 442.984 1128.14 441.08H1134.44V440.648C1134.44 437.656 1132.62 436.488 1130.68 436.488C1128.38 436.488 1126.76 438.248 1126.76 440.776V440.904C1126.76 443.48 1128.44 445.144 1130.81 445.144ZM1128.18 440.008C1128.41 438.52 1129.32 437.592 1130.68 437.592C1132.06 437.592 1132.95 438.28 1133.08 440.008H1128.18ZM1142.81 445H1144.5L1147.51 436.632H1146.14L1143.69 443.656L1141.21 436.632H1139.77L1142.81 445ZM1151.28 445.144C1152.51 445.144 1153.26 444.728 1153.88 443.944V445H1155.21V439.48C1155.21 437.144 1153.76 436.488 1152.16 436.488C1150.54 436.488 1149.02 437.192 1148.84 439.096H1150.17C1150.3 438.072 1150.94 437.592 1152.09 437.592C1153.37 437.592 1153.88 438.152 1153.88 439.48V440.088H1152.68C1150.54 440.088 1148.49 440.744 1148.49 442.68C1148.49 444.392 1149.72 445.144 1151.28 445.144ZM1151.4 444.088C1150.24 444.088 1149.82 443.544 1149.82 442.68C1149.82 441.448 1151.05 441.032 1152.73 441.032H1153.88V442.072C1153.88 443.368 1152.81 444.088 1151.4 444.088ZM1157.82 445H1159.15V440.408C1159.15 438.344 1160.22 437.816 1161.9 437.736V436.488C1160.4 436.536 1159.68 437.192 1159.15 438.136V436.632H1157.82V445ZM1164.51 434.888C1164.99 434.888 1165.39 434.488 1165.39 434.008C1165.39 433.528 1164.99 433.128 1164.51 433.128C1164.03 433.128 1163.63 433.528 1163.63 434.008C1163.63 434.488 1164.03 434.888 1164.51 434.888ZM1163.87 445H1165.2V436.632H1163.87V445ZM1170.01 445.144C1171.24 445.144 1171.99 444.728 1172.62 443.944V445H1173.95V439.48C1173.95 437.144 1172.49 436.488 1170.89 436.488C1169.27 436.488 1167.75 437.192 1167.58 439.096H1168.91C1169.03 438.072 1169.67 437.592 1170.83 437.592C1172.11 437.592 1172.62 438.152 1172.62 439.48V440.088H1171.42C1169.27 440.088 1167.23 440.744 1167.23 442.68C1167.23 444.392 1168.46 445.144 1170.01 445.144ZM1170.14 444.088C1168.97 444.088 1168.55 443.544 1168.55 442.68C1168.55 441.448 1169.79 441.032 1171.47 441.032H1172.62V442.072C1172.62 443.368 1171.55 444.088 1170.14 444.088ZM1176.55 445H1177.88V439.928C1177.88 438.424 1178.99 437.64 1180.22 437.64C1181.56 437.64 1182.19 438.296 1182.19 439.768V445H1183.51V439.864C1183.51 437.432 1182.3 436.488 1180.57 436.488C1179.19 436.488 1178.27 437.176 1177.88 437.96V436.632H1176.55V445ZM1188.66 445.112C1189.21 445.112 1189.53 445.032 1189.8 444.936V443.816C1189.51 443.928 1189.19 443.992 1188.77 443.992C1188.1 443.992 1187.73 443.592 1187.73 442.776V437.752H1189.69V436.632H1187.73V434.728H1186.41V436.632H1185.21V437.752H1186.41V442.904C1186.41 444.216 1187.14 445.112 1188.66 445.112ZM1191.42 441.224H1194.84V439.976H1191.42V441.224ZM1200.3 445.144C1201.52 445.144 1202.68 444.376 1203.16 443.56V445H1204.49V432.632H1203.16V437.976C1202.68 437.16 1201.82 436.488 1200.43 436.488C1198.12 436.488 1196.52 438.296 1196.52 440.856V440.984C1196.52 443.592 1198.11 445.144 1200.3 445.144ZM1200.44 444.04C1199.04 444.04 1197.9 443.032 1197.9 440.92V440.792C1197.9 438.76 1198.89 437.592 1200.56 437.592C1202.19 437.592 1203.21 438.6 1203.21 440.744V440.872C1203.21 443.016 1202 444.04 1200.44 444.04ZM1209.28 445.144C1210.51 445.144 1211.26 444.728 1211.88 443.944V445H1213.21V439.48C1213.21 437.144 1211.76 436.488 1210.16 436.488C1208.54 436.488 1207.02 437.192 1206.84 439.096H1208.17C1208.3 438.072 1208.94 437.592 1210.09 437.592C1211.37 437.592 1211.88 438.152 1211.88 439.48V440.088H1210.68C1208.54 440.088 1206.49 440.744 1206.49 442.68C1206.49 444.392 1207.72 445.144 1209.28 445.144ZM1209.4 444.088C1208.24 444.088 1207.82 443.544 1207.82 442.68C1207.82 441.448 1209.05 441.032 1210.73 441.032H1211.88V442.072C1211.88 443.368 1210.81 444.088 1209.4 444.088ZM1219.16 448.056C1221.5 448.056 1223.15 446.872 1223.16 444.44V436.632H1221.84V437.976C1221.36 437.16 1220.49 436.488 1219.1 436.488C1216.8 436.488 1215.2 438.376 1215.2 440.648V440.76C1215.2 443.064 1216.81 444.728 1219 444.728C1220.22 444.728 1221.36 443.96 1221.84 443.144V444.36C1221.84 446.152 1220.8 446.936 1219.15 446.936C1217.72 446.936 1216.92 446.44 1216.73 445.48H1215.37C1215.6 446.888 1216.68 448.056 1219.16 448.056ZM1219.15 443.624C1217.74 443.624 1216.57 442.536 1216.57 440.712V440.584C1216.57 438.824 1217.56 437.592 1219.23 437.592C1220.86 437.592 1221.88 438.68 1221.88 440.552V440.664C1221.88 442.536 1220.7 443.624 1219.15 443.624ZM1229.28 445.144C1231.16 445.144 1232.56 444.264 1232.84 442.584H1231.52C1231.34 443.56 1230.59 444.04 1229.29 444.04C1227.58 444.04 1226.67 442.984 1226.6 441.08H1232.91V440.648C1232.91 437.656 1231.08 436.488 1229.15 436.488C1226.84 436.488 1225.23 438.248 1225.23 440.776V440.904C1225.23 443.48 1226.91 445.144 1229.28 445.144ZM1226.65 440.008C1226.88 438.52 1227.79 437.592 1229.15 437.592C1230.52 437.592 1231.42 438.28 1231.55 440.008H1226.65ZM1234.95 445H1236.27V440.408C1236.27 438.344 1237.35 437.816 1239.03 437.736V436.488C1237.52 436.536 1236.8 437.192 1236.27 438.136V436.632H1234.95V445Z" fill="#534DAC"/>
  <path d="M102.379 398.061C101.464 398.68 101.225 399.923 101.843 400.838C102.462 401.753 103.706 401.993 104.621 401.374L102.379 398.061ZM590.5 93.5L591.468 95.2499L590.5 93.5ZM590.5 209.5L591.941 208.113L590.5 209.5ZM976.919 347.127C977.697 346.343 977.693 345.077 976.909 344.299L964.137 331.615C963.353 330.837 962.087 330.841 961.309 331.625C960.53 332.409 960.535 333.675 961.319 334.453L972.672 345.728L961.397 357.081C960.619 357.864 960.623 359.131 961.407 359.909C962.191 360.687 963.457 360.683 964.236 359.899L976.919 347.127ZM104.621 401.374C146.524 373.027 195.755 373.091 244.977 373.655C293.941 374.216 343.012 375.29 383.129 347.869L380.871 344.566C341.988 371.145 294.309 370.22 245.023 369.655C195.995 369.094 145.476 368.908 102.379 398.061L104.621 401.374ZM383.129 347.869C422.382 321.037 454.346 313.565 479.451 318.185C504.518 322.797 523.203 339.552 535.751 362.187L539.249 360.248C526.297 336.883 506.732 319.138 480.174 314.251C453.654 309.37 420.618 317.398 380.871 344.566L383.129 347.869ZM535.751 362.187C541.983 373.429 546.308 387.889 549.607 403.315C552.902 418.727 555.142 434.948 557.271 449.691C559.389 464.361 561.408 477.672 564.275 487.03C565.703 491.691 567.406 495.602 569.597 498.227C571.875 500.955 574.825 502.425 578.41 501.675L577.59 497.76C575.8 498.135 574.25 497.558 572.668 495.663C571 493.665 569.484 490.377 568.1 485.858C565.342 476.857 563.361 463.886 561.229 449.119C559.108 434.425 556.848 418.052 553.518 402.479C550.192 386.921 545.767 372.006 539.249 360.248L535.751 362.187ZM578.41 501.675C581.394 501.05 587.22 498.602 594.887 494.704C602.638 490.763 612.471 485.237 623.56 478.301C645.737 464.432 672.998 444.893 698.733 421.077C750.076 373.561 795.927 308.461 781.963 237.116L778.037 237.884C791.573 307.04 747.174 370.797 696.017 418.141C670.502 441.754 643.45 461.144 621.44 474.91C610.435 481.792 600.706 487.258 593.074 491.138C585.358 495.061 579.981 497.26 577.59 497.76L578.41 501.675ZM781.963 237.116C754.287 95.7183 642.58 62.3931 589.532 91.7501L591.468 95.2499C641.42 67.6069 750.713 98.2819 778.037 237.884L781.963 237.116ZM589.532 91.7501C562.644 106.629 551.571 125.426 553.033 146.354C554.475 166.994 568.099 189.112 589.059 210.887L591.941 208.113C571.173 186.538 558.365 165.283 557.023 146.075C555.701 127.154 565.491 109.626 591.468 95.2499L589.532 91.7501ZM589.059 210.887C679.58 304.928 831.707 348.219 975.507 347.718L975.493 343.718C832.293 344.217 681.42 301.072 591.941 208.113L589.059 210.887Z" fill="#B7B4DE"/>
  <path fill-rule="evenodd" clip-rule="evenodd" d="M536.61 351.305C542.715 350.832 549.183 352.227 553.114 356.381C557.134 360.63 557.831 366.612 556.138 371.944C554.543 376.964 549.961 380.483 544.705 382.855C539.249 385.317 532.566 387.812 527.392 384.914C522.469 382.156 523.853 375.839 523.072 370.736C522.43 366.547 520.868 362.285 523.377 358.685C526.253 354.556 531.142 351.729 536.61 351.305Z" fill="#534DAC"/>
  <path fill-rule="evenodd" clip-rule="evenodd" d="M267.571 353.183C272.766 352.86 278.409 352.521 282.096 356.362C286.211 360.648 287.805 367.077 286.617 373.022C285.403 379.095 281.469 384.374 276.011 386.803C270.819 389.113 264.878 387.872 260.031 384.851C255.698 382.151 253.372 377.273 252.413 372.094C251.5 367.164 251.983 361.896 255.068 358.047C258.073 354.298 262.901 353.475 267.571 353.183Z" fill="#534DAC"/>
  <path fill-rule="evenodd" clip-rule="evenodd" d="M584.087 481.445C588.982 482.536 590.422 488.625 593.245 492.842C595.257 495.845 597.734 498.541 597.964 502.169C598.209 506.036 597.209 510.054 594.509 512.784C591.817 515.507 587.879 516.086 584.087 516.203C580.138 516.326 576.314 515.656 573.012 513.449C568.703 510.569 563.735 507.376 563.087 502.169C562.4 496.642 565.87 491.494 569.798 487.617C573.661 483.805 578.833 480.275 584.087 481.445Z" fill="#534DAC"/>
  <path fill-rule="evenodd" clip-rule="evenodd" d="M620.535 213.086C626.629 213.617 630.839 218.166 634.094 222.697C636.827 226.501 637.629 230.943 636.514 235.328C635.39 239.75 632.745 243.856 628.172 245.994C623.36 248.245 617.367 248.855 612.617 246.504C608.134 244.286 607.568 239.329 606.025 235.035C604.191 229.929 600.029 224.626 603.093 219.992C606.451 214.911 613.852 212.502 620.535 213.086Z" fill="#534DAC"/>
  <path fill-rule="evenodd" clip-rule="evenodd" d="M884.141 321.242C889.18 321.315 894.394 321.833 897.879 325.614C901.747 329.811 903.785 335.696 902.718 341.4C901.612 347.315 897.721 352.406 892.414 354.841C887.299 357.188 881.318 356.415 876.527 353.418C872.223 350.726 870.638 345.55 869.449 340.478C868.229 335.273 866.71 329.407 869.915 325.21C873.126 321.006 878.976 321.167 884.141 321.242Z" fill="#534DAC"/>
  <path d="M204.979 418H206.307V408.192L212.083 418H213.683V406.56H212.355V416.016L206.787 406.56H204.979V418ZM219.885 418.144C221.773 418.144 223.165 417.264 223.453 415.584H222.125C221.949 416.56 221.197 417.04 219.901 417.04C218.189 417.04 217.277 415.984 217.213 414.08H223.517V413.648C223.517 410.656 221.693 409.488 219.757 409.488C217.453 409.488 215.837 411.248 215.837 413.776V413.904C215.837 416.48 217.517 418.144 219.885 418.144ZM217.261 413.008C217.485 411.52 218.397 410.592 219.757 410.592C221.133 410.592 222.029 411.28 222.157 413.008H217.261ZM228.225 418.144C230.257 418.144 231.297 417.12 231.297 415.6C231.297 413.824 230.081 413.44 228.353 413.12C226.817 412.848 226.401 412.544 226.401 411.792C226.401 411.072 227.025 410.592 227.985 410.592C229.041 410.592 229.553 410.992 229.745 411.904H231.025C230.801 410.096 229.505 409.488 228.001 409.488C226.689 409.488 225.169 410.288 225.169 411.84C225.169 413.296 225.905 413.904 228.081 414.304C229.377 414.544 230.033 414.832 230.033 415.712C230.033 416.608 229.473 417.04 228.209 417.04C226.865 417.04 226.337 416.416 226.241 415.424H224.945C225.025 417.136 226.225 418.144 228.225 418.144ZM235.865 418.112C236.409 418.112 236.729 418.032 237.001 417.936V416.816C236.713 416.928 236.393 416.992 235.977 416.992C235.305 416.992 234.937 416.592 234.937 415.776V410.752H236.889V409.632H234.937V407.728H233.609V409.632H232.409V410.752H233.609V415.904C233.609 417.216 234.345 418.112 235.865 418.112ZM242.432 418.144C244.32 418.144 245.712 417.264 246 415.584H244.672C244.496 416.56 243.744 417.04 242.448 417.04C240.736 417.04 239.824 415.984 239.76 414.08H246.064V413.648C246.064 410.656 244.24 409.488 242.304 409.488C240 409.488 238.384 411.248 238.384 413.776V413.904C238.384 416.48 240.064 418.144 242.432 418.144ZM239.808 413.008C240.032 411.52 240.944 410.592 242.304 410.592C243.68 410.592 244.576 411.28 244.704 413.008H239.808ZM255.36 418H257.024L260.976 406.56H259.664L256.256 416.656L252.848 406.56H251.472L255.36 418ZM264.338 418.144C265.57 418.144 266.322 417.728 266.946 416.944V418H268.274V412.48C268.274 410.144 266.818 409.488 265.218 409.488C263.602 409.488 262.082 410.192 261.906 412.096H263.234C263.362 411.072 264.002 410.592 265.154 410.592C266.434 410.592 266.946 411.152 266.946 412.48V413.088H265.746C263.602 413.088 261.554 413.744 261.554 415.68C261.554 417.392 262.786 418.144 264.338 418.144ZM264.466 417.088C263.298 417.088 262.882 416.544 262.882 415.68C262.882 414.448 264.114 414.032 265.794 414.032H266.946V415.072C266.946 416.368 265.874 417.088 264.466 417.088ZM270.883 418H272.211V413.408C272.211 411.344 273.283 410.816 274.963 410.736V409.488C273.459 409.536 272.739 410.192 272.211 411.136V409.632H270.883V418ZM277.571 407.888C278.051 407.888 278.451 407.488 278.451 407.008C278.451 406.528 278.051 406.128 277.571 406.128C277.091 406.128 276.691 406.528 276.691 407.008C276.691 407.488 277.091 407.888 277.571 407.888ZM276.931 418H278.259V409.632H276.931V418ZM283.073 418.144C284.305 418.144 285.057 417.728 285.681 416.944V418H287.009V412.48C287.009 410.144 285.553 409.488 283.953 409.488C282.337 409.488 280.817 410.192 280.641 412.096H281.969C282.097 411.072 282.737 410.592 283.889 410.592C285.169 410.592 285.681 411.152 285.681 412.48V413.088H284.481C282.337 413.088 280.289 413.744 280.289 415.68C280.289 417.392 281.521 418.144 283.073 418.144ZM283.201 417.088C282.033 417.088 281.617 416.544 281.617 415.68C281.617 414.448 282.849 414.032 284.529 414.032H285.681V415.072C285.681 416.368 284.609 417.088 283.201 417.088ZM289.617 418H290.945V412.928C290.945 411.424 292.049 410.64 293.281 410.64C294.625 410.64 295.249 411.296 295.249 412.768V418H296.577V412.864C296.577 410.432 295.361 409.488 293.633 409.488C292.257 409.488 291.329 410.176 290.945 410.96V409.632H289.617V418ZM301.724 418.112C302.268 418.112 302.588 418.032 302.86 417.936V416.816C302.572 416.928 302.252 416.992 301.836 416.992C301.164 416.992 300.796 416.592 300.796 415.776V410.752H302.748V409.632H300.796V407.728H299.468V409.632H298.268V410.752H299.468V415.904C299.468 417.216 300.204 418.112 301.724 418.112ZM312.526 418.144C314.414 418.144 315.806 417.264 316.094 415.584H314.766C314.59 416.56 313.838 417.04 312.542 417.04C310.83 417.04 309.918 415.984 309.854 414.08H316.158V413.648C316.158 410.656 314.334 409.488 312.398 409.488C310.094 409.488 308.478 411.248 308.478 413.776V413.904C308.478 416.48 310.158 418.144 312.526 418.144ZM309.902 413.008C310.126 411.52 311.038 410.592 312.398 410.592C313.774 410.592 314.67 411.28 314.798 413.008H309.902ZM318.196 418H319.524V413.408C319.524 411.344 320.596 410.816 322.276 410.736V409.488C320.772 409.536 320.052 410.192 319.524 411.136V409.632H318.196V418ZM324.17 418.08C324.73 418.08 325.194 417.632 325.194 417.056C325.194 416.48 324.73 416.032 324.17 416.032C323.61 416.032 323.146 416.48 323.146 417.056C323.146 417.632 323.61 418.08 324.17 418.08ZM328.686 418.08C329.246 418.08 329.71 417.632 329.71 417.056C329.71 416.48 329.246 416.032 328.686 416.032C328.126 416.032 327.662 416.48 327.662 417.056C327.662 417.632 328.126 418.08 328.686 418.08ZM333.201 418.08C333.761 418.08 334.225 417.632 334.225 417.056C334.225 416.48 333.761 416.032 333.201 416.032C332.641 416.032 332.177 416.48 332.177 417.056C332.177 417.632 332.641 418.08 333.201 418.08ZM241.893 439H245.813C248.101 439 249.573 437.96 249.573 435.8V435.736C249.573 434.248 248.949 433.4 247.285 433C248.597 432.552 249.013 431.624 249.013 430.584V430.52C249.013 428.264 247.461 427.56 245.333 427.56H241.893V439ZM243.253 432.552V428.648H245.301C246.901 428.648 247.653 429.176 247.653 430.472V430.536C247.653 431.944 247.013 432.552 245.333 432.552H243.253ZM243.253 437.912V433.64H245.589C247.429 433.64 248.213 434.312 248.213 435.72V435.784C248.213 437.176 247.445 437.912 245.781 437.912H243.253ZM255.174 439.144C257.062 439.144 258.454 438.264 258.742 436.584H257.414C257.238 437.56 256.486 438.04 255.19 438.04C253.478 438.04 252.566 436.984 252.502 435.08H258.806V434.648C258.806 431.656 256.982 430.488 255.046 430.488C252.742 430.488 251.126 432.248 251.126 434.776V434.904C251.126 437.48 252.806 439.144 255.174 439.144ZM252.55 434.008C252.774 432.52 253.686 431.592 255.046 431.592C256.422 431.592 257.318 432.28 257.446 434.008H252.55ZM260.844 439H262.172V434.408C262.172 432.344 263.244 431.816 264.924 431.736V430.488C263.42 430.536 262.7 431.192 262.172 432.136V430.632H260.844V439ZM269.969 442.056C272.305 442.056 273.953 440.872 273.969 438.44V430.632H272.641V431.976C272.161 431.16 271.297 430.488 269.905 430.488C267.601 430.488 266.001 432.376 266.001 434.648V434.76C266.001 437.064 267.617 438.728 269.809 438.728C271.025 438.728 272.161 437.96 272.641 437.144V438.36C272.641 440.152 271.601 440.936 269.953 440.936C268.529 440.936 267.729 440.44 267.537 439.48H266.177C266.401 440.888 267.489 442.056 269.969 442.056ZM269.953 437.624C268.545 437.624 267.377 436.536 267.377 434.712V434.584C267.377 432.824 268.369 431.592 270.033 431.592C271.665 431.592 272.689 432.68 272.689 434.552V434.664C272.689 436.536 271.505 437.624 269.953 437.624ZM280.081 439.144C281.969 439.144 283.361 438.264 283.649 436.584H282.321C282.145 437.56 281.393 438.04 280.097 438.04C278.385 438.04 277.473 436.984 277.409 435.08H283.713V434.648C283.713 431.656 281.889 430.488 279.953 430.488C277.649 430.488 276.033 432.248 276.033 434.776V434.904C276.033 437.48 277.713 439.144 280.081 439.144ZM277.457 434.008C277.681 432.52 278.593 431.592 279.953 431.592C281.329 431.592 282.225 432.28 282.353 434.008H277.457ZM285.75 439H287.078V433.928C287.078 432.424 288.182 431.64 289.414 431.64C290.758 431.64 291.382 432.296 291.382 433.768V439H292.71V433.864C292.71 431.432 291.494 430.488 289.766 430.488C288.39 430.488 287.462 431.176 287.078 431.96V430.632H285.75V439ZM295.761 435.768H296.785L297.009 427.56H295.537L295.761 435.768ZM296.257 439.08C296.817 439.08 297.281 438.632 297.281 438.056C297.281 437.48 296.817 437.032 296.257 437.032C295.697 437.032 295.233 437.48 295.233 438.056C295.233 438.632 295.697 439.08 296.257 439.08Z" fill="#35316E"/>
  <path d="M490.456 416.217H491.848V411.097H495.976V409.961H491.848V405.913H497.144V404.777H490.456V416.217ZM498.338 416.809L499.522 415.497C500.21 416.041 501.074 416.361 502.082 416.361C504.466 416.361 506.21 414.617 506.21 412.089V411.961C506.21 410.857 505.858 409.897 505.266 409.161L506.386 407.929L505.682 407.321L504.594 408.505C503.922 407.993 503.058 407.705 502.098 407.705C499.73 407.705 497.986 409.465 497.986 411.977V412.105C497.986 413.177 498.306 414.121 498.866 414.841L497.634 416.201L498.338 416.809ZM499.362 412.105V411.977C499.362 410.057 500.418 408.809 502.098 408.809C502.77 408.809 503.346 409.017 503.794 409.401L499.746 413.881C499.49 413.385 499.362 412.793 499.362 412.105ZM502.098 415.257C501.362 415.257 500.77 415.033 500.306 414.617L504.402 410.121C504.674 410.633 504.834 411.257 504.834 411.993V412.105C504.834 413.993 503.778 415.257 502.098 415.257ZM508.266 416.217H509.594V411.625C509.594 409.561 510.666 409.033 512.346 408.953V407.705C510.842 407.753 510.122 408.409 509.594 409.353V407.849H508.266V416.217ZM516.795 416.361C518.827 416.361 519.867 415.337 519.867 413.817C519.867 412.041 518.651 411.657 516.923 411.337C515.387 411.065 514.971 410.761 514.971 410.009C514.971 409.289 515.595 408.809 516.555 408.809C517.611 408.809 518.123 409.209 518.315 410.121H519.595C519.371 408.313 518.075 407.705 516.571 407.705C515.259 407.705 513.739 408.505 513.739 410.057C513.739 411.513 514.475 412.121 516.651 412.521C517.947 412.761 518.603 413.049 518.603 413.929C518.603 414.825 518.043 415.257 516.779 415.257C515.435 415.257 514.907 414.633 514.811 413.641H513.515C513.595 415.353 514.795 416.361 516.795 416.361ZM524.435 416.329C524.979 416.329 525.299 416.249 525.571 416.153V415.033C525.283 415.145 524.963 415.209 524.547 415.209C523.875 415.209 523.507 414.809 523.507 413.993V408.969H525.459V407.849H523.507V405.945H522.179V407.849H520.979V408.969H522.179V414.121C522.179 415.433 522.915 416.329 524.435 416.329ZM531.002 416.361C532.89 416.361 534.282 415.481 534.57 413.801H533.242C533.066 414.777 532.314 415.257 531.018 415.257C529.306 415.257 528.394 414.201 528.33 412.297H534.634V411.865C534.634 408.873 532.81 407.705 530.874 407.705C528.57 407.705 526.954 409.465 526.954 411.993V412.121C526.954 414.697 528.634 416.361 531.002 416.361ZM528.378 411.225C528.602 409.737 529.514 408.809 530.874 408.809C532.25 408.809 533.146 409.497 533.274 411.225H528.378ZM543.003 416.361C544.235 416.361 544.987 415.945 545.611 415.161V416.217H546.939V410.697C546.939 408.361 545.483 407.705 543.883 407.705C542.267 407.705 540.747 408.409 540.571 410.313H541.899C542.027 409.289 542.667 408.809 543.819 408.809C545.099 408.809 545.611 409.369 545.611 410.697V411.305H544.411C542.267 411.305 540.219 411.961 540.219 413.897C540.219 415.609 541.451 416.361 543.003 416.361ZM543.131 415.305C541.963 415.305 541.547 414.761 541.547 413.897C541.547 412.665 542.779 412.249 544.459 412.249H545.611V413.289C545.611 414.585 544.539 415.305 543.131 415.305ZM549.547 416.217H550.875V411.145C550.875 409.641 551.979 408.857 553.211 408.857C554.555 408.857 555.179 409.513 555.179 410.985V416.217H556.507V411.081C556.507 408.649 555.291 407.705 553.563 407.705C552.187 407.705 551.259 408.393 550.875 409.177V407.849H549.547V416.217ZM561.702 416.361C563.734 416.361 564.774 415.337 564.774 413.817C564.774 412.041 563.558 411.657 561.83 411.337C560.294 411.065 559.878 410.761 559.878 410.009C559.878 409.289 560.502 408.809 561.462 408.809C562.518 408.809 563.03 409.209 563.222 410.121H564.502C564.278 408.313 562.982 407.705 561.478 407.705C560.166 407.705 558.646 408.505 558.646 410.057C558.646 411.513 559.382 412.121 561.558 412.521C562.854 412.761 563.51 413.049 563.51 413.929C563.51 414.825 562.95 415.257 561.686 415.257C560.342 415.257 559.814 414.633 559.718 413.641H558.422C558.502 415.353 559.702 416.361 561.702 416.361ZM568.893 416.361C570.125 416.361 570.877 415.945 571.501 415.161V416.217H572.829V410.697C572.829 408.361 571.373 407.705 569.773 407.705C568.157 407.705 566.637 408.409 566.461 410.313H567.789C567.917 409.289 568.557 408.809 569.709 408.809C570.989 408.809 571.501 409.369 571.501 410.697V411.305H570.301C568.157 411.305 566.109 411.961 566.109 413.897C566.109 415.609 567.341 416.361 568.893 416.361ZM569.021 415.305C567.853 415.305 567.437 414.761 567.437 413.897C567.437 412.665 568.669 412.249 570.349 412.249H571.501V413.289C571.501 414.585 570.429 415.305 569.021 415.305ZM577.982 416.329C578.526 416.329 578.846 416.249 579.118 416.153V415.033C578.83 415.145 578.51 415.209 578.094 415.209C577.422 415.209 577.054 414.809 577.054 413.993V408.969H579.006V407.849H577.054V405.945H575.726V407.849H574.526V408.969H575.726V414.121C575.726 415.433 576.462 416.329 577.982 416.329ZM583.669 416.329C584.213 416.329 584.533 416.249 584.805 416.153V415.033C584.517 415.145 584.197 415.209 583.781 415.209C583.109 415.209 582.741 414.809 582.741 413.993V408.969H584.693V407.849H582.741V405.945H581.413V407.849H580.213V408.969H581.413V414.121C581.413 415.433 582.149 416.329 583.669 416.329ZM586.909 418.185L588.877 414.841L587.581 414.233L586.045 417.737L586.909 418.185ZM509.248 437.217H510.56L511.664 433.921H516.384L517.504 437.217H518.88L515.008 425.777H513.184L509.248 437.217ZM514.032 426.929L516.016 432.817H512.048L514.032 426.929ZM520.797 437.217H522.125V432.145C522.125 430.641 523.229 429.857 524.461 429.857C525.805 429.857 526.429 430.513 526.429 431.985V437.217H527.757V432.081C527.757 429.649 526.541 428.705 524.813 428.705C523.437 428.705 522.509 429.393 522.125 430.177V428.849H520.797V437.217ZM533.512 437.361C534.728 437.361 535.896 436.593 536.376 435.777V437.217H537.704V424.849H536.376V430.193C535.896 429.377 535.032 428.705 533.64 428.705C531.336 428.705 529.736 430.513 529.736 433.073V433.201C529.736 435.809 531.32 437.361 533.512 437.361ZM533.656 436.257C532.248 436.257 531.112 435.249 531.112 433.137V433.009C531.112 430.977 532.104 429.809 533.768 429.809C535.4 429.809 536.424 430.817 536.424 432.961V433.089C536.424 435.233 535.208 436.257 533.656 436.257ZM540.391 437.217H541.719V432.625C541.719 430.561 542.791 430.033 544.471 429.953V428.705C542.967 428.753 542.247 429.409 541.719 430.353V428.849H540.391V437.217ZM549.596 437.361C551.484 437.361 552.876 436.481 553.164 434.801H551.836C551.66 435.777 550.908 436.257 549.612 436.257C547.9 436.257 546.988 435.201 546.924 433.297H553.228V432.865C553.228 429.873 551.404 428.705 549.468 428.705C547.164 428.705 545.548 430.465 545.548 432.993V433.121C545.548 435.697 547.228 437.361 549.596 437.361ZM546.972 432.225C547.196 430.737 548.108 429.809 549.468 429.809C550.844 429.809 551.74 430.497 551.868 432.225H546.972ZM557.44 437.361C558.672 437.361 559.424 436.945 560.048 436.161V437.217H561.376V431.697C561.376 429.361 559.92 428.705 558.32 428.705C556.704 428.705 555.184 429.409 555.008 431.313H556.336C556.464 430.289 557.104 429.809 558.256 429.809C559.536 429.809 560.048 430.369 560.048 431.697V432.305H558.848C556.704 432.305 554.656 432.961 554.656 434.897C554.656 436.609 555.888 437.361 557.44 437.361ZM557.568 436.305C556.4 436.305 555.984 435.761 555.984 434.897C555.984 433.665 557.216 433.249 558.896 433.249H560.048V434.289C560.048 435.585 558.976 436.305 557.568 436.305ZM566.577 437.361C568.609 437.361 569.649 436.337 569.649 434.817C569.649 433.041 568.433 432.657 566.705 432.337C565.169 432.065 564.753 431.761 564.753 431.009C564.753 430.289 565.377 429.809 566.337 429.809C567.393 429.809 567.905 430.209 568.097 431.121H569.377C569.153 429.313 567.857 428.705 566.353 428.705C565.041 428.705 563.521 429.505 563.521 431.057C563.521 432.513 564.257 433.121 566.433 433.521C567.729 433.761 568.385 434.049 568.385 434.929C568.385 435.825 567.825 436.257 566.561 436.257C565.217 436.257 564.689 435.633 564.593 434.641H563.297C563.377 436.353 564.577 437.361 566.577 437.361Z" fill="#35316E"/>
  <path d="M529.182 546H530.574V540.88H534.702V539.744H530.574V535.696H535.87V534.56H529.182V546ZM537.853 546H539.197V533.632H537.853V546ZM542.666 548.912H544.01L548.634 537.632H547.274L544.954 543.632L542.394 537.632H540.97L544.25 545.136L542.666 548.912ZM553.083 546.112C553.627 546.112 553.947 546.032 554.219 545.936V544.816C553.931 544.928 553.611 544.992 553.195 544.992C552.523 544.992 552.155 544.592 552.155 543.776V538.752H554.107V537.632H552.155V535.728H550.827V537.632H549.627V538.752H550.827V543.904C550.827 545.216 551.563 546.112 553.083 546.112ZM558.771 546.112C559.315 546.112 559.635 546.032 559.907 545.936V544.816C559.619 544.928 559.299 544.992 558.883 544.992C558.211 544.992 557.843 544.592 557.843 543.776V538.752H559.795V537.632H557.843V535.728H556.515V537.632H555.315V538.752H556.515V543.904C556.515 545.216 557.251 546.112 558.771 546.112ZM565.338 546.144C567.226 546.144 568.618 545.264 568.906 543.584H567.578C567.402 544.56 566.65 545.04 565.354 545.04C563.642 545.04 562.73 543.984 562.666 542.08H568.97V541.648C568.97 538.656 567.146 537.488 565.21 537.488C562.906 537.488 561.29 539.248 561.29 541.776V541.904C561.29 544.48 562.97 546.144 565.338 546.144ZM562.714 541.008C562.938 539.52 563.85 538.592 565.21 538.592C566.586 538.592 567.482 539.28 567.61 541.008H562.714ZM571.008 546H572.336V541.408C572.336 539.344 573.408 538.816 575.088 538.736V537.488C573.584 537.536 572.864 538.192 572.336 539.136V537.632H571.008V546ZM581.93 535.888C582.41 535.888 582.81 535.488 582.81 535.008C582.81 534.528 582.41 534.128 581.93 534.128C581.45 534.128 581.05 534.528 581.05 535.008C581.05 535.488 581.45 535.888 581.93 535.888ZM581.29 546H582.618V537.632H581.29V546ZM585.336 546H586.664V540.928C586.664 539.424 587.768 538.64 589 538.64C590.344 538.64 590.968 539.296 590.968 540.768V546H592.296V540.864C592.296 538.432 591.08 537.488 589.352 537.488C587.976 537.488 587.048 538.176 586.664 538.96V537.632H585.336V546ZM594.899 546H596.227V540.928C596.227 539.424 597.331 538.64 598.563 538.64C599.907 538.64 600.531 539.296 600.531 540.768V546H601.859V540.864C601.859 538.432 600.643 537.488 598.915 537.488C597.539 537.488 596.611 538.176 596.227 538.96V537.632H594.899V546ZM608.696 546H610.024V540.928C610.024 539.424 611.128 538.64 612.36 538.64C613.704 538.64 614.328 539.296 614.328 540.768V546H615.656V540.864C615.656 538.432 614.44 537.488 612.712 537.488C611.336 537.488 610.408 538.176 610.024 538.96V533.632H608.696V546ZM621.73 546.144C624.114 546.144 625.858 544.4 625.858 541.872V541.744C625.858 539.232 624.114 537.488 621.746 537.488C619.378 537.488 617.634 539.248 617.634 541.76V541.888C617.634 544.336 619.346 546.144 621.73 546.144ZM621.746 545.04C620.05 545.04 619.01 543.792 619.01 541.888V541.76C619.01 539.84 620.066 538.592 621.746 538.592C623.41 538.592 624.482 539.84 624.482 541.776V541.888C624.482 543.776 623.426 545.04 621.746 545.04ZM630.506 546.144C632.538 546.144 633.578 545.12 633.578 543.6C633.578 541.824 632.362 541.44 630.634 541.12C629.098 540.848 628.682 540.544 628.682 539.792C628.682 539.072 629.306 538.592 630.266 538.592C631.322 538.592 631.834 538.992 632.026 539.904H633.306C633.082 538.096 631.786 537.488 630.282 537.488C628.97 537.488 627.45 538.288 627.45 539.84C627.45 541.296 628.186 541.904 630.362 542.304C631.658 542.544 632.314 542.832 632.314 543.712C632.314 544.608 631.754 545.04 630.49 545.04C629.146 545.04 628.618 544.416 628.522 543.424H627.226C627.306 545.136 628.506 546.144 630.506 546.144ZM512.074 567.144C514.346 567.144 516.026 565.688 516.026 563.768C516.026 561.608 514.682 560.84 512.138 560.44C509.802 560.088 509.386 559.512 509.386 558.392C509.386 557.32 510.202 556.536 511.77 556.536C513.354 556.536 514.186 557.128 514.458 558.568H515.706C515.482 556.536 514.058 555.416 511.77 555.416C509.61 555.416 508.09 556.76 508.09 558.52C508.09 560.552 509.514 561.304 511.914 561.672C514.09 562.024 514.682 562.568 514.682 563.864C514.682 565.16 513.546 566.024 512.074 566.024C509.77 566.024 509.226 564.872 509.049 563.512H507.706C507.914 565.464 509.018 567.144 512.074 567.144ZM518.313 569.912H519.641V565.624C520.121 566.456 521.097 567.144 522.473 567.144C524.777 567.144 526.281 565.384 526.281 562.824V562.696C526.281 560.088 524.665 558.488 522.473 558.488C521.257 558.488 520.121 559.224 519.641 560.04V558.632H518.313V569.912ZM522.345 566.04C520.713 566.04 519.593 565.032 519.593 562.888V562.76C519.593 560.616 520.777 559.592 522.329 559.592C523.737 559.592 524.905 560.648 524.905 562.76V562.888C524.905 564.92 524.009 566.04 522.345 566.04ZM530.44 567.144C531.672 567.144 532.424 566.728 533.048 565.944V567H534.376V561.48C534.376 559.144 532.92 558.488 531.32 558.488C529.704 558.488 528.184 559.192 528.008 561.096H529.336C529.464 560.072 530.104 559.592 531.256 559.592C532.536 559.592 533.048 560.152 533.048 561.48V562.088H531.848C529.704 562.088 527.656 562.744 527.656 564.68C527.656 566.392 528.888 567.144 530.44 567.144ZM530.568 566.088C529.4 566.088 528.984 565.544 528.984 564.68C528.984 563.448 530.216 563.032 531.896 563.032H533.048V564.072C533.048 565.368 531.976 566.088 530.568 566.088ZM540.457 567.144C542.473 567.144 543.929 565.8 544.105 563.992H542.873C542.729 565.352 541.657 566.04 540.473 566.04C538.857 566.04 537.737 564.952 537.737 562.904V562.776C537.737 560.808 538.905 559.592 540.425 559.592C541.577 559.592 542.537 560.088 542.745 561.416H544.057C543.801 559.288 542.169 558.488 540.425 558.488C538.185 558.488 536.361 560.216 536.361 562.776V562.904C536.361 565.496 538.121 567.144 540.457 567.144ZM549.534 567.144C551.422 567.144 552.814 566.264 553.102 564.584H551.774C551.598 565.56 550.846 566.04 549.55 566.04C547.838 566.04 546.926 564.984 546.862 563.08H553.166V562.648C553.166 559.656 551.342 558.488 549.406 558.488C547.102 558.488 545.486 560.248 545.486 562.776V562.904C545.486 565.48 547.166 567.144 549.534 567.144ZM546.91 562.008C547.134 560.52 548.046 559.592 549.406 559.592C550.782 559.592 551.678 560.28 551.806 562.008H546.91ZM557.874 567.144C559.906 567.144 560.946 566.12 560.946 564.6C560.946 562.824 559.73 562.44 558.002 562.12C556.466 561.848 556.049 561.544 556.049 560.792C556.049 560.072 556.674 559.592 557.634 559.592C558.69 559.592 559.202 559.992 559.394 560.904H560.674C560.45 559.096 559.154 558.488 557.65 558.488C556.338 558.488 554.818 559.288 554.818 560.84C554.818 562.296 555.554 562.904 557.73 563.304C559.026 563.544 559.682 563.832 559.682 564.712C559.682 565.608 559.122 566.04 557.858 566.04C556.514 566.04 555.986 565.416 555.89 564.424H554.594C554.674 566.136 555.874 567.144 557.874 567.144ZM570.227 567H571.891L575.843 555.56H574.531L571.123 565.656L567.715 555.56H566.339L570.227 567ZM579.206 567.144C580.438 567.144 581.19 566.728 581.814 565.944V567H583.142V561.48C583.142 559.144 581.686 558.488 580.086 558.488C578.47 558.488 576.95 559.192 576.774 561.096H578.102C578.23 560.072 578.87 559.592 580.022 559.592C581.302 559.592 581.814 560.152 581.814 561.48V562.088H580.614C578.47 562.088 576.422 562.744 576.422 564.68C576.422 566.392 577.654 567.144 579.206 567.144ZM579.334 566.088C578.166 566.088 577.75 565.544 577.75 564.68C577.75 563.448 578.982 563.032 580.662 563.032H581.814V564.072C581.814 565.368 580.742 566.088 579.334 566.088ZM588.342 567.144C590.374 567.144 591.414 566.12 591.414 564.6C591.414 562.824 590.198 562.44 588.47 562.12C586.934 561.848 586.518 561.544 586.518 560.792C586.518 560.072 587.142 559.592 588.102 559.592C589.158 559.592 589.67 559.992 589.862 560.904H591.142C590.918 559.096 589.622 558.488 588.118 558.488C586.806 558.488 585.286 559.288 585.286 560.84C585.286 562.296 586.022 562.904 588.198 563.304C589.494 563.544 590.15 563.832 590.15 564.712C590.15 565.608 589.59 566.04 588.326 566.04C586.982 566.04 586.454 565.416 586.358 564.424H585.062C585.142 566.136 586.342 567.144 588.342 567.144ZM593.438 567H594.766V562.664L598.478 567H600.094L596.206 562.52L599.79 558.632H598.238L594.766 562.488V554.632H593.438V567ZM604.799 567.144C606.687 567.144 608.079 566.264 608.367 564.584H607.039C606.863 565.56 606.111 566.04 604.815 566.04C603.103 566.04 602.191 564.984 602.127 563.08H608.431V562.648C608.431 559.656 606.607 558.488 604.671 558.488C602.367 558.488 600.751 560.248 600.751 562.776V562.904C600.751 565.48 602.431 567.144 604.799 567.144ZM602.175 562.008C602.399 560.52 603.311 559.592 604.671 559.592C606.047 559.592 606.943 560.28 607.071 562.008H602.175ZM610.469 567H611.797V562.408C611.797 560.344 612.869 559.816 614.549 559.736V558.488C613.045 558.536 612.325 559.192 611.797 560.136V558.632H610.469V567ZM619.674 567.144C621.562 567.144 622.954 566.264 623.242 564.584H621.914C621.738 565.56 620.986 566.04 619.69 566.04C617.978 566.04 617.066 564.984 617.002 563.08H623.306V562.648C623.306 559.656 621.482 558.488 619.546 558.488C617.242 558.488 615.626 560.248 615.626 562.776V562.904C615.626 565.48 617.306 567.144 619.674 567.144ZM617.05 562.008C617.274 560.52 618.186 559.592 619.546 559.592C620.922 559.592 621.818 560.28 621.946 562.008H617.05ZM625.376 567H626.72V554.632H625.376V567ZM631.534 567H633.23L636.238 558.632H634.862L632.414 565.656L629.934 558.632H628.494L631.534 567ZM641.174 567.144C643.062 567.144 644.454 566.264 644.742 564.584H643.414C643.238 565.56 642.486 566.04 641.19 566.04C639.478 566.04 638.566 564.984 638.502 563.08H644.806V562.648C644.806 559.656 642.982 558.488 641.046 558.488C638.742 558.488 637.126 560.248 637.126 562.776V562.904C637.126 565.48 638.806 567.144 641.174 567.144ZM638.55 562.008C638.774 560.52 639.686 559.592 641.046 559.592C642.422 559.592 643.318 560.28 643.446 562.008H638.55ZM646.844 567H648.172V561.928C648.172 560.424 649.276 559.64 650.508 559.64C651.852 559.64 652.476 560.296 652.476 561.768V567H653.804V561.864C653.804 559.432 652.588 558.488 650.86 558.488C649.484 558.488 648.556 559.176 648.172 559.96V558.632H646.844V567Z" fill="#35316E"/>
  <path d="M570.346 278H571.738V272.88H575.866V271.744H571.738V267.696H577.034V266.56H570.346V278ZM578.228 278.592L579.412 277.28C580.1 277.824 580.964 278.144 581.972 278.144C584.356 278.144 586.1 276.4 586.1 273.872V273.744C586.1 272.64 585.748 271.68 585.156 270.944L586.276 269.712L585.572 269.104L584.484 270.288C583.812 269.776 582.948 269.488 581.988 269.488C579.62 269.488 577.876 271.248 577.876 273.76V273.888C577.876 274.96 578.196 275.904 578.756 276.624L577.524 277.984L578.228 278.592ZM579.252 273.888V273.76C579.252 271.84 580.308 270.592 581.988 270.592C582.66 270.592 583.236 270.8 583.684 271.184L579.636 275.664C579.38 275.168 579.252 274.576 579.252 273.888ZM581.988 277.04C581.252 277.04 580.66 276.816 580.196 276.4L584.292 271.904C584.564 272.416 584.724 273.04 584.724 273.776V273.888C584.724 275.776 583.668 277.04 581.988 277.04ZM588.157 278H589.485V273.408C589.485 271.344 590.557 270.816 592.237 270.736V269.488C590.733 269.536 590.013 270.192 589.485 271.136V269.632H588.157V278ZM596.686 278.144C598.718 278.144 599.758 277.12 599.758 275.6C599.758 273.824 598.542 273.44 596.814 273.12C595.278 272.848 594.862 272.544 594.862 271.792C594.862 271.072 595.486 270.592 596.446 270.592C597.502 270.592 598.014 270.992 598.206 271.904H599.486C599.262 270.096 597.966 269.488 596.462 269.488C595.15 269.488 593.63 270.288 593.63 271.84C593.63 273.296 594.366 273.904 596.542 274.304C597.838 274.544 598.494 274.832 598.494 275.712C598.494 276.608 597.934 277.04 596.67 277.04C595.326 277.04 594.798 276.416 594.702 275.424H593.406C593.486 277.136 594.686 278.144 596.686 278.144ZM604.326 278.112C604.87 278.112 605.19 278.032 605.462 277.936V276.816C605.174 276.928 604.854 276.992 604.438 276.992C603.766 276.992 603.398 276.592 603.398 275.776V270.752H605.35V269.632H603.398V267.728H602.07V269.632H600.87V270.752H602.07V275.904C602.07 277.216 602.806 278.112 604.326 278.112ZM610.893 278.144C612.781 278.144 614.173 277.264 614.461 275.584H613.133C612.957 276.56 612.205 277.04 610.909 277.04C609.197 277.04 608.285 275.984 608.221 274.08H614.525V273.648C614.525 270.656 612.701 269.488 610.765 269.488C608.461 269.488 606.845 271.248 606.845 273.776V273.904C606.845 276.48 608.525 278.144 610.893 278.144ZM608.269 273.008C608.493 271.52 609.405 270.592 610.765 270.592C612.141 270.592 613.037 271.28 613.165 273.008H608.269ZM620.797 278H622.125V273.664L625.837 278H627.453L623.565 273.52L627.149 269.632H625.597L622.125 273.488V265.632H620.797V278ZM631.645 278.144C632.989 278.144 633.917 277.456 634.301 276.672V278H635.629V269.632H634.301V274.704C634.301 276.208 633.181 276.992 631.997 276.992C630.685 276.992 630.061 276.336 630.061 274.864V269.632H628.733V274.928C628.733 277.232 629.981 278.144 631.645 278.144ZM638.313 278H639.641V272.928C639.641 271.424 640.745 270.64 641.977 270.64C643.321 270.64 643.945 271.296 643.945 272.768V278H645.273V272.864C645.273 270.432 644.057 269.488 642.329 269.488C640.953 269.488 640.025 270.176 639.641 270.96V269.632H638.313V278ZM651.027 278.144C652.243 278.144 653.411 277.376 653.891 276.56V278H655.219V265.632H653.891V270.976C653.411 270.16 652.547 269.488 651.155 269.488C648.851 269.488 647.251 271.296 647.251 273.856V273.984C647.251 276.592 648.835 278.144 651.027 278.144ZM651.171 277.04C649.763 277.04 648.627 276.032 648.627 273.92V273.792C648.627 271.76 649.619 270.592 651.283 270.592C652.915 270.592 653.939 271.6 653.939 273.744V273.872C653.939 276.016 652.723 277.04 651.171 277.04ZM661.331 278.144C663.219 278.144 664.611 277.264 664.899 275.584H663.571C663.395 276.56 662.643 277.04 661.347 277.04C659.635 277.04 658.723 275.984 658.659 274.08H664.963V273.648C664.963 270.656 663.139 269.488 661.203 269.488C658.899 269.488 657.283 271.248 657.283 273.776V273.904C657.283 276.48 658.963 278.144 661.331 278.144ZM658.707 273.008C658.931 271.52 659.843 270.592 661.203 270.592C662.579 270.592 663.475 271.28 663.603 273.008H658.707ZM667.018 279.968L668.986 276.624L667.69 276.016L666.154 279.52L667.018 279.968ZM558.05 299.144C560.322 299.144 562.002 297.688 562.002 295.768C562.002 293.608 560.658 292.84 558.114 292.44C555.778 292.088 555.362 291.512 555.362 290.392C555.362 289.32 556.178 288.536 557.746 288.536C559.33 288.536 560.162 289.128 560.434 290.568H561.682C561.458 288.536 560.034 287.416 557.746 287.416C555.586 287.416 554.066 288.76 554.066 290.52C554.066 292.552 555.49 293.304 557.89 293.672C560.066 294.024 560.658 294.568 560.658 295.864C560.658 297.16 559.522 298.024 558.05 298.024C555.746 298.024 555.202 296.872 555.026 295.512H553.682C553.89 297.464 554.994 299.144 558.05 299.144ZM566.833 299.112C567.377 299.112 567.697 299.032 567.969 298.936V297.816C567.681 297.928 567.361 297.992 566.945 297.992C566.273 297.992 565.905 297.592 565.905 296.776V291.752H567.857V290.632H565.905V288.728H564.577V290.632H563.377V291.752H564.577V296.904C564.577 298.216 565.313 299.112 566.833 299.112ZM572.151 299.144C573.383 299.144 574.135 298.728 574.759 297.944V299H576.087V293.48C576.087 291.144 574.631 290.488 573.031 290.488C571.415 290.488 569.895 291.192 569.719 293.096H571.047C571.175 292.072 571.815 291.592 572.967 291.592C574.247 291.592 574.759 292.152 574.759 293.48V294.088H573.559C571.415 294.088 569.367 294.744 569.367 296.68C569.367 298.392 570.599 299.144 572.151 299.144ZM572.279 298.088C571.111 298.088 570.695 297.544 570.695 296.68C570.695 295.448 571.927 295.032 573.607 295.032H574.759V296.072C574.759 297.368 573.687 298.088 572.279 298.088ZM581.24 299.112C581.784 299.112 582.104 299.032 582.376 298.936V297.816C582.088 297.928 581.768 297.992 581.352 297.992C580.68 297.992 580.312 297.592 580.312 296.776V291.752H582.264V290.632H580.312V288.728H578.984V290.632H577.784V291.752H578.984V296.904C578.984 298.216 579.72 299.112 581.24 299.112ZM587.807 299.144C589.695 299.144 591.087 298.264 591.375 296.584H590.047C589.871 297.56 589.119 298.04 587.823 298.04C586.111 298.04 585.199 296.984 585.135 295.08H591.439V294.648C591.439 291.656 589.615 290.488 587.679 290.488C585.375 290.488 583.759 292.248 583.759 294.776V294.904C583.759 297.48 585.439 299.144 587.807 299.144ZM585.183 294.008C585.407 292.52 586.319 291.592 587.679 291.592C589.055 291.592 589.951 292.28 590.079 294.008H585.183ZM593.477 299H594.805V293.928C594.805 292.424 595.909 291.64 597.141 291.64C598.485 291.64 599.109 292.296 599.109 293.768V299H600.437V293.864C600.437 291.432 599.221 290.488 597.493 290.488C596.117 290.488 595.189 291.176 594.805 291.96V290.632H593.477V299ZM605.631 299.144C607.663 299.144 608.703 298.12 608.703 296.6C608.703 294.824 607.487 294.44 605.759 294.12C604.223 293.848 603.807 293.544 603.807 292.792C603.807 292.072 604.431 291.592 605.391 291.592C606.447 291.592 606.959 291.992 607.151 292.904H608.431C608.207 291.096 606.911 290.488 605.407 290.488C604.095 290.488 602.575 291.288 602.575 292.84C602.575 294.296 603.311 294.904 605.487 295.304C606.783 295.544 607.439 295.832 607.439 296.712C607.439 297.608 606.879 298.04 605.615 298.04C604.271 298.04 603.743 297.416 603.647 296.424H602.351C602.431 298.136 603.631 299.144 605.631 299.144ZM617.985 299H619.649L623.601 287.56H622.289L618.881 297.656L615.473 287.56H614.097L617.985 299ZM627.901 299.144C629.789 299.144 631.181 298.264 631.469 296.584H630.141C629.965 297.56 629.213 298.04 627.917 298.04C626.205 298.04 625.293 296.984 625.229 295.08H631.533V294.648C631.533 291.656 629.709 290.488 627.773 290.488C625.469 290.488 623.853 292.248 623.853 294.776V294.904C623.853 297.48 625.533 299.144 627.901 299.144ZM625.277 294.008C625.501 292.52 626.413 291.592 627.773 291.592C629.149 291.592 630.045 292.28 630.173 294.008H625.277ZM636.915 302.056C639.251 302.056 640.899 300.872 640.915 298.44V290.632H639.587V291.976C639.107 291.16 638.243 290.488 636.851 290.488C634.547 290.488 632.947 292.376 632.947 294.648V294.76C632.947 297.064 634.563 298.728 636.755 298.728C637.971 298.728 639.107 297.96 639.587 297.144V298.36C639.587 300.152 638.547 300.936 636.899 300.936C635.475 300.936 634.675 300.44 634.483 299.48H633.123C633.347 300.888 634.435 302.056 636.915 302.056ZM636.899 297.624C635.491 297.624 634.323 296.536 634.323 294.712V294.584C634.323 292.824 635.315 291.592 636.979 291.592C638.611 291.592 639.635 292.68 639.635 294.552V294.664C639.635 296.536 638.451 297.624 636.899 297.624ZM645.698 299H647.394L650.402 290.632H649.026L646.578 297.656L644.098 290.632H642.658L645.698 299ZM655.338 299.144C657.226 299.144 658.618 298.264 658.906 296.584H657.578C657.402 297.56 656.65 298.04 655.354 298.04C653.642 298.04 652.73 296.984 652.666 295.08H658.97V294.648C658.97 291.656 657.146 290.488 655.21 290.488C652.906 290.488 651.29 292.248 651.29 294.776V294.904C651.29 297.48 652.97 299.144 655.338 299.144ZM652.714 294.008C652.938 292.52 653.85 291.592 655.21 291.592C656.586 291.592 657.482 292.28 657.61 294.008H652.714ZM663.678 299.144C665.71 299.144 666.75 298.12 666.75 296.6C666.75 294.824 665.534 294.44 663.806 294.12C662.27 293.848 661.854 293.544 661.854 292.792C661.854 292.072 662.478 291.592 663.438 291.592C664.494 291.592 665.006 291.992 665.198 292.904H666.478C666.254 291.096 664.958 290.488 663.454 290.488C662.142 290.488 660.622 291.288 660.622 292.84C660.622 294.296 661.358 294.904 663.534 295.304C664.83 295.544 665.486 295.832 665.486 296.712C665.486 297.608 664.926 298.04 663.662 298.04C662.318 298.04 661.79 297.416 661.694 296.424H660.398C660.478 298.136 661.678 299.144 663.678 299.144ZM672.198 299.144C674.086 299.144 675.478 298.264 675.766 296.584H674.438C674.262 297.56 673.51 298.04 672.214 298.04C670.502 298.04 669.59 296.984 669.526 295.08H675.83V294.648C675.83 291.656 674.006 290.488 672.07 290.488C669.766 290.488 668.15 292.248 668.15 294.776V294.904C668.15 297.48 669.83 299.144 672.198 299.144ZM669.574 294.008C669.798 292.52 670.71 291.592 672.07 291.592C673.446 291.592 674.342 292.28 674.47 294.008H669.574ZM677.867 299H679.195V293.928C679.195 292.424 680.299 291.64 681.531 291.64C682.875 291.64 683.499 292.296 683.499 293.768V299H684.827V293.864C684.827 291.432 683.611 290.488 681.883 290.488C680.507 290.488 679.579 291.176 679.195 291.96V290.632H677.867V299Z" fill="#35316E"/>
  <path d="M816.987 386.217H819.979C823.979 386.217 825.803 383.705 825.803 380.537V380.393C825.803 377.209 823.947 374.777 820.011 374.777H816.987V386.217ZM818.379 385.081V375.897H819.931C823.083 375.897 824.363 377.753 824.363 380.393V380.521C824.363 383.321 822.891 385.081 819.947 385.081H818.379ZM830.128 386.361C831.36 386.361 832.112 385.945 832.736 385.161V386.217H834.064V380.697C834.064 378.361 832.608 377.705 831.008 377.705C829.392 377.705 827.872 378.409 827.696 380.313H829.024C829.152 379.289 829.792 378.809 830.944 378.809C832.224 378.809 832.736 379.369 832.736 380.697V381.305H831.536C829.392 381.305 827.344 381.961 827.344 383.897C827.344 385.609 828.576 386.361 830.128 386.361ZM830.256 385.305C829.088 385.305 828.672 384.761 828.672 383.897C828.672 382.665 829.904 382.249 831.584 382.249H832.736V383.289C832.736 384.585 831.664 385.305 830.256 385.305ZM840.016 389.273C842.352 389.273 844 388.089 844.016 385.657V377.849H842.688V379.193C842.208 378.377 841.344 377.705 839.952 377.705C837.648 377.705 836.048 379.593 836.048 381.865V381.977C836.048 384.281 837.664 385.945 839.856 385.945C841.072 385.945 842.208 385.177 842.688 384.361V385.577C842.688 387.369 841.648 388.153 840 388.153C838.576 388.153 837.776 387.657 837.584 386.697H836.224C836.448 388.105 837.536 389.273 840.016 389.273ZM840 384.841C838.592 384.841 837.424 383.753 837.424 381.929V381.801C837.424 380.041 838.416 378.809 840.08 378.809C841.712 378.809 842.736 379.897 842.736 381.769V381.881C842.736 383.753 841.552 384.841 840 384.841ZM846.735 386.217H848.079V373.849H846.735V386.217ZM851.469 376.105C851.949 376.105 852.349 375.705 852.349 375.225C852.349 374.745 851.949 374.345 851.469 374.345C850.989 374.345 850.589 374.745 850.589 375.225C850.589 375.705 850.989 376.105 851.469 376.105ZM850.829 386.217H852.157V377.849H850.829V386.217ZM858.219 389.273C860.555 389.273 862.203 388.089 862.219 385.657V377.849H860.891V379.193C860.411 378.377 859.547 377.705 858.155 377.705C855.851 377.705 854.251 379.593 854.251 381.865V381.977C854.251 384.281 855.867 385.945 858.059 385.945C859.275 385.945 860.411 385.177 860.891 384.361V385.577C860.891 387.369 859.851 388.153 858.203 388.153C856.779 388.153 855.979 387.657 855.787 386.697H854.427C854.651 388.105 855.739 389.273 858.219 389.273ZM858.203 384.841C856.795 384.841 855.627 383.753 855.627 381.929V381.801C855.627 380.041 856.619 378.809 858.283 378.809C859.915 378.809 860.939 379.897 860.939 381.769V381.881C860.939 383.753 859.755 384.841 858.203 384.841ZM869.173 386.217H870.517V373.849H869.173V386.217ZM876.659 386.361C878.547 386.361 879.939 385.481 880.227 383.801H878.899C878.723 384.777 877.971 385.257 876.675 385.257C874.963 385.257 874.051 384.201 873.987 382.297H880.291V381.865C880.291 378.873 878.467 377.705 876.531 377.705C874.227 377.705 872.611 379.465 872.611 381.993V382.121C872.611 384.697 874.291 386.361 876.659 386.361ZM874.035 381.225C874.259 379.737 875.171 378.809 876.531 378.809C877.907 378.809 878.803 379.497 878.931 381.225H874.035ZM885.48 386.361C886.696 386.361 887.864 385.593 888.344 384.777V386.217H889.672V373.849H888.344V379.193C887.864 378.377 887 377.705 885.608 377.705C883.304 377.705 881.704 379.513 881.704 382.073V382.201C881.704 384.809 883.288 386.361 885.48 386.361ZM885.624 385.257C884.216 385.257 883.08 384.249 883.08 382.137V382.009C883.08 379.977 884.072 378.809 885.736 378.809C887.368 378.809 888.392 379.817 888.392 381.961V382.089C888.392 384.233 887.176 385.257 885.624 385.257ZM895.784 386.361C897.672 386.361 899.064 385.481 899.352 383.801H898.024C897.848 384.777 897.096 385.257 895.8 385.257C894.088 385.257 893.176 384.201 893.112 382.297H899.416V381.865C899.416 378.873 897.592 377.705 895.656 377.705C893.352 377.705 891.736 379.465 891.736 381.993V382.121C891.736 384.697 893.416 386.361 895.784 386.361ZM893.16 381.225C893.384 379.737 894.296 378.809 895.656 378.809C897.032 378.809 897.928 379.497 898.056 381.225H893.16ZM901.453 386.217H902.781V381.625C902.781 379.561 903.853 379.033 905.533 378.953V377.705C904.029 377.753 903.309 378.409 902.781 379.353V377.849H901.453V386.217ZM906.612 388.185L908.58 384.841L907.284 384.233L905.748 387.737L906.612 388.185ZM915.362 386.217H916.642V376.585L920.562 386.217H920.994L924.786 376.585V386.217H926.178V374.777H924.258L920.834 383.689L917.298 374.777H915.362V386.217ZM931.065 386.361C932.297 386.361 933.049 385.945 933.673 385.161V386.217H935.001V380.697C935.001 378.361 933.545 377.705 931.945 377.705C930.329 377.705 928.809 378.409 928.633 380.313H929.961C930.089 379.289 930.729 378.809 931.881 378.809C933.161 378.809 933.673 379.369 933.673 380.697V381.305H932.473C930.329 381.305 928.281 381.961 928.281 383.897C928.281 385.609 929.513 386.361 931.065 386.361ZM931.193 385.305C930.025 385.305 929.609 384.761 929.609 383.897C929.609 382.665 930.841 382.249 932.521 382.249H933.673V383.289C933.673 384.585 932.601 385.305 931.193 385.305ZM937.61 386.217H938.938V381.625C938.938 379.561 940.01 379.033 941.69 378.953V377.705C940.186 377.753 939.466 378.409 938.938 379.353V377.849H937.61V386.217ZM944.297 376.105C944.777 376.105 945.177 375.705 945.177 375.225C945.177 374.745 944.777 374.345 944.297 374.345C943.817 374.345 943.417 374.745 943.417 375.225C943.417 375.705 943.817 376.105 944.297 376.105ZM943.657 386.217H944.985V377.849H943.657V386.217ZM951.127 386.361C953.015 386.361 954.407 385.481 954.695 383.801H953.367C953.191 384.777 952.439 385.257 951.143 385.257C949.431 385.257 948.519 384.201 948.455 382.297H954.759V381.865C954.759 378.873 952.935 377.705 950.999 377.705C948.695 377.705 947.079 379.465 947.079 381.993V382.121C947.079 384.697 948.759 386.361 951.127 386.361ZM948.503 381.225C948.727 379.737 949.639 378.809 950.999 378.809C952.375 378.809 953.271 379.497 953.399 381.225H948.503Z" fill="#35316E"/>
  <path fill-rule="evenodd" clip-rule="evenodd" d="M1371.54 332.092C1376.9 332.643 1380.62 337.367 1383.84 342.043C1386.88 346.462 1390.14 351.63 1388.61 356.889C1387.16 361.899 1381.66 363.377 1377.11 365.212C1373.29 366.755 1369.32 367.792 1365.51 366.213C1361.24 364.445 1357.7 361.113 1356.06 356.494C1354.05 350.824 1352.73 344.182 1355.91 339.175C1359.27 333.872 1365.62 331.485 1371.54 332.092Z" stroke="#E61A6B" stroke-width="3" stroke-dasharray="4 4"/>
</svg>