<svg xmlns="http://www.w3.org/2000/svg" width="24" height="24" viewBox="0 0 24 24" fill="none">
    <path
        d="M21.6004 11.9999C21.6004 14.0058 20.9721 15.9612 19.8037 17.5917C18.6354 19.2221 16.9856 20.4457 15.0862 21.0904C13.1868 21.7352 11.1331 21.7688 9.21366 21.1865C7.29417 20.6043 5.60529 19.4354 4.3842 17.844C3.16311 16.2527 2.47116 14.3188 2.40553 12.314C2.3399 10.3092 2.90389 8.33424 4.01828 6.66643C5.13268 4.99862 6.7415 3.72177 8.61879 3.01521C10.4961 2.30864 12.5475 2.20786 14.4851 2.72701L13.9881 4.58159C12.4381 4.16627 10.7969 4.24689 9.29511 4.81214C7.79328 5.3774 6.50622 6.39888 5.6147 7.73312C4.72319 9.06737 4.272 10.6474 4.3245 12.2512C4.37701 13.855 4.93057 15.4021 5.90744 16.6752C6.88431 17.9483 8.23542 18.8834 9.771 19.3492C11.3066 19.815 12.9495 19.7881 14.469 19.2723C15.9886 18.7565 17.3084 17.7777 18.2431 16.4733C19.1777 15.169 19.6804 13.6046 19.6804 11.9999H21.6004Z"
        fill="#1F1F1F" />
</svg>