<svg width="134" height="20" viewBox="0 0 134 20" fill="none" xmlns="http://www.w3.org/2000/svg">
<path d="M117.105 0L108.421 20H111.841L113.076 17.1696H118.502V14.0158H114.44L117.105 7.88254L122.369 20H125.789L117.105 0Z" fill="#1F1F1F"/>
<path d="M11.5789 0H0V3.15789H11.5789V0Z" fill="#1F1F1F"/>
<path d="M33.158 0H30.0485V12.8058L16.6023 0.0861982H16.3159V20H19.4254V7.02646L30.1586 17.0721L30.1615 17.0747L33.158 20V0Z" fill="#1F1F1F"/>
<path d="M49.9998 0H38.4209V3.15789H49.9998V0Z" fill="#1F1F1F"/>
<path d="M63.6842 0H55.2632V19.9919H58.3066V3.09174H63.6842V0Z" fill="#1F1F1F"/>
<path d="M76.0527 0C70.5285 0 66.0527 4.47583 66.0527 10C66.0527 15.5241 70.5285 20 76.0527 20C81.4486 20 85.8308 15.7296 86.0359 10.3857L86.0527 10.3269V8.41234H75.8658V11.5877H82.6735C81.9584 14.5879 79.269 16.8247 76.0527 16.8247C72.2861 16.8247 69.2281 13.7666 69.2281 10C69.2281 6.23338 72.2861 3.1753 76.0527 3.1753H76.2397V0H76.0527Z" fill="#1F1F1F"/>
<path d="M93.6843 0H90.5264V19.9919H93.6843V0Z" fill="#1F1F1F"/>
<path d="M133.684 0H130.526V20H133.684V0Z" fill="#1F1F1F"/>
<path d="M5.78947 8.42114H0V11.579H5.78947V8.42114Z" fill="#1F1F1F"/>
<path d="M44.2104 8.42114H38.4209V11.579H44.2104V8.42114Z" fill="#1F1F1F"/>
<mask id="mask0_69_3011" style="mask-type:luminance" maskUnits="userSpaceOnUse" x="99" y="15" width="5" height="5">
<path fill-rule="evenodd" clip-rule="evenodd" d="M99.3335 15.3335H103.231V19.992H99.3335V15.3335Z" fill="white"/>
</mask>
<g mask="url(#mask0_69_3011)">
<path fill-rule="evenodd" clip-rule="evenodd" d="M101.095 15.3335C102.293 15.4355 103.231 16.4375 103.231 17.6588C103.231 18.9468 102.186 19.9922 100.897 19.9922C100.303 19.9922 99.7595 19.7695 99.3468 19.4022C99.3428 19.3982 99.3382 19.3942 99.3335 19.3895L101.095 15.3335Z" fill="#1F1F1F"/>
</g>
<path d="M11.5789 16.842H0V19.9999H11.5789V16.842Z" fill="#1F1F1F"/>
<path d="M49.9998 16.842H38.4209V19.9999H49.9998V16.842Z" fill="#1F1F1F"/>
</svg>
