<svg width="196" height="29" viewBox="0 0 196 29" fill="none" xmlns="http://www.w3.org/2000/svg">
<g clip-path="url(#clip0_154_4346)">
<path d="M171.693 0L158.96 29H163.975L165.785 24.896H173.741V20.323H167.785L171.693 11.4297L179.411 29H184.425L171.693 0Z" fill="#FAF8F5"/>
<path d="M16.9764 0H0V4.57895H16.9764V0Z" fill="#FAF8F5"/>
<path d="M48.6143 0H44.0554V18.5684L24.3412 0.124987H23.9214V29H28.4803V10.1884L44.2168 24.7546L44.221 24.7584L48.6143 29V0Z" fill="#FAF8F5"/>
<path d="M73.3069 0H56.3306V4.57895H73.3069V0Z" fill="#FAF8F5"/>
<path d="M93.3699 0H81.0234V28.9882H85.4854V4.48303H93.3699V0Z" fill="#FAF8F5"/>
<path d="M111.504 0C103.404 0 96.8423 6.48994 96.8423 14.5C96.8423 22.51 103.404 29 111.504 29C119.415 29 125.84 22.8079 126.14 15.0593L126.165 14.974V12.1979H111.23V16.8021H121.211C120.162 21.1526 116.219 24.3957 111.504 24.3957C105.981 24.3957 101.498 19.9616 101.498 14.5C101.498 9.03841 105.981 4.60419 111.504 4.60419H111.778V0H111.504Z" fill="#FAF8F5"/>
<path d="M137.355 0H132.725V28.9882H137.355V0Z" fill="#FAF8F5"/>
<path d="M196 0H191.37V29H196V0Z" fill="#FAF8F5"/>
<path d="M8.48819 12.2104H0V16.7894H8.48819V12.2104Z" fill="#FAF8F5"/>
<path d="M64.8188 12.2104H56.3306V16.7894H64.8188V12.2104Z" fill="#FAF8F5"/>
<mask id="mask0_154_4346" style="mask-type:luminance" maskUnits="userSpaceOnUse" x="145" y="22" width="7" height="7">
<path fill-rule="evenodd" clip-rule="evenodd" d="M145.637 22.2336H151.351V28.9885H145.637V22.2336Z" fill="white"/>
</mask>
<g mask="url(#mask0_154_4346)">
<path fill-rule="evenodd" clip-rule="evenodd" d="M148.22 22.2336C149.976 22.3815 151.351 23.8344 151.351 25.6054C151.351 27.473 149.819 28.9887 147.93 28.9887C147.058 28.9887 146.261 28.6658 145.656 28.1332C145.65 28.1274 145.644 28.1216 145.637 28.1148L148.22 22.2336Z" fill="#FAF8F5"/>
</g>
<path d="M16.9764 24.4211H0V29.0001H16.9764V24.4211Z" fill="#FAF8F5"/>
<path d="M73.3069 24.4211H56.3306V29.0001H73.3069V24.4211Z" fill="#FAF8F5"/>
</g>
<defs>
<clipPath id="clip0_154_4346">
<rect width="196" height="29" fill="white"/>
</clipPath>
</defs>
</svg>
