<svg width="934" height="557" viewBox="0 0 934 557" fill="none" xmlns="http://www.w3.org/2000/svg">
<path fill-rule="evenodd" clip-rule="evenodd" d="M595.147 203.017C588.616 203.268 583.111 207.493 579.156 212.827C575.331 217.985 572.763 224.512 574.615 230.707C576.354 236.522 582.2 239.511 587.765 241.618C592.56 243.432 597.804 243.627 602.332 241.198C606.683 238.865 608.749 234.211 610.408 229.473C612.498 223.502 615.863 217 612.713 211.54C609.244 205.525 601.958 202.756 595.147 203.017Z" fill="#E61A6B"/>
<path fill-rule="evenodd" clip-rule="evenodd" d="M533.139 191C539.599 191.042 544.868 194.975 548.902 199.445C552.944 203.924 555.888 209.306 554.756 214.952C553.559 220.92 549.156 226.075 543.023 228.763C536.81 231.488 529.151 231.993 523.255 228.762C517.855 225.803 517.279 219.552 516.123 214.021C515.057 208.916 513.876 203.585 517.087 199.241C520.651 194.419 526.632 190.959 533.139 191Z" fill="#E61A6B"/>
<path fill-rule="evenodd" clip-rule="evenodd" d="M565.099 249.261C570.693 250.507 572.34 257.467 575.566 262.285C577.865 265.718 580.696 268.798 580.959 272.945C581.239 277.364 580.096 281.956 577.011 285.076C573.934 288.188 569.434 288.85 565.099 288.984C560.586 289.124 556.217 288.358 552.442 285.836C547.518 282.545 541.84 278.895 541.1 272.945C540.314 266.628 544.28 260.745 548.769 256.314C553.183 251.958 559.095 247.923 565.099 249.261Z" fill="#E61A6B"/>
<path fill-rule="evenodd" clip-rule="evenodd" d="M690.447 127.028C696.205 127.111 702.165 127.704 706.148 132.025C710.568 136.821 712.897 143.547 711.678 150.065C710.414 156.826 705.966 162.644 699.902 165.427C694.056 168.11 687.221 167.226 681.746 163.801C676.826 160.725 675.015 154.808 673.656 149.013C672.262 143.064 670.525 136.359 674.189 131.563C677.858 126.758 684.544 126.943 690.447 127.028Z" fill="#E61A6B"/>
<path fill-rule="evenodd" clip-rule="evenodd" d="M625.48 159.107C630.76 158.584 636.523 159.937 640.016 164.021C643.375 167.951 642.248 173.671 642.393 178.889C642.545 184.368 644.362 190.473 640.868 194.628C637.259 198.92 631.014 198.991 625.48 199C619.934 199.009 614.21 198.422 610.044 194.678C605.639 190.718 602.368 184.84 603.104 178.889C603.793 173.312 609.351 170.321 613.509 166.645C617.195 163.387 620.632 159.587 625.48 159.107Z" fill="#E61A6B"/>
<path fill-rule="evenodd" clip-rule="evenodd" d="M718.748 75.4007C724.655 75.2439 731.687 73.484 735.329 78.8357C738.958 84.1682 735.777 91.5783 734.197 98.1019C732.759 104.042 731.665 110.695 726.919 113.562C722.033 116.513 716.346 114.388 711.245 111.966C705.601 109.286 699.243 106.358 697.54 99.6135C695.762 92.5667 698.571 84.8601 703.098 79.6908C707.103 75.1191 713.107 75.5503 718.748 75.4007Z" fill="#E61A6B"/>
<path fill-rule="evenodd" clip-rule="evenodd" d="M626.796 114.21C632.733 113.839 639.182 113.453 643.396 117.842C648.099 122.74 649.921 130.088 648.562 136.882C647.175 143.823 642.68 149.856 636.441 152.632C630.508 155.272 623.718 153.854 618.179 150.401C613.227 147.315 610.568 141.74 609.472 135.822C608.429 130.188 608.981 124.166 612.506 119.768C615.941 115.483 621.459 114.543 626.796 114.21Z" fill="#E61A6B"/>
<path fill-rule="evenodd" clip-rule="evenodd" d="M585.204 156.79C579.267 157.161 572.818 157.547 568.604 153.158C563.902 148.26 562.08 140.912 563.438 134.118C564.825 127.177 569.321 121.144 575.559 118.368C581.493 115.728 588.283 117.146 593.822 120.599C598.773 123.685 601.433 129.26 602.528 135.178C603.572 140.812 603.02 146.834 599.494 151.232C596.059 155.517 590.542 156.457 585.204 156.79Z" fill="#E61A6B"/>
<path fill-rule="evenodd" clip-rule="evenodd" d="M840.799 237.036C847.965 237.556 850.227 244.487 854.165 249.188C857.37 253.014 861.473 256.543 860.956 261.096C860.345 266.47 857.277 271.807 851.289 274.504C844.811 277.422 836.423 278.005 829.972 275.051C823.941 272.29 822.786 266.302 821.623 260.921C820.573 256.065 820.557 251.166 823.907 246.993C827.849 242.083 833.407 236.5 840.799 237.036Z" fill="#E61A6B"/>
<path fill-rule="evenodd" clip-rule="evenodd" d="M654.201 104.964C647.035 104.444 644.773 97.5131 640.835 92.8123C637.63 88.9863 633.527 85.4573 634.044 80.9041C634.655 75.5297 637.723 70.1927 643.711 67.4957C650.189 64.5778 658.577 63.9948 665.028 66.9487C671.059 69.7101 672.214 75.6979 673.377 81.0787C674.427 85.9346 674.443 90.834 671.093 95.0071C667.151 99.9168 661.593 105.5 654.201 104.964Z" fill="#E61A6B"/>
<path fill-rule="evenodd" clip-rule="evenodd" d="M609.697 288.101C616.674 287.56 624.067 289.154 628.559 293.901C633.153 298.757 633.95 305.594 632.015 311.687C630.192 317.425 624.956 321.447 618.948 324.158C612.713 326.971 605.075 329.823 599.162 326.511C593.536 323.359 595.118 316.139 594.225 310.307C593.492 305.519 591.707 300.649 594.573 296.534C597.861 291.816 603.448 288.585 609.697 288.101Z" fill="#E61A6B"/>
<path fill-rule="evenodd" clip-rule="evenodd" d="M682.303 281.899C675.326 282.44 667.933 280.846 663.441 276.099C658.847 271.243 658.05 264.406 659.985 258.313C661.808 252.575 667.044 248.553 673.052 245.842C679.287 243.029 686.925 240.177 692.838 243.489C698.464 246.641 696.882 253.861 697.775 259.693C698.508 264.481 700.293 269.351 697.427 273.466C694.139 278.184 688.552 281.415 682.303 281.899Z" fill="#E61A6B"/>
<path fill-rule="evenodd" clip-rule="evenodd" d="M735.04 295.106C741.168 295.735 745.425 301.134 749.104 306.477C752.582 311.528 756.3 317.435 754.555 323.445C752.892 329.17 746.609 330.86 741.415 332.956C737.044 334.72 732.513 335.905 728.156 334.101C723.276 332.08 719.229 328.272 717.354 322.993C715.053 316.514 713.551 308.922 717.18 303.2C721.024 297.139 728.28 294.412 735.04 295.106Z" fill="#E61A6B"/>
<path fill-rule="evenodd" clip-rule="evenodd" d="M853.96 195.895C847.832 195.265 843.575 189.866 839.896 184.523C836.418 179.472 832.7 173.566 834.445 167.556C836.108 161.83 842.391 160.141 847.585 158.044C851.956 156.28 856.487 155.095 860.844 156.9C865.724 158.92 869.771 162.728 871.646 168.008C873.947 174.487 875.449 182.078 871.82 187.801C867.976 193.861 860.72 196.589 853.96 195.895Z" fill="#E61A6B"/>
<path fill-rule="evenodd" clip-rule="evenodd" d="M734.406 217.623C740.409 217.089 747.268 213.726 751.551 218.62C756.079 223.795 755.48 232.476 753.542 239.49C751.803 245.784 747.241 250.041 742.084 252.882C736.962 255.704 731.189 257.28 725.982 254.674C720.535 251.948 716.462 246.216 715.307 239.48C714.188 232.954 716.189 226.081 720.277 221.402C723.893 217.264 729.335 218.074 734.406 217.623Z" fill="#E61A6B"/>
<path fill-rule="evenodd" clip-rule="evenodd" d="M763.594 162.377C757.591 162.911 750.732 166.274 746.449 161.38C741.921 156.205 742.52 147.524 744.458 140.51C746.197 134.216 750.759 129.959 755.916 127.118C761.038 124.296 766.811 122.72 772.018 125.326C777.465 128.052 781.538 133.784 782.693 140.52C783.812 147.046 781.811 153.919 777.723 158.598C774.107 162.736 768.665 161.926 763.594 162.377Z" fill="#E61A6B"/>
<path fill-rule="evenodd" clip-rule="evenodd" d="M805.183 97.0978C812.147 97.7056 816.959 102.904 820.679 108.083C823.802 112.43 824.719 117.507 823.445 122.517C822.16 127.572 819.137 132.264 813.911 134.708C808.411 137.28 801.562 137.977 796.134 135.291C791.01 132.755 790.364 127.09 788.6 122.183C786.504 116.347 781.747 110.287 785.249 104.99C789.087 99.1843 797.546 96.4312 805.183 97.0978Z" fill="#E61A6B"/>
<path fill-rule="evenodd" clip-rule="evenodd" d="M777.817 228.902C770.853 228.294 766.041 223.096 762.321 217.917C759.198 213.57 758.281 208.493 759.555 203.483C760.84 198.428 763.863 193.736 769.089 191.292C774.589 188.72 781.438 188.023 786.866 190.709C791.99 193.245 792.636 198.91 794.4 203.817C796.496 209.653 801.253 215.713 797.751 221.01C793.913 226.816 785.454 229.569 777.817 228.902Z" fill="#E61A6B"/>
<path fill-rule="evenodd" clip-rule="evenodd" d="M489.017 216.853C489.267 223.384 493.493 228.889 498.827 232.844C503.985 236.669 510.512 239.237 516.706 237.385C522.522 235.646 525.511 229.8 527.617 224.235C529.432 219.44 529.627 214.196 527.198 209.668C524.864 205.317 520.211 203.251 515.473 201.592C509.502 199.502 503 196.137 497.54 199.287C491.525 202.756 488.756 210.042 489.017 216.853Z" stroke="#282552" stroke-width="3"/>
<path fill-rule="evenodd" clip-rule="evenodd" d="M699 296.861C699.042 290.401 702.975 285.132 707.445 281.098C711.924 277.056 717.306 274.112 722.952 275.244C728.92 276.441 734.075 280.844 736.763 286.977C739.488 293.19 739.993 300.849 736.762 306.745C733.803 312.145 727.552 312.721 722.021 313.877C716.916 314.943 711.585 316.124 707.241 312.913C702.419 309.349 698.959 303.368 699 296.861Z" stroke="#282552" stroke-width="3"/>
<path fill-rule="evenodd" clip-rule="evenodd" d="M530.261 129.901C531.507 124.307 538.467 122.66 543.285 119.434C546.718 117.135 549.798 114.304 553.945 114.041C558.364 113.761 562.956 114.904 566.076 117.989C569.188 121.066 569.85 125.566 569.984 129.901C570.124 134.414 569.358 138.783 566.836 142.558C563.545 147.482 559.895 153.16 553.945 153.9C547.628 154.686 541.745 150.72 537.314 146.231C532.958 141.817 528.923 135.905 530.261 129.901Z" stroke="#282552" stroke-width="3"/>
<path fill-rule="evenodd" clip-rule="evenodd" d="M590.028 204.553C590.111 198.795 590.704 192.835 595.025 188.852C599.821 184.432 606.547 182.103 613.065 183.322C619.826 184.586 625.644 189.034 628.427 195.098C631.11 200.944 630.226 207.779 626.801 213.254C623.725 218.174 617.808 219.985 612.013 221.344C606.064 222.738 599.359 224.475 594.563 220.811C589.758 217.142 589.943 210.456 590.028 204.553Z" stroke="#282552" stroke-width="3"/>
<path fill-rule="evenodd" clip-rule="evenodd" d="M648.553 77.9721C642.795 77.8888 636.835 77.2963 632.852 72.9751C628.432 68.1789 626.103 61.4527 627.322 54.9346C628.586 48.1741 633.034 42.3557 639.098 39.5728C644.944 36.8901 651.779 37.7744 657.254 41.1987C662.174 44.2755 663.985 50.1916 665.344 55.9874C666.738 61.9363 668.475 68.6408 664.811 73.4373C661.142 78.2417 654.456 78.0574 648.553 77.9721Z" stroke="#282552" stroke-width="3"/>
<path fill-rule="evenodd" clip-rule="evenodd" d="M728.107 154.52C727.584 149.24 728.937 143.477 733.021 139.984C736.951 136.625 742.671 137.752 747.889 137.607C753.368 137.455 759.473 135.638 763.628 139.132C767.92 142.741 767.991 148.986 768 154.52C768.009 160.066 767.422 165.79 763.678 169.956C759.718 174.361 753.84 177.632 747.889 176.896C742.312 176.207 739.321 170.649 735.645 166.491C732.387 162.805 728.587 159.368 728.107 154.52Z" stroke="#282552" stroke-width="3"/>
<path fill-rule="evenodd" clip-rule="evenodd" d="M624.52 133.893C619.24 134.416 613.477 133.063 609.984 128.979C606.625 125.049 607.752 119.329 607.607 114.111C607.455 108.632 605.638 102.527 609.132 98.3717C612.741 94.0805 618.986 94.009 624.52 94.0001C630.066 93.9912 635.79 94.5783 639.956 98.3224C644.361 102.282 647.632 108.16 646.896 114.111C646.207 119.688 640.649 122.679 636.491 126.355C632.805 129.613 629.368 133.413 624.52 133.893Z" stroke="#282552" stroke-width="3"/>
<path fill-rule="evenodd" clip-rule="evenodd" d="M638.401 249.252C638.244 243.345 636.484 236.313 641.836 232.671C647.168 229.042 654.578 232.223 661.102 233.803C667.042 235.241 673.695 236.335 676.562 241.081C679.513 245.967 677.388 251.654 674.966 256.755C672.286 262.399 669.358 268.757 662.614 270.46C655.567 272.238 647.86 269.429 642.691 264.902C638.119 260.897 638.55 254.893 638.401 249.252Z" stroke="#282552" stroke-width="3"/>
<path fill-rule="evenodd" clip-rule="evenodd" d="M671.252 166.599C665.345 166.756 658.312 168.516 654.67 163.164C651.041 157.832 654.222 150.422 655.802 143.898C657.241 137.958 658.335 131.305 663.081 128.438C667.966 125.487 673.654 127.612 678.754 130.034C684.398 132.714 690.757 135.642 692.459 142.386C694.238 149.433 691.429 157.14 686.901 162.309C682.897 166.881 676.892 166.45 671.252 166.599Z" stroke="#282552" stroke-width="3"/>
<path fill-rule="evenodd" clip-rule="evenodd" d="M691.21 202.204C690.839 196.267 690.453 189.818 694.842 185.604C699.74 180.902 707.088 179.08 713.882 180.438C720.823 181.825 726.856 186.321 729.632 192.559C732.272 198.493 730.854 205.283 727.401 210.822C724.315 215.773 718.74 218.432 712.822 219.528C707.188 220.572 701.166 220.019 696.768 216.494C692.483 213.059 691.543 207.541 691.21 202.204Z" stroke="#282552" stroke-width="3"/>
<path fill-rule="evenodd" clip-rule="evenodd" d="M815.036 279.201C815.556 272.035 822.487 269.773 827.188 265.835C831.014 262.63 834.543 258.527 839.096 259.044C844.47 259.655 849.807 262.723 852.504 268.711C855.422 275.189 856.005 283.577 853.051 290.028C850.29 296.059 844.302 297.214 838.921 298.377C834.065 299.427 829.166 299.443 824.993 296.093C820.083 292.151 814.5 286.593 815.036 279.201Z" stroke="#282552" stroke-width="3"/>
<path fill-rule="evenodd" clip-rule="evenodd" d="M787.101 203.303C786.56 196.326 788.154 188.933 792.901 184.441C797.757 179.846 804.594 179.05 810.687 180.985C816.425 182.807 820.447 188.044 823.158 194.051C825.971 200.287 828.823 207.925 825.511 213.837C822.359 219.463 815.139 217.882 809.307 218.775C804.519 219.508 799.649 221.293 795.534 218.427C790.816 215.139 787.585 209.551 787.101 203.303Z" stroke="#282552" stroke-width="3"/>
<path fill-rule="evenodd" clip-rule="evenodd" d="M763.106 111.96C763.735 105.832 769.134 101.575 774.477 97.8956C779.528 94.4175 785.435 90.6997 791.445 92.4449C797.17 94.1075 798.86 100.391 800.956 105.585C802.72 109.956 803.905 114.487 802.101 118.844C800.08 123.724 796.272 127.771 790.993 129.646C784.514 131.947 776.922 133.449 771.2 129.82C765.139 125.976 762.412 118.72 763.106 111.96Z" stroke="#282552" stroke-width="3"/>
<path fill-rule="evenodd" clip-rule="evenodd" d="M571.623 272.594C571.089 266.591 567.726 259.732 572.62 255.449C577.795 250.921 586.476 251.52 593.49 253.458C599.784 255.197 604.041 259.759 606.882 264.916C609.704 270.038 611.28 275.811 608.674 281.018C605.948 286.465 600.216 290.538 593.48 291.693C586.954 292.812 580.081 290.811 575.402 286.723C571.264 283.107 572.074 277.665 571.623 272.594Z" stroke="#282552" stroke-width="3"/>
<path fill-rule="evenodd" clip-rule="evenodd" d="M827.098 165.817C827.706 158.853 832.904 154.041 838.083 150.321C842.43 147.198 847.507 146.281 852.517 147.555C857.572 148.84 862.264 151.863 864.708 157.089C867.28 162.589 867.977 169.438 865.291 174.866C862.755 179.99 857.09 180.636 852.183 182.4C846.347 184.496 840.287 189.253 834.99 185.751C829.184 181.913 826.431 173.454 827.098 165.817Z" stroke="#282552" stroke-width="3"/>
<path fill-rule="evenodd" clip-rule="evenodd" d="M540.861 200C534.401 199.958 529.132 196.025 525.098 191.555C521.056 187.076 518.112 181.694 519.244 176.048C520.441 170.08 524.844 164.925 530.977 162.237C537.19 159.512 544.849 159.007 550.745 162.238C556.145 165.197 556.721 171.448 557.877 176.979C558.943 182.084 560.124 187.415 556.913 191.759C553.349 196.581 547.368 200.041 540.861 200Z" fill="#534DAC"/>
<path fill-rule="evenodd" clip-rule="evenodd" d="M762.739 74.0992C761.493 79.6934 754.533 81.3397 749.715 84.5662C746.282 86.8651 743.202 89.6963 739.055 89.9591C734.636 90.2393 730.044 89.0965 726.924 86.0108C723.812 82.9337 723.15 78.4337 723.016 74.0992C722.876 69.5862 723.642 65.2166 726.164 61.4418C729.455 56.518 733.105 50.8402 739.055 50.1C745.372 49.3142 751.255 53.2797 755.686 57.7693C760.042 62.1834 764.077 68.0947 762.739 74.0992Z" fill="#534DAC"/>
<path fill-rule="evenodd" clip-rule="evenodd" d="M698.972 196.447C698.889 202.205 698.296 208.165 693.975 212.148C689.179 216.568 682.453 218.897 675.935 217.678C669.174 216.414 663.356 211.966 660.573 205.902C657.89 200.056 658.774 193.221 662.199 187.746C665.275 182.826 671.192 181.015 676.987 179.656C682.936 178.262 689.641 176.525 694.437 180.189C699.242 183.858 699.057 190.544 698.972 196.447Z" fill="#534DAC"/>
<path fill-rule="evenodd" clip-rule="evenodd" d="M653.893 302.48C654.416 307.76 653.063 313.523 648.979 317.016C645.049 320.375 639.329 319.248 634.111 319.393C628.632 319.545 622.527 321.362 618.372 317.868C614.08 314.259 614.009 308.014 614 302.48C613.991 296.934 614.578 291.21 618.322 287.044C622.282 282.639 628.16 279.368 634.111 280.104C639.688 280.793 642.679 286.351 646.355 290.509C649.613 294.195 653.413 297.632 653.893 302.48Z" fill="#534DAC"/>
<path fill-rule="evenodd" clip-rule="evenodd" d="M802.599 269.748C802.756 275.655 804.516 282.687 799.164 286.329C793.832 289.958 786.422 286.777 779.898 285.197C773.958 283.759 767.305 282.665 764.438 277.919C761.487 273.033 763.612 267.346 766.034 262.245C768.714 256.601 771.642 250.243 778.386 248.54C785.433 246.762 793.14 249.571 798.309 254.098C802.881 258.103 802.45 264.107 802.599 269.748Z" fill="#534DAC"/>
<path d="M487.58 78H490.7C490.98 78 491.14 77.9 491.14 77.72V77.66C491.14 77.22 490.34 77.12 490.34 76.34V64.88H492.52C493.64 64.88 493.9 67.12 494.6 67.12H494.84C495.08 67.12 495.24 66.96 495.18 66.68L494.74 64.3C494.68 63.96 494.52 63.8 494.16 63.8H484.12C483.76 63.8 483.6 63.96 483.56 64.3L483.2 66.66C483.16 66.96 483.3 67.12 483.54 67.12H483.78C484.48 67.12 484.64 64.88 485.76 64.88H487.94V76.34C487.94 77.12 487.16 77.22 487.16 77.66V77.72C487.16 77.9 487.32 78 487.58 78ZM499.884 68.2C498.604 68.2 497.664 68.9 497.224 70.18V68.62C497.224 68.28 497.064 68.08 496.644 68.28L494.684 69.18C494.464 69.3 494.324 69.44 494.324 69.6V69.66C494.324 70.1 495.184 70.14 495.184 70.96V76.34C495.184 77.12 494.424 77.2 494.424 77.64V77.72C494.424 77.9 494.584 78 494.844 78H497.944C498.204 78 498.364 77.9 498.364 77.72V77.64C498.364 77.2 497.444 77.12 497.444 76.34V72.06C497.444 70.76 497.884 69.58 498.824 69.58C499.984 69.58 499.384 71.14 500.684 71.14C501.444 71.14 501.724 70.56 501.724 69.88C501.724 68.96 501.064 68.2 499.884 68.2ZM507.613 78.2C510.513 78.2 512.433 76 512.433 73.26C512.433 70.5 510.313 68.2 507.153 68.2C504.413 68.2 502.193 70.26 502.193 73.1C502.193 75.76 504.213 78.2 507.613 78.2ZM507.913 77.44C505.893 77.44 504.553 74.8 504.553 72.32C504.553 70.12 505.473 68.96 506.893 68.96C508.733 68.96 510.073 71.28 510.073 74.08C510.073 76.24 509.153 77.44 507.913 77.44ZM523.699 76.32L523.459 72.54C523.259 69.4 521.539 68.2 519.659 68.2C518.279 68.2 517.179 68.86 516.619 69.94V68.64C516.619 68.3 516.419 68.06 515.999 68.28L514.059 69.22C513.839 69.32 513.699 69.42 513.699 69.58V69.64C513.699 70.08 514.599 70.1 514.599 70.98V76.34C514.599 77.12 513.799 77.2 513.799 77.64V77.72C513.799 77.9 513.959 78.02 514.219 78.02H517.319C517.599 78.02 517.759 77.9 517.759 77.72V77.64C517.759 77.2 516.939 77.12 516.939 76.34V71.64C516.939 70.2 517.759 69.16 519.039 69.16C520.259 69.16 521.039 70.18 521.139 72.46L521.339 76.32C521.379 77.12 520.619 77.2 520.619 77.64V77.72C520.619 77.9 520.779 78.02 521.059 78.02H523.979C524.239 78.02 524.419 77.9 524.419 77.72V77.64C524.419 77.2 523.739 77.12 523.699 76.32ZM534.996 76.34V63.36C534.996 62.96 534.776 62.84 534.296 63L532.176 63.68C531.956 63.76 531.816 63.9 531.816 64.08V64.12C531.816 64.56 532.736 64.58 532.736 65.46V69.22C532.096 68.6 531.196 68.2 530.116 68.2C527.496 68.2 525.416 70.24 525.416 73.18C525.416 76.3 527.636 78.2 530.076 78.2C531.176 78.2 532.216 77.76 532.876 76.92L532.936 77.62C532.956 77.84 533.096 78 533.336 78H535.416C535.636 78 535.756 77.9 535.756 77.72V77.66C535.756 77.24 534.996 77.12 534.996 76.34ZM530.616 77.44C528.796 77.4 527.636 75.08 527.696 72.36C527.736 70.24 528.716 68.96 530.196 68.96C531.596 68.96 532.736 70.38 532.736 71.66V74.86C532.736 76.6 531.596 77.44 530.616 77.44ZM546.8 76.3L546.56 72.42C546.38 69.4 544.66 68.2 542.78 68.2C541.58 68.2 540.58 68.7 539.98 69.54L540 63.32C540 62.96 539.76 62.82 539.36 63L537.22 63.94C537 64.04 536.88 64.18 536.88 64.36V64.42C536.88 64.82 537.72 64.88 537.72 65.72V76.34C537.72 77.12 536.92 77.18 536.92 77.64V77.7C536.92 77.88 537.08 78 537.34 78H540.44C540.7 78 540.88 77.88 540.88 77.7V77.64C540.88 77.18 540.06 77.12 540.06 76.34V71.64C540.06 70.2 540.88 69.16 542.16 69.16C543.38 69.16 544.16 70.18 544.26 72.36L544.46 76.32C544.5 77.1 543.74 77.18 543.74 77.64V77.72C543.74 77.9 543.9 78 544.16 78H547.1C547.36 78 547.52 77.9 547.52 77.72V77.64C547.52 77.18 546.86 77.1 546.8 76.3ZM556.701 75.06C556.301 75.86 555.401 76.52 554.141 76.52C552.721 76.52 551.701 75.68 551.201 74.32L556.041 72.54C556.661 72.32 557.061 71.9 557.061 71.14C557.061 69.74 555.901 68.2 553.321 68.2C550.681 68.2 548.541 70.26 548.541 73.12C548.541 76.22 550.601 78.2 553.281 78.2C555.821 78.2 557.161 76.44 557.341 75.26C557.381 74.86 556.921 74.78 556.701 75.06ZM552.921 68.96C554.081 68.96 554.821 70.4 554.821 71.22C554.821 71.62 554.661 71.9 554.301 72.06L550.981 73.5C550.901 73.1 550.861 72.68 550.861 72.22C550.861 70.3 551.661 68.96 552.921 68.96ZM560.465 66.74C561.445 66.74 562.085 66.12 562.085 65.24C562.085 64.38 561.445 63.74 560.465 63.74C559.465 63.74 558.805 64.38 558.805 65.24C558.805 66.12 559.465 66.74 560.465 66.74ZM558.985 78H562.025C562.285 78 562.465 77.88 562.465 77.7V77.62C562.465 77.18 561.645 77.1 561.645 76.32V68.62C561.645 68.3 561.385 68.06 560.925 68.28L558.925 69.28C558.705 69.4 558.565 69.48 558.565 69.64V69.7C558.565 70.06 559.305 70.26 559.305 71.08V76.32C559.305 77.1 558.565 77.18 558.565 77.62V77.7C558.565 77.88 558.725 78 558.985 78ZM580.118 76.32L579.878 72.62C579.658 69.34 578.058 68.2 576.138 68.2C574.738 68.2 573.538 68.92 573.018 70.18C572.338 68.9 571.078 68.2 569.638 68.2C568.398 68.2 567.358 68.84 566.778 69.82V68.64C566.778 68.3 566.558 68.06 566.138 68.28L564.098 69.22C563.878 69.32 563.738 69.42 563.738 69.58V69.64C563.738 70.08 564.618 70.14 564.618 70.98V76.34C564.618 77.12 563.818 77.22 563.818 77.66V77.74C563.818 77.92 563.998 78.02 564.258 78.02H567.358C567.618 78.02 567.778 77.92 567.778 77.74V77.66C567.778 77.22 566.978 77.12 566.978 76.34L566.958 71.54C567.018 70.2 567.818 69.16 569.058 69.16C570.258 69.16 571.158 70.3 571.158 72.34V76.34C571.158 77.12 570.458 77.22 570.458 77.66V77.74C570.458 77.92 570.638 78.02 570.898 78.02H573.798C574.058 78.02 574.218 77.92 574.218 77.74V77.66C574.218 77.22 573.518 77.12 573.518 76.34V72.48C573.518 72.14 573.498 71.82 573.438 71.52C573.498 70.16 574.338 69.16 575.438 69.16C576.698 69.16 577.438 70.08 577.558 72.56L577.758 76.34C577.798 77.12 577.058 77.22 577.058 77.66V77.74C577.058 77.92 577.218 78.02 577.478 78.02H580.418C580.658 78.02 580.838 77.92 580.838 77.74V77.66C580.838 77.22 580.158 77.12 580.118 76.32Z" fill="#282552"/>
<path fill-rule="evenodd" clip-rule="evenodd" d="M67.5199 437.893C62.2397 438.415 56.4766 437.063 52.9845 432.978C49.6247 429.049 50.7523 423.329 50.607 418.111C50.4545 412.632 48.6381 406.526 52.1323 402.372C55.7412 398.08 61.9859 398.009 67.5199 398C73.0656 397.991 78.7898 398.578 82.9558 402.322C87.3614 406.282 90.632 412.159 89.8963 418.111C89.2069 423.688 83.6489 426.679 79.4906 430.355C75.8053 433.613 72.3684 437.413 67.5199 437.893Z" fill="#E61A6B"/>
<path fill-rule="evenodd" clip-rule="evenodd" d="M300.748 345.4C306.655 345.244 313.687 343.484 317.329 348.835C320.958 354.168 317.777 361.578 316.197 368.102C314.759 374.041 313.665 380.695 308.919 383.562C304.033 386.513 298.346 384.387 293.245 381.966C287.601 379.286 281.243 376.358 279.54 369.613C277.762 362.566 280.571 354.86 285.098 349.691C289.103 345.119 295.107 345.55 300.748 345.4Z" fill="#E61A6B"/>
<path fill-rule="evenodd" clip-rule="evenodd" d="M142.204 320.79C136.267 321.161 129.818 321.547 125.604 317.158C120.902 312.26 119.08 304.912 120.438 298.118C121.825 291.177 126.321 285.144 132.559 282.368C138.493 279.728 145.283 281.146 150.822 284.599C155.773 287.685 158.433 293.26 159.528 299.178C160.572 304.812 160.02 310.834 156.494 315.232C153.059 319.517 147.542 320.457 142.204 320.79Z" fill="#E61A6B"/>
<path fill-rule="evenodd" clip-rule="evenodd" d="M164.036 354.2C164.556 347.035 171.487 344.773 176.188 340.835C180.014 337.63 183.543 333.527 188.096 334.044C193.471 334.655 198.808 337.723 201.505 343.711C204.423 350.189 205.006 358.576 202.052 365.028C199.29 371.059 193.303 372.214 187.922 373.377C183.066 374.426 178.166 374.443 173.993 371.093C169.084 367.151 163.5 361.593 164.036 354.2Z" fill="#E61A6B"/>
<path fill-rule="evenodd" clip-rule="evenodd" d="M249.899 402.696C250.44 409.674 248.846 417.066 244.099 421.558C239.243 426.153 232.406 426.95 226.313 425.015C220.575 423.192 216.553 417.956 213.842 411.948C211.029 405.713 208.177 398.075 211.489 392.162C214.641 386.536 221.861 388.117 227.693 387.225C232.481 386.492 237.351 384.706 241.466 387.573C246.184 390.86 249.415 396.448 249.899 402.696Z" fill="#E61A6B"/>
<path fill-rule="evenodd" clip-rule="evenodd" d="M165.106 486.96C165.735 480.831 171.134 476.575 176.477 472.895C181.528 469.417 187.435 465.699 193.445 467.445C199.17 469.107 200.86 475.391 202.956 480.584C204.72 484.955 205.905 489.487 204.101 493.844C202.08 498.724 198.272 502.771 192.993 504.646C186.514 506.947 178.922 508.449 173.2 504.82C167.139 500.976 164.412 493.719 165.106 486.96Z" fill="#E61A6B"/>
<path fill-rule="evenodd" clip-rule="evenodd" d="M124.594 397.377C118.591 397.911 111.732 401.274 107.449 396.38C102.921 391.205 103.52 382.524 105.458 375.51C107.197 369.215 111.759 364.959 116.916 362.118C122.038 359.296 127.811 357.719 133.018 360.325C138.465 363.052 142.538 368.784 143.693 375.519C144.812 382.045 142.811 388.919 138.723 393.598C135.107 397.736 129.665 396.926 124.594 397.377Z" fill="#E61A6B"/>
<path fill-rule="evenodd" clip-rule="evenodd" d="M263.183 440.098C270.147 440.705 274.959 445.904 278.679 451.082C281.802 455.43 282.719 460.506 281.445 465.517C280.16 470.571 277.137 475.263 271.911 477.707C266.411 480.28 259.562 480.977 254.134 478.291C249.01 475.755 248.364 470.09 246.6 465.182C244.504 459.347 239.747 453.287 243.249 447.99C247.087 442.184 255.546 439.431 263.183 440.098Z" fill="#E61A6B"/>
<path fill-rule="evenodd" clip-rule="evenodd" d="M179.983 488.147C179.733 481.616 175.507 476.111 170.173 472.156C165.015 468.331 158.488 465.762 152.294 467.615C146.478 469.354 143.489 475.2 141.383 480.765C139.568 485.559 139.373 490.804 141.802 495.332C144.136 499.682 148.789 501.749 153.527 503.407C159.498 505.497 166 508.863 171.46 505.713C177.475 502.244 180.244 494.958 179.983 488.147Z" stroke="#282552" stroke-width="3"/>
<path fill-rule="evenodd" clip-rule="evenodd" d="M111 431.861C111.042 425.401 114.975 420.132 119.445 416.098C123.924 412.056 129.306 409.112 134.952 410.244C140.92 411.441 146.075 415.843 148.763 421.976C151.488 428.19 151.993 435.849 148.762 441.745C145.803 447.144 139.552 447.721 134.021 448.876C128.916 449.943 123.585 451.124 119.241 447.913C114.419 444.349 110.959 438.367 111 431.861Z" stroke="#282552" stroke-width="3"/>
<path fill-rule="evenodd" clip-rule="evenodd" d="M180.901 419.739C175.307 418.493 173.66 411.533 170.434 406.715C168.135 403.282 165.304 400.202 165.041 396.055C164.761 391.635 165.904 387.044 168.989 383.924C172.066 380.812 176.566 380.149 180.901 380.016C185.414 379.876 189.783 380.641 193.558 383.164C198.482 386.455 204.16 390.105 204.9 396.055C205.686 402.371 201.72 408.255 197.231 412.686C192.817 417.042 186.905 421.077 180.901 419.739Z" stroke="#282552" stroke-width="3"/>
<path fill-rule="evenodd" clip-rule="evenodd" d="M162.448 314.028C168.206 314.111 174.166 314.703 178.149 319.025C182.569 323.821 184.898 330.547 183.679 337.065C182.415 343.826 177.967 349.644 171.903 352.427C166.057 355.11 159.222 354.225 153.747 350.801C148.827 347.724 147.016 341.808 145.657 336.012C144.263 330.063 142.526 323.359 146.19 318.562C149.859 313.758 156.545 313.942 162.448 314.028Z" stroke="#282552" stroke-width="3"/>
<path fill-rule="evenodd" clip-rule="evenodd" d="M239.52 354.893C234.24 355.415 228.477 354.063 224.984 349.978C221.625 346.049 222.752 340.329 222.607 335.111C222.455 329.632 220.638 323.526 224.132 319.372C227.741 315.08 233.986 315.009 239.52 315C245.066 314.991 250.79 315.578 254.956 319.322C259.361 323.282 262.632 329.159 261.896 335.111C261.207 340.688 255.649 343.679 251.491 347.355C247.805 350.613 244.368 354.413 239.52 354.893Z" stroke="#282552" stroke-width="3"/>
<path fill-rule="evenodd" clip-rule="evenodd" d="M70.4007 364.252C70.2439 358.345 68.484 351.313 73.8357 347.67C79.1682 344.041 86.5783 347.222 93.1019 348.802C99.0415 350.241 105.695 351.335 108.562 356.081C111.513 360.967 109.388 366.654 106.966 371.755C104.286 377.399 101.358 383.757 94.6135 385.459C87.5667 387.238 79.8601 384.429 74.6908 379.901C70.1191 375.897 70.5503 369.892 70.4007 364.252Z" stroke="#282552" stroke-width="3"/>
<path fill-rule="evenodd" clip-rule="evenodd" d="M290.79 477.796C291.161 483.733 291.547 490.181 287.158 494.395C282.26 499.098 274.912 500.92 268.118 499.562C261.177 498.174 255.144 493.679 252.368 487.44C249.728 481.507 251.146 474.717 254.599 469.178C257.685 464.227 263.26 461.567 269.178 460.471C274.812 459.428 280.834 459.98 285.232 463.506C289.517 466.941 290.457 472.458 290.79 477.796Z" stroke="#282552" stroke-width="3"/>
<path fill-rule="evenodd" clip-rule="evenodd" d="M250.036 389.2C250.556 382.035 257.487 379.773 262.188 375.835C266.014 372.63 269.543 368.527 274.096 369.044C279.47 369.655 284.807 372.723 287.504 378.711C290.422 385.189 291.005 393.576 288.051 400.028C285.29 406.059 279.302 407.214 273.921 408.377C269.065 409.426 264.166 409.443 259.993 406.093C255.083 402.151 249.5 396.593 250.036 389.2Z" stroke="#282552" stroke-width="3"/>
<path fill-rule="evenodd" clip-rule="evenodd" d="M98.0004 326.861C98.0418 320.401 101.975 315.132 106.445 311.098C110.924 307.056 116.306 304.112 121.952 305.244C127.92 306.441 133.075 310.843 135.763 316.976C138.488 323.19 138.993 330.849 135.762 336.745C132.803 342.144 126.552 342.721 121.021 343.876C115.916 344.943 110.585 346.124 106.241 342.913C101.419 339.349 97.9586 333.367 98.0004 326.861Z" fill="#534DAC"/>
<path fill-rule="evenodd" clip-rule="evenodd" d="M223.52 460.893C218.24 461.415 212.477 460.063 208.984 455.978C205.625 452.049 206.752 446.329 206.607 441.111C206.454 435.632 204.638 429.526 208.132 425.372C211.741 421.08 217.986 421.009 223.52 421C229.066 420.991 234.79 421.578 238.956 425.322C243.361 429.282 246.632 435.159 245.896 441.111C245.207 446.688 239.649 449.679 235.491 453.355C231.805 456.613 228.368 460.413 223.52 460.893Z" fill="#534DAC"/>
<path fill-rule="evenodd" clip-rule="evenodd" d="M171.964 416.799C171.444 423.965 164.513 426.227 159.812 430.165C155.986 433.37 152.457 437.473 147.904 436.955C142.53 436.345 137.193 433.277 134.496 427.289C131.578 420.81 130.995 412.423 133.949 405.972C136.71 399.941 142.698 398.786 148.079 397.623C152.935 396.573 157.834 396.556 162.007 399.907C166.917 403.848 172.5 409.407 171.964 416.799Z" fill="#534DAC"/>
<path fill-rule="evenodd" clip-rule="evenodd" d="M250.101 341.303C249.56 334.326 251.154 326.933 255.901 322.441C260.757 317.846 267.594 317.05 273.687 318.985C279.425 320.807 283.447 326.044 286.158 332.051C288.971 338.287 291.823 345.925 288.511 351.837C285.359 357.463 278.139 355.882 272.307 356.775C267.519 357.508 262.649 359.293 258.534 356.427C253.816 353.139 250.585 347.551 250.101 341.303Z" fill="#534DAC"/>
<path d="M76.8 484.2C80.68 484.2 83.66 481.06 83.66 476.98C83.66 473.04 80.9 469.6 76.7 469.6C72.56 469.6 69.7 472.68 69.7 476.9C69.7 480.8 72.56 484.2 76.8 484.2ZM77.44 483.12C74.22 483.12 72.08 479.52 72.08 475.1C72.08 472.52 73.58 470.68 75.86 470.68C79.08 470.68 81.28 474.3 81.28 478.74C81.28 481.12 79.72 483.12 77.44 483.12ZM89.0916 484.18C91.6716 484.18 93.2916 482.96 93.2916 481.4C93.2916 477.44 87.4716 479.18 87.4716 476.46C87.4716 475.6 88.1716 474.92 89.1516 474.92C91.2516 474.92 90.7116 477.44 92.1116 477.44C92.6316 477.44 93.0316 477.08 93.0316 476.58C93.0316 475.42 91.5316 474.2 89.0316 474.2C86.7316 474.2 85.1116 475.42 85.1116 477.04C85.1116 481.04 90.9316 479.26 90.9316 481.96C90.9316 482.98 90.1516 483.5 89.0916 483.5C86.7516 483.5 87.4116 480.96 85.9116 480.96C85.3316 480.96 84.9116 481.26 84.9116 481.88C84.9116 482.98 86.4716 484.18 89.0916 484.18ZM94.8647 484H97.9047C98.1647 484 98.3447 483.88 98.3447 483.7V483.64C98.3447 483.18 97.5247 483.12 97.5247 482.34V469.34C97.5247 469.04 97.2647 468.8 96.8047 469.02L94.7847 470.02C94.5847 470.12 94.4447 470.2 94.4447 470.38V470.44C94.4447 470.8 95.1847 470.96 95.1847 471.8V482.34C95.1847 483.12 94.4447 483.18 94.4447 483.64V483.7C94.4447 483.88 94.6047 484 94.8647 484ZM104.941 484.2C107.841 484.2 109.761 482 109.761 479.26C109.761 476.5 107.641 474.2 104.481 474.2C101.741 474.2 99.5214 476.26 99.5214 479.1C99.5214 481.76 101.541 484.2 104.941 484.2ZM105.241 483.44C103.221 483.44 101.881 480.8 101.881 478.32C101.881 476.12 102.801 474.96 104.221 474.96C106.061 474.96 107.401 477.28 107.401 480.08C107.401 482.24 106.481 483.44 105.241 483.44Z" fill="#282552"/>
<circle cx="460" cy="475" r="8" fill="#E61A6B"/>
<circle cx="574" cy="475" r="6.5" stroke="#423D89" stroke-width="3"/>
<circle cx="698" cy="475" r="8" fill="#534DAC"/>
<path d="M591.44 482H594.432C598.432 482 600.256 479.488 600.256 476.32V476.176C600.256 472.992 598.4 470.56 594.464 470.56H591.44V482ZM592.832 480.864V471.68H594.384C597.536 471.68 598.816 473.536 598.816 476.176V476.304C598.816 479.104 597.344 480.864 594.4 480.864H592.832ZM605.909 482.144C607.797 482.144 609.189 481.264 609.477 479.584H608.149C607.973 480.56 607.221 481.04 605.925 481.04C604.213 481.04 603.301 479.984 603.237 478.08H609.541V477.648C609.541 474.656 607.717 473.488 605.781 473.488C603.477 473.488 601.861 475.248 601.861 477.776V477.904C601.861 480.48 603.541 482.144 605.909 482.144ZM603.285 477.008C603.509 475.52 604.421 474.592 605.781 474.592C607.157 474.592 608.053 475.28 608.181 477.008H603.285ZM614.249 482.144C616.281 482.144 617.321 481.12 617.321 479.6C617.321 477.824 616.105 477.44 614.377 477.12C612.841 476.848 612.424 476.544 612.424 475.792C612.424 475.072 613.049 474.592 614.009 474.592C615.065 474.592 615.577 474.992 615.769 475.904H617.049C616.825 474.096 615.529 473.488 614.025 473.488C612.713 473.488 611.193 474.288 611.193 475.84C611.193 477.296 611.929 477.904 614.105 478.304C615.401 478.544 616.057 478.832 616.057 479.712C616.057 480.608 615.497 481.04 614.233 481.04C612.889 481.04 612.361 480.416 612.265 479.424H610.969C611.049 481.136 612.249 482.144 614.249 482.144ZM620.016 471.888C620.496 471.888 620.896 471.488 620.896 471.008C620.896 470.528 620.496 470.128 620.016 470.128C619.536 470.128 619.136 470.528 619.136 471.008C619.136 471.488 619.536 471.888 620.016 471.888ZM619.376 482H620.704V473.632H619.376V482ZM626.766 485.056C629.102 485.056 630.75 483.872 630.766 481.44V473.632H629.438V474.976C628.958 474.16 628.094 473.488 626.702 473.488C624.398 473.488 622.798 475.376 622.798 477.648V477.76C622.798 480.064 624.414 481.728 626.606 481.728C627.822 481.728 628.958 480.96 629.438 480.144V481.36C629.438 483.152 628.398 483.936 626.75 483.936C625.326 483.936 624.526 483.44 624.334 482.48H622.974C623.198 483.888 624.286 485.056 626.766 485.056ZM626.75 480.624C625.342 480.624 624.174 479.536 624.174 477.712V477.584C624.174 475.824 625.166 474.592 626.83 474.592C628.462 474.592 629.486 475.68 629.486 477.552V477.664C629.486 479.536 628.302 480.624 626.75 480.624ZM633.453 482H634.781V476.928C634.781 475.424 635.885 474.64 637.117 474.64C638.461 474.64 639.085 475.296 639.085 476.768V482H640.413V476.864C640.413 474.432 639.197 473.488 637.469 473.488C636.093 473.488 635.165 474.176 634.781 474.96V473.632H633.453V482ZM646.44 482.144C648.328 482.144 649.72 481.264 650.008 479.584H648.68C648.504 480.56 647.752 481.04 646.456 481.04C644.744 481.04 643.832 479.984 643.768 478.08H650.072V477.648C650.072 474.656 648.248 473.488 646.312 473.488C644.008 473.488 642.392 475.248 642.392 477.776V477.904C642.392 480.48 644.072 482.144 646.44 482.144ZM643.816 477.008C644.04 475.52 644.952 474.592 646.312 474.592C647.688 474.592 648.584 475.28 648.712 477.008H643.816ZM652.11 482H653.438V477.408C653.438 475.344 654.51 474.816 656.19 474.736V473.488C654.686 473.536 653.966 474.192 653.438 475.136V473.632H652.11V482ZM661.315 482.144C663.203 482.144 664.595 481.264 664.883 479.584H663.555C663.379 480.56 662.627 481.04 661.331 481.04C659.619 481.04 658.707 479.984 658.643 478.08H664.947V477.648C664.947 474.656 663.123 473.488 661.187 473.488C658.883 473.488 657.267 475.248 657.267 477.776V477.904C657.267 480.48 658.947 482.144 661.315 482.144ZM658.691 477.008C658.915 475.52 659.827 474.592 661.187 474.592C662.563 474.592 663.459 475.28 663.587 477.008H658.691Z" fill="#333333"/>
<path d="M715.44 482H716.832V477.344H718.688C720.864 477.344 722.688 476.4 722.688 473.968V473.904C722.688 471.52 720.88 470.56 718.688 470.56H715.44V482ZM716.832 476.24V471.68H718.784C720.336 471.68 721.296 472.288 721.296 473.904V473.968C721.296 475.44 720.416 476.24 718.784 476.24H716.832ZM724.641 482H725.969V477.408C725.969 475.344 727.041 474.816 728.721 474.736V473.488C727.217 473.536 726.497 474.192 725.969 475.136V473.632H724.641V482ZM733.894 482.144C736.278 482.144 738.022 480.4 738.022 477.872V477.744C738.022 475.232 736.278 473.488 733.91 473.488C731.542 473.488 729.798 475.248 729.798 477.76V477.888C729.798 480.336 731.51 482.144 733.894 482.144ZM733.91 481.04C732.214 481.04 731.174 479.792 731.174 477.888V477.76C731.174 475.84 732.23 474.592 733.91 474.592C735.574 474.592 736.646 475.84 736.646 477.776V477.888C736.646 479.776 735.59 481.04 733.91 481.04ZM742.67 482.144C744.702 482.144 745.742 481.12 745.742 479.6C745.742 477.824 744.526 477.44 742.798 477.12C741.262 476.848 740.846 476.544 740.846 475.792C740.846 475.072 741.47 474.592 742.43 474.592C743.486 474.592 743.998 474.992 744.19 475.904H745.47C745.246 474.096 743.95 473.488 742.446 473.488C741.134 473.488 739.614 474.288 739.614 475.84C739.614 477.296 740.35 477.904 742.526 478.304C743.822 478.544 744.478 478.832 744.478 479.712C744.478 480.608 743.918 481.04 742.654 481.04C741.31 481.04 740.782 480.416 740.686 479.424H739.39C739.47 481.136 740.67 482.144 742.67 482.144ZM748.438 471.888C748.918 471.888 749.318 471.488 749.318 471.008C749.318 470.528 748.918 470.128 748.438 470.128C747.958 470.128 747.558 470.528 747.558 471.008C747.558 471.488 747.958 471.888 748.438 471.888ZM746.566 485.056C748.422 484.992 749.126 484.128 749.126 482.528V473.632H747.798V482.64C747.798 483.376 747.51 483.856 746.566 483.936V485.056ZM755.268 482.144C757.156 482.144 758.548 481.264 758.836 479.584H757.508C757.332 480.56 756.58 481.04 755.284 481.04C753.572 481.04 752.66 479.984 752.596 478.08H758.9V477.648C758.9 474.656 757.076 473.488 755.14 473.488C752.836 473.488 751.22 475.248 751.22 477.776V477.904C751.22 480.48 752.9 482.144 755.268 482.144ZM752.644 477.008C752.868 475.52 753.78 474.592 755.14 474.592C756.516 474.592 757.412 475.28 757.54 477.008H752.644ZM760.938 482H762.266V477.664L765.978 482H767.594L763.706 477.52L767.29 473.632H765.738L762.266 477.488V469.632H760.938V482ZM771.732 482.112C772.276 482.112 772.596 482.032 772.868 481.936V480.816C772.58 480.928 772.26 480.992 771.844 480.992C771.172 480.992 770.804 480.592 770.804 479.776V474.752H772.756V473.632H770.804V471.728H769.476V473.632H768.276V474.752H769.476V479.904C769.476 481.216 770.212 482.112 771.732 482.112ZM774.907 482H776.251V469.632H774.907V482ZM782.393 482.144C784.281 482.144 785.673 481.264 785.961 479.584H784.633C784.457 480.56 783.705 481.04 782.409 481.04C780.697 481.04 779.785 479.984 779.721 478.08H786.025V477.648C786.025 474.656 784.201 473.488 782.265 473.488C779.961 473.488 778.345 475.248 778.345 477.776V477.904C778.345 480.48 780.025 482.144 782.393 482.144ZM779.769 477.008C779.993 475.52 780.905 474.592 782.265 474.592C783.641 474.592 784.537 475.28 784.665 477.008H779.769ZM791.215 482.144C792.431 482.144 793.599 481.376 794.079 480.56V482H795.407V469.632H794.079V474.976C793.599 474.16 792.735 473.488 791.343 473.488C789.039 473.488 787.439 475.296 787.439 477.856V477.984C787.439 480.592 789.023 482.144 791.215 482.144ZM791.359 481.04C789.951 481.04 788.815 480.032 788.815 477.92V477.792C788.815 475.76 789.807 474.592 791.471 474.592C793.103 474.592 794.127 475.6 794.127 477.744V477.872C794.127 480.016 792.911 481.04 791.359 481.04ZM801.518 482.144C803.406 482.144 804.798 481.264 805.086 479.584H803.758C803.582 480.56 802.83 481.04 801.534 481.04C799.822 481.04 798.91 479.984 798.846 478.08H805.15V477.648C805.15 474.656 803.326 473.488 801.39 473.488C799.086 473.488 797.47 475.248 797.47 477.776V477.904C797.47 480.48 799.15 482.144 801.518 482.144ZM798.894 477.008C799.118 475.52 800.03 474.592 801.39 474.592C802.766 474.592 803.662 475.28 803.79 477.008H798.894ZM807.188 482H808.516V477.408C808.516 475.344 809.588 474.816 811.268 474.736V473.488C809.764 473.536 809.044 474.192 808.516 475.136V473.632H807.188V482ZM816.393 482.144C818.281 482.144 819.673 481.264 819.961 479.584H818.633C818.457 480.56 817.705 481.04 816.409 481.04C814.697 481.04 813.785 479.984 813.721 478.08H820.025V477.648C820.025 474.656 818.201 473.488 816.265 473.488C813.961 473.488 812.345 475.248 812.345 477.776V477.904C812.345 480.48 814.025 482.144 816.393 482.144ZM813.769 477.008C813.993 475.52 814.905 474.592 816.265 474.592C817.641 474.592 818.537 475.28 818.665 477.008H813.769Z" fill="#333333"/>
<path d="M481.456 482.144C484.4 482.144 485.792 480.432 485.792 477.648V470.56H484.4V477.456C484.4 480.256 483.312 480.992 481.488 480.992C479.584 480.992 478.736 480.064 478.736 477.664V470.56H477.344V477.824C477.344 480.608 478.832 482.144 481.456 482.144ZM491.029 482.112C491.573 482.112 491.893 482.032 492.165 481.936V480.816C491.877 480.928 491.557 480.992 491.141 480.992C490.469 480.992 490.101 480.592 490.101 479.776V474.752H492.053V473.632H490.101V471.728H488.773V473.632H487.573V474.752H488.773V479.904C488.773 481.216 489.509 482.112 491.029 482.112ZM496.268 482H497.964L500.972 473.632H499.596L497.148 480.656L494.668 473.632H493.228L496.268 482ZM503.391 471.888C503.871 471.888 504.271 471.488 504.271 471.008C504.271 470.528 503.871 470.128 503.391 470.128C502.911 470.128 502.511 470.528 502.511 471.008C502.511 471.488 502.911 471.888 503.391 471.888ZM502.751 482H504.079V473.632H502.751V482ZM506.797 482H508.125V477.664L511.837 482H513.453L509.565 477.52L513.149 473.632H511.597L508.125 477.488V469.632H506.797V482ZM515.079 482H516.423V469.632H515.079V482ZM522.565 482.144C524.453 482.144 525.845 481.264 526.133 479.584H524.805C524.629 480.56 523.877 481.04 522.581 481.04C520.869 481.04 519.957 479.984 519.893 478.08H526.197V477.648C526.197 474.656 524.373 473.488 522.437 473.488C520.133 473.488 518.517 475.248 518.517 477.776V477.904C518.517 480.48 520.197 482.144 522.565 482.144ZM519.941 477.008C520.165 475.52 521.077 474.592 522.437 474.592C523.813 474.592 524.709 475.28 524.837 477.008H519.941ZM528.235 482H529.563V477.408C529.563 475.344 530.635 474.816 532.315 474.736V473.488C530.811 473.536 530.091 474.192 529.563 475.136V473.632H528.235V482ZM537.44 482.144C539.328 482.144 540.72 481.264 541.008 479.584H539.68C539.504 480.56 538.752 481.04 537.456 481.04C535.744 481.04 534.832 479.984 534.768 478.08H541.072V477.648C541.072 474.656 539.248 473.488 537.312 473.488C535.008 473.488 533.392 475.248 533.392 477.776V477.904C533.392 480.48 535.072 482.144 537.44 482.144ZM534.816 477.008C535.04 475.52 535.952 474.592 537.312 474.592C538.688 474.592 539.584 475.28 539.712 477.008H534.816Z" fill="#333333"/>
</svg>
