<svg width="1440" height="833" xmlns="http://www.w3.org/2000/svg" xmlns:xlink="http://www.w3.org/1999/xlink"><defs><path id="a" d="M0 0h1440v833H0z"/><path id="c" d="M.7.5h77.8v115.9H.7z"/><path id="e" d="M.8.1h193.6v100H.8z"/><path id="g" d="M0 .2h212.3v288H0z"/><path id="i" d="M.8.5h190.4v218.2H.8z"/><path id="k" d="M.7.3h123v215H.7z"/><path id="m" d="M.1.4h73.2v45H.1z"/><path id="o" d="M.5.8h158v113.3H.5z"/><path id="q" d="M0 .1h208V261H0z"/><path id="s" d="M0 .5h175.1V134H0z"/><path id="u" d="M.9.7h87.8v83.7H1z"/><path id="w" d="M.1.6h121.2v212.5H.1z"/><path id="y" d="M.1 0h133.4v153.6H.1z"/><path id="A" d="M0 0h175.2V120H.1z"/><path id="C" d="M0 .7h100.2V57H0z"/><path id="E" d="M.2 0h204v159.7H.2z"/><path id="G" d="M.1 0h248v218.8H0z"/><path id="I" d="M.2 0h56v95.4H.2z"/><path id="K" d="M.5 0h198.8v153.6H.5z"/><path id="M" d="M.6 0h171.1v129.4H.7z"/><path id="O" d="M.4.3h101.1v82.3H.4z"/><path id="Q" d="M.1.2h412.4v289.4H.1z"/><path id="S" d="M0 .5h121.6v178.8H0z"/></defs><g fill="none" fill-rule="evenodd"><mask id="b" fill="#fff"><use xlink:href="#a"/></mask><use fill="#D8D8D8" xlink:href="#a"/><g mask="url(#b)"><path fill="#03DAC6" d="M-887 833h2329V-836H-887z"/><path fill="#FFC4BC" d="M417.4 698H329V533h88.4L442 649z"/><path d="M275.7 652.8L321 623l59.7 103s-72.7 40.2-70 29.7c3.7-13.8 15-46 4.2-52.8-5.7-3.6-10.3 1.4-12.8 8.6-2.7 7.6-5.2 16.3-5.2 16.3l-17-48.5-18.3-14.1 14.1-12.5zM231.6 707.7c-3.2 1.1-43.3 32.9-43.3 32.9l8.4 39.4 51.6-13.6 16.2-53-32.9-5.7zM412.9 560.2s9 21.4-16 41.2c-6 4.8-11 9.8-9.9 13.2 1.4 3.8 9 3 12.9 1.1 6.8-3.3 16.7-2.8 21 4.9 5.5 10.1-.1 19.7-6.8 24.1-9.6 6.4-23.1 7.3-22 12 1.3 4.9 16.9-5 25.4 4.9 8.6 10 0 37 0 37S436 660 455 645.2c19-14.8 30.1-94.4 30.1-94.4l-55.8-16-16.4 25.4z" fill="#EDE8D7"/><g transform="translate(62.6 716.9)"><mask id="d" fill="#fff"><use xlink:href="#c"/></mask><path d="M.7 5.1s11.5 12.2 27.8-1.8c16.4-14 50 29.4 50 29.4l-10.8 80.4-28 28L.6 114V5.1z" fill="#EDE8D7" mask="url(#d)"/></g><path d="M-6.5 764.5S5 712.7-18.5 705c-23.6-7.6-35.3 27.8-35.3 40.5s-13.3 18.2 0 24.6c17 8.2 22.5 11.6 37.3 21.3 30.8 20.4 10-27 10-27M18.8 713c-13.6-1.2-13.8 27.2 0 26.8 13.7-.4 16.8-25.3 0-26.8M711.4 588.4l-20 39.9-117-27.1-2.2-91.2 48-25.7 31.4 4.5s18.6 2 25.7 12.5c35.7-15 34.1 87.1 34.1 87.1M754.9 583.8l-13.3 12 5.4 27.3 11.8-5 19.3-24.4zM995 565.9c-3.2 23.5-25.9 69.4-10.1 113.8 15.7 44.5-6.6 59.6-6.6 59.6l91.8 28.3 37.5-66.8-40.6-96-21-66.3-21.4-47.4h-76l-9.8 38.6 56.3 36.2z" fill="#EDE8D7"/><g transform="translate(1097.2 733.2)"><mask id="f" fill="#fff"><use xlink:href="#e"/></mask><path d="M124.2 111.7s7-67.4 70.2-57l-5.9-26.4L.8.1l43 115.6 80.4-4z" fill="#EDE8D7" mask="url(#f)"/></g><g transform="translate(1229.7 495.7)"><mask id="h" fill="#fff"><use xlink:href="#g"/></mask><path d="M97.2 288.2l27.3-11.7c2-22.4-50.1-40-41.9-61 8.3-20.8 95.3 17 129.7 48.4 34.5 31.4 19.3-54.4 19.3-54.4L185 185.8l-33.7 4-49.8-31.7-10.4-32.4 20-56 .6-69.5-82 77.2 19.6 33.4 1.2 20.5L0 220.5l71 64.8 26.2 2.9z" fill="#EDE8D7" mask="url(#h)"/></g><g transform="translate(1250.9 309.5)"><mask id="j" fill="#fff"><use xlink:href="#i"/></mask><path d="M105.3 56s19.2 8 26.8 11.5a227 227 0 0 0 16 6.5l83.5 77.5-9.7 53h-75.1l-63.3-18.4-62.3 32.6L7 179 66 76.9.8 63.6l4.9-43.8L48.9.5l21 40L105.4 56z" fill="#EDE8D7" mask="url(#j)"/></g><path d="M1110.2 269l22.3-19.4s14.7 9.1 23.9 14.5c10.4 6.1 19.8 7.4 23.3.9 4-7.4-.8-13-16.9-23.5-7.5-5-8.5-5.3-15.7-11l14.7-33 53.5-.8 37.8 51-62.3 94-76-29.7-4.6-43z" fill="#33333D"/><path fill="#EDE8D7" d="M1170.4 100l-69.7 17.4 9.5 57 60.2 23.2 24.9-.9 19-18.5-36-66.7z"/><g transform="translate(1318.4 -78)"><mask id="l" fill="#fff"><use xlink:href="#k"/></mask><path d="M48.6 41.2L37.7 76.6.7 125l1.8 26v33.1l153.1 31.2-4-20.2-2-171S125.8 26 130 17.3c4.2-8.6-49.8-17-49.8-17L48.6 41.1z" fill="#EDE8D7" mask="url(#l)"/></g><path d="M123.9-168.8l6.8-.5 14-1.9 17.5-1.3-10.3 27.5-76.6 34.9L74-53.5l141.3-34.6-1 26.7s-45.6 21.8-50.2 71.6c-2.2 24.6-1.1 45.7-6.5 56.4-10.4 20.5-27 25.3-36.6 40.8-24.2 38.8-6.2 86.6-6.2 86.6l-54.5-54.7L-42.2-29.5s57-10.4 80.7-92.8c38.8-51.5 85.4-46.5 85.4-46.5M72.5 555.3s93.8-80.3 93.8-37.8l32-7.5 76.3-59.4 12.9-21-35.8 8.4-182.2 52.8 3 64.5zM339.3 6.3v-58c0-18.4 36.2-32.5 33.3-64.3-3-31.8 37.1 22.5 37.1 22.5L399-36.7l-23 27-36.7 16zM605.8 189.4l-33.6-19.2-49.5 11.4s6 57.2 6.4 57.2l62.5-1.3 14.2-48.1z" fill="#EDE8D7"/><path d="M597.7 181l6.4 9.2 17.5 3.8s30.3-10.4 48.8-36.9c18.5-26.5 55.8-57.4 104.8-57.7 49-.4 89.3-56.9 89.3-56.9s-28 8.3-32.2-11.4c-4.3-19.8-8.1-45.2-30.7-45.4-9.6 0-16.6 8.8-20.2 17.9-5 12.7-8.5 27.6-30.7 28.4-15.6.5-20.6 0-41.4 6.3-20.7 6.3-52 4.2-52 4.2L610 115.2 597.7 181zM757.3 230.3c6.8-9 17.9-21.9 17.9-21.9s-2.9 17.6 10.4 24.3c13.2 6.6 49.2 7.6 49.2 7.6l-18.7 67.2-77.9 76.1s-13.9-28.3-15-29.3c-1.3-1-46.2-25.3-46.2-25.3l9.6-26.2 57.8-69.6 12.9-3z" fill="#EDE8D7"/><path fill="#EDE8D7" d="M866 276.5l44-29.6-18.6 63-50.6 71 10 28-38 10.5-72.8-24-5.1-11.8L843.2 305zM643.3 219v33.8L561.2 374l-.5.1v.5l-.9 1.3-40.7 24.8-51 31L533 288.2zM416.7 398.3l-1 1"/><path d="M47.8 28.2s-4.3-12.5-2.3-24.3c2-12.3 10.8-24 27.5-23.8 16 .2 26.4 10.3 28 22.5a61 61 0 0 1-7.1 32.6c-4.3 9.5 14.3-8.7 27.2 2.4 12.9 11.2 11.1 34.5-11.5 51.6-22.7 17-2.8 22.6-12.2 47C88 160.6 73 193.4 73 193.4l-48 37.3-35-78.4-9.7-100L19 11.5l28.9 16.7z" fill="#FFC4BC"/><path d="M182 167.1l2.1 18.1 57.5 24.9h44.6l42.2 47L437 130.7l31 28.9 39-85s1.2-12-9.5-23.8c-7.4-8.3-28.7-12.7-28.7-12.7s18-16.2 28.3-34.6c9.3-16.8 15.1-34.8 14.2-46.4-2.9-39.7-60.4-77.4-60.4-77.4l-15.7 13.7S373-16.7 375.4 42.8c0 0-30.8-20.5-70.3 1.6-39.4 22.1-13.6 13.2-21.7 28.8-17.6 33.6 10.3 75.3-10.1 97-10.3 10.9-29.5 13.2-44 9.7-16.8-4-28.4-15.1-28.4-15.1l3.8-32.8-22.8 35.1z" fill="#33333D"/><path d="M553.6 144.2c0-13.1-14.2-15-19.2-9.5a13.6 13.6 0 0 0 6.4 22c9.5 2.7 17.3-.8 17.3-.8l-4.5-11.7z" fill="#423D89"/><path fill="#FFC4BC" d="M591.1 181l-6.6 21.5 23.9 4.4-5.5-25.8zM741.6 377.8l82-120.3 25-4.7-25 93.6-27.5 23.4-50 11.4z"/><path d="M586.7 445.3s47.8 24.6 90.6-3.5c30-19.7 32.2-22.2 55.2-48.6 23-26.3-31-53.6-31-53.6l-22.4 2.8-85.5 99.2-7 3.7zM713 598.8s17.9 11.2 27 2.6l24.3-47.7 132-98.4-16.7-.2h-73.8L720 532.2l-7 66.6zM847 681.2s29.4 18.6 56.3 2.3c18.2-11 32-31.6 24.6-58 4.4-26.1 0-90.6 20.7-111a40.5 40.5 0 0 1 41.5-9.8 67.4 67.4 0 0 1 27.1 20c5.7 7.2 26.1-.1 48 6a218 218 0 0 1 41.7 16.6l-12-70.9s-55.3 2.4-86.5-27L909.9 480l-47.6 45.5-8 86.7-7.3 68.9z" fill="#FFC4BC"/><path d="M1030.7 553.7c13.8 41 16.2 122.4 45.8 150.2 29.6 27.7 2.6 0 2.6 0l34.4-38.8s-17.4.9-19.3-12.5c-1.8-13.3 17.8-23.8 17.8-23.8s-16.4-13.8-25.3-41.6c-9.5-29.6-2.7-40.7-2.7-40.7l-36.7-13.4-16.6 20.6zM1174.7 631.4c1.2 12-23.7 31.9-23.7 31.9l82-11.6s-22-7.7-40.6-27c-12.2-12.7 0-18.2 0-18.2l-17.7 24.9zM1238 598.4s3.4 9 12.2 10c8.8 1.2 22.4-4.5 24 2 4.1 17.1-18 26.3-18 26.3s24.2 4 33.7-28.2c9.4-32.3-1.2-52.5-10.3-53.3-9-.8-41.6 43.2-41.6 43.2M1183.5 469.8c-5.9 41-3.5 63 1.5 70.6 6.5 9.8 15.8 23.3 24.5 34.2 5.5 6.9 10.1 8.1 17.1 9.5 11.9 2.4 32.7-26.4 32.7-26.4l-9.4-120.7h-50l-16.4 32.8z" fill="#FFC4BC"/><g transform="translate(-42.3 787.9)"><mask id="n" fill="#fff"><use xlink:href="#m"/></mask><path d="M25.8 3.5L.1 64.8h64s12.3 15.7 8.5-6.3c-2-12.3-15.9-30-25.4-38.2C39.3 13.6 39.9.4 39.9.4l-14 3.1z" fill="#FFC4BC" mask="url(#n)"/></g><g transform="translate(264 719.2)"><mask id="p" fill="#fff"><use xlink:href="#o"/></mask><path d="M22.8 79.7s17-6.2 24-43.1L101.9.8l30 21s-25.6 56.6 18.6 104.1c44.1 47.6-107 25.7-107 25.7l-43-47.4 22.3-24.5z" fill="#33333D" mask="url(#p)"/></g><g transform="translate(127.6 572.3)"><mask id="r" fill="#fff"><use xlink:href="#q"/></mask><path fill="#FFC4BC" mask="url(#r)" d="M70.4 138.2L208.1 35.9 168.7.1 70.4 100 20 140.7 0 289.9l64-22L88.6 207 64 187.1l-2-25.8z"/></g><path d="M329.3 720.7c-2 .7-4.3 4.5-4.1 7.5.2 3.8 3.7 6.6 8.6 4.4 8.8-3.8 5.1-15.3-4.5-12M593.5 645.4l-9-.4-6.8-3.4-28.7 16.8-78.5-100.1-19.3-23.5 36.4-44 99 16-2.3 21.4 1 19.5 8 24.8 26.3 39zM717.2 620.3c-6.4-.8-15.2 6.5-20.3 13.8-16.5 23.5-2.9 52-2.9 52l4.2 66.8-65.9-17.3s-30.5-10.5-31-22.1v-9.7c5.6-13.4-1.6-26.5-1.6-26.5l115.5-82.9 2 25.9zM229.3-19.9l21.2-3s26 19 18.8 27a45.5 45.5 0 0 1-8.7 6.2c-8.2 16.7-27 12-27 12s-1.3-2.4-6.6-3c-6-.8-12.3-5.8-12.3-5.8s-5.5-3.9 2.8-15c8.3-11 11.8-18.4 11.8-18.4" fill="#FFC4BC"/><path fill="#F6C0B8" d="M821 112.5l-12.7 31.9 15.4 31.3 91.5-63.2 2.8-50.7-37.1-1.2zM879.6 326.5L910 247s26-21 51.2-40.6c13.2-10.2 25-16.3 35-20 18.2-6.9 32-4.4 46 2.8a78.7 78.7 0 0 0 28 9.2c10.2 1 21-.5 29.5-.7 13.9-.4 28.5 2.2 31.2 17.5 1.5 8.7-1.1 13 2 19.2 3.1 6.6 8.6 10.9 11.3 15.3 6.1 9.5 3.3 17.2-4 23.8-6.4 5.9-19 1.6-30-4.5-25-13.9-71.4 11.4-71.4 11.4l-162.2 50.1 3-3.9z"/><g transform="translate(1267 195.4)"><mask id="t" fill="#fff"><use xlink:href="#s"/></mask><path d="M70 44.7c7.7 28.1 49.1 85 97.7 88.4 48.5 3.4 33.7-5.5 33.7-5.5l-.6-12.4S155 118 133 99.2a182.5 182.5 0 0 1-51.3-72.3C87.4.5 64.2.5 64.2.5L19.1 16.7 0 51.3l52.1 3 18-9.6z" fill="#F6C0B8" mask="url(#t)"/></g><path fill="#F6C0B8" d="M1203.7-8.6l-8.2 8.6 44.4 22 6.2-10zM1069.7 22.9l-40 39.6 11.3 51.3 135.2-13 11.4-45.4v-76.5l12.2-99.6-35.5-10.3-46.2 50.7-13.8 63.3zM919.5 8.8l251-185.6-3.8-33.3-110.4 73.4L898.5-31.2z"/><path d="M454.2 333.3c-19.6.7-22.3 13.1-17 20.5 5.4 7.4 37 35 37 35l20.7-12.4 9.2-32-19.6-14.1-30.3 3z" fill="#FF0166"/><path d="M107.8 385.3L62 389.5s6.4-33 45-35l.8 30.8zm37.7-47.3l-139 12.4-25 45.6 4.2 6 37.1 30.7 117.3-8.4 38.6-2.1 58.7-4 18.1-10.2-7.2-33.9-102.8-36zM282 435c-26 25.2-76.9 56.2-115.7 82.5-22.6 15.2-43.4 25-39.8 40.3 3.2 13 18.4 21 35 4.5 0 0 50.8-69.8 96.8-76.3 46-6.6 23.8-51 23.8-51" fill="#FFC4BC"/><path d="M173.7 562.1s53-65.2 86-62.8c33 2.5-9 65.4-9 65.4l-50.2-1.4s-15.1-5.5-26.8-1.2M1168 595s-16.7-23-22.5-20.2c-7 3.5-3.6 12-1.5 21.4 15.7 8 24-1.2 24-1.2" fill="#FFC4BC"/><path d="M165.2 447a18.8 18.8 0 0 1-18.5-18.3c0-11.4 7-18 17-19 13.8-1.5 21.9 11.1 21.9 18.2 0 9.6-7.4 19.1-20.4 19.1" fill="#423D89"/><path fill="#423D89" d="M87.5 422.9l72-7.5-5.1 16-84 10.8z"/><path fill="#33333D" d="M583.8 606.2l-3.7 7.7-4.5 23 9 8.1 21.3-2.3 2.8-40.7zM1373.5-28.3l-88 46.5s-8 23.4-60.8 41.3c-16.4 5.5-27.2 10.5-34.2 20.3-15.5 22-8 66.7 27 79.3l84.6-82.1 78.3 29.6s6.1-8.5 10.8-16c6.2-9.6-1.1-13.4-10.7-12.5-8.7.7-19.5 1.7-29.4-2.3a28.2 28.2 0 0 1-17.5-27.3c.9-15.4 16.3-24.2 23.8-30.9 17.9-15.7 16-45.9 16-45.9"/><path fill="#FF0166" d="M1380.4 106.6l-59.2 69.4-27.4-13.2-9.5 16.3 22.6 16.9 26 2.5 63-86.1z"/><path d="M1307.6 170.7c0 10.2-8.3 18.5-18.5 18.5s-22.2-8.7-22.2-18.9 10.7-21.5 20.9-21.5 19.8 11.7 19.8 21.9M1375.6 221.5c-2.2-1.6-4.4-6.5-3.9-10.5.8-5.7 6-10.7 13.4-10.7 7.5 0 12.4 10.7 7.7 18.8-4.2 7.2-13.5 5.2-17.2 2.4M1179.7 197.2l-32.6 33.2s3.5-41.9-33.5-48.2c-15-2.6-26.7 2.7-41.4 1.4-8.8-.7-18.4-5.2-31.5-11.3-35-16.3-59.7 7.7-59.7 7.7l38.8-33.5s26.1 22.8 58.4 18.8 33.3-14.4 33.3-14.4l68.2 46.3zM1110.5 268.7l-80.9 76.6 43.6 53.4s14.1-3.2 7-1.5c-7.2 1.7-6.6 10.1-5.3 15.3 1.2 4.7 3 11.9 8.7 11.3 3 8.6 17.8 17.5-8 17.5-17 0-30.5 2.1-46-6.6a313.8 313.8 0 0 1-23.9-15c-19.6-13.8-34.5-4.6-34.5-4.6s-3.3-25-68.5-13.8-61.3-63.3-30.3-90.4c31-27.2 62.1-9 81.5-39.6s60.7-68 109.8-34.1c37.6 26 46.8 31.5 46.8 31.5M823.7 257.5L819 362s13.2-9.2 26-23.6c18-34.6 52.9-95.9 52.9-95.9s-45.8 17.5-74.3 14.9M732.5 393.2s20 25.9 70.7 35.8c41.2 8 56.8 5.7 56.8 5.7l-9.2-25.8s-50.4-.8-72.1-15.7c0 0 39.2-4 54.1-5.9 6.7-.8 8-3.4 8-6.2 0-2.8-2.7-5-9.7-5-12.1.3-31 2.2-55.6 5.7-23.7 3.5-43 11.4-43 11.4" fill="#FF0166"/><g transform="translate(1353.3 382.8)"><mask id="v" fill="#fff"><use xlink:href="#u"/></mask><path d="M101.2 17.1S70.9 11.2 45.6.7C33 22.4 11.4 56.2 3 70.7c-6.3 10.8 2.2 19 15.5 9.3s37-20.8 78 4l4.7-66.9z" fill="#FF0166" mask="url(#v)"/></g><g transform="translate(1320.7 505)"><mask id="x" fill="#fff"><use xlink:href="#w"/></mask><path d="M20.2.6s17.2 26.6 52 41c35 14.4 70.2 0 70.2 0L125.8 213l-46.3-34.5s13-27.4-12.6-60.4C41.4 85 10.5 87.2 1.9 66-6.9 44.8 20.1.6 20.1.6" fill="#FF0166" mask="url(#x)"/></g><path d="M1233 443s14.8-79.8 71.4-54.5c40.1 18 0 82.8 0 82.8L1233 443zM1283.4 342.2c9.7 2.8 7.6 18.6-4.4 15.6-12-3-7-18.8 4.4-15.6" fill="#FF0166"/><g transform="translate(928.3 679.7)"><mask id="z" fill="#fff"><use xlink:href="#y"/></mask><path d="M56.6 0s44.3 60.8 71.2 88.4c12.3 12.6 2.6 16.3-9.2 34.1-12 17.8-40.1 56-40.1 56L.1 160.3s28.3-33.3 46.5-56.7C64.8 80.2 64.4 26.4 56.6 0" fill="#FF0166" mask="url(#z)"/></g><path d="M927.9 625.6l67.2-59.7s3.1-24.1-15.8-38.6c-18.9-14.4-46.5-21.3-65.2-2.2-19.7 20-11.3 41.5.6 68.2 12 26.7 13.2 32.3 13.2 32.3" fill="#FF0166"/><g transform="translate(524.4 713.4)"><mask id="B" fill="#fff"><use xlink:href="#A"/></mask><path d="M77 0S75.8 44.3 47.7 94C18.6 145.5.1 154.3.1 154.3l124.5-23.8L175.2 88V34.5S119.8 5.1 77 .1" fill="#FF0166" mask="url(#B)"/></g><path d="M694 686l60.9 5.4v65.7l-17.6 14.1s-5.6-31.1-7.6-43.8c-2-12.8-4.3-3.7-5.2 6.5-1 10.2-5.3 34.5-5.3 34.5s-17.6 11-24 2.8c-2.4-3-6-18-1.2-24.7V686z" fill="#FF0166"/><g transform="translate(216 776.3)"><mask id="D" fill="#fff"><use xlink:href="#C"/></mask><path d="M100.2 63.1c0-3-28.6-39-40.5-55C47.8-8.2 34.4 5 20.3 21.3 6 38 0 73.4 0 73.4l100.2-10.3z" fill="#33333D" mask="url(#D)"/></g><path d="M353 655l-46.3-58.6s23.7-11.5 23.2-24.1c-.6-12.6-13.2-21.4-34.7-18.7-21.4 2.6-55.4.3-49.3-48.6 6.1-49 47.8-89.2 111.3-127l117 138.4s-16.8 16.1-4.5 41.4c0 0-50.9-10.8-80 32.9-29 43.6-36.7 64.3-36.7 64.3M594.4 440.7s-4.4 20-23.4 35.8c-20.8 17.1-61.7 26.3-75 30.4L560.8 374s9.6 50.5 33.7 66.6M946 30.2l-81.5 12.3s26.9-.9 37.7 25.2c7.6 18.3 3.3 39 3.3 39l40.6-76.5zM819 124.8c-9-15.4-30.4-34.4-43.8-25.4-8.9 5.9-18.4 26.9 6.8 60.2 10.7 14.2 32.5 21 41.7 16 9.4-5 6-32.4-4.7-50.8" fill="#FF0166"/><path d="M709.3-6.4v44.7s-25.2 8.4-35 36.4c-6.2 18-25 1.5-30.8 15-3.7 8.6 2 19.3 1.4 26.7-1.3 15.4-10.7 11-26.2 21.7-3.8 2.7-10 8.4-12 15-4.8 15.6-2.3 36.3-2.3 36.3s0-21.7-23.8-34c0 0-6-65.3 41-101.7 46.8-36.4 87.7-60.1 87.7-60.1" fill="#423D89"/><path d="M507.2 74.7s-.5 14.9-8.4 47.5c-4 16.3-.8 31.7 10.8 41.6 12 10.3 29.8 14 29.8 14s-12.3 19.3 0 32.9c6 6.7 10 12.6 12.1 16.8 2.3 4.5 9.4 7 9.4 10.3 0 6.3-7 11.6 4.5 9.5l12 28.2-27.3 18.6-44.2-5.3-5-10.6s24.1-9.8 6-49.3c0 0 4.5-8.6-13.7-38.4-2-3.3-11.5-2.8-14.1-6.7-1.3-1.8-2-5.3-3-7-22.2-32.7-9.5-29-9.5-29s-2.4-15 40.6-73.1" fill="#FFC4BC"/><path d="M322.3 285.8c-4.3 4.6-28.8-2.2-47.5-15-20.3-13.8-34.4-34.4-26.5-48.5 7.5-13.4 34.8-6.4 50.3 13.1 16.3 20.6 29.7 44 23.7 50.4m73 7.1c-19.2-19.1-35.5-2.8-65.5-41.1-11.7-14.9-23.2-31-32.3-39-14.5-12.3-30.7-11.3-56-13-41.5-3-59.6-32.7-59.6-32.7v37.2c60.1 5.1 37 26.6 62.1 61.5 25.2 34.9 67 36.6 94 40 27.2 3.4 47 3.2 38.4 13.2C367.8 329 340 358 340 358l17.1 19.8 39.5-38.6s20.7-24.2-1.4-46.4M175.9-162.2s-10.3 28.3-34.7 37.6c-24.3 9.3-46-2.6-56.6 20-7.3 15.4 3.9 46.5 26.8 43.8 10.5-1.2 47.4-15.3 59.3-20.5 37.6-16.4 41-22.6 45.9 10.2 1 7.1 27.1 7.9 27.3 16.5 10 7.6 9.5 22.1 5.4 31.9 16.9 16 18.4 17.4 20.5 21.2a5 5 0 0 1-1.5 6.6c0 3.1 3.2 8.5 5.2 8.4 3.2 0 4.7-3.2 7-4.7 3.4-2.4 8.3-1.2 9.2 4.1 26.6-1.5 33.4-8.2 33.4-8.2V-41c0-27.4-17.7-29.2-26.6-29.2-5 0-14.6-1-15.5-11.8-.4-5 4.7-11 14.7-13.4 11-2.8 12-9.5 7.7-12.6-4.6-3.2-15-2.1-24-7-15-7.8-11.4-31.9 13.1-38.8 16.8-4.8 20-17.3 16.4-26-5-5-5-5-8.8-8.3-7.9-6.8-31.3-6-51.5-1-5 1.2-12.2 2.5-16.6 4.2-22.2 8.6-33.5 22.6-56.1 22.6M-6.5 764.5s13.8 7.3 28.3 23.8c-11.8 14-17 19.9-17 19.9l-21.3-16.8 10-27zM147.3 194.8S126 208.6 80 216.2C34.1 224 7.2 253.6-18.5 323c0 0 31 6.2 41.9-19 10.8-25.2 9.5-17.3 9.3-8.4-.4 17.7 8.8 45.2 30 48.5 0 0 6.8-4 21.2 0 14.4 4 14.6-30.7 15.5-19.4 1 11.2 29.4-28.3 38-52.2 8.5-23.9 18.9-46.6 9.9-77.7M275.3 412.8c.7 2.6-1.4 5-3.3 6.8-8.6 8-15.4 16.1-26.3 20.2-6.5 2.3-13.3 3.9-20 5.8l-57.6 17-94 27.7c-.4.2-1.1.6-1.6.5-26.4-2.8-207-23-207-23s118.4-2.6 160.9-2.6c78.7 0 83.6-31.7 108-42.4 11-4.9 21.8-3.3 33.5-2.6 3.5.1 7.1.3 10.6-.2 10-1.6 17.8-8.6 26.2-13.6 7-4.2 19-9.4 27.2-6.4 4.5 1.6 7.8 5.4 11.6 8.2 10.3 7.6 20.2 5.6 31.8 4.6M1180.3 364l12.1-16.2s28.7-3.5 37.8 24.2c5.5 16.9-4.7 32-19.1 35-17 12.1-25.6-1.4-34.5-5.4l7.7-18.8s9.7 8.3 16 7.7c3.2-.3 6.6-4.3 5.6-9.5-2.6-14-25.6-17-25.6-17" fill="#FF0166"/><path d="M305.1 44.4C272.7 66.1 263 167.1 182 167.1c-40.4 0-52-5.6-52-5.6s-7-25.5 21-52.5c9.6-9.4 22.7-22.4 29.5-40.1 4.6-11.9 3.7-29.9 3.6-42-.8-43.5 30-60.8 30-60.8s3.5 8.9-8.4 18c-7.8 21.2-13 54.6 26.6 64.5 40.5 10 78.2-26.8 73-4.2" fill="#FFC4BC"/><path d="M823.7 257.5v-60s47.5-9.3 89.1-40.2c43.8-32.5 56-46.4 56-46.4S963.4 90 964 77c0 0 5.3 19.4 22.3 19.4 11.8 0 15.8-9.8 15.8-19.4 0-9.7 44.2 0 44.2 0s7.6 18.1 26.9 14.7c13-2.3 24.6-8.2 35.8-13.4 11.8-5.4 25.3-11.8 38.6-4.7 11.7 6.2 14 18.4 14.8 23.5 3.3 17.8-13.4 42-47 58.2-41.3 20-75.4 13.3-95.6-9 0 0-88.7 83-121.8 96.2-33.2 13.1-50.4 22.3-74.3 14.9M-42.6 541.6l-69.3 63.8 104.4 15.2 80-65.3-50.8-4.4-55.8 54.5-29.8-4.8 56.4-53.7zM200.5 563.3s27.3 10.1 29.3 43.3c2 33.2-23.5 52-23.5 52v11.7l121.1-85.5c26.6-18.8 5.7-48.7-29.9-35.4-35.5 13.3-49-14.6-49-14.6l-48 28.5zM560.7 374.1l-41.6 26.6s-23.3 46.2-77 77.8l32.2 38s4-5.5 21.8-9.6L560.7 374zM396.7 339.3l77.6 89.5s-9.6 21.2-43.3 36.4L357.2 378l39.5-38.6zM873.6 547.8l-46.7 3.2s14-52 47.6-72.6c16.8-10.3 28.4-22 50.1-15.6 18.7-3.7 41.4-9.6 49.1-23.7 0 0 15.7-9 34.7 10.3 0 0-1.1 17-21.3 25.6-35.1 15-69.5 6.1-97.8 37.9a82.2 82.2 0 0 0-15.7 35M1017.2 524.7s6.5 7.2 13.5 29c0 0 20-15.7 35.3-7.8 15.4 7.8 15.9 25.8 20.7 41.3 0 0 6.2-15.1 20.2-40 0 0-3.7-22.4-31.5-31.3a63.1 63.1 0 0 0-58.2 8.8" fill="#423D89"/><path d="M1202.8 177s-47.3-25.2-40.4-79.8c6.4-50.4 50-50.4 74.3-60.5 24.3-10 31-24.1 27.5-41.3-3.6-18-14-23.7-35.3-32l28-10.5s26.9 5.8 32.2 40c5.4 34.2-10.8 58.5-66.4 72-55.6 13.5-35 75.5-5.2 94.2l-14.7 17.8z" fill="#FF0166"/><path d="M919.8-27.2v36L794.1-54.7s12.3-15.5 11.5-24.5l114.2 52zM-178.4 202.9s8.5-1.2 15.3.9c16.6 5 16.4 21.7 16.4 57.3 0 28.4.3 42.7.3 42.7l38.5 4.3v58.5c0 26.8 31.2 45.9 65.7 17.5 15.8-13 22.8-39.9 30-64.5 7.3-24.7 36.1-89.8 96-97.7 59.8-8 63.5-27 63.5-27s-17.4-13.4-17.4-33.4c0 0-33 12.9-33-24 0 0-38.3 79.4-105.5 86.1 0 0 2.9-25 19.3-38.4 16.4-13.4 15.4-25.7 10.1-49a24 24 0 0 1 6.1-22 24 24 0 0 0 8-17.9C34.5 86 26.1 79 18.6 69 9.4 56.7 12 43 22.6 33.7L-14.4-.2s-18 6.1-22 31.6c-4 26.9-4.2 36.3-22.2 46.7-10.1 5.8-17.4 16-17.3 21.3.3 8.8 8.2 16 22.4 20.9 22.8 7.8-19.1 13.9-20.5 48.5-1.4 34.6 21.8 39 31.7 37 9.3-2 14.1-5.8 17.8-13.8 2.5-5.4 4.3-10.4 7.1-9.2 3 1.3 2.6 8.4-.3 15.2-3.4 8.3-10.9 16.4-27.2 17.2-29.8 1.5-31.8-32.8-65-32.8V208s-33.1-23.8-68.6-5.1" fill="#423D89"/><path d="M1113.6 440.6c10.3 2.6 34.7-1.1 34.2-30.5l-52.8 10.8s.2 15 18.6 19.7" fill="#FFC4BC"/><path d="M1177.6 437l6 32.8s16.8-7.7 38.4-32.7l-14.7-9.7-10.9-11.5s-16 3.7-18.8 21.2M1045.3 340.2s40.2-33.3 71.7-19c16.6 7.4 63.3 42.8 63.3 42.8l5.2 9.1s5.5 1.7 8 2.9c7.4 3.6 11 11 9.4 13-4.8 5.3-18.4-1.6-18.4-1.6l-7.9 14.2-16.5-6.3s-1.7-11.2-17.6-7.8l-34.9-16.2-15.7 26.6-46.6-30.7-15.7-22 15.7-5z" fill="#423D89"/><path d="M1192.4 347.8l72.8-101.2 25.4 2.4-4.8 7.4-57.1 118.7s-2-8.9-11.7-17a40.7 40.7 0 0 0-24.6-10.3" fill="#33333D"/><path d="M1309.6 242c0 13.7-13.2 23-26.9 23s-29.6-12.5-29.6-26.2c0-13.8 15.7-26.2 29.4-26.2 3.6 0 10 .3 9.6 4.5-7 7-24.2 19.4-14.2 27.4 8.5 6.8 15.2-3.3 27.3-15 4 2 4.4 8.6 4.4 12.5" fill="#33333D"/><path d="M1076.5 703.9s9.4-16.8 29.1-33c16.1-13 39.3-24 69.4-28.3 56.3-8 76 12 114.9-34.1 0 0 21.3 8.9-4 41a138.1 138.1 0 0 0-22.8 41.7c-3.5 10.7 3.7 21.1 14.6 27 28.8 15.2 80.7 44.5 76.2 55.2-6.2 14.7-16.3 5.8-22.5 17-3.5 6.3-18.3 4-39.7-2.5-17.4-5.3-76.3-2-110.8-6.5a82.7 82.7 0 0 1-51-25.5l-53.4-52z" fill="#423D89"/><g transform="translate(1237.8 438.7)"><mask id="F" fill="#fff"><use xlink:href="#E"/></mask><path d="M103 67c10-9 122.9-18.7 122.2-24C225 40.5 207.4 2.3 174 .4c-14.3-.8-41.2-3.9-89.6 41C65.6 59 59.4 63 43 77.9 5.9 110.7.2 116.5.2 116.5v43.2s28.2-22.8 54-47C74.2 94.1 87.3 81 103 67" fill="#423D89" mask="url(#F)"/></g><path d="M496 506.9s72.4-20.5 89.4 40.8c0-28 19.3-62 66.2-59l48.7-62.7s-39.8 33-78.7 25.2c-16.8-3.5-27.2-10.5-27.2-10.5s-56.7 48.7-98.3 66.2M601.3 703.8s30.4-7.4 64.5-35.4c0 0-34.7-18.6-29.2-64 0 0-33.3-7.2-46.8-42.8.5 12.4.1 20.6-9.7 52.3 0 0 6.5-11.8 16.7-6.4 6.5 3.5 5.3 12.6 1.4 19.4a61.6 61.6 0 0 1-13.7 18.1c13.7 3.3 16.8 58.8 16.8 58.8M699.7 801.3s21.1-18.4 37.6-30c0 0-4-53.2-9.1-53.2-3.9 0-7.3 25.8-8.9 39.3-.5 4.7-2.2 9.3-8.7 11.5l-11 3.8v28.6zM741.6 377.8l-9 15.4s63.5-16 86.5-31.1c.5-6.5.3-9.3.6-13.5-13.6 7.2-47.9 23.9-78 29.2M735.5 143.9c-9.2 1.8-8.3 19 0 32.3 8.6 13.5 24.8 22.9 31.3 13 3-4.6 15-28.6 9-39.1-6.4-10.9-31-8-40.3-6.2" fill="#423D89"/><path d="M420 140l35 8.3s4.5 27.2-25 54.5c0 0 1.9 15.3-3.6 20.8-6.7 6.6-27.4 11.4-41.5-3.5-14-15-18.6-14.7-11.7-25.6 3.8-6 10.2-12 17.8-16.4 6-3.6 16.2-6.2 21-11 12.3-12.5 8-27 8-27M473.8 309.5l24.2 38 37.9-49-23.3-13.6s15 1.3 15.8-3c1.1-6.9-23.9-8.3-52 .5-17.3 5.4-2.6 27-2.6 27" fill="#FF0166"/><path d="M577.3 275.5l66-46.4s-7.6-37-39.2-42.5c0 0-1.5 14-9.7 14s-6.5-9-6.5-9-3 7.5-14.1 7.2c2.9 7.2-3.1 17.5-3.1 17.5s-4.3 18.7-5.3 31l12 28.2z" fill="#423D89"/><path d="M539.4 177.8l64.7 8.8s-2.4-22.4-23.7-35.1c-7.3-4.4-13-6-26.9-7.3 0 5.6-3 14.3-13.5 12.3-1.9 4.2-4.6 13.5-.6 21.3" fill="#FF0166"/><g transform="translate(169.5 614.5)"><mask id="H" fill="#fff"><use xlink:href="#G"/></mask><path d="M68 139c-8 10.7-24.3 14-33.4 9.6-12.6-6-16-25.2 13.6-39.6 19-9.2 32-9.8 35.1-4.3 4.9 8.4-3.1 18.2-15.2 34.3m115.4-98.5L151.5 0 19.7 93.6c1.1 27.1-10 34.7-10 34.7s14.4 20 11.9 47.4a96.4 96.4 0 0 1-21.4 49s44.2 52 53.2 0c9-52.2 41.7-62.2 41.7-62.2s9-34.6 5.2-65.3c-3.9-30.8 11-30 11-30-6.9-17.8-1-25 12.7-35.6 13.7-10.4 28.6-23.1 37.6-3.2l34.8 77.2-3.8 11.6s-15 10.1-26.3 18.2-13.6 20.2-9.4 27c8.2 13.7 28.1 10.1 41.7 0 22.3-16.4 27.8-35.9 27.8-35.9C238.8 99 248 84.1 248 84.1c-25.3-6.1-44.8-18.4-64.5-43.6" fill="#423D89" mask="url(#H)"/></g><g transform="translate(21.7 737.9)"><mask id="J" fill="#fff"><use xlink:href="#I"/></mask><path d="M15.5 0H39s1.2 59.8 17.3 74.8l-12.7 40S35.7 97 20.2 75.6c-9.9-13.7-20-25-20-25l4-4.7S15.4 31.2 15.4 0" fill="#423D89" mask="url(#J)"/></g><path d="M1353.7 273.1c-10.8 19.4-2.3 32.3-2 36 .3 3-6.3 4.7-9 9.5-2.4 4 .2 9.2 5 8 5.2-1.1 8.9-3.2 13.4-6.5 6.8-5.1 6.5-11.5 6.6-15.3l.2-13.9s-7.1-7.8-14.2-17.8M1378.8 301.8s1.8 8.2 3.6 15.2c1 3.7 1.5 6.9 1.3 8.4-.2 1.6-2.3 3.7-4.3 6.5-3.7 5.3-4.4 11.9 0 13.6 6.7 2.5 14.4-9.4 14.9-16.2.5-6.8 1.6-14.5 1.6-14.5s-11-7.6-17-13M1401.5 295.7s3-13.4 4.6-33.3l-20.8 9.5-.3 8.3s8.7 9.6 16.5 15.5M740 620.8c-13.6 8.5-32.5-.7-27.6-16.8 3.5-11.3 12.8-13 20-9.6 3.1 1.5 6 4.2 7.6 7a23.2 23.2 0 0 1 2.9 15c-.3 1.6-2.9 4.4-2.9 4.4M758.8 618.2l17.8.4-6.2-34.8s-13.1 5.3-13.1 13.6v11.3c0 2-.8 1.7-2 .1-1-1.1-1.8-1.6-2.6-1-1 .6-.2 2.9.1 3.6 2 4.4 6 6.8 6 6.8" fill="#423D89"/><path d="M-424 425.9l316.1-117.8v58.5c0 13.2 20.8 25 43.5 15.8 19.5-7.9 40.3-33.1 52.3-62.8 0 0 13.1 1.5 27.5-21.8 13.3-21.5 24.7-17.4 24.7-17.4s-4.7 13-3 27c1.7 12.8 9.3 26.4 20.1 31.2 2 .9 7.8.7 5.4-8-1.7-6.2-4-13.2-5.8-23.2-.8-5.1 1.5-10 3-13.7 2.8-6.4 8-5 8.7 2 1.6 17 5.6 45.3 14.4 44.6 12.4-1 1.6-42.2 5.1-56.1 0 0 8.8-8.4 17.1-13.5 3.7-2.2 7.6 1.3 4 7.4-6 10.5-13.4 26.3-8.6 33.9 7.7 11.9 58.7-58 46.8-117.2 0 0 7.8 8 34.6 9.5v126.6l-28.7 18.7s-39.5-6.4-78.4-1c-38.8 5.4-50.5 9.2-57.5 12.7-32.1 16-31.6 40.8-31.6 40.8s-113.2 37-153.1 52.6v-63.5l-157.4 57.4s-21.6-13-46.9-4.1c-21.6 7.5-26.6 30-26.6 30l-25.7-2.2v-46.4zM-134.6 525.5v-57.7l207.1 23v64.5L21.7 551s7.7-7.5 15-15.6c8.7-9.7 11.6-17.2 4.2-21.3-7.8-4.4-24.2 9.2-35.6 20.6-9 9.2-12.8 12.3-12.8 12.3l-35.1-5.3s9.4-8.6 17.5-18.1c6.7-7.7 6.5-18.7-1-23-7.5-4.2-20.6 3.9-34 18.2-8.5 9-15.8 16-15.8 16l-58.7-9.2zM73.5 415.8a20.3 20.3 0 0 0-22 19.8c0 5.8 5.4 18.2 22 18.2 16.7 0 21-13 20.6-21.4-.4-8.4-9-16.2-20.6-16.6" fill="#33333D"/><path d="M15.6 422.2l-30.4-29.6V408l19.7 22.3c7.6 8.7 16.9 13 23.9 12.7l37.6-1.6-4.7-16s-22.5 2-28.4 2.1c-6 .1-13.3-1-17.7-5.2" fill="#33333D"/><g transform="translate(795.8 679.7)"><mask id="L" fill="#fff"><use xlink:href="#K"/></mask><path d="M189 0A36448 36448 0 0 1 .6 163.8l132-3.4s58.3-32.6 64.3-78.4C203 36 197 19.4 189.1 0" fill="#33333D" mask="url(#L)"/></g><g transform="translate(1003 703.9)"><mask id="N" fill="#fff"><use xlink:href="#M"/></mask><path d="M73.5 0L.6.8s35 44.9 31.9 88.4c-1.3 18.3-14.2 45.2-14.2 45.2h153.4S166 105 156.5 85.9c-8.4-17.2-29.3-35.5-47.3-52.4L73.5 0" fill="#33333D" mask="url(#N)"/></g><path d="M1289.9 608.5l44.2-24s-6.3 71.6 66 99.1c0 0-1 30-42 20.3-29.9-7-53.8-38.6-63.8-67.1 6.7-17 .7-24.2-4.4-28.3" fill="#33333D"/><g transform="translate(1340.5 472.5)"><mask id="P" fill="#fff"><use xlink:href="#O"/></mask><path d="M.4 33.2s58-55.3 113.6-22.6v69.7S40.8 98.5.4 33.2" fill="#33333D" mask="url(#P)"/></g><path d="M1091.9 397.9s-2-13.8 10-23.8c4.5-3.7 30.8-11.8 40.6 13.4l-50.6 10.4z" fill="#FFC4BC"/><path d="M1207.3 427.4s7.9-8.9 3.8-20.5c0 0-13.3 2.8-26.1-2l-25-9.6s3.3 13-12.2 14.8c0 0-1.4 22.6-18.4 29.6 0 0 32.9-8.6 48.3-2.6 0 0 11.6-1.4 20.8-15.8l8.8 6.1z" fill="#33333D"/><path d="M1304.4 471.3l17.8 8.9s24.2-38.2 32.6-58.2c8.5-20.1-7-21.5-26.5-34.5-18.5-12.5-36.2-22-36.2-22s-8.9 5.9-16.7 4.3c-8.7-1.7-20.2-11.4-13-28.4 8.2-19 27-14.2 34.1-5.4 5 6.2 4 15.3 4 15.3l70.9 42.5L1383 377s-44.1-22-53.3-59.4c-10.2-41.4 7.3-77.5 7.3-77.5s-11.2-31.7-31.8-10.5c0 0 12.7 29.5-23.5 35.3 0 0-48.7 70.7-64.7 93.2a30.2 30.2 0 0 1 11.7 17s3.5 12.1-2.8 22.8c4.8 8.3 7 21-3.9 39.2l11 5.9s24.2-67 65.6-49.5c33.3 14.1 5.8 77.8 5.8 77.8" fill="#423D89"/><g transform="translate(1029.5 74.4)"><mask id="R" fill="#fff"><use xlink:href="#Q"/></mask><path d="M319.2 148S332 121.4 359 94.5c24.5-24.4 85.5-31.8 85.5-31.8L366.4 38s-49.3 61.5-56.1 69.8c-6.9 8.3-18.2 14-28.5 9.4-10.2-4.7-15-7.3-15-7.3s-11.7 4.9-20-2c-4.6-4-7.1-11.6-5.7-17.2a17.7 17.7 0 0 1 12.5-12.5C258 77 266 77.2 271 82c5 4.9 5.5 14.3 5.5 14.3l10.6 5c3.7 1.9 8.7-1 12.1-5l51.7-64L272.3.1 188 84.7 150.2 123s35 21.7 48.7 30.7c13.8 9 12.4 16.5 5.4 25l-54.1 65.6-69.2-50L0 271 19.7 287s44.2-49 70.5-33.5l60.6 36.1L233 180.2s-13.7-23.7 7-35.6c14.7-8.4 22.6-2 22.6-2s11.9-13.7 31.6-12.7c18 1 25 18 25 18" fill="#423D89" mask="url(#R)"/></g><path d="M1046.3 77c-8.5-20.3 12-34.2 36.8-45 19.3-8.4 29.7-13.7 35-27.8 7.3-19.1 0-37-15.7-50-30.1-24.8-71.4-15.5-94.5 8.3 0 0 22.8-13 37.4 12.8 11 19.2 1 42.7-17.4 57.4-18.6 14.6-25.7 31.4-25.8 44.4h44.2z" fill="#33333D"/><path d="M968.7 110.9S966.8 93 964 77c-7.8-43.7 12.1-79.5 44-114.6 23.4-37.5 31.3-48.2 39.4-68 13.7-32.8 16.6-51.2 12.6-74.4a50.7 50.7 0 0 0-22-35.7c-17.8-11.3-45.7-9.8-65.6 5.7-25.1 19.6-26.6 41.6-26.2 60 .2 8 4.2 11.8 10.8 11.8 6.6 0 10.5-5.5 10.5-10.6 0-5-3-38.6 27-50.2 29.2-11.2 54 11.9 43.5 57.2-10.5 45.3-56 100-77.4 137.1-21.3 37-22.6 65.2-8.5 131 0 0 2.3-1.7 7.8-6.5 7-6.1 8.8-9 8.8-9M735.5 143.9l70.4-14-39 59.3s9.8-13.2-5.4-33.4c-12-16-26-12-26-12M819 124.8l81.3-61.1s-8.7-20.3-35.8-21.2l-89.3 56.9s21.5-5.1 43.8 25.4M823.7 197.6v-22l78-65.7c3.8-3.2 4.4-4.2 6.4-8l26.6-50.2s3.3 26.5-10.6 55c-10.2 21.2-21.4 37.5-21.4 57.6 0 0-35.4 29.3-79 33.3M823.7 197.6l-38.1 35 38 24.9zM757.3 230.3L742.5 219 654 327.8s5.5 8 22.6 13.9c5.7 2 15.6 4.7 23.6 7.7 33.2 12.7 32.2 43.8 32.2 43.8l9.1-15.4s1.7-28.3-31.2-41.2l-27.6-11 74.5-95.3zM643.3 229s2.8-39.1 27.1-71.9c0 0-12.7 6.7-27.1 7.8-16.7 1.3-35.6-1.4-39.2 21.7 0 0 29.5 4.7 39.2 42.5M560.7 374.1s34 13.2 66.7-23 15.9-122 15.9-122l-82.6 145zM665.8 668.4s16.3-9.6 49.5-70.4c5.2-9.5 14-28.7 20.1-40.3 28.2-52.6 50.6-70.4 73.8-86.4 16-11.1 41.6-16.2 41.6-16.2s-39.7-.5-56-.3c-45.4.5-90.7 5.5-117.5 46.5 11.7 15.1 10 26 4.9 45.3-2.3 8.4-6.7 27.8-2.3 40a45 45 0 0 0 16.5 20.7s-28.8 6.1-59.8-3c0 0-12 42.4 29.2 64.1" fill="#33333D"/><path d="M754.9 757v-81.3c0-7.3 2-12 4.5-15.8 5-7.5 11.8-22 11.8-42.1 0-18-13.9-16.2-13.9-16.2v-5.2c0-.6-.4-2-2.4-2h-5.5c-1.2 0-1.4 2.1-1.4 3l.2 18.3c0 1.6.6 2.2 2.1 2.3l8.5.2s-3.6 19.6-10.6 19.6-6.8-14.9-11.7-15.3c0 0 4.8-4.3 5.1-12.2.2-4-1.6-8.9-1.6-8.9s25.9-117 139.6-146.3l45-36.5s24.5-4.5 27.5 5.8c1.5 4.9-.6 10.1-4.2 12.7-7 5-23.3-2.4-23.3-2.4v28.1s-22.3 2.3-45 16.7c-18.8 12-32.6 38.3-32.6 68.3h26.6s-4.9 26.3 14.6 60.7c19.5 34.3-3.6 49-39.2 77.5-35.6 28.6-94.1 71-94.1 71" fill="#33333D"/><path d="M451-120.3s36.6-18.3 74.8 3.9c0 0 57 66.8 71.4 83.2 14.3 16.4 13.9 23.4-4.4 37.7-18.3 14.4-27.8 19.6-50-7.8-22.2-27.4-91.8-117-91.8-117" fill="#423D89"/><path d="M339.3 6.3s22.1 2.6 73-17.9C463.2-32 492-51.6 451-97.3c-40.9-45.6-67.3-74.3-46.9-110 13.9-24.4 33-50.5 19-75-18.3-32.4-51.8-24.7-33.5-87.5 0 0 46.3 32 117.5-35.9 25-23.8 12 4.2 12 4.2s21.2-26 19-58.2c-1.4-19.3-6.2-44.2-36.7-62.5 0 0-40.8 26.2-87 67.8C385-428 355-394 326.6-361.2v89s44.4-21.5 58.7 1.2c4.8 7.6 2.3 20.6-6 31.6-17 22.3-49 47.5-30 81.3 7.8 14.1 34.3 43.4 32.6 91.3-1.8 47.8-42.6 73-42.6 73" fill="#423D89"/><path d="M175.9-162.2l-23.2-3s-18.5 9-49.2 27.6c-28 16.9-68.1 35.4-59.5 72.1 8.3 35.9 67.3 32 112.1 11.4 44.9-20.6 75-2.5 52.1 31.2s-22 67.8 22.5 78.5c43.7 10.6 74.4-11.2 74.4-11.2l34.2-38.1L323 4.7s-8.5 7.1-33.4 8.2c0 0-2.2 10.2-13.2 11.8-12.2 1.7-16-14.4-16-14.4s-5.4 4-14.8 7c-9.9 3-18.7 2-18.7 2s-1.3 1.5-2.3 3.3c-1 2-2.2 4.9 3 6.7 4.3 1.5 7.9 3.3 6.2 7.7-3 7.5-19.8 3-21.9-5.9-2-8.9 2.7-17.6 2.7-17.6s-4.5-3.4 2.8-15c0 0-10.6-15.9 4.9-35.9 12.4-16 15.5-16.3 15.5-16.3s-6.6-1.2-6.9-10.4c-.2-6.7 3-10.3 8-11.7-1.3-7-13.4-25.5-41.6-22.8-42.3 4.1-53.6 31.2-91.5 26A22 22 0 0 1 86.5-90c-1-7.9 3.5-21.7 21.8-25.6 30.1-6.4 67.6-15.4 67.6-46.7" fill="#33333D"/><path d="M330.7 232c2.1-8 6.3-15.1 10.5-22.2 7-12 14.5-23.8 19-37 4.9-15 5.7-32.6 14.7-45.7 14.4-21 41.4-22.9 53.2-21 10.5 1.6 31.7 7.9 41.2 30.4 4.2 9.8 4.4 23.8 10.3 34.6 7.6 14 17 15.5 23.6 24.7 5.2 7.3 7 20.8 3.6 33 0 0-25-41-76.9-26 0 0 20.3-12.9 15.5-50.6L420 140s6.4 23.9-17.6 32.9S410.2 209 385 220c-25.2 11-33.6 24.1-36.2 50.6a89.7 89.7 0 0 1-17.6-17.3c-3.7-4.8-1.4-17.6-.4-21.4" fill="#423D89"/><path d="M20.8 136.2c9 22.6 28.7 16.2 28.7 30.9v30.5s-21.8 24.2-58.1 26c0 0-4.6-31 14.8-43.7 19.3-12.7 14.6-43.7 14.6-43.7M517 565.8c49.3-12.5 46 8.3 39.4 36.8-6.5 28.5-9.6 38-1.5 41.7 3.7 1.8 10 2.2 14.1-5.3 5.5-10 11.1-25.1 11.1-25.1l4.4 31.1s-12.3-2.4-30 19c-15 18-29.3 17.1-38.2 11.8-12-7.3-6.9-21-7.3-28.2-2-28.6-54-2.4-54-2.4s-14.9-5.4-12.8-24c.8-7.7 10.3-12 14.3-18.6 5.6-9.3 6-19.4 6-19.4s-3.5-18 7.2-25.4c0 0 21.5 14.6 47.3 8M550.1 294l-75.8 134.8-50.7-58.4s8.8-11 13.7-16.6c4.9 5.7 13.2 10.1 25.6 12.3 7 1.2 20.4 16.7 24.5 10.3 3.3-4.9-6.2-13.8-13.1-19.5 2-2.8 14.7 10.5 18 7.5 3.4-2.9-1.9-14.9-10-16.8 7-1 8.8-4.5 6.5-7.3-1.8-2.2-6.7-3.8-9-4l-25.6-3 19.6-23.8s14 22.3 21 19.3-8.2-14.9-5.2-18.1c3-3.3 13.9-8.5 14.5-.7.8 9.9 10 13.4 12.4 2.5 2.5-10.8 4.8-22.6-4-27.6l37.6 9.2zM563.6 229s-5-5.5-12-1.5c0 0 3.3 8 2.9 16-.4 8 9 7.4 10.9 3.8 2 2.8 8.9 1 8.9-9.9 0-10.8 4.6-16.7-3.6-21 0 0-7.9 4.7-7.1 12.7M553.6 144.2s8.8-6.6 17-19.6c10.8-16.8 22.8-42.6 37.8-58.6 0 0-27.5 35.4-28 85.5 0 0-7.5-4.8-26.8-7.3M1174.7 631.4c18.4-4.2 43-13.2 63.3-33v-43.2s-43.2 37.9-94 41c0 0 3.5 8.9 11.7 18.3 4.9 5.5 9.2 9.8 19 16.9" fill="#33333D"/><path d="M1233 443s-8.9 24.3 0 42.7c11.4 23.9-24 35.7 5 69.5l42.7-38.7s-.3-28.2 23.7-45.2L1233 443zM1371.7 224.8c-5 4.3-14 17.3-14 17.3s5.7 11.7 16 24.5c0 0-12.6 5.7-3.4 15.2 9.1 9.5 35.8-19.4 35.8-19.4s1.5-38-15.5-40.6c0 0-4.2 4-13 .9-2.3-.8-4.5 1-5.9 2.1M1219.9-.7l13-13.9 9 4.5-13 13.8zM1212.4 8.4l-12.6 12.9 9.5 5 12.3-13.4zM37.2 737.9c0-12.7 9.1-19.7 21.6-17.3 12.5 2.5 27 18 27.9 44.8C87.6 792.2 74 825 74 825S58 797.9 56.4 770C54.9 743 55.3 738 55.3 738h-18zM57.9 713c-4.6 0-13.4 0-14.6-12.5a14.3 14.3 0 0 1 14.6-15.8c11.1 0 14.8 9 12.6 16.7-1.8 6.3-8.2 11.6-12.6 11.6" fill="#33333D"/><g transform="translate(84.8 654)"><mask id="T" fill="#fff"><use xlink:href="#S"/></mask><path d="M52.2 2.7c23.2-11 29.9 24 42.4 17l27-15.2v11.8L84.8 42.7s6.8 23.6 9.4 46c2.6 22.4-27.6 104.2-47.4 102.4C27 189.3 2.9 160.5 15 131.4c12.2-29.2 19.2-31.6 12.2-37.7-7-6.1-16.4 1.2-23.4-5.5S-2 67.8 19 57.5C40 47 26.4 14.8 52.2 2.7" fill="#33333D" mask="url(#T)"/></g><path d="M147 608.3c-19.4-1.5-25.5 32.9-2.7 36.2 22.8 3.4 18.6-35 2.7-36.2M115 354.3v29.8l64-6.2s-18.5-19.1-37.3-21.8c-15.5-2.1-26.6-1.8-26.6-1.8M-14.3-.2s14.1-5.6 31-2.3c16.7 3.2 29 14.5 31 30.7 0 0-16.3-3-25.2 5.5L-14.3-.2zM1353.7 273.1s7.8-6 1.4-15.7c-3.8-5.7-12.2-2.3-12.2-2.3s-1.5 10.7 10.8 18" fill="#33333D"/><path d="M879.6 455v24.5s14.8-10.4 45-16.7v-22.2s9.8 0 17.8-1.3c5.2-.8 8-2.7 9.7-8.5 0-1.9-5.2-2.5-9.8-2.4-6 0-10 .4-10 .4l-7.7-10.2v-20l-45 56.5z" fill="#FFC4BC"/><path d="M1029.6 434.7v-89.4L1059 370l33 27.9s-10.9 4.3-9.2 14c1.8 9.7 12.3 9 12.3 9s1 16.4 18.6 19.7c0 0-29.4 22.7-84-6" fill="#33333D"/><path d="M227.6 348.8c-2.3 4.7-1.2 32-14.5 32-15.3-.1-27.3-13.7-60-31.2-17.6-9.4-24.6-11.5-26.3-16.1-2.5-6.7 0-10.3 7-14.8 11.3-7.5 11.6-14.5 2.2-26.5-12.4-16-27-33-26-53.3.3-3.7 1-7.5 3.1-10.5 6-9 20-8 28.8-2 11.7 8 16.4 28.4 31 30.2 6.5.8 13.2-2 17.2-7.1 2.4-3 4.4-7.2 8.3-7.7 3.4-.4 6.4 2.7 7.6 6 1.1 3.2 1.1 6.7 2.1 10 3.2 11.4 16.1 16.9 27.8 18.4 11.7 1.6 24.1.9 34.6 6.3 2.4 1.2 4.8 3 5.8 5.5.6 1.5.7 3.2.6 4.8-1.7 25.3-38.9 33.7-49.3 56" fill="#03DAC6"/><path d="M253 234a28.6 28.6 0 0 0-13.5 29.6c1 5 3.4 9.7 4.2 14.7.8 5-.3 11-4.7 13.6-2 1.2-4.3 1.6-6.6 2.3-12 3.7-19 18.8-13.9 30.4 2.9 6.5 9 12.3 8 19.3-.7 6.7-8.3 8.8-13.6 13-3 2.3-8.5 6.5-7.4 14.9.5 4 5.8 8.6 7.7 9 13.8 2.2 42.8 13.5 24.2 37.4-5.9 7.7-5.1 15.7-3.9 25.3 41-10.8 54-14 54-14s-9.7-9-8.7-18.1c1.3-11.6 11.9-19.6 21.3-26.6s19.3-16.4 18.5-28c-1-14.8-19-26-15.5-40.3 1.7-7.2 8.7-12.8 8.8-20.2.1-6.7-5.4-12-11.1-15.6-5.7-3.5-12.1-6.3-16-11.8-7.3-10.9 4-25.3-1.4-33.2-5.6-8.2-23.5-5.7-30.5-1.7" fill="#423D89"/><path d="M442.2 478.5c-29 16.5-51 36.1-62.2 61.4-10.9 24.6-20.9 47.6-59 74.7l-12.8-16.3s8-5.5 16-12c10.4-8.4 22.7-21.2 35.5-51.5 22.6-53.1 71.3-69.6 71.3-69.6l11.2 13.3z" fill="#33333D"/></g></g></svg>