<?xml version="1.0" encoding="UTF-8"?>
<svg width="1822px" height="527px" viewBox="0 0 1822 527" version="1.1" xmlns="http://www.w3.org/2000/svg" xmlns:xlink="http://www.w3.org/1999/xlink">
    <!-- Generator: Sketch 48.2 (47327) - http://www.bohemiancoding.com/sketch -->
    <title>Artboard</title>
    <desc>Created with Sketch.</desc>
    <defs></defs>
    <g id="Homepage" stroke="none" stroke-width="1" fill="none" fill-rule="evenodd">
        <g id="Artboard">
            <g id="Figure" transform="translate(0.000000, 66.000000)">
                <polygon id="Triangle-Copy" fill="#EDE8D7" points="1194 109 1294 254 1094 254"></polygon>
                <g id="Group-5" fill="#FF0166">
                    <path d="M1209.33856,201.998323 C1206.81428,199.384725 1204.4201,196.644063 1202.16647,193.786831 L0.409756934,405.688955 L5.90660072e-05,403.365443 L1200.54395,191.677164 C1198.50129,188.952895 1196.58376,186.128931 1194.79991,183.21386 L0.409756934,393.817069 L5.90660071e-05,391.493557 L1193.50773,181.045953 C1192.0001,178.448258 1190.5971,175.78199 1189.30451,173.052953 L0.409756934,382.687176 L5.90660072e-05,380.363663 L1188.28538,170.8369 C1186.99627,167.948235 1185.82961,164.992637 1184.79201,161.976743 L0.409756934,370.815289 L5.90660072e-05,368.491777 L1184.04123,159.713373 C1183.16883,156.982565 1182.40152,154.204606 1181.74409,151.384281 L0.409756934,359.685396 L5.90660072e-05,357.361884 L1181.23315,149.078619 C1180.59754,146.054024 1180.08774,142.982947 1179.7095,139.871147 L0.409756934,347.81351 L5.90660072e-05,345.489998 L1179.44973,137.521198 C1179.16595,134.671292 1178.99231,131.788811 1178.93313,128.878148 L0.409756934,336.683617 L5.90660072e-05,334.360105 L1178.91034,126.486415 C1178.91441,123.267838 1179.05843,120.082142 1179.33663,116.935114 L0.409756934,324.811731 L5.90660072e-05,322.488219 L1179.57984,114.496477 C1179.91669,111.464475 1180.37832,108.470247 1180.95946,105.519073 L0.409756934,313.681837 L5.90660072e-05,311.358325 L1181.47977,103.031576 C1182.22841,99.651432 1183.13452,96.3307136 1184.18997,93.0775563 L0.409756934,301.809951 L5.90660072e-05,299.486439 L1185.05185,90.5298349 C1186.18192,87.3218658 1187.45837,84.1831971 1188.87316,81.1218952 L0.409756934,290.680058 L5.90660072e-05,288.356546 L1190.12531,78.5053534 C1191.92255,74.875763 1193.91677,71.3615568 1196.09394,67.9767908 L0.409756934,278.808172 L5.90660072e-05,276.48466 L1197.89768,65.26299 C1200.32139,61.7324853 1202.94848,58.3532103 1205.76197,55.1421624 L0.409756934,267.678279 L5.90660072e-05,265.354767 L1208.35185,52.2897445 C1228.05791,31.3427932 1255.99823,18.2682245 1286.98426,18.2682245 C1304.48669,18.2682245 1321.01737,22.4397214 1335.64124,29.8451905 L1499.44655,0.961893554 L1499.85625,3.28540563 L1339.03775,31.6420469 C1342.78004,33.7080999 1346.38712,35.9900147 1349.84227,38.4710579 L1499.44655,12.0917868 L1499.85625,14.4152989 L1352.45385,40.4063193 C1355.65712,42.8552205 1358.71985,45.479489 1361.62779,48.2648388 L1499.44655,23.9636729 L1499.85625,26.287185 L1363.69308,50.2964263 C1366.07241,52.7000436 1368.34013,55.2148758 1370.48781,57.8324587 L1499.44655,35.0935662 L1499.85625,37.4170782 L1372.16752,59.9320471 C1374.28003,62.6405624 1376.26684,65.4524027 1378.11915,68.3587456 L1499.44655,46.9654523 L1499.85625,49.2889643 L1379.46004,70.5180648 C1381.02394,73.1036687 1382.48302,75.760097 1383.83136,78.4814232 L1499.44655,58.0953455 L1499.85625,60.4188576 L1384.89448,80.6897193 C1386.23944,83.5665181 1387.46199,86.5123036 1388.5554,89.5203335 L1499.44655,69.9672316 L1499.85625,72.2907437 L1389.34726,91.7764597 C1390.26842,94.4972435 1391.08471,97.266588 1391.79129,100.079653 L1499.44655,81.0971249 L1499.85625,83.4206369 L1392.34195,102.37831 C1393.02915,105.392343 1393.591,108.454261 1394.02171,111.558256 L1499.44655,92.969011 L1499.85625,95.2925231 L1394.3209,113.901253 C1394.6523,116.741663 1394.87413,119.615638 1394.98204,122.518816 L1499.44655,104.098904 L1499.85625,106.422416 L1395.04488,124.903489 C1395.05379,125.476744 1395.05826,126.05108 1395.05826,126.626463 C1395.05826,129.249069 1394.96534,131.849914 1394.78261,134.425868 L1499.44655,115.97079 L1499.85625,118.294302 L1394.5829,136.856835 C1394.3008,139.877195 1393.89505,142.86153 1393.37079,145.804702 L1499.44655,127.100684 L1499.85625,129.424196 L1392.89933,148.283586 C1392.21856,151.648527 1391.38227,154.956861 1390.39831,158.20072 L1499.44655,138.97257 L1499.85625,141.296082 L1389.59427,160.738244 C1388.44674,164.209927 1387.12889,167.603745 1385.6506,170.909752 L1499.44655,150.844456 L1499.85625,153.167968 L1384.44211,173.518595 C1367.00523,209.883075 1329.91846,234.984701 1286.98426,234.984701 C1257.54342,234.984701 1230.8521,223.181609 1211.3607,204.037517 L0.409756934,417.560841 L5.90660072e-05,415.237329 L1209.33856,201.998323 Z M1209.33856,201.998323 C1210.00364,202.686939 1210.67775,203.366734 1211.3607,204.037517 L1384.44211,173.518595 C1384.85608,172.655268 1385.25897,171.785591 1385.6506,170.909752 L1209.33856,201.998323 Z M1200.54395,191.67717 C1201.07634,192.387213 1201.61723,193.090484 1202.16647,193.786831 L1389.59427,160.738244 C1389.87231,159.896937 1390.14038,159.051044 1390.39831,158.20072 L1200.54395,191.677164 Z M1193.50773,181.045953 C1193.93028,181.774018 1194.36105,182.496696 1194.79991,183.21386 L1392.89933,148.283586 C1393.06583,147.460639 1393.22302,146.634306 1393.37079,145.804702 L1193.50773,181.045953 Z M1188.28538,170.8369 C1188.61702,171.580052 1188.95677,172.318774 1189.30451,173.052953 L1394.5829,136.856835 C1394.65834,136.049057 1394.72495,135.238702 1394.78261,134.425868 L1188.28538,170.8369 Z M1184.04123,159.713373 C1184.28342,160.471498 1184.53372,161.225989 1184.79201,161.976743 L1395.04488,124.903489 C1395.03249,124.10648 1395.01151,123.311559 1394.98204,122.518816 L1184.04123,159.713373 Z M1181.23315,149.078619 C1181.39531,149.85023 1181.56565,150.618816 1181.74409,151.384281 L1394.3209,113.901253 C1394.22948,113.117669 1394.12972,112.336639 1394.02171,111.558256 L1181.23315,149.078619 Z M1179.44974,137.521248 C1179.52798,138.30705 1179.6146,139.09038 1179.7095,139.871147 L1392.34195,102.37831 C1392.16653,101.608939 1391.98294,100.842687 1391.79129,100.079653 L1179.44973,137.521198 Z M1178.91035,126.486412 C1178.91029,126.533089 1178.91026,126.579772 1178.91026,126.626463 C1178.91026,127.37884 1178.91791,128.129427 1178.93313,128.878148 L1389.34726,91.7764597 C1389.09137,91.0206356 1388.82738,90.2685589 1388.5554,89.5203335 L1178.91034,126.486415 Z M1179.57984,114.496477 C1179.48983,115.306692 1179.40873,116.119605 1179.33663,116.935114 L1384.89448,80.6897193 C1384.54819,79.9490088 1384.19377,79.2128718 1383.83136,78.4814232 L1179.57984,114.496477 Z M1181.47977,103.031576 C1181.2969,103.857235 1181.12342,104.68644 1180.95946,105.519073 L1379.46004,70.5180648 C1379.02128,69.7926736 1378.57427,69.0728569 1378.11915,68.3587456 L1181.47977,103.031576 Z M1185.05185,90.5298349 C1184.75436,91.374322 1184.46702,92.2236115 1184.18997,93.0775563 L1372.16752,59.9320471 C1371.61613,59.2250928 1371.05617,58.5251777 1370.48781,57.8324587 L1185.05185,90.5298349 Z M1190.12531,78.5053534 C1189.69666,79.3710339 1189.27921,80.2432781 1188.87316,81.1218952 L1363.69308,50.2964263 C1363.01368,49.6100971 1362.32519,48.9328356 1361.62779,48.2648388 L1190.12531,78.5053534 Z M1197.89768,65.26299 C1197.28327,66.1579644 1196.68193,67.0626569 1196.09394,67.9767908 L1352.45385,40.4063193 C1351.59337,39.7484856 1350.72276,39.1033061 1349.84227,38.4710579 L1197.89768,65.26299 Z M1208.35185,52.2897445 C1207.47198,53.2250108 1206.60854,54.1759711 1205.76197,55.1421624 L1339.03775,31.6420469 C1337.91754,31.0236035 1336.78523,30.4245018 1335.64124,29.8451905 L1208.35185,52.2897445 Z" id="Combined-Shape"></path>
                </g>
                <path d="M1226.57715,254 C1195.94808,228.046503 1173.59926,192.778255 1164,152.623472 L1194.29673,109 L1295,254 L1226.57715,254 Z" id="Combined-Shape" fill="#EDE8D7" style="mix-blend-mode: screen;"></path>
                <circle id="Oval-3-Copy" fill="#6200EE" cx="1377" cy="214" r="53"></circle>
                <path d="M1325.8928,229.000003 C1324.65892,224.460677 1324,219.681285 1324,214.746563 C1324,185.063156 1347.84152,161 1377.25152,161 C1381.64563,161 1385.91544,161.537162 1390,162.549974 C1379.42411,193.157672 1355.81139,217.576841 1325.8928,229 Z" id="Combined-Shape" fill="#FFFFFF"></path>
                <polygon id="Triangle-2" fill="#33333D" points="1387.5 125 1335 50 1440 50"></polygon>
            </g>
        </g>
    </g>
</svg>