<svg width="842" height="717" viewBox="0 0 842 717" fill="none" xmlns="http://www.w3.org/2000/svg">
<path fill-rule="evenodd" clip-rule="evenodd" d="M388.451 182.885C392.407 182.494 396.725 183.507 399.341 186.567C401.858 189.511 401.014 193.797 401.122 197.706C401.237 201.811 402.598 206.385 399.98 209.498C397.276 212.713 392.597 212.767 388.451 212.774C384.296 212.78 380.007 212.34 376.886 209.535C373.586 206.569 371.135 202.165 371.686 197.706C372.203 193.528 376.367 191.287 379.482 188.533C382.244 186.092 384.818 183.245 388.451 182.885Z" fill="#BEBAAC"/>
<path fill-rule="evenodd" clip-rule="evenodd" d="M409.432 146.929C413.388 146.537 417.706 147.551 420.322 150.611C422.839 153.555 421.994 157.84 422.103 161.75C422.217 165.854 423.578 170.429 420.96 173.542C418.257 176.757 413.578 176.81 409.432 176.817C405.277 176.824 400.988 176.384 397.867 173.579C394.566 170.612 392.116 166.209 392.667 161.75C393.184 157.571 397.348 155.33 400.463 152.576C403.224 150.135 405.799 147.288 409.432 146.929Z" fill="#BEBAAC"/>
<path fill-rule="evenodd" clip-rule="evenodd" d="M388.451 110.963C392.407 110.571 396.725 111.585 399.341 114.645C401.858 117.589 401.014 121.874 401.122 125.784C401.237 129.889 402.598 134.463 399.98 137.576C397.276 140.791 392.597 140.845 388.451 140.851C384.296 140.858 380.007 140.418 376.886 137.613C373.586 134.646 371.135 130.243 371.686 125.784C372.203 121.605 376.367 119.365 379.482 116.61C382.244 114.169 384.818 111.323 388.451 110.963Z" fill="#B91456"/>
<path fill-rule="evenodd" clip-rule="evenodd" d="M424.416 110.963C428.372 110.571 432.69 111.585 435.306 114.645C437.823 117.589 436.978 121.874 437.087 125.784C437.202 129.889 438.562 134.463 435.944 137.576C433.241 140.791 428.562 140.845 424.416 140.851C420.261 140.858 415.972 140.418 412.851 137.613C409.55 134.646 407.1 130.243 407.651 125.784C408.168 121.605 412.332 119.365 415.447 116.61C418.208 114.169 420.783 111.323 424.416 110.963Z" fill="#BEBAAC"/>
<path fill-rule="evenodd" clip-rule="evenodd" d="M445.389 75.0045C449.345 74.613 453.663 75.6262 456.279 78.6864C458.797 81.6306 457.952 85.9158 458.061 89.8254C458.175 93.93 459.536 98.5045 456.918 101.618C454.214 104.833 449.535 104.886 445.389 104.893C441.234 104.899 436.946 104.46 433.825 101.654C430.524 98.6879 428.073 94.2843 428.625 89.8254C429.141 85.6468 433.305 83.4061 436.421 80.6519C439.182 78.2109 441.757 75.364 445.389 75.0045Z" fill="#BEBAAC"/>
<path fill-rule="evenodd" clip-rule="evenodd" d="M553.278 75.0045C557.234 74.613 561.552 75.6262 564.169 78.6864C566.686 81.6306 565.841 85.9158 565.95 89.8254C566.064 93.93 567.425 98.5045 564.807 101.618C562.103 104.833 557.425 104.886 553.278 104.893C549.124 104.899 544.835 104.46 541.714 101.654C538.413 98.6879 535.963 94.2843 536.514 89.8254C537.03 85.6468 541.194 83.4061 544.31 80.6519C547.071 78.2109 549.646 75.364 553.278 75.0045Z" fill="#BEBAAC"/>
<path fill-rule="evenodd" clip-rule="evenodd" d="M460.374 110.963C464.33 110.571 468.648 111.585 471.264 114.645C473.781 117.589 472.936 121.874 473.045 125.784C473.16 129.889 474.52 134.463 471.902 137.576C469.199 140.791 464.52 140.845 460.374 140.851C456.219 140.858 451.93 140.418 448.809 137.613C445.508 134.646 443.058 130.243 443.609 125.784C444.126 121.605 448.29 119.365 451.405 116.61C454.166 114.169 456.741 111.323 460.374 110.963Z" fill="#BEBAAC"/>
<path fill-rule="evenodd" clip-rule="evenodd" d="M481.355 75.0045C485.311 74.613 489.628 75.6262 492.245 78.6864C494.762 81.6306 493.917 85.9158 494.026 89.8254C494.14 93.93 495.501 98.5045 492.883 101.618C490.179 104.833 485.501 104.886 481.355 104.893C477.2 104.899 472.911 104.46 469.79 101.654C466.489 98.6879 464.039 94.2843 464.59 89.8254C465.106 85.6468 469.271 83.4061 472.386 80.6519C475.147 78.2109 477.722 75.364 481.355 75.0045Z" fill="#BEBAAC"/>
<path fill-rule="evenodd" clip-rule="evenodd" d="M589.244 75.0045C593.2 74.613 597.518 75.6262 600.134 78.6864C602.651 81.6306 601.806 85.9158 601.915 89.8254C602.029 93.93 603.39 98.5045 600.772 101.618C598.069 104.833 593.39 104.886 589.244 104.893C585.089 104.899 580.8 104.46 577.679 101.654C574.378 98.6879 571.928 94.2843 572.479 89.8254C572.996 85.6468 577.16 83.4061 580.275 80.6519C583.036 78.2109 585.611 75.364 589.244 75.0045Z" fill="#BEBAAC"/>
<path fill-rule="evenodd" clip-rule="evenodd" d="M571.256 39.0401C575.212 38.6486 579.53 39.6618 582.147 42.7221C584.664 45.6663 583.819 49.9515 583.928 53.8611C584.042 57.9657 585.403 62.5402 582.785 65.6531C580.081 68.8682 575.403 68.9218 571.256 68.9285C567.102 68.9351 562.813 68.4953 559.692 65.6901C556.391 62.7236 553.941 58.3199 554.492 53.8611C555.008 49.6824 559.172 47.4418 562.288 44.6876C565.049 42.2466 567.624 39.3997 571.256 39.0401Z" fill="#BEBAAC"/>
<path fill-rule="evenodd" clip-rule="evenodd" d="M601.227 3.07433C605.183 2.68279 609.501 3.69602 612.117 6.75624C614.635 9.70045 613.79 13.9856 613.899 17.8953C614.013 21.9998 615.374 26.5744 612.756 29.6873C610.052 32.9024 605.373 32.956 601.227 32.9626C597.072 32.9693 592.784 32.5295 589.662 29.7243C586.362 26.7577 583.911 22.3541 584.462 17.8953C584.979 13.7166 589.143 11.476 592.259 8.72173C595.02 6.28074 597.595 3.43385 601.227 3.07433Z" fill="#BEBAAC"/>
<path fill-rule="evenodd" clip-rule="evenodd" d="M607.223 39.0401C611.179 38.6486 615.496 39.6618 618.113 42.7221C620.63 45.6663 619.785 49.9515 619.894 53.8611C620.008 57.9657 621.369 62.5402 618.751 65.6531C616.047 68.8682 611.369 68.9218 607.223 68.9285C603.068 68.9351 598.779 68.4953 595.658 65.6901C592.357 62.7236 589.907 58.3199 590.458 53.8611C590.974 49.6824 595.138 47.4418 598.254 44.6876C601.015 42.2466 603.59 39.3997 607.223 39.0401Z" fill="#BEBAAC"/>
<path fill-rule="evenodd" clip-rule="evenodd" d="M643.189 39.0401C647.145 38.6486 651.462 39.6618 654.079 42.7221C656.596 45.6663 655.751 49.9515 655.86 53.8611C655.974 57.9657 657.335 62.5402 654.717 65.6531C652.013 68.8682 647.335 68.9218 643.189 68.9285C639.034 68.9351 634.745 68.4953 631.624 65.6901C628.323 62.7236 625.873 58.3199 626.424 53.8611C626.94 49.6824 631.105 47.4418 634.22 44.6876C636.981 42.2466 639.556 39.3997 643.189 39.0401Z" fill="#BEBAAC"/>
<path fill-rule="evenodd" clip-rule="evenodd" d="M679.146 39.0401C683.102 38.6486 687.42 39.6618 690.037 42.7221C692.554 45.6663 691.709 49.9515 691.818 53.8611C691.932 57.9657 693.293 62.5402 690.675 65.6531C687.971 68.8682 683.292 68.9218 679.146 68.9285C674.991 68.9351 670.703 68.4953 667.582 65.6901C664.281 62.7236 661.83 58.3199 662.382 53.8611C662.898 49.6824 667.062 47.4418 670.178 44.6876C672.939 42.2466 675.514 39.3997 679.146 39.0401Z" fill="#BEBAAC"/>
<path fill-rule="evenodd" clip-rule="evenodd" d="M664.161 0.080188C668.117 -0.311353 672.435 0.701881 675.051 3.7621C677.568 6.70631 676.724 10.9915 676.832 14.9011C676.947 19.0057 678.308 23.5802 675.69 26.6932C672.986 29.9083 668.307 29.9619 664.161 29.9685C660.006 29.9751 655.717 29.5353 652.596 26.7301C649.296 23.7636 646.845 19.3599 647.396 14.9011C647.913 10.7224 652.077 8.48183 655.192 5.72759C657.954 3.2866 660.528 0.439714 664.161 0.080188Z" fill="#BEBAAC"/>
<path fill-rule="evenodd" clip-rule="evenodd" d="M661.168 75.0045C665.124 74.613 669.441 75.6262 672.058 78.6864C674.575 81.6306 673.73 85.9158 673.839 89.8254C673.953 93.93 675.314 98.5045 672.696 101.618C669.992 104.833 665.314 104.886 661.168 104.893C657.013 104.899 652.724 104.46 649.603 101.654C646.302 98.6879 643.852 94.2843 644.403 89.8254C644.919 85.6468 649.084 83.4061 652.199 80.6519C654.96 78.2109 657.535 75.364 661.168 75.0045Z" fill="#BEBAAC"/>
<path fill-rule="evenodd" clip-rule="evenodd" d="M496.34 110.963C500.296 110.571 504.614 111.585 507.23 114.645C509.747 117.589 508.902 121.874 509.011 125.784C509.126 129.889 510.487 134.463 507.869 137.576C505.165 140.791 500.486 140.845 496.34 140.851C492.185 140.858 487.896 140.418 484.775 137.613C481.474 134.646 479.024 130.243 479.575 125.784C480.092 121.605 484.256 119.365 487.371 116.61C490.132 114.169 492.707 111.323 496.34 110.963Z" fill="#BEBAAC"/>
<path fill-rule="evenodd" clip-rule="evenodd" d="M517.32 75.0045C521.276 74.613 525.594 75.6262 528.211 78.6864C530.728 81.6306 529.883 85.9158 529.992 89.8254C530.106 93.93 531.467 98.5045 528.849 101.618C526.145 104.833 521.467 104.886 517.32 104.893C513.166 104.899 508.877 104.46 505.756 101.654C502.455 98.6879 500.005 94.2843 500.556 89.8254C501.072 85.6468 505.236 83.4061 508.352 80.6519C511.113 78.2109 513.688 75.364 517.32 75.0045Z" fill="#BEBAAC"/>
<path fill-rule="evenodd" clip-rule="evenodd" d="M625.201 75.0045C629.157 74.613 633.475 75.6262 636.091 78.6864C638.609 81.6306 637.764 85.9158 637.873 89.8254C637.987 93.93 639.348 98.5045 636.73 101.618C634.026 104.833 629.347 104.886 625.201 104.893C621.046 104.899 616.758 104.46 613.637 101.654C610.336 98.6879 607.885 94.2843 608.437 89.8254C608.953 85.6468 613.117 83.4061 616.233 80.6519C618.994 78.2109 621.569 75.364 625.201 75.0045Z" fill="#BEBAAC"/>
<path fill-rule="evenodd" clip-rule="evenodd" d="M697.124 75.0045C701.08 74.613 705.398 75.6262 708.015 78.6864C710.532 81.6306 709.687 85.9158 709.796 89.8254C709.91 93.93 711.271 98.5045 708.653 101.618C705.949 104.833 701.271 104.886 697.124 104.893C692.969 104.899 688.681 104.46 685.56 101.654C682.259 98.6879 679.808 94.2843 680.36 89.8254C680.876 85.6468 685.04 83.4061 688.156 80.6519C690.917 78.2109 693.492 75.364 697.124 75.0045Z" fill="#BEBAAC"/>
<path fill-rule="evenodd" clip-rule="evenodd" d="M715.111 39.0401C719.067 38.6486 723.385 39.6618 726.002 42.7221C728.519 45.6663 727.674 49.9515 727.783 53.8611C727.897 57.9657 729.258 62.5402 726.64 65.6531C723.936 68.8682 719.258 68.9218 715.111 68.9285C710.957 68.9351 706.668 68.4953 703.547 65.6901C700.246 62.7236 697.796 58.3199 698.347 53.8611C698.863 49.6824 703.027 47.4418 706.143 44.6876C708.904 42.2466 711.479 39.3997 715.111 39.0401Z" fill="#BEBAAC"/>
<path fill-rule="evenodd" clip-rule="evenodd" d="M751.069 36.046C755.025 35.6545 759.343 36.6677 761.959 39.7279C764.477 42.6721 763.632 46.9573 763.741 50.867C763.855 54.9715 765.216 59.546 762.598 62.659C759.894 65.8741 755.215 65.9277 751.069 65.9343C746.914 65.941 742.626 65.5011 739.504 62.696C736.204 59.7294 733.753 55.3258 734.304 50.867C734.821 46.6883 738.985 44.4477 742.101 41.6934C744.862 39.2524 747.437 36.4055 751.069 36.046Z" fill="#BEBAAC"/>
<path fill-rule="evenodd" clip-rule="evenodd" d="M787.035 36.046C790.991 35.6545 795.308 36.6677 797.925 39.7279C800.442 42.6721 799.597 46.9573 799.706 50.867C799.82 54.9715 801.181 59.546 798.563 62.659C795.859 65.8741 791.181 65.9277 787.035 65.9343C782.88 65.941 778.591 65.5011 775.47 62.696C772.169 59.7294 769.719 55.3258 770.27 50.867C770.786 46.6883 774.95 44.4477 778.066 41.6934C780.827 39.2524 783.402 36.4055 787.035 36.046Z" fill="#BEBAAC"/>
<path fill-rule="evenodd" clip-rule="evenodd" d="M822.993 6.07579C826.949 5.68425 831.266 6.69749 833.883 9.75771C836.4 12.7019 835.555 16.9871 835.664 20.8967C835.778 25.0013 837.139 29.5758 834.521 32.6888C831.817 35.9039 827.139 35.9575 822.993 35.9641C818.838 35.9707 814.549 35.5309 811.428 32.7257C808.127 29.7592 805.677 25.3556 806.228 20.8967C806.744 16.7181 810.908 14.4774 814.024 11.7232C816.785 9.28221 819.36 6.43532 822.993 6.07579Z" fill="#BEBAAC"/>
<path fill-rule="evenodd" clip-rule="evenodd" d="M858.958 18.0592C862.914 17.6677 867.232 18.6809 869.849 21.7411C872.366 24.6853 871.521 28.9705 871.63 32.8801C871.744 36.9847 873.105 41.5592 870.487 44.6722C867.783 47.8873 863.104 47.9409 858.958 47.9475C854.803 47.9541 850.515 47.5143 847.394 44.7091C844.093 41.7426 841.642 37.339 842.194 32.8801C842.71 28.7014 846.874 26.4608 849.99 23.7066C852.751 21.2656 855.326 18.4187 858.958 18.0592Z" fill="#BEBAAC"/>
<path fill-rule="evenodd" clip-rule="evenodd" d="M822.993 45.0358C826.949 44.6442 831.266 45.6574 833.883 48.7177C836.4 51.6619 835.555 55.9471 835.664 59.8567C835.778 63.9613 837.139 68.5358 834.521 71.6488C831.817 74.8638 827.139 74.9174 822.993 74.9241C818.838 74.9307 814.549 74.4909 811.428 71.6857C808.127 68.7192 805.677 64.3155 806.228 59.8567C806.744 55.678 810.908 53.4374 814.024 50.6832C816.785 48.2422 819.36 45.3953 822.993 45.0358Z" fill="#BEBAAC"/>
<path fill-rule="evenodd" clip-rule="evenodd" d="M858.958 80.9923C862.914 80.6008 867.232 81.614 869.849 84.6742C872.366 87.6184 871.521 91.9036 871.63 95.8132C871.744 99.9178 873.105 104.492 870.487 107.605C867.783 110.82 863.104 110.874 858.958 110.881C854.803 110.887 850.515 110.447 847.394 107.642C844.093 104.676 841.642 100.272 842.194 95.8132C842.71 91.6346 846.874 89.3939 849.99 86.6397C852.751 84.1987 855.326 81.3518 858.958 80.9923Z" fill="#BEBAAC"/>
<path fill-rule="evenodd" clip-rule="evenodd" d="M778.046 0.080188C782.002 -0.311353 786.319 0.701881 788.936 3.7621C791.453 6.70631 790.608 10.9915 790.717 14.9011C790.831 19.0057 792.192 23.5802 789.574 26.6932C786.87 29.9083 782.192 29.9619 778.046 29.9685C773.891 29.9751 769.602 29.5353 766.481 26.7301C763.18 23.7636 760.73 19.3599 761.281 14.9011C761.797 10.7224 765.961 8.48183 769.077 5.72759C771.838 3.2866 774.413 0.439714 778.046 0.080188Z" fill="#BEBAAC"/>
<path fill-rule="evenodd" clip-rule="evenodd" d="M730.097 3.07433C734.053 2.68279 738.371 3.69602 740.987 6.75624C743.504 9.70045 742.659 13.9856 742.768 17.8953C742.882 21.9998 744.243 26.5744 741.625 29.6873C738.922 32.9024 734.243 32.956 730.097 32.9626C725.942 32.9693 721.653 32.5295 718.532 29.7243C715.231 26.7577 712.781 22.3541 713.332 17.8953C713.849 13.7166 718.013 11.476 721.128 8.72173C723.889 6.28074 726.464 3.43385 730.097 3.07433Z" fill="#BEBAAC"/>
<path fill-rule="evenodd" clip-rule="evenodd" d="M682.141 110.963C686.097 110.571 690.415 111.585 693.031 114.645C695.548 117.589 694.703 121.874 694.812 125.784C694.926 129.889 696.287 134.463 693.669 137.576C690.966 140.791 686.287 140.845 682.141 140.851C677.986 140.858 673.697 140.418 670.576 137.613C667.275 134.646 664.825 130.243 665.376 125.784C665.893 121.605 670.057 119.365 673.172 116.61C675.933 114.169 678.508 111.323 682.141 110.963Z" fill="#BEBAAC"/>
<path fill-rule="evenodd" clip-rule="evenodd" d="M646.182 110.963C650.138 110.571 654.456 111.585 657.072 114.645C659.59 117.589 658.745 121.874 658.854 125.784C658.968 129.889 660.329 134.463 657.711 137.576C655.007 140.791 650.328 140.845 646.182 140.851C642.027 140.858 637.739 140.418 634.617 137.613C631.317 134.646 628.866 130.243 629.418 125.784C629.934 121.605 634.098 119.365 637.214 116.61C639.975 114.169 642.55 111.323 646.182 110.963Z" fill="#BEBAAC"/>
<path fill-rule="evenodd" clip-rule="evenodd" d="M610.216 110.963C614.172 110.571 618.49 111.585 621.106 114.645C623.623 117.589 622.778 121.874 622.887 125.784C623.002 129.889 624.362 134.463 621.745 137.576C619.041 140.791 614.362 140.845 610.216 140.851C606.061 140.858 601.772 140.418 598.651 137.613C595.35 134.646 592.9 130.243 593.451 125.784C593.968 121.605 598.132 119.365 601.247 116.61C604.008 114.169 606.583 111.323 610.216 110.963Z" fill="#BEBAAC"/>
<path fill-rule="evenodd" clip-rule="evenodd" d="M445.389 146.929C449.345 146.537 453.663 147.551 456.279 150.611C458.797 153.555 457.952 157.84 458.061 161.75C458.175 165.854 459.536 170.429 456.918 173.542C454.214 176.757 449.535 176.81 445.389 176.817C441.234 176.824 436.946 176.384 433.825 173.579C430.524 170.612 428.073 166.209 428.625 161.75C429.141 157.571 433.305 155.33 436.421 152.576C439.182 150.135 441.757 147.288 445.389 146.929Z" fill="#BEBAAC"/>
<path fill-rule="evenodd" clip-rule="evenodd" d="M352.493 182.885C356.449 182.494 360.766 183.507 363.383 186.567C365.9 189.511 365.055 193.797 365.164 197.706C365.278 201.811 366.639 206.385 364.021 209.498C361.317 212.713 356.639 212.767 352.493 212.774C348.338 212.78 344.049 212.34 340.928 209.535C337.627 206.569 335.177 202.165 335.728 197.706C336.244 193.528 340.408 191.287 343.524 188.533C346.285 186.092 348.86 183.245 352.493 182.885Z" fill="#BEBAAC"/>
<path fill-rule="evenodd" clip-rule="evenodd" d="M316.528 146.929C320.484 146.537 324.801 147.551 327.418 150.611C329.935 153.555 329.09 157.84 329.199 161.75C329.313 165.854 330.674 170.429 328.056 173.542C325.352 176.757 320.674 176.81 316.528 176.817C312.373 176.824 308.084 176.384 304.963 173.579C301.662 170.612 299.212 166.209 299.763 161.75C300.279 157.571 304.444 155.33 307.559 152.576C310.32 150.135 312.895 147.288 316.528 146.929Z" fill="#BEBAAC"/>
<path fill-rule="evenodd" clip-rule="evenodd" d="M352.493 122.954C356.449 122.563 360.766 123.576 363.383 126.636C365.9 129.58 365.055 133.866 365.164 137.775C365.278 141.88 366.639 146.454 364.021 149.567C361.317 152.782 356.639 152.836 352.493 152.843C348.338 152.849 344.049 152.409 340.928 149.604C337.627 146.638 335.177 142.234 335.728 137.775C336.244 133.596 340.408 131.356 343.524 128.602C346.285 126.161 348.86 123.314 352.493 122.954Z" fill="#BEBAAC"/>
<path fill-rule="evenodd" clip-rule="evenodd" d="M373.466 218.852C377.422 218.46 381.739 219.473 384.356 222.534C386.873 225.478 386.028 229.763 386.137 233.673C386.251 237.777 387.612 242.352 384.994 245.465C382.29 248.68 377.612 248.733 373.466 248.74C369.311 248.747 365.022 248.307 361.901 245.502C358.6 242.535 356.15 238.131 356.701 233.673C357.217 229.494 361.382 227.253 364.497 224.499C367.258 222.058 369.833 219.211 373.466 218.852Z" fill="#BEBAAC"/>
<path fill-rule="evenodd" clip-rule="evenodd" d="M337.508 218.852C341.464 218.46 345.781 219.473 348.398 222.534C350.915 225.478 350.07 229.763 350.179 233.673C350.293 237.777 351.654 242.352 349.036 245.465C346.332 248.68 341.654 248.733 337.508 248.74C333.353 248.747 329.064 248.307 325.943 245.502C322.642 242.535 320.192 238.131 320.743 233.673C321.259 229.494 325.424 227.253 328.539 224.499C331.3 222.058 333.875 219.211 337.508 218.852Z" fill="#BEBAAC"/>
<path fill-rule="evenodd" clip-rule="evenodd" d="M358.481 254.811C362.437 254.42 366.755 255.433 369.371 258.493C371.888 261.437 371.044 265.722 371.152 269.632C371.267 273.737 372.628 278.311 370.01 281.424C367.306 284.639 362.627 284.693 358.481 284.699C354.326 284.706 350.037 284.266 346.916 281.461C343.616 278.495 341.165 274.091 341.716 269.632C342.233 265.453 346.397 263.213 349.512 260.459C352.274 258.018 354.848 255.171 358.481 254.811Z" fill="#BEBAAC"/>
<path fill-rule="evenodd" clip-rule="evenodd" d="M322.522 254.811C326.478 254.42 330.796 255.433 333.412 258.493C335.93 261.437 335.085 265.722 335.194 269.632C335.308 273.737 336.669 278.311 334.051 281.424C331.347 284.639 326.668 284.693 322.522 284.699C318.367 284.706 314.079 284.266 310.958 281.461C307.657 278.495 305.206 274.091 305.758 269.632C306.274 265.453 310.438 263.213 313.554 260.459C316.315 258.018 318.89 255.171 322.522 254.811Z" fill="#BEBAAC"/>
<path fill-rule="evenodd" clip-rule="evenodd" d="M343.496 290.774C347.452 290.382 351.77 291.396 354.386 294.456C356.903 297.4 356.058 301.685 356.167 305.595C356.282 309.7 357.643 314.274 355.025 317.387C352.321 320.602 347.642 320.656 343.496 320.662C339.341 320.669 335.052 320.229 331.931 317.424C328.63 314.457 326.18 310.054 326.731 305.595C327.248 301.416 331.412 299.176 334.527 296.421C337.288 293.98 339.863 291.134 343.496 290.774Z" fill="#BEBAAC"/>
<path fill-rule="evenodd" clip-rule="evenodd" d="M307.537 290.774C311.493 290.382 315.811 291.396 318.427 294.456C320.944 297.4 320.1 301.685 320.208 305.595C320.323 309.7 321.684 314.274 319.066 317.387C316.362 320.602 311.683 320.656 307.537 320.662C303.382 320.669 299.093 320.229 295.972 317.424C292.671 314.457 290.221 310.054 290.772 305.595C291.289 301.416 295.453 299.176 298.568 296.421C301.329 293.98 303.904 291.134 307.537 290.774Z" fill="#BEBAAC"/>
<path fill-rule="evenodd" clip-rule="evenodd" d="M271.573 290.774C275.529 290.382 279.847 291.396 282.463 294.456C284.98 297.4 284.135 301.685 284.244 305.595C284.359 309.7 285.719 314.274 283.101 317.387C280.398 320.602 275.719 320.656 271.573 320.662C267.418 320.669 263.129 320.229 260.008 317.424C256.707 314.457 254.257 310.054 254.808 305.595C255.325 301.416 259.489 299.176 262.604 296.421C265.365 293.98 267.94 291.134 271.573 290.774Z" fill="#BEBAAC"/>
<path fill-rule="evenodd" clip-rule="evenodd" d="M328.518 326.734C332.474 326.342 336.791 327.356 339.408 330.416C341.925 333.36 341.08 337.645 341.189 341.555C341.303 345.66 342.664 350.234 340.046 353.347C337.342 356.562 332.664 356.616 328.518 356.622C324.363 356.629 320.074 356.189 316.953 353.384C313.652 350.417 311.202 346.014 311.753 341.555C312.269 337.376 316.434 335.136 319.549 332.381C322.31 329.94 324.885 327.094 328.518 326.734Z" fill="#BEBAAC"/>
<path fill-rule="evenodd" clip-rule="evenodd" d="M292.552 326.734C296.508 326.342 300.826 327.356 303.443 330.416C305.96 333.36 305.115 337.645 305.224 341.555C305.338 345.66 306.699 350.234 304.081 353.347C301.377 356.562 296.698 356.616 292.552 356.622C288.397 356.629 284.109 356.189 280.988 353.384C277.687 350.417 275.236 346.014 275.788 341.555C276.304 337.376 280.468 335.136 283.584 332.381C286.345 329.94 288.92 327.094 292.552 326.734Z" fill="#BEBAAC"/>
<path fill-rule="evenodd" clip-rule="evenodd" d="M256.587 326.734C260.544 326.342 264.861 327.356 267.478 330.416C269.995 333.36 269.15 337.645 269.259 341.555C269.373 345.66 270.734 350.234 268.116 353.347C265.412 356.562 260.734 356.616 256.587 356.622C252.433 356.629 248.144 356.189 245.023 353.384C241.722 350.417 239.272 346.014 239.823 341.555C240.339 337.376 244.503 335.136 247.619 332.381C250.38 329.94 252.955 327.094 256.587 326.734Z" fill="#BEBAAC"/>
<path fill-rule="evenodd" clip-rule="evenodd" d="M313.533 362.7C317.489 362.308 321.807 363.322 324.423 366.382C326.941 369.326 326.096 373.611 326.205 377.521C326.319 381.625 327.68 386.2 325.062 389.313C322.358 392.528 317.679 392.581 313.533 392.588C309.378 392.595 305.09 392.155 301.969 389.35C298.668 386.383 296.217 381.98 296.769 377.521C297.285 373.342 301.449 371.101 304.565 368.347C307.326 365.906 309.901 363.059 313.533 362.7Z" fill="#BEBAAC"/>
<path fill-rule="evenodd" clip-rule="evenodd" d="M277.567 362.7C281.523 362.308 285.841 363.322 288.457 366.382C290.975 369.326 290.13 373.611 290.239 377.521C290.353 381.625 291.714 386.2 289.096 389.313C286.392 392.528 281.713 392.581 277.567 392.588C273.412 392.595 269.124 392.155 266.002 389.35C262.702 386.383 260.251 381.98 260.803 377.521C261.319 373.342 265.483 371.101 268.599 368.347C271.36 365.906 273.935 363.059 277.567 362.7Z" fill="#BEBAAC"/>
<path fill-rule="evenodd" clip-rule="evenodd" d="M241.609 362.7C245.565 362.308 249.883 363.322 252.5 366.382C255.017 369.326 254.172 373.611 254.281 377.521C254.395 381.625 255.756 386.2 253.138 389.313C250.434 392.528 245.756 392.581 241.609 392.588C237.455 392.595 233.166 392.155 230.045 389.35C226.744 386.383 224.294 381.98 224.845 377.521C225.361 373.342 229.525 371.101 232.641 368.347C235.402 365.906 237.977 363.059 241.609 362.7Z" fill="#BEBAAC"/>
<path fill-rule="evenodd" clip-rule="evenodd" d="M298.548 398.664C302.504 398.273 306.822 399.286 309.438 402.346C311.955 405.29 311.11 409.575 311.219 413.485C311.334 417.59 312.695 422.164 310.077 425.277C307.373 428.492 302.694 428.546 298.548 428.552C294.393 428.559 290.104 428.119 286.983 425.314C283.682 422.348 281.232 417.944 281.783 413.485C282.3 409.306 286.464 407.066 289.579 404.312C292.34 401.871 294.915 399.024 298.548 398.664Z" fill="#BEBAAC"/>
<path fill-rule="evenodd" clip-rule="evenodd" d="M262.583 398.664C266.539 398.273 270.856 399.286 273.473 402.346C275.99 405.29 275.145 409.575 275.254 413.485C275.368 417.59 276.729 422.164 274.111 425.277C271.407 428.492 266.729 428.546 262.583 428.552C258.428 428.559 254.139 428.119 251.018 425.314C247.717 422.348 245.267 417.944 245.818 413.485C246.334 409.306 250.499 407.066 253.614 404.312C256.375 401.871 258.95 399.024 262.583 398.664Z" fill="#BEBAAC"/>
<path fill-rule="evenodd" clip-rule="evenodd" d="M226.625 398.664C230.581 398.273 234.899 399.286 237.515 402.346C240.032 405.29 239.187 409.575 239.296 413.485C239.411 417.59 240.771 422.164 238.153 425.277C235.45 428.492 230.771 428.546 226.625 428.552C222.47 428.559 218.181 428.119 215.06 425.314C211.759 422.348 209.309 417.944 209.86 413.485C210.377 409.306 214.541 407.066 217.656 404.312C220.417 401.871 222.992 399.024 226.625 398.664Z" fill="#BEBAAC"/>
<path fill-rule="evenodd" clip-rule="evenodd" d="M190.659 398.664C194.615 398.273 198.933 399.286 201.549 402.346C204.066 405.29 203.222 409.575 203.33 413.485C203.445 417.59 204.806 422.164 202.188 425.277C199.484 428.492 194.805 428.546 190.659 428.552C186.504 428.559 182.215 428.119 179.094 425.314C175.794 422.348 173.343 417.944 173.894 413.485C174.411 409.306 178.575 407.066 181.69 404.312C184.452 401.871 187.026 399.024 190.659 398.664Z" fill="#BEBAAC"/>
<path fill-rule="evenodd" clip-rule="evenodd" d="M247.598 434.623C251.555 434.231 255.872 435.244 258.489 438.305C261.006 441.249 260.161 445.534 260.27 449.444C260.384 453.548 261.745 458.123 259.127 461.236C256.423 464.451 251.745 464.504 247.598 464.511C243.444 464.518 239.155 464.078 236.034 461.273C232.733 458.306 230.283 453.902 230.834 449.444C231.35 445.265 235.514 443.024 238.63 440.27C241.391 437.829 243.966 434.982 247.598 434.623Z" fill="#BEBAAC"/>
<path fill-rule="evenodd" clip-rule="evenodd" d="M211.64 434.623C215.596 434.231 219.914 435.244 222.53 438.305C225.047 441.249 224.202 445.534 224.311 449.444C224.425 453.548 225.786 458.123 223.168 461.236C220.465 464.451 215.786 464.504 211.64 464.511C207.485 464.518 203.196 464.078 200.075 461.273C196.774 458.306 194.324 453.902 194.875 449.444C195.392 445.265 199.556 443.024 202.671 440.27C205.432 437.829 208.007 434.982 211.64 434.623Z" fill="#BEBAAC"/>
<path fill-rule="evenodd" clip-rule="evenodd" d="M175.674 434.623C179.63 434.231 183.947 435.244 186.564 438.305C189.081 441.249 188.236 445.534 188.345 449.444C188.459 453.548 189.82 458.123 187.202 461.236C184.498 464.451 179.82 464.504 175.674 464.511C171.519 464.518 167.23 464.078 164.109 461.273C160.808 458.306 158.358 453.902 158.909 449.444C159.425 445.265 163.59 443.024 166.705 440.27C169.466 437.829 172.041 434.982 175.674 434.623Z" fill="#B91456"/>
<path fill-rule="evenodd" clip-rule="evenodd" d="M139.717 434.623C143.673 434.231 147.99 435.244 150.607 438.305C153.124 441.249 152.279 445.534 152.388 449.444C152.502 453.548 153.863 458.123 151.245 461.236C148.541 464.451 143.863 464.504 139.717 464.511C135.562 464.518 131.273 464.078 128.152 461.273C124.851 458.306 122.401 453.902 122.952 449.444C123.468 445.265 127.633 443.024 130.748 440.27C133.509 437.829 136.084 434.982 139.717 434.623Z" fill="#BEBAAC"/>
<path fill-rule="evenodd" clip-rule="evenodd" d="M232.613 470.588C236.569 470.197 240.887 471.21 243.503 474.27C246.021 477.215 245.176 481.5 245.285 485.409C245.399 489.514 246.76 494.089 244.142 497.201C241.438 500.417 236.759 500.47 232.613 500.477C228.458 500.483 224.17 500.044 221.048 497.238C217.748 494.272 215.297 489.868 215.848 485.409C216.365 481.231 220.529 478.99 223.645 476.236C226.406 473.795 228.981 470.948 232.613 470.588Z" fill="#BEBAAC"/>
<path fill-rule="evenodd" clip-rule="evenodd" d="M196.654 470.588C200.61 470.197 204.928 471.21 207.545 474.27C210.062 477.215 209.217 481.5 209.326 485.409C209.44 489.514 210.801 494.089 208.183 497.201C205.479 500.417 200.801 500.47 196.654 500.477C192.499 500.483 188.211 500.044 185.09 497.238C181.789 494.272 179.339 489.868 179.89 485.409C180.406 481.231 184.57 478.99 187.686 476.236C190.447 473.795 193.022 470.948 196.654 470.588Z" fill="#BEBAAC"/>
<path fill-rule="evenodd" clip-rule="evenodd" d="M160.689 470.588C164.645 470.197 168.963 471.21 171.579 474.27C174.096 477.215 173.252 481.5 173.36 485.409C173.475 489.514 174.836 494.089 172.218 497.201C169.514 500.417 164.835 500.47 160.689 500.477C156.534 500.483 152.245 500.044 149.124 497.238C145.824 494.272 143.373 489.868 143.924 485.409C144.441 481.231 148.605 478.99 151.72 476.236C154.482 473.795 157.057 470.948 160.689 470.588Z" fill="#BEBAAC"/>
<path fill-rule="evenodd" clip-rule="evenodd" d="M124.731 470.588C128.687 470.197 133.005 471.21 135.621 474.27C138.139 477.215 137.294 481.5 137.403 485.409C137.517 489.514 138.878 494.089 136.26 497.201C133.556 500.417 128.877 500.47 124.731 500.477C120.576 500.483 116.288 500.044 113.167 497.238C109.866 494.272 107.415 489.868 107.967 485.409C108.483 481.231 112.647 478.99 115.763 476.236C118.524 473.795 121.099 470.948 124.731 470.588Z" fill="#BEBAAC"/>
<path fill-rule="evenodd" clip-rule="evenodd" d="M88.7655 470.588C92.7215 470.197 97.0393 471.21 99.6557 474.27C102.173 477.215 101.328 481.5 101.437 485.409C101.551 489.514 102.912 494.089 100.294 497.201C97.5903 500.417 92.9116 500.47 88.7655 500.477C84.6106 500.483 80.3219 500.044 77.2007 497.238C73.9 494.272 71.4496 489.868 72.0008 485.409C72.5173 481.231 76.6814 478.99 79.7969 476.236C82.558 473.795 85.1329 470.948 88.7655 470.588Z" fill="#B91456"/>
<path fill-rule="evenodd" clip-rule="evenodd" d="M220.629 506.546C224.585 506.154 228.903 507.167 231.519 510.227C234.036 513.172 233.191 517.457 233.3 521.366C233.414 525.471 234.775 530.046 232.157 533.159C229.454 536.374 224.775 536.427 220.629 536.434C216.474 536.44 212.185 536.001 209.064 533.195C205.763 530.229 203.313 525.825 203.864 521.366C204.381 517.188 208.545 514.947 211.66 512.193C214.421 509.752 216.996 506.905 220.629 506.546Z" fill="#BEBAAC"/>
<path fill-rule="evenodd" clip-rule="evenodd" d="M184.664 506.546C188.62 506.154 192.938 507.167 195.554 510.227C198.071 513.172 197.226 517.457 197.335 521.366C197.45 525.471 198.81 530.046 196.193 533.159C193.489 536.374 188.81 536.427 184.664 536.434C180.509 536.44 176.22 536.001 173.099 533.195C169.798 530.229 167.348 525.825 167.899 521.366C168.416 517.188 172.58 514.947 175.695 512.193C178.456 509.752 181.031 506.905 184.664 506.546Z" fill="#BEBAAC"/>
<path fill-rule="evenodd" clip-rule="evenodd" d="M148.706 506.546C152.662 506.154 156.979 507.167 159.596 510.227C162.113 513.172 161.268 517.457 161.377 521.366C161.491 525.471 162.852 530.046 160.234 533.159C157.53 536.374 152.852 536.427 148.706 536.434C144.551 536.44 140.262 536.001 137.141 533.195C133.84 530.229 131.39 525.825 131.941 521.366C132.457 517.188 136.622 514.947 139.737 512.193C142.498 509.752 145.073 506.905 148.706 506.546Z" fill="#BEBAAC"/>
<path fill-rule="evenodd" clip-rule="evenodd" d="M112.74 506.546C116.696 506.154 121.013 507.167 123.63 510.227C126.147 513.172 125.302 517.457 125.411 521.366C125.525 525.471 126.886 530.046 124.268 533.159C121.564 536.374 116.886 536.427 112.74 536.434C108.585 536.44 104.296 536.001 101.175 533.195C97.8741 530.229 95.4237 525.825 95.9749 521.366C96.4914 517.188 100.656 514.947 103.771 512.193C106.532 509.752 109.107 506.905 112.74 506.546Z" fill="#BEBAAC"/>
<path fill-rule="evenodd" clip-rule="evenodd" d="M76.7828 506.546C80.7388 506.154 85.0566 507.167 87.673 510.227C90.1902 513.172 89.3454 517.457 89.4542 521.366C89.5685 525.471 90.9294 530.046 88.3114 533.159C85.6076 536.374 80.929 536.427 76.7828 536.434C72.6279 536.44 68.3392 536.001 65.2181 533.195C61.9173 530.229 59.4669 525.825 60.0181 521.366C60.5346 517.188 64.6987 514.947 67.8142 512.193C70.5753 509.752 73.1503 506.905 76.7828 506.546Z" fill="#BEBAAC"/>
<path fill-rule="evenodd" clip-rule="evenodd" d="M211.64 542.511C215.596 542.12 219.914 543.133 222.53 546.193C225.047 549.137 224.202 553.423 224.311 557.332C224.425 561.437 225.786 566.011 223.168 569.124C220.465 572.339 215.786 572.393 211.64 572.4C207.485 572.406 203.196 571.966 200.075 569.161C196.774 566.195 194.324 561.791 194.875 557.332C195.392 553.154 199.556 550.913 202.671 548.159C205.432 545.718 208.007 542.871 211.64 542.511Z" fill="#BEBAAC"/>
<path fill-rule="evenodd" clip-rule="evenodd" d="M175.674 542.511C179.63 542.12 183.947 543.133 186.564 546.193C189.081 549.137 188.236 553.423 188.345 557.332C188.459 561.437 189.82 566.011 187.202 569.124C184.498 572.339 179.82 572.393 175.674 572.4C171.519 572.406 167.23 571.966 164.109 569.161C160.808 566.195 158.358 561.791 158.909 557.332C159.425 553.154 163.59 550.913 166.705 548.159C169.466 545.718 172.041 542.871 175.674 542.511Z" fill="#BEBAAC"/>
<path fill-rule="evenodd" clip-rule="evenodd" d="M139.717 542.511C143.673 542.12 147.99 543.133 150.607 546.193C153.124 549.137 152.279 553.423 152.388 557.332C152.502 561.437 153.863 566.011 151.245 569.124C148.541 572.339 143.863 572.393 139.717 572.4C135.562 572.406 131.273 571.966 128.152 569.161C124.851 566.195 122.401 561.791 122.952 557.332C123.468 553.154 127.633 550.913 130.748 548.159C133.509 545.718 136.084 542.871 139.717 542.511Z" fill="#BEBAAC"/>
<path fill-rule="evenodd" clip-rule="evenodd" d="M67.7845 542.511C71.7405 542.12 76.0583 543.133 78.6747 546.193C81.1919 549.137 80.3471 553.423 80.4559 557.332C80.5702 561.437 81.9311 566.011 79.3131 569.124C76.6093 572.339 71.9307 572.393 67.7845 572.4C63.6296 572.406 59.341 571.966 56.2198 569.161C52.919 566.195 50.4686 561.791 51.0198 557.332C51.5363 553.154 55.7004 550.913 58.8159 548.159C61.577 545.718 64.152 542.871 67.7845 542.511Z" fill="#BEBAAC"/>
<path fill-rule="evenodd" clip-rule="evenodd" d="M103.751 542.511C107.707 542.12 112.024 543.133 114.641 546.193C117.158 549.137 116.313 553.423 116.422 557.332C116.536 561.437 117.897 566.011 115.279 569.124C112.575 572.339 107.897 572.393 103.751 572.4C99.5957 572.406 95.307 571.966 92.1858 569.161C88.8851 566.195 86.4347 561.791 86.9859 557.332C87.5024 553.154 91.6665 550.913 94.782 548.159C97.5431 545.718 100.118 542.871 103.751 542.511Z" fill="#BEBAAC"/>
<path fill-rule="evenodd" clip-rule="evenodd" d="M31.8277 542.511C35.7838 542.12 40.1015 543.133 42.7179 546.193C45.2351 549.137 44.3903 553.423 44.4991 557.332C44.6134 561.437 45.9743 566.011 43.3563 569.124C40.6525 572.339 35.9739 572.393 31.8277 572.4C27.6728 572.406 23.3842 571.966 20.263 569.161C16.9623 566.195 14.5119 561.791 15.063 557.332C15.5795 553.154 19.7437 550.913 22.8591 548.159C25.6202 545.718 28.1952 542.871 31.8277 542.511Z" fill="#BEBAAC"/>
<path fill-rule="evenodd" clip-rule="evenodd" d="M40.8167 506.546C44.7728 506.154 49.0905 507.167 51.7069 510.227C54.2241 513.172 53.3793 517.457 53.4881 521.366C53.6024 525.471 54.9633 530.046 52.3454 533.159C49.6415 536.374 44.9629 536.427 40.8167 536.434C36.6618 536.44 32.3732 536.001 29.252 533.195C25.9513 530.229 23.5009 525.825 24.052 521.366C24.5686 517.188 28.7327 514.947 31.8481 512.193C34.6093 509.752 37.1842 506.905 40.8167 506.546Z" fill="#BEBAAC"/>
<path fill-rule="evenodd" clip-rule="evenodd" d="M247.598 557.497C251.555 557.105 255.872 558.118 258.489 561.179C261.006 564.123 260.161 568.408 260.27 572.318C260.384 576.422 261.745 580.997 259.127 584.11C256.423 587.325 251.745 587.378 247.598 587.385C243.444 587.392 239.155 586.952 236.034 584.147C232.733 581.18 230.283 576.776 230.834 572.318C231.35 568.139 235.514 565.898 238.63 563.144C241.391 560.703 243.966 557.856 247.598 557.497Z" fill="#BEBAAC"/>
<path fill-rule="evenodd" clip-rule="evenodd" d="M235.614 593.453C239.57 593.062 243.888 594.075 246.504 597.135C249.021 600.079 248.177 604.365 248.285 608.274C248.4 612.379 249.761 616.953 247.143 620.066C244.439 623.281 239.76 623.335 235.614 623.342C231.459 623.348 227.171 622.908 224.049 620.103C220.749 617.137 218.298 612.733 218.849 608.274C219.366 604.095 223.53 601.855 226.645 599.101C229.407 596.66 231.982 593.813 235.614 593.453Z" fill="#BEBAAC"/>
<path fill-rule="evenodd" clip-rule="evenodd" d="M220.629 629.421C224.585 629.029 228.903 630.043 231.519 633.103C234.036 636.047 233.191 640.332 233.3 644.242C233.414 648.347 234.775 652.921 232.157 656.034C229.454 659.249 224.775 659.303 220.629 659.309C216.474 659.316 212.185 658.876 209.064 656.071C205.763 653.104 203.313 648.701 203.864 644.242C204.381 640.063 208.545 637.823 211.66 635.068C214.421 632.627 216.996 629.781 220.629 629.421Z" fill="#BEBAAC"/>
<path fill-rule="evenodd" clip-rule="evenodd" d="M211.64 665.379C215.596 664.987 219.914 666.001 222.53 669.061C225.047 672.005 224.202 676.29 224.311 680.2C224.425 684.305 225.786 688.879 223.168 691.992C220.465 695.207 215.786 695.261 211.64 695.267C207.485 695.274 203.196 694.834 200.075 692.029C196.774 689.062 194.324 684.659 194.875 680.2C195.392 676.021 199.556 673.781 202.671 671.026C205.432 668.585 208.007 665.739 211.64 665.379Z" fill="#BEBAAC"/>
<path fill-rule="evenodd" clip-rule="evenodd" d="M196.654 578.47C200.61 578.078 204.928 579.092 207.545 582.152C210.062 585.096 209.217 589.381 209.326 593.291C209.44 597.395 210.801 601.97 208.183 605.083C205.479 608.298 200.801 608.352 196.654 608.358C192.499 608.365 188.211 607.925 185.09 605.12C181.789 602.153 179.339 597.75 179.89 593.291C180.406 589.112 184.57 586.871 187.686 584.117C190.447 581.676 193.022 578.829 196.654 578.47Z" fill="#BEBAAC"/>
<path fill-rule="evenodd" clip-rule="evenodd" d="M160.689 578.47C164.645 578.078 168.963 579.092 171.579 582.152C174.096 585.096 173.252 589.381 173.36 593.291C173.475 597.395 174.836 601.97 172.218 605.083C169.514 608.298 164.835 608.352 160.689 608.358C156.534 608.365 152.245 607.925 149.124 605.12C145.824 602.153 143.373 597.75 143.924 593.291C144.441 589.112 148.605 586.871 151.72 584.117C154.482 581.676 157.057 578.829 160.689 578.47Z" fill="#BEBAAC"/>
<path fill-rule="evenodd" clip-rule="evenodd" d="M124.731 578.47C128.687 578.078 133.005 579.092 135.621 582.152C138.139 585.096 137.294 589.381 137.403 593.291C137.517 597.395 138.878 601.97 136.26 605.083C133.556 608.298 128.877 608.352 124.731 608.358C120.576 608.365 116.288 607.925 113.167 605.12C109.866 602.153 107.415 597.75 107.967 593.291C108.483 589.112 112.647 586.871 115.763 584.117C118.524 581.676 121.099 578.829 124.731 578.47Z" fill="#BEBAAC"/>
<path fill-rule="evenodd" clip-rule="evenodd" d="M52.8084 578.47C56.7645 578.078 61.0822 579.092 63.6986 582.152C66.2158 585.096 65.371 589.381 65.4798 593.291C65.5941 597.395 66.955 601.97 64.3371 605.083C61.6332 608.298 56.9546 608.352 52.8084 608.358C48.6535 608.365 44.3649 607.925 41.2437 605.12C37.943 602.153 35.4926 597.75 36.0437 593.291C36.5603 589.112 40.7244 586.871 43.8398 584.117C46.601 581.676 49.1759 578.829 52.8084 578.47Z" fill="#BEBAAC"/>
<path fill-rule="evenodd" clip-rule="evenodd" d="M88.7655 578.47C92.7215 578.078 97.0393 579.092 99.6557 582.152C102.173 585.096 101.328 589.381 101.437 593.291C101.551 597.395 102.912 601.97 100.294 605.083C97.5903 608.298 92.9116 608.352 88.7655 608.358C84.6106 608.365 80.3219 607.925 77.2007 605.12C73.9 602.153 71.4496 597.75 72.0008 593.291C72.5173 589.112 76.6814 586.871 79.7969 584.117C82.558 581.676 85.1329 578.829 88.7655 578.47Z" fill="#BEBAAC"/>
<path fill-rule="evenodd" clip-rule="evenodd" d="M16.8424 578.47C20.7984 578.078 25.1162 579.092 27.7326 582.152C30.2498 585.096 29.4049 589.381 29.5138 593.291C29.628 597.395 30.989 601.97 28.371 605.083C25.6672 608.298 20.9885 608.352 16.8424 608.358C12.6875 608.365 8.39882 607.925 5.27763 605.12C1.9769 602.153 -0.4735 597.75 0.0776571 593.291C0.594188 589.112 4.75831 586.871 7.87377 584.117C10.6349 581.676 13.2098 578.829 16.8424 578.47Z" fill="#B91456"/>
<path fill-rule="evenodd" clip-rule="evenodd" d="M181.67 614.434C185.626 614.043 189.944 615.056 192.56 618.116C195.077 621.06 194.232 625.346 194.341 629.255C194.455 633.36 195.816 637.934 193.198 641.047C190.495 644.262 185.816 644.316 181.67 644.322C177.515 644.329 173.226 643.889 170.105 641.084C166.804 638.118 164.354 633.714 164.905 629.255C165.422 625.076 169.586 622.836 172.701 620.082C175.462 617.641 178.037 614.794 181.67 614.434Z" fill="#B91456"/>
<path fill-rule="evenodd" clip-rule="evenodd" d="M145.704 614.434C149.66 614.043 153.978 615.056 156.594 618.116C159.111 621.06 158.266 625.346 158.375 629.255C158.49 633.36 159.851 637.934 157.233 641.047C154.529 644.262 149.85 644.316 145.704 644.322C141.549 644.329 137.26 643.889 134.139 641.084C130.838 638.118 128.388 633.714 128.939 629.255C129.456 625.076 133.62 622.836 136.735 620.082C139.496 617.641 142.071 614.794 145.704 614.434Z" fill="#BEBAAC"/>
<path fill-rule="evenodd" clip-rule="evenodd" d="M109.746 614.434C113.702 614.043 118.02 615.056 120.636 618.116C123.154 621.06 122.309 625.346 122.418 629.255C122.532 633.36 123.893 637.934 121.275 641.047C118.571 644.262 113.892 644.316 109.746 644.322C105.591 644.329 101.303 643.889 98.1814 641.084C94.8807 638.118 92.4303 633.714 92.9815 629.255C93.498 625.076 97.6621 622.836 100.778 620.082C103.539 617.641 106.114 614.794 109.746 614.434Z" fill="#BEBAAC"/>
<path fill-rule="evenodd" clip-rule="evenodd" d="M73.7809 614.434C77.7369 614.043 82.0547 615.056 84.671 618.116C87.1882 621.06 86.3434 625.346 86.4522 629.255C86.5665 633.36 87.9274 637.934 85.3095 641.047C82.6056 644.262 77.927 644.316 73.7809 644.322C69.626 644.329 65.3373 643.889 62.2161 641.084C58.9154 638.118 56.465 633.714 57.0161 629.255C57.5327 625.076 61.6968 622.836 64.8122 620.082C67.5734 617.641 70.1483 614.794 73.7809 614.434Z" fill="#BEBAAC"/>
<path fill-rule="evenodd" clip-rule="evenodd" d="M166.685 650.401C170.641 650.01 174.958 651.023 177.575 654.083C180.092 657.028 179.247 661.313 179.356 665.222C179.47 669.327 180.831 673.901 178.213 677.014C175.509 680.23 170.831 680.283 166.685 680.29C162.53 680.296 158.241 679.857 155.12 677.051C151.819 674.085 149.369 669.681 149.92 665.222C150.436 661.044 154.601 658.803 157.716 656.049C160.477 653.608 163.052 650.761 166.685 650.401Z" fill="#BEBAAC"/>
<path fill-rule="evenodd" clip-rule="evenodd" d="M130.719 650.401C134.675 650.01 138.993 651.023 141.61 654.083C144.127 657.028 143.282 661.313 143.391 665.222C143.505 669.327 144.866 673.901 142.248 677.014C139.544 680.23 134.865 680.283 130.719 680.29C126.564 680.296 122.276 679.857 119.155 677.051C115.854 674.085 113.403 669.681 113.955 665.222C114.471 661.044 118.635 658.803 121.751 656.049C124.512 653.608 127.087 650.761 130.719 650.401Z" fill="#BEBAAC"/>
<path fill-rule="evenodd" clip-rule="evenodd" d="M118.736 686.359C122.692 685.967 127.01 686.98 129.626 690.04C132.143 692.985 131.298 697.27 131.407 701.179C131.522 705.284 132.883 709.859 130.265 712.972C127.561 716.187 122.882 716.24 118.736 716.247C114.581 716.253 110.292 715.814 107.171 713.008C103.87 710.042 101.42 705.638 101.971 701.179C102.488 697.001 106.652 694.76 109.767 692.006C112.528 689.565 115.103 686.718 118.736 686.359Z" fill="#BEBAAC"/>
<path fill-rule="evenodd" clip-rule="evenodd" d="M94.7616 650.401C98.7176 650.01 103.035 651.023 105.652 654.083C108.169 657.028 107.324 661.313 107.433 665.222C107.547 669.327 108.908 673.901 106.29 677.014C103.586 680.23 98.9077 680.283 94.7616 680.29C90.6067 680.296 86.318 679.857 83.1968 677.051C79.8961 674.085 77.4457 669.681 77.9968 665.222C78.5134 661.044 82.6775 658.803 85.793 656.049C88.5541 653.608 91.129 650.761 94.7616 650.401Z" fill="#BEBAAC"/>
<path fill-rule="evenodd" clip-rule="evenodd" d="M82.7699 686.359C86.7259 685.967 91.0437 686.98 93.6601 690.04C96.1773 692.985 95.3324 697.27 95.4413 701.179C95.5555 705.284 96.9164 709.859 94.2985 712.972C91.5947 716.187 86.916 716.24 82.7699 716.247C78.615 716.253 74.3263 715.814 71.2051 713.008C67.9044 710.042 65.454 705.638 66.0051 701.179C66.5217 697.001 70.6858 694.76 73.8013 692.006C76.5624 689.565 79.1373 686.718 82.7699 686.359Z" fill="#BEBAAC"/>
<path fill-rule="evenodd" clip-rule="evenodd" d="M58.7955 650.401C62.7515 650.01 67.0693 651.023 69.6857 654.083C72.2029 657.028 71.358 661.313 71.4669 665.222C71.5812 669.327 72.9421 673.901 70.3241 677.014C67.6203 680.23 62.9417 680.283 58.7955 680.29C54.6406 680.296 50.3519 679.857 47.2308 677.051C43.93 674.085 41.4796 669.681 42.0308 665.222C42.5473 661.044 46.7114 658.803 49.8269 656.049C52.588 653.608 55.1629 650.761 58.7955 650.401Z" fill="#BEBAAC"/>
<path fill-rule="evenodd" clip-rule="evenodd" d="M22.838 644.406C26.794 644.014 31.1118 645.028 33.7282 648.088C36.2454 651.032 35.4005 655.317 35.5094 659.227C35.6237 663.331 36.9846 667.906 34.3666 671.019C31.6628 674.234 26.9841 674.288 22.838 674.294C18.6831 674.301 14.3944 673.861 11.2732 671.056C7.9725 668.089 5.52211 663.686 6.07326 659.227C6.58979 655.048 10.7539 652.808 13.8694 650.053C16.6305 647.612 19.2054 644.765 22.838 644.406Z" fill="#BEBAAC"/>
<path fill-rule="evenodd" clip-rule="evenodd" d="M46.8121 686.359C50.7681 685.967 55.0859 686.98 57.7023 690.04C60.2195 692.985 59.3746 697.27 59.4835 701.179C59.5978 705.284 60.9587 709.859 58.3407 712.972C55.6369 716.187 50.9583 716.24 46.8121 716.247C42.6572 716.253 38.3685 715.814 35.2474 713.008C31.9466 710.042 29.4962 705.638 30.0474 701.179C30.5639 697.001 34.728 694.76 37.8435 692.006C40.6046 689.565 43.1795 686.718 46.8121 686.359Z" fill="#BEBAAC"/>
</svg>
