<svg width="476" height="490" xmlns="http://www.w3.org/2000/svg" xmlns:xlink="http://www.w3.org/1999/xlink"><defs><path d="M279.524 5.673c67.444 8.829 127.32 44.85 165.525 101.172 34.686 51.134 37.545 115.14 21.734 174.884-15.048 56.858-54.036 99.788-103.025 132.281-62.578 41.507-130.885 93.53-202.249 70.204C82.749 458.471 34.867 379.85 13.851 299.641-8.118 215.798-9.048 119.29 49.048 55.006 104.494-6.344 197.567-5.056 279.524 5.673z" id="a"/></defs><g fill="none" fill-rule="evenodd"><mask id="b" fill="#fff"><use xlink:href="#a"/></mask><use fill="#03DAC6" xlink:href="#a"/><g mask="url(#b)"><path d="M438 171.276l-50.56-28.813L313 159.566s8.97 85.897 9.629 85.897c.66 0 94.03-1.898 94.03-1.898L438 171.275z" fill="#EDE8D7"/><path d="M425 158.078l9.665 13.726 26.242 5.659s45.786-15.603 73.63-55.41c27.842-39.807 84.022-86.232 157.82-86.815C766.157 34.654 827-50.16 827-50.16s-42.144 12.475-48.632-17.224c-6.485-29.696-12.163-67.955-46.224-68.153-14.372-.082-24.989 13.124-30.365 26.787-7.511 19.1-12.912 41.56-46.252 42.697-23.525.801-31.102.05-62.373 9.522-31.271 9.473-78.476 6.371-78.476 6.371l-70.98 109.183L425 158.078zM495 215.463v50.721L371.737 447.92l-.628.145v.782l-1.352 1.99-61.187 37.074L232 534.463l97.479-215.265zM152.826 484.463c-.275.275-.551.55-.826.827" fill="#EDE8D7"/><path d="M-199 138.207l3.293 27.18 86.34 37.412h66.978l63.315 70.664 163.26-190.01 46.572 43.446L289.49-.65s1.725-18-14.342-35.85c-11.177-12.413-43.175-19.073-43.175-19.073s26.948-24.292 42.464-52.05c14.048-25.136 22.73-52.145 21.436-69.596-4.419-59.676-90.755-116.317-90.755-116.317l-23.549 20.523S87.904-137.965 91.568-48.456c0 0-46.235-30.792-105.533 2.4C-73.262-12.86-34.506-26.26-46.695-2.909c-26.367 50.52 15.559 113.177-15.113 145.697-15.496 16.432-44.28 19.922-65.982 14.68-25.356-6.123-42.674-22.732-42.674-22.732l5.63-49.19-34.166 52.66z" fill="#33333D"/><path d="M359.13 102.553c0-19.142-21.353-21.896-28.95-13.843-10.031 10.632-4.787 28.34 9.656 32.278 14.446 3.938 26.164-1.257 26.164-1.257l-6.87-17.178z" fill="#423D89"/><path fill="#FFC4BC" d="M416.015 158.463L406 189.932l36 6.53-8.27-38zM409 555.504s71.997 36.856 136.3-5.135c45.16-29.494 48.526-33.326 83.122-72.699s-46.632-80.207-46.632-80.207l-33.684 4.255-128.738 148.254L409 555.504z"/><path d="M209.313 386.94c-29.76 1.038-33.766 19.538-25.63 30.56 8.131 11.02 56.087 51.963 56.087 51.963l31.332-18.255L285 403.632l-29.745-21.17-45.942 4.478zM57.388 869.463l-69.703-87.912s35.715-17.238 34.851-36.199c-.863-18.961-19.873-32.177-52.133-28.153-32.26 4.02-83.529.573-74.311-72.973 9.215-73.548 72.007-133.88 167.632-190.763L240 661.462s-25.346 24.133-6.911 62.055c0 0-76.618-16.087-120.398 49.415-43.781 65.504-55.303 96.53-55.303 96.53M420 548.249s-6.657 30.147-35.246 53.659c-31.237 25.686-92.855 39.388-112.754 45.555l97.322-199s14.398 75.7 50.678 99.786" fill="#E61A6B"/><path d="M592-122.537v66.914s-37.952 12.512-52.614 54.43c-9.411 26.906-37.64 2.287-46.393 22.52-5.551 12.831 2.915 28.895 2.008 39.868-1.91 23.102-16.014 16.55-39.305 32.556-5.81 3.993-14.944 12.532-18.069 22.537-7.242 23.187-3.496 54.175-3.496 54.175s0-32.446-35.765-50.762c0 0-8.94-97.868 61.537-152.295C530.38-87.022 592-122.537 592-122.537" fill="#423D89"/><path d="M288.488-1.537s-.795 22.416-12.622 71.523c-5.889 24.456-1.146 47.658 16.305 62.584 18.1 15.482 44.7 21.037 44.7 21.037s-18.407 28.925 0 49.435c8.996 10.026 15.027 18.92 18.276 25.342 3.4 6.719 14.155 10.577 14.155 15.418 0 9.465-10.617 17.453 6.737 14.297L394 300.534l-40.9 27.929-66.496-7.955-7.581-15.964s36.285-14.726 8.94-74.155c0 0 6.795-12.916-20.46-57.64-3.071-5.04-17.296-4.213-21.29-10.086-1.865-2.742-2.97-8.051-4.619-10.495-33.255-49.311-14.111-43.79-14.111-43.79s-3.68-22.614 61.005-109.915" fill="#FFC4BC"/><path d="M10.839 309.897c-6.508 6.697-43.113-3.162-71.02-21.634-30.244-20.019-51.265-49.807-39.502-70.259 11.151-19.388 52.025-9.282 75.122 19.005 24.299 29.76 44.316 63.712 35.4 72.888m109.848 9.756c-28.713-27.814-53.137-4.151-98.135-59.777-17.444-21.568-34.712-45.072-48.424-56.456-21.653-17.978-45.947-16.553-83.993-19.096C-172.003 180.173-199 137-199 137v53.967c89.994 7.47 55.28 38.605 92.992 89.248 37.71 50.644 55.297 85.798 96.008 90.779 40.709 4.98 17.88 1.376 5.023 15.905-12.856 14.53 42.956 27.398 42.956 27.398L63.654 443l59.177-56.1s31.012-35.132-2.144-67.247" fill="#E61A6B"/><path d="M369 448.463l-62.575 39.751S271.537 557.445 191 604.639l48.187 56.824s5.94-8.153 32.74-14.314L369 448.463z" fill="#423D89"/><path d="M159.021 96.463l52.601 12.496s6.827 40.79-37.583 81.727c0 0 2.903 22.984-5.353 31.238-9.983 9.985-41.14 17.17-62.268-5.238-21.126-22.407-28.025-21.975-17.676-38.35 5.767-9.13 15.424-17.99 26.726-24.719 8.969-5.339 24.394-9.323 31.48-16.473 18.54-18.706 12.073-40.681 12.073-40.681M239.67 351.316l36.06 57.147L332 334.73l-34.657-20.261s22.48 1.936 23.526-4.542c1.662-10.3-35.503-12.479-77.301.684-25.79 8.125-3.897 40.704-3.897 40.704" fill="#E61A6B"/><path d="M394.782 300.463L493 230.53s-11.35-55.668-58.315-64.068c0 0-2.226 21.269-14.5 21.269-12.275 0-9.677-13.797-9.677-13.797s-4.371 11.377-21.051 11.05c4.332 10.847-4.608 26.322-4.608 26.322s-6.404 28.09-7.849 46.658l17.782 42.498z" fill="#423D89"/><path d="M337.02 153.28L434 166.462s-3.619-33.717-35.512-52.934c-10.973-6.614-19.44-8.913-40.224-11.066 0 8.508-4.692 21.569-20.284 18.64-2.81 6.352-6.837 20.366-.96 32.176" fill="#E61A6B"/><path d="M493.484 230.463s4.189-58.853 40.516-108c0 0-19.05 9.952-40.516 11.669-24.932 1.998-53.122-2.123-58.484 32.498 0 0 44.05 7.071 58.484 63.833M370 447.94s50.743 19.794 99.728-34.463c48.987-54.26 23.796-183.014 23.796-183.014L370 447.94z" fill="#33333D"/><path d="M24.463 235.366c3.205-11.917 9.502-22.772 15.698-33.336 10.512-17.924 21.825-35.787 28.41-55.61 7.432-22.37 8.658-48.882 22.155-68.62 21.586-31.57 62.037-34.276 79.699-31.513 15.669 2.451 47.552 11.874 61.806 45.715 6.167 14.64 6.526 35.706 15.3 51.903 11.385 21.02 25.53 23.283 35.407 37.145 7.765 10.902 10.594 31.142 5.486 49.573 0 0-37.495-61.772-115.233-39.187 0 0 30.279-19.248 23.205-75.914l-38.182-18.27s9.536 35.806-26.409 49.301c-35.948 13.495 11.76 54.437-26.048 70.873-37.806 16.437-50.436 36.264-54.344 76.037-8.805-6.284-18.166-15.562-26.331-25.99-5.614-7.171-2.136-26.463-.62-32.107" fill="#423D89"/><path d="M354 329.134L240.05 530.463l-127.128-35s64.19-68.59 71.568-77.085c7.362 8.495 19.926 15.084 38.424 18.33 10.53 1.848 30.634 24.999 36.926 15.505 4.893-7.38-9.445-20.73-19.79-29.25 3.181-4.108 22.051 15.68 27.128 11.32 5.08-4.361-2.854-22.316-15.084-25.198 10.392-1.585 13.193-6.772 9.752-10.932-2.634-3.185-10.107-5.672-13.573-6.069-15.993-1.822-38.394-4.381-38.394-4.381l29.422-35.54s20.98 33.314 31.495 28.849c10.515-4.462-12.178-22.198-7.695-27.066 4.486-4.869 20.82-12.74 21.754-.993 1.17 14.704 14.99 19.981 18.659 3.751 3.67-16.23 7.19-33.765-5.969-41.241L354 329.134zM374.046 230.884s-7.383-8.535-18.046-2.352c0 0 5.025 12.025 4.453 24.289-.576 12.264 13.547 11.201 16.308 5.776 2.935 4.318 13.272 1.454 13.293-15.011.023-16.464 6.929-25.506-5.417-32.123 0 0-11.712 7.239-10.591 19.421M358 103.485s13.414-9.771 25.906-29.26C400.099 48.962 418.342 10.36 441-13.536c0 0-41.556 52.896-42.344 128 0 0-11.403-7.186-40.656-10.978" fill="#33333D"/><path d="M-92.616 238.057c-15.027 8.666-23.514 27.394-20.132 44.417 1.49 7.508 5.02 14.514 6.28 22.065 1.26 7.55-.476 16.467-7.015 20.44-2.984 1.816-6.545 2.347-9.885 3.373-18.054 5.543-28.5 28.328-20.925 45.638 4.29 9.802 13.424 18.475 12.14 29.097-1.206 9.977-12.553 13.207-20.463 19.4-4.442 3.475-12.774 9.866-11.185 22.337.784 6.143 8.71 12.978 11.489 13.446 20.738 3.498 64.243 20.446 36.456 56.27-8.91 11.486-7.79 23.502-5.925 37.923 61.383-16.23 80.98-20.868 80.98-20.868s-14.552-13.508-13.014-27.257c1.954-17.471 17.825-29.473 31.91-39.984 14.083-10.51 29.043-24.543 27.837-42.084-1.516-22.069-28.49-38.901-23.36-60.418 2.585-10.84 13.13-19.145 13.314-30.284.165-10.025-8.208-18.055-16.716-23.35-8.509-5.29-18.198-9.59-23.867-17.857-11.138-16.252 5.896-37.88-2.19-49.753-8.374-12.298-35.326-8.552-45.73-2.55" fill="#423D89"/></g></g></svg>