<svg width="842" height="717" fill="none" xmlns="http://www.w3.org/2000/svg"><path fill-rule="evenodd" clip-rule="evenodd" d="M388 183c4-1 9 1 11 4 3 3 2 7 2 11s2 8-1 11c-3 4-7 4-12 4-4 0-8-1-11-3-3-3-6-8-5-12 0-4 4-7 7-9 3-3 6-6 9-6Zm21-36c4 0 9 1 11 4 3 3 2 7 2 11s2 8-1 12c-3 3-7 3-12 3-4 0-8-1-11-3-3-3-6-8-5-12 0-4 4-7 7-9 3-3 6-6 9-6Z" fill="#BEBAAC"/><path fill-rule="evenodd" clip-rule="evenodd" d="M388 111c4 0 9 1 11 4 3 3 2 7 2 11s2 8-1 12c-3 3-7 3-12 3-4 0-8-1-11-3-3-3-6-8-5-12 0-4 4-7 7-9 3-3 6-6 9-6Z" fill="#B91456"/><path fill-rule="evenodd" clip-rule="evenodd" d="M424 111c4 0 9 1 11 4 3 3 2 7 2 11s2 8-1 12c-3 3-7 3-12 3-4 0-8-1-11-3-3-3-6-8-5-12 0-4 4-7 7-9 3-3 6-6 9-6Zm21-36c4 0 9 1 11 4 3 3 2 7 2 11s2 9-1 12-7 3-12 3c-4 0-8-1-11-3-3-3-6-8-5-12 0-4 4-7 7-9 3-3 6-6 9-6Zm108 0c4 0 9 1 11 4 3 3 2 7 2 11s1 9-1 12c-3 3-8 3-12 3s-8-1-11-3c-4-3-6-8-5-12 0-4 4-7 7-9 3-3 6-6 9-6Zm-93 36c4 0 9 1 11 4 3 3 2 7 2 11s2 8-1 12c-3 3-7 3-12 3-4 0-8-1-11-3-3-3-6-8-5-12 0-4 4-7 7-9 3-3 6-6 9-6Zm21-36c4 0 9 1 11 4 3 3 2 7 2 11s2 9-1 12-7 3-12 3c-4 0-8-1-11-3-4-3-6-8-5-12 0-4 4-7 7-9 3-3 6-6 9-6Zm108 0c4 0 9 1 11 4 3 3 2 7 2 11s1 9-1 12c-3 3-8 3-12 3s-8-1-11-3c-4-3-6-8-6-12 1-4 5-7 8-9 3-3 6-6 9-6Zm-18-36c4 0 9 1 11 4 3 3 2 7 2 11s1 9-1 12c-3 3-8 3-12 3s-8-1-11-3c-4-3-6-8-6-12 1-4 5-7 8-9 3-3 6-6 9-6Zm30-36c4 0 9 1 11 4 3 3 2 7 2 11s1 9-1 12c-3 3-8 3-12 3s-8 0-11-3c-4-3-6-8-6-12 1-4 5-7 8-9 3-3 6-6 9-6Zm6 36c4 0 8 1 11 4s2 7 2 11 1 9-1 12c-3 3-8 3-12 3s-8-1-11-3c-4-3-6-8-6-12 1-4 5-7 8-9 3-3 6-6 9-6Zm36 0c4 0 8 1 11 4s2 7 2 11 1 9-1 12c-3 3-8 3-12 3s-8-1-11-3c-4-3-6-8-6-12 1-4 5-7 8-9 3-3 6-6 9-6Zm36 0c4 0 8 1 11 4s2 7 2 11 1 9-1 12c-3 3-8 3-12 3s-8-1-11-3c-4-3-6-8-6-12 1-4 5-7 8-9 3-3 6-6 9-6ZM664 0c4 0 8 1 11 4s2 7 2 11 1 9-1 12c-3 3-8 3-12 3s-8 0-11-3c-4-3-6-8-6-12 1-4 5-7 8-9 3-3 6-6 9-6Zm-3 75c4 0 8 1 11 4s2 7 2 11 1 9-1 12c-3 3-8 3-12 3s-8-1-11-3c-4-3-6-8-6-12 1-4 5-7 8-9 3-3 6-6 9-6Zm-165 36c4 0 9 1 11 4 3 3 2 7 2 11s1 8-1 12c-3 3-8 3-12 3s-8-1-11-3c-4-3-6-8-5-12 0-4 4-7 7-9 3-3 6-6 9-6Zm21-36c4 0 9 1 11 4 3 3 2 7 2 11s1 9-1 12c-3 3-8 3-12 3s-8-1-11-3c-4-3-6-8-5-12 0-4 4-7 7-9 3-3 6-6 9-6Zm108 0c4 0 8 1 11 4s2 7 2 11 1 9-1 12c-3 3-8 3-12 3s-8-1-11-3c-4-3-6-8-6-12 1-4 5-7 8-9 3-3 6-6 9-6Zm72 0c4 0 8 1 11 4s2 7 2 11 1 9-1 12c-3 3-8 3-12 3s-8-1-11-3c-4-3-6-8-6-12 1-4 5-7 8-9 3-3 5-6 9-6Zm18-36c4 0 8 1 11 4s2 7 2 11 1 9-1 12c-3 3-8 3-12 3s-8-1-11-3c-4-3-6-8-6-12 1-4 5-7 8-9 3-3 5-6 9-6Zm36-3c4 0 8 1 11 4 2 3 2 7 2 11s1 9-1 12c-3 3-8 3-12 3s-8 0-11-3c-4-3-6-8-6-12 1-4 5-7 8-9 3-3 5-6 9-6Zm36 0c4 0 8 1 11 4 2 3 2 7 2 11s1 9-1 12c-3 3-8 3-12 3s-8 0-12-3c-3-3-5-8-5-12 1-4 5-7 8-9 3-3 5-6 9-6Zm36-30c4 0 8 1 11 4 2 3 2 7 2 11s1 9-1 12c-3 3-8 3-12 3s-8 0-12-3c-3-3-5-8-5-12 1-4 5-7 8-9 3-3 5-6 9-6Zm36 12c4 0 8 1 11 4 2 3 2 7 2 11s1 9-2 12c-2 3-7 3-11 3s-8 0-12-3c-3-3-5-8-5-12 1-4 5-7 8-9 3-3 5-6 9-6Zm-36 27c4 0 8 1 11 4 2 3 2 7 2 11s1 9-1 12c-3 3-8 3-12 3l-12-3c-3-3-5-8-5-12 1-4 5-7 8-9 3-3 5-6 9-6Zm36 36c4 0 8 1 11 4 2 3 2 7 2 11s1 8-2 12c-2 3-7 3-11 3l-12-3c-3-3-5-8-5-12 1-4 5-7 8-9 3-3 5-6 9-6ZM778 0c4 0 8 1 11 4 2 3 2 7 2 11s1 9-1 12c-3 3-8 3-12 3s-8 0-12-3c-3-3-5-8-5-12 1-4 5-7 8-9 3-3 5-6 9-6Zm-48 3c4 0 8 1 11 4s2 7 2 11 1 9-1 12c-3 3-8 3-12 3s-8 0-11-3c-4-3-6-8-6-12 1-4 5-7 8-9 3-3 5-6 9-6Zm-48 108c4 0 8 1 11 4s2 7 2 11 1 8-1 12c-3 3-8 3-12 3s-8-1-11-3c-4-3-6-8-6-12 1-4 5-7 8-9 3-3 6-6 9-6Zm-36 0c4 0 8 1 11 4s2 7 2 11 1 8-1 12c-3 3-8 3-12 3s-8-1-11-3c-4-3-6-8-6-12 1-4 5-7 8-9 3-3 6-6 9-6Zm-36 0c4 0 8 1 11 4s2 7 2 11 1 8-1 12c-3 3-8 3-12 3s-8-1-11-3c-4-3-6-8-6-12 1-4 5-7 8-9 3-3 6-6 9-6Zm-165 36c4 0 9 1 11 4 3 3 2 7 2 11s2 8-1 12c-3 3-7 3-12 3-4 0-8-1-11-3-3-3-6-8-5-12 0-4 4-7 7-9 3-3 6-6 9-6Zm-93 36c4-1 9 1 11 4 3 3 2 7 2 11s2 8-1 11c-3 4-7 4-12 4-4 0-8-1-11-3-3-3-6-8-5-12 0-4 4-7 8-9 2-3 5-6 8-6Zm-35-36c3 0 8 1 10 4 3 3 2 7 2 11s2 8-1 12c-3 3-7 3-11 3-5 0-9-1-12-3-3-3-6-8-5-12 0-4 4-7 8-9 2-3 5-6 9-6Zm35-24c4 0 9 1 11 4 3 3 2 7 2 11s2 8-1 12c-3 3-7 3-12 3-4 0-8-1-11-3-3-3-6-8-5-12 0-4 4-7 8-9 2-3 5-6 8-6Zm21 96c4-1 9 0 11 4 3 2 2 7 2 11s2 8-1 11c-3 4-7 4-12 4-4 0-8-1-11-3-3-3-6-8-5-12 0-5 4-7 7-10 3-2 6-5 9-5Zm-35 0c3-1 8 0 10 4 3 2 2 7 2 11s2 8-1 11c-3 4-7 4-11 4-5 0-9-1-12-3-3-3-6-8-5-12 0-5 4-7 8-10 2-2 5-5 9-5Zm20 36c4-1 9 0 11 3 3 3 2 8 2 12s2 8-1 11c-3 4-7 4-12 4-4 0-8-1-11-4s-6-7-5-11c0-5 4-7 8-10 2-2 5-5 8-5Zm-35 0c3-1 8 0 10 3 3 3 2 8 2 12s2 8-1 11c-3 4-7 4-11 4-5 0-9-1-12-4s-6-7-5-11c0-5 4-7 8-10 2-2 5-5 9-5Zm20 36c4-1 9 0 11 3 3 3 2 8 2 12s2 8-1 11c-3 4-7 4-12 4-4 0-8-1-11-4s-6-7-5-11c0-5 4-7 8-10 2-2 5-5 8-5Zm-35 0c3-1 8 0 10 3 3 3 2 8 2 12s2 8-1 11c-3 4-7 4-11 4-5 0-9-1-12-4s-6-7-5-11c0-5 4-7 8-10 2-2 5-5 9-5Zm-36 0c4-1 8 0 10 3 3 3 2 8 2 12s2 8-1 11c-3 4-7 4-11 4-5 0-9-1-12-4s-6-7-5-11c0-5 4-7 8-10 2-2 5-5 9-5Zm57 36c3-1 8 0 10 3 3 3 2 8 2 12s2 8-1 11c-3 4-7 4-11 4-5 0-9-1-12-4s-6-7-5-11c0-5 4-7 8-10 2-2 5-5 9-5Zm-36 0c4-1 8 0 10 3 3 3 2 8 2 12s2 8-1 11c-3 4-7 4-11 4-5 0-9-1-12-4s-6-7-5-11c0-5 4-7 8-10 2-2 5-5 9-5Zm-36 0c4-1 8 0 10 3 3 3 2 8 2 12s2 8-1 11c-3 4-7 4-11 4-5 0-9-1-12-4s-6-7-5-11c0-5 5-7 8-10 2-2 5-5 9-5Zm57 36c3-1 8 0 10 3 3 3 2 8 2 12s2 8-1 11c-3 4-7 4-11 4-5 0-9-1-12-4s-6-7-5-11c0-5 4-7 8-10 2-2 5-5 9-5Zm-36 0c4-1 8 0 10 3 3 3 2 8 2 12s2 8-1 11c-3 4-7 4-11 4-5 0-9-1-12-4s-6-7-5-11c0-5 4-7 8-10 2-2 5-5 9-5Zm-36 0c4-1 8 0 11 3 2 3 1 8 1 12s2 8-1 11c-3 4-7 4-11 4-5 0-9-1-12-4s-6-7-5-11c0-5 5-7 8-10 2-2 5-5 9-5Zm57 36c4-1 8 0 10 3 3 3 2 8 2 11 0 5 2 9-1 12s-7 4-11 4c-5 0-9-1-12-4s-6-7-5-12c0-4 4-6 8-9 2-2 5-5 9-5Zm-36 0c4-1 8 0 10 3 3 3 2 8 2 11 0 5 2 9-1 12s-7 4-11 4c-5 0-9-1-12-4s-6-7-5-12c0-4 4-6 8-9 2-2 5-5 9-5Zm-36 0c4-1 8 0 11 3 2 3 1 8 1 11 0 5 2 9-1 12s-7 4-11 4c-5 0-9-1-12-4s-6-7-5-12c0-4 5-6 8-9 2-2 5-5 9-5Zm-36 0c4-1 8 0 11 3 2 3 1 8 1 11 0 5 2 9-1 12s-7 4-11 4-9-1-12-4-6-7-5-12c0-4 5-6 8-9 2-2 5-5 9-5Zm57 36c4-1 8 0 10 3 3 3 2 8 2 11 0 5 2 9-1 12s-7 4-11 4c-5 0-9-1-12-4s-6-7-5-12c0-4 5-6 8-9 2-2 5-5 9-5Zm-36 0c4-1 8 0 11 3 2 3 1 8 1 11 0 5 2 9-1 12s-7 4-11 4c-5 0-9-1-12-4s-6-7-5-12c0-4 5-6 8-9 2-2 5-5 9-5Z" fill="#BEBAAC"/><path fill-rule="evenodd" clip-rule="evenodd" d="M176 435c4-1 8 0 11 3 2 3 1 8 1 11 0 5 2 9-1 12s-7 4-11 4-9-1-12-4-6-7-5-12c0-4 5-6 8-9 2-2 5-5 9-5Z" fill="#B91456"/><path fill-rule="evenodd" clip-rule="evenodd" d="M140 435c4-1 8 0 11 3 2 3 1 8 1 11 1 5 2 9-1 12-2 3-7 4-11 4s-9-1-12-4-6-7-5-12c0-4 5-6 8-9 3-2 5-5 9-5Zm93 36c4-1 8 0 11 3 2 3 1 8 1 11 0 5 2 9-1 12s-7 3-11 3c-5 0-9 0-12-3s-6-7-5-12c0-4 5-6 8-9 2-2 5-5 9-5Zm-36 0c4-1 8 0 11 3 2 3 1 8 1 11 0 5 2 9-1 12s-7 3-11 3c-5 0-9 0-12-3s-6-7-5-12c0-4 5-6 8-9 2-2 5-5 9-5Zm-36 0c4-1 8 0 11 3 2 3 1 8 1 11 0 5 2 9-1 12-2 3-7 3-11 3s-9 0-12-3-6-7-5-12c0-4 5-6 8-9 2-2 5-5 9-5Zm-36 0c4-1 8 0 11 3 2 3 1 8 1 11 1 5 2 9-1 12-2 3-7 3-11 3s-9 0-12-3-6-7-5-12c0-4 5-6 8-9 3-2 5-5 9-5Z" fill="#BEBAAC"/><path fill-rule="evenodd" clip-rule="evenodd" d="M89 471c4-1 8 0 11 3 2 3 1 8 1 11 1 5 2 9-1 12-2 3-7 3-11 3s-9 0-12-3-6-7-5-12c1-4 5-6 8-9 3-2 5-5 9-5Z" fill="#B91456"/><path fill-rule="evenodd" clip-rule="evenodd" d="M221 507c4-1 8 0 11 3 2 3 1 7 1 11s2 9-1 12-7 3-11 3c-5 0-9 0-12-3s-6-7-5-12c0-4 5-6 8-9 2-2 5-5 9-5Zm-36 0c4-1 8 0 11 3 2 3 1 7 1 11s2 9-1 12-7 3-11 3-9 0-12-3-6-7-5-12c0-4 5-6 8-9 2-2 5-5 9-5Zm-36 0c4-1 8 0 11 3 2 3 1 7 1 11s2 9-1 12c-2 3-7 3-11 3s-9 0-12-3-6-7-5-12c0-4 5-6 8-9 2-2 5-5 9-5Zm-36 0c4-1 8 0 11 3 2 3 1 7 1 11 1 4 2 9-1 12-2 3-7 3-11 3s-9 0-12-3-6-7-5-12c0-4 5-6 8-9 3-2 5-5 9-5Zm-36 0c4-1 8 0 11 3 2 3 1 7 1 11 1 4 2 9-1 12-2 3-7 3-11 3s-9 0-12-3-6-7-5-12c1-4 5-6 8-9 3-2 5-5 9-5Zm135 36c4-1 8 0 11 3 2 3 1 7 1 11s2 9-1 12-7 3-11 3c-5 0-9 0-12-3s-6-7-5-12c0-4 5-6 8-9 2-2 5-5 9-5Zm-36 0c4-1 8 0 11 3 2 3 1 7 1 11s2 9-1 12-7 3-11 3-9 0-12-3-6-7-5-12c0-4 5-6 8-9 2-2 5-5 9-5Zm-36 0c4-1 8 0 11 3 2 3 1 7 1 11 1 4 2 9-1 12-2 3-7 3-11 3s-9 0-12-3-6-7-5-12c0-4 5-6 8-9 3-2 5-5 9-5Zm-72 0c4-1 8 0 11 3 2 3 1 7 1 11 1 4 2 9-1 12-2 3-7 3-11 3s-9 0-12-3-6-7-5-12c1-4 5-6 8-9 3-2 5-5 9-5Zm36 0c4-1 8 0 11 3 2 3 1 7 1 11 1 4 2 9-1 12-2 3-7 3-11 3s-9 0-12-3-6-7-5-12c1-4 5-6 8-9 3-2 5-5 9-5Zm-72 0c4-1 8 0 11 3 2 3 1 7 1 11 1 4 2 9-1 12-2 3-7 3-11 3s-9 0-12-3-5-7-5-12c1-4 5-6 8-9 3-2 5-5 9-5Zm9-36c4-1 8 0 11 3 2 3 1 7 1 11 1 4 2 9-1 12-2 3-7 3-11 3s-9 0-12-3-5-7-5-12c1-4 5-6 8-9 3-2 5-5 9-5Zm207 50c4 0 8 1 10 4 3 3 2 7 2 11s2 9-1 12-7 3-11 3c-5 0-9 0-12-3s-6-7-5-12c0-4 5-6 8-9 2-2 5-5 9-6Zm-12 36c4 0 8 1 11 4 2 3 1 7 1 11s2 9-1 12-7 3-11 3c-5 0-9 0-12-3s-6-7-5-12c0-4 5-6 8-9 2-2 5-5 9-6Zm-15 36c4 0 8 1 11 4 2 3 1 7 1 11s2 9-1 12-7 3-11 3c-5 0-9 0-12-3s-6-7-5-12c0-4 5-6 8-9 2-2 5-5 9-6Zm-9 36c4 0 8 1 11 4 2 3 1 7 1 11s2 9-1 12-7 3-11 3c-5 0-9 0-12-3s-6-7-5-12c0-4 5-6 8-9 2-2 5-5 9-6Zm-15-87c4 0 8 1 11 4 2 3 1 7 1 11s2 9-1 12-7 3-11 3c-5 0-9 0-12-3s-6-7-5-12c0-4 5-6 8-9 2-2 5-5 9-6Zm-36 0c4 0 8 1 11 4 2 3 1 7 1 11s2 9-1 12c-2 3-7 3-11 3s-9 0-12-3-6-7-5-12c0-4 5-6 8-9 2-2 5-5 9-6Zm-36 0c4 0 8 1 11 4 2 3 1 7 1 11 1 4 2 9-1 12-2 3-7 3-11 3s-9 0-12-3-6-7-5-12c0-4 5-6 8-9 3-2 5-5 9-6Zm-72 0c4 0 8 1 11 4 2 3 1 7 1 11 1 4 2 9-1 12-2 3-7 3-11 3s-9 0-12-3-6-7-5-12c1-4 5-6 8-9 3-2 5-5 9-6Zm36 0c4 0 8 1 11 4 2 3 1 7 1 11 1 4 2 9-1 12-2 3-7 3-11 3s-9 0-12-3-6-7-5-12c1-4 5-6 8-9 3-2 5-5 9-6Z" fill="#BEBAAC"/><path fill-rule="evenodd" clip-rule="evenodd" d="M17 578c4 0 8 1 11 4 2 3 1 7 2 11 0 4 1 9-2 12-2 3-7 3-11 3s-9 0-12-3-5-7-5-12c1-4 5-6 8-9 3-2 5-5 9-6Zm165 36c4 0 8 1 11 4 2 3 1 7 1 11s2 9-1 12-7 3-11 3-9 0-12-3-6-7-5-12c0-4 5-6 8-9 2-2 5-5 9-6Z" fill="#B91456"/><path fill-rule="evenodd" clip-rule="evenodd" d="M146 614c4 0 8 1 11 4 2 3 1 7 1 11s2 9-1 12c-2 3-7 3-11 3s-9 0-12-3-6-7-5-12c0-4 5-6 8-9 2-2 5-5 9-6Zm-36 0c4 0 8 1 11 4 2 3 1 7 1 11 1 4 2 9-1 12-2 3-7 3-11 3s-9 0-12-3-6-7-5-12c0-4 5-6 8-9 3-2 5-5 9-6Zm-36 0c4 0 8 1 11 4 2 3 1 7 1 11 1 4 2 9-1 12-2 3-7 3-11 3s-9 0-12-3-6-7-5-12c1-4 5-6 8-9 3-2 5-5 9-6Zm93 36c4 0 8 1 11 4 2 3 1 7 1 11s2 9-1 12c-2 3-7 3-11 3s-9 0-12-3-6-7-5-12c0-4 5-6 8-9 2-2 5-5 9-6Zm-36 0c4 0 8 1 11 4 2 3 1 7 1 11 1 4 2 9-1 12-2 3-7 3-11 3s-9 0-12-3-6-7-5-12c0-4 5-6 8-9 3-2 5-5 9-6Zm-12 36c4 0 8 1 11 4 2 3 1 7 1 11 1 4 2 9-1 12-2 3-7 3-11 3s-9 0-12-3-6-7-5-12c0-4 5-6 8-9 3-2 5-5 9-6Zm-24-36c4 0 8 1 11 4 2 3 1 7 1 11 1 4 2 9-1 12-2 3-7 3-11 3s-9 0-12-3-6-7-5-12c1-4 5-6 8-9 3-2 5-5 9-6Zm-12 36c4 0 8 1 11 4 2 3 1 7 1 11 1 4 2 9-1 12-2 3-7 3-11 3s-9 0-12-3-6-7-5-12c1-4 5-6 8-9 3-2 5-5 9-6Zm-24-36c4 0 8 1 11 4 2 3 1 7 1 11 1 4 2 9-1 12-2 3-7 3-11 3s-9 0-12-3-6-7-5-12c1-4 5-6 8-9 3-2 5-5 9-6Zm-36-6c4 0 8 1 11 4 2 3 1 7 2 11 0 4 1 9-2 12-2 3-7 3-11 3s-9 0-12-3-5-7-5-12c1-4 5-6 8-9 3-2 5-5 9-6Zm24 42c4 0 8 1 11 4 2 3 1 7 1 11 1 4 2 9-1 12-2 3-7 3-11 3s-9 0-12-3-6-7-5-12c1-4 5-6 8-9 3-2 5-5 9-6Z" fill="#BEBAAC"/></svg>