<svg width="352" height="71" viewBox="0 0 352 71" fill="none" xmlns="http://www.w3.org/2000/svg">
<path d="M177.634 63.1329C177.634 64.3734 177.634 64.6553 178.455 65.4165L183.055 70.0402V70.2375H162.656V61.3567C160.603 67.2099 155.173 71.0804 149.129 70.9987C138.642 70.9987 131.03 62.5408 131.03 46.9783C131.03 32.4026 139.244 22.676 150.772 22.676C155.882 22.3448 160.637 25.3751 162.628 30.2317V10.6376C162.78 9.73026 162.419 8.8128 161.697 8.26942L157.316 3.9277V3.73035L177.634 1.27757V63.1329ZM162.656 60.3136V31.0775C161.178 29.1868 158.934 28.1048 156.577 28.1454C151.621 28.1454 146.829 32.7691 146.829 46.4991C146.829 59.355 150.964 63.8941 156.112 63.8941C158.722 63.8391 161.151 62.51 162.656 60.3136ZM191.16 70.2375V30.7674C191.291 29.886 190.982 28.996 190.339 28.3992L185.821 23.6064V23.409H206.221V63.443C206.221 64.6835 206.221 64.9654 207.042 65.7266L211.533 70.0684V70.2657L191.16 70.2375ZM190.421 8.97424C190.421 4.30308 194.099 0.516357 198.636 0.516357C203.173 0.516357 206.85 4.30308 206.85 8.97424C206.85 13.6454 203.173 17.4321 198.636 17.4321C194.099 17.4321 190.421 13.6454 190.421 8.97424ZM261.258 63.0483C261.258 64.2888 261.258 64.6553 262.08 65.4165L266.68 70.0402V70.2375H246.171V60.1163C244.303 66.5159 238.614 70.9238 232.124 70.9987C223.033 70.9987 218.159 64.176 218.159 51.2637C218.159 45.033 218.159 38.2103 218.351 30.5418C218.501 29.6834 218.186 28.8088 217.529 28.2582L213.011 23.6064V23.409H233.247C233.247 23.691 233.247 47.9087 233.247 49.1492C233.247 57.6071 234.451 63.2457 239.599 63.2457C242.364 63.0677 244.855 61.4672 246.226 58.9885V30.7956C246.356 29.9142 246.047 29.0242 245.404 28.4274L240.859 23.6064V23.409H261.258V63.0483ZM330.699 70.2375C330.699 68.7151 330.973 49.3184 330.973 44.8639C330.973 36.406 329.686 30.57 323.908 30.57C321.001 30.6624 318.309 32.1687 316.652 34.6298C317.231 37.2656 317.507 39.9626 317.473 42.6648C317.473 48.5289 317.282 56.0001 317.2 63.4712C317.049 64.3296 317.364 65.2043 318.021 65.7548L322.621 70.0966V70.2939H302.03C302.03 68.8843 302.304 49.3747 302.304 44.9203C302.304 36.3214 301.017 30.6264 295.321 30.6264C292.514 30.7301 289.952 32.304 288.531 34.799V63.5558C288.531 64.7963 288.531 65.0782 289.352 65.8394L293.843 70.1811V70.3785H273.471V30.9084C273.601 30.0269 273.292 29.137 272.649 28.5401L268.131 23.6064V23.409H288.531V33.4457C290.422 26.8191 296.45 22.3676 303.153 22.6478C309.943 22.6478 314.543 26.5384 316.488 33.925C318.647 27.1126 324.862 22.5414 331.822 22.6478C340.912 22.6478 346.06 29.5551 346.06 42.6084C346.06 48.8391 345.868 55.9437 345.786 63.4148C345.627 64.2991 345.992 65.1965 346.717 65.6985L351.208 70.0402V70.2375H330.699ZM74.4312 64.0915L80.4827 70.0402V70.2375H49.7875V70.0402L55.9484 64.0915C56.6055 63.5409 56.9201 62.6662 56.7699 61.8078V23.7755C56.7699 22.1685 56.7699 19.9977 57.0437 18.137L36.343 70.9987H36.0965L14.6565 22.3659C14.191 21.1536 14.0541 21.069 13.7529 20.2514V52.1376C13.4962 54.2718 13.8482 56.4366 14.766 58.3683L23.3913 70.0402V70.2375H0.5V70.0402L9.12531 58.3401C10.0363 56.4163 10.3881 54.2625 10.1384 52.1376V16.8965C10.2787 15.1613 9.76929 13.4365 8.71458 12.0755L2.60841 3.9277V3.73035H24.514L42.8599 44.9203L59.0152 3.73035H80.4553V3.9277L74.4312 10.835C73.7094 11.3784 73.3487 12.2958 73.5003 13.2032V61.8078C73.3406 62.6921 73.7065 63.5895 74.4312 64.0915ZM98.4452 45.033V45.2304C98.4452 57.297 104.497 62.1461 111.589 62.1461C117.51 62.3543 122.991 58.9354 125.553 53.4345H125.745C123.281 65.3601 116.107 70.9987 105.373 70.9987C93.7903 70.9987 82.8649 63.8095 82.8649 47.1475C82.8649 29.6397 93.8177 22.6478 105.92 22.6478C115.668 22.6478 126.046 27.3842 126.046 42.6084C126.046 42.8904 126.046 43.9053 126.046 45.033H98.4452ZM98.4452 42.6084H111.945C111.945 41.3679 111.945 40.5222 111.945 40.1556C111.945 27.7507 109.453 24.4522 105.701 24.4522C101.156 24.4522 98.3904 29.3859 98.3904 42.6084H98.4452Z" fill="#333333"/>
</svg>
