<svg width="148" height="616" viewBox="0 0 148 616" fill="none" xmlns="http://www.w3.org/2000/svg">
<path d="M147.088 614.384C147.63 614.277 147.982 613.751 147.876 613.209C147.769 612.667 147.243 612.315 146.701 612.421L147.088 614.384ZM139.895 1.40548C139.896 0.853197 139.45 0.404344 138.897 0.4029L129.897 0.379777C129.345 0.378333 128.896 0.824909 128.895 1.37719C128.894 1.92947 129.34 2.37832 129.892 2.37976L137.892 2.4003L137.872 10.4003C137.87 10.9526 138.317 11.4014 138.869 11.4029C139.421 11.4043 139.87 10.9577 139.872 10.4054L139.895 1.40548ZM146.701 612.421C145.721 612.615 144.74 612.778 143.757 612.912L144.027 614.893C145.049 614.754 146.069 614.585 147.088 614.384L146.701 612.421ZM137.844 613.363C135.881 613.397 133.914 613.317 131.943 613.125L131.75 615.116C133.795 615.315 135.838 615.398 137.879 615.362L137.844 613.363ZM126.043 612.223C124.142 611.828 122.24 611.331 120.339 610.736L119.741 612.644C121.703 613.259 123.668 613.772 125.635 614.181L126.043 612.223ZM114.673 608.669C112.892 607.928 111.114 607.103 109.339 606.193L108.427 607.973C110.247 608.906 112.073 609.754 113.904 610.516L114.673 608.669ZM104.045 603.229C102.396 602.226 100.751 601.153 99.112 600.01L97.9679 601.65C99.6398 602.816 101.32 603.913 103.006 604.938L104.045 603.229ZM94.2454 596.399C92.7141 595.194 91.1891 593.928 89.6716 592.604L88.3566 594.111C89.8987 595.456 91.4496 596.743 93.0085 597.97L94.2454 596.399ZM85.2335 588.542C83.8011 587.17 82.3766 585.746 80.9608 584.27L79.5176 585.655C80.9522 587.15 82.3967 588.594 83.85 589.987L85.2335 588.542ZM76.925 579.898C75.5882 578.395 74.2604 576.845 72.9422 575.251L71.4009 576.526C72.7339 578.138 74.0773 579.705 75.4303 581.227L76.925 579.898ZM69.2364 570.619C68.0221 569.052 66.817 567.446 65.6217 565.802L64.0043 566.979C65.2112 568.638 66.4283 570.26 67.6552 571.844L69.2364 570.619ZM62.0996 560.81C60.9954 559.198 59.9004 557.553 58.8152 555.876L57.1363 556.963C58.2307 558.654 59.3352 560.313 60.4494 561.94L62.0996 560.81ZM55.5894 550.753C54.5411 549.042 53.5027 547.3 52.4748 545.53L50.7452 546.534C51.7808 548.318 52.8272 550.073 53.884 551.798L55.5894 550.753ZM49.5445 540.352C48.5778 538.599 47.6212 536.821 46.6752 535.016L44.9038 535.945C45.8563 537.762 46.8196 539.553 47.7933 541.318L49.5445 540.352ZM43.903 529.594C43.0247 527.833 42.1563 526.048 41.2984 524.242L39.4918 525.1C40.3552 526.918 41.2291 528.713 42.1131 530.487L43.903 529.594ZM38.7559 518.757C37.9205 516.91 37.0958 515.042 36.2823 513.153L34.4454 513.944C35.2637 515.844 36.0932 517.724 36.9337 519.581L38.7559 518.757ZM33.9785 507.674C33.2209 505.829 32.4739 503.965 31.7376 502.083L29.8751 502.812C30.6153 504.704 31.3665 506.579 32.1283 508.434L33.9785 507.674ZM29.5618 496.382C28.8674 494.517 28.1836 492.635 27.5106 490.737L25.6256 491.405C26.302 493.314 26.9894 495.205 27.6875 497.08L29.5618 496.382ZM25.5504 485.069C24.9077 483.164 24.276 481.244 23.6554 479.308L21.7509 479.918C22.3745 481.864 23.0094 483.794 23.6553 485.709L25.5504 485.069ZM21.8398 473.495C21.2634 471.601 20.6977 469.693 20.143 467.771L18.2214 468.326C18.7788 470.256 19.3472 472.174 19.9264 474.077L21.8398 473.495ZM18.5116 461.966C17.979 460.018 17.4575 458.057 16.9474 456.083L15.011 456.584C15.5234 458.567 16.0473 460.537 16.5825 462.494L18.5116 461.966ZM15.4785 450.233C15.007 448.3 14.5465 446.355 14.0972 444.399L12.148 444.846C12.5993 446.811 13.0618 448.765 13.5354 450.707L15.4785 450.233ZM12.7831 438.496C12.3564 436.518 11.9411 434.529 11.5375 432.528L9.57705 432.924C9.98239 434.933 10.3995 436.931 10.828 438.918L12.7831 438.496ZM10.3889 426.64C10.0195 424.678 9.6612 422.707 9.31438 420.726L7.34435 421.071C7.69265 423.06 8.05244 425.04 8.4235 427.01L10.3889 426.64ZM8.30846 414.756C7.98474 412.756 7.67268 410.748 7.37249 408.731L5.39427 409.025C5.69571 411.051 6.00909 413.068 6.33417 415.075L8.30846 414.756ZM6.52827 402.803C6.25868 400.822 6.00056 398.833 5.7541 396.835L3.76916 397.08C4.01663 399.086 4.27582 401.083 4.54653 403.073L6.52827 402.803ZM5.04995 390.821C4.82704 388.808 4.616 386.788 4.41703 384.76L2.42659 384.956C2.62637 386.991 2.83828 389.02 3.06211 391.041L5.04995 390.821ZM3.86858 378.797C3.6975 376.803 3.53812 374.803 3.39063 372.796L1.39601 372.943C1.5441 374.958 1.70413 376.966 1.87591 378.968L3.86858 378.797ZM2.98401 366.756C2.86049 364.737 2.74904 362.711 2.64986 360.679L0.652239 360.777C0.751821 362.817 0.863717 364.851 0.987742 366.878L2.98401 366.756ZM2.39365 354.685C2.32029 352.685 2.25885 350.68 2.20952 348.669L0.210125 348.718C0.259653 350.737 0.321335 352.751 0.394995 354.759L2.39365 354.685ZM2.09803 342.622C2.07309 340.601 2.06043 338.575 2.06022 336.544L0.0602209 336.544C0.0604255 338.583 0.0731387 340.617 0.09818 342.646L2.09803 342.622ZM2.09606 330.528C2.1201 328.528 2.1563 326.523 2.20481 324.513L0.20539 324.465C0.156684 326.482 0.120345 328.496 0.0962067 330.504L2.09606 330.528ZM2.38745 318.474C2.46076 316.456 2.54655 314.435 2.64498 312.41L0.647343 312.313C0.548507 314.346 0.462371 316.376 0.388768 318.401L2.38745 318.474ZM2.97486 306.383C3.09633 304.387 3.23016 302.388 3.37652 300.385L1.38184 300.24C1.23489 302.25 1.10052 304.258 0.978554 306.262L2.97486 306.383ZM3.8533 294.369C4.02485 292.36 4.20909 290.349 4.40615 288.334L2.41566 288.14C2.21779 290.162 2.03281 292.182 1.86056 294.198L3.8533 294.369ZM5.03342 282.307C5.25253 280.321 5.4842 278.333 5.72859 276.342L3.74349 276.099C3.4981 278.097 3.26548 280.094 3.04548 282.088L5.03342 282.307ZM6.50004 270.364C6.77001 268.369 7.05284 266.372 7.34868 264.373L5.37023 264.081C5.07317 266.088 4.78918 268.093 4.51811 270.096L6.50004 270.364ZM8.27539 258.372C8.59305 256.397 8.92352 254.421 9.26694 252.443L7.29642 252.1C6.95158 254.087 6.61974 256.071 6.30077 258.055L8.27539 258.372ZM10.3336 246.519C10.7022 244.543 11.0838 242.565 11.4785 240.587L9.51719 240.196C9.12078 242.182 8.73761 244.168 8.36753 246.152L10.3336 246.519ZM12.7025 234.65C13.1211 232.683 13.5528 230.715 13.9978 228.746L12.047 228.305C11.6001 230.282 11.1666 232.258 10.7463 234.234L12.7025 234.65ZM15.3598 222.893C15.8269 220.941 16.3072 218.989 16.8009 217.037L14.8619 216.547C14.3662 218.507 13.8838 220.467 13.4148 222.427L15.3598 222.893ZM18.3218 211.18C18.8422 209.228 19.3761 207.275 19.9235 205.323L17.9978 204.783C17.448 206.744 16.9119 208.705 16.3893 210.665L18.3218 211.18ZM21.5827 199.548C22.148 197.627 22.7266 195.706 23.3187 193.786L21.4075 193.197C20.8129 195.125 20.2318 197.054 19.664 198.984L21.5827 199.548ZM25.1353 188.026C25.7543 186.107 26.3869 184.188 27.0332 182.271L25.1379 181.632C24.4888 183.558 23.8535 185.485 23.2318 187.412L25.1353 188.026ZM29.0034 176.548C29.6661 174.663 30.3421 172.779 31.0316 170.896L29.1536 170.209C28.4611 172.099 27.7821 173.991 27.1166 175.884L29.0034 176.548ZM33.1406 165.252C33.8572 163.372 34.5874 161.493 35.3314 159.616L33.472 158.879C32.7249 160.765 31.9915 162.652 31.2718 164.54L33.1406 165.252ZM37.6045 153.988C38.3677 152.134 39.1443 150.282 39.9347 148.431L38.0954 147.646C37.3016 149.504 36.5215 151.365 35.7551 153.227L37.6045 153.988ZM42.3309 142.921C43.1432 141.086 43.9692 139.253 44.8088 137.422L42.9909 136.589C42.1475 138.428 41.318 140.269 40.5021 142.112L42.3309 142.921ZM47.3691 131.936C48.2364 130.109 49.1175 128.285 50.0126 126.463L48.2175 125.581C47.3185 127.411 46.4335 129.243 45.5624 131.078L47.3691 131.936ZM52.694 121.094C53.5993 119.31 54.5181 117.53 55.4506 115.752L53.6794 114.823C52.7428 116.609 51.8199 118.397 50.9107 120.188L52.694 121.094ZM58.2893 110.425C59.2492 108.652 60.223 106.882 61.2106 105.115L59.4647 104.139C58.4727 105.914 57.4947 107.692 56.5305 109.473L58.2893 110.425ZM64.213 99.8253C65.2075 98.1003 66.2154 96.3782 67.2368 94.6592L65.5174 93.6375C64.4915 95.3642 63.4792 97.0939 62.4803 98.8264L64.213 99.8253ZM70.3418 89.5111C71.3904 87.7981 72.4527 86.0884 73.5287 84.3819L71.8369 83.3152C70.7562 85.0292 69.6893 86.7464 68.6361 88.4669L70.3418 89.5111ZM76.798 79.2726C77.8992 77.5764 79.0142 75.8837 80.1431 74.1946L78.4803 73.0833C77.3465 74.7798 76.2266 76.4799 75.1205 78.1834L76.798 79.2726ZM83.4994 69.2431C84.6315 67.5961 85.777 65.9526 86.9361 64.3128L85.3029 63.1584C84.1388 64.8053 82.9883 66.456 81.8512 68.1102L83.4994 69.2431ZM90.4539 59.4046C91.6401 57.7722 92.8399 56.1437 94.0534 54.5192L92.451 53.3222C91.2323 54.9538 90.0273 56.5894 88.836 58.2288L90.4539 59.4046ZM97.732 49.6613C98.9415 48.0857 100.164 46.514 101.4 44.9463L99.8292 43.7081C98.5881 45.2826 97.3602 46.8611 96.1455 48.4435L97.732 49.6613ZM105.147 40.2551C106.409 38.6955 107.685 37.1399 108.974 35.5885L107.435 34.3104C106.141 35.8683 104.86 37.4305 103.592 38.9969L105.147 40.2551ZM112.881 30.9472C114.197 29.4043 115.526 27.8659 116.869 26.3319L115.364 25.0145C114.016 26.555 112.681 28.1 111.359 29.6494L112.881 30.9472ZM120.841 21.8514C122.172 20.369 123.516 18.8909 124.873 17.4173L123.402 16.0626C122.039 17.5423 120.69 19.0266 119.353 20.5152L120.841 21.8514ZM128.983 13.0098C130.365 11.5451 131.761 10.0849 133.171 8.62942L131.734 7.23827C130.319 8.69978 128.917 10.166 127.528 11.6367L128.983 13.0098ZM137.437 4.27698C138.155 3.55407 138.876 2.83237 139.6 2.11183L138.19 0.693959C137.462 1.41746 136.739 2.14212 136.018 2.868L137.437 4.27698ZM147.088 614.384C147.63 614.277 147.982 613.751 147.876 613.209C147.769 612.667 147.243 612.315 146.701 612.421L147.088 614.384ZM139.895 1.40548C139.896 0.853197 139.45 0.404344 138.897 0.4029L129.897 0.379777C129.345 0.378333 128.896 0.824909 128.895 1.37719C128.894 1.92947 129.34 2.37832 129.892 2.37976L137.892 2.4003L137.872 10.4003C137.87 10.9526 138.317 11.4014 138.869 11.4029C139.421 11.4043 139.87 10.9577 139.872 10.4054L139.895 1.40548ZM146.701 612.421C145.721 612.615 144.74 612.778 143.757 612.912L144.027 614.893C145.049 614.754 146.069 614.585 147.088 614.384L146.701 612.421ZM137.844 613.363C135.881 613.397 133.914 613.317 131.943 613.125L131.75 615.116C133.795 615.315 135.838 615.398 137.879 615.362L137.844 613.363ZM126.043 612.223C124.142 611.828 122.24 611.331 120.339 610.736L119.741 612.644C121.703 613.259 123.668 613.772 125.635 614.181L126.043 612.223ZM114.673 608.669C112.892 607.928 111.114 607.103 109.339 606.193L108.427 607.973C110.247 608.906 112.073 609.754 113.904 610.516L114.673 608.669ZM104.045 603.229C102.396 602.226 100.751 601.153 99.112 600.01L97.9679 601.65C99.6398 602.816 101.32 603.913 103.006 604.938L104.045 603.229ZM94.2454 596.399C92.7141 595.194 91.1891 593.928 89.6716 592.604L88.3566 594.111C89.8987 595.456 91.4496 596.743 93.0085 597.97L94.2454 596.399ZM85.2335 588.542C83.8011 587.17 82.3766 585.746 80.9608 584.27L79.5176 585.655C80.9522 587.15 82.3967 588.594 83.85 589.987L85.2335 588.542ZM76.925 579.898C75.5882 578.395 74.2604 576.845 72.9422 575.251L71.4009 576.526C72.7339 578.138 74.0773 579.705 75.4303 581.227L76.925 579.898ZM69.2364 570.619C68.0221 569.052 66.817 567.446 65.6217 565.802L64.0043 566.979C65.2112 568.638 66.4283 570.26 67.6552 571.844L69.2364 570.619ZM62.0996 560.81C60.9954 559.198 59.9004 557.553 58.8152 555.876L57.1363 556.963C58.2307 558.654 59.3352 560.313 60.4494 561.94L62.0996 560.81ZM55.5894 550.753C54.5411 549.042 53.5027 547.3 52.4748 545.53L50.7452 546.534C51.7808 548.318 52.8272 550.073 53.884 551.798L55.5894 550.753ZM49.5445 540.352C48.5778 538.599 47.6212 536.821 46.6752 535.016L44.9038 535.945C45.8563 537.762 46.8196 539.553 47.7933 541.318L49.5445 540.352ZM43.903 529.594C43.0247 527.833 42.1563 526.048 41.2984 524.242L39.4918 525.1C40.3552 526.918 41.2291 528.713 42.1131 530.487L43.903 529.594ZM38.7559 518.757C37.9205 516.91 37.0958 515.042 36.2823 513.153L34.4454 513.944C35.2637 515.844 36.0932 517.724 36.9337 519.581L38.7559 518.757ZM33.9785 507.674C33.2209 505.829 32.4739 503.965 31.7376 502.083L29.8751 502.812C30.6153 504.704 31.3665 506.579 32.1283 508.434L33.9785 507.674ZM29.5618 496.382C28.8674 494.517 28.1836 492.635 27.5106 490.737L25.6256 491.405C26.302 493.314 26.9894 495.205 27.6875 497.08L29.5618 496.382ZM25.5504 485.069C24.9077 483.164 24.276 481.244 23.6554 479.308L21.7509 479.918C22.3745 481.864 23.0094 483.794 23.6553 485.709L25.5504 485.069ZM21.8398 473.495C21.2634 471.601 20.6977 469.693 20.143 467.771L18.2214 468.326C18.7788 470.256 19.3472 472.174 19.9264 474.077L21.8398 473.495ZM18.5116 461.966C17.979 460.018 17.4575 458.057 16.9474 456.083L15.011 456.584C15.5234 458.567 16.0473 460.537 16.5825 462.494L18.5116 461.966ZM15.4785 450.233C15.007 448.3 14.5465 446.355 14.0972 444.399L12.148 444.846C12.5993 446.811 13.0618 448.765 13.5354 450.707L15.4785 450.233ZM12.7831 438.496C12.3564 436.518 11.9411 434.529 11.5375 432.528L9.57705 432.924C9.98239 434.933 10.3995 436.931 10.828 438.918L12.7831 438.496ZM10.3889 426.64C10.0195 424.678 9.6612 422.707 9.31438 420.726L7.34435 421.071C7.69265 423.06 8.05244 425.04 8.4235 427.01L10.3889 426.64ZM8.30846 414.756C7.98474 412.756 7.67268 410.748 7.37249 408.731L5.39427 409.025C5.69571 411.051 6.00909 413.068 6.33417 415.075L8.30846 414.756ZM6.52827 402.803C6.25868 400.822 6.00056 398.833 5.7541 396.835L3.76916 397.08C4.01663 399.086 4.27582 401.083 4.54653 403.073L6.52827 402.803ZM5.04995 390.821C4.82704 388.808 4.616 386.788 4.41703 384.76L2.42659 384.956C2.62637 386.991 2.83828 389.02 3.06211 391.041L5.04995 390.821ZM3.86858 378.797C3.6975 376.803 3.53812 374.803 3.39063 372.796L1.39601 372.943C1.5441 374.958 1.70413 376.966 1.87591 378.968L3.86858 378.797ZM2.98401 366.756C2.86049 364.737 2.74904 362.711 2.64986 360.679L0.652239 360.777C0.751821 362.817 0.863717 364.851 0.987742 366.878L2.98401 366.756ZM2.39365 354.685C2.32029 352.685 2.25885 350.68 2.20952 348.669L0.210125 348.718C0.259653 350.737 0.321335 352.751 0.394995 354.759L2.39365 354.685ZM2.09803 342.622C2.07309 340.601 2.06043 338.575 2.06022 336.544L0.0602209 336.544C0.0604255 338.583 0.0731387 340.617 0.09818 342.646L2.09803 342.622ZM2.09606 330.528C2.1201 328.528 2.1563 326.523 2.20481 324.513L0.20539 324.465C0.156684 326.482 0.120345 328.496 0.0962067 330.504L2.09606 330.528ZM2.38745 318.474C2.46076 316.456 2.54655 314.435 2.64498 312.41L0.647343 312.313C0.548507 314.346 0.462371 316.376 0.388768 318.401L2.38745 318.474ZM2.97486 306.383C3.09633 304.387 3.23016 302.388 3.37652 300.385L1.38184 300.24C1.23489 302.25 1.10052 304.258 0.978554 306.262L2.97486 306.383ZM3.8533 294.369C4.02485 292.36 4.20909 290.349 4.40615 288.334L2.41566 288.14C2.21779 290.162 2.03281 292.182 1.86056 294.198L3.8533 294.369ZM5.03342 282.307C5.25253 280.321 5.4842 278.333 5.72859 276.342L3.74349 276.099C3.4981 278.097 3.26548 280.094 3.04548 282.088L5.03342 282.307ZM6.50004 270.364C6.77001 268.369 7.05284 266.372 7.34868 264.373L5.37023 264.081C5.07317 266.088 4.78918 268.093 4.51811 270.096L6.50004 270.364ZM8.27539 258.372C8.59305 256.397 8.92352 254.421 9.26694 252.443L7.29642 252.1C6.95158 254.087 6.61974 256.071 6.30077 258.055L8.27539 258.372ZM10.3336 246.519C10.7022 244.543 11.0838 242.565 11.4785 240.587L9.51719 240.196C9.12078 242.182 8.73761 244.168 8.36753 246.152L10.3336 246.519ZM12.7025 234.65C13.1211 232.683 13.5528 230.715 13.9978 228.746L12.047 228.305C11.6001 230.282 11.1666 232.258 10.7463 234.234L12.7025 234.65ZM15.3598 222.893C15.8269 220.941 16.3072 218.989 16.8009 217.037L14.8619 216.547C14.3662 218.507 13.8838 220.467 13.4148 222.427L15.3598 222.893ZM18.3218 211.18C18.8422 209.228 19.3761 207.275 19.9235 205.323L17.9978 204.783C17.448 206.744 16.9119 208.705 16.3893 210.665L18.3218 211.18ZM21.5827 199.548C22.148 197.627 22.7266 195.706 23.3187 193.786L21.4075 193.197C20.8129 195.125 20.2318 197.054 19.664 198.984L21.5827 199.548ZM25.1353 188.026C25.7543 186.107 26.3869 184.188 27.0332 182.271L25.1379 181.632C24.4888 183.558 23.8535 185.485 23.2318 187.412L25.1353 188.026ZM29.0034 176.548C29.6661 174.663 30.3421 172.779 31.0316 170.896L29.1536 170.209C28.4611 172.099 27.7821 173.991 27.1166 175.884L29.0034 176.548ZM33.1406 165.252C33.8572 163.372 34.5874 161.493 35.3314 159.616L33.472 158.879C32.7249 160.765 31.9915 162.652 31.2718 164.54L33.1406 165.252ZM37.6045 153.988C38.3677 152.134 39.1443 150.282 39.9347 148.431L38.0954 147.646C37.3016 149.504 36.5215 151.365 35.7551 153.227L37.6045 153.988ZM42.3309 142.921C43.1432 141.086 43.9692 139.253 44.8088 137.422L42.9909 136.589C42.1475 138.428 41.318 140.269 40.5021 142.112L42.3309 142.921ZM47.3691 131.936C48.2364 130.109 49.1175 128.285 50.0126 126.463L48.2175 125.581C47.3185 127.411 46.4335 129.243 45.5624 131.078L47.3691 131.936ZM52.694 121.094C53.5993 119.31 54.5181 117.53 55.4506 115.752L53.6794 114.823C52.7428 116.609 51.8199 118.397 50.9107 120.188L52.694 121.094ZM58.2893 110.425C59.2492 108.652 60.223 106.882 61.2106 105.115L59.4647 104.139C58.4727 105.914 57.4947 107.692 56.5305 109.473L58.2893 110.425ZM64.213 99.8253C65.2075 98.1003 66.2154 96.3782 67.2368 94.6592L65.5174 93.6375C64.4915 95.3642 63.4792 97.0939 62.4803 98.8264L64.213 99.8253ZM70.3418 89.5111C71.3904 87.7981 72.4527 86.0884 73.5287 84.3819L71.8369 83.3152C70.7562 85.0292 69.6893 86.7464 68.6361 88.4669L70.3418 89.5111ZM76.798 79.2726C77.8992 77.5764 79.0142 75.8837 80.1431 74.1946L78.4803 73.0833C77.3465 74.7798 76.2266 76.4799 75.1205 78.1834L76.798 79.2726ZM83.4994 69.2431C84.6315 67.5961 85.777 65.9526 86.9361 64.3128L85.3029 63.1584C84.1388 64.8053 82.9883 66.456 81.8512 68.1102L83.4994 69.2431ZM90.4539 59.4046C91.6401 57.7722 92.8399 56.1437 94.0534 54.5192L92.451 53.3222C91.2323 54.9538 90.0273 56.5894 88.836 58.2288L90.4539 59.4046ZM97.732 49.6613C98.9415 48.0857 100.164 46.514 101.4 44.9463L99.8292 43.7081C98.5881 45.2826 97.3602 46.8611 96.1455 48.4435L97.732 49.6613ZM105.147 40.2551C106.409 38.6955 107.685 37.1399 108.974 35.5885L107.435 34.3104C106.141 35.8683 104.86 37.4305 103.592 38.9969L105.147 40.2551ZM112.881 30.9472C114.197 29.4043 115.526 27.8659 116.869 26.3319L115.364 25.0145C114.016 26.555 112.681 28.1 111.359 29.6494L112.881 30.9472ZM120.841 21.8514C122.172 20.369 123.516 18.8909 124.873 17.4173L123.402 16.0626C122.039 17.5423 120.69 19.0266 119.353 20.5152L120.841 21.8514ZM128.983 13.0098C130.365 11.5451 131.761 10.0849 133.171 8.62942L131.734 7.23827C130.319 8.69978 128.917 10.166 127.528 11.6367L128.983 13.0098ZM137.437 4.27698C138.155 3.55407 138.876 2.83237 139.6 2.11183L138.19 0.693959C137.462 1.41746 136.739 2.14212 136.018 2.868L137.437 4.27698Z" fill="#E61A6B"/>
</svg>
