<svg width="209" height="209" viewBox="0 0 209 209" fill="none" xmlns="http://www.w3.org/2000/svg">
<path fill-rule="evenodd" clip-rule="evenodd" d="M151.601 47.7531C170.007 60.9302 176.093 85.3211 174.951 107.914C173.816 130.37 164.504 152.649 145.677 164.927C127.733 176.629 105.304 172.378 84.5906 166.844C63.5005 161.209 41.0382 154.021 31.449 134.409C21.3887 113.833 23.7966 88.1044 36.9302 69.3664C48.7466 52.5076 71.522 52.174 91.7616 48.3592C112.381 44.4729 134.528 35.5309 151.601 47.7531Z" fill="#028377"/>
<path d="M65.8159 97.506C66.1399 98.262 66.7339 98.298 66.7339 98.694V98.748C66.7339 98.91 66.5899 99 66.3559 99H63.1519C62.9179 99 62.7739 98.91 62.7739 98.748V98.694C62.7739 98.298 63.7099 98.208 63.4399 97.506L62.7379 95.724H57.3019L56.6359 97.506C56.3659 98.208 57.3019 98.298 57.3019 98.694V98.748C57.3019 98.91 57.1579 99 56.9059 99H54.8719C54.6379 99 54.4939 98.91 54.4939 98.748V98.694C54.4939 98.298 55.1059 98.28 55.4119 97.506L59.1919 87.804C59.4259 87.21 58.5979 86.868 58.5979 86.526V86.472C58.5979 86.328 58.7059 86.22 58.9039 86.22H60.3259C60.8119 86.22 61.0999 86.418 61.2979 86.904L65.8159 97.506ZM57.6619 94.752H62.3599L59.9479 88.596L57.6619 94.752ZM75.7998 97.812C76.1058 98.226 76.7178 98.316 76.7178 98.694V98.748C76.7178 98.91 76.5918 99 76.3938 99H73.4958C73.3158 99 73.1898 98.892 73.1898 98.73V98.694C73.1898 98.298 73.8558 98.226 73.5318 97.812L71.2278 94.734L70.0038 95.868V97.506C70.0038 98.208 70.7418 98.262 70.7418 98.676V98.73C70.7418 98.892 70.5798 99 70.3458 99H67.6098C67.3758 99 67.2318 98.892 67.2318 98.73V98.676C67.2318 98.262 67.8978 98.208 67.8978 97.506V88.02C67.8978 87.264 67.1418 87.12 67.1418 86.796V86.742C67.1418 86.58 67.2498 86.508 67.4478 86.418L69.3558 85.518C69.7518 85.338 70.0038 85.536 70.0038 85.806V94.68L73.2438 91.854C73.7478 91.422 72.8298 91.062 72.8298 90.684V90.63C72.8298 90.45 72.9558 90.36 73.1538 90.36H75.4578C75.6378 90.36 75.7638 90.45 75.7638 90.612V90.666C75.7638 91.062 74.9718 91.278 74.3598 91.836L72.5958 93.456L75.7998 97.812ZM80.4608 99.18C78.9488 99.18 77.9408 98.208 77.9408 96.264V91.242H76.9148C76.7348 91.242 76.6088 91.116 76.6088 90.936V90.684C76.6088 90.486 76.7168 90.36 76.9148 90.36H77.4728C78.4088 90.36 78.9668 89.658 79.1108 88.614C79.1468 88.362 79.2908 88.218 79.4708 88.218H79.7408C79.9748 88.218 80.0828 88.362 80.0828 88.614L80.1008 90.36H82.3688C82.5488 90.36 82.6928 90.504 82.6928 90.684V90.936C82.6928 91.116 82.5488 91.242 82.3688 91.242H80.1008V96.282C80.1008 97.146 80.5328 97.614 81.1268 97.614C81.8828 97.614 82.2968 97.2 82.4048 96.678C82.5668 96.39 82.9988 96.444 82.9988 96.768C82.9988 97.974 82.0808 99.18 80.4608 99.18ZM85.5561 88.866C84.6561 88.866 84.0621 88.308 84.0621 87.516C84.0621 86.742 84.6561 86.166 85.5561 86.166C86.4381 86.166 87.0141 86.742 87.0141 87.516C87.0141 88.308 86.4381 88.866 85.5561 88.866ZM84.2241 99C83.9901 99 83.8461 98.892 83.8461 98.73V98.658C83.8461 98.262 84.5121 98.19 84.5121 97.488V92.772C84.5121 92.034 83.8461 91.854 83.8461 91.53V91.476C83.8461 91.332 83.9721 91.26 84.1701 91.152L85.9701 90.252C86.3841 90.054 86.6181 90.27 86.6181 90.558V97.488C86.6181 98.19 87.3561 98.262 87.3561 98.658V98.73C87.3561 98.892 87.1941 99 86.9601 99H84.2241ZM97.1418 90.36C97.3398 90.36 97.4658 90.45 97.4658 90.612V90.666C97.4658 91.062 96.7098 91.188 96.4578 91.854L93.7758 98.604C93.6858 98.874 93.5238 99 93.2538 99H92.4978C92.2098 99 92.0838 98.874 91.9578 98.604L88.7538 91.854C88.4478 91.224 87.9258 91.062 87.9258 90.666V90.612C87.9258 90.45 88.0518 90.36 88.2498 90.36H91.2558C91.4178 90.36 91.5618 90.468 91.5618 90.63V90.684C91.5618 91.026 90.8598 91.188 91.1298 91.89L93.3438 97.488L95.4498 92.142C95.8278 91.116 94.8198 91.062 94.8198 90.684V90.63C94.8198 90.45 94.9458 90.36 95.1438 90.36H97.1418ZM99.7417 88.866C98.8417 88.866 98.2477 88.308 98.2477 87.516C98.2477 86.742 98.8417 86.166 99.7417 86.166C100.624 86.166 101.2 86.742 101.2 87.516C101.2 88.308 100.624 88.866 99.7417 88.866ZM98.4097 99C98.1757 99 98.0317 98.892 98.0317 98.73V98.658C98.0317 98.262 98.6977 98.19 98.6977 97.488V92.772C98.6977 92.034 98.0317 91.854 98.0317 91.53V91.476C98.0317 91.332 98.1577 91.26 98.3557 91.152L100.156 90.252C100.57 90.054 100.804 90.27 100.804 90.558V97.488C100.804 98.19 101.542 98.262 101.542 98.658V98.73C101.542 98.892 101.38 99 101.146 99H98.4097ZM106.107 99.18C104.595 99.18 103.587 98.208 103.587 96.264V91.242H102.561C102.381 91.242 102.255 91.116 102.255 90.936V90.684C102.255 90.486 102.363 90.36 102.561 90.36H103.119C104.055 90.36 104.613 89.658 104.757 88.614C104.793 88.362 104.937 88.218 105.117 88.218H105.387C105.621 88.218 105.729 88.362 105.729 88.614L105.747 90.36H108.015C108.195 90.36 108.339 90.504 108.339 90.684V90.936C108.339 91.116 108.195 91.242 108.015 91.242H105.747V96.282C105.747 97.146 106.179 97.614 106.773 97.614C107.529 97.614 107.943 97.2 108.051 96.678C108.213 96.39 108.645 96.444 108.645 96.768C108.645 97.974 107.727 99.18 106.107 99.18ZM116.622 96.354C116.82 96.102 117.234 96.174 117.198 96.534C117.036 97.596 115.83 99.18 113.544 99.18C111.132 99.18 109.278 97.398 109.278 94.608C109.278 92.034 111.204 90.18 113.58 90.18C115.902 90.18 116.946 91.566 116.946 92.826C116.946 93.51 116.586 93.888 116.028 94.086L111.672 95.688C112.122 96.912 113.04 97.668 114.318 97.668C115.452 97.668 116.262 97.074 116.622 96.354ZM113.22 90.864C112.086 90.864 111.366 92.07 111.366 93.798C111.366 94.212 111.402 94.59 111.474 94.95L114.462 93.654C114.786 93.51 114.93 93.258 114.93 92.898C114.93 92.16 114.264 90.864 113.22 90.864ZM121.611 99.18C120.099 99.18 119.091 98.208 119.091 96.264V91.242H118.065C117.885 91.242 117.759 91.116 117.759 90.936V90.684C117.759 90.486 117.867 90.36 118.065 90.36H118.623C119.559 90.36 120.117 89.658 120.261 88.614C120.297 88.362 120.441 88.218 120.621 88.218H120.891C121.125 88.218 121.233 88.362 121.233 88.614L121.251 90.36H123.519C123.699 90.36 123.843 90.504 123.843 90.684V90.936C123.843 91.116 123.699 91.242 123.519 91.242H121.251V96.282C121.251 97.146 121.683 97.614 122.277 97.614C123.033 97.614 123.447 97.2 123.555 96.678C123.717 96.39 124.149 96.444 124.149 96.768C124.149 97.974 123.231 99.18 121.611 99.18ZM132.126 96.354C132.324 96.102 132.738 96.174 132.702 96.534C132.54 97.596 131.334 99.18 129.048 99.18C126.636 99.18 124.782 97.398 124.782 94.608C124.782 92.034 126.708 90.18 129.084 90.18C131.406 90.18 132.45 91.566 132.45 92.826C132.45 93.51 132.09 93.888 131.532 94.086L127.176 95.688C127.626 96.912 128.544 97.668 129.822 97.668C130.956 97.668 131.766 97.074 132.126 96.354ZM128.724 90.864C127.59 90.864 126.87 92.07 126.87 93.798C126.87 94.212 126.906 94.59 126.978 94.95L129.966 93.654C130.29 93.51 130.434 93.258 130.434 92.898C130.434 92.16 129.768 90.864 128.724 90.864ZM142.695 97.488C142.731 98.208 143.343 98.28 143.343 98.676V98.748C143.343 98.91 143.181 99.018 142.947 99.018H140.319C140.067 99.018 139.923 98.91 139.923 98.748V98.676C139.923 98.28 140.607 98.208 140.571 97.488L140.391 94.014C140.301 91.962 139.599 91.044 138.501 91.044C137.349 91.044 136.611 91.98 136.611 93.276V97.506C136.611 98.208 137.349 98.28 137.349 98.676V98.748C137.349 98.91 137.205 99.018 136.953 99.018H134.163C133.929 99.018 133.785 98.91 133.785 98.748V98.676C133.785 98.28 134.505 98.208 134.505 97.506V92.682C134.505 91.89 133.695 91.872 133.695 91.476V91.422C133.695 91.278 133.821 91.188 134.019 91.098L135.765 90.252C136.143 90.054 136.323 90.27 136.323 90.576V91.746C136.827 90.774 137.817 90.18 139.059 90.18C140.751 90.18 142.299 91.26 142.479 94.086L142.695 97.488ZM151.585 96.354C151.783 96.102 152.197 96.174 152.161 96.534C151.999 97.596 150.793 99.18 148.507 99.18C146.095 99.18 144.241 97.398 144.241 94.608C144.241 92.034 146.167 90.18 148.543 90.18C150.865 90.18 151.909 91.566 151.909 92.826C151.909 93.51 151.549 93.888 150.991 94.086L146.635 95.688C147.085 96.912 148.003 97.668 149.281 97.668C150.415 97.668 151.225 97.074 151.585 96.354ZM148.183 90.864C147.049 90.864 146.329 92.07 146.329 93.798C146.329 94.212 146.365 94.59 146.437 94.95L149.425 93.654C149.749 93.51 149.893 93.258 149.893 92.898C149.893 92.16 149.227 90.864 148.183 90.864ZM71.5796 117.18C73.7396 117.18 75.7556 118.8 75.7556 121.536C75.7556 124.272 73.8656 126.18 71.5976 126.18C70.6076 126.18 69.8156 125.838 69.2216 125.226V128.484C69.2216 129.204 69.9596 129.276 69.9596 129.672V129.726C69.9596 129.906 69.7976 129.996 69.5636 129.996H66.8276C66.5936 129.996 66.4316 129.906 66.4316 129.726V129.672C66.4316 129.276 67.1156 129.204 67.1156 128.484V119.664C67.1156 118.98 66.3416 118.944 66.3416 118.53V118.458C66.3416 118.296 66.4676 118.17 66.6656 118.08L68.3216 117.27C68.7536 117.054 68.9156 117.252 68.9156 117.558L68.8976 118.548C69.4016 117.684 70.3916 117.18 71.5796 117.18ZM71.3456 125.496C72.7676 125.496 73.6316 124.308 73.6316 122.202C73.6316 119.628 72.6056 117.864 71.0576 117.864C70.1396 117.864 69.3476 118.602 69.2216 119.61V122.94C69.2216 124.254 70.2476 125.496 71.3456 125.496ZM80.563 116.28C79.231 116.28 78.277 115.452 78.277 114.426C78.277 113.31 79.213 112.518 80.581 112.518C81.913 112.518 82.885 113.31 82.885 114.354C82.885 115.47 81.967 116.28 80.563 116.28ZM80.581 113.22C80.005 113.22 79.573 113.598 79.573 114.39C79.573 115.092 80.005 115.614 80.581 115.614C81.157 115.614 81.589 115.182 81.589 114.39C81.589 113.688 81.157 113.22 80.581 113.22ZM84.703 124.38C84.829 125.55 85.693 125.19 85.693 125.658C85.693 126 85.009 126.108 84.235 126.108C83.317 126.108 82.867 125.91 82.795 125.028C82.381 125.694 81.571 126.18 80.293 126.18C78.331 126.18 76.927 125.226 76.927 123.462C76.909 121.698 78.385 120.762 80.203 120.762C81.085 120.762 81.805 120.996 82.291 121.374L82.255 121.014C82.057 118.926 81.625 117.846 80.365 117.846C78.691 117.846 79.051 120.024 77.917 120.024C77.377 120.024 77.035 119.7 77.035 119.196C77.035 118.062 78.439 117.18 80.365 117.18C82.633 117.18 84.091 118.602 84.343 120.924L84.703 124.38ZM80.887 125.496C81.895 125.496 82.561 124.65 82.507 123.678L82.453 123.12C82.381 122.094 81.697 121.446 80.743 121.446C79.753 121.446 79.051 122.13 79.051 123.21C79.051 124.434 79.771 125.496 80.887 125.496ZM90.4179 126C90.1839 126 90.0399 125.892 90.0399 125.73V125.676C90.0399 125.262 90.7059 125.208 90.7059 124.506V115.02C90.7059 114.264 90.0399 114.12 90.0399 113.796V113.742C90.0399 113.58 90.1659 113.508 90.3459 113.418L92.1639 112.518C92.5779 112.32 92.8119 112.536 92.8119 112.806V124.506C92.8119 125.208 93.5499 125.262 93.5499 125.676V125.73C93.5499 125.892 93.3879 126 93.1539 126H90.4179ZM103.843 117.882L102.853 118.818C103.519 119.61 103.897 120.636 103.897 121.734C103.897 124.2 102.169 126.18 99.5589 126.18C98.2269 126.18 97.1289 125.766 96.3189 125.1L95.2929 126.09C95.1849 126.198 95.0769 126.198 94.9689 126.09L94.6629 125.802C94.5549 125.694 94.5729 125.55 94.7169 125.424L95.7069 124.488C95.0409 123.678 94.6809 122.652 94.6809 121.59C94.6809 119.034 96.6789 117.18 99.1449 117.18C100.369 117.18 101.431 117.558 102.223 118.206L103.195 117.27C103.321 117.144 103.501 117.126 103.627 117.234L103.879 117.486C103.987 117.594 103.969 117.756 103.843 117.882ZM96.8049 120.888C96.8049 121.626 96.9309 122.382 97.1829 123.048L101.035 119.34C100.531 118.44 99.7749 117.864 98.9109 117.864C97.6329 117.864 96.8049 118.908 96.8049 120.888ZM101.773 122.472C101.773 121.662 101.647 120.888 101.413 120.204L97.5609 123.912C98.1009 124.848 98.8749 125.496 99.8289 125.496C100.945 125.496 101.773 124.416 101.773 122.472ZM110.126 117.18C111.188 117.18 111.782 117.864 111.782 118.692C111.782 119.304 111.53 119.826 110.846 119.826C109.676 119.826 110.216 118.422 109.172 118.422C108.326 118.422 107.93 119.484 107.93 120.654V124.506C107.93 125.208 108.758 125.28 108.758 125.676V125.748C108.758 125.91 108.614 126 108.38 126H105.59C105.356 126 105.212 125.91 105.212 125.748V125.676C105.212 125.28 105.896 125.208 105.896 124.506V119.664C105.896 118.926 105.122 118.89 105.122 118.494V118.44C105.122 118.296 105.248 118.17 105.446 118.062L107.21 117.252C107.588 117.072 107.732 117.252 107.732 117.558V118.962C108.128 117.81 108.974 117.18 110.126 117.18ZM120.827 124.506C120.827 125.208 121.511 125.316 121.511 125.694V125.748C121.511 125.91 121.403 126 121.205 126H119.333C119.117 126 118.991 125.856 118.973 125.658L118.919 125.028C118.325 125.784 117.389 126.18 116.399 126.18C114.203 126.18 112.205 124.47 112.205 121.662C112.205 119.016 114.077 117.18 116.435 117.18C117.407 117.18 118.217 117.54 118.793 118.098V114.714C118.793 113.922 117.965 113.904 117.965 113.508V113.472C117.965 113.31 118.091 113.184 118.289 113.112L120.197 112.5C120.629 112.356 120.827 112.464 120.827 112.824V124.506ZM116.885 125.496C117.767 125.496 118.793 124.74 118.793 123.174V120.294C118.793 119.142 117.767 117.864 116.507 117.864C115.175 117.864 114.293 119.016 114.257 120.924C114.203 123.372 115.247 125.46 116.885 125.496ZM130.389 124.38C130.515 125.55 131.379 125.19 131.379 125.658C131.379 126 130.695 126.108 129.921 126.108C129.003 126.108 128.553 125.91 128.481 125.028C128.067 125.694 127.257 126.18 125.979 126.18C124.017 126.18 122.613 125.226 122.613 123.462C122.595 121.698 124.071 120.762 125.889 120.762C126.771 120.762 127.491 120.996 127.977 121.374L127.941 121.014C127.743 118.926 127.311 117.846 126.051 117.846C124.377 117.846 124.737 120.024 123.603 120.024C123.063 120.024 122.721 119.7 122.721 119.196C122.721 118.062 124.125 117.18 126.051 117.18C128.319 117.18 129.777 118.602 130.029 120.924L130.389 124.38ZM126.573 125.496C127.581 125.496 128.247 124.65 128.193 123.678L128.139 123.12C128.067 122.094 127.383 121.446 126.429 121.446C125.439 121.446 124.737 122.13 124.737 123.21C124.737 124.434 125.457 125.496 126.573 125.496ZM139.757 117.36C140.549 117.36 140.693 117.594 140.531 117.864C140.315 118.332 139.667 118.26 139.127 118.404C139.793 118.998 140.261 119.916 140.261 120.798C140.261 122.238 139.451 123.39 138.173 123.984C139.739 124.344 140.405 125.154 140.405 126.144C140.405 127.746 138.551 128.754 136.067 128.754C133.349 128.754 131.909 127.422 131.909 126.144C131.909 125.712 132.179 125.298 132.773 125.298C134.105 125.298 133.583 128.07 136.139 128.088C137.435 128.088 138.281 127.332 138.281 126.234C138.281 125.208 137.687 124.488 136.697 124.38C136.481 124.398 136.265 124.416 136.031 124.416C133.745 124.416 131.981 122.886 131.981 120.888C131.981 118.71 133.655 117.18 136.121 117.18C137.309 117.18 137.705 117.36 139.757 117.36ZM134.069 119.97C134.069 122.004 135.113 123.714 136.373 123.714C137.489 123.714 138.173 122.814 138.173 121.59C138.173 119.628 137.219 117.864 135.779 117.864C134.717 117.864 134.069 118.746 134.069 119.97Z" fill="white"/>
</svg>
