<svg width="100%" height="100%" viewBox="0 0 254 240" fill="none" xmlns="http://www.w3.org/2000/svg">
<path d="M238.049 19.8083C237.878 19.2829 238.166 18.719 238.692 18.5487C239.217 18.3784 239.781 18.6663 239.951 19.1917L238.049 19.8083ZM170.584 63.9945C170.034 64.0408 169.55 63.6322 169.504 63.0818L168.75 54.1135C168.703 53.5632 169.112 53.0795 169.662 53.0332C170.213 52.9869 170.696 53.3955 170.743 53.9459L171.413 61.9177L179.385 61.2472C179.935 61.2009 180.419 61.6096 180.465 62.1599C180.512 62.7102 180.103 63.1939 179.553 63.2402L170.584 63.9945ZM239.951 19.1917C242.578 27.2972 243.88 33.6694 244.063 38.6616C244.246 43.6556 243.311 47.3569 241.369 50.0187C239.419 52.6917 236.559 54.1726 233.194 54.9365C229.846 55.6966 225.922 55.7648 221.728 55.5603C217.538 55.356 212.968 54.8715 208.371 54.4943C203.749 54.1152 199.06 53.8401 194.522 54.0365C185.442 54.4294 177.129 56.7021 171.264 63.6434L169.737 62.3527C176.122 54.7939 185.109 52.4419 194.436 52.0383C199.102 51.8364 203.892 52.1202 208.534 52.501C213.201 52.8839 217.678 53.3605 221.826 53.5627C225.969 53.7647 229.674 53.6847 232.751 52.9861C235.813 52.2912 238.176 51.0028 239.753 48.84C241.339 46.6661 242.237 43.4652 242.064 38.7347C241.891 34.0024 240.648 27.8278 238.049 19.8083L239.951 19.1917Z" fill="#5F5D56"/>
<path fill-rule="evenodd" clip-rule="evenodd" d="M151.601 78.7531C170.007 91.9302 176.093 116.321 174.951 138.914C173.816 161.37 164.504 183.649 145.677 195.927C127.733 207.629 105.304 203.378 84.5906 197.844C63.5005 192.209 41.0382 185.021 31.449 165.409C21.3887 144.833 23.7966 119.104 36.9302 100.366C48.7466 83.5076 71.522 83.174 91.7616 79.3592C112.381 75.4729 134.528 66.5309 151.601 78.7531Z" fill="#028377"/>
<path d="M65.8159 128.506C66.1399 129.262 66.7339 129.298 66.7339 129.694V129.748C66.7339 129.91 66.5899 130 66.3559 130H63.1519C62.9179 130 62.7739 129.91 62.7739 129.748V129.694C62.7739 129.298 63.7099 129.208 63.4399 128.506L62.7379 126.724H57.3019L56.6359 128.506C56.3659 129.208 57.3019 129.298 57.3019 129.694V129.748C57.3019 129.91 57.1579 130 56.9059 130H54.8719C54.6379 130 54.4939 129.91 54.4939 129.748V129.694C54.4939 129.298 55.1059 129.28 55.4119 128.506L59.1919 118.804C59.4259 118.21 58.5979 117.868 58.5979 117.526V117.472C58.5979 117.328 58.7059 117.22 58.9039 117.22H60.3259C60.8119 117.22 61.0999 117.418 61.2979 117.904L65.8159 128.506ZM57.6619 125.752H62.3599L59.9479 119.596L57.6619 125.752ZM75.7998 128.812C76.1058 129.226 76.7178 129.316 76.7178 129.694V129.748C76.7178 129.91 76.5918 130 76.3938 130H73.4958C73.3158 130 73.1898 129.892 73.1898 129.73V129.694C73.1898 129.298 73.8558 129.226 73.5318 128.812L71.2278 125.734L70.0038 126.868V128.506C70.0038 129.208 70.7418 129.262 70.7418 129.676V129.73C70.7418 129.892 70.5798 130 70.3458 130H67.6098C67.3758 130 67.2318 129.892 67.2318 129.73V129.676C67.2318 129.262 67.8978 129.208 67.8978 128.506V119.02C67.8978 118.264 67.1418 118.12 67.1418 117.796V117.742C67.1418 117.58 67.2498 117.508 67.4478 117.418L69.3558 116.518C69.7518 116.338 70.0038 116.536 70.0038 116.806V125.68L73.2438 122.854C73.7478 122.422 72.8298 122.062 72.8298 121.684V121.63C72.8298 121.45 72.9558 121.36 73.1538 121.36H75.4578C75.6378 121.36 75.7638 121.45 75.7638 121.612V121.666C75.7638 122.062 74.9718 122.278 74.3598 122.836L72.5958 124.456L75.7998 128.812ZM80.4608 130.18C78.9488 130.18 77.9408 129.208 77.9408 127.264V122.242H76.9148C76.7348 122.242 76.6088 122.116 76.6088 121.936V121.684C76.6088 121.486 76.7168 121.36 76.9148 121.36H77.4728C78.4088 121.36 78.9668 120.658 79.1108 119.614C79.1468 119.362 79.2908 119.218 79.4708 119.218H79.7408C79.9748 119.218 80.0828 119.362 80.0828 119.614L80.1008 121.36H82.3688C82.5488 121.36 82.6928 121.504 82.6928 121.684V121.936C82.6928 122.116 82.5488 122.242 82.3688 122.242H80.1008V127.282C80.1008 128.146 80.5328 128.614 81.1268 128.614C81.8828 128.614 82.2968 128.2 82.4048 127.678C82.5668 127.39 82.9988 127.444 82.9988 127.768C82.9988 128.974 82.0808 130.18 80.4608 130.18ZM85.5561 119.866C84.6561 119.866 84.0621 119.308 84.0621 118.516C84.0621 117.742 84.6561 117.166 85.5561 117.166C86.4381 117.166 87.0141 117.742 87.0141 118.516C87.0141 119.308 86.4381 119.866 85.5561 119.866ZM84.2241 130C83.9901 130 83.8461 129.892 83.8461 129.73V129.658C83.8461 129.262 84.5121 129.19 84.5121 128.488V123.772C84.5121 123.034 83.8461 122.854 83.8461 122.53V122.476C83.8461 122.332 83.9721 122.26 84.1701 122.152L85.9701 121.252C86.3841 121.054 86.6181 121.27 86.6181 121.558V128.488C86.6181 129.19 87.3561 129.262 87.3561 129.658V129.73C87.3561 129.892 87.1941 130 86.9601 130H84.2241ZM97.1418 121.36C97.3398 121.36 97.4658 121.45 97.4658 121.612V121.666C97.4658 122.062 96.7098 122.188 96.4578 122.854L93.7758 129.604C93.6858 129.874 93.5238 130 93.2538 130H92.4978C92.2098 130 92.0838 129.874 91.9578 129.604L88.7538 122.854C88.4478 122.224 87.9258 122.062 87.9258 121.666V121.612C87.9258 121.45 88.0518 121.36 88.2498 121.36H91.2558C91.4178 121.36 91.5618 121.468 91.5618 121.63V121.684C91.5618 122.026 90.8598 122.188 91.1298 122.89L93.3438 128.488L95.4498 123.142C95.8278 122.116 94.8198 122.062 94.8198 121.684V121.63C94.8198 121.45 94.9458 121.36 95.1438 121.36H97.1418ZM99.7417 119.866C98.8417 119.866 98.2477 119.308 98.2477 118.516C98.2477 117.742 98.8417 117.166 99.7417 117.166C100.624 117.166 101.2 117.742 101.2 118.516C101.2 119.308 100.624 119.866 99.7417 119.866ZM98.4097 130C98.1757 130 98.0317 129.892 98.0317 129.73V129.658C98.0317 129.262 98.6977 129.19 98.6977 128.488V123.772C98.6977 123.034 98.0317 122.854 98.0317 122.53V122.476C98.0317 122.332 98.1577 122.26 98.3557 122.152L100.156 121.252C100.57 121.054 100.804 121.27 100.804 121.558V128.488C100.804 129.19 101.542 129.262 101.542 129.658V129.73C101.542 129.892 101.38 130 101.146 130H98.4097ZM106.107 130.18C104.595 130.18 103.587 129.208 103.587 127.264V122.242H102.561C102.381 122.242 102.255 122.116 102.255 121.936V121.684C102.255 121.486 102.363 121.36 102.561 121.36H103.119C104.055 121.36 104.613 120.658 104.757 119.614C104.793 119.362 104.937 119.218 105.117 119.218H105.387C105.621 119.218 105.729 119.362 105.729 119.614L105.747 121.36H108.015C108.195 121.36 108.339 121.504 108.339 121.684V121.936C108.339 122.116 108.195 122.242 108.015 122.242H105.747V127.282C105.747 128.146 106.179 128.614 106.773 128.614C107.529 128.614 107.943 128.2 108.051 127.678C108.213 127.39 108.645 127.444 108.645 127.768C108.645 128.974 107.727 130.18 106.107 130.18ZM116.622 127.354C116.82 127.102 117.234 127.174 117.198 127.534C117.036 128.596 115.83 130.18 113.544 130.18C111.132 130.18 109.278 128.398 109.278 125.608C109.278 123.034 111.204 121.18 113.58 121.18C115.902 121.18 116.946 122.566 116.946 123.826C116.946 124.51 116.586 124.888 116.028 125.086L111.672 126.688C112.122 127.912 113.04 128.668 114.318 128.668C115.452 128.668 116.262 128.074 116.622 127.354ZM113.22 121.864C112.086 121.864 111.366 123.07 111.366 124.798C111.366 125.212 111.402 125.59 111.474 125.95L114.462 124.654C114.786 124.51 114.93 124.258 114.93 123.898C114.93 123.16 114.264 121.864 113.22 121.864ZM121.611 130.18C120.099 130.18 119.091 129.208 119.091 127.264V122.242H118.065C117.885 122.242 117.759 122.116 117.759 121.936V121.684C117.759 121.486 117.867 121.36 118.065 121.36H118.623C119.559 121.36 120.117 120.658 120.261 119.614C120.297 119.362 120.441 119.218 120.621 119.218H120.891C121.125 119.218 121.233 119.362 121.233 119.614L121.251 121.36H123.519C123.699 121.36 123.843 121.504 123.843 121.684V121.936C123.843 122.116 123.699 122.242 123.519 122.242H121.251V127.282C121.251 128.146 121.683 128.614 122.277 128.614C123.033 128.614 123.447 128.2 123.555 127.678C123.717 127.39 124.149 127.444 124.149 127.768C124.149 128.974 123.231 130.18 121.611 130.18ZM132.126 127.354C132.324 127.102 132.738 127.174 132.702 127.534C132.54 128.596 131.334 130.18 129.048 130.18C126.636 130.18 124.782 128.398 124.782 125.608C124.782 123.034 126.708 121.18 129.084 121.18C131.406 121.18 132.45 122.566 132.45 123.826C132.45 124.51 132.09 124.888 131.532 125.086L127.176 126.688C127.626 127.912 128.544 128.668 129.822 128.668C130.956 128.668 131.766 128.074 132.126 127.354ZM128.724 121.864C127.59 121.864 126.87 123.07 126.87 124.798C126.87 125.212 126.906 125.59 126.978 125.95L129.966 124.654C130.29 124.51 130.434 124.258 130.434 123.898C130.434 123.16 129.768 121.864 128.724 121.864ZM142.695 128.488C142.731 129.208 143.343 129.28 143.343 129.676V129.748C143.343 129.91 143.181 130.018 142.947 130.018H140.319C140.067 130.018 139.923 129.91 139.923 129.748V129.676C139.923 129.28 140.607 129.208 140.571 128.488L140.391 125.014C140.301 122.962 139.599 122.044 138.501 122.044C137.349 122.044 136.611 122.98 136.611 124.276V128.506C136.611 129.208 137.349 129.28 137.349 129.676V129.748C137.349 129.91 137.205 130.018 136.953 130.018H134.163C133.929 130.018 133.785 129.91 133.785 129.748V129.676C133.785 129.28 134.505 129.208 134.505 128.506V123.682C134.505 122.89 133.695 122.872 133.695 122.476V122.422C133.695 122.278 133.821 122.188 134.019 122.098L135.765 121.252C136.143 121.054 136.323 121.27 136.323 121.576V122.746C136.827 121.774 137.817 121.18 139.059 121.18C140.751 121.18 142.299 122.26 142.479 125.086L142.695 128.488ZM151.585 127.354C151.783 127.102 152.197 127.174 152.161 127.534C151.999 128.596 150.793 130.18 148.507 130.18C146.095 130.18 144.241 128.398 144.241 125.608C144.241 123.034 146.167 121.18 148.543 121.18C150.865 121.18 151.909 122.566 151.909 123.826C151.909 124.51 151.549 124.888 150.991 125.086L146.635 126.688C147.085 127.912 148.003 128.668 149.281 128.668C150.415 128.668 151.225 128.074 151.585 127.354ZM148.183 121.864C147.049 121.864 146.329 123.07 146.329 124.798C146.329 125.212 146.365 125.59 146.437 125.95L149.425 124.654C149.749 124.51 149.893 124.258 149.893 123.898C149.893 123.16 149.227 121.864 148.183 121.864ZM71.5796 148.18C73.7396 148.18 75.7556 149.8 75.7556 152.536C75.7556 155.272 73.8656 157.18 71.5976 157.18C70.6076 157.18 69.8156 156.838 69.2216 156.226V159.484C69.2216 160.204 69.9596 160.276 69.9596 160.672V160.726C69.9596 160.906 69.7976 160.996 69.5636 160.996H66.8276C66.5936 160.996 66.4316 160.906 66.4316 160.726V160.672C66.4316 160.276 67.1156 160.204 67.1156 159.484V150.664C67.1156 149.98 66.3416 149.944 66.3416 149.53V149.458C66.3416 149.296 66.4676 149.17 66.6656 149.08L68.3216 148.27C68.7536 148.054 68.9156 148.252 68.9156 148.558L68.8976 149.548C69.4016 148.684 70.3916 148.18 71.5796 148.18ZM71.3456 156.496C72.7676 156.496 73.6316 155.308 73.6316 153.202C73.6316 150.628 72.6056 148.864 71.0576 148.864C70.1396 148.864 69.3476 149.602 69.2216 150.61V153.94C69.2216 155.254 70.2476 156.496 71.3456 156.496ZM80.563 147.28C79.231 147.28 78.277 146.452 78.277 145.426C78.277 144.31 79.213 143.518 80.581 143.518C81.913 143.518 82.885 144.31 82.885 145.354C82.885 146.47 81.967 147.28 80.563 147.28ZM80.581 144.22C80.005 144.22 79.573 144.598 79.573 145.39C79.573 146.092 80.005 146.614 80.581 146.614C81.157 146.614 81.589 146.182 81.589 145.39C81.589 144.688 81.157 144.22 80.581 144.22ZM84.703 155.38C84.829 156.55 85.693 156.19 85.693 156.658C85.693 157 85.009 157.108 84.235 157.108C83.317 157.108 82.867 156.91 82.795 156.028C82.381 156.694 81.571 157.18 80.293 157.18C78.331 157.18 76.927 156.226 76.927 154.462C76.909 152.698 78.385 151.762 80.203 151.762C81.085 151.762 81.805 151.996 82.291 152.374L82.255 152.014C82.057 149.926 81.625 148.846 80.365 148.846C78.691 148.846 79.051 151.024 77.917 151.024C77.377 151.024 77.035 150.7 77.035 150.196C77.035 149.062 78.439 148.18 80.365 148.18C82.633 148.18 84.091 149.602 84.343 151.924L84.703 155.38ZM80.887 156.496C81.895 156.496 82.561 155.65 82.507 154.678L82.453 154.12C82.381 153.094 81.697 152.446 80.743 152.446C79.753 152.446 79.051 153.13 79.051 154.21C79.051 155.434 79.771 156.496 80.887 156.496ZM90.4179 157C90.1839 157 90.0399 156.892 90.0399 156.73V156.676C90.0399 156.262 90.7059 156.208 90.7059 155.506V146.02C90.7059 145.264 90.0399 145.12 90.0399 144.796V144.742C90.0399 144.58 90.1659 144.508 90.3459 144.418L92.1639 143.518C92.5779 143.32 92.8119 143.536 92.8119 143.806V155.506C92.8119 156.208 93.5499 156.262 93.5499 156.676V156.73C93.5499 156.892 93.3879 157 93.1539 157H90.4179ZM103.843 148.882L102.853 149.818C103.519 150.61 103.897 151.636 103.897 152.734C103.897 155.2 102.169 157.18 99.5589 157.18C98.2269 157.18 97.1289 156.766 96.3189 156.1L95.2929 157.09C95.1849 157.198 95.0769 157.198 94.9689 157.09L94.6629 156.802C94.5549 156.694 94.5729 156.55 94.7169 156.424L95.7069 155.488C95.0409 154.678 94.6809 153.652 94.6809 152.59C94.6809 150.034 96.6789 148.18 99.1449 148.18C100.369 148.18 101.431 148.558 102.223 149.206L103.195 148.27C103.321 148.144 103.501 148.126 103.627 148.234L103.879 148.486C103.987 148.594 103.969 148.756 103.843 148.882ZM96.8049 151.888C96.8049 152.626 96.9309 153.382 97.1829 154.048L101.035 150.34C100.531 149.44 99.7749 148.864 98.9109 148.864C97.6329 148.864 96.8049 149.908 96.8049 151.888ZM101.773 153.472C101.773 152.662 101.647 151.888 101.413 151.204L97.5609 154.912C98.1009 155.848 98.8749 156.496 99.8289 156.496C100.945 156.496 101.773 155.416 101.773 153.472ZM110.126 148.18C111.188 148.18 111.782 148.864 111.782 149.692C111.782 150.304 111.53 150.826 110.846 150.826C109.676 150.826 110.216 149.422 109.172 149.422C108.326 149.422 107.93 150.484 107.93 151.654V155.506C107.93 156.208 108.758 156.28 108.758 156.676V156.748C108.758 156.91 108.614 157 108.38 157H105.59C105.356 157 105.212 156.91 105.212 156.748V156.676C105.212 156.28 105.896 156.208 105.896 155.506V150.664C105.896 149.926 105.122 149.89 105.122 149.494V149.44C105.122 149.296 105.248 149.17 105.446 149.062L107.21 148.252C107.588 148.072 107.732 148.252 107.732 148.558V149.962C108.128 148.81 108.974 148.18 110.126 148.18ZM120.827 155.506C120.827 156.208 121.511 156.316 121.511 156.694V156.748C121.511 156.91 121.403 157 121.205 157H119.333C119.117 157 118.991 156.856 118.973 156.658L118.919 156.028C118.325 156.784 117.389 157.18 116.399 157.18C114.203 157.18 112.205 155.47 112.205 152.662C112.205 150.016 114.077 148.18 116.435 148.18C117.407 148.18 118.217 148.54 118.793 149.098V145.714C118.793 144.922 117.965 144.904 117.965 144.508V144.472C117.965 144.31 118.091 144.184 118.289 144.112L120.197 143.5C120.629 143.356 120.827 143.464 120.827 143.824V155.506ZM116.885 156.496C117.767 156.496 118.793 155.74 118.793 154.174V151.294C118.793 150.142 117.767 148.864 116.507 148.864C115.175 148.864 114.293 150.016 114.257 151.924C114.203 154.372 115.247 156.46 116.885 156.496ZM130.389 155.38C130.515 156.55 131.379 156.19 131.379 156.658C131.379 157 130.695 157.108 129.921 157.108C129.003 157.108 128.553 156.91 128.481 156.028C128.067 156.694 127.257 157.18 125.979 157.18C124.017 157.18 122.613 156.226 122.613 154.462C122.595 152.698 124.071 151.762 125.889 151.762C126.771 151.762 127.491 151.996 127.977 152.374L127.941 152.014C127.743 149.926 127.311 148.846 126.051 148.846C124.377 148.846 124.737 151.024 123.603 151.024C123.063 151.024 122.721 150.7 122.721 150.196C122.721 149.062 124.125 148.18 126.051 148.18C128.319 148.18 129.777 149.602 130.029 151.924L130.389 155.38ZM126.573 156.496C127.581 156.496 128.247 155.65 128.193 154.678L128.139 154.12C128.067 153.094 127.383 152.446 126.429 152.446C125.439 152.446 124.737 153.13 124.737 154.21C124.737 155.434 125.457 156.496 126.573 156.496ZM139.757 148.36C140.549 148.36 140.693 148.594 140.531 148.864C140.315 149.332 139.667 149.26 139.127 149.404C139.793 149.998 140.261 150.916 140.261 151.798C140.261 153.238 139.451 154.39 138.173 154.984C139.739 155.344 140.405 156.154 140.405 157.144C140.405 158.746 138.551 159.754 136.067 159.754C133.349 159.754 131.909 158.422 131.909 157.144C131.909 156.712 132.179 156.298 132.773 156.298C134.105 156.298 133.583 159.07 136.139 159.088C137.435 159.088 138.281 158.332 138.281 157.234C138.281 156.208 137.687 155.488 136.697 155.38C136.481 155.398 136.265 155.416 136.031 155.416C133.745 155.416 131.981 153.886 131.981 151.888C131.981 149.71 133.655 148.18 136.121 148.18C137.309 148.18 137.705 148.36 139.757 148.36ZM134.069 150.97C134.069 153.004 135.113 154.714 136.373 154.714C137.489 154.714 138.173 153.814 138.173 152.59C138.173 150.628 137.219 148.864 135.779 148.864C134.717 148.864 134.069 149.746 134.069 150.97Z" fill="white"/>
</svg>
