<svg width="254" height="232" viewBox="0 0 254 232" fill="none" xmlns="http://www.w3.org/2000/svg">
<path d="M15.2071 19.072C15.3774 18.5466 15.0895 17.9827 14.5642 17.8124C14.0388 17.6421 13.4748 17.93 13.3046 18.4554L15.2071 19.072ZM82.6716 63.2582C83.222 63.3045 83.7056 62.8959 83.7519 62.3455L84.5062 53.3772C84.5525 52.8268 84.1439 52.3432 83.5936 52.2969C83.0432 52.2506 82.5596 52.6592 82.5133 53.2096L81.8428 61.1814L73.8709 60.5109C73.3206 60.4646 72.8369 60.8732 72.7906 61.4236C72.7443 61.9739 73.1529 62.4576 73.7033 62.5039L82.6716 63.2582ZM13.3046 18.4554C10.6776 26.5609 9.37597 32.9331 9.19317 37.9252C9.01031 42.9193 9.9448 46.6205 11.8867 49.2824C13.8368 51.9554 16.6971 53.4363 20.0617 54.2001C23.4101 54.9603 27.3339 55.0285 31.5277 54.824C35.7178 54.6197 40.2879 54.1351 44.885 53.758C49.5064 53.3788 54.1961 53.1038 58.7335 53.3001C67.8134 53.693 76.1273 55.9658 81.9916 62.9071L83.5193 61.6163C77.1335 54.0576 68.1469 51.7056 58.82 51.302C54.154 51.1001 49.3636 51.3838 44.7215 51.7647C40.055 52.1475 35.5779 52.6241 31.4303 52.8264C27.2864 53.0284 23.5819 52.9484 20.5045 52.2498C17.4434 51.5548 15.0803 50.2665 13.5025 48.1037C11.9165 45.9298 11.0186 42.7289 11.1918 37.9984C11.3651 33.2661 12.6081 27.0914 15.2071 19.072L13.3046 18.4554Z" fill="#5F5D56"/>
<path fill-rule="evenodd" clip-rule="evenodd" d="M196.601 70.7531C215.007 83.9302 221.093 108.321 219.951 130.914C218.816 153.37 209.504 175.649 190.677 187.927C172.733 199.629 150.304 195.378 129.591 189.844C108.501 184.209 86.0382 177.021 76.449 157.409C66.3887 136.833 68.7966 111.104 81.9302 92.3664C93.7466 75.5076 116.522 75.174 136.762 71.3592C157.381 67.4729 179.528 58.5309 196.601 70.7531Z" fill="#028377"/>
<path d="M110.816 120.506C111.14 121.262 111.734 121.298 111.734 121.694V121.748C111.734 121.91 111.59 122 111.356 122H108.152C107.918 122 107.774 121.91 107.774 121.748V121.694C107.774 121.298 108.71 121.208 108.44 120.506L107.738 118.724H102.302L101.636 120.506C101.366 121.208 102.302 121.298 102.302 121.694V121.748C102.302 121.91 102.158 122 101.906 122H99.8719C99.6379 122 99.4939 121.91 99.4939 121.748V121.694C99.4939 121.298 100.106 121.28 100.412 120.506L104.192 110.804C104.426 110.21 103.598 109.868 103.598 109.526V109.472C103.598 109.328 103.706 109.22 103.904 109.22H105.326C105.812 109.22 106.1 109.418 106.298 109.904L110.816 120.506ZM102.662 117.752H107.36L104.948 111.596L102.662 117.752ZM120.8 120.812C121.106 121.226 121.718 121.316 121.718 121.694V121.748C121.718 121.91 121.592 122 121.394 122H118.496C118.316 122 118.19 121.892 118.19 121.73V121.694C118.19 121.298 118.856 121.226 118.532 120.812L116.228 117.734L115.004 118.868V120.506C115.004 121.208 115.742 121.262 115.742 121.676V121.73C115.742 121.892 115.58 122 115.346 122H112.61C112.376 122 112.232 121.892 112.232 121.73V121.676C112.232 121.262 112.898 121.208 112.898 120.506V111.02C112.898 110.264 112.142 110.12 112.142 109.796V109.742C112.142 109.58 112.25 109.508 112.448 109.418L114.356 108.518C114.752 108.338 115.004 108.536 115.004 108.806V117.68L118.244 114.854C118.748 114.422 117.83 114.062 117.83 113.684V113.63C117.83 113.45 117.956 113.36 118.154 113.36H120.458C120.638 113.36 120.764 113.45 120.764 113.612V113.666C120.764 114.062 119.972 114.278 119.36 114.836L117.596 116.456L120.8 120.812ZM125.461 122.18C123.949 122.18 122.941 121.208 122.941 119.264V114.242H121.915C121.735 114.242 121.609 114.116 121.609 113.936V113.684C121.609 113.486 121.717 113.36 121.915 113.36H122.473C123.409 113.36 123.967 112.658 124.111 111.614C124.147 111.362 124.291 111.218 124.471 111.218H124.741C124.975 111.218 125.083 111.362 125.083 111.614L125.101 113.36H127.369C127.549 113.36 127.693 113.504 127.693 113.684V113.936C127.693 114.116 127.549 114.242 127.369 114.242H125.101V119.282C125.101 120.146 125.533 120.614 126.127 120.614C126.883 120.614 127.297 120.2 127.405 119.678C127.567 119.39 127.999 119.444 127.999 119.768C127.999 120.974 127.081 122.18 125.461 122.18ZM130.556 111.866C129.656 111.866 129.062 111.308 129.062 110.516C129.062 109.742 129.656 109.166 130.556 109.166C131.438 109.166 132.014 109.742 132.014 110.516C132.014 111.308 131.438 111.866 130.556 111.866ZM129.224 122C128.99 122 128.846 121.892 128.846 121.73V121.658C128.846 121.262 129.512 121.19 129.512 120.488V115.772C129.512 115.034 128.846 114.854 128.846 114.53V114.476C128.846 114.332 128.972 114.26 129.17 114.152L130.97 113.252C131.384 113.054 131.618 113.27 131.618 113.558V120.488C131.618 121.19 132.356 121.262 132.356 121.658V121.73C132.356 121.892 132.194 122 131.96 122H129.224ZM142.142 113.36C142.34 113.36 142.466 113.45 142.466 113.612V113.666C142.466 114.062 141.71 114.188 141.458 114.854L138.776 121.604C138.686 121.874 138.524 122 138.254 122H137.498C137.21 122 137.084 121.874 136.958 121.604L133.754 114.854C133.448 114.224 132.926 114.062 132.926 113.666V113.612C132.926 113.45 133.052 113.36 133.25 113.36H136.256C136.418 113.36 136.562 113.468 136.562 113.63V113.684C136.562 114.026 135.86 114.188 136.13 114.89L138.344 120.488L140.45 115.142C140.828 114.116 139.82 114.062 139.82 113.684V113.63C139.82 113.45 139.946 113.36 140.144 113.36H142.142ZM144.742 111.866C143.842 111.866 143.248 111.308 143.248 110.516C143.248 109.742 143.842 109.166 144.742 109.166C145.624 109.166 146.2 109.742 146.2 110.516C146.2 111.308 145.624 111.866 144.742 111.866ZM143.41 122C143.176 122 143.032 121.892 143.032 121.73V121.658C143.032 121.262 143.698 121.19 143.698 120.488V115.772C143.698 115.034 143.032 114.854 143.032 114.53V114.476C143.032 114.332 143.158 114.26 143.356 114.152L145.156 113.252C145.57 113.054 145.804 113.27 145.804 113.558V120.488C145.804 121.19 146.542 121.262 146.542 121.658V121.73C146.542 121.892 146.38 122 146.146 122H143.41ZM151.107 122.18C149.595 122.18 148.587 121.208 148.587 119.264V114.242H147.561C147.381 114.242 147.255 114.116 147.255 113.936V113.684C147.255 113.486 147.363 113.36 147.561 113.36H148.119C149.055 113.36 149.613 112.658 149.757 111.614C149.793 111.362 149.937 111.218 150.117 111.218H150.387C150.621 111.218 150.729 111.362 150.729 111.614L150.747 113.36H153.015C153.195 113.36 153.339 113.504 153.339 113.684V113.936C153.339 114.116 153.195 114.242 153.015 114.242H150.747V119.282C150.747 120.146 151.179 120.614 151.773 120.614C152.529 120.614 152.943 120.2 153.051 119.678C153.213 119.39 153.645 119.444 153.645 119.768C153.645 120.974 152.727 122.18 151.107 122.18ZM161.622 119.354C161.82 119.102 162.234 119.174 162.198 119.534C162.036 120.596 160.83 122.18 158.544 122.18C156.132 122.18 154.278 120.398 154.278 117.608C154.278 115.034 156.204 113.18 158.58 113.18C160.902 113.18 161.946 114.566 161.946 115.826C161.946 116.51 161.586 116.888 161.028 117.086L156.672 118.688C157.122 119.912 158.04 120.668 159.318 120.668C160.452 120.668 161.262 120.074 161.622 119.354ZM158.22 113.864C157.086 113.864 156.366 115.07 156.366 116.798C156.366 117.212 156.402 117.59 156.474 117.95L159.462 116.654C159.786 116.51 159.93 116.258 159.93 115.898C159.93 115.16 159.264 113.864 158.22 113.864ZM166.611 122.18C165.099 122.18 164.091 121.208 164.091 119.264V114.242H163.065C162.885 114.242 162.759 114.116 162.759 113.936V113.684C162.759 113.486 162.867 113.36 163.065 113.36H163.623C164.559 113.36 165.117 112.658 165.261 111.614C165.297 111.362 165.441 111.218 165.621 111.218H165.891C166.125 111.218 166.233 111.362 166.233 111.614L166.251 113.36H168.519C168.699 113.36 168.843 113.504 168.843 113.684V113.936C168.843 114.116 168.699 114.242 168.519 114.242H166.251V119.282C166.251 120.146 166.683 120.614 167.277 120.614C168.033 120.614 168.447 120.2 168.555 119.678C168.717 119.39 169.149 119.444 169.149 119.768C169.149 120.974 168.231 122.18 166.611 122.18ZM177.126 119.354C177.324 119.102 177.738 119.174 177.702 119.534C177.54 120.596 176.334 122.18 174.048 122.18C171.636 122.18 169.782 120.398 169.782 117.608C169.782 115.034 171.708 113.18 174.084 113.18C176.406 113.18 177.45 114.566 177.45 115.826C177.45 116.51 177.09 116.888 176.532 117.086L172.176 118.688C172.626 119.912 173.544 120.668 174.822 120.668C175.956 120.668 176.766 120.074 177.126 119.354ZM173.724 113.864C172.59 113.864 171.87 115.07 171.87 116.798C171.87 117.212 171.906 117.59 171.978 117.95L174.966 116.654C175.29 116.51 175.434 116.258 175.434 115.898C175.434 115.16 174.768 113.864 173.724 113.864ZM187.695 120.488C187.731 121.208 188.343 121.28 188.343 121.676V121.748C188.343 121.91 188.181 122.018 187.947 122.018H185.319C185.067 122.018 184.923 121.91 184.923 121.748V121.676C184.923 121.28 185.607 121.208 185.571 120.488L185.391 117.014C185.301 114.962 184.599 114.044 183.501 114.044C182.349 114.044 181.611 114.98 181.611 116.276V120.506C181.611 121.208 182.349 121.28 182.349 121.676V121.748C182.349 121.91 182.205 122.018 181.953 122.018H179.163C178.929 122.018 178.785 121.91 178.785 121.748V121.676C178.785 121.28 179.505 121.208 179.505 120.506V115.682C179.505 114.89 178.695 114.872 178.695 114.476V114.422C178.695 114.278 178.821 114.188 179.019 114.098L180.765 113.252C181.143 113.054 181.323 113.27 181.323 113.576V114.746C181.827 113.774 182.817 113.18 184.059 113.18C185.751 113.18 187.299 114.26 187.479 117.086L187.695 120.488ZM196.585 119.354C196.783 119.102 197.197 119.174 197.161 119.534C196.999 120.596 195.793 122.18 193.507 122.18C191.095 122.18 189.241 120.398 189.241 117.608C189.241 115.034 191.167 113.18 193.543 113.18C195.865 113.18 196.909 114.566 196.909 115.826C196.909 116.51 196.549 116.888 195.991 117.086L191.635 118.688C192.085 119.912 193.003 120.668 194.281 120.668C195.415 120.668 196.225 120.074 196.585 119.354ZM193.183 113.864C192.049 113.864 191.329 115.07 191.329 116.798C191.329 117.212 191.365 117.59 191.437 117.95L194.425 116.654C194.749 116.51 194.893 116.258 194.893 115.898C194.893 115.16 194.227 113.864 193.183 113.864ZM116.58 140.18C118.74 140.18 120.756 141.8 120.756 144.536C120.756 147.272 118.866 149.18 116.598 149.18C115.608 149.18 114.816 148.838 114.222 148.226V151.484C114.222 152.204 114.96 152.276 114.96 152.672V152.726C114.96 152.906 114.798 152.996 114.564 152.996H111.828C111.594 152.996 111.432 152.906 111.432 152.726V152.672C111.432 152.276 112.116 152.204 112.116 151.484V142.664C112.116 141.98 111.342 141.944 111.342 141.53V141.458C111.342 141.296 111.468 141.17 111.666 141.08L113.322 140.27C113.754 140.054 113.916 140.252 113.916 140.558L113.898 141.548C114.402 140.684 115.392 140.18 116.58 140.18ZM116.346 148.496C117.768 148.496 118.632 147.308 118.632 145.202C118.632 142.628 117.606 140.864 116.058 140.864C115.14 140.864 114.348 141.602 114.222 142.61V145.94C114.222 147.254 115.248 148.496 116.346 148.496ZM125.563 139.28C124.231 139.28 123.277 138.452 123.277 137.426C123.277 136.31 124.213 135.518 125.581 135.518C126.913 135.518 127.885 136.31 127.885 137.354C127.885 138.47 126.967 139.28 125.563 139.28ZM125.581 136.22C125.005 136.22 124.573 136.598 124.573 137.39C124.573 138.092 125.005 138.614 125.581 138.614C126.157 138.614 126.589 138.182 126.589 137.39C126.589 136.688 126.157 136.22 125.581 136.22ZM129.703 147.38C129.829 148.55 130.693 148.19 130.693 148.658C130.693 149 130.009 149.108 129.235 149.108C128.317 149.108 127.867 148.91 127.795 148.028C127.381 148.694 126.571 149.18 125.293 149.18C123.331 149.18 121.927 148.226 121.927 146.462C121.909 144.698 123.385 143.762 125.203 143.762C126.085 143.762 126.805 143.996 127.291 144.374L127.255 144.014C127.057 141.926 126.625 140.846 125.365 140.846C123.691 140.846 124.051 143.024 122.917 143.024C122.377 143.024 122.035 142.7 122.035 142.196C122.035 141.062 123.439 140.18 125.365 140.18C127.633 140.18 129.091 141.602 129.343 143.924L129.703 147.38ZM125.887 148.496C126.895 148.496 127.561 147.65 127.507 146.678L127.453 146.12C127.381 145.094 126.697 144.446 125.743 144.446C124.753 144.446 124.051 145.13 124.051 146.21C124.051 147.434 124.771 148.496 125.887 148.496ZM135.418 149C135.184 149 135.04 148.892 135.04 148.73V148.676C135.04 148.262 135.706 148.208 135.706 147.506V138.02C135.706 137.264 135.04 137.12 135.04 136.796V136.742C135.04 136.58 135.166 136.508 135.346 136.418L137.164 135.518C137.578 135.32 137.812 135.536 137.812 135.806V147.506C137.812 148.208 138.55 148.262 138.55 148.676V148.73C138.55 148.892 138.388 149 138.154 149H135.418ZM148.843 140.882L147.853 141.818C148.519 142.61 148.897 143.636 148.897 144.734C148.897 147.2 147.169 149.18 144.559 149.18C143.227 149.18 142.129 148.766 141.319 148.1L140.293 149.09C140.185 149.198 140.077 149.198 139.969 149.09L139.663 148.802C139.555 148.694 139.573 148.55 139.717 148.424L140.707 147.488C140.041 146.678 139.681 145.652 139.681 144.59C139.681 142.034 141.679 140.18 144.145 140.18C145.369 140.18 146.431 140.558 147.223 141.206L148.195 140.27C148.321 140.144 148.501 140.126 148.627 140.234L148.879 140.486C148.987 140.594 148.969 140.756 148.843 140.882ZM141.805 143.888C141.805 144.626 141.931 145.382 142.183 146.048L146.035 142.34C145.531 141.44 144.775 140.864 143.911 140.864C142.633 140.864 141.805 141.908 141.805 143.888ZM146.773 145.472C146.773 144.662 146.647 143.888 146.413 143.204L142.561 146.912C143.101 147.848 143.875 148.496 144.829 148.496C145.945 148.496 146.773 147.416 146.773 145.472ZM155.126 140.18C156.188 140.18 156.782 140.864 156.782 141.692C156.782 142.304 156.53 142.826 155.846 142.826C154.676 142.826 155.216 141.422 154.172 141.422C153.326 141.422 152.93 142.484 152.93 143.654V147.506C152.93 148.208 153.758 148.28 153.758 148.676V148.748C153.758 148.91 153.614 149 153.38 149H150.59C150.356 149 150.212 148.91 150.212 148.748V148.676C150.212 148.28 150.896 148.208 150.896 147.506V142.664C150.896 141.926 150.122 141.89 150.122 141.494V141.44C150.122 141.296 150.248 141.17 150.446 141.062L152.21 140.252C152.588 140.072 152.732 140.252 152.732 140.558V141.962C153.128 140.81 153.974 140.18 155.126 140.18ZM165.827 147.506C165.827 148.208 166.511 148.316 166.511 148.694V148.748C166.511 148.91 166.403 149 166.205 149H164.333C164.117 149 163.991 148.856 163.973 148.658L163.919 148.028C163.325 148.784 162.389 149.18 161.399 149.18C159.203 149.18 157.205 147.47 157.205 144.662C157.205 142.016 159.077 140.18 161.435 140.18C162.407 140.18 163.217 140.54 163.793 141.098V137.714C163.793 136.922 162.965 136.904 162.965 136.508V136.472C162.965 136.31 163.091 136.184 163.289 136.112L165.197 135.5C165.629 135.356 165.827 135.464 165.827 135.824V147.506ZM161.885 148.496C162.767 148.496 163.793 147.74 163.793 146.174V143.294C163.793 142.142 162.767 140.864 161.507 140.864C160.175 140.864 159.293 142.016 159.257 143.924C159.203 146.372 160.247 148.46 161.885 148.496ZM175.389 147.38C175.515 148.55 176.379 148.19 176.379 148.658C176.379 149 175.695 149.108 174.921 149.108C174.003 149.108 173.553 148.91 173.481 148.028C173.067 148.694 172.257 149.18 170.979 149.18C169.017 149.18 167.613 148.226 167.613 146.462C167.595 144.698 169.071 143.762 170.889 143.762C171.771 143.762 172.491 143.996 172.977 144.374L172.941 144.014C172.743 141.926 172.311 140.846 171.051 140.846C169.377 140.846 169.737 143.024 168.603 143.024C168.063 143.024 167.721 142.7 167.721 142.196C167.721 141.062 169.125 140.18 171.051 140.18C173.319 140.18 174.777 141.602 175.029 143.924L175.389 147.38ZM171.573 148.496C172.581 148.496 173.247 147.65 173.193 146.678L173.139 146.12C173.067 145.094 172.383 144.446 171.429 144.446C170.439 144.446 169.737 145.13 169.737 146.21C169.737 147.434 170.457 148.496 171.573 148.496ZM184.757 140.36C185.549 140.36 185.693 140.594 185.531 140.864C185.315 141.332 184.667 141.26 184.127 141.404C184.793 141.998 185.261 142.916 185.261 143.798C185.261 145.238 184.451 146.39 183.173 146.984C184.739 147.344 185.405 148.154 185.405 149.144C185.405 150.746 183.551 151.754 181.067 151.754C178.349 151.754 176.909 150.422 176.909 149.144C176.909 148.712 177.179 148.298 177.773 148.298C179.105 148.298 178.583 151.07 181.139 151.088C182.435 151.088 183.281 150.332 183.281 149.234C183.281 148.208 182.687 147.488 181.697 147.38C181.481 147.398 181.265 147.416 181.031 147.416C178.745 147.416 176.981 145.886 176.981 143.888C176.981 141.71 178.655 140.18 181.121 140.18C182.309 140.18 182.705 140.36 184.757 140.36ZM179.069 142.97C179.069 145.004 180.113 146.714 181.373 146.714C182.489 146.714 183.173 145.814 183.173 144.59C183.173 142.628 182.219 140.864 180.779 140.864C179.717 140.864 179.069 141.746 179.069 142.97Z" fill="white"/>
</svg>
