<svg width="100%" height="100%" viewBox="0 0 393 1093" fill="none" xmlns="http://www.w3.org/2000/svg">
<path d="M0 474H393V1040.89C393 1040.89 368.5 1022.02 194.5 1075.71C20.5 1129.4 0 1040.89 0 1040.89V474Z" fill="#F4F1E7"/>
<path fill-rule="evenodd" clip-rule="evenodd" d="M260.954 485.193C321.295 434.825 329.705 427.216 325.885 350.762C321.91 271.197 275.743 222.495 204.506 189.654C139.919 159.88 102.066 189.655 30.9483 233.233C-28.2853 277.286 -43.7834 264.234 -61.5665 316.277C-61.5665 316.277 -68.7446 346.296 -61.5665 382.187C-45.9865 460.09 -12.5105 503.72 68.7854 503.73C136.984 503.738 207.322 529.96 260.954 485.193Z" fill="#F1EDDF"/>
<path fill-rule="evenodd" clip-rule="evenodd" d="M-15.8856 414.493C-75.5966 350.538 -64.0392 300.942 -64.0392 300.942C-60.1495 208.081 -63.9277 301.153 -58.6299 216.743C-54.2529 147.002 -22.4336 196.98 39.6974 216.743C133.983 246.734 240.623 237.304 242.21 330.638C242.21 330.638 231.458 382.133 205.33 398.915C145.975 437.038 17.2321 430.641 4.99667 427.039C-7.23881 423.437 -15.8856 414.493 -15.8856 414.493Z" fill="#F8F6EF"/>
<path fill-rule="evenodd" clip-rule="evenodd" d="M452.01 477.464C452.01 477.464 505.409 440.407 498.874 366.204C492.073 288.982 476.695 200.989 406.469 166.536C342.8 135.298 259.724 206.159 192.48 224.15C114.904 244.905 1.8362 219.061 -35.3006 289.85C-75.8631 367.168 -83.1787 409.548 -24.6955 477.464C27.4206 537.985 141.431 517.144 220.183 520.167C286.247 522.703 401.717 518.841 452.01 477.464Z" fill="#F4F1E7"/>
</svg>
