<svg width="350" height="54" viewBox="0 0 350 54" fill="none" xmlns="http://www.w3.org/2000/svg">
<rect width="350" height="54" rx="27" fill="#E61A6B"/>
<path d="M39.02 33.18C34.62 33.18 32.1 30.12 32.1 25.94V25.78C32.1 21.6 34.92 18.48 39.02 18.48C41.86 18.48 44.4 19.8 44.84 23.02H43.1C42.7 20.74 41.14 19.86 39.06 19.86C35.78 19.86 33.9 22.26 33.9 25.76V25.92C33.9 29.46 35.66 31.78 39.02 31.78C42.12 31.78 43.46 29.76 43.52 27.22H39.34V25.78H45.22V26.84C45.22 30.98 42.68 33.18 39.02 33.18ZM53.152 21.04C51.972 21.04 51.012 20.1 51.012 18.96C51.012 17.82 51.972 16.88 53.152 16.88C54.332 16.88 55.292 17.82 55.292 18.96C55.292 20.1 54.332 21.04 53.152 21.04ZM53.152 20.12C53.772 20.12 54.212 19.62 54.212 18.96C54.212 18.3 53.772 17.8 53.152 17.8C52.532 17.8 52.092 18.3 52.092 18.96C52.092 19.62 52.532 20.12 53.152 20.12ZM52.032 33.18C50.092 33.18 48.552 32.24 48.552 30.1C48.552 27.68 51.112 26.86 53.792 26.86H55.292V26.1C55.292 24.44 54.652 23.74 53.052 23.74C51.612 23.74 50.812 24.34 50.652 25.62H48.992C49.212 23.24 51.112 22.36 53.132 22.36C55.132 22.36 56.952 23.18 56.952 26.1V33H55.292V31.68C54.512 32.66 53.572 33.18 52.032 33.18ZM52.192 31.86C53.952 31.86 55.292 30.96 55.292 29.34V28.04H53.852C51.752 28.04 50.212 28.56 50.212 30.1C50.212 31.18 50.732 31.86 52.192 31.86ZM71.4858 33.14C69.5858 33.14 68.6658 32.02 68.6658 30.38V23.94H67.1658V22.54H68.6658V20.16H70.3258V22.54H72.7658V23.94H70.3258V30.22C70.3258 31.24 70.7858 31.74 71.6258 31.74C72.1458 31.74 72.5458 31.66 72.9058 31.52V32.92C72.5658 33.04 72.1658 33.14 71.4858 33.14ZM77.6552 20.36C77.0552 20.36 76.5552 19.86 76.5552 19.26C76.5552 18.66 77.0552 18.16 77.6552 18.16C78.2552 18.16 78.7552 18.66 78.7552 19.26C78.7552 19.86 78.2552 20.36 77.6552 20.36ZM76.8552 33V22.54H78.5152V33H76.8552ZM83.3528 33V17.54H85.0328V33H83.3528ZM101.723 33.18C100.023 33.18 98.783 32.32 98.183 31.28V33H96.523V17.54H98.183V24.3C98.783 23.28 100.203 22.36 101.723 22.36C104.463 22.36 106.483 24.36 106.483 27.62V27.78C106.483 30.98 104.603 33.18 101.723 33.18ZM101.563 31.8C103.643 31.8 104.763 30.4 104.763 27.86V27.7C104.763 25.06 103.303 23.74 101.543 23.74C99.603 23.74 98.123 25.02 98.123 27.7V27.86C98.123 30.54 99.523 31.8 101.563 31.8ZM111.302 20.36C110.702 20.36 110.202 19.86 110.202 19.26C110.202 18.66 110.702 18.16 111.302 18.16C111.902 18.16 112.402 18.66 112.402 19.26C112.402 19.86 111.902 20.36 111.302 20.36ZM110.502 33V22.54H112.162V33H110.502ZM117 33V17.54H118.68V33H117ZM127.417 33.18C124.677 33.18 122.697 31.24 122.697 27.98V27.82C122.697 24.62 124.697 22.36 127.577 22.36C129.317 22.36 130.397 23.2 130.997 24.22V17.54H132.657V33H130.997V31.2C130.397 32.22 128.937 33.18 127.417 33.18ZM127.597 31.8C129.537 31.8 131.057 30.52 131.057 27.84V27.68C131.057 25 129.777 23.74 127.737 23.74C125.657 23.74 124.417 25.2 124.417 27.74V27.9C124.417 30.54 125.837 31.8 127.597 31.8ZM141.696 33.18C138.736 33.18 136.636 31.1 136.636 27.88V27.72C136.636 24.56 138.656 22.36 141.536 22.36C143.956 22.36 146.236 23.82 146.236 27.56V28.1H138.356C138.436 30.48 139.576 31.8 141.716 31.8C143.336 31.8 144.276 31.2 144.496 29.98H146.156C145.796 32.08 144.056 33.18 141.696 33.18ZM138.416 26.76H144.536C144.376 24.6 143.256 23.74 141.536 23.74C139.836 23.74 138.696 24.9 138.416 26.76ZM154.523 33.18C151.543 33.18 149.403 30.92 149.403 27.86V27.7C149.403 24.56 151.583 22.36 154.543 22.36C157.503 22.36 159.683 24.54 159.683 27.68V27.84C159.683 31 157.503 33.18 154.523 33.18ZM154.543 31.8C156.643 31.8 157.963 30.22 157.963 27.86V27.72C157.963 25.3 156.623 23.74 154.543 23.74C152.443 23.74 151.123 25.3 151.123 27.7V27.86C151.123 30.24 152.423 31.8 154.543 31.8ZM163.653 36.64V22.54H165.313V24.3C165.913 23.28 167.333 22.36 168.853 22.36C171.593 22.36 173.613 24.36 173.613 27.62V27.78C173.613 30.98 171.733 33.18 168.853 33.18C167.133 33.18 165.913 32.32 165.313 31.28V36.64H163.653ZM168.693 31.8C170.773 31.8 171.893 30.4 171.893 27.86V27.7C171.893 25.06 170.433 23.74 168.673 23.74C166.733 23.74 165.253 25.02 165.253 27.7V27.86C165.253 30.54 166.653 31.8 168.693 31.8ZM177.593 36.64V22.54H179.253V24.3C179.853 23.28 181.273 22.36 182.793 22.36C185.533 22.36 187.553 24.36 187.553 27.62V27.78C187.553 30.98 185.673 33.18 182.793 33.18C181.073 33.18 179.853 32.32 179.253 31.28V36.64H177.593ZM182.633 31.8C184.713 31.8 185.833 30.4 185.833 27.86V27.7C185.833 25.06 184.373 23.74 182.613 23.74C180.673 23.74 179.193 25.02 179.193 27.7V27.86C179.193 30.54 180.593 31.8 182.633 31.8ZM191.572 33V17.54H193.252V33H191.572ZM200.669 33.18C198.729 33.18 197.189 32.24 197.189 30.1C197.189 27.68 199.749 26.86 202.429 26.86H203.929V26.1C203.929 24.44 203.289 23.74 201.689 23.74C200.249 23.74 199.449 24.34 199.289 25.62H197.629C197.849 23.24 199.749 22.36 201.769 22.36C203.769 22.36 205.589 23.18 205.589 26.1V33H203.929V31.68C203.149 32.66 202.209 33.18 200.669 33.18ZM200.829 31.86C202.589 31.86 203.929 30.96 203.929 29.34V28.04H202.489C200.389 28.04 198.849 28.56 198.849 30.1C198.849 31.18 199.369 31.86 200.829 31.86ZM213.49 33.18C210.99 33.18 209.49 31.92 209.39 29.78H211.01C211.13 31.02 211.79 31.8 213.47 31.8C215.05 31.8 215.75 31.26 215.75 30.14C215.75 29.04 214.93 28.68 213.31 28.38C210.59 27.88 209.67 27.12 209.67 25.3C209.67 23.36 211.57 22.36 213.21 22.36C215.09 22.36 216.71 23.12 216.99 25.38H215.39C215.15 24.24 214.51 23.74 213.19 23.74C211.99 23.74 211.21 24.34 211.21 25.24C211.21 26.18 211.73 26.56 213.65 26.9C215.81 27.3 217.33 27.78 217.33 30C217.33 31.9 216.03 33.18 213.49 33.18ZM224.439 33.14C222.539 33.14 221.619 32.02 221.619 30.38V23.94H220.119V22.54H221.619V20.16H223.279V22.54H225.719V23.94H223.279V30.22C223.279 31.24 223.739 31.74 224.579 31.74C225.099 31.74 225.499 31.66 225.859 31.52V32.92C225.519 33.04 225.119 33.14 224.439 33.14ZM229.768 33V22.54H231.428V24.2C231.908 23.22 233.068 22.36 234.788 22.36C236.948 22.36 238.468 23.54 238.468 26.58V33H236.808V26.46C236.808 24.62 236.028 23.8 234.348 23.8C232.808 23.8 231.428 24.78 231.428 26.66V33H229.768ZM243.961 20.36C243.361 20.36 242.861 19.86 242.861 19.26C242.861 18.66 243.361 18.16 243.961 18.16C244.561 18.16 245.061 18.66 245.061 19.26C245.061 19.86 244.561 20.36 243.961 20.36ZM243.161 33V22.54H244.821V33H243.161ZM249.619 33V22.54H251.279V24.2C251.759 23.22 252.919 22.36 254.639 22.36C256.799 22.36 258.319 23.54 258.319 26.58V33H256.659V26.46C256.659 24.62 255.879 23.8 254.199 23.8C252.659 23.8 251.279 24.78 251.279 26.66V33H249.619ZM267.152 36.82C264.052 36.82 262.692 35.36 262.412 33.6H264.112C264.352 34.8 265.352 35.42 267.132 35.42C269.192 35.42 270.492 34.44 270.492 32.2V30.68C269.892 31.7 268.472 32.66 266.952 32.66C264.212 32.66 262.192 30.58 262.192 27.7V27.56C262.192 24.72 264.192 22.36 267.072 22.36C268.812 22.36 269.892 23.2 270.492 24.22V22.54H272.152V32.3C272.132 35.34 270.072 36.82 267.152 36.82ZM267.132 31.28C269.072 31.28 270.552 29.92 270.552 27.58V27.44C270.552 25.1 269.272 23.74 267.232 23.74C265.152 23.74 263.912 25.28 263.912 27.48V27.64C263.912 29.92 265.372 31.28 267.132 31.28Z" fill="white"/>
<path d="M302 27.5L316 27.5" stroke="white" stroke-width="2" stroke-linecap="round" stroke-linejoin="round"/>
<path d="M309 35.375L316 27.5L309 19.625" stroke="white" stroke-width="2" stroke-linecap="round" stroke-linejoin="round"/>
</svg>
