<svg width="100%" height="100%" viewBox="0 0 278 278" fill="none" xmlns="http://www.w3.org/2000/svg" preserveAspectRatio="xMidYMid meet">>
<path fill-rule="evenodd" clip-rule="evenodd" d="M205.277 64.8581C230.709 79.7014 251.313 103.966 253.889 133.351C256.57 163.932 243.473 195.815 218.3 213.437C195.477 229.414 166.631 216.83 138.995 213.78C107.112 210.261 69.0203 220.279 49.542 194.813C28.2669 166.999 29.7419 124.804 47.9887 94.8008C64.249 68.064 99.9643 67.2729 130.661 61.4292C156.412 56.527 182.673 51.6655 205.277 64.8581Z" fill="#E61A6B"/>
<path d="M79.1711 165V150.7H83.4711C86.1311 150.7 88.0711 151.58 88.0711 154.4V154.48C88.0711 155.78 87.5511 156.94 85.9111 157.5C87.9911 158 88.7711 159.06 88.7711 160.92V161C88.7711 163.7 86.9311 165 84.0711 165H79.1711ZM80.8711 156.94H83.4711C85.5711 156.94 86.3711 156.18 86.3711 154.42V154.34C86.3711 152.72 85.4311 152.06 83.4311 152.06H80.8711V156.94ZM80.8711 163.64H84.0311C86.1111 163.64 87.0711 162.72 87.0711 160.98V160.9C87.0711 159.14 86.0911 158.3 83.7911 158.3H80.8711V163.64ZM95.8325 165.18C92.8525 165.18 90.7125 162.92 90.7125 159.86V159.7C90.7125 156.56 92.8925 154.36 95.8525 154.36C98.8125 154.36 100.993 156.54 100.993 159.68V159.84C100.993 163 98.8125 165.18 95.8325 165.18ZM95.8525 163.8C97.9525 163.8 99.2725 162.22 99.2725 159.86V159.72C99.2725 157.3 97.9325 155.74 95.8525 155.74C93.7525 155.74 92.4325 157.3 92.4325 159.7V159.86C92.4325 162.24 93.7325 163.8 95.8525 163.8ZM103.563 168.64V154.54H105.223V156.3C105.823 155.28 107.243 154.36 108.763 154.36C111.503 154.36 113.523 156.36 113.523 159.62V159.78C113.523 162.98 111.643 165.18 108.763 165.18C107.043 165.18 105.823 164.32 105.223 163.28V168.64H103.563ZM108.603 163.8C110.683 163.8 111.803 162.4 111.803 159.86V159.7C111.803 157.06 110.343 155.74 108.583 155.74C106.643 155.74 105.163 157.02 105.163 159.7V159.86C105.163 162.54 106.563 163.8 108.603 163.8ZM124.575 165.14C122.675 165.14 121.755 164.02 121.755 162.38V155.94H120.255V154.54H121.755V152.16H123.415V154.54H125.855V155.94H123.415V162.22C123.415 163.24 123.875 163.74 124.715 163.74C125.235 163.74 125.635 163.66 125.995 163.52V164.92C125.655 165.04 125.255 165.14 124.575 165.14ZM132.844 165.18C129.864 165.18 127.724 162.92 127.724 159.86V159.7C127.724 156.56 129.904 154.36 132.864 154.36C135.824 154.36 138.004 156.54 138.004 159.68V159.84C138.004 163 135.824 165.18 132.844 165.18ZM132.864 163.8C134.964 163.8 136.284 162.22 136.284 159.86V159.72C136.284 157.3 134.944 155.74 132.864 155.74C130.764 155.74 129.444 157.3 129.444 159.7V159.86C129.444 162.24 130.744 163.8 132.864 163.8ZM149.048 165.14C147.148 165.14 146.228 164.02 146.228 162.38V155.94H144.728V154.54H146.228V152.16H147.888V154.54H150.328V155.94H147.888V162.22C147.888 163.24 148.348 163.74 149.188 163.74C149.708 163.74 150.108 163.66 150.468 163.52V164.92C150.128 165.04 149.728 165.14 149.048 165.14ZM152.977 165V149.54H154.637V156.2C155.117 155.22 156.277 154.36 157.997 154.36C160.157 154.36 161.677 155.54 161.677 158.58V165H160.017V158.46C160.017 156.62 159.237 155.8 157.557 155.8C156.017 155.8 154.637 156.78 154.637 158.66V165H152.977ZM169.21 165.18C166.25 165.18 164.15 163.1 164.15 159.88V159.72C164.15 156.56 166.17 154.36 169.05 154.36C171.47 154.36 173.75 155.82 173.75 159.56V160.1H165.87C165.95 162.48 167.09 163.8 169.23 163.8C170.85 163.8 171.79 163.2 172.01 161.98H173.67C173.31 164.08 171.57 165.18 169.21 165.18ZM165.93 158.76H172.05C171.89 156.6 170.77 155.74 169.05 155.74C167.35 155.74 166.21 156.9 165.93 158.76ZM184.77 165.14C182.87 165.14 181.95 164.02 181.95 162.38V155.94H180.45V154.54H181.95V152.16H183.61V154.54H186.05V155.94H183.61V162.22C183.61 163.24 184.07 163.74 184.91 163.74C185.43 163.74 185.83 163.66 186.19 163.52V164.92C185.85 165.04 185.45 165.14 184.77 165.14ZM193.04 165.18C190.06 165.18 187.92 162.92 187.92 159.86V159.7C187.92 156.56 190.1 154.36 193.06 154.36C196.02 154.36 198.2 156.54 198.2 159.68V159.84C198.2 163 196.02 165.18 193.04 165.18ZM193.06 163.8C195.16 163.8 196.48 162.22 196.48 159.86V159.72C196.48 157.3 195.14 155.74 193.06 155.74C190.96 155.74 189.64 157.3 189.64 159.7V159.86C189.64 162.24 190.94 163.8 193.06 163.8ZM200.77 168.64V154.54H202.43V156.3C203.03 155.28 204.45 154.36 205.97 154.36C208.71 154.36 210.73 156.36 210.73 159.62V159.78C210.73 162.98 208.85 165.18 205.97 165.18C204.25 165.18 203.03 164.32 202.43 163.28V168.64H200.77ZM205.81 163.8C207.89 163.8 209.01 162.4 209.01 159.86V159.7C209.01 157.06 207.55 155.74 205.79 155.74C203.85 155.74 202.37 157.02 202.37 159.7V159.86C202.37 162.54 203.77 163.8 205.81 163.8Z" fill="white"/>
<path d="M147.097 75.4771C146.044 76.8098 142.955 83.9466 142.955 86.2262C142.92 88.3304 144.464 86.5243 146.474 87.3221C147 87.6377 147 87.9183 146.509 90.7239C146.228 92.3722 145.561 95.0726 145.07 96.6859C144.157 99.5266 141.208 105.734 140.752 105.734C140.647 105.699 139.523 104.927 138.26 103.945C134.433 101.035 132.608 100.298 129.133 100.298C125.763 100.298 124.218 100.894 122.147 102.999C119.83 105.313 119.374 108.364 120.848 111.521C123.727 117.763 131.766 117.833 138.856 111.766L141.314 109.627L143.174 111.871C146.86 116.431 149.703 121.972 151.248 127.653C153.284 135.018 153.389 135.298 153.81 134.878C154.372 134.316 153.635 129.512 152.266 124.953C151.002 120.744 148.089 114.922 145.631 111.696C142.156 107.172 142.332 108.084 144.227 104.787C146.263 101.245 147.597 97.3171 148.299 92.6528C148.615 90.6888 148.931 88.7249 149.001 88.3041C149.107 87.778 149.098 87.0591 149.73 86.9188C152.854 86.2525 154.539 87.8832 152.889 83.4994C151.064 78.6247 148.747 73.3729 147.097 75.4771ZM132.854 103.279C134.609 104.051 139.313 107.382 139.313 107.838C139.313 107.979 138.435 108.925 137.347 109.942C132.468 114.361 126.921 115.308 123.973 112.187C121.691 109.732 121.691 106.611 123.973 104.366C126.289 102.157 129.449 101.736 132.854 103.279Z" fill="white"/>
</svg>
