<svg width="68" height="66" viewBox="0 0 68 66" fill="none" xmlns="http://www.w3.org/2000/svg">
<g clip-path="url(#clip0_62_133)">
<path d="M51.1539 53.591C47.9107 56.5458 44.6702 59.5044 41.4203 62.4506C41.097 62.7436 41.0458 62.9549 41.3285 63.2464C41.6019 63.5288 41.8692 63.8262 42.0856 64.1582C42.3615 64.5815 42.6089 64.5954 43.0579 64.2546C45.612 62.3165 48.1497 60.3471 50.7664 58.5153C53.83 56.3705 56.9687 54.356 60.0744 52.2843C60.2488 52.1681 60.4187 52.0439 60.6623 51.8734C60.4835 51.6798 60.3545 51.5162 60.2029 51.38C55.5329 47.1902 51.2204 42.6188 47.0742 37.8695C46.4364 37.1391 46.5796 37.121 45.7334 37.8095C44.4702 38.8376 44.4783 38.8275 45.356 40.0514C47.5768 43.1482 49.7879 46.2524 52.0019 49.3549C52.0606 49.4372 52.103 49.5335 52.1838 49.6792C52.0204 49.6985 51.9161 49.7249 51.8159 49.7205C47.5693 49.5323 43.365 49.1549 39.3157 48.0321C30.8429 45.683 23.8856 41.0951 18.8071 33.7702C14.6978 27.8432 12.4953 21.0152 11.915 13.4509C11.5998 9.34325 11.8475 5.20679 12.4979 1.04922C12.6321 0.192123 12.6226 0.190902 11.8154 0.140466C11.3616 0.111921 10.904 0.10272 10.4536 0.0554819C9.98465 0.00644394 9.807 0.211138 9.73095 0.707499C9.1855 4.27961 8.86562 7.84356 8.94558 11.4019C9.09646 18.1216 10.4407 24.4343 13.2091 30.2453C17.6717 39.6134 24.6827 46.0608 34.0574 49.7602C37.8079 51.2405 41.7328 52.1701 45.8149 52.5575C47.5301 52.7203 49.2567 52.8201 50.9781 52.9478C51.1931 52.9637 51.4091 52.9732 51.6244 52.9856C51.638 53.0326 51.6516 53.0799 51.6649 53.1268C51.4947 53.2816 51.3239 53.4358 51.1538 53.591L51.1539 53.591Z" fill="white"/>
<path d="M51.6652 53.1271C51.4948 53.2819 51.324 53.436 51.1539 53.5913C47.9107 56.5461 44.6702 59.5047 41.4203 62.4509C41.097 62.7438 41.0458 62.9552 41.3285 63.2467C41.6019 63.529 41.8692 63.8265 42.0856 64.1585C42.3615 64.5817 42.6089 64.5956 43.0579 64.2548C45.612 62.3168 48.1497 60.3474 50.7664 58.5156C53.83 56.3707 56.9687 54.3562 60.0744 52.2845C60.2488 52.1683 60.4187 52.0442 60.6623 51.8736C60.4835 51.68 60.3545 51.5164 60.2029 51.3802C55.5329 47.1904 51.2204 42.6191 47.0742 37.8697C46.4364 37.1393 46.5796 37.1213 45.7334 37.8097C44.4702 38.8378 44.4783 38.8278 45.356 40.0517C47.5768 43.1485 49.7879 46.2527 52.0019 49.3552C52.0606 49.4375 52.103 49.5337 52.1838 49.6794C52.0204 49.6987 51.9161 49.7251 51.8159 49.7207C47.5693 49.5326 43.365 49.1552 39.3157 48.0323C30.8429 45.6833 23.8856 41.0954 18.8071 33.7705C14.6978 27.8435 12.4953 21.0154 11.915 13.4511C11.5998 9.3435 11.8475 5.20703 12.4979 1.04946C12.6321 0.192367 12.6226 0.191146 11.8154 0.14071C11.3616 0.112165 10.904 0.102964 10.4536 0.055726C9.98465 0.00668808 9.807 0.211382 9.73095 0.707743C9.1855 4.27986 8.86562 7.8438 8.94558 11.4021C9.09646 18.1219 10.4407 24.4346 13.2091 30.2456C17.6717 39.6136 24.6827 46.061 34.0574 49.7605C37.8079 51.2407 41.7328 52.1704 45.8149 52.5577C47.5301 52.7206 49.2567 52.8203 50.9781 52.9481C51.1931 52.964 51.4091 52.9735 51.6244 52.9859C51.638 53.0331 51.6516 53.0804 51.6651 53.1271L51.6652 53.1271Z" fill="white"/>
</g>
<defs>
<clipPath id="clip0_62_133">
<rect width="58.5851" height="62.7146" fill="white" transform="matrix(0.998335 0.0576873 -0.143254 0.989686 9.5127 0)"/>
</clipPath>
</defs>
</svg>
