<svg width="154" height="197" viewBox="0 0 154 197" fill="none" xmlns="http://www.w3.org/2000/svg">
<path d="M113.664 1.17383C113.76 0.629968 113.397 0.111176 112.853 0.0150728C112.31 -0.0810305 111.791 0.281947 111.695 0.825806L113.664 1.17383ZM125.097 70.617C125.034 71.1657 125.428 71.6611 125.977 71.7236L134.92 72.7407C135.468 72.8032 135.964 72.4089 136.026 71.8602C136.089 71.3114 135.694 70.816 135.146 70.7536L127.197 69.8494L128.101 61.9007C128.163 61.3519 127.769 60.8565 127.22 60.794C126.672 60.7316 126.176 61.1259 126.114 61.6746L125.097 70.617ZM111.695 0.825806C109.784 11.6402 112.673 19.2427 117.367 25.086C121.994 30.8462 128.407 34.9092 133.349 38.6272C135.856 40.5134 137.976 42.2981 139.43 44.1853C140.867 46.0486 141.619 47.9644 141.473 50.1485C141.326 52.3633 140.246 55.003 137.705 58.2734C135.166 61.541 131.221 65.369 125.468 69.9475L126.713 71.5125C132.527 66.8857 136.608 62.9448 139.284 59.5006C141.958 56.0592 143.285 53.044 143.469 50.2813C143.655 47.4879 142.663 45.1034 141.014 42.9643C139.384 40.8491 137.077 38.9292 134.552 37.029C129.428 33.1742 123.347 29.3371 118.926 23.8335C114.572 18.4129 111.859 11.3876 113.664 1.17383L111.695 0.825806Z" fill="#5F5D56"/>
<path fill-rule="evenodd" clip-rule="evenodd" d="M61.9847 75.2618C79.2734 73.1666 89.0754 88.9133 102.85 96.8524C116.285 104.596 136.332 107.131 140.45 120.488C144.73 134.366 133.527 148.821 122.579 160.839C112.054 172.392 98.4783 183.395 81.6051 185.083C65.6529 186.678 53.8823 176.323 41.2211 168.978C28.8849 161.822 13.5306 156.171 10.3268 143.735C7.00395 130.837 16.2395 117.981 25.068 106.278C34.694 93.5189 44.4367 77.3883 61.9847 75.2618Z" fill="#E61A6B"/>
<path d="M37.35 137C37.116 137 36.954 136.91 36.954 136.748V136.694C36.954 136.298 37.638 136.208 37.638 135.506V125.714C37.638 124.994 36.954 124.922 36.954 124.526V124.472C36.954 124.31 37.098 124.22 37.314 124.22H45.18C45.504 124.22 45.63 124.382 45.684 124.688L46.116 126.632C46.17 126.902 46.026 127.046 45.81 127.046H45.738C45.018 127.046 44.496 125.138 43.452 125.138H40.446C40.086 125.138 39.834 125.318 39.834 125.804V130.556H42.66C43.344 130.556 43.524 129.368 43.938 129.368H44.064C44.226 129.368 44.334 129.494 44.334 129.71V132.266C44.334 132.464 44.226 132.608 44.064 132.608H43.938C43.524 132.608 43.344 131.474 42.66 131.474H39.834V135.506C39.834 136.208 40.572 136.298 40.572 136.694V136.748C40.572 136.91 40.41 137 40.176 137H37.35ZM50.8746 137.18C47.8146 137.18 45.9966 134.984 45.9966 132.59C45.9966 130.034 47.9946 128.18 50.4606 128.18C53.3046 128.18 55.2126 130.25 55.2126 132.734C55.2126 135.2 53.4846 137.18 50.8746 137.18ZM51.1446 136.496C52.2606 136.496 53.0886 135.416 53.0886 133.472C53.0886 130.952 51.8826 128.864 50.2266 128.864C48.9486 128.864 48.1206 129.908 48.1206 131.888C48.1206 134.12 49.3266 136.496 51.1446 136.496ZM59.6659 137.18C58.1539 137.18 57.1459 136.208 57.1459 134.264V129.242H56.1199C55.9399 129.242 55.8139 129.116 55.8139 128.936V128.684C55.8139 128.486 55.9219 128.36 56.1199 128.36H56.6779C57.6139 128.36 58.1719 127.658 58.3159 126.614C58.3519 126.362 58.4959 126.218 58.6759 126.218H58.9459C59.1799 126.218 59.2879 126.362 59.2879 126.614L59.3059 128.36H61.5739C61.7539 128.36 61.8979 128.504 61.8979 128.684V128.936C61.8979 129.116 61.7539 129.242 61.5739 129.242H59.3059V134.282C59.3059 135.146 59.7379 135.614 60.3319 135.614C61.0879 135.614 61.5019 135.2 61.6099 134.678C61.7719 134.39 62.2039 134.444 62.2039 134.768C62.2039 135.974 61.2859 137.18 59.6659 137.18ZM67.6969 137.18C64.6369 137.18 62.8189 134.984 62.8189 132.59C62.8189 130.034 64.8169 128.18 67.2829 128.18C70.1269 128.18 72.0349 130.25 72.0349 132.734C72.0349 135.2 70.3069 137.18 67.6969 137.18ZM67.9669 136.496C69.0829 136.496 69.9109 135.416 69.9109 133.472C69.9109 130.952 68.7049 128.864 67.0489 128.864C65.7709 128.864 64.9429 129.908 64.9429 131.888C64.9429 134.12 66.1489 136.496 67.9669 136.496ZM78.2857 128.18C80.4457 128.18 82.4617 129.8 82.4617 132.536C82.4617 135.272 80.5717 137.18 78.3037 137.18C77.2237 137.18 76.3597 136.766 75.7477 136.046L75.7657 136.694C75.7657 136.928 75.6397 137.036 75.4057 137.036L73.4617 137C73.2637 137 73.1377 136.91 73.1377 136.748V136.694C73.1377 136.316 73.8217 136.208 73.8217 135.488V126.038C73.8217 125.264 73.0477 125.21 73.0477 124.814V124.76C73.0477 124.598 73.1377 124.526 73.4077 124.4L75.2617 123.518C75.6397 123.338 75.9097 123.446 75.9097 123.824V129.134C76.4677 128.522 77.3137 128.18 78.2857 128.18ZM78.0517 136.496C79.4737 136.496 80.3377 135.308 80.3377 133.202C80.3377 130.628 79.3117 128.864 77.7637 128.864C76.7557 128.864 75.9097 129.746 75.9097 130.898V133.94C75.9097 135.254 76.9537 136.496 78.0517 136.496ZM91.3563 135.38C91.4823 136.55 92.3463 136.19 92.3463 136.658C92.3463 137 91.6623 137.108 90.8883 137.108C89.9703 137.108 89.5203 136.91 89.4483 136.028C89.0343 136.694 88.2243 137.18 86.9463 137.18C84.9843 137.18 83.5803 136.226 83.5803 134.462C83.5623 132.698 85.0383 131.762 86.8563 131.762C87.7383 131.762 88.4583 131.996 88.9443 132.374L88.9083 132.014C88.7103 129.926 88.2783 128.846 87.0183 128.846C85.3443 128.846 85.7043 131.024 84.5703 131.024C84.0303 131.024 83.6883 130.7 83.6883 130.196C83.6883 129.062 85.0923 128.18 87.0183 128.18C89.2863 128.18 90.7443 129.602 90.9963 131.924L91.3563 135.38ZM87.5403 136.496C88.5483 136.496 89.2143 135.65 89.1603 134.678L89.1063 134.12C89.0343 133.094 88.3503 132.446 87.3963 132.446C86.4063 132.446 85.7043 133.13 85.7043 134.21C85.7043 135.434 86.4243 136.496 87.5403 136.496ZM101.949 135.488C101.985 136.208 102.597 136.28 102.597 136.676V136.748C102.597 136.91 102.435 137.018 102.201 137.018H99.573C99.321 137.018 99.177 136.91 99.177 136.748V136.676C99.177 136.28 99.861 136.208 99.825 135.488L99.645 132.014C99.555 129.962 98.853 129.044 97.755 129.044C96.603 129.044 95.865 129.98 95.865 131.276V135.506C95.865 136.208 96.603 136.28 96.603 136.676V136.748C96.603 136.91 96.459 137.018 96.207 137.018H93.417C93.183 137.018 93.039 136.91 93.039 136.748V136.676C93.039 136.28 93.759 136.208 93.759 135.506V130.682C93.759 129.89 92.949 129.872 92.949 129.476V129.422C92.949 129.278 93.075 129.188 93.273 129.098L95.019 128.252C95.397 128.054 95.577 128.27 95.577 128.576V129.746C96.081 128.774 97.071 128.18 98.313 128.18C100.005 128.18 101.553 129.26 101.733 132.086L101.949 135.488ZM112.081 135.812C112.387 136.226 112.999 136.316 112.999 136.694V136.748C112.999 136.91 112.873 137 112.675 137H109.777C109.597 137 109.471 136.892 109.471 136.73V136.694C109.471 136.298 110.137 136.226 109.813 135.812L107.509 132.734L106.285 133.868V135.506C106.285 136.208 107.023 136.262 107.023 136.676V136.73C107.023 136.892 106.861 137 106.627 137H103.891C103.657 137 103.513 136.892 103.513 136.73V136.676C103.513 136.262 104.179 136.208 104.179 135.506V126.02C104.179 125.264 103.423 125.12 103.423 124.796V124.742C103.423 124.58 103.531 124.508 103.729 124.418L105.637 123.518C106.033 123.338 106.285 123.536 106.285 123.806V132.68L109.525 129.854C110.029 129.422 109.111 129.062 109.111 128.684V128.63C109.111 128.45 109.237 128.36 109.435 128.36H111.739C111.919 128.36 112.045 128.45 112.045 128.612V128.666C112.045 129.062 111.253 129.278 110.641 129.836L108.877 131.456L112.081 135.812Z" fill="white"/>
</svg>
