<svg width="100%" height="100%" viewBox="0 0 1512 1684" fill="none" xmlns="http://www.w3.org/2000/svg">
<path fill-rule="evenodd" clip-rule="evenodd" d="M865.454 1198.19C1050.39 1043.82 1076.16 1020.5 1064.45 786.19C1052.27 542.339 910.78 393.076 692.454 292.428C494.509 201.176 378.499 292.429 160.537 425.987C-21.0016 561 -68.5 521 -123.001 680.5C-123.001 680.5 -145 772.5 -123.001 882.5C-75.2518 1121.25 27.3448 1254.97 276.499 1255C485.512 1255.03 701.086 1335.39 865.454 1198.19Z" fill="#F1EDDF"/>
<path fill-rule="evenodd" clip-rule="evenodd" d="M17.0024 981.511C-165.999 785.503 -130.578 633.501 -130.578 633.501C-118.657 348.902 -130.236 634.149 -114 375.451C-100.585 161.71 -3.06588 314.882 187.352 375.451C476.317 467.367 803.146 438.465 808.009 724.514C808.009 724.514 775.057 882.335 694.981 933.767C513.07 1050.61 118.501 1031 81.0019 1019.96C43.5028 1008.92 17.0024 981.511 17.0024 981.511Z" fill="#F8F6EF"/>
<mask id="mask0_72_234" style="mask-type:alpha" maskUnits="userSpaceOnUse" x="0" y="83" width="1513" height="1601">
<rect x="0.453125" y="83.1777" width="1512" height="1600" fill="#A6A6A6"/>
</mask>
<g mask="url(#mask0_72_234)">
<path fill-rule="evenodd" clip-rule="evenodd" d="M1451 1174.5C1451 1174.5 1614.66 1060.93 1594.63 833.516C1573.78 596.846 1526.65 327.167 1311.43 221.573C1116.3 125.838 861.685 343.012 655.598 398.149C417.844 461.759 71.3144 382.553 -42.5019 599.504C-166.817 836.469 -189.238 966.355 -9.99951 1174.5C149.725 1359.99 499.143 1296.11 740.5 1305.38C942.973 1313.15 1296.86 1301.31 1451 1174.5Z" fill="#F4F1E7"/>
</g>
</svg>
