<svg width="281" height="54" viewBox="0 0 281 54" fill="none" xmlns="http://www.w3.org/2000/svg">
<rect width="281" height="54" rx="27" fill="#B91456"/>
<path d="M32.8 33V18.7H34.54V31.58H41.08V33H32.8ZM47.4031 33.18C45.4631 33.18 43.9231 32.24 43.9231 30.1C43.9231 27.68 46.4831 26.86 49.1631 26.86H50.6631V26.1C50.6631 24.44 50.0231 23.74 48.4231 23.74C46.9831 23.74 46.1831 24.34 46.0231 25.62H44.3631C44.5831 23.24 46.4831 22.36 48.5031 22.36C50.5031 22.36 52.3231 23.18 52.3231 26.1V33H50.6631V31.68C49.8831 32.66 48.9431 33.18 47.4031 33.18ZM47.5631 31.86C49.3231 31.86 50.6631 30.96 50.6631 29.34V28.04H49.2231C47.1231 28.04 45.5831 28.56 45.5831 30.1C45.5831 31.18 46.1031 31.86 47.5631 31.86ZM60.2239 33.18C57.7239 33.18 56.2239 31.92 56.1239 29.78H57.7439C57.8639 31.02 58.5239 31.8 60.2039 31.8C61.7839 31.8 62.4839 31.26 62.4839 30.14C62.4839 29.04 61.6639 28.68 60.0439 28.38C57.3239 27.88 56.4039 27.12 56.4039 25.3C56.4039 23.36 58.3039 22.36 59.9439 22.36C61.8239 22.36 63.4439 23.12 63.7239 25.38H62.1239C61.8839 24.24 61.2439 23.74 59.9239 23.74C58.7239 23.74 57.9439 24.34 57.9439 25.24C57.9439 26.18 58.4639 26.56 60.3839 26.9C62.5439 27.3 64.0639 27.78 64.0639 30C64.0639 31.9 62.7639 33.18 60.2239 33.18ZM71.1733 33.14C69.2733 33.14 68.3533 32.02 68.3533 30.38V23.94H66.8533V22.54H68.3533V20.16H70.0133V22.54H72.4533V23.94H70.0133V30.22C70.0133 31.24 70.4733 31.74 71.3133 31.74C71.8333 31.74 72.2333 31.66 72.5933 31.52V32.92C72.2533 33.04 71.8533 33.14 71.1733 33.14ZM87.5356 33.18C84.5556 33.18 82.4156 30.92 82.4156 27.86V27.7C82.4156 24.56 84.5956 22.36 87.5556 22.36C90.5156 22.36 92.6956 24.54 92.6956 27.68V27.84C92.6956 31 90.5156 33.18 87.5356 33.18ZM87.5556 31.8C89.6556 31.8 90.9756 30.22 90.9756 27.86V27.72C90.9756 25.3 89.6356 23.74 87.5556 23.74C85.4556 23.74 84.1356 25.3 84.1356 27.7V27.86C84.1356 30.24 85.4356 31.8 87.5556 31.8ZM96.6659 36.64V22.54H98.3259V24.3C98.9259 23.28 100.346 22.36 101.866 22.36C104.606 22.36 106.626 24.36 106.626 27.62V27.78C106.626 30.98 104.746 33.18 101.866 33.18C100.146 33.18 98.9259 32.32 98.3259 31.28V36.64H96.6659ZM101.706 31.8C103.786 31.8 104.906 30.4 104.906 27.86V27.7C104.906 25.06 103.446 23.74 101.686 23.74C99.7459 23.74 98.2659 25.02 98.2659 27.7V27.86C98.2659 30.54 99.6659 31.8 101.706 31.8ZM110.605 36.64V22.54H112.265V24.3C112.865 23.28 114.285 22.36 115.805 22.36C118.545 22.36 120.565 24.36 120.565 27.62V27.78C120.565 30.98 118.685 33.18 115.805 33.18C114.085 33.18 112.865 32.32 112.265 31.28V36.64H110.605ZM115.645 31.8C117.725 31.8 118.845 30.4 118.845 27.86V27.7C118.845 25.06 117.385 23.74 115.625 23.74C113.685 23.74 112.205 25.02 112.205 27.7V27.86C112.205 30.54 113.605 31.8 115.645 31.8ZM136.437 33.18C134.737 33.18 133.497 32.32 132.897 31.28V33H131.237V17.54H132.897V24.3C133.497 23.28 134.917 22.36 136.437 22.36C139.177 22.36 141.197 24.36 141.197 27.62V27.78C141.197 30.98 139.317 33.18 136.437 33.18ZM136.277 31.8C138.357 31.8 139.477 30.4 139.477 27.86V27.7C139.477 25.06 138.017 23.74 136.257 23.74C134.317 23.74 132.837 25.02 132.837 27.7V27.86C132.837 30.54 134.237 31.8 136.277 31.8ZM146.016 20.36C145.416 20.36 144.916 19.86 144.916 19.26C144.916 18.66 145.416 18.16 146.016 18.16C146.616 18.16 147.116 18.66 147.116 19.26C147.116 19.86 146.616 20.36 146.016 20.36ZM145.216 33V22.54H146.876V33H145.216ZM151.714 33V17.54H153.394V33H151.714ZM162.131 33.18C159.391 33.18 157.411 31.24 157.411 27.98V27.82C157.411 24.62 159.411 22.36 162.291 22.36C164.031 22.36 165.111 23.2 165.711 24.22V17.54H167.371V33H165.711V31.2C165.111 32.22 163.651 33.18 162.131 33.18ZM162.311 31.8C164.251 31.8 165.771 30.52 165.771 27.84V27.68C165.771 25 164.491 23.74 162.451 23.74C160.371 23.74 159.131 25.2 159.131 27.74V27.9C159.131 30.54 160.551 31.8 162.311 31.8ZM176.41 33.18C173.45 33.18 171.35 31.1 171.35 27.88V27.72C171.35 24.56 173.37 22.36 176.25 22.36C178.67 22.36 180.95 23.82 180.95 27.56V28.1H173.07C173.15 30.48 174.29 31.8 176.43 31.8C178.05 31.8 178.99 31.2 179.21 29.98H180.87C180.51 32.08 178.77 33.18 176.41 33.18ZM173.13 26.76H179.25C179.09 24.6 177.97 23.74 176.25 23.74C174.55 23.74 173.41 24.9 173.13 26.76ZM184.897 33V22.54H186.557V24.42C187.217 23.24 188.117 22.42 189.997 22.36V23.92C187.897 24.02 186.557 24.68 186.557 27.26V33H184.897ZM194.377 28.96L194.097 18.7H195.937L195.657 28.96H194.377ZM194.997 33.1C194.297 33.1 193.717 32.54 193.717 31.82C193.717 31.1 194.297 30.54 194.997 30.54C195.697 30.54 196.277 31.1 196.277 31.82C196.277 32.54 195.697 33.1 194.997 33.1Z" fill="white"/>
<path d="M239 31L233 25M233 25L227 31M233 25V38.5M245.585 34.585C247.048 33.7874 248.204 32.5253 248.87 30.9979C249.536 29.4705 249.675 27.7648 249.263 26.15C248.852 24.5352 247.915 23.1032 246.6 22.0801C245.285 21.057 243.666 20.5011 242 20.5H240.11C239.656 18.7438 238.81 17.1135 237.635 15.7315C236.46 14.3495 234.987 13.2518 233.327 12.5209C231.667 11.79 229.863 11.445 228.05 11.5118C226.238 11.5786 224.464 12.0554 222.862 12.9065C221.26 13.7575 219.872 14.9606 218.802 16.4253C217.732 17.8901 217.008 19.5783 216.685 21.3631C216.361 23.1479 216.446 24.9828 216.934 26.7299C217.422 28.477 218.299 30.0908 219.5 31.45" stroke="white" stroke-width="2" stroke-linecap="round" stroke-linejoin="round"/>
</svg>
