<svg width="88" height="1016" viewBox="0 0 88 1016" fill="none" xmlns="http://www.w3.org/2000/svg">
<path d="M10.7756 1013.97C10.2373 1013.85 9.90114 1013.31 10.0247 1012.78C10.1483 1012.24 10.6848 1011.9 11.2231 1012.03L10.7756 1013.97ZM6.17387 0.940108C6.48416 0.483224 7.10607 0.36439 7.56295 0.674667L15.0083 5.7311C15.4652 6.04138 15.584 6.66326 15.2737 7.12015C14.9634 7.57703 14.3415 7.69586 13.8846 7.38559L7.26657 2.89105L2.77198 9.50906C2.4617 9.96595 1.83979 10.0848 1.3829 9.7745C0.926022 9.46423 0.807186 8.84234 1.11747 8.38546L6.17387 0.940108ZM11.2231 1012.03C12.2408 1012.26 13.2482 1012.46 14.2453 1012.63L13.9065 1014.6C12.8719 1014.43 11.8283 1014.22 10.7756 1013.97L11.2231 1012.03ZM20.1058 1013.29C22.1025 1013.39 24.0557 1013.36 25.9661 1013.2L26.1342 1015.19C24.1312 1015.36 22.0878 1015.4 20.0042 1015.29L20.1058 1013.29ZM31.7521 1012.29C33.6514 1011.84 35.5071 1011.26 37.32 1010.53L38.0606 1012.39C36.1561 1013.15 34.2056 1013.77 32.2091 1014.23L31.7521 1012.29ZM42.6465 1007.95C44.2907 1007 45.898 1005.92 47.4687 1004.73L48.6803 1006.32C47.045 1007.56 45.3671 1008.68 43.6462 1009.68L42.6465 1007.95ZM52.0244 1000.82C53.3824 999.512 54.7105 998.108 56.0086 996.604L57.5227 997.911C56.1861 999.459 54.8152 1000.91 53.4096 1002.26L52.0244 1000.82ZM59.8007 991.811C60.9026 990.296 61.9805 988.704 63.0345 987.034L64.7257 988.102C63.6496 989.807 62.547 991.436 61.4179 992.987L59.8007 991.811ZM66.1246 981.794C67.051 980.115 67.9569 978.371 68.8425 976.563L70.6386 977.443C69.7395 979.279 68.8186 981.051 67.8758 982.76L66.1246 981.794ZM71.3452 971.16C72.1537 969.315 72.9435 967.412 73.7147 965.452L75.5758 966.185C74.7957 968.167 73.9962 970.093 73.177 971.963L71.3452 971.16ZM75.7496 960.028C76.4129 958.174 77.0611 956.274 77.6943 954.328L79.5961 954.947C78.9572 956.91 78.3028 958.828 77.6328 960.701L75.7496 960.028ZM79.5247 948.438C80.0672 946.609 80.5977 944.745 81.116 942.844L83.0456 943.37C82.5234 945.284 81.989 947.164 81.4421 949.007L79.5247 948.438ZM82.635 937.033C83.1293 935.061 83.6115 933.052 84.0818 931.009L86.0308 931.457C85.5578 933.513 85.0726 935.534 84.575 937.519L82.635 937.033ZM85.3493 925.279C85.7557 923.367 86.1523 921.426 86.5391 919.457L88.5016 919.843C88.1129 921.822 87.7142 923.772 87.3056 925.695L85.3493 925.279ZM87.67 913.464C88.0295 911.481 88.3796 909.47 88.7203 907.432L90.693 907.762C90.3507 909.809 89.9991 911.828 89.6379 913.821L87.67 913.464ZM89.6509 901.652C89.953 899.701 90.2469 897.728 90.5327 895.731L92.5125 896.014C92.2257 898.018 91.9306 900 91.6274 901.958L89.6509 901.652ZM91.3658 889.672C91.6292 887.676 91.8849 885.659 92.1329 883.62L94.1182 883.861C93.8695 885.907 93.6129 887.931 93.3486 889.933L91.3658 889.672ZM92.8144 877.789C93.0348 875.826 93.2483 873.843 93.4551 871.842L95.4445 872.048C95.2372 874.055 95.023 876.043 94.802 878.012L92.8144 877.789ZM94.0548 865.782C94.2478 863.745 94.434 861.688 94.6134 859.614L96.606 859.786C96.4261 861.866 96.2394 863.928 96.0459 865.97L94.0548 865.782ZM95.0962 853.78C95.2514 851.82 95.4007 849.843 95.5442 847.851L97.539 847.994C97.3952 849.992 97.2455 851.973 97.09 853.938L95.0962 853.78ZM95.9573 841.826C96.0892 839.801 96.2154 837.761 96.3358 835.705L98.3324 835.822C98.2117 837.882 98.0853 839.927 97.9531 841.956L95.9573 841.826ZM96.6711 829.654C96.7731 827.705 96.8702 825.742 96.9622 823.765L98.96 823.858C98.8678 825.838 98.7706 827.806 98.6684 829.759L96.6711 829.654ZM97.2232 817.794C97.3052 815.791 97.3823 813.773 97.4543 811.743L99.4531 811.814C99.3809 813.848 99.3037 815.869 99.2215 817.876L97.2232 817.794ZM97.6556 805.612C97.716 803.612 97.7717 801.599 97.8228 799.574L99.8221 799.625C99.771 801.653 99.7152 803.669 99.6547 805.672L97.6556 805.612ZM97.9577 793.668C97.9983 791.687 98.0346 789.695 98.0665 787.692L100.066 787.723C100.034 789.73 99.998 791.725 99.9573 793.709L97.9577 793.668ZM98.1493 781.647C98.1726 779.62 98.1915 777.582 98.2061 775.533L100.206 775.548C100.191 777.6 100.172 779.64 100.149 781.67L98.1493 781.647ZM98.2368 769.424C98.2425 767.467 98.2444 765.501 98.2425 763.524L100.242 763.522C100.244 765.501 100.243 767.47 100.237 769.43L98.2368 769.424ZM98.2252 757.565C98.2157 755.568 98.2023 753.562 98.1851 751.546L100.185 751.529C100.202 753.547 100.216 755.556 100.225 757.555L98.2252 757.565ZM98.122 745.468C98.0972 743.432 98.0686 741.387 98.0362 739.331L100.036 739.3C100.068 741.357 100.097 743.405 100.122 745.444L98.122 745.468ZM97.9315 733.342C97.8939 731.374 97.8528 729.398 97.8083 727.412L99.8078 727.368C99.8523 729.355 99.8934 731.334 99.9312 733.304L97.9315 733.342ZM97.6646 721.431C97.6134 719.429 97.5587 717.418 97.5007 715.398L99.4999 715.341C99.5579 717.362 99.6127 719.375 99.664 721.38L97.6646 721.431ZM97.3165 709.314C97.2517 707.278 97.1835 705.233 97.1121 703.18L99.1108 703.11C99.1824 705.165 99.2506 707.212 99.3155 709.251L97.3165 709.314ZM96.8962 697.224C96.8219 695.253 96.7446 693.274 96.6642 691.287L98.6626 691.206C98.743 693.195 98.8204 695.176 98.8947 697.149L96.8962 697.224ZM96.4141 685.304C96.3277 683.302 96.2383 681.293 96.1458 679.276L98.1437 679.184C98.2362 681.203 98.3257 683.214 98.4122 685.218L96.4141 685.304ZM95.8594 673.204C95.7609 671.172 95.6595 669.133 95.555 667.087L97.5524 666.985C97.6569 669.033 97.7585 671.073 97.8571 673.107L95.8594 673.204ZM95.2416 661.096C95.1361 659.126 95.0279 657.149 94.9169 655.165L96.9138 655.053C97.0249 657.039 97.1332 659.017 97.2388 660.989L95.2416 661.096ZM94.5759 649.194C94.4595 647.197 94.3403 645.193 94.2184 643.183L96.2148 643.062C96.3367 645.074 96.456 647.079 96.5725 649.078L94.5759 649.194ZM93.8447 637.134C93.7174 635.11 93.5874 633.081 93.4547 631.044L95.4505 630.914C95.5833 632.952 95.7134 634.983 95.8408 637.008L93.8447 637.134ZM93.0517 624.965C92.9193 623 92.7843 621.028 92.6469 619.05L94.6421 618.912C94.7796 620.891 94.9147 622.864 95.0472 624.831L93.0517 624.965ZM92.2272 613.1C92.0848 611.11 91.9399 609.115 91.7926 607.114L93.7872 606.967C93.9346 608.969 94.0796 610.966 94.2221 612.957L92.2272 613.1ZM91.3432 601.093C91.191 599.081 91.0363 597.062 90.8791 595.038L92.8731 594.883C93.0304 596.909 93.1852 598.929 93.3375 600.943L91.3432 601.093ZM90.4003 588.949C90.2412 586.951 90.0798 584.947 89.916 582.938L91.9094 582.775C92.0733 584.786 92.2348 586.791 92.394 588.79L90.4003 588.949ZM89.4274 577.013C89.2623 575.033 89.095 573.048 88.9254 571.057L90.9181 570.887C91.0879 572.879 91.2553 574.866 91.4205 576.847L89.4274 577.013ZM88.4098 565.07C88.2357 563.069 88.0593 561.063 87.8807 559.052L89.8729 558.875C90.0516 560.887 90.228 562.894 90.4022 564.896L88.4098 565.07ZM87.3382 553.003C87.1551 550.982 86.9698 548.955 86.7823 546.924L88.7738 546.74C88.9614 548.772 89.1469 550.8 89.33 552.822L87.3382 553.003ZM86.2234 540.925C86.0382 538.955 85.8509 536.981 85.6616 535.001L87.6525 534.811C87.8419 536.791 88.0293 538.767 88.2146 540.738L86.2234 540.925ZM85.0873 529.049C84.8938 527.06 84.6983 525.067 84.5007 523.069L86.491 522.872C86.6887 524.871 86.8843 526.866 87.0779 528.855L85.0873 529.049ZM83.9017 517.062C83.7 515.055 83.4962 513.043 83.2904 511.027L85.2801 510.824C85.486 512.841 85.6898 514.854 85.8917 516.862L83.9017 517.062ZM82.6668 504.965C82.4589 502.96 82.2491 500.95 82.0372 498.936L84.0262 498.727C84.2382 500.742 84.4482 502.753 84.6561 504.759L82.6668 504.965ZM81.4104 493.019C81.1996 491.043 80.9868 489.062 80.7722 487.078L82.7606 486.863C82.9754 488.848 83.1882 490.83 83.3991 492.807L81.4104 493.019ZM80.1226 481.111C79.9042 479.119 79.6839 477.122 79.4616 475.12L81.4494 474.9C81.6717 476.902 81.8922 478.9 82.1107 480.894L80.1226 481.111ZM78.7893 469.105C78.5633 467.096 78.3354 465.083 78.1057 463.065L80.0928 462.839C80.3227 464.857 80.5507 466.871 80.7768 468.881L78.7893 469.105ZM77.4107 457.002C77.1831 455.027 76.9537 453.049 76.7225 451.067L78.709 450.836C78.9403 452.818 79.1698 454.797 79.3976 456.772L77.4107 457.002ZM76.0271 445.141C75.7935 443.162 75.5582 441.179 75.3211 439.192L77.307 438.955C77.5442 440.942 77.7796 442.926 78.0133 444.906L76.0271 445.141ZM74.6046 433.221C74.364 431.227 74.1217 429.229 73.8776 427.228L75.8629 426.986C76.107 428.988 76.3495 430.986 76.5902 432.981L74.6046 433.221ZM73.1401 421.213C72.8925 419.204 72.6432 417.192 72.3921 415.176L74.3768 414.929C74.628 416.946 74.8774 418.959 75.1251 420.968L73.1401 421.213ZM71.6368 409.143C71.3894 407.176 71.1403 405.206 70.8897 403.233L72.8737 402.981C73.1245 404.955 73.3736 406.926 73.6211 408.893L71.6368 409.143ZM70.1327 397.304C69.8788 395.325 69.6232 393.342 69.366 391.355L71.3494 391.098C71.6067 393.086 71.8624 395.069 72.1165 397.05L70.1327 397.304ZM68.5895 385.386C68.329 383.393 68.0669 381.397 67.8032 379.398L69.786 379.136C70.0499 381.136 70.312 383.133 70.5726 385.127L68.5895 385.386ZM67.0072 373.389C66.7403 371.384 66.4717 369.374 66.2015 367.362L68.1837 367.096C68.454 369.109 68.7227 371.119 68.9897 373.126L67.0072 373.389ZM65.391 361.351C65.1247 359.384 64.8569 357.415 64.5875 355.443L66.5691 355.172C66.8386 357.145 67.1065 359.115 67.3729 361.082L65.391 361.351ZM63.7749 349.516C63.5025 347.538 63.2286 345.557 62.9532 343.572L64.9342 343.297C65.2097 345.282 65.4837 347.265 65.7562 349.244L63.7749 349.516ZM62.1223 337.61C61.8439 335.62 61.5639 333.627 61.2824 331.631L63.2628 331.352C63.5444 333.348 63.8245 335.342 64.103 337.333L62.1223 337.61ZM60.4334 325.634C60.1489 323.632 59.8629 321.627 59.5754 319.619L61.5552 319.336C61.8428 321.344 62.1289 323.35 62.4135 325.352L60.4334 325.634ZM58.7104 313.602C58.4269 311.637 58.1419 309.669 57.8555 307.699L59.8347 307.411C60.1212 309.382 60.4063 311.351 60.6899 313.316L58.7104 313.602ZM56.9921 301.779C56.7029 299.803 56.4122 297.825 56.1201 295.844L58.0987 295.552C58.3909 297.534 58.6817 299.513 58.971 301.489L56.9921 301.779ZM55.2396 289.892C54.9447 287.906 54.6484 285.916 54.3506 283.925L56.3286 283.629C56.6265 285.621 56.9229 287.611 57.2179 289.598L55.2396 289.892ZM53.4531 277.941C53.1526 275.944 52.8506 273.945 52.5472 271.942L54.5246 271.643C54.8281 273.646 55.1302 275.646 55.4309 277.644L53.4531 277.941ZM51.6328 265.928C51.3319 263.955 51.0296 261.98 50.7259 260.002L52.7028 259.699C53.0065 261.677 53.3089 263.653 53.6099 265.626L51.6328 265.928ZM49.8157 254.092C49.5109 252.12 49.2048 250.145 48.8974 248.167L50.8737 247.86C51.1812 249.838 51.4874 251.814 51.7922 253.787L49.8157 254.092ZM47.9711 242.228C47.6611 240.246 47.3496 238.262 47.0369 236.275L49.0126 235.964C49.3254 237.952 49.6369 239.937 49.9471 241.919L47.9711 242.228ZM46.0947 230.308C45.7793 228.316 45.4625 226.322 45.1445 224.326L47.1196 224.011C47.4377 226.008 47.7545 228.002 48.07 229.995L46.0947 230.308ZM44.1863 218.33C43.8673 216.34 43.547 214.347 43.2254 212.352L45.1999 212.034C45.5216 214.029 45.842 216.023 46.1611 218.013L44.1863 218.33ZM42.2717 206.453C41.9525 204.485 41.6321 202.514 41.3104 200.541L43.2843 200.219C43.6061 202.193 43.9266 204.164 44.2459 206.133L42.2717 206.453ZM40.3416 194.616C40.0174 192.639 39.6919 190.659 39.3652 188.678L41.3386 188.353C41.6654 190.335 41.9909 192.315 42.3152 194.292L40.3416 194.616ZM38.3813 182.727C38.0521 180.741 37.7216 178.753 37.3899 176.763L39.3627 176.435C39.6945 178.425 40.0251 180.414 40.3544 182.4L38.3813 182.727ZM36.3911 170.787C36.0569 168.793 35.7214 166.797 35.3848 164.798L37.357 164.466C37.6937 166.465 38.0293 168.462 38.3636 170.457L36.3911 170.787ZM34.3818 158.861C34.0492 156.897 33.7153 154.93 33.3802 152.962L35.3519 152.627C35.687 154.595 36.021 156.562 36.3537 158.527L34.3818 158.861ZM32.3715 147.052C32.034 145.079 31.6954 143.105 31.3556 141.129L33.3267 140.79C33.6666 142.767 34.0053 144.742 34.3428 146.714L32.3715 147.052ZM30.3327 135.195C29.9905 133.216 29.6471 131.234 29.3026 129.25L31.2731 128.908C31.6177 130.892 31.9612 132.874 32.3034 134.855L30.3327 135.195ZM28.2654 123.293C27.9186 121.306 27.5705 119.317 27.2213 117.325L29.1912 116.98C29.5405 118.972 29.8887 120.961 30.2357 122.949L28.2654 123.293ZM26.17 111.346C25.8227 109.375 25.4743 107.403 25.1247 105.429L27.0941 105.08C27.4437 107.055 27.7923 109.028 28.1397 110.999L26.17 111.346ZM24.0783 99.5327C23.7283 97.5656 23.3772 95.5968 23.025 93.6262L24.9938 93.2743C25.3461 95.2454 25.6973 97.2148 26.0473 99.1824L24.0783 99.5327ZM21.9651 87.7092C21.6107 85.7352 21.2551 83.7594 20.8984 81.7819L22.8667 81.4269C23.2234 83.4049 23.5791 85.3812 23.9336 87.3558L21.9651 87.7092ZM19.8251 75.8444C19.4662 73.8634 19.1061 71.8808 18.745 69.8965L20.7127 69.5384C21.0739 71.5232 21.434 73.5063 21.793 75.4878L19.8251 75.8444ZM17.6582 63.9386C17.2949 61.951 16.9304 59.9617 16.5648 57.9708L18.5319 57.6096C18.8976 59.601 19.2622 61.5908 19.6256 63.579L17.6582 63.9386ZM15.4767 52.0576C15.1148 50.0955 14.7519 48.1318 14.3879 46.1665L16.3545 45.8023C16.7185 47.7681 17.0816 49.7322 17.4435 51.6948L15.4767 52.0576ZM13.2927 40.2659C12.9266 38.2976 12.5594 36.3276 12.1911 34.3561L14.1571 33.9889C14.5255 35.9609 14.8928 37.9313 15.259 39.9002L13.2927 40.2659ZM11.0832 28.437C10.7128 26.4624 10.3413 24.4864 9.96884 22.5087L11.9343 22.1385C12.3069 24.1166 12.6784 26.0932 13.0489 28.0682L11.0832 28.437ZM8.84815 16.5713C8.47353 14.5907 8.09786 12.6086 7.72114 10.625L9.68602 10.2519C10.0628 12.2359 10.4386 14.2185 10.8133 16.1997L8.84815 16.5713ZM6.58778 4.66973C6.39842 3.67673 6.20879 2.68339 6.0189 1.68963L7.98336 1.31425C8.17329 2.30825 8.36297 3.30184 8.55238 4.29507L6.58778 4.66973ZM10.7756 1013.97C10.2373 1013.85 9.90114 1013.31 10.0247 1012.78C10.1483 1012.24 10.6848 1011.9 11.2231 1012.03L10.7756 1013.97ZM6.17387 0.940108C6.48416 0.483224 7.10607 0.36439 7.56295 0.674667L15.0083 5.7311C15.4652 6.04138 15.584 6.66326 15.2737 7.12015C14.9634 7.57703 14.3415 7.69586 13.8846 7.38559L7.26657 2.89105L2.77198 9.50906C2.4617 9.96595 1.83979 10.0848 1.3829 9.7745C0.926022 9.46423 0.807186 8.84234 1.11747 8.38546L6.17387 0.940108ZM11.2231 1012.03C12.2408 1012.26 13.2482 1012.46 14.2453 1012.63L13.9065 1014.6C12.8719 1014.43 11.8283 1014.22 10.7756 1013.97L11.2231 1012.03ZM20.1058 1013.29C22.1025 1013.39 24.0557 1013.36 25.9661 1013.2L26.1342 1015.19C24.1312 1015.36 22.0878 1015.4 20.0042 1015.29L20.1058 1013.29ZM31.7521 1012.29C33.6514 1011.84 35.5071 1011.26 37.32 1010.53L38.0606 1012.39C36.1561 1013.15 34.2056 1013.77 32.2091 1014.23L31.7521 1012.29ZM42.6465 1007.95C44.2907 1007 45.898 1005.92 47.4687 1004.73L48.6803 1006.32C47.045 1007.56 45.3671 1008.68 43.6462 1009.68L42.6465 1007.95ZM52.0244 1000.82C53.3824 999.512 54.7105 998.108 56.0086 996.604L57.5227 997.911C56.1861 999.459 54.8152 1000.91 53.4096 1002.26L52.0244 1000.82ZM59.8007 991.811C60.9026 990.296 61.9805 988.704 63.0345 987.034L64.7257 988.102C63.6496 989.807 62.547 991.436 61.4179 992.987L59.8007 991.811ZM66.1246 981.794C67.051 980.115 67.9569 978.371 68.8425 976.563L70.6386 977.443C69.7395 979.279 68.8186 981.051 67.8758 982.76L66.1246 981.794ZM71.3452 971.16C72.1537 969.315 72.9435 967.412 73.7147 965.452L75.5758 966.185C74.7957 968.167 73.9962 970.093 73.177 971.963L71.3452 971.16ZM75.7496 960.028C76.4129 958.174 77.0611 956.274 77.6943 954.328L79.5961 954.947C78.9572 956.91 78.3028 958.828 77.6328 960.701L75.7496 960.028ZM79.5247 948.438C80.0672 946.609 80.5977 944.745 81.116 942.844L83.0456 943.37C82.5234 945.284 81.989 947.164 81.4421 949.007L79.5247 948.438ZM82.635 937.033C83.1293 935.061 83.6115 933.052 84.0818 931.009L86.0308 931.457C85.5578 933.513 85.0726 935.534 84.575 937.519L82.635 937.033ZM85.3493 925.279C85.7557 923.367 86.1523 921.426 86.5391 919.457L88.5016 919.843C88.1129 921.822 87.7142 923.772 87.3056 925.695L85.3493 925.279ZM87.67 913.464C88.0295 911.481 88.3796 909.47 88.7203 907.432L90.693 907.762C90.3507 909.809 89.9991 911.828 89.6379 913.821L87.67 913.464ZM89.6509 901.652C89.953 899.701 90.2469 897.728 90.5327 895.731L92.5125 896.014C92.2257 898.018 91.9306 900 91.6274 901.958L89.6509 901.652ZM91.3658 889.672C91.6292 887.676 91.8849 885.659 92.1329 883.62L94.1182 883.861C93.8695 885.907 93.6129 887.931 93.3486 889.933L91.3658 889.672ZM92.8144 877.789C93.0348 875.826 93.2483 873.843 93.4551 871.842L95.4445 872.048C95.2372 874.055 95.023 876.043 94.802 878.012L92.8144 877.789ZM94.0548 865.782C94.2478 863.745 94.434 861.688 94.6134 859.614L96.606 859.786C96.4261 861.866 96.2394 863.928 96.0459 865.97L94.0548 865.782ZM95.0962 853.78C95.2514 851.82 95.4007 849.843 95.5442 847.851L97.539 847.994C97.3952 849.992 97.2455 851.973 97.09 853.938L95.0962 853.78ZM95.9573 841.826C96.0892 839.801 96.2154 837.761 96.3358 835.705L98.3324 835.822C98.2117 837.882 98.0853 839.927 97.9531 841.956L95.9573 841.826ZM96.6711 829.654C96.7731 827.705 96.8702 825.742 96.9622 823.765L98.96 823.858C98.8678 825.838 98.7706 827.806 98.6684 829.759L96.6711 829.654ZM97.2232 817.794C97.3052 815.791 97.3823 813.773 97.4543 811.743L99.4531 811.814C99.3809 813.848 99.3037 815.869 99.2215 817.876L97.2232 817.794ZM97.6556 805.612C97.716 803.612 97.7717 801.599 97.8228 799.574L99.8221 799.625C99.771 801.653 99.7152 803.669 99.6547 805.672L97.6556 805.612ZM97.9577 793.668C97.9983 791.687 98.0346 789.695 98.0665 787.692L100.066 787.723C100.034 789.73 99.998 791.725 99.9573 793.709L97.9577 793.668ZM98.1493 781.647C98.1726 779.62 98.1915 777.582 98.2061 775.533L100.206 775.548C100.191 777.6 100.172 779.64 100.149 781.67L98.1493 781.647ZM98.2368 769.424C98.2425 767.467 98.2444 765.501 98.2425 763.524L100.242 763.522C100.244 765.501 100.243 767.47 100.237 769.43L98.2368 769.424ZM98.2252 757.565C98.2157 755.568 98.2023 753.562 98.1851 751.546L100.185 751.529C100.202 753.547 100.216 755.556 100.225 757.555L98.2252 757.565ZM98.122 745.468C98.0972 743.432 98.0686 741.387 98.0362 739.331L100.036 739.3C100.068 741.357 100.097 743.405 100.122 745.444L98.122 745.468ZM97.9315 733.342C97.8939 731.374 97.8528 729.398 97.8083 727.412L99.8078 727.368C99.8523 729.355 99.8934 731.334 99.9312 733.304L97.9315 733.342ZM97.6646 721.431C97.6134 719.429 97.5587 717.418 97.5007 715.398L99.4999 715.341C99.5579 717.362 99.6127 719.375 99.664 721.38L97.6646 721.431ZM97.3165 709.314C97.2517 707.278 97.1835 705.233 97.1121 703.18L99.1108 703.11C99.1824 705.165 99.2506 707.212 99.3155 709.251L97.3165 709.314ZM96.8962 697.224C96.8219 695.253 96.7446 693.274 96.6642 691.287L98.6626 691.206C98.743 693.195 98.8204 695.176 98.8947 697.149L96.8962 697.224ZM96.4141 685.304C96.3277 683.302 96.2383 681.293 96.1458 679.276L98.1437 679.184C98.2362 681.203 98.3257 683.214 98.4122 685.218L96.4141 685.304ZM95.8594 673.204C95.7609 671.172 95.6595 669.133 95.555 667.087L97.5524 666.985C97.6569 669.033 97.7585 671.073 97.8571 673.107L95.8594 673.204ZM95.2416 661.096C95.1361 659.126 95.0279 657.149 94.9169 655.165L96.9138 655.053C97.0249 657.039 97.1332 659.017 97.2388 660.989L95.2416 661.096ZM94.5759 649.194C94.4595 647.197 94.3403 645.193 94.2184 643.183L96.2148 643.062C96.3367 645.074 96.456 647.079 96.5725 649.078L94.5759 649.194ZM93.8447 637.134C93.7174 635.11 93.5874 633.081 93.4547 631.044L95.4505 630.914C95.5833 632.952 95.7134 634.983 95.8408 637.008L93.8447 637.134ZM93.0517 624.965C92.9193 623 92.7843 621.028 92.6469 619.05L94.6421 618.912C94.7796 620.891 94.9147 622.864 95.0472 624.831L93.0517 624.965ZM92.2272 613.1C92.0848 611.11 91.9399 609.115 91.7926 607.114L93.7872 606.967C93.9346 608.969 94.0796 610.966 94.2221 612.957L92.2272 613.1ZM91.3432 601.093C91.191 599.081 91.0363 597.062 90.8791 595.038L92.8731 594.883C93.0304 596.909 93.1852 598.929 93.3375 600.943L91.3432 601.093ZM90.4003 588.949C90.2412 586.951 90.0798 584.947 89.916 582.938L91.9094 582.775C92.0733 584.786 92.2348 586.791 92.394 588.79L90.4003 588.949ZM89.4274 577.013C89.2623 575.033 89.095 573.048 88.9254 571.057L90.9181 570.887C91.0879 572.879 91.2553 574.866 91.4205 576.847L89.4274 577.013ZM88.4098 565.07C88.2357 563.069 88.0593 561.063 87.8807 559.052L89.8729 558.875C90.0516 560.887 90.228 562.894 90.4022 564.896L88.4098 565.07ZM87.3382 553.003C87.1551 550.982 86.9698 548.955 86.7823 546.924L88.7738 546.74C88.9614 548.772 89.1469 550.8 89.33 552.822L87.3382 553.003ZM86.2234 540.925C86.0382 538.955 85.8509 536.981 85.6616 535.001L87.6525 534.811C87.8419 536.791 88.0293 538.767 88.2146 540.738L86.2234 540.925ZM85.0873 529.049C84.8938 527.06 84.6983 525.067 84.5007 523.069L86.491 522.872C86.6887 524.871 86.8843 526.866 87.0779 528.855L85.0873 529.049ZM83.9017 517.062C83.7 515.055 83.4962 513.043 83.2904 511.027L85.2801 510.824C85.486 512.841 85.6898 514.854 85.8917 516.862L83.9017 517.062ZM82.6668 504.965C82.4589 502.96 82.2491 500.95 82.0372 498.936L84.0262 498.727C84.2382 500.742 84.4482 502.753 84.6561 504.759L82.6668 504.965ZM81.4104 493.019C81.1996 491.043 80.9868 489.062 80.7722 487.078L82.7606 486.863C82.9754 488.848 83.1882 490.83 83.3991 492.807L81.4104 493.019ZM80.1226 481.111C79.9042 479.119 79.6839 477.122 79.4616 475.12L81.4494 474.9C81.6717 476.902 81.8922 478.9 82.1107 480.894L80.1226 481.111ZM78.7893 469.105C78.5633 467.096 78.3354 465.083 78.1057 463.065L80.0928 462.839C80.3227 464.857 80.5507 466.871 80.7768 468.881L78.7893 469.105ZM77.4107 457.002C77.1831 455.027 76.9537 453.049 76.7225 451.067L78.709 450.836C78.9403 452.818 79.1698 454.797 79.3976 456.772L77.4107 457.002ZM76.0271 445.141C75.7935 443.162 75.5582 441.179 75.3211 439.192L77.307 438.955C77.5442 440.942 77.7796 442.926 78.0133 444.906L76.0271 445.141ZM74.6046 433.221C74.364 431.227 74.1217 429.229 73.8776 427.228L75.8629 426.986C76.107 428.988 76.3495 430.986 76.5902 432.981L74.6046 433.221ZM73.1401 421.213C72.8925 419.204 72.6432 417.192 72.3921 415.176L74.3768 414.929C74.628 416.946 74.8774 418.959 75.1251 420.968L73.1401 421.213ZM71.6368 409.143C71.3894 407.176 71.1403 405.206 70.8897 403.233L72.8737 402.981C73.1245 404.955 73.3736 406.926 73.6211 408.893L71.6368 409.143ZM70.1327 397.304C69.8788 395.325 69.6232 393.342 69.366 391.355L71.3494 391.098C71.6067 393.086 71.8624 395.069 72.1165 397.05L70.1327 397.304ZM68.5895 385.386C68.329 383.393 68.0669 381.397 67.8032 379.398L69.786 379.136C70.0499 381.136 70.312 383.133 70.5726 385.127L68.5895 385.386ZM67.0072 373.389C66.7403 371.384 66.4717 369.374 66.2015 367.362L68.1837 367.096C68.454 369.109 68.7227 371.119 68.9897 373.126L67.0072 373.389ZM65.391 361.351C65.1247 359.384 64.8569 357.415 64.5875 355.443L66.5691 355.172C66.8386 357.145 67.1065 359.115 67.3729 361.082L65.391 361.351ZM63.7749 349.516C63.5025 347.538 63.2286 345.557 62.9532 343.572L64.9342 343.297C65.2097 345.282 65.4837 347.265 65.7562 349.244L63.7749 349.516ZM62.1223 337.61C61.8439 335.62 61.5639 333.627 61.2824 331.631L63.2628 331.352C63.5444 333.348 63.8245 335.342 64.103 337.333L62.1223 337.61ZM60.4334 325.634C60.1489 323.632 59.8629 321.627 59.5754 319.619L61.5552 319.336C61.8428 321.344 62.1289 323.35 62.4135 325.352L60.4334 325.634ZM58.7104 313.602C58.4269 311.637 58.1419 309.669 57.8555 307.699L59.8347 307.411C60.1212 309.382 60.4063 311.351 60.6899 313.316L58.7104 313.602ZM56.9921 301.779C56.7029 299.803 56.4122 297.825 56.1201 295.844L58.0987 295.552C58.3909 297.534 58.6817 299.513 58.971 301.489L56.9921 301.779ZM55.2396 289.892C54.9447 287.906 54.6484 285.916 54.3506 283.925L56.3286 283.629C56.6265 285.621 56.9229 287.611 57.2179 289.598L55.2396 289.892ZM53.4531 277.941C53.1526 275.944 52.8506 273.945 52.5472 271.942L54.5246 271.643C54.8281 273.646 55.1302 275.646 55.4309 277.644L53.4531 277.941ZM51.6328 265.928C51.3319 263.955 51.0296 261.98 50.7259 260.002L52.7028 259.699C53.0065 261.677 53.3089 263.653 53.6099 265.626L51.6328 265.928ZM49.8157 254.092C49.5109 252.12 49.2048 250.145 48.8974 248.167L50.8737 247.86C51.1812 249.838 51.4874 251.814 51.7922 253.787L49.8157 254.092ZM47.9711 242.228C47.6611 240.246 47.3496 238.262 47.0369 236.275L49.0126 235.964C49.3254 237.952 49.6369 239.937 49.9471 241.919L47.9711 242.228ZM46.0947 230.308C45.7793 228.316 45.4625 226.322 45.1445 224.326L47.1196 224.011C47.4377 226.008 47.7545 228.002 48.07 229.995L46.0947 230.308ZM44.1863 218.33C43.8673 216.34 43.547 214.347 43.2254 212.352L45.1999 212.034C45.5216 214.029 45.842 216.023 46.1611 218.013L44.1863 218.33ZM42.2717 206.453C41.9525 204.485 41.6321 202.514 41.3104 200.541L43.2843 200.219C43.6061 202.193 43.9266 204.164 44.2459 206.133L42.2717 206.453ZM40.3416 194.616C40.0174 192.639 39.6919 190.659 39.3652 188.678L41.3386 188.353C41.6654 190.335 41.9909 192.315 42.3152 194.292L40.3416 194.616ZM38.3813 182.727C38.0521 180.741 37.7216 178.753 37.3899 176.763L39.3627 176.435C39.6945 178.425 40.0251 180.414 40.3544 182.4L38.3813 182.727ZM36.3911 170.787C36.0569 168.793 35.7214 166.797 35.3848 164.798L37.357 164.466C37.6937 166.465 38.0293 168.462 38.3636 170.457L36.3911 170.787ZM34.3818 158.861C34.0492 156.897 33.7153 154.93 33.3802 152.962L35.3519 152.627C35.687 154.595 36.021 156.562 36.3537 158.527L34.3818 158.861ZM32.3715 147.052C32.034 145.079 31.6954 143.105 31.3556 141.129L33.3267 140.79C33.6666 142.767 34.0053 144.742 34.3428 146.714L32.3715 147.052ZM30.3327 135.195C29.9905 133.216 29.6471 131.234 29.3026 129.25L31.2731 128.908C31.6177 130.892 31.9612 132.874 32.3034 134.855L30.3327 135.195ZM28.2654 123.293C27.9186 121.306 27.5705 119.317 27.2213 117.325L29.1912 116.98C29.5405 118.972 29.8887 120.961 30.2357 122.949L28.2654 123.293ZM26.17 111.346C25.8227 109.375 25.4743 107.403 25.1247 105.429L27.0941 105.08C27.4437 107.055 27.7923 109.028 28.1397 110.999L26.17 111.346ZM24.0783 99.5327C23.7283 97.5656 23.3772 95.5968 23.025 93.6262L24.9938 93.2743C25.3461 95.2454 25.6973 97.2148 26.0473 99.1824L24.0783 99.5327ZM21.9651 87.7092C21.6107 85.7352 21.2551 83.7594 20.8984 81.7819L22.8667 81.4269C23.2234 83.4049 23.5791 85.3812 23.9336 87.3558L21.9651 87.7092ZM19.8251 75.8444C19.4662 73.8634 19.1061 71.8808 18.745 69.8965L20.7127 69.5384C21.0739 71.5232 21.434 73.5063 21.793 75.4878L19.8251 75.8444ZM17.6582 63.9386C17.2949 61.951 16.9304 59.9617 16.5648 57.9708L18.5319 57.6096C18.8976 59.601 19.2622 61.5908 19.6256 63.579L17.6582 63.9386ZM15.4767 52.0576C15.1148 50.0955 14.7519 48.1318 14.3879 46.1665L16.3545 45.8023C16.7185 47.7681 17.0816 49.7322 17.4435 51.6948L15.4767 52.0576ZM13.2927 40.2659C12.9266 38.2976 12.5594 36.3276 12.1911 34.3561L14.1571 33.9889C14.5255 35.9609 14.8928 37.9313 15.259 39.9002L13.2927 40.2659ZM11.0832 28.437C10.7128 26.4624 10.3413 24.4864 9.96884 22.5087L11.9343 22.1385C12.3069 24.1166 12.6784 26.0932 13.0489 28.0682L11.0832 28.437ZM8.84815 16.5713C8.47353 14.5907 8.09786 12.6086 7.72114 10.625L9.68602 10.2519C10.0628 12.2359 10.4386 14.2185 10.8133 16.1997L8.84815 16.5713ZM6.58778 4.66973C6.39842 3.67673 6.20879 2.68339 6.0189 1.68963L7.98336 1.31425C8.17329 2.30825 8.36297 3.30184 8.55238 4.29507L6.58778 4.66973Z" fill="#E61A6B"/>
</svg>
