<svg width="77" height="46" viewBox="0 0 77 46" fill="none" xmlns="http://www.w3.org/2000/svg">
<path d="M70.0487 1.80831C69.8784 1.28293 70.1663 0.718988 70.6917 0.548714C71.2171 0.378439 71.781 0.66631 71.9513 1.19169L70.0487 1.80831ZM2.58423 45.9945C2.03389 46.0408 1.55023 45.6322 1.50394 45.0818L0.749615 36.1135C0.703326 35.5632 1.11194 35.0795 1.66228 35.0332C2.21262 34.9869 2.69629 35.3955 2.74258 35.9459L3.41309 43.9177L11.3849 43.2472C11.9353 43.2009 12.4189 43.6096 12.4652 44.1599C12.5115 44.7102 12.1029 45.1939 11.5526 45.2402L2.58423 45.9945ZM71.9513 1.19169C74.5783 9.29724 75.8799 15.6694 76.0627 20.6616C76.2456 25.6556 75.3111 29.3569 73.3691 32.0187C71.4191 34.6917 68.5588 36.1726 65.1941 36.9365C61.8457 37.6966 57.922 37.7648 53.7282 37.5603C49.538 37.356 44.968 36.8715 40.3709 36.4943C35.7494 36.1152 31.0598 35.8401 26.5224 36.0365C17.4424 36.4294 9.12852 38.7021 3.2643 45.6434L1.73654 44.3527C8.12239 36.7939 17.109 34.4419 26.4359 34.0383C31.1019 33.8364 35.8923 34.1202 40.5344 34.501C45.2009 34.8839 49.678 35.3605 53.8256 35.5627C57.9695 35.7647 61.674 35.6847 64.7514 34.9861C67.8125 34.2912 70.1755 33.0028 71.7534 30.84C73.3393 28.6661 74.2372 25.4652 74.064 20.7347C73.8907 16.0024 72.6478 9.82775 70.0487 1.80831L71.9513 1.19169Z" fill="#5F5D56"/>
</svg>
