<svg width="1512" height="1568" viewBox="0 0 1512 1568" fill="none" xmlns="http://www.w3.org/2000/svg">
<path fill-rule="evenodd" clip-rule="evenodd" d="M-127.092 448.632C50.7711 333.712 275.169 456.644 481.372 504.722C676.139 550.133 891.783 561.071 1018.53 715.744C1154.48 881.645 1200.94 1112.25 1149.96 1320.62C1100.77 1521.66 942.385 1675.36 759.855 1772.96C594.834 1861.21 405.312 1852.8 221.651 1817.02C37.3021 1781.12 -155.183 1727.79 -262.672 1573.8C-371.665 1417.66 -351.713 1217.34 -328.931 1028.27C-303.488 817.121 -305.748 564.064 -127.092 448.632Z" fill="#F1EDDF"/>
<path fill-rule="evenodd" clip-rule="evenodd" d="M-329.733 1479.29C-283.844 1769.89 -52.7479 1983.28 188.321 2151.97C404.584 2303.29 658.711 2367.81 922.387 2355.44C1198.68 2342.48 1482.35 2283.27 1672.43 2082.35C1871.74 1871.67 1946.96 1576.76 1933.1 1287.09C1918.65 985.408 1843.35 656.542 1595.88 483.352C1359.12 317.658 1049.93 442.302 762.035 467.54C475.514 492.658 158.595 432.354 -52.3556 627.844C-279.973 838.778 -378.133 1172.79 -329.733 1479.29Z" fill="#F4F1E7"/>
</svg>
