<svg width="160" height="47" viewBox="0 0 160 47" fill="none" xmlns="http://www.w3.org/2000/svg">
<path d="M1.64942 22.8016C1.22944 22.4429 0.598233 22.4926 0.239569 22.9126C-0.119095 23.3326 -0.0693933 23.9638 0.350581 24.3224L1.64942 22.8016ZM159.207 8.26911C159.598 7.87858 159.598 7.24542 159.207 6.85489L152.843 0.49096C152.453 0.100435 151.819 0.100439 151.429 0.490964C151.038 0.881489 151.038 1.51465 151.429 1.90518L157.086 7.56201L151.429 13.2189C151.038 13.6094 151.038 14.2426 151.429 14.6331C151.82 15.0236 152.453 15.0236 152.843 14.6331L159.207 8.26911ZM0.350581 24.3224C17.5764 39.0336 32.2197 45.4696 45.5259 46.7372C58.8303 48.0047 70.6495 44.0897 82.1812 38.3963C87.9433 35.5514 93.6591 32.2492 99.4539 28.9163C105.259 25.5777 111.148 22.205 117.302 19.1865C129.601 13.1542 142.908 8.56206 158.5 8.562L158.5 6.56201C142.493 6.56207 128.876 11.2825 116.422 17.3908C110.2 20.4426 104.256 23.8473 98.4567 27.1826C92.648 30.5235 86.9901 33.7916 81.2958 36.6029C69.9147 42.222 58.4897 45.9632 45.7155 44.7462C32.9432 43.5295 18.6736 37.3405 1.64942 22.8016L0.350581 24.3224Z" fill="#5F5D56"/>
</svg>
