<svg xmlns="http://www.w3.org/2000/svg" width="96" height="96" viewBox="0 0 96 96" fill="none">
<g opacity="0.2">
<path d="M53.1562 6.13173C54.0574 5.49302 54.2701 4.24469 53.6314 3.34351C52.9927 2.44233 51.7444 2.22956 50.8432 2.86827L53.1562 6.13173ZM46.0885 90.7798C47.0715 91.2837 48.2768 90.8953 48.7806 89.9123L56.9916 73.8942C57.4955 72.9113 57.1071 71.706 56.1242 71.2021C55.1412 70.6982 53.9359 71.0866 53.432 72.0696L46.1334 86.3079L31.8951 79.0092C30.9121 78.5054 29.7068 78.8937 29.203 79.8767C28.6991 80.8596 29.0875 82.0649 30.0704 82.5688L46.0885 90.7798ZM50.8432 2.86827C44.3584 7.46442 39.6632 11.3204 36.4183 14.584C33.2089 17.8118 31.2534 20.621 30.5193 23.1445C30.1419 24.4419 30.0768 25.7012 30.3677 26.894C30.6589 28.0881 31.276 29.0889 32.0696 29.9149C33.6005 31.5084 35.8656 32.5308 38.1314 33.2751C40.4408 34.0338 43.0477 34.5932 45.4629 35.1C47.9356 35.6187 50.178 36.0771 51.9665 36.6416C52.8538 36.9217 53.5501 37.2044 54.0617 37.4911C54.5871 37.7855 54.7831 38.0097 54.843 38.1063C54.8585 38.1315 54.8849 38.1445 54.8484 38.2952C54.7929 38.5239 54.5911 38.9832 53.9779 39.7021L57.0213 42.2979C57.8475 41.3293 58.4754 40.312 58.7358 39.2375C59.0151 38.085 58.8435 36.9681 58.2429 35.9991C57.6867 35.1016 56.8483 34.4674 56.017 34.0016C55.1718 33.528 54.189 33.1486 53.1705 32.8271C51.1472 32.1885 48.6711 31.6859 46.2842 31.1852C43.8399 30.6724 41.4462 30.1537 39.3798 29.4749C37.2697 28.7817 35.7837 28.0072 34.9541 27.1437C34.5674 26.7412 34.3518 26.3484 34.2538 25.9463C34.1554 25.5429 34.1444 25.0034 34.3601 24.2618C34.8123 22.7071 36.1994 20.4772 39.2548 17.4043C42.2746 14.3671 46.7663 10.6606 53.1562 6.13173L50.8432 2.86827ZM53.9779 39.7021C51.3005 42.8412 48.6375 44.5841 46.1791 46.1941C43.7859 47.7614 41.2586 49.3778 39.7297 52.247C38.1862 55.1434 37.807 58.9793 38.6119 64.6931C39.4193 70.424 41.4642 78.3385 45.0972 89.6134L48.9045 88.3866C45.2875 77.1615 43.3305 69.5135 42.5728 64.1351C41.8127 58.7394 42.3054 55.9191 43.2598 54.128C44.2288 52.3097 45.8252 51.2073 48.3706 49.5403C50.8509 47.9159 53.9414 45.9088 57.0213 42.2979L53.9779 39.7021Z" fill="white"/>
</g>
</svg>