<svg xmlns="http://www.w3.org/2000/svg" width="96" height="96" viewBox="0 0 96 96" fill="none">
<g opacity="0.2">
<path d="M53.1562 6.13148C54.0574 5.49277 54.2701 4.24444 53.6314 3.34327C52.9927 2.44209 51.7444 2.22932 50.8432 2.86803L53.1562 6.13148ZM46.0885 90.7795C47.0715 91.2834 48.2768 90.895 48.7806 89.9121L56.9916 73.894C57.4955 72.911 57.1071 71.7057 56.1242 71.2019C55.1412 70.698 53.9359 71.0864 53.432 72.0693L46.1334 86.3076L31.8951 79.009C30.9121 78.5051 29.7068 78.8935 29.203 79.8764C28.6991 80.8594 29.0875 82.0647 30.0704 82.5686L46.0885 90.7795ZM50.8432 2.86803C44.3584 7.46418 39.6632 11.3201 36.4183 14.5837C33.2089 17.8116 31.2534 20.6208 30.5193 23.1442C30.1419 24.4417 30.0768 25.7009 30.3677 26.8938C30.6589 28.0879 31.276 29.0886 32.0696 29.9147C33.6005 31.5082 35.8656 32.5305 38.1314 33.2749C40.4408 34.0335 43.0477 34.593 45.4629 35.0997C47.9356 35.6185 50.178 36.0769 51.9665 36.6414C52.8538 36.9215 53.5501 37.2042 54.0617 37.4908C54.5871 37.7853 54.7831 38.0095 54.843 38.1061C54.8585 38.1312 54.8849 38.1442 54.8484 38.295C54.7929 38.5237 54.5911 38.983 53.9779 39.7019L57.0213 42.2976C57.8475 41.329 58.4754 40.3118 58.7358 39.2372C59.0151 38.0848 58.8435 36.9679 58.2429 35.9989C57.6867 35.1014 56.8483 34.4672 56.017 34.0013C55.1718 33.5277 54.189 33.1484 53.1705 32.8269C51.1472 32.1883 48.6711 31.6857 46.2842 31.1849C43.8399 30.6721 41.4462 30.1535 39.3798 29.4747C37.2697 28.7815 35.7837 28.007 34.9541 27.1434C34.5674 26.741 34.3518 26.3482 34.2538 25.946C34.1554 25.5427 34.1444 25.0031 34.3601 24.2615C34.8123 22.7068 36.1994 20.477 39.2548 17.404C42.2746 14.3669 46.7663 10.6603 53.1562 6.13148L50.8432 2.86803ZM53.9779 39.7019C51.3005 42.8409 48.6375 44.5838 46.1791 46.1938C43.7859 47.7612 41.2586 49.3776 39.7297 52.2467C38.1862 55.1432 37.807 58.9791 38.6119 64.6928C39.4193 70.4237 41.4642 78.3382 45.0972 89.6131L48.9045 88.3864C45.2875 77.1613 43.3305 69.5133 42.5728 64.1348C41.8127 58.7392 42.3054 55.9188 43.2598 54.1278C44.2288 52.3094 45.8252 51.2071 48.3706 49.5401C50.8509 47.9157 53.9414 45.9086 57.0213 42.2976L53.9779 39.7019Z" fill="white"/>
</g>
</svg>