<svg xmlns="http://www.w3.org/2000/svg" width="96" height="96" viewBox="0 0 96 96" fill="none">
<g opacity="0.2">
<path d="M53.7123 5.53273C54.2828 4.58689 53.9785 3.35766 53.0327 2.78716C52.0868 2.21667 50.8576 2.52095 50.2871 3.46679L53.7123 5.53273ZM45.7404 90.5526C46.598 91.2487 47.8575 91.1178 48.5536 90.2602L59.8978 76.2849C60.594 75.4273 60.4631 74.1678 59.6055 73.4716C58.7479 72.7755 57.4883 72.9064 56.7922 73.764L46.7085 86.1865L34.286 76.1028C33.4284 75.4066 32.1688 75.5375 31.4727 76.3951C30.7766 77.2527 30.9075 78.5123 31.765 79.2084L45.7404 90.5526ZM50.2871 3.46679C40.5957 19.5344 38.231 31.4263 38.8776 44.2258C39.1969 50.5455 40.2488 57.063 41.4491 64.311C42.6536 71.5843 44.0186 79.651 45.0115 89.2065L48.9901 88.793C47.9827 79.0986 46.5973 70.9155 45.3954 63.6575C44.1892 56.3743 43.1784 50.0794 42.8725 44.024C42.2688 32.0736 44.4039 20.9653 53.7123 5.53273L50.2871 3.46679Z" fill="white"/>
</g>
</svg>