<svg xmlns="http://www.w3.org/2000/svg" width="96" height="96" viewBox="0 0 96 96" fill="none">
<g opacity="0.2">
<path d="M53.9103 3.90837C53.5837 2.85319 52.4635 2.26258 51.4083 2.58919C50.3531 2.91581 49.7625 4.03597 50.0891 5.09114L53.9103 3.90837ZM50.3019 84.0572C50.8858 84.9948 52.1192 85.2816 53.0569 84.6978L68.3368 75.1834C69.2745 74.5996 69.5613 73.3662 68.9774 72.4285C68.3936 71.4909 67.1602 71.204 66.2225 71.7879L52.6403 80.2451L44.1831 66.6629C43.5993 65.7252 42.3659 65.4384 41.4282 66.0223C40.4906 66.6061 40.2037 67.8395 40.7876 68.7772L50.3019 84.0572ZM50.0891 5.09114C51.6204 10.038 51.399 13.3717 50.4536 15.8285C49.4929 18.3251 47.6768 20.2122 45.4131 22.0835C43.2846 23.8431 40.4465 25.7963 38.371 28.0289C36.1555 30.4122 34.4999 33.3773 34.4999 37.5H38.4999C38.4999 34.6227 39.5944 32.5878 41.3007 30.7524C43.1471 28.7661 45.4027 27.2819 47.9617 25.1664C50.3855 23.1628 52.8506 20.7372 54.1868 17.265C55.5382 13.753 55.6292 9.46161 53.9103 3.90837L50.0891 5.09114ZM34.4999 37.5C34.4999 39.575 34.9786 41.2956 35.8693 42.7536C36.7448 44.1867 37.9427 45.2413 39.1817 46.1078C40.3899 46.9527 41.7887 47.716 43.0362 48.4405C44.3318 49.1929 45.5737 49.9617 46.7228 50.9146C48.9461 52.7584 50.9381 55.385 51.8313 60.0917C52.7425 64.8934 52.5208 71.9287 50.0517 82.547L53.9477 83.453C56.4781 72.5714 56.8188 64.9193 55.7612 59.346C54.6855 53.6777 52.1777 50.2418 49.2762 47.8356C47.8628 46.6635 46.3861 45.7603 45.0451 44.9815C43.6559 44.1748 42.5001 43.5474 41.4741 42.8298C40.4787 42.1337 39.7627 41.4539 39.2828 40.6683C38.818 39.9076 38.4999 38.925 38.4999 37.5H34.4999Z" fill="white"/>
</g>
</svg>