<svg xmlns="http://www.w3.org/2000/svg" width="96" height="96" viewBox="0 0 96 96" fill="none">
<g opacity="0.2">
<path d="M82.0699 6.91683C83.1287 6.60206 83.7318 5.48859 83.4171 4.42982C83.1023 3.37105 81.9888 2.76791 80.9301 3.08268L82.0699 6.91683ZM14.7934 90.0427C15.3694 90.9852 16.6004 91.2823 17.5429 90.7063L32.902 81.3202C33.8445 80.7442 34.1416 79.5133 33.5656 78.5708C32.9897 77.6283 31.7587 77.3311 30.8162 77.9071L17.1637 86.2503L8.82046 72.5978C8.24449 71.6553 7.01351 71.3581 6.071 71.9341C5.12849 72.5101 4.83136 73.7411 5.40734 74.6836L14.7934 90.0427ZM80.9301 3.08268C62.3999 8.59165 51.8815 13.8581 46.589 19.0845C43.8903 21.7494 42.4555 24.4966 42.1203 27.326C41.7878 30.1325 42.5698 32.7496 43.7925 35.1078C45.0077 37.4517 46.7239 39.6639 48.4242 41.6976C50.1834 43.8017 51.8515 45.6345 53.2691 47.4882C54.6818 49.3354 55.5873 50.8893 55.8953 52.2373C56.1668 53.4255 55.9956 54.5092 54.9783 55.7019L58.0217 58.2976C59.8831 56.1153 60.3396 53.7303 59.7948 51.3462C59.2865 49.1219 57.9315 47.0001 56.4464 45.0582C54.9663 43.1228 53.0993 41.0532 51.493 39.1319C49.8278 37.1403 48.348 35.204 47.3436 33.2667C46.3465 31.3436 45.8852 29.5467 46.0925 27.7966C46.2971 26.0694 47.1853 24.1173 49.3996 21.9306C53.9329 17.4539 63.6001 12.4079 82.0699 6.91683L80.9301 3.08268ZM54.9783 55.7019C52.5543 58.5439 49.8526 59.3718 46.734 59.5824C45.1129 59.6919 43.4462 59.6303 41.5977 59.5882C39.793 59.5471 37.847 59.5267 35.8798 59.7642C31.8322 60.2528 27.7459 61.8298 24.0282 66.2612C20.397 70.5896 17.211 77.5305 14.5558 88.5305L18.4442 89.469C21.039 78.719 24.0387 72.4724 27.0927 68.8321C30.0602 65.2947 33.1586 64.1217 36.3592 63.7353C38.016 63.5353 39.71 63.5462 41.5066 63.5871C43.2593 63.6271 45.1552 63.6982 47.0036 63.5733C50.8238 63.3153 54.6884 62.2057 58.0217 58.2976L54.9783 55.7019Z" fill="white"/>
</g>
</svg>