<svg xmlns="http://www.w3.org/2000/svg" width="96" height="96" viewBox="0 0 96 96" fill="none">
<g opacity="0.2">
<path d="M82.5561 6.69832C83.4942 6.11518 83.782 4.88198 83.1988 3.94388C82.6157 3.00579 81.3825 2.71805 80.4444 3.30119L82.5561 6.69832ZM10.5488 82.439C10.7913 83.5167 11.8614 84.1937 12.939 83.9512L30.5 80C31.5776 79.7575 32.2547 78.6873 32.0122 77.6097C31.7697 76.5321 30.6996 75.855 29.6219 76.0975L14.0122 79.6097L10.5 64C10.2575 62.9224 9.18733 62.2453 8.1097 62.4878C7.03208 62.7303 6.35505 63.8004 6.59752 64.8781L10.5488 82.439ZM80.4444 3.30119C42.9907 26.5833 26.2655 56.5007 10.8098 80.9307L14.1902 83.0693C29.7341 58.4997 46.0093 29.4167 82.5561 6.69832L80.4444 3.30119Z" fill="white"/>
</g>
</svg>