<svg xmlns="http://www.w3.org/2000/svg" width="96" height="96" viewBox="0 0 96 96" fill="none">
<g opacity="0.2">
<path d="M12.7841 5.86749C11.7527 5.47213 11.2371 4.31552 11.6325 3.28413C12.0279 2.25274 13.1845 1.73714 14.2159 2.13251L12.7841 5.86749ZM84.9926 77.1722C84.8975 78.2727 83.9283 79.0877 82.8278 78.9926L64.8946 77.4428C63.7942 77.3477 62.9792 76.3785 63.0743 75.278C63.1694 74.1776 64.1386 73.3625 65.239 73.4576L81.1796 74.8352L82.5572 58.8946C82.6523 57.7942 83.6215 56.9792 84.722 57.0743C85.8224 57.1694 86.6375 58.1386 86.5424 59.239L84.9926 77.1722ZM14.2159 2.13251C21.9104 5.08208 27.0934 8.47375 30.6695 12.211C34.2616 15.965 36.1247 19.9557 37.3433 23.9111C37.9473 25.8716 38.3954 27.8323 38.8111 29.7228C39.2318 31.6358 39.6155 33.4575 40.1038 35.2578C41.0701 38.8212 42.4062 42.1357 45.0217 45.2021L41.9783 47.7979C38.8365 44.1143 37.2938 40.1788 36.2432 36.3047C35.7229 34.3862 35.3136 32.4423 34.9045 30.5819C34.4904 28.699 34.072 26.8784 33.5206 25.0889C32.4286 21.5443 30.8257 18.16 27.7795 14.9765C24.7173 11.7763 20.0896 8.66792 12.7841 5.86749L14.2159 2.13251ZM45.0217 45.2021C50.4754 51.5961 55.3298 53.5484 61.554 56.7885C67.8642 60.0733 75.0821 64.4766 84.5307 75.7128L81.4693 78.2872C72.4179 67.5234 65.6432 63.4267 59.707 60.3365C53.6849 57.2016 48.0393 54.9039 41.9783 47.7979L45.0217 45.2021Z" fill="white"/>
</g>
</svg>