<svg xmlns="http://www.w3.org/2000/svg" width="96" height="96" viewBox="0 0 96 96" fill="none">
<g opacity="0.2">
<path d="M5.50542 5.14701C5.4241 4.04543 6.25117 3.08651 7.35275 3.00518C8.45432 2.92386 9.41325 3.75093 9.49458 4.85251L5.50542 5.14701ZM83.4249 87.5427C83.1251 88.6058 82.0202 89.2245 80.9571 88.9247L63.633 84.0384C62.5699 83.7385 61.9512 82.6336 62.251 81.5705C62.5509 80.5075 63.6557 79.8887 64.7188 80.1886L80.118 84.5319L84.4614 69.1327C84.7612 68.0696 85.8661 67.4509 86.9292 67.7508C87.9923 68.0506 88.611 69.1555 88.3112 70.2186L83.4249 87.5427ZM9.49458 4.85251C10.2234 14.7251 12.9562 19.3885 16.216 21.5528C19.553 23.7685 24.0698 23.8127 29.4651 22.89C32.1239 22.4352 34.8545 21.7744 37.632 21.1198C40.3766 20.473 43.1699 19.8314 45.8208 19.4665C51.022 18.7506 56.428 18.9886 60.0217 23.2019L56.9783 25.7976C54.8146 23.2609 51.3404 22.7445 46.3663 23.4292C43.9296 23.7646 41.3116 24.3622 38.5496 25.0132C35.8204 25.6564 32.9492 26.3522 30.1394 26.8327C24.5974 27.7805 18.7099 28.01 14.0035 24.8852C9.21995 21.7092 6.27023 15.5065 5.50542 5.14701L9.49458 4.85251ZM60.0217 23.2019C66.2049 30.4512 66.7604 37.3356 68.4106 46.3912C70.065 55.4696 72.8733 67.5016 83.245 86.0226L79.755 87.977C69.1267 68.9979 66.1924 56.5299 64.4754 47.1083C62.7543 37.6639 62.3098 32.0483 56.9783 25.7976L60.0217 23.2019Z" fill="white"/>
</g>
</svg>