<?xml version="1.0" encoding="UTF-8"?>
<svg width="1866px" height="682px" viewBox="0 0 1866 682" version="1.1" xmlns="http://www.w3.org/2000/svg" xmlns:xlink="http://www.w3.org/1999/xlink">
    <g id="Group-2" transform="translate(1254.500000, 586.000000) rotate(-9.000000) translate(-1254.500000, -586.000000) translate(-21.000000, -149.000000)">
        <polygon id="Rectangle" fill="#03DAC6" transform="translate(1241.989268, 497.079443) rotate(-15.000000) translate(-1241.989268, -497.079443) " points="5.27746361 313.872692 2459.74416 517.887164 2478.70107 680.286195 24.2343769 476.271722"></polygon>
        <polygon id="Rectangle-Copy" fill="#FF0166" transform="translate(1241.989268, 658.079443) rotate(-15.000000) translate(-1241.989268, -658.079443) " points="5.27746361 474.872692 2459.74416 678.887164 2478.70107 841.286195 24.2343769 637.271722"></polygon>
        <polygon id="Rectangle-Copy-2" fill="#FFC4BC" transform="translate(1241.989268, 821.079443) rotate(-15.000000) translate(-1241.989268, -821.079443) " points="5.27746361 637.872692 2459.74416 841.887164 2478.70107 1004.28619 24.2343769 800.271722"></polygon>
        <polygon id="Rectangle-Copy-3" fill="#EDE8D7" transform="translate(1308.679164, 972.079443) rotate(-15.000000) translate(-1308.679164, -972.079443) " points="71.9673591 788.872692 2526.43405 992.887164 2545.39097 1155.28619 90.9242724 951.271722"></polygon>
    </g>
</svg>