<svg width="44" height="46" viewBox="0 0 44 46" fill="none" xmlns="http://www.w3.org/2000/svg">
    <path d="M34.2194 20.2752C34.2424 20.3805 34.2651 20.4858 34.2884 20.5911C34.73 22.5976 35.1739 24.6039 35.6105 26.6111C35.6539 26.8108 35.7275 26.8808 35.9114 26.8337C36.0893 26.7881 36.2719 26.7487 36.4567 26.7379C36.6923 26.7242 36.7555 26.6268 36.722 26.3649C36.5316 24.8753 36.3248 23.385 36.192 21.8946C36.0365 20.1496 35.9512 18.4044 35.8351 16.6593C35.8286 16.5614 35.8179 16.4634 35.8055 16.3246C35.6856 16.3523 35.5893 16.3667 35.4989 16.3966C32.7157 17.3209 29.8613 18.0109 26.9735 18.5919C26.5294 18.6813 26.5554 18.6189 26.6372 19.1232C26.7595 19.8761 26.7573 19.8705 27.4571 19.7984C29.2278 19.6158 30.9992 19.439 32.7706 19.2605C32.8175 19.2558 32.8664 19.261 32.9441 19.262C32.9139 19.333 32.9004 19.3815 32.8753 19.4212C31.8109 21.1044 30.6797 22.7264 29.2828 24.1119C26.3601 27.0109 22.8835 28.7727 18.7359 29.1335C15.3799 29.4254 12.1028 28.7322 8.90502 27.2081C7.16853 26.3804 5.55135 25.3171 4.01934 24.0852C3.70353 23.8312 3.70083 23.8347 3.49256 24.1513C3.3754 24.3292 3.26521 24.5131 3.14126 24.6853C3.01228 24.8646 3.05382 24.9845 3.2371 25.1309C4.55649 26.184 5.92506 27.1434 7.3844 27.9388C10.1403 29.4412 13.009 30.3635 16.0061 30.5898C20.8376 30.9549 25.0795 29.604 28.7589 26.6524C30.231 25.4716 31.5208 24.0918 32.6275 22.5219C33.0926 21.8622 33.5347 21.1833 33.987 20.513C34.0435 20.4292 34.0976 20.3436 34.1527 20.2589C34.175 20.2644 34.1973 20.2699 34.2194 20.2752L34.2194 20.2752Z" fill="white"/>
</svg>
