<svg width="234" height="482" viewBox="0 0 234 482" fill="none" xmlns="http://www.w3.org/2000/svg">
<line x1="6.5" y1="439" x2="6.50002" y2="12" stroke="#333333"/>
<path d="M51.1488 19.24C46.4208 19.24 44.2128 16.672 44.2128 14.968C44.2128 14.296 44.6208 13.744 45.3888 13.768C47.5728 13.84 46.7808 18.088 51.2688 18.088C53.2128 18.088 54.5568 16.936 54.5568 15.208C54.5568 9.688 44.5728 13.744 44.5728 6.544C44.5728 3.856 46.8048 1.744 50.7648 1.744C54.8688 1.744 57.2208 3.952 57.1968 5.776C57.1968 6.52 56.7888 7 55.9488 7C53.6928 7 54.7248 2.896 50.6928 2.896C48.5808 2.896 47.5008 4.216 47.5008 5.752C47.5008 10.936 57.4848 7.336 57.4848 14.416C57.4848 17.464 54.5328 19.24 51.1488 19.24ZM71.2189 8.176L69.8989 9.424C70.7869 10.48 71.2909 11.848 71.2909 13.312C71.2909 16.6 68.9869 19.24 65.5069 19.24C63.7309 19.24 62.2669 18.688 61.1869 17.8L59.8189 19.12C59.6749 19.264 59.5309 19.264 59.3869 19.12L58.9789 18.736C58.8349 18.592 58.8589 18.4 59.0509 18.232L60.3709 16.984C59.4829 15.904 59.0029 14.536 59.0029 13.12C59.0029 9.712 61.6669 7.24 64.9549 7.24C66.5869 7.24 68.0029 7.744 69.0589 8.608L70.3549 7.36C70.5229 7.192 70.7629 7.168 70.9309 7.312L71.2669 7.648C71.4109 7.792 71.3869 8.008 71.2189 8.176ZM61.8349 12.184C61.8349 13.168 62.0029 14.176 62.3389 15.064L67.4749 10.12C66.8029 8.92 65.7949 8.152 64.6429 8.152C62.9389 8.152 61.8349 9.544 61.8349 12.184ZM68.4589 14.296C68.4589 13.216 68.2909 12.184 67.9789 11.272L62.8429 16.216C63.5629 17.464 64.5949 18.328 65.8669 18.328C67.3549 18.328 68.4589 16.888 68.4589 14.296ZM84.3008 17.416C84.7088 17.968 85.5248 18.088 85.5248 18.592V18.664C85.5248 18.88 85.3568 19 85.0928 19H81.2288C80.9888 19 80.8208 18.856 80.8208 18.64V18.592C80.8208 18.064 81.7088 17.968 81.2768 17.416L78.2048 13.312L76.5728 14.824V17.008C76.5728 17.944 77.5568 18.016 77.5568 18.568V18.64C77.5568 18.856 77.3408 19 77.0288 19H73.3808C73.0688 19 72.8768 18.856 72.8768 18.64V18.568C72.8768 18.016 73.7648 17.944 73.7648 17.008V4.36C73.7648 3.352 72.7568 3.16 72.7568 2.728V2.656C72.7568 2.44 72.9008 2.344 73.1648 2.224L75.7088 1.024C76.2368 0.783998 76.5728 1.048 76.5728 1.408V13.24L80.8928 9.472C81.5648 8.896 80.3408 8.416 80.3408 7.912V7.84C80.3408 7.6 80.5088 7.48 80.7728 7.48H83.8448C84.0848 7.48 84.2528 7.6 84.2528 7.816V7.888C84.2528 8.416 83.1968 8.704 82.3808 9.448L80.0288 11.608L84.3008 17.416ZM97.9555 16.984C98.0035 17.944 98.8195 18.04 98.8195 18.568V18.664C98.8195 18.88 98.6035 19.024 98.2915 19.024H94.7875C94.4515 19.024 94.2595 18.88 94.2595 18.664V18.568C94.2595 18.04 95.1715 17.944 95.1235 16.984L94.8835 12.352C94.7635 9.616 93.8275 8.392 92.3635 8.392C90.8275 8.392 89.8435 9.64 89.8435 11.368V17.008C89.8435 17.944 90.8275 18.04 90.8275 18.568V18.664C90.8275 18.88 90.6355 19.024 90.2995 19.024H86.5795C86.2675 19.024 86.0755 18.88 86.0755 18.664V18.568C86.0755 18.04 87.0355 17.944 87.0355 17.008V10.576C87.0355 9.52 85.9555 9.496 85.9555 8.968V8.896C85.9555 8.704 86.1235 8.584 86.3875 8.464L88.7155 7.336C89.2195 7.072 89.4595 7.36 89.4595 7.768V9.328C90.1315 8.032 91.4515 7.24 93.1075 7.24C95.3635 7.24 97.4275 8.68 97.6675 12.448L97.9555 16.984ZM110.457 16.84C110.625 18.4 111.777 17.92 111.777 18.544C111.777 19 110.865 19.144 109.833 19.144C108.609 19.144 108.009 18.88 107.913 17.704C107.361 18.592 106.281 19.24 104.577 19.24C101.961 19.24 100.089 17.968 100.089 15.616C100.065 13.264 102.033 12.016 104.457 12.016C105.633 12.016 106.593 12.328 107.241 12.832L107.193 12.352C106.929 9.568 106.353 8.128 104.673 8.128C102.441 8.128 102.921 11.032 101.409 11.032C100.689 11.032 100.233 10.6 100.233 9.928C100.233 8.416 102.105 7.24 104.673 7.24C107.697 7.24 109.641 9.136 109.977 12.232L110.457 16.84ZM105.369 18.328C106.713 18.328 107.601 17.2 107.529 15.904L107.457 15.16C107.361 13.792 106.449 12.928 105.177 12.928C103.857 12.928 102.921 13.84 102.921 15.28C102.921 16.912 103.881 18.328 105.369 18.328ZM123.911 17.008C123.911 17.944 124.823 18.088 124.823 18.592V18.664C124.823 18.88 124.679 19 124.415 19H121.919C121.631 19 121.463 18.808 121.439 18.544L121.367 17.704C120.575 18.712 119.327 19.24 118.007 19.24C115.079 19.24 112.415 16.96 112.415 13.216C112.415 9.688 114.911 7.24 118.055 7.24C119.351 7.24 120.431 7.72 121.199 8.464V3.952C121.199 2.896 120.095 2.872 120.095 2.344V2.296C120.095 2.08 120.263 1.912 120.527 1.816L123.071 0.999999C123.647 0.808 123.911 0.951999 123.911 1.432V17.008ZM118.655 18.328C119.831 18.328 121.199 17.32 121.199 15.232V11.392C121.199 9.856 119.831 8.152 118.151 8.152C116.375 8.152 115.199 9.688 115.151 12.232C115.079 15.496 116.471 18.28 118.655 18.328ZM131.188 19.216C128.044 19.216 126.172 17.776 126.172 16.456C126.172 15.712 126.676 15.352 127.372 15.352C129.172 15.352 128.38 18.4 131.188 18.4C132.46 18.4 133.396 17.776 133.396 16.552C133.396 13.312 126.412 15.448 126.412 10.648C126.412 8.704 128.356 7.24 131.116 7.24C134.116 7.24 135.916 8.704 135.916 10.096C135.916 10.696 135.436 11.128 134.812 11.128C133.132 11.128 133.78 8.104 131.26 8.104C130.084 8.104 129.244 8.92 129.244 9.952C129.244 13.216 136.228 11.128 136.228 15.88C136.228 17.752 134.284 19.216 131.188 19.216ZM143.492 1.36C145.316 1.36 146.876 2.536 146.876 3.952C146.876 4.432 146.492 4.984 145.772 4.984C143.372 4.984 145.004 2.272 142.964 2.248C141.308 2.224 141.308 4.84 141.932 7.48H145.1C145.34 7.48 145.508 7.672 145.508 7.888V8.272C145.508 8.488 145.34 8.656 145.1 8.656H142.028V16.984C142.028 17.944 143.18 18.04 143.18 18.568V18.664C143.18 18.856 143.012 19 142.772 19H138.716C138.452 19 138.284 18.856 138.284 18.664V18.568C138.284 18.04 139.22 17.944 139.22 16.984V8.656H137.372C137.132 8.656 136.94 8.488 136.94 8.272V7.888C136.94 7.672 137.132 7.48 137.372 7.48H139.22V5.68C139.22 3.232 140.636 1.36 143.492 1.36ZM152.886 7.24C154.302 7.24 155.094 8.152 155.094 9.256C155.094 10.072 154.758 10.768 153.846 10.768C152.286 10.768 153.006 8.896 151.614 8.896C150.486 8.896 149.958 10.312 149.958 11.872V17.008C149.958 17.944 151.062 18.04 151.062 18.568V18.664C151.062 18.88 150.87 19 150.558 19H146.838C146.526 19 146.334 18.88 146.334 18.664V18.568C146.334 18.04 147.246 17.944 147.246 17.008V10.552C147.246 9.568 146.214 9.52 146.214 8.992V8.92C146.214 8.728 146.382 8.56 146.646 8.416L148.998 7.336C149.502 7.096 149.694 7.336 149.694 7.744V9.616C150.222 8.08 151.35 7.24 152.886 7.24ZM158.34 5.488C157.14 5.488 156.348 4.744 156.348 3.688C156.348 2.656 157.14 1.888 158.34 1.888C159.516 1.888 160.284 2.656 160.284 3.688C160.284 4.744 159.516 5.488 158.34 5.488ZM156.564 19C156.252 19 156.06 18.856 156.06 18.64V18.544C156.06 18.016 156.948 17.92 156.948 16.984V10.696C156.948 9.712 156.06 9.472 156.06 9.04V8.968C156.06 8.776 156.228 8.68 156.492 8.536L158.892 7.336C159.444 7.072 159.756 7.36 159.756 7.744V16.984C159.756 17.92 160.74 18.016 160.74 18.544V18.64C160.74 18.856 160.524 19 160.212 19H156.564ZM167.188 19.216C164.044 19.216 162.172 17.776 162.172 16.456C162.172 15.712 162.676 15.352 163.372 15.352C165.172 15.352 164.38 18.4 167.188 18.4C168.46 18.4 169.396 17.776 169.396 16.552C169.396 13.312 162.412 15.448 162.412 10.648C162.412 8.704 164.356 7.24 167.116 7.24C170.116 7.24 171.916 8.704 171.916 10.096C171.916 10.696 171.436 11.128 170.812 11.128C169.132 11.128 169.78 8.104 167.26 8.104C166.084 8.104 165.244 8.92 165.244 9.952C165.244 13.216 172.228 11.128 172.228 15.88C172.228 17.752 170.284 19.216 167.188 19.216ZM178.101 19.24C176.085 19.24 174.741 17.944 174.741 15.352V8.656H173.373C173.133 8.656 172.965 8.488 172.965 8.248V7.912C172.965 7.648 173.109 7.48 173.373 7.48H174.117C175.365 7.48 176.109 6.544 176.301 5.152C176.349 4.816 176.541 4.624 176.781 4.624H177.141C177.453 4.624 177.597 4.816 177.597 5.152L177.621 7.48H180.645C180.885 7.48 181.077 7.672 181.077 7.912V8.248C181.077 8.488 180.885 8.656 180.645 8.656H177.621V15.376C177.621 16.528 178.197 17.152 178.989 17.152C179.997 17.152 180.549 16.6 180.693 15.904C180.909 15.52 181.485 15.592 181.485 16.024C181.485 17.632 180.261 19.24 178.101 19.24Z" fill="#333333"/>
<path d="M45.7338 45L47.2188 35.595L44.5488 37.32L44.7438 36.075L47.5188 34.275H48.7338L47.0388 45H45.7338ZM50.9335 45.075C50.4085 45.075 49.9735 44.655 49.9735 44.115C49.9735 43.575 50.3935 43.155 50.9185 43.155C51.4435 43.155 51.8935 43.575 51.8935 44.115C51.8935 44.655 51.4585 45.075 50.9335 45.075ZM61.5816 45.12C59.4066 45.12 58.0866 43.635 58.0866 41.64C58.0866 39.015 59.9016 37.035 62.2566 37.035C64.4316 37.035 65.7666 38.46 65.7666 40.485C65.7666 43.155 64.0416 45.12 61.5816 45.12ZM61.6416 44.1C63.4116 44.1 64.4616 42.555 64.4616 40.515C64.4616 39.03 63.6816 38.055 62.1816 38.055C60.5016 38.055 59.3766 39.6 59.3766 41.64C59.3766 43.125 60.1116 44.1 61.6416 44.1ZM66.9796 45L68.8096 33.405H70.0546L68.9146 40.62L72.6496 37.155H74.1946L70.2346 40.755L73.1596 45H71.7346L68.8846 40.815L68.2246 45H66.9796ZM77.0707 45.105C75.5257 45.105 74.9707 44.13 75.1657 42.855L75.9007 38.205H74.7757L74.9407 37.155H76.0657L76.3507 35.37H77.5957L77.3107 37.155H79.0957L78.9307 38.205H77.1457L76.3957 42.9C76.2607 43.755 76.5607 44.055 77.2657 44.055C77.5657 44.055 77.9107 43.995 78.1957 43.89L78.0307 44.925C77.7607 45.045 77.4307 45.105 77.0707 45.105ZM83.1441 45.12C80.9691 45.12 79.6491 43.635 79.6491 41.64C79.6491 39.015 81.4641 37.035 83.8191 37.035C85.9941 37.035 87.3291 38.46 87.3291 40.485C87.3291 43.155 85.6041 45.12 83.1441 45.12ZM83.2041 44.1C84.9741 44.1 86.0241 42.555 86.0241 40.515C86.0241 39.03 85.2441 38.055 83.7441 38.055C82.0641 38.055 80.9391 39.6 80.9391 41.64C80.9391 43.125 81.6741 44.1 83.2041 44.1ZM92.7871 45.135C91.1971 45.135 90.3721 44.295 90.0271 43.53L89.7871 45H88.5421L90.3721 33.405H91.6171L90.8071 38.535C91.3321 37.665 92.3971 37.02 93.5521 37.02C95.3821 37.02 96.7021 38.37 96.7021 40.47C96.7021 42.99 95.2471 45.135 92.7871 45.135ZM92.7121 44.115C94.4221 44.115 95.3821 42.585 95.3821 40.545C95.3821 38.94 94.5871 38.04 93.3121 38.04C91.6171 38.04 90.2971 39.42 90.2971 41.67C90.2971 43.185 91.2271 44.115 92.7121 44.115ZM99.1614 41.835C99.1614 43.26 99.8214 44.1 101.321 44.1C102.416 44.1 103.181 43.635 103.481 42.735H104.726C104.246 44.355 102.866 45.135 101.276 45.135C99.1464 45.135 97.8864 43.74 97.8864 41.775C97.8864 39 99.6714 37.035 101.981 37.035C104.111 37.035 105.446 38.355 105.026 41.04L104.981 41.325H99.1764C99.1614 41.49 99.1614 41.655 99.1614 41.835ZM101.906 38.055C100.796 38.055 99.7164 38.715 99.3264 40.32H103.871C103.991 38.745 103.331 38.055 101.906 38.055ZM106.237 45L107.107 39.495C107.272 38.43 107.302 37.815 107.317 37.155H108.487C108.487 37.59 108.457 38.16 108.397 38.76C109.057 37.725 109.747 37.05 111.292 37.02L111.112 38.19C109.537 38.265 108.442 38.925 108.127 40.92L107.482 45H106.237ZM117.513 47.22C116.553 45.825 115.938 44.07 115.938 41.97C115.938 38.46 117.423 35.61 119.628 33.405H120.993C118.728 35.745 117.228 38.445 117.228 41.97C117.228 43.935 117.768 45.66 118.713 47.22H117.513ZM119.907 45L119.952 44.7L125.067 40.26C126.072 39.39 127.032 38.325 127.032 36.945C127.032 36.015 126.462 35.19 125.322 35.19C124.137 35.175 123.207 35.76 122.772 37.575H121.542C121.917 35.235 123.447 34.125 125.397 34.14C127.032 34.14 128.352 35.16 128.352 36.915C128.352 38.655 127.137 39.885 125.667 41.13L122.352 43.935H127.407L127.242 45H119.907ZM132.627 45.135C130.422 45.135 129.012 43.845 129.012 41.835H130.242C130.272 43.065 130.947 44.085 132.687 44.085C134.277 44.085 135.222 43.335 135.222 41.715C135.222 40.665 134.592 39.93 133.167 39.93H132.477L132.657 38.835H133.587C134.727 38.835 135.672 38.28 135.672 36.885C135.672 35.82 134.982 35.205 133.857 35.205C132.567 35.205 131.637 35.895 131.322 37.23H130.167C130.437 35.385 131.967 34.14 133.932 34.14C135.432 34.14 136.962 34.965 136.962 36.84C136.962 38.07 136.197 39.06 134.922 39.42C135.957 39.75 136.557 40.56 136.557 41.715C136.557 43.83 134.937 45.135 132.627 45.135ZM140.014 40.62C139.489 40.62 139.054 40.2 139.054 39.66C139.054 39.12 139.474 38.7 139.999 38.7C140.524 38.7 140.974 39.12 140.974 39.66C140.974 40.2 140.539 40.62 140.014 40.62ZM139.294 45.075C138.769 45.075 138.334 44.655 138.334 44.115C138.334 43.575 138.754 43.155 139.279 43.155C139.804 43.155 140.254 43.575 140.254 44.115C140.254 44.655 139.819 45.075 139.294 45.075ZM145.864 45.135C143.959 45.135 142.564 44.1 142.474 42.105H143.734C143.809 43.305 144.454 44.085 145.879 44.085C147.514 44.085 148.534 42.93 148.534 41.1C148.534 39.87 147.859 38.985 146.404 38.985C145.264 38.985 144.529 39.435 143.914 40.02H143.434L144.349 34.275H150.379L150.199 35.4H145.249L144.739 38.61C145.219 38.235 145.924 37.935 146.839 37.935C148.654 37.935 149.884 39.18 149.884 41.04C149.884 43.365 148.249 45.135 145.864 45.135ZM154.551 45.12C152.811 45.12 151.431 44.295 151.281 42.36H152.556C152.736 43.635 153.441 44.055 154.656 44.055C156.276 44.055 157.431 42.72 157.881 39.96C157.281 40.755 156.261 41.22 155.121 41.22C153.411 41.22 151.956 40.095 151.956 38.115C151.956 35.835 153.621 34.125 155.976 34.125C158.211 34.125 159.366 35.49 159.381 37.77C159.381 38.235 159.351 38.73 159.261 39.27L159.156 39.93C158.586 43.44 156.996 45.12 154.551 45.12ZM153.291 38.055C153.291 39.315 153.996 40.2 155.301 40.2C156.876 40.2 158.136 39.285 158.136 37.44C158.136 36.255 157.521 35.145 155.931 35.145C154.371 35.145 153.291 36.36 153.291 38.055ZM162.668 33.36C163.628 34.755 164.243 36.51 164.243 38.61C164.243 42.12 162.758 44.97 160.553 47.175H159.188C161.453 44.835 162.953 42.135 162.953 38.61C162.953 36.645 162.413 34.92 161.468 33.36H162.668Z" fill="#333333"/>
<path d="M59.2368 98.984L53.5488 89.84L57.4128 86C58.2768 85.112 59.3088 84.872 59.3088 84.368V84.296C59.3088 84.08 59.1168 83.96 58.8048 83.96H55.8288C55.4928 83.96 55.3008 84.08 55.3008 84.296V84.368C55.3008 84.872 56.3568 85.184 55.5408 86L48.5568 93.008V85.952C48.5568 85.016 49.5168 84.896 49.5168 84.368V84.296C49.5168 84.08 49.3248 83.96 49.0128 83.96H45.2688C44.9568 83.96 44.7648 84.08 44.7648 84.296V84.368C44.7648 84.896 45.6528 85.016 45.6528 85.952V98.984C45.6528 99.92 44.7648 100.064 44.7648 100.592V100.664C44.7648 100.88 44.9568 101 45.2688 101H49.0128C49.3248 101 49.5408 100.88 49.5408 100.664V100.592C49.5408 100.064 48.5568 99.92 48.5568 98.984V94.832L51.5568 91.832L55.9248 99.152C56.3568 99.896 55.3248 100.088 55.3248 100.592V100.664C55.3248 100.88 55.4928 101 55.8047 101H60.0528C60.3648 101 60.5328 100.856 60.5328 100.664V100.592C60.5328 100.088 59.9568 100.16 59.2368 98.984ZM71.2694 98.84L70.7894 94.232C70.4534 91.136 68.5094 89.24 65.4854 89.24C62.9174 89.24 61.0454 90.416 61.0454 91.928C61.0454 92.6 61.5014 93.032 62.2214 93.032C63.7334 93.032 63.2534 90.128 65.4854 90.128C67.1654 90.128 67.7414 91.568 68.0054 94.352L68.0534 94.832C67.4054 94.328 66.4454 94.016 65.2694 94.016C62.8454 94.016 60.8774 95.264 60.9014 97.616C60.9014 99.968 62.7734 101.24 65.3894 101.24C67.0934 101.24 68.1734 100.592 68.7254 99.704C68.8214 100.88 69.4214 101.144 70.6454 101.144C71.6774 101.144 72.5894 101 72.5894 100.544C72.5894 99.92 71.4374 100.4 71.2694 98.84ZM66.1814 100.328C64.6934 100.328 63.7334 98.912 63.7334 97.28C63.7334 95.84 64.6694 94.928 65.9894 94.928C67.2614 94.928 68.1734 95.792 68.2694 97.16L68.3414 97.904C68.4134 99.2 67.5254 100.328 66.1814 100.328ZM79.2261 83.36C76.3701 83.36 74.9541 85.232 74.9541 87.68V89.48H73.1061C72.8661 89.48 72.6741 89.672 72.6741 89.888V90.272C72.6741 90.488 72.8661 90.656 73.1061 90.656H74.9541V98.984C74.9541 99.944 74.0181 100.04 74.0181 100.568V100.664C74.0181 100.856 74.1861 101 74.4501 101H78.5061C78.7461 101 78.9141 100.856 78.9141 100.664V100.568C78.9141 100.04 77.7621 99.944 77.7621 98.984V90.656H80.8341C81.0741 90.656 81.2421 90.488 81.2421 90.272V89.888C81.2421 89.672 81.0741 89.48 80.8341 89.48H77.6661C77.0421 86.84 77.0421 84.224 78.6981 84.248C80.7381 84.272 79.1061 86.984 81.5061 86.984C82.2261 86.984 82.6101 86.432 82.6101 85.952C82.6101 84.536 81.0501 83.36 79.2261 83.36ZM88.0386 83.36C85.1826 83.36 83.7666 85.232 83.7666 87.68V89.48H81.9186C81.6786 89.48 81.4866 89.672 81.4866 89.888V90.272C81.4866 90.488 81.6786 90.656 81.9186 90.656H83.7666V98.984C83.7666 99.944 82.8306 100.04 82.8306 100.568V100.664C82.8306 100.856 82.9986 101 83.2626 101H87.3186C87.5586 101 87.7266 100.856 87.7266 100.664V100.568C87.7266 100.04 86.5746 99.944 86.5746 98.984V90.656H89.6466C89.8866 90.656 90.0546 90.488 90.0546 90.272V89.888C90.0546 89.672 89.8866 89.48 89.6466 89.48H86.4786C85.8546 86.84 85.8546 84.224 87.5106 84.248C89.5506 84.272 87.9186 86.984 90.3186 86.984C91.0386 86.984 91.4226 86.432 91.4226 85.952C91.4226 84.536 89.8626 83.36 88.0386 83.36ZM99.9183 97.472C99.4383 98.432 98.3583 99.224 96.8463 99.224C95.1423 99.224 93.9183 98.216 93.3183 96.584L99.1263 94.448C99.8703 94.184 100.35 93.68 100.35 92.768C100.35 91.088 98.9583 89.24 95.8623 89.24C92.6943 89.24 90.1263 91.712 90.1263 95.144C90.1263 98.864 92.5983 101.24 95.8143 101.24C98.8623 101.24 100.47 99.128 100.686 97.712C100.734 97.232 100.182 97.136 99.9183 97.472ZM95.3823 90.152C96.7743 90.152 97.6623 91.88 97.6623 92.864C97.6623 93.344 97.4703 93.68 97.0383 93.872L93.0543 95.6C92.9583 95.12 92.9103 94.616 92.9103 94.064C92.9103 91.76 93.8703 90.152 95.3823 90.152ZM108.826 89.24C107.242 89.24 105.922 89.912 105.25 91.064L105.274 89.744C105.274 89.336 105.058 89.072 104.482 89.36L102.274 90.44C102.01 90.56 101.842 90.728 101.842 90.944V91.04C101.842 91.592 102.874 91.64 102.874 92.552V104.312C102.874 105.272 101.962 105.368 101.962 105.896V105.968C101.962 106.208 102.178 106.328 102.49 106.328H106.138C106.45 106.328 106.666 106.208 106.666 105.968V105.896C106.666 105.368 105.682 105.272 105.682 104.312V99.968C106.474 100.784 107.53 101.24 108.85 101.24C111.874 101.24 114.394 98.696 114.394 95.048C114.394 91.4 111.706 89.24 108.826 89.24ZM108.514 100.328C107.05 100.328 105.682 98.672 105.682 96.92V92.48C105.85 91.136 106.906 90.152 108.13 90.152C110.194 90.152 111.562 92.504 111.562 95.936C111.562 98.744 110.41 100.328 108.514 100.328ZM122.628 89.24C121.092 89.24 119.964 90.08 119.436 91.616V89.744C119.436 89.336 119.244 89.096 118.74 89.336L116.388 90.416C116.124 90.56 115.956 90.728 115.956 90.92V90.992C115.956 91.52 116.988 91.568 116.988 92.552V99.008C116.988 99.944 116.076 100.04 116.076 100.568V100.664C116.076 100.88 116.268 101 116.58 101H120.3C120.612 101 120.804 100.88 120.804 100.664V100.568C120.804 100.04 119.7 99.944 119.7 99.008V93.872C119.7 92.312 120.228 90.896 121.356 90.896C122.748 90.896 122.028 92.768 123.588 92.768C124.5 92.768 124.836 92.072 124.836 91.256C124.836 90.152 124.044 89.24 122.628 89.24ZM135.91 98.84L135.43 94.232C135.094 91.136 133.15 89.24 130.126 89.24C127.558 89.24 125.686 90.416 125.686 91.928C125.686 92.6 126.142 93.032 126.862 93.032C128.374 93.032 127.894 90.128 130.126 90.128C131.806 90.128 132.382 91.568 132.646 94.352L132.694 94.832C132.046 94.328 131.086 94.016 129.91 94.016C127.486 94.016 125.518 95.264 125.542 97.616C125.542 99.968 127.414 101.24 130.03 101.24C131.734 101.24 132.814 100.592 133.366 99.704C133.462 100.88 134.062 101.144 135.286 101.144C136.318 101.144 137.23 101 137.23 100.544C137.23 99.92 136.078 100.4 135.91 98.84ZM130.822 100.328C129.334 100.328 128.374 98.912 128.374 97.28C128.374 95.84 129.31 94.928 130.63 94.928C131.902 94.928 132.814 95.792 132.91 97.16L132.982 97.904C133.054 99.2 132.166 100.328 130.822 100.328ZM142.5 101.24C144.66 101.24 145.884 99.632 145.884 98.024C145.884 97.592 145.308 97.52 145.092 97.904C144.948 98.6 144.396 99.152 143.388 99.152C142.596 99.152 142.02 98.528 142.02 97.376V90.656H145.044C145.284 90.656 145.476 90.488 145.476 90.248V89.912C145.476 89.672 145.284 89.48 145.044 89.48H142.02L141.996 87.152C141.996 86.816 141.852 86.624 141.54 86.624H141.18C140.94 86.624 140.748 86.816 140.7 87.152C140.508 88.544 139.764 89.48 138.516 89.48H137.772C137.508 89.48 137.364 89.648 137.364 89.912V90.248C137.364 90.488 137.532 90.656 137.772 90.656H139.14V97.352C139.14 99.944 140.484 101.24 142.5 101.24Z" fill="#333333"/>
<path d="M47.3688 126.12C45.6288 126.12 44.2488 125.295 44.0988 123.36H45.3738C45.5538 124.635 46.2588 125.055 47.4738 125.055C49.0938 125.055 50.2488 123.72 50.6988 120.96C50.0988 121.755 49.0788 122.22 47.9388 122.22C46.2288 122.22 44.7738 121.095 44.7738 119.115C44.7738 116.835 46.4388 115.125 48.7938 115.125C51.0288 115.125 52.1838 116.49 52.1988 118.77C52.1988 119.235 52.1688 119.73 52.0788 120.27L51.9738 120.93C51.4038 124.44 49.8138 126.12 47.3688 126.12ZM46.1088 119.055C46.1088 120.315 46.8138 121.2 48.1188 121.2C49.6938 121.2 50.9538 120.285 50.9538 118.44C50.9538 117.255 50.3388 116.145 48.7488 116.145C47.1888 116.145 46.1088 117.36 46.1088 119.055ZM53.5955 122.46L53.7755 121.29H56.9855L56.8055 122.46H53.5955ZM57.1534 126L57.1984 125.7L62.3134 121.26C63.3184 120.39 64.2784 119.325 64.2784 117.945C64.2784 117.015 63.7084 116.19 62.5684 116.19C61.3834 116.175 60.4534 116.76 60.0184 118.575H58.7884C59.1634 116.235 60.6934 115.125 62.6434 115.14C64.2784 115.14 65.5984 116.16 65.5984 117.915C65.5984 119.655 64.3834 120.885 62.9134 122.13L59.5984 124.935H64.6534L64.4884 126H57.1534ZM70.6509 126.135C68.0559 126.135 66.9009 124.29 66.8859 122.01C66.8859 121.56 66.9159 121.095 66.9909 120.675L67.0809 120.12C67.5759 117.09 69.3609 115.14 71.8509 115.14C74.4309 115.14 75.5109 117.03 75.5109 119.31C75.5109 119.73 75.4809 120.195 75.4059 120.63L75.3159 121.185C74.8359 124.155 73.1409 126.135 70.6509 126.135ZM70.7259 125.055C72.4809 125.055 73.6059 123.63 74.0259 121.035L74.1159 120.48C74.1759 120.12 74.2059 119.7 74.2059 119.31C74.2059 117.765 73.6809 116.19 71.7759 116.19C70.0509 116.19 68.8059 117.66 68.3859 120.21L68.2959 120.765C68.2359 121.14 68.1909 121.59 68.1909 122.025C68.1909 123.525 68.7009 125.055 70.7259 125.055ZM77.1835 126.075C76.6585 126.075 76.2235 125.655 76.2235 125.115C76.2235 124.575 76.6435 124.155 77.1685 124.155C77.6935 124.155 78.1435 124.575 78.1435 125.115C78.1435 125.655 77.7085 126.075 77.1835 126.075ZM87.8316 126.12C85.6566 126.12 84.3366 124.635 84.3366 122.64C84.3366 120.015 86.1516 118.035 88.5066 118.035C90.6816 118.035 92.0166 119.46 92.0166 121.485C92.0166 124.155 90.2916 126.12 87.8316 126.12ZM87.8916 125.1C89.6616 125.1 90.7116 123.555 90.7116 121.515C90.7116 120.03 89.9316 119.055 88.4316 119.055C86.7516 119.055 85.6266 120.6 85.6266 122.64C85.6266 124.125 86.3616 125.1 87.8916 125.1ZM93.2296 126L95.0596 114.405H96.3046L95.1646 121.62L98.8996 118.155H100.445L96.4846 121.755L99.4096 126H97.9846L95.1346 121.815L94.4746 126H93.2296ZM103.321 126.105C101.776 126.105 101.221 125.13 101.416 123.855L102.151 119.205H101.026L101.191 118.155H102.316L102.601 116.37H103.846L103.561 118.155H105.346L105.181 119.205H103.396L102.646 123.9C102.511 124.755 102.811 125.055 103.516 125.055C103.816 125.055 104.161 124.995 104.446 124.89L104.281 125.925C104.011 126.045 103.681 126.105 103.321 126.105ZM109.394 126.12C107.219 126.12 105.899 124.635 105.899 122.64C105.899 120.015 107.714 118.035 110.069 118.035C112.244 118.035 113.579 119.46 113.579 121.485C113.579 124.155 111.854 126.12 109.394 126.12ZM109.454 125.1C111.224 125.1 112.274 123.555 112.274 121.515C112.274 120.03 111.494 119.055 109.994 119.055C108.314 119.055 107.189 120.6 107.189 122.64C107.189 124.125 107.924 125.1 109.454 125.1ZM119.037 126.135C117.447 126.135 116.622 125.295 116.277 124.53L116.037 126H114.792L116.622 114.405H117.867L117.057 119.535C117.582 118.665 118.647 118.02 119.802 118.02C121.632 118.02 122.952 119.37 122.952 121.47C122.952 123.99 121.497 126.135 119.037 126.135ZM118.962 125.115C120.672 125.115 121.632 123.585 121.632 121.545C121.632 119.94 120.837 119.04 119.562 119.04C117.867 119.04 116.547 120.42 116.547 122.67C116.547 124.185 117.477 125.115 118.962 125.115ZM125.411 122.835C125.411 124.26 126.071 125.1 127.571 125.1C128.666 125.1 129.431 124.635 129.731 123.735H130.976C130.496 125.355 129.116 126.135 127.526 126.135C125.396 126.135 124.136 124.74 124.136 122.775C124.136 120 125.921 118.035 128.231 118.035C130.361 118.035 131.696 119.355 131.276 122.04L131.231 122.325H125.426C125.411 122.49 125.411 122.655 125.411 122.835ZM128.156 119.055C127.046 119.055 125.966 119.715 125.576 121.32H130.121C130.241 119.745 129.581 119.055 128.156 119.055ZM132.487 126L133.357 120.495C133.522 119.43 133.552 118.815 133.567 118.155H134.737C134.737 118.59 134.707 119.16 134.647 119.76C135.307 118.725 135.997 118.05 137.542 118.02L137.362 119.19C135.787 119.265 134.692 119.925 134.377 121.92L133.732 126H132.487Z" fill="#333333"/>
<path d="M51.1488 180.24C54.5328 180.24 57.4848 178.464 57.4848 175.416C57.4848 168.336 47.5008 171.936 47.5008 166.752C47.5008 165.216 48.5808 163.896 50.6928 163.896C54.7248 163.896 53.6928 168 55.9488 168C56.7888 168 57.1968 167.52 57.1968 166.776C57.2208 164.952 54.8688 162.744 50.7648 162.744C46.8048 162.744 44.5728 164.856 44.5728 167.544C44.5728 174.744 54.5568 170.688 54.5568 176.208C54.5568 177.936 53.2128 179.088 51.2688 179.088C46.7808 179.088 47.5728 174.84 45.3888 174.768C44.6208 174.744 44.2128 175.296 44.2128 175.968C44.2128 177.672 46.4208 180.24 51.1488 180.24ZM69.3006 177.84L68.8206 173.232C68.4846 170.136 66.5406 168.24 63.5166 168.24C60.9486 168.24 59.0766 169.416 59.0766 170.928C59.0766 171.6 59.5326 172.032 60.2526 172.032C61.7646 172.032 61.2846 169.128 63.5166 169.128C65.1966 169.128 65.7726 170.568 66.0366 173.352L66.0846 173.832C65.4366 173.328 64.4766 173.016 63.3006 173.016C60.8766 173.016 58.9086 174.264 58.9326 176.616C58.9326 178.968 60.8046 180.24 63.4206 180.24C65.1246 180.24 66.2046 179.592 66.7566 178.704C66.8526 179.88 67.4526 180.144 68.6766 180.144C69.7086 180.144 70.6206 180 70.6206 179.544C70.6206 178.92 69.4686 179.4 69.3006 177.84ZM64.2126 179.328C62.7246 179.328 61.7646 177.912 61.7646 176.28C61.7646 174.84 62.7006 173.928 64.0206 173.928C65.2926 173.928 66.2046 174.792 66.3006 176.16L66.3726 176.904C66.4446 178.2 65.5566 179.328 64.2126 179.328ZM91.0803 177.984L90.7923 173.544C90.5283 169.608 88.6083 168.24 86.3043 168.24C84.6243 168.24 83.1843 169.104 82.5603 170.616C81.7443 169.08 80.2323 168.24 78.5043 168.24C77.0163 168.24 75.7683 169.008 75.0723 170.184V168.768C75.0723 168.36 74.8083 168.072 74.3043 168.336L71.8563 169.464C71.5923 169.584 71.4243 169.704 71.4243 169.896V169.968C71.4243 170.496 72.4803 170.568 72.4803 171.576V178.008C72.4803 178.944 71.5203 179.064 71.5203 179.592V179.688C71.5203 179.904 71.7363 180.024 72.0483 180.024H75.7683C76.0803 180.024 76.2723 179.904 76.2723 179.688V179.592C76.2723 179.064 75.3123 178.944 75.3123 178.008L75.2883 172.248C75.3603 170.64 76.3203 169.392 77.8083 169.392C79.2483 169.392 80.3283 170.76 80.3283 173.208V178.008C80.3283 178.944 79.4883 179.064 79.4883 179.592V179.688C79.4883 179.904 79.7043 180.024 80.0163 180.024H83.4963C83.8083 180.024 84.0003 179.904 84.0003 179.688V179.592C84.0003 179.064 83.1603 178.944 83.1603 178.008V173.376C83.1603 172.968 83.1363 172.584 83.0643 172.224C83.1363 170.592 84.1443 169.392 85.4643 169.392C86.9763 169.392 87.8643 170.496 88.0083 173.472L88.2483 178.008C88.2963 178.944 87.4083 179.064 87.4083 179.592V179.688C87.4083 179.904 87.6003 180.024 87.9123 180.024H91.4403C91.7283 180.024 91.9443 179.904 91.9443 179.688V179.592C91.9443 179.064 91.1283 178.944 91.0803 177.984ZM103.59 177.84L103.11 173.232C102.774 170.136 100.83 168.24 97.8057 168.24C95.2377 168.24 93.3657 169.416 93.3657 170.928C93.3657 171.6 93.8217 172.032 94.5417 172.032C96.0537 172.032 95.5737 169.128 97.8057 169.128C99.4857 169.128 100.062 170.568 100.326 173.352L100.374 173.832C99.7257 173.328 98.7657 173.016 97.5897 173.016C95.1657 173.016 93.1977 174.264 93.2217 176.616C93.2217 178.968 95.0937 180.24 97.7097 180.24C99.4137 180.24 100.494 179.592 101.046 178.704C101.142 179.88 101.742 180.144 102.966 180.144C103.998 180.144 104.91 180 104.91 179.544C104.91 178.92 103.758 179.4 103.59 177.84ZM98.5017 179.328C97.0137 179.328 96.0537 177.912 96.0537 176.28C96.0537 174.84 96.9897 173.928 98.3097 173.928C99.5817 173.928 100.494 174.792 100.59 176.16L100.662 176.904C100.734 178.2 99.8457 179.328 98.5017 179.328ZM112.409 168.24C110.873 168.24 109.745 169.08 109.217 170.616V168.744C109.217 168.336 109.025 168.096 108.521 168.336L106.169 169.416C105.905 169.56 105.737 169.728 105.737 169.92V169.992C105.737 170.52 106.769 170.568 106.769 171.552V178.008C106.769 178.944 105.857 179.04 105.857 179.568V179.664C105.857 179.88 106.049 180 106.361 180H110.081C110.393 180 110.585 179.88 110.585 179.664V179.568C110.585 179.04 109.481 178.944 109.481 178.008V172.872C109.481 171.312 110.009 169.896 111.137 169.896C112.529 169.896 111.809 171.768 113.369 171.768C114.281 171.768 114.617 171.072 114.617 170.256C114.617 169.152 113.825 168.24 112.409 168.24ZM122.256 168.24C120.96 168.24 119.832 168.696 119.088 169.512V162.432C119.088 161.928 118.728 161.784 118.224 162.024L115.752 163.2C115.392 163.368 115.272 163.464 115.272 163.68V163.752C115.272 164.28 116.304 164.352 116.304 165.384V177.984C116.304 178.944 115.392 179.088 115.392 179.592V179.664C115.392 179.88 115.56 180 115.824 180L118.416 180.048C118.728 180.048 118.896 179.904 118.896 179.592L118.872 178.728C119.688 179.688 120.84 180.24 122.28 180.24C125.304 180.24 127.824 177.696 127.824 174.048C127.824 170.4 125.136 168.24 122.256 168.24ZM121.944 179.328C120.48 179.328 119.088 177.672 119.088 175.92V171.864C119.088 170.328 120.216 169.152 121.56 169.152C123.624 169.152 124.992 171.504 124.992 174.936C124.992 177.744 123.84 179.328 121.944 179.328ZM139.035 176.472C138.555 177.432 137.475 178.224 135.963 178.224C134.259 178.224 133.035 177.216 132.435 175.584L138.243 173.448C138.987 173.184 139.467 172.68 139.467 171.768C139.467 170.088 138.075 168.24 134.979 168.24C131.811 168.24 129.243 170.712 129.243 174.144C129.243 177.864 131.715 180.24 134.931 180.24C137.979 180.24 139.587 178.128 139.803 176.712C139.851 176.232 139.299 176.136 139.035 176.472ZM134.499 169.152C135.891 169.152 136.779 170.88 136.779 171.864C136.779 172.344 136.587 172.68 136.155 172.872L132.171 174.6C132.075 174.12 132.027 173.616 132.027 173.064C132.027 170.76 132.987 169.152 134.499 169.152ZM143.551 166.488C144.727 166.488 145.495 165.744 145.495 164.688C145.495 163.656 144.727 162.888 143.551 162.888C142.351 162.888 141.559 163.656 141.559 164.688C141.559 165.744 142.351 166.488 143.551 166.488ZM141.775 180H145.423C145.735 180 145.951 179.856 145.951 179.64V179.544C145.951 179.016 144.967 178.92 144.967 177.984V168.744C144.967 168.36 144.655 168.072 144.103 168.336L141.703 169.536C141.439 169.68 141.271 169.776 141.271 169.968V170.04C141.271 170.472 142.159 170.712 142.159 171.696V177.984C142.159 178.92 141.271 179.016 141.271 179.544V179.64C141.271 179.856 141.463 180 141.775 180ZM158.927 178.008V162.432C158.927 161.952 158.663 161.808 158.087 162L155.543 162.816C155.279 162.912 155.111 163.08 155.111 163.296V163.344C155.111 163.872 156.215 163.896 156.215 164.952V169.464C155.447 168.72 154.367 168.24 153.071 168.24C149.927 168.24 147.431 170.688 147.431 174.216C147.431 177.96 150.095 180.24 153.023 180.24C154.343 180.24 155.591 179.712 156.383 178.704L156.455 179.544C156.479 179.808 156.647 180 156.935 180H159.431C159.695 180 159.839 179.88 159.839 179.664V179.592C159.839 179.088 158.927 178.944 158.927 178.008ZM153.671 179.328C151.487 179.28 150.095 176.496 150.167 173.232C150.215 170.688 151.391 169.152 153.167 169.152C154.847 169.152 156.215 170.856 156.215 172.392V176.232C156.215 178.32 154.847 179.328 153.671 179.328ZM166.204 180.216C169.3 180.216 171.244 178.752 171.244 176.88C171.244 172.128 164.26 174.216 164.26 170.952C164.26 169.92 165.1 169.104 166.276 169.104C168.796 169.104 168.148 172.128 169.828 172.128C170.452 172.128 170.932 171.696 170.932 171.096C170.932 169.704 169.132 168.24 166.132 168.24C163.372 168.24 161.428 169.704 161.428 171.648C161.428 176.448 168.412 174.312 168.412 177.552C168.412 178.776 167.476 179.4 166.204 179.4C163.396 179.4 164.188 176.352 162.388 176.352C161.692 176.352 161.188 176.712 161.188 177.456C161.188 178.776 163.06 180.216 166.204 180.216ZM178.555 180.24C181.507 180.24 183.115 178.368 183.355 176.496C183.427 175.992 182.827 175.92 182.587 176.28C182.059 177.312 181.051 178.248 179.491 178.248C176.923 178.248 175.219 176.136 175.219 172.848C175.219 170.784 176.299 169.152 177.979 169.152C180.379 169.152 180.307 172.344 182.035 172.44C182.923 172.464 183.259 171.96 183.259 171.408C183.259 169.8 181.123 168.216 178.435 168.24C175.171 168.264 172.387 170.544 172.387 174.192C172.387 177.552 175.075 180.24 178.555 180.24ZM195.113 177.84L194.633 173.232C194.297 170.136 192.353 168.24 189.329 168.24C186.761 168.24 184.889 169.416 184.889 170.928C184.889 171.6 185.345 172.032 186.065 172.032C187.577 172.032 187.097 169.128 189.329 169.128C191.009 169.128 191.585 170.568 191.849 173.352L191.897 173.832C191.249 173.328 190.289 173.016 189.113 173.016C186.689 173.016 184.721 174.264 184.745 176.616C184.745 178.968 186.617 180.24 189.233 180.24C190.937 180.24 192.017 179.592 192.569 178.704C192.665 179.88 193.265 180.144 194.489 180.144C195.521 180.144 196.433 180 196.433 179.544C196.433 178.92 195.281 179.4 195.113 177.84ZM190.025 179.328C188.537 179.328 187.577 177.912 187.577 176.28C187.577 174.84 188.513 173.928 189.833 173.928C191.105 173.928 192.017 174.792 192.113 176.16L192.185 176.904C192.257 178.2 191.369 179.328 190.025 179.328ZM202.157 180.216C205.253 180.216 207.197 178.752 207.197 176.88C207.197 172.128 200.213 174.216 200.213 170.952C200.213 169.92 201.053 169.104 202.229 169.104C204.749 169.104 204.101 172.128 205.781 172.128C206.405 172.128 206.885 171.696 206.885 171.096C206.885 169.704 205.085 168.24 202.085 168.24C199.325 168.24 197.381 169.704 197.381 171.648C197.381 176.448 204.365 174.312 204.365 177.552C204.365 178.776 203.429 179.4 202.157 179.4C199.349 179.4 200.141 176.352 198.341 176.352C197.645 176.352 197.141 176.712 197.141 177.456C197.141 178.776 199.013 180.216 202.157 180.216ZM218.325 176.472C217.845 177.432 216.765 178.224 215.253 178.224C213.549 178.224 212.325 177.216 211.725 175.584L217.533 173.448C218.277 173.184 218.757 172.68 218.757 171.768C218.757 170.088 217.365 168.24 214.269 168.24C211.101 168.24 208.533 170.712 208.533 174.144C208.533 177.864 211.005 180.24 214.221 180.24C217.269 180.24 218.877 178.128 219.093 176.712C219.141 176.232 218.589 176.136 218.325 176.472ZM213.789 169.152C215.181 169.152 216.069 170.88 216.069 171.864C216.069 172.344 215.877 172.68 215.445 172.872L211.461 174.6C211.365 174.12 211.317 173.616 211.317 173.064C211.317 170.76 212.277 169.152 213.789 169.152Z" fill="#333333"/>
<path d="M47.3688 204.12C45.6288 204.12 44.2488 203.295 44.0988 201.36H45.3738C45.5538 202.635 46.2588 203.055 47.4738 203.055C49.0938 203.055 50.2488 201.72 50.6988 198.96C50.0988 199.755 49.0788 200.22 47.9388 200.22C46.2288 200.22 44.7738 199.095 44.7738 197.115C44.7738 194.835 46.4388 193.125 48.7938 193.125C51.0288 193.125 52.1838 194.49 52.1988 196.77C52.1988 197.235 52.1688 197.73 52.0788 198.27L51.9738 198.93C51.4038 202.44 49.8138 204.12 47.3688 204.12ZM46.1088 197.055C46.1088 198.315 46.8138 199.2 48.1188 199.2C49.6938 199.2 50.9538 198.285 50.9538 196.44C50.9538 195.255 50.3388 194.145 48.7488 194.145C47.1888 194.145 46.1088 195.36 46.1088 197.055ZM53.5955 200.46L53.7755 199.29H56.9855L56.8055 200.46H53.5955ZM57.1534 204L57.1984 203.7L62.3134 199.26C63.3184 198.39 64.2784 197.325 64.2784 195.945C64.2784 195.015 63.7084 194.19 62.5684 194.19C61.3834 194.175 60.4534 194.76 60.0184 196.575H58.7884C59.1634 194.235 60.6934 193.125 62.6434 193.14C64.2784 193.14 65.5984 194.16 65.5984 195.915C65.5984 197.655 64.3834 198.885 62.9134 200.13L59.5984 202.935H64.6534L64.4884 204H57.1534ZM70.6509 204.135C68.0559 204.135 66.9009 202.29 66.8859 200.01C66.8859 199.56 66.9159 199.095 66.9909 198.675L67.0809 198.12C67.5759 195.09 69.3609 193.14 71.8509 193.14C74.4309 193.14 75.5109 195.03 75.5109 197.31C75.5109 197.73 75.4809 198.195 75.4059 198.63L75.3159 199.185C74.8359 202.155 73.1409 204.135 70.6509 204.135ZM70.7259 203.055C72.4809 203.055 73.6059 201.63 74.0259 199.035L74.1159 198.48C74.1759 198.12 74.2059 197.7 74.2059 197.31C74.2059 195.765 73.6809 194.19 71.7759 194.19C70.0509 194.19 68.8059 195.66 68.3859 198.21L68.2959 198.765C68.2359 199.14 68.1909 199.59 68.1909 200.025C68.1909 201.525 68.7009 203.055 70.7259 203.055ZM77.1835 204.075C76.6585 204.075 76.2235 203.655 76.2235 203.115C76.2235 202.575 76.6435 202.155 77.1685 202.155C77.6935 202.155 78.1435 202.575 78.1435 203.115C78.1435 203.655 77.7085 204.075 77.1835 204.075ZM87.8316 204.12C85.6566 204.12 84.3366 202.635 84.3366 200.64C84.3366 198.015 86.1516 196.035 88.5066 196.035C90.6816 196.035 92.0166 197.46 92.0166 199.485C92.0166 202.155 90.2916 204.12 87.8316 204.12ZM87.8916 203.1C89.6616 203.1 90.7116 201.555 90.7116 199.515C90.7116 198.03 89.9316 197.055 88.4316 197.055C86.7516 197.055 85.6266 198.6 85.6266 200.64C85.6266 202.125 86.3616 203.1 87.8916 203.1ZM93.2296 204L95.0596 192.405H96.3046L95.1646 199.62L98.8996 196.155H100.445L96.4846 199.755L99.4096 204H97.9846L95.1346 199.815L94.4746 204H93.2296ZM103.321 204.105C101.776 204.105 101.221 203.13 101.416 201.855L102.151 197.205H101.026L101.191 196.155H102.316L102.601 194.37H103.846L103.561 196.155H105.346L105.181 197.205H103.396L102.646 201.9C102.511 202.755 102.811 203.055 103.516 203.055C103.816 203.055 104.161 202.995 104.446 202.89L104.281 203.925C104.011 204.045 103.681 204.105 103.321 204.105ZM109.394 204.12C107.219 204.12 105.899 202.635 105.899 200.64C105.899 198.015 107.714 196.035 110.069 196.035C112.244 196.035 113.579 197.46 113.579 199.485C113.579 202.155 111.854 204.12 109.394 204.12ZM109.454 203.1C111.224 203.1 112.274 201.555 112.274 199.515C112.274 198.03 111.494 197.055 109.994 197.055C108.314 197.055 107.189 198.6 107.189 200.64C107.189 202.125 107.924 203.1 109.454 203.1ZM119.037 204.135C117.447 204.135 116.622 203.295 116.277 202.53L116.037 204H114.792L116.622 192.405H117.867L117.057 197.535C117.582 196.665 118.647 196.02 119.802 196.02C121.632 196.02 122.952 197.37 122.952 199.47C122.952 201.99 121.497 204.135 119.037 204.135ZM118.962 203.115C120.672 203.115 121.632 201.585 121.632 199.545C121.632 197.94 120.837 197.04 119.562 197.04C117.867 197.04 116.547 198.42 116.547 200.67C116.547 202.185 117.477 203.115 118.962 203.115ZM125.411 200.835C125.411 202.26 126.071 203.1 127.571 203.1C128.666 203.1 129.431 202.635 129.731 201.735H130.976C130.496 203.355 129.116 204.135 127.526 204.135C125.396 204.135 124.136 202.74 124.136 200.775C124.136 198 125.921 196.035 128.231 196.035C130.361 196.035 131.696 197.355 131.276 200.04L131.231 200.325H125.426C125.411 200.49 125.411 200.655 125.411 200.835ZM128.156 197.055C127.046 197.055 125.966 197.715 125.576 199.32H130.121C130.241 197.745 129.581 197.055 128.156 197.055ZM132.487 204L133.357 198.495C133.522 197.43 133.552 196.815 133.567 196.155H134.737C134.737 196.59 134.707 197.16 134.647 197.76C135.307 196.725 135.997 196.05 137.542 196.02L137.362 197.19C135.787 197.265 134.692 197.925 134.377 199.92L133.732 204H132.487Z" fill="#333333"/>
<path d="M48.9648 258H52.7088C53.0448 258 53.2368 257.88 53.2368 257.664V257.592C53.2368 257.064 52.2768 256.944 52.2768 256.008V242.256H54.8928C56.2368 242.256 56.5488 244.944 57.3888 244.944H57.6768C57.9648 244.944 58.1568 244.752 58.0848 244.416L57.5568 241.56C57.4848 241.152 57.2928 240.96 56.8608 240.96H44.8128C44.3808 240.96 44.1888 241.152 44.1408 241.56L43.7088 244.392C43.6608 244.752 43.8288 244.944 44.1168 244.944H44.4048C45.2448 244.944 45.4368 242.256 46.7808 242.256H49.3968V256.008C49.3968 256.944 48.4608 257.064 48.4608 257.592V257.664C48.4608 257.88 48.6528 258 48.9648 258ZM61.2858 244.488C62.4618 244.488 63.2298 243.744 63.2298 242.688C63.2298 241.656 62.4618 240.888 61.2858 240.888C60.0858 240.888 59.2938 241.656 59.2938 242.688C59.2938 243.744 60.0858 244.488 61.2858 244.488ZM59.5098 258H63.1578C63.4698 258 63.6858 257.856 63.6858 257.64V257.544C63.6858 257.016 62.7018 256.92 62.7018 255.984V246.744C62.7018 246.36 62.3898 246.072 61.8378 246.336L59.4378 247.536C59.1738 247.68 59.0058 247.776 59.0058 247.968V248.04C59.0058 248.472 59.8938 248.712 59.8938 249.696V255.984C59.8938 256.92 59.0058 257.016 59.0058 257.544V257.64C59.0058 257.856 59.1978 258 59.5098 258ZM65.7173 258H69.3653C69.6773 258 69.8933 257.856 69.8933 257.64V257.568C69.8933 257.016 68.9093 256.944 68.9093 256.008V240.408C68.9093 240.048 68.5973 239.76 68.0453 240.024L65.6213 241.224C65.3813 241.344 65.2133 241.44 65.2133 241.656V241.728C65.2133 242.16 66.1013 242.352 66.1013 243.36V256.008C66.1013 256.944 65.2133 257.016 65.2133 257.568V257.64C65.2133 257.856 65.4053 258 65.7173 258ZM78.1934 246.24C76.8974 246.24 75.7694 246.696 75.0254 247.512V240.432C75.0254 239.928 74.6654 239.784 74.1614 240.024L71.6894 241.2C71.3294 241.368 71.2094 241.464 71.2094 241.68V241.752C71.2094 242.28 72.2414 242.352 72.2414 243.384V255.984C72.2414 256.944 71.3294 257.088 71.3294 257.592V257.664C71.3294 257.88 71.4974 258 71.7614 258L74.3534 258.048C74.6654 258.048 74.8334 257.904 74.8334 257.592L74.8094 256.728C75.6254 257.688 76.7774 258.24 78.2174 258.24C81.2414 258.24 83.7614 255.696 83.7614 252.048C83.7614 248.4 81.0734 246.24 78.1934 246.24ZM77.8814 257.328C76.4174 257.328 75.0254 255.672 75.0254 253.92V249.864C75.0254 248.328 76.1534 247.152 77.4974 247.152C79.5614 247.152 80.9294 249.504 80.9294 252.936C80.9294 255.744 79.7774 257.328 77.8814 257.328ZM96.5329 255.744V246.696C96.5329 246.336 96.2689 246.264 95.7649 246.336L93.1969 246.744C92.9329 246.792 92.7889 246.96 92.7889 247.176V247.248C92.7889 247.728 93.7249 247.872 93.7249 248.856V253.848C93.7249 255.816 92.5969 257.088 91.1569 257.088C89.5969 257.088 88.7569 255.792 88.7569 253.272L88.8049 246.696C88.8049 246.336 88.4929 246.264 87.9889 246.336L85.4689 246.744C85.2049 246.792 85.0369 246.96 85.0369 247.176V247.248C85.0369 247.728 85.9489 247.872 85.9489 248.856V253.008C85.9489 256.512 87.8449 258.24 90.4129 258.24C92.1169 258.24 93.3409 257.568 94.0129 256.368C93.9889 257.712 94.6849 258.144 95.9569 258.144C97.1329 258.144 97.7569 258.024 97.7569 257.544C97.7569 256.752 96.5329 257.568 96.5329 255.744ZM110.482 256.008V240.432C110.482 239.952 110.218 239.808 109.642 240L107.098 240.816C106.834 240.912 106.666 241.08 106.666 241.296V241.344C106.666 241.872 107.77 241.896 107.77 242.952V247.464C107.002 246.72 105.922 246.24 104.626 246.24C101.482 246.24 98.9856 248.688 98.9856 252.216C98.9856 255.96 101.65 258.24 104.578 258.24C105.898 258.24 107.146 257.712 107.938 256.704L108.01 257.544C108.034 257.808 108.202 258 108.49 258H110.986C111.25 258 111.394 257.88 111.394 257.664V257.592C111.394 257.088 110.482 256.944 110.482 256.008ZM105.226 257.328C103.042 257.28 101.65 254.496 101.722 251.232C101.77 248.688 102.946 247.152 104.722 247.152C106.402 247.152 107.77 248.856 107.77 250.392V254.232C107.77 256.32 106.402 257.328 105.226 257.328ZM124.427 258.24C127.907 258.24 130.211 255.6 130.211 252.312C130.211 249 127.667 246.24 123.875 246.24C120.587 246.24 117.923 248.712 117.923 252.12C117.923 255.312 120.347 258.24 124.427 258.24ZM124.787 257.328C122.363 257.328 120.755 254.16 120.755 251.184C120.755 248.544 121.859 247.152 123.563 247.152C125.771 247.152 127.379 249.936 127.379 253.296C127.379 255.888 126.275 257.328 124.787 257.328ZM151.385 255.984L151.097 251.544C150.833 247.608 148.913 246.24 146.609 246.24C144.929 246.24 143.489 247.104 142.865 248.616C142.049 247.08 140.537 246.24 138.809 246.24C137.321 246.24 136.073 247.008 135.377 248.184V246.768C135.377 246.36 135.113 246.072 134.609 246.336L132.161 247.464C131.897 247.584 131.729 247.704 131.729 247.896V247.968C131.729 248.496 132.785 248.568 132.785 249.576V256.008C132.785 256.944 131.825 257.064 131.825 257.592V257.688C131.825 257.904 132.041 258.024 132.353 258.024H136.073C136.385 258.024 136.577 257.904 136.577 257.688V257.592C136.577 257.064 135.617 256.944 135.617 256.008L135.593 250.248C135.665 248.64 136.625 247.392 138.113 247.392C139.553 247.392 140.633 248.76 140.633 251.208V256.008C140.633 256.944 139.793 257.064 139.793 257.592V257.688C139.793 257.904 140.009 258.024 140.321 258.024H143.801C144.113 258.024 144.305 257.904 144.305 257.688V257.592C144.305 257.064 143.465 256.944 143.465 256.008V251.376C143.465 250.968 143.441 250.584 143.369 250.224C143.441 248.592 144.449 247.392 145.769 247.392C147.281 247.392 148.169 248.496 148.313 251.472L148.553 256.008C148.601 256.944 147.713 257.064 147.713 257.592V257.688C147.713 257.904 147.905 258.024 148.217 258.024H151.745C152.033 258.024 152.249 257.904 152.249 257.688V257.592C152.249 257.064 151.433 256.944 151.385 255.984ZM161.035 244.488C162.211 244.488 162.979 243.744 162.979 242.688C162.979 241.656 162.211 240.888 161.035 240.888C159.835 240.888 159.043 241.656 159.043 242.688C159.043 243.744 159.835 244.488 161.035 244.488ZM159.235 262.536C160.723 262.536 161.587 261.864 162.115 260.808C162.499 260.016 162.691 259.272 162.691 258V246.744C162.691 246.36 162.355 246.072 161.827 246.336L159.331 247.536C159.067 247.68 158.923 247.776 158.923 247.968V248.04C158.923 248.52 159.811 248.688 159.811 249.696V257.184C159.811 258.408 160.795 258.936 160.795 260.328C160.795 261.024 160.387 261.528 159.763 261.528C158.371 261.528 159.163 259.2 157.411 259.2C156.691 259.2 156.187 259.68 156.187 260.4C156.187 261.768 157.435 262.536 159.235 262.536ZM171.278 258.24C174.758 258.24 177.062 255.6 177.062 252.312C177.062 249 174.518 246.24 170.726 246.24C167.438 246.24 164.774 248.712 164.774 252.12C164.774 255.312 167.198 258.24 171.278 258.24ZM171.638 257.328C169.214 257.328 167.606 254.16 167.606 251.184C167.606 248.544 168.71 247.152 170.414 247.152C172.622 247.152 174.23 249.936 174.23 253.296C174.23 255.888 173.126 257.328 171.638 257.328ZM185.397 246.24C184.101 246.24 182.973 246.696 182.229 247.512V240.432C182.229 239.928 181.869 239.784 181.365 240.024L178.893 241.2C178.533 241.368 178.413 241.464 178.413 241.68V241.752C178.413 242.28 179.445 242.352 179.445 243.384V255.984C179.445 256.944 178.533 257.088 178.533 257.592V257.664C178.533 257.88 178.701 258 178.965 258L181.557 258.048C181.869 258.048 182.037 257.904 182.037 257.592L182.013 256.728C182.829 257.688 183.98 258.24 185.421 258.24C188.445 258.24 190.965 255.696 190.965 252.048C190.965 248.4 188.277 246.24 185.397 246.24ZM185.085 257.328C183.621 257.328 182.229 255.672 182.229 253.92V249.864C182.229 248.328 183.357 247.152 184.701 247.152C186.765 247.152 188.133 249.504 188.133 252.936C188.133 255.744 186.981 257.328 185.085 257.328ZM199.248 246.24C197.952 246.24 196.824 246.696 196.08 247.512V240.432C196.08 239.928 195.72 239.784 195.216 240.024L192.744 241.2C192.384 241.368 192.264 241.464 192.264 241.68V241.752C192.264 242.28 193.296 242.352 193.296 243.384V255.984C193.296 256.944 192.384 257.088 192.384 257.592V257.664C192.384 257.88 192.552 258 192.816 258L195.408 258.048C195.72 258.048 195.888 257.904 195.888 257.592L195.864 256.728C196.68 257.688 197.832 258.24 199.272 258.24C202.296 258.24 204.816 255.696 204.816 252.048C204.816 248.4 202.128 246.24 199.248 246.24ZM198.936 257.328C197.472 257.328 196.08 255.672 196.08 253.92V249.864C196.08 248.328 197.208 247.152 198.552 247.152C200.616 247.152 201.984 249.504 201.984 252.936C201.984 255.744 200.832 257.328 198.936 257.328Z" fill="#333333"/>
<path d="M42.9738 282L43.0187 281.7L48.1338 277.26C49.1388 276.39 50.0988 275.325 50.0988 273.945C50.0988 273.015 49.5288 272.19 48.3888 272.19C47.2038 272.175 46.2738 272.76 45.8388 274.575H44.6088C44.9838 272.235 46.5138 271.125 48.4638 271.14C50.0988 271.14 51.4188 272.16 51.4188 273.915C51.4188 275.655 50.2038 276.885 48.7338 278.13L45.4188 280.935H50.4738L50.3088 282H42.9738ZM55.6929 282.135C53.4879 282.135 52.0779 280.845 52.0779 278.835H53.3079C53.3379 280.065 54.0129 281.085 55.7529 281.085C57.3429 281.085 58.2879 280.335 58.2879 278.715C58.2879 277.665 57.6579 276.93 56.2329 276.93H55.5429L55.7229 275.835H56.6529C57.7929 275.835 58.7379 275.28 58.7379 273.885C58.7379 272.82 58.0479 272.205 56.9229 272.205C55.6329 272.205 54.7029 272.895 54.3879 274.23H53.2329C53.5029 272.385 55.0329 271.14 56.9979 271.14C58.4979 271.14 60.0279 271.965 60.0279 273.84C60.0279 275.07 59.2629 276.06 57.9879 276.42C59.0229 276.75 59.6229 277.56 59.6229 278.715C59.6229 280.83 58.0029 282.135 55.6929 282.135ZM61.5057 278.46L61.6857 277.29H64.8957L64.7157 278.46H61.5057ZM65.0636 282L65.1086 281.7L70.2236 277.26C71.2286 276.39 72.1886 275.325 72.1886 273.945C72.1886 273.015 71.6186 272.19 70.4786 272.19C69.2936 272.175 68.3636 272.76 67.9286 274.575H66.6986C67.0736 272.235 68.6036 271.125 70.5536 271.14C72.1886 271.14 73.5086 272.16 73.5086 273.915C73.5086 275.655 72.2936 276.885 70.8236 278.13L67.5086 280.935H72.5636L72.3986 282H65.0636ZM77.7343 282.135C75.8293 282.135 74.4343 281.1 74.3443 279.105H75.6043C75.6793 280.305 76.3243 281.085 77.7493 281.085C79.3843 281.085 80.4043 279.93 80.4043 278.1C80.4043 276.87 79.7293 275.985 78.2743 275.985C77.1343 275.985 76.3993 276.435 75.7843 277.02H75.3043L76.2193 271.275H82.2493L82.0693 272.4H77.1193L76.6093 275.61C77.0893 275.235 77.7943 274.935 78.7093 274.935C80.5243 274.935 81.7543 276.18 81.7543 278.04C81.7543 280.365 80.1193 282.135 77.7343 282.135ZM83.995 282.075C83.47 282.075 83.035 281.655 83.035 281.115C83.035 280.575 83.455 280.155 83.98 280.155C84.505 280.155 84.955 280.575 84.955 281.115C84.955 281.655 84.52 282.075 83.995 282.075ZM94.6431 282.12C92.4681 282.12 91.1481 280.635 91.1481 278.64C91.1481 276.015 92.9631 274.035 95.3181 274.035C97.4931 274.035 98.8281 275.46 98.8281 277.485C98.8281 280.155 97.1031 282.12 94.6431 282.12ZM94.7031 281.1C96.4731 281.1 97.5231 279.555 97.5231 277.515C97.5231 276.03 96.7431 275.055 95.2431 275.055C93.5631 275.055 92.4381 276.6 92.4381 278.64C92.4381 280.125 93.1731 281.1 94.7031 281.1ZM100.041 282L101.871 270.405H103.116L101.976 277.62L105.711 274.155H107.256L103.296 277.755L106.221 282H104.796L101.946 277.815L101.286 282H100.041ZM110.132 282.105C108.587 282.105 108.032 281.13 108.227 279.855L108.962 275.205H107.837L108.002 274.155H109.127L109.412 272.37H110.657L110.372 274.155H112.157L111.992 275.205H110.207L109.457 279.9C109.322 280.755 109.622 281.055 110.327 281.055C110.627 281.055 110.972 280.995 111.257 280.89L111.092 281.925C110.822 282.045 110.492 282.105 110.132 282.105ZM116.206 282.12C114.031 282.12 112.711 280.635 112.711 278.64C112.711 276.015 114.526 274.035 116.881 274.035C119.056 274.035 120.391 275.46 120.391 277.485C120.391 280.155 118.666 282.12 116.206 282.12ZM116.266 281.1C118.036 281.1 119.086 279.555 119.086 277.515C119.086 276.03 118.306 275.055 116.806 275.055C115.126 275.055 114.001 276.6 114.001 278.64C114.001 280.125 114.736 281.1 116.266 281.1ZM125.849 282.135C124.259 282.135 123.434 281.295 123.089 280.53L122.849 282H121.604L123.434 270.405H124.679L123.869 275.535C124.394 274.665 125.459 274.02 126.614 274.02C128.444 274.02 129.764 275.37 129.764 277.47C129.764 279.99 128.309 282.135 125.849 282.135ZM125.774 281.115C127.484 281.115 128.444 279.585 128.444 277.545C128.444 275.94 127.649 275.04 126.374 275.04C124.679 275.04 123.359 276.42 123.359 278.67C123.359 280.185 124.289 281.115 125.774 281.115ZM132.223 278.835C132.223 280.26 132.883 281.1 134.383 281.1C135.478 281.1 136.243 280.635 136.543 279.735H137.788C137.308 281.355 135.928 282.135 134.338 282.135C132.208 282.135 130.948 280.74 130.948 278.775C130.948 276 132.733 274.035 135.043 274.035C137.173 274.035 138.508 275.355 138.088 278.04L138.043 278.325H132.238C132.223 278.49 132.223 278.655 132.223 278.835ZM134.968 275.055C133.858 275.055 132.778 275.715 132.388 277.32H136.933C137.053 275.745 136.393 275.055 134.968 275.055ZM139.299 282L140.169 276.495C140.334 275.43 140.364 274.815 140.379 274.155H141.549C141.549 274.59 141.519 275.16 141.459 275.76C142.119 274.725 142.809 274.05 144.354 274.02L144.174 275.19C142.599 275.265 141.504 275.925 141.189 277.92L140.544 282H139.299Z" fill="#333333"/>
<path d="M51.1488 338.24C46.4208 338.24 44.2128 335.672 44.2128 333.968C44.2128 333.296 44.6208 332.744 45.3888 332.768C47.5728 332.84 46.7808 337.088 51.2688 337.088C53.2128 337.088 54.5568 335.936 54.5568 334.208C54.5568 328.688 44.5728 332.744 44.5728 325.544C44.5728 322.856 46.8048 320.744 50.7648 320.744C54.8688 320.744 57.2208 322.952 57.1968 324.776C57.1968 325.52 56.7888 326 55.9488 326C53.6928 326 54.7248 321.896 50.6928 321.896C48.5808 321.896 47.5008 323.216 47.5008 324.752C47.5008 329.936 57.4848 326.336 57.4848 333.416C57.4848 336.464 54.5328 338.24 51.1488 338.24ZM65.4109 338.24C61.3309 338.24 58.9069 335.312 58.9069 332.12C58.9069 328.712 61.5709 326.24 64.8589 326.24C68.6509 326.24 71.1949 329 71.1949 332.312C71.1949 335.6 68.8909 338.24 65.4109 338.24ZM65.7709 337.328C67.2589 337.328 68.3629 335.888 68.3629 333.296C68.3629 329.936 66.7549 327.152 64.5469 327.152C62.8429 327.152 61.7389 328.544 61.7389 331.184C61.7389 334.16 63.3469 337.328 65.7709 337.328ZM77.6333 338.216C74.4893 338.216 72.6173 336.776 72.6173 335.456C72.6173 334.712 73.1213 334.352 73.8173 334.352C75.6173 334.352 74.8253 337.4 77.6333 337.4C78.9053 337.4 79.8413 336.776 79.8413 335.552C79.8413 332.312 72.8573 334.448 72.8573 329.648C72.8573 327.704 74.8013 326.24 77.5613 326.24C80.5613 326.24 82.3613 327.704 82.3613 329.096C82.3613 329.696 81.8813 330.128 81.2573 330.128C79.5773 330.128 80.2253 327.104 77.7053 327.104C76.5293 327.104 75.6893 327.92 75.6893 328.952C75.6893 332.216 82.6733 330.128 82.6733 334.88C82.6733 336.752 80.7293 338.216 77.6333 338.216ZM86.4811 324.488C85.2811 324.488 84.4891 323.744 84.4891 322.688C84.4891 321.656 85.2811 320.888 86.4811 320.888C87.6571 320.888 88.4251 321.656 88.4251 322.688C88.4251 323.744 87.6571 324.488 86.4811 324.488ZM84.7051 338C84.3931 338 84.2011 337.856 84.2011 337.64V337.544C84.2011 337.016 85.0891 336.92 85.0891 335.984V329.696C85.0891 328.712 84.2011 328.472 84.2011 328.04V327.968C84.2011 327.776 84.3691 327.68 84.6331 327.536L87.0331 326.336C87.5851 326.072 87.8971 326.36 87.8971 326.744V335.984C87.8971 336.92 88.8811 337.016 88.8811 337.544V337.64C88.8811 337.856 88.6651 338 88.3531 338H84.7051ZM100.801 335.84C100.969 337.4 102.121 336.92 102.121 337.544C102.121 338 101.209 338.144 100.177 338.144C98.9526 338.144 98.3526 337.88 98.2566 336.704C97.7046 337.592 96.6246 338.24 94.9206 338.24C92.3046 338.24 90.4326 336.968 90.4326 334.616C90.4086 332.264 92.3766 331.016 94.8006 331.016C95.9766 331.016 96.9366 331.328 97.5846 331.832L97.5366 331.352C97.2726 328.568 96.6966 327.128 95.0166 327.128C92.7846 327.128 93.2646 330.032 91.7526 330.032C91.0326 330.032 90.5766 329.6 90.5766 328.928C90.5766 327.416 92.4486 326.24 95.0166 326.24C98.0406 326.24 99.9846 328.136 100.321 331.232L100.801 335.84ZM95.7126 337.328C97.0566 337.328 97.9446 336.2 97.8726 334.904L97.8006 334.16C97.7046 332.792 96.7926 331.928 95.5206 331.928C94.2006 331.928 93.2646 332.84 93.2646 334.28C93.2646 335.912 94.2246 337.328 95.7126 337.328ZM103.428 338C103.116 338 102.924 337.856 102.924 337.64V337.568C102.924 337.016 103.812 336.944 103.812 336.008V323.36C103.812 322.352 102.924 322.16 102.924 321.728V321.656C102.924 321.44 103.092 321.344 103.332 321.224L105.756 320.024C106.308 319.76 106.62 320.048 106.62 320.408V336.008C106.62 336.944 107.604 337.016 107.604 337.568V337.64C107.604 337.856 107.388 338 107.076 338H103.428ZM118.832 334.472C119.096 334.136 119.648 334.232 119.6 334.712C119.384 336.128 117.776 338.24 114.728 338.24C111.512 338.24 109.04 335.864 109.04 332.144C109.04 328.712 111.608 326.24 114.776 326.24C117.872 326.24 119.264 328.088 119.264 329.768C119.264 330.68 118.784 331.184 118.04 331.448L112.232 333.584C112.832 335.216 114.056 336.224 115.76 336.224C117.272 336.224 118.352 335.432 118.832 334.472ZM114.296 327.152C112.784 327.152 111.824 328.76 111.824 331.064C111.824 331.616 111.872 332.12 111.968 332.6L115.952 330.872C116.384 330.68 116.576 330.344 116.576 329.864C116.576 328.88 115.688 327.152 114.296 327.152ZM132.513 338.24C128.433 338.24 126.009 335.312 126.009 332.12C126.009 328.712 128.673 326.24 131.961 326.24C135.753 326.24 138.297 329 138.297 332.312C138.297 335.6 135.993 338.24 132.513 338.24ZM132.873 337.328C134.361 337.328 135.465 335.888 135.465 333.296C135.465 329.936 133.857 327.152 131.648 327.152C129.945 327.152 128.84 328.544 128.84 331.184C128.84 334.16 130.449 337.328 132.873 337.328ZM150.183 326.48C151.239 326.48 151.431 326.792 151.215 327.152C150.927 327.776 150.063 327.68 149.343 327.872C150.231 328.664 150.855 329.888 150.855 331.064C150.855 332.984 149.775 334.52 148.071 335.312C150.159 335.792 151.047 336.872 151.047 338.192C151.047 340.328 148.575 341.672 145.263 341.672C141.639 341.672 139.719 339.896 139.719 338.192C139.719 337.616 140.079 337.064 140.871 337.064C142.647 337.064 141.951 340.76 145.359 340.784C147.087 340.784 148.215 339.776 148.215 338.312C148.215 336.944 147.423 335.984 146.103 335.84C145.815 335.864 145.527 335.888 145.215 335.888C142.167 335.888 139.815 333.848 139.815 331.184C139.815 328.28 142.047 326.24 145.335 326.24C146.919 326.24 147.447 326.48 150.183 326.48ZM142.599 329.96C142.599 332.672 143.991 334.952 145.671 334.952C147.159 334.952 148.071 333.752 148.071 332.12C148.071 329.504 146.799 327.152 144.879 327.152C143.463 327.152 142.599 328.328 142.599 329.96ZM163.789 320.36C165.613 320.36 167.173 321.536 167.173 322.952C167.173 323.432 166.789 323.984 166.069 323.984C163.669 323.984 165.301 321.272 163.261 321.248C161.605 321.224 161.605 323.84 162.229 326.48H165.397C165.637 326.48 165.805 326.672 165.805 326.888V327.272C165.805 327.488 165.637 327.656 165.397 327.656H162.325V335.984C162.325 336.944 163.477 337.04 163.477 337.568V337.664C163.477 337.856 163.309 338 163.069 338H159.013C158.749 338 158.581 337.856 158.581 337.664V337.568C158.581 337.04 159.517 336.944 159.517 335.984V327.656H157.669C157.429 327.656 157.237 327.488 157.237 327.272V326.888C157.237 326.672 157.429 326.48 157.669 326.48H159.517V324.68C159.517 322.232 160.933 320.36 163.789 320.36ZM176.691 335.84C176.859 337.4 178.011 336.92 178.011 337.544C178.011 338 177.099 338.144 176.067 338.144C174.843 338.144 174.243 337.88 174.147 336.704C173.595 337.592 172.515 338.24 170.811 338.24C168.195 338.24 166.323 336.968 166.323 334.616C166.299 332.264 168.267 331.016 170.691 331.016C171.867 331.016 172.827 331.328 173.475 331.832L173.427 331.352C173.163 328.568 172.587 327.128 170.907 327.128C168.675 327.128 169.155 330.032 167.643 330.032C166.923 330.032 166.467 329.6 166.467 328.928C166.467 327.416 168.339 326.24 170.907 326.24C173.931 326.24 175.875 328.136 176.211 331.232L176.691 335.84ZM171.603 337.328C172.947 337.328 173.835 336.2 173.763 334.904L173.691 334.16C173.595 332.792 172.683 331.928 171.411 331.928C170.091 331.928 169.155 332.84 169.155 334.28C169.155 335.912 170.115 337.328 171.603 337.328ZM189.183 326.48C190.239 326.48 190.431 326.792 190.215 327.152C189.927 327.776 189.063 327.68 188.343 327.872C189.231 328.664 189.855 329.888 189.855 331.064C189.855 332.984 188.775 334.52 187.071 335.312C189.159 335.792 190.047 336.872 190.047 338.192C190.047 340.328 187.575 341.672 184.263 341.672C180.639 341.672 178.719 339.896 178.719 338.192C178.719 337.616 179.079 337.064 179.871 337.064C181.647 337.064 180.951 340.76 184.359 340.784C186.087 340.784 187.215 339.776 187.215 338.312C187.215 336.944 186.423 335.984 185.103 335.84C184.815 335.864 184.527 335.888 184.215 335.888C181.167 335.888 178.815 333.848 178.815 331.184C178.815 328.28 181.047 326.24 184.335 326.24C185.919 326.24 186.447 326.48 189.183 326.48ZM181.599 329.96C181.599 332.672 182.991 334.952 184.671 334.952C186.159 334.952 187.071 333.752 187.071 332.12C187.071 329.504 185.799 327.152 183.879 327.152C182.463 327.152 181.599 328.328 181.599 329.96ZM192.256 338C191.944 338 191.752 337.856 191.752 337.64V337.568C191.752 337.016 192.64 336.944 192.64 336.008V323.36C192.64 322.352 191.752 322.16 191.752 321.728V321.656C191.752 321.44 191.92 321.344 192.16 321.224L194.584 320.024C195.136 319.76 195.448 320.048 195.448 320.408V336.008C195.448 336.944 196.432 337.016 196.432 337.568V337.64C196.432 337.856 196.216 338 195.904 338H192.256ZM200.34 324.488C199.14 324.488 198.348 323.744 198.348 322.688C198.348 321.656 199.14 320.888 200.34 320.888C201.516 320.888 202.284 321.656 202.284 322.688C202.284 323.744 201.516 324.488 200.34 324.488ZM198.564 338C198.252 338 198.06 337.856 198.06 337.64V337.544C198.06 337.016 198.948 336.92 198.948 335.984V329.696C198.948 328.712 198.06 328.472 198.06 328.04V327.968C198.06 327.776 198.228 327.68 198.492 327.536L200.892 326.336C201.444 326.072 201.756 326.36 201.756 326.744V335.984C201.756 336.92 202.74 337.016 202.74 337.544V337.64C202.74 337.856 202.524 338 202.212 338H198.564ZM214.636 326.48C215.692 326.48 215.884 326.792 215.668 327.152C215.38 327.776 214.516 327.68 213.796 327.872C214.684 328.664 215.308 329.888 215.308 331.064C215.308 332.984 214.228 334.52 212.524 335.312C214.612 335.792 215.5 336.872 215.5 338.192C215.5 340.328 213.028 341.672 209.716 341.672C206.092 341.672 204.172 339.896 204.172 338.192C204.172 337.616 204.532 337.064 205.324 337.064C207.1 337.064 206.404 340.76 209.812 340.784C211.54 340.784 212.668 339.776 212.668 338.312C212.668 336.944 211.876 335.984 210.556 335.84C210.268 335.864 209.98 335.888 209.668 335.888C206.62 335.888 204.268 333.848 204.268 331.184C204.268 328.28 206.5 326.24 209.788 326.24C211.372 326.24 211.9 326.48 214.636 326.48ZM207.052 329.96C207.052 332.672 208.444 334.952 210.124 334.952C211.612 334.952 212.524 333.752 212.524 332.12C212.524 329.504 211.252 327.152 209.332 327.152C207.916 327.152 207.052 328.328 207.052 329.96ZM226.95 334.472C227.214 334.136 227.766 334.232 227.718 334.712C227.502 336.128 225.894 338.24 222.846 338.24C219.63 338.24 217.158 335.864 217.158 332.144C217.158 328.712 219.726 326.24 222.894 326.24C225.99 326.24 227.382 328.088 227.382 329.768C227.382 330.68 226.902 331.184 226.158 331.448L220.35 333.584C220.95 335.216 222.174 336.224 223.878 336.224C225.39 336.224 226.47 335.432 226.95 334.472ZM222.414 327.152C220.902 327.152 219.942 328.76 219.942 331.064C219.942 331.616 219.99 332.12 220.086 332.6L224.07 330.872C224.502 330.68 224.694 330.344 224.694 329.864C224.694 328.88 223.806 327.152 222.414 327.152ZM54.6288 365.84C54.7968 367.4 55.9488 366.92 55.9488 367.544C55.9488 368 55.0368 368.144 54.0048 368.144C52.7808 368.144 52.1808 367.88 52.0848 366.704C51.5328 367.592 50.4528 368.24 48.7488 368.24C46.1328 368.24 44.2607 366.968 44.2607 364.616C44.2368 362.264 46.2048 361.016 48.6288 361.016C49.8047 361.016 50.7648 361.328 51.4128 361.832L51.3648 361.352C51.1008 358.568 50.5247 357.128 48.8448 357.128C46.6128 357.128 47.0928 360.032 45.5808 360.032C44.8608 360.032 44.4048 359.6 44.4048 358.928C44.4048 357.416 46.2768 356.24 48.8448 356.24C51.8688 356.24 53.8128 358.136 54.1488 361.232L54.6288 365.84ZM49.5408 367.328C50.8848 367.328 51.7728 366.2 51.7008 364.904L51.6288 364.16C51.5328 362.792 50.6208 361.928 49.3488 361.928C48.0288 361.928 47.0928 362.84 47.0928 364.28C47.0928 365.912 48.0528 367.328 49.5408 367.328ZM63.4484 356.24C64.8644 356.24 65.6564 357.152 65.6564 358.256C65.6564 359.072 65.3204 359.768 64.4084 359.768C62.8484 359.768 63.5684 357.896 62.1764 357.896C61.0484 357.896 60.5204 359.312 60.5204 360.872V366.008C60.5204 366.944 61.6244 367.04 61.6244 367.568V367.664C61.6244 367.88 61.4324 368 61.1204 368H57.4004C57.0884 368 56.8964 367.88 56.8964 367.664V367.568C56.8964 367.04 57.8084 366.944 57.8084 366.008V359.552C57.8084 358.568 56.7764 358.52 56.7764 357.992V357.92C56.7764 357.728 56.9444 357.56 57.2084 357.416L59.5604 356.336C60.0644 356.096 60.2564 356.336 60.2564 356.744V358.616C60.7844 357.08 61.9124 356.24 63.4484 356.24ZM73.1749 356.24C74.5909 356.24 75.3829 357.152 75.3829 358.256C75.3829 359.072 75.0469 359.768 74.1349 359.768C72.5749 359.768 73.2949 357.896 71.9029 357.896C70.7749 357.896 70.2469 359.312 70.2469 360.872V366.008C70.2469 366.944 71.3509 367.04 71.3509 367.568V367.664C71.3509 367.88 71.1589 368 70.8469 368H67.1269C66.8149 368 66.6229 367.88 66.6229 367.664V367.568C66.6229 367.04 67.5349 366.944 67.5349 366.008V359.552C67.5349 358.568 66.5029 358.52 66.5029 357.992V357.92C66.5029 357.728 66.6709 357.56 66.9349 357.416L69.2869 356.336C69.7909 356.096 69.9829 356.336 69.9829 356.744V358.616C70.5109 357.08 71.6389 356.24 73.1749 356.24ZM86.4569 365.84C86.6249 367.4 87.7769 366.92 87.7769 367.544C87.7769 368 86.8649 368.144 85.8329 368.144C84.6089 368.144 84.0089 367.88 83.9129 366.704C83.3609 367.592 82.2809 368.24 80.5769 368.24C77.9609 368.24 76.0889 366.968 76.0889 364.616C76.0649 362.264 78.0329 361.016 80.4569 361.016C81.6329 361.016 82.5929 361.328 83.2409 361.832L83.1929 361.352C82.9289 358.568 82.3529 357.128 80.6729 357.128C78.4409 357.128 78.9209 360.032 77.4089 360.032C76.6889 360.032 76.2329 359.6 76.2329 358.928C76.2329 357.416 78.1049 356.24 80.6729 356.24C83.6969 356.24 85.6409 358.136 85.9769 361.232L86.4569 365.84ZM81.3689 367.328C82.7129 367.328 83.6009 366.2 83.5289 364.904L83.4569 364.16C83.3609 362.792 82.4489 361.928 81.1769 361.928C79.8569 361.928 78.9209 362.84 78.9209 364.28C78.9209 365.912 79.8809 367.328 81.3689 367.328ZM100.581 365.984C100.629 366.944 101.445 367.04 101.445 367.568V367.664C101.445 367.88 101.229 368.024 100.917 368.024H97.4125C97.0765 368.024 96.8845 367.88 96.8845 367.664V367.568C96.8845 367.04 97.7965 366.944 97.7485 365.984L97.5085 361.352C97.3885 358.616 96.4525 357.392 94.9885 357.392C93.4525 357.392 92.4685 358.64 92.4685 360.368V366.008C92.4685 366.944 93.4525 367.04 93.4525 367.568V367.664C93.4525 367.88 93.2605 368.024 92.9245 368.024H89.2045C88.8925 368.024 88.7005 367.88 88.7005 367.664V367.568C88.7005 367.04 89.6605 366.944 89.6605 366.008V359.576C89.6605 358.52 88.5805 358.496 88.5805 357.968V357.896C88.5805 357.704 88.7485 357.584 89.0125 357.464L91.3405 356.336C91.8445 356.072 92.0845 356.36 92.0845 356.768V358.328C92.7565 357.032 94.0765 356.24 95.7325 356.24C97.9885 356.24 100.053 357.68 100.293 361.448L100.581 365.984ZM113.058 356.48C114.114 356.48 114.306 356.792 114.09 357.152C113.802 357.776 112.938 357.68 112.218 357.872C113.106 358.664 113.73 359.888 113.73 361.064C113.73 362.984 112.65 364.52 110.946 365.312C113.034 365.792 113.922 366.872 113.922 368.192C113.922 370.328 111.45 371.672 108.138 371.672C104.514 371.672 102.594 369.896 102.594 368.192C102.594 367.616 102.954 367.064 103.746 367.064C105.522 367.064 104.826 370.76 108.234 370.784C109.962 370.784 111.09 369.776 111.09 368.312C111.09 366.944 110.298 365.984 108.978 365.84C108.69 365.864 108.402 365.888 108.09 365.888C105.042 365.888 102.69 363.848 102.69 361.184C102.69 358.28 104.922 356.24 108.21 356.24C109.794 356.24 110.322 356.48 113.058 356.48ZM105.474 359.96C105.474 362.672 106.866 364.952 108.546 364.952C110.034 364.952 110.946 363.752 110.946 362.12C110.946 359.504 109.674 357.152 107.754 357.152C106.338 357.152 105.474 358.328 105.474 359.96ZM125.371 364.472C125.635 364.136 126.187 364.232 126.139 364.712C125.923 366.128 124.315 368.24 121.267 368.24C118.051 368.24 115.579 365.864 115.579 362.144C115.579 358.712 118.147 356.24 121.315 356.24C124.411 356.24 125.803 358.088 125.803 359.768C125.803 360.68 125.323 361.184 124.579 361.448L118.771 363.584C119.371 365.216 120.595 366.224 122.299 366.224C123.811 366.224 124.891 365.432 125.371 364.472ZM120.835 357.152C119.323 357.152 118.363 358.76 118.363 361.064C118.363 361.616 118.411 362.12 118.507 362.6L122.491 360.872C122.923 360.68 123.115 360.344 123.115 359.864C123.115 358.88 122.227 357.152 120.835 357.152ZM147.119 365.984C147.167 366.944 147.983 367.064 147.983 367.592V367.688C147.983 367.904 147.767 368.024 147.479 368.024H143.951C143.639 368.024 143.447 367.904 143.447 367.688V367.592C143.447 367.064 144.335 366.944 144.287 366.008L144.047 361.472C143.903 358.496 143.015 357.392 141.503 357.392C140.183 357.392 139.175 358.592 139.103 360.224C139.175 360.584 139.199 360.968 139.199 361.376V366.008C139.199 366.944 140.039 367.064 140.039 367.592V367.688C140.039 367.904 139.847 368.024 139.535 368.024H136.055C135.743 368.024 135.527 367.904 135.527 367.688V367.592C135.527 367.064 136.367 366.944 136.367 366.008V361.208C136.367 358.76 135.287 357.392 133.847 357.392C132.359 357.392 131.399 358.64 131.327 360.248L131.351 366.008C131.351 366.944 132.311 367.064 132.311 367.592V367.688C132.311 367.904 132.119 368.024 131.807 368.024H128.087C127.775 368.024 127.559 367.904 127.559 367.688V367.592C127.559 367.064 128.519 366.944 128.519 366.008V359.576C128.519 358.568 127.463 358.496 127.463 357.968V357.896C127.463 357.704 127.631 357.584 127.895 357.464L130.343 356.336C130.847 356.072 131.111 356.36 131.111 356.768V358.184C131.807 357.008 133.055 356.24 134.543 356.24C136.271 356.24 137.783 357.08 138.599 358.616C139.223 357.104 140.663 356.24 142.343 356.24C144.647 356.24 146.567 357.608 146.831 361.544L147.119 365.984ZM158.981 364.472C159.245 364.136 159.797 364.232 159.749 364.712C159.533 366.128 157.925 368.24 154.877 368.24C151.661 368.24 149.189 365.864 149.189 362.144C149.189 358.712 151.757 356.24 154.925 356.24C158.021 356.24 159.413 358.088 159.413 359.768C159.413 360.68 158.933 361.184 158.189 361.448L152.381 363.584C152.981 365.216 154.205 366.224 155.909 366.224C157.421 366.224 158.501 365.432 158.981 364.472ZM154.445 357.152C152.933 357.152 151.973 358.76 151.973 361.064C151.973 361.616 152.021 362.12 152.117 362.6L156.101 360.872C156.533 360.68 156.725 360.344 156.725 359.864C156.725 358.88 155.837 357.152 154.445 357.152ZM173.073 365.984C173.121 366.944 173.937 367.04 173.937 367.568V367.664C173.937 367.88 173.721 368.024 173.409 368.024H169.905C169.569 368.024 169.377 367.88 169.377 367.664V367.568C169.377 367.04 170.289 366.944 170.241 365.984L170.001 361.352C169.881 358.616 168.945 357.392 167.481 357.392C165.945 357.392 164.961 358.64 164.961 360.368V366.008C164.961 366.944 165.945 367.04 165.945 367.568V367.664C165.945 367.88 165.753 368.024 165.417 368.024H161.697C161.385 368.024 161.193 367.88 161.193 367.664V367.568C161.193 367.04 162.153 366.944 162.153 366.008V359.576C162.153 358.52 161.073 358.496 161.073 357.968V357.896C161.073 357.704 161.241 357.584 161.505 357.464L163.833 356.336C164.337 356.072 164.577 356.36 164.577 356.768V358.328C165.249 357.032 166.569 356.24 168.225 356.24C170.481 356.24 172.545 357.68 172.785 361.448L173.073 365.984ZM179.601 368.24C177.585 368.24 176.241 366.944 176.241 364.352V357.656H174.873C174.633 357.656 174.465 357.488 174.465 357.248V356.912C174.465 356.648 174.609 356.48 174.873 356.48H175.617C176.865 356.48 177.609 355.544 177.801 354.152C177.849 353.816 178.041 353.624 178.281 353.624H178.641C178.953 353.624 179.097 353.816 179.097 354.152L179.121 356.48H182.145C182.385 356.48 182.577 356.672 182.577 356.912V357.248C182.577 357.488 182.385 357.656 182.145 357.656H179.121V364.376C179.121 365.528 179.697 366.152 180.489 366.152C181.497 366.152 182.049 365.6 182.193 364.904C182.409 364.52 182.985 364.592 182.985 365.024C182.985 366.632 181.761 368.24 179.601 368.24ZM193.621 364.472C193.885 364.136 194.437 364.232 194.389 364.712C194.173 366.128 192.565 368.24 189.517 368.24C186.301 368.24 183.829 365.864 183.829 362.144C183.829 358.712 186.397 356.24 189.565 356.24C192.661 356.24 194.053 358.088 194.053 359.768C194.053 360.68 193.573 361.184 192.829 361.448L187.021 363.584C187.621 365.216 188.845 366.224 190.549 366.224C192.061 366.224 193.141 365.432 193.621 364.472ZM189.085 357.152C187.573 357.152 186.613 358.76 186.613 361.064C186.613 361.616 186.661 362.12 186.757 362.6L190.741 360.872C191.173 360.68 191.365 360.344 191.365 359.864C191.365 358.88 190.477 357.152 189.085 357.152ZM202.409 356.24C203.825 356.24 204.617 357.152 204.617 358.256C204.617 359.072 204.281 359.768 203.369 359.768C201.809 359.768 202.529 357.896 201.137 357.896C200.009 357.896 199.481 359.312 199.481 360.872V366.008C199.481 366.944 200.585 367.04 200.585 367.568V367.664C200.585 367.88 200.393 368 200.081 368H196.361C196.049 368 195.857 367.88 195.857 367.664V367.568C195.857 367.04 196.769 366.944 196.769 366.008V359.552C196.769 358.568 195.737 358.52 195.737 357.992V357.92C195.737 357.728 195.905 357.56 196.169 357.416L198.521 356.336C199.025 356.096 199.217 356.336 199.217 356.744V358.616C199.745 357.08 200.873 356.24 202.409 356.24Z" fill="#333333"/>
<path d="M44.0988 393H45.3438L46.0638 388.44C46.3038 386.955 47.4287 386.085 48.7338 386.085C49.8288 386.085 50.2938 386.715 50.0838 388.02L49.2888 393H50.5338L51.2838 388.305C51.6588 385.935 50.6388 385.02 49.0038 385.02C47.7288 385.02 46.7988 385.77 46.2588 386.715C46.3188 386.19 46.3488 385.59 46.3488 385.155H45.1788C45.1638 385.815 45.1338 386.43 44.9688 387.495L44.0988 393ZM56.4107 393.12C58.8707 393.12 60.5957 391.155 60.5957 388.485C60.5957 386.46 59.2607 385.035 57.0857 385.035C54.7307 385.035 52.9157 387.015 52.9157 389.64C52.9157 391.635 54.2357 393.12 56.4107 393.12ZM56.4707 392.1C54.9407 392.1 54.2057 391.125 54.2057 389.64C54.2057 387.6 55.3307 386.055 57.0107 386.055C58.5107 386.055 59.2907 387.03 59.2907 388.515C59.2907 390.555 58.2407 392.1 56.4707 392.1ZM63.3307 393H64.9207L68.9257 385.155H67.6057L64.3207 391.8L63.1057 385.155H61.7857L63.3307 393ZM70.3626 389.835C70.3626 389.655 70.3626 389.49 70.3776 389.325H76.1826L76.2276 389.04C76.6476 386.355 75.3126 385.035 73.1826 385.035C70.8726 385.035 69.0876 387 69.0876 389.775C69.0876 391.74 70.3476 393.135 72.4776 393.135C74.0676 393.135 75.4476 392.355 75.9276 390.735H74.6826C74.3826 391.635 73.6176 392.1 72.5226 392.1C71.0226 392.1 70.3626 391.26 70.3626 389.835ZM73.1076 386.055C74.5326 386.055 75.1926 386.745 75.0726 388.32H70.5276C70.9176 386.715 71.9976 386.055 73.1076 386.055ZM77.4386 393H78.6836L79.4186 388.35C79.6586 386.865 80.7386 386.085 81.8036 386.085C82.8536 386.085 83.3186 386.745 83.1086 388.05L82.3286 393H83.5736L84.3086 388.35C84.5636 386.79 85.6736 386.085 86.6936 386.085C87.7886 386.085 88.2086 386.715 87.9836 388.14L87.2186 393H88.4636L89.1986 388.335C89.5886 385.89 88.4636 385.02 86.9636 385.02C86.0786 385.02 84.9386 385.47 84.2486 386.73C84.0236 385.515 83.1986 385.02 82.1036 385.02C81.0686 385.02 80.1686 385.65 79.6136 386.64C79.6736 386.115 79.6886 385.59 79.6886 385.155H78.5186C78.5036 385.815 78.4736 386.43 78.3086 387.495L77.4386 393ZM95.1455 393.135C97.6055 393.135 99.0605 390.99 99.0605 388.47C99.0605 386.37 97.7405 385.02 95.9105 385.02C94.7555 385.02 93.6905 385.665 93.1655 386.535L93.9755 381.405H92.7305L90.9005 393H92.1455L92.3855 391.53C92.7305 392.295 93.5555 393.135 95.1455 393.135ZM95.0705 392.115C93.5855 392.115 92.6555 391.185 92.6555 389.67C92.6555 387.42 93.9755 386.04 95.6705 386.04C96.9455 386.04 97.7405 386.94 97.7405 388.545C97.7405 390.585 96.7805 392.115 95.0705 392.115ZM101.52 389.835C101.52 389.655 101.52 389.49 101.535 389.325H107.34L107.385 389.04C107.805 386.355 106.47 385.035 104.34 385.035C102.03 385.035 100.245 387 100.245 389.775C100.245 391.74 101.505 393.135 103.635 393.135C105.225 393.135 106.605 392.355 107.085 390.735H105.84C105.54 391.635 104.775 392.1 103.68 392.1C102.18 392.1 101.52 391.26 101.52 389.835ZM104.265 386.055C105.69 386.055 106.35 386.745 106.23 388.32H101.685C102.075 386.715 103.155 386.055 104.265 386.055ZM108.596 393H109.841L110.486 388.92C110.801 386.925 111.896 386.265 113.471 386.19L113.651 385.02C112.106 385.05 111.416 385.725 110.756 386.76C110.816 386.16 110.846 385.59 110.846 385.155H109.676C109.661 385.815 109.631 386.43 109.466 387.495L108.596 393ZM118.371 389.46H121.581L121.761 388.29H118.551L118.371 389.46ZM129.42 383.52C129.87 383.52 130.245 383.13 130.245 382.68C130.245 382.23 129.885 381.87 129.435 381.87C128.985 381.87 128.595 382.26 128.595 382.71C128.595 383.16 128.97 383.52 129.42 383.52ZM125.595 395.85C127.335 395.85 128.13 395.055 128.34 393.69L129.69 385.155H128.445L127.11 393.615C126.99 394.35 126.66 394.77 125.76 394.815L125.595 395.85ZM138.538 385.155H137.293L136.573 389.715C136.333 391.2 135.238 392.07 133.933 392.07C132.853 392.07 132.418 391.365 132.613 390.135L133.408 385.155H132.163L131.413 389.85C131.053 392.13 132.028 393.135 133.663 393.135C134.938 393.135 135.838 392.385 136.393 391.44C136.318 391.965 136.288 392.55 136.318 393H137.503C137.473 392.355 137.503 391.725 137.668 390.66L138.538 385.155ZM139.812 393H141.057L141.777 388.44C142.017 386.955 143.142 386.085 144.447 386.085C145.542 386.085 146.007 386.715 145.797 388.02L145.002 393H146.247L146.997 388.305C147.372 385.935 146.352 385.02 144.717 385.02C143.442 385.02 142.512 385.77 141.972 386.715C142.032 386.19 142.062 385.59 142.062 385.155H140.892C140.877 385.815 140.847 386.43 140.682 387.495L139.812 393ZM150.939 383.52C151.389 383.52 151.764 383.13 151.764 382.68C151.764 382.23 151.404 381.87 150.954 381.87C150.504 381.87 150.114 382.26 150.114 382.71C150.114 383.16 150.489 383.52 150.939 383.52ZM148.719 393H149.964L151.209 385.155H149.964L148.719 393Z" fill="#333333"/>
<path d="M52.8288 449.24C57.4848 449.24 61.0608 445.472 61.0608 440.576C61.0608 435.848 57.7488 431.72 52.7088 431.72C47.7408 431.72 44.3088 435.416 44.3088 440.48C44.3088 445.16 47.7408 449.24 52.8288 449.24ZM53.5968 447.944C49.7328 447.944 47.1648 443.624 47.1648 438.32C47.1648 435.224 48.9648 433.016 51.7008 433.016C55.5648 433.016 58.2048 437.36 58.2048 442.688C58.2048 445.544 56.3328 447.944 53.5968 447.944ZM69.4746 437.24C67.8906 437.24 66.5706 437.912 65.8986 439.064L65.9226 437.744C65.9226 437.336 65.7066 437.072 65.1306 437.36L62.9226 438.44C62.6586 438.56 62.4906 438.728 62.4906 438.944V439.04C62.4906 439.592 63.5226 439.64 63.5226 440.552V452.312C63.5226 453.272 62.6106 453.368 62.6106 453.896V453.968C62.6106 454.208 62.8266 454.328 63.1386 454.328H66.7866C67.0986 454.328 67.3146 454.208 67.3146 453.968V453.896C67.3146 453.368 66.3306 453.272 66.3306 452.312V447.968C67.1226 448.784 68.1786 449.24 69.4986 449.24C72.5226 449.24 75.0426 446.696 75.0426 443.048C75.0426 439.4 72.3546 437.24 69.4746 437.24ZM69.1626 448.328C67.6986 448.328 66.3306 446.672 66.3306 444.92V440.48C66.4986 439.136 67.5546 438.152 68.7786 438.152C70.8426 438.152 72.2106 440.504 72.2106 443.936C72.2106 446.744 71.0586 448.328 69.1626 448.328ZM83.3965 437.24C81.8125 437.24 80.4925 437.912 79.8205 439.064L79.8445 437.744C79.8445 437.336 79.6285 437.072 79.0525 437.36L76.8445 438.44C76.5805 438.56 76.4125 438.728 76.4125 438.944V439.04C76.4125 439.592 77.4445 439.64 77.4445 440.552V452.312C77.4445 453.272 76.5325 453.368 76.5325 453.896V453.968C76.5325 454.208 76.7485 454.328 77.0605 454.328H80.7085C81.0205 454.328 81.2365 454.208 81.2365 453.968V453.896C81.2365 453.368 80.2525 453.272 80.2525 452.312V447.968C81.0445 448.784 82.1005 449.24 83.4205 449.24C86.4445 449.24 88.9645 446.696 88.9645 443.048C88.9645 439.4 86.2765 437.24 83.3965 437.24ZM83.0845 448.328C81.6205 448.328 80.2525 446.672 80.2525 444.92V440.48C80.4205 439.136 81.4765 438.152 82.7005 438.152C84.7645 438.152 86.1325 440.504 86.1325 443.936C86.1325 446.744 84.9805 448.328 83.0845 448.328ZM95.4224 449.216C98.5184 449.216 100.462 447.752 100.462 445.88C100.462 441.128 93.4784 443.216 93.4784 439.952C93.4784 438.92 94.3184 438.104 95.4944 438.104C98.0144 438.104 97.3664 441.128 99.0464 441.128C99.6704 441.128 100.15 440.696 100.15 440.096C100.15 438.704 98.3504 437.24 95.3504 437.24C92.5904 437.24 90.6464 438.704 90.6464 440.648C90.6464 445.448 97.6304 443.312 97.6304 446.552C97.6304 447.776 96.6944 448.4 95.4224 448.4C92.6144 448.4 93.4064 445.352 91.6064 445.352C90.9104 445.352 90.4064 445.712 90.4064 446.456C90.4064 447.776 92.2784 449.216 95.4224 449.216ZM106.336 449.24C108.496 449.24 109.72 447.632 109.72 446.024C109.72 445.592 109.144 445.52 108.928 445.904C108.784 446.6 108.232 447.152 107.224 447.152C106.432 447.152 105.856 446.528 105.856 445.376V438.656H108.88C109.12 438.656 109.312 438.488 109.312 438.248V437.912C109.312 437.672 109.12 437.48 108.88 437.48H105.856L105.832 435.152C105.832 434.816 105.688 434.624 105.376 434.624H105.016C104.776 434.624 104.584 434.816 104.536 435.152C104.344 436.544 103.6 437.48 102.352 437.48H101.608C101.344 437.48 101.2 437.648 101.2 437.912V438.248C101.2 438.488 101.368 438.656 101.608 438.656H102.976V445.352C102.976 447.944 104.32 449.24 106.336 449.24ZM121.098 446.84L120.618 442.232C120.282 439.136 118.338 437.24 115.314 437.24C112.746 437.24 110.874 438.416 110.874 439.928C110.874 440.6 111.33 441.032 112.05 441.032C113.562 441.032 113.082 438.128 115.314 438.128C116.993 438.128 117.57 439.568 117.834 442.352L117.882 442.832C117.234 442.328 116.273 442.016 115.098 442.016C112.674 442.016 110.706 443.264 110.729 445.616C110.729 447.968 112.602 449.24 115.218 449.24C116.922 449.24 118.002 448.592 118.554 447.704C118.65 448.88 119.25 449.144 120.474 449.144C121.506 449.144 122.418 449 122.418 448.544C122.418 447.92 121.266 448.4 121.098 446.84ZM116.01 448.328C114.522 448.328 113.562 446.912 113.562 445.28C113.562 443.84 114.498 442.928 115.818 442.928C117.09 442.928 118.002 443.792 118.098 445.16L118.17 445.904C118.242 447.2 117.354 448.328 116.01 448.328ZM129.917 437.24C128.381 437.24 127.253 438.08 126.725 439.616V437.744C126.725 437.336 126.533 437.096 126.029 437.336L123.677 438.416C123.413 438.56 123.245 438.728 123.245 438.92V438.992C123.245 439.52 124.277 439.568 124.277 440.552V447.008C124.277 447.944 123.365 448.04 123.365 448.568V448.664C123.365 448.88 123.557 449 123.869 449H127.589C127.901 449 128.093 448.88 128.093 448.664V448.568C128.093 448.04 126.989 447.944 126.989 447.008V441.872C126.989 440.312 127.517 438.896 128.645 438.896C130.037 438.896 129.317 440.768 130.877 440.768C131.789 440.768 132.125 440.072 132.125 439.256C132.125 438.152 131.333 437.24 129.917 437.24ZM137.508 449.24C139.668 449.24 140.892 447.632 140.892 446.024C140.892 445.592 140.316 445.52 140.1 445.904C139.956 446.6 139.404 447.152 138.396 447.152C137.604 447.152 137.028 446.528 137.028 445.376V438.656H140.052C140.292 438.656 140.484 438.488 140.484 438.248V437.912C140.484 437.672 140.292 437.48 140.052 437.48H137.028L137.004 435.152C137.004 434.816 136.86 434.624 136.548 434.624H136.188C135.948 434.624 135.756 434.816 135.708 435.152C135.516 436.544 134.772 437.48 133.524 437.48H132.78C132.516 437.48 132.372 437.648 132.372 437.912V438.248C132.372 438.488 132.54 438.656 132.78 438.656H134.148V445.352C134.148 447.944 135.492 449.24 137.508 449.24Z" fill="#333333"/>
<path d="M45.7338 474H47.0388L48.7338 463.275H47.5188L44.7438 465.075L44.5488 466.32L47.2188 464.595L45.7338 474ZM50.9335 474.075C51.4585 474.075 51.8935 473.655 51.8935 473.115C51.8935 472.575 51.4435 472.155 50.9185 472.155C50.3935 472.155 49.9735 472.575 49.9735 473.115C49.9735 473.655 50.4085 474.075 50.9335 474.075ZM60.4716 474.12C61.4166 474.12 62.2716 473.655 62.8266 472.755C62.7966 473.1 62.7966 473.58 62.8416 474H64.0116C63.9366 473.34 63.9816 472.68 64.1466 471.66L64.5816 468.93C64.9116 466.815 63.6816 466.02 61.9266 466.02C60.6666 466.02 59.1216 466.59 58.7616 468.465H60.0066C60.2166 467.49 60.8616 467.055 61.8816 467.055C63.1416 467.055 63.5466 467.625 63.3516 468.825L63.2616 469.395H61.7466C59.6916 469.395 57.9366 469.965 57.9366 471.9C57.9366 473.235 58.8666 474.12 60.4716 474.12ZM60.6366 473.145C59.6316 473.145 59.1666 472.59 59.1666 471.9C59.1666 470.7 60.0216 470.28 61.7766 470.28H63.1116L62.9766 471.135C62.7666 472.5 61.8066 473.145 60.6366 473.145ZM73.6896 466.155H72.4446L71.7246 470.715C71.4846 472.2 70.3896 473.07 69.0846 473.07C68.0046 473.07 67.5696 472.365 67.7646 471.135L68.5596 466.155H67.3146L66.5646 470.85C66.2046 473.13 67.1796 474.135 68.8146 474.135C70.0896 474.135 70.9896 473.385 71.5446 472.44C71.4696 472.965 71.4396 473.55 71.4696 474H72.6546C72.6246 473.355 72.6546 472.725 72.8196 471.66L73.6896 466.155ZM83.093 466.155H81.848L81.623 467.58C81.263 466.83 80.468 466.02 78.968 466.02C76.673 466.02 75.008 468.015 75.008 470.37C75.008 472.35 76.358 473.715 78.278 473.715C79.433 473.715 80.273 473.235 80.858 472.395L80.678 473.49C80.423 475.005 79.673 475.8 77.993 475.8C76.598 475.8 75.938 475.245 75.788 474.45H74.528C74.678 475.575 75.488 476.85 78.023 476.85C80.198 476.85 81.578 475.77 81.923 473.61L83.093 466.155ZM78.413 472.71C77.033 472.71 76.313 471.72 76.313 470.31C76.313 468.57 77.333 467.055 79.013 467.055C80.348 467.055 81.338 467.895 81.338 469.335C81.338 471.45 79.973 472.71 78.413 472.71ZM91.8537 466.155H90.6087L89.8887 470.715C89.6487 472.2 88.5537 473.07 87.2487 473.07C86.1687 473.07 85.7337 472.365 85.9287 471.135L86.7237 466.155H85.4787L84.7287 470.85C84.3687 473.13 85.3437 474.135 86.9787 474.135C88.2537 474.135 89.1537 473.385 89.7087 472.44C89.6337 472.965 89.6037 473.55 89.6337 474H90.8187C90.7887 473.355 90.8187 472.725 90.9837 471.66L91.8537 466.155ZM95.9321 474.135C97.6871 474.135 98.7971 473.19 98.7971 471.75C98.7971 470.31 97.9271 469.815 96.3671 469.425C95.1371 469.125 94.7771 468.825 94.7771 468.225C94.7771 467.49 95.3321 467.055 96.3071 467.055C97.2821 467.055 97.8971 467.535 97.9421 468.285H99.1121C99.0221 466.695 97.8671 466.02 96.3371 466.02C94.9271 466.02 93.6071 466.8 93.6071 468.3C93.6071 469.485 94.2371 470.1 95.9921 470.535C97.1771 470.835 97.5821 471.135 97.5821 471.81C97.5821 472.62 97.0721 473.1 95.9771 473.1C94.5821 473.1 94.1471 472.425 94.0871 471.585H92.8721C92.9021 472.935 93.8471 474.135 95.9321 474.135ZM102.764 474.105C103.124 474.105 103.454 474.045 103.724 473.925L103.889 472.89C103.604 472.995 103.259 473.055 102.959 473.055C102.254 473.055 101.954 472.755 102.089 471.9L102.839 467.205H104.624L104.789 466.155H103.004L103.289 464.37H102.044L101.759 466.155H100.634L100.469 467.205H101.594L100.859 471.855C100.664 473.13 101.219 474.105 102.764 474.105Z" fill="#333333"/>
<circle cx="6.5" cy="12.5" r="6" fill="#333333" stroke="#333333"/>
<circle cx="6.5" cy="92.5" r="6" fill="#333333" stroke="#333333"/>
<circle cx="6.5" cy="172.5" r="6" fill="#333333" stroke="#333333"/>
<circle cx="6.5" cy="440.5" r="6" fill="#333333" stroke="#333333"/>
<circle cx="6.5" cy="249.5" r="6" fill="#333333" stroke="#333333"/>
<circle cx="6.5" cy="329.5" r="6" fill="#333333" stroke="#333333"/>
</svg>
