<svg width="540" height="607" viewBox="0 0 540 607" fill="none" xmlns="http://www.w3.org/2000/svg">
<path fill-rule="evenodd" clip-rule="evenodd" d="M456.917 220.11C466.197 268.509 546.171 298.967 531.12 346.598C517.035 391.173 443.34 387.061 397.762 407.316C358.201 424.897 324.444 455.424 280.889 457.8C236.116 460.243 195.592 439.828 156.486 420.482C114.08 399.503 56.0629 384.154 44.701 340.955C33.0418 296.626 84.4859 259.154 102.747 216.161C116.481 183.827 112.394 144.791 138.678 119.703C164.711 94.8545 208.713 100.618 241.413 83.8032C288.51 59.5861 317.998 -1.51677 371.414 0.0287578C422.326 1.5018 465.034 46.9292 482.065 90.7661C498.254 132.436 448.536 176.403 456.917 220.11Z" fill="#EDE8D7"/>
<path d="M173.5 551.742C173.24 551.742 173.08 551.622 173.08 551.462V551.402C173.08 550.962 173.82 550.862 173.82 550.082V539.202C173.82 538.402 173.08 538.342 173.08 537.882V537.822C173.08 537.642 173.24 537.542 173.5 537.542H176.64C176.9 537.542 177.08 537.642 177.08 537.822V537.882C177.08 538.342 176.26 538.402 176.26 539.202V549.782C176.26 550.302 176.5 550.722 177 550.722H180.66C182 550.722 182.26 548.322 183.04 548.322H183.24C183.46 548.322 183.58 548.462 183.52 548.722L183.02 551.222C182.94 551.562 182.8 551.742 182.44 551.742H173.5ZM192.479 548.802C192.699 548.522 193.159 548.602 193.119 549.002C192.939 550.182 191.599 551.942 189.059 551.942C186.379 551.942 184.319 549.962 184.319 546.862C184.319 544.002 186.459 541.942 189.099 541.942C191.679 541.942 192.839 543.482 192.839 544.882C192.839 545.642 192.439 546.062 191.819 546.282L186.979 548.062C187.479 549.422 188.499 550.262 189.919 550.262C191.179 550.262 192.079 549.602 192.479 548.802ZM188.699 542.702C187.439 542.702 186.639 544.042 186.639 545.962C186.639 546.422 186.679 546.842 186.759 547.242L190.079 545.802C190.439 545.642 190.599 545.362 190.599 544.962C190.599 544.142 189.859 542.702 188.699 542.702ZM203.762 550.082C203.762 550.862 204.522 550.982 204.522 551.402V551.462C204.522 551.642 204.402 551.742 204.182 551.742H202.102C201.862 551.742 201.722 551.582 201.702 551.362L201.642 550.662C200.982 551.502 199.942 551.942 198.842 551.942C196.402 551.942 194.182 550.042 194.182 546.922C194.182 543.982 196.262 541.942 198.882 541.942C199.962 541.942 200.862 542.342 201.502 542.962V539.202C201.502 538.322 200.582 538.302 200.582 537.862V537.822C200.582 537.642 200.722 537.502 200.942 537.422L203.062 536.742C203.542 536.582 203.762 536.702 203.762 537.102V550.082ZM199.382 551.182C200.362 551.182 201.502 550.342 201.502 548.602V545.402C201.502 544.122 200.362 542.702 198.962 542.702C197.482 542.702 196.502 543.982 196.462 546.102C196.402 548.822 197.562 551.142 199.382 551.182ZM207.746 540.482C206.746 540.482 206.086 539.862 206.086 538.982C206.086 538.122 206.746 537.482 207.746 537.482C208.726 537.482 209.366 538.122 209.366 538.982C209.366 539.862 208.726 540.482 207.746 540.482ZM206.266 551.742C206.006 551.742 205.846 551.622 205.846 551.442V551.362C205.846 550.922 206.586 550.842 206.586 550.062V544.822C206.586 544.002 205.846 543.802 205.846 543.442V543.382C205.846 543.222 205.986 543.142 206.206 543.022L208.206 542.022C208.666 541.802 208.926 542.042 208.926 542.362V550.062C208.926 550.842 209.746 550.922 209.746 551.362V551.442C209.746 551.622 209.566 551.742 209.306 551.742H206.266ZM219.659 542.142C220.539 542.142 220.699 542.402 220.519 542.702C220.279 543.222 219.559 543.142 218.959 543.302C219.699 543.962 220.219 544.982 220.219 545.962C220.219 547.562 219.319 548.842 217.899 549.502C219.639 549.902 220.379 550.802 220.379 551.902C220.379 553.682 218.319 554.802 215.559 554.802C212.539 554.802 210.939 553.322 210.939 551.902C210.939 551.422 211.239 550.962 211.899 550.962C213.379 550.962 212.799 554.042 215.639 554.062C217.079 554.062 218.019 553.222 218.019 552.002C218.019 550.862 217.359 550.062 216.259 549.942C216.019 549.962 215.779 549.982 215.519 549.982C212.979 549.982 211.019 548.282 211.019 546.062C211.019 543.642 212.879 541.942 215.619 541.942C216.939 541.942 217.379 542.142 219.659 542.142ZM213.339 545.042C213.339 547.302 214.499 549.202 215.899 549.202C217.139 549.202 217.899 548.202 217.899 546.842C217.899 544.662 216.839 542.702 215.239 542.702C214.059 542.702 213.339 543.682 213.339 545.042ZM229.92 548.802C230.14 548.522 230.6 548.602 230.56 549.002C230.38 550.182 229.04 551.942 226.5 551.942C223.82 551.942 221.76 549.962 221.76 546.862C221.76 544.002 223.9 541.942 226.54 541.942C229.12 541.942 230.28 543.482 230.28 544.882C230.28 545.642 229.88 546.062 229.26 546.282L224.42 548.062C224.92 549.422 225.94 550.262 227.36 550.262C228.62 550.262 229.52 549.602 229.92 548.802ZM226.14 542.702C224.88 542.702 224.08 544.042 224.08 545.962C224.08 546.422 224.12 546.842 224.2 547.242L227.52 545.802C227.88 545.642 228.04 545.362 228.04 544.962C228.04 544.142 227.3 542.702 226.14 542.702ZM240.06 551.922C237.44 551.922 235.88 550.722 235.88 549.622C235.88 549.002 236.3 548.702 236.88 548.702C238.38 548.702 237.72 551.242 240.06 551.242C241.12 551.242 241.9 550.722 241.9 549.702C241.9 547.002 236.08 548.782 236.08 544.782C236.08 543.162 237.7 541.942 240 541.942C242.5 541.942 244 543.162 244 544.322C244 544.822 243.6 545.182 243.08 545.182C241.68 545.182 242.22 542.662 240.12 542.662C239.14 542.662 238.44 543.342 238.44 544.202C238.44 546.922 244.26 545.182 244.26 549.142C244.26 550.702 242.64 551.922 240.06 551.922ZM249.155 551.942C247.475 551.942 246.355 550.862 246.355 548.702V543.122H245.215C245.015 543.122 244.875 542.982 244.875 542.782V542.502C244.875 542.282 244.995 542.142 245.215 542.142H245.835C246.875 542.142 247.495 541.362 247.655 540.202C247.695 539.922 247.855 539.762 248.055 539.762H248.355C248.615 539.762 248.735 539.922 248.735 540.202L248.755 542.142H251.275C251.475 542.142 251.635 542.302 251.635 542.502V542.782C251.635 542.982 251.475 543.122 251.275 543.122H248.755V548.722C248.755 549.682 249.235 550.202 249.895 550.202C250.735 550.202 251.195 549.742 251.315 549.162C251.495 548.842 251.975 548.902 251.975 549.262C251.975 550.602 250.955 551.942 249.155 551.942ZM254.816 540.482C253.816 540.482 253.156 539.862 253.156 538.982C253.156 538.122 253.816 537.482 254.816 537.482C255.796 537.482 256.436 538.122 256.436 538.982C256.436 539.862 255.796 540.482 254.816 540.482ZM253.336 551.742C253.076 551.742 252.916 551.622 252.916 551.442V551.362C252.916 550.922 253.656 550.842 253.656 550.062V544.822C253.656 544.002 252.916 543.802 252.916 543.442V543.382C252.916 543.222 253.056 543.142 253.276 543.022L255.276 542.022C255.736 541.802 255.996 542.042 255.996 542.362V550.062C255.996 550.842 256.816 550.922 256.816 551.362V551.442C256.816 551.622 256.636 551.742 256.376 551.742H253.336ZM258.509 551.742C258.249 551.742 258.089 551.622 258.089 551.442V551.382C258.089 550.922 258.829 550.862 258.829 550.082V539.542C258.829 538.702 258.089 538.542 258.089 538.182V538.122C258.089 537.942 258.229 537.862 258.429 537.762L260.449 536.762C260.909 536.542 261.169 536.782 261.169 537.082V550.082C261.169 550.862 261.989 550.922 261.989 551.382V551.442C261.989 551.622 261.809 551.742 261.549 551.742H258.509ZM263.646 551.742C263.386 551.742 263.226 551.622 263.226 551.442V551.382C263.226 550.922 263.966 550.862 263.966 550.082V539.542C263.966 538.702 263.226 538.542 263.226 538.182V538.122C263.226 537.942 263.366 537.862 263.566 537.762L265.586 536.762C266.046 536.542 266.306 536.782 266.306 537.082V550.082C266.306 550.862 267.126 550.922 267.126 551.382V551.442C267.126 551.622 266.946 551.742 266.686 551.742H263.646ZM270.383 540.482C269.383 540.482 268.723 539.862 268.723 538.982C268.723 538.122 269.383 537.482 270.383 537.482C271.363 537.482 272.003 538.122 272.003 538.982C272.003 539.862 271.363 540.482 270.383 540.482ZM268.903 551.742C268.643 551.742 268.483 551.622 268.483 551.442V551.362C268.483 550.922 269.223 550.842 269.223 550.062V544.822C269.223 544.002 268.483 543.802 268.483 543.442V543.382C268.483 543.222 268.623 543.142 268.843 543.022L270.843 542.022C271.303 541.802 271.563 542.042 271.563 542.362V550.062C271.563 550.842 272.383 550.922 272.383 551.362V551.442C272.383 551.622 272.203 551.742 271.943 551.742H268.903ZM283.656 550.062C283.696 550.862 284.376 550.942 284.376 551.382V551.462C284.376 551.642 284.196 551.762 283.936 551.762H281.016C280.736 551.762 280.576 551.642 280.576 551.462V551.382C280.576 550.942 281.336 550.862 281.296 550.062L281.096 546.202C280.996 543.922 280.216 542.902 278.996 542.902C277.716 542.902 276.896 543.942 276.896 545.382V550.082C276.896 550.862 277.716 550.942 277.716 551.382V551.462C277.716 551.642 277.556 551.762 277.276 551.762H274.176C273.916 551.762 273.756 551.642 273.756 551.462V551.382C273.756 550.942 274.556 550.862 274.556 550.082V544.722C274.556 543.842 273.656 543.822 273.656 543.382V543.322C273.656 543.162 273.796 543.062 274.016 542.962L275.956 542.022C276.376 541.802 276.576 542.042 276.576 542.382V543.682C277.136 542.602 278.236 541.942 279.616 541.942C281.496 541.942 283.216 543.142 283.416 546.282L283.656 550.062ZM294.053 542.142C294.933 542.142 295.093 542.402 294.913 542.702C294.673 543.222 293.953 543.142 293.353 543.302C294.093 543.962 294.613 544.982 294.613 545.962C294.613 547.562 293.713 548.842 292.293 549.502C294.033 549.902 294.773 550.802 294.773 551.902C294.773 553.682 292.713 554.802 289.953 554.802C286.933 554.802 285.333 553.322 285.333 551.902C285.333 551.422 285.633 550.962 286.293 550.962C287.773 550.962 287.193 554.042 290.033 554.062C291.473 554.062 292.413 553.222 292.413 552.002C292.413 550.862 291.753 550.062 290.653 549.942C290.413 549.962 290.173 549.982 289.913 549.982C287.373 549.982 285.413 548.282 285.413 546.062C285.413 543.642 287.273 541.942 290.013 541.942C291.333 541.942 291.773 542.142 294.053 542.142ZM287.733 545.042C287.733 547.302 288.893 549.202 290.293 549.202C291.533 549.202 292.293 548.202 292.293 546.842C292.293 544.662 291.233 542.702 289.633 542.702C288.453 542.702 287.733 543.682 287.733 545.042ZM304.315 548.802C304.535 548.522 304.995 548.602 304.955 549.002C304.775 550.182 303.435 551.942 300.895 551.942C298.215 551.942 296.155 549.962 296.155 546.862C296.155 544.002 298.295 541.942 300.935 541.942C303.515 541.942 304.675 543.482 304.675 544.882C304.675 545.642 304.275 546.062 303.655 546.282L298.815 548.062C299.315 549.422 300.335 550.262 301.755 550.262C303.015 550.262 303.915 549.602 304.315 548.802ZM300.535 542.702C299.275 542.702 298.475 544.042 298.475 545.962C298.475 546.422 298.515 546.842 298.595 547.242L301.915 545.802C302.275 545.642 302.435 545.362 302.435 544.962C302.435 544.142 301.695 542.702 300.535 542.702ZM311.638 541.942C312.818 541.942 313.478 542.702 313.478 543.622C313.478 544.302 313.198 544.882 312.438 544.882C311.138 544.882 311.738 543.322 310.578 543.322C309.638 543.322 309.198 544.502 309.198 545.802V550.082C309.198 550.862 310.118 550.942 310.118 551.382V551.462C310.118 551.642 309.958 551.742 309.698 551.742H306.598C306.338 551.742 306.178 551.642 306.178 551.462V551.382C306.178 550.942 306.938 550.862 306.938 550.082V544.702C306.938 543.882 306.078 543.842 306.078 543.402V543.342C306.078 543.182 306.218 543.042 306.438 542.922L308.398 542.022C308.818 541.822 308.978 542.022 308.978 542.362V543.922C309.418 542.642 310.358 541.942 311.638 541.942Z" fill="#333333"/>
<path fill-rule="evenodd" clip-rule="evenodd" d="M149.671 574.608C152.643 574.31 155.895 575.078 157.865 577.382C159.762 579.595 159.12 582.82 159.202 585.756C159.292 588.846 160.313 592.288 158.343 594.628C156.311 597.049 152.787 597.085 149.671 597.095C146.545 597.095 143.319 596.769 140.971 594.655C138.486 592.424 136.643 589.108 137.059 585.756C137.447 582.613 140.582 580.923 142.922 578.854C145 577.02 146.933 574.879 149.671 574.608Z" fill="#E61A6B"/>
<path d="M186.74 592V579.12H182.58V577.7H192.64V579.12H188.48V592H186.74ZM194.09 592V581.54H195.75V583.42C196.41 582.24 197.31 581.42 199.19 581.36V582.92C197.09 583.02 195.75 583.68 195.75 586.26V592H194.09ZM205.657 592.18C202.677 592.18 200.537 589.92 200.537 586.86V586.7C200.537 583.56 202.717 581.36 205.677 581.36C208.637 581.36 210.817 583.54 210.817 586.68V586.84C210.817 590 208.637 592.18 205.657 592.18ZM205.677 590.8C207.777 590.8 209.097 589.22 209.097 586.86V586.72C209.097 584.3 207.757 582.74 205.677 582.74C203.577 582.74 202.257 584.3 202.257 586.7V586.86C202.257 589.24 203.557 590.8 205.677 590.8ZM213.387 592V581.54H215.047V583.2C215.527 582.22 216.687 581.36 218.407 581.36C220.567 581.36 222.087 582.54 222.087 585.58V592H220.427V585.46C220.427 583.62 219.647 582.8 217.967 582.8C216.427 582.8 215.047 583.78 215.047 585.66V592H213.387ZM229.28 592.18C226.54 592.18 224.56 590.24 224.56 586.98V586.82C224.56 583.62 226.56 581.36 229.44 581.36C231.18 581.36 232.26 582.2 232.86 583.22V576.54H234.52V592H232.86V590.2C232.26 591.22 230.8 592.18 229.28 592.18ZM229.46 590.8C231.4 590.8 232.92 589.52 232.92 586.84V586.68C232.92 584 231.64 582.74 229.6 582.74C227.52 582.74 226.28 584.2 226.28 586.74V586.9C226.28 589.54 227.7 590.8 229.46 590.8ZM237.879 592V576.54H239.539V583.2C240.019 582.22 241.179 581.36 242.899 581.36C245.059 581.36 246.579 582.54 246.579 585.58V592H244.919V585.46C244.919 583.62 244.139 582.8 242.459 582.8C240.919 582.8 239.539 583.78 239.539 585.66V592H237.879ZM254.112 592.18C251.152 592.18 249.052 590.1 249.052 586.88V586.72C249.052 583.56 251.072 581.36 253.952 581.36C256.372 581.36 258.652 582.82 258.652 586.56V587.1H250.772C250.852 589.48 251.992 590.8 254.132 590.8C255.752 590.8 256.692 590.2 256.912 588.98H258.572C258.212 591.08 256.472 592.18 254.112 592.18ZM250.832 585.76H256.952C256.792 583.6 255.672 582.74 253.952 582.74C252.252 582.74 251.112 583.9 250.832 585.76ZM262.04 579.36C261.44 579.36 260.94 578.86 260.94 578.26C260.94 577.66 261.44 577.16 262.04 577.16C262.64 577.16 263.14 577.66 263.14 578.26C263.14 578.86 262.64 579.36 262.04 579.36ZM261.24 592V581.54H262.9V592H261.24ZM266.297 592V581.54H267.957V583.14C268.437 582.16 269.577 581.36 271.077 581.36C272.417 581.36 273.597 581.92 274.137 583.32C274.857 581.96 276.417 581.36 277.717 581.36C279.597 581.36 281.237 582.48 281.237 585.52V592H279.577V585.4C279.577 583.56 278.797 582.8 277.357 582.8C275.997 582.8 274.597 583.72 274.597 585.6V592H272.937V585.4C272.937 583.56 272.157 582.8 270.717 582.8C269.357 582.8 267.957 583.72 267.957 585.6V592H266.297Z" fill="#333333"/>
<path d="M312.8 592.18C309.76 592.18 307.9 590.28 307.8 587.78H309.4C309.56 589.48 310.58 590.78 312.84 590.78C315.08 590.78 316.1 589.7 316.1 588.02C316.1 586.18 315.1 585.24 313.08 585.24H312V583.78H313C314.86 583.78 315.68 582.9 315.68 581.34C315.68 579.98 314.82 578.94 313.08 578.94C311.3 578.94 310.1 580.02 309.92 581.64H308.4C308.5 579.38 310.36 577.52 313.08 577.52C315.8 577.52 317.38 579.32 317.38 581.3C317.38 582.92 316.42 583.88 315.12 584.42C316.8 584.86 317.88 586.04 317.88 588.02C317.88 590.62 315.76 592.18 312.8 592.18ZM329.983 592.18C327.243 592.18 325.263 590.24 325.263 586.98V586.82C325.263 583.62 327.263 581.36 330.143 581.36C331.883 581.36 332.963 582.2 333.563 583.22V576.54H335.223V592H333.563V590.2C332.963 591.22 331.503 592.18 329.983 592.18ZM330.163 590.8C332.103 590.8 333.623 589.52 333.623 586.84V586.68C333.623 584 332.343 582.74 330.303 582.74C328.223 582.74 326.983 584.2 326.983 586.74V586.9C326.983 589.54 328.403 590.8 330.163 590.8ZM342.862 592.18C339.902 592.18 337.802 590.1 337.802 586.88V586.72C337.802 583.56 339.822 581.36 342.702 581.36C345.122 581.36 347.402 582.82 347.402 586.56V587.1H339.522C339.602 589.48 340.742 590.8 342.882 590.8C344.502 590.8 345.442 590.2 345.662 588.98H347.322C346.962 591.08 345.222 592.18 342.862 592.18ZM339.582 585.76H345.702C345.542 583.6 344.422 582.74 342.702 582.74C341.002 582.74 339.862 583.9 339.582 585.76ZM353.287 592.18C350.787 592.18 349.287 590.92 349.187 588.78H350.807C350.927 590.02 351.587 590.8 353.267 590.8C354.847 590.8 355.547 590.26 355.547 589.14C355.547 588.04 354.727 587.68 353.107 587.38C350.387 586.88 349.467 586.12 349.467 584.3C349.467 582.36 351.367 581.36 353.007 581.36C354.887 581.36 356.507 582.12 356.787 584.38H355.187C354.947 583.24 354.307 582.74 352.987 582.74C351.787 582.74 351.007 583.34 351.007 584.24C351.007 585.18 351.527 585.56 353.447 585.9C355.607 586.3 357.127 586.78 357.127 589C357.127 590.9 355.827 592.18 353.287 592.18ZM360.497 579.36C359.897 579.36 359.397 578.86 359.397 578.26C359.397 577.66 359.897 577.16 360.497 577.16C361.097 577.16 361.597 577.66 361.597 578.26C361.597 578.86 361.097 579.36 360.497 579.36ZM359.697 592V581.54H361.357V592H359.697ZM368.934 595.82C365.834 595.82 364.474 594.36 364.194 592.6H365.894C366.134 593.8 367.134 594.42 368.914 594.42C370.974 594.42 372.274 593.44 372.274 591.2V589.68C371.674 590.7 370.254 591.66 368.734 591.66C365.994 591.66 363.974 589.58 363.974 586.7V586.56C363.974 583.72 365.974 581.36 368.854 581.36C370.594 581.36 371.674 582.2 372.274 583.22V581.54H373.934V591.3C373.914 594.34 371.854 595.82 368.934 595.82ZM368.914 590.28C370.854 590.28 372.334 588.92 372.334 586.58V586.44C372.334 584.1 371.054 582.74 369.014 582.74C366.934 582.74 365.694 584.28 365.694 586.48V586.64C365.694 588.92 367.154 590.28 368.914 590.28ZM377.293 592V581.54H378.953V583.2C379.433 582.22 380.593 581.36 382.313 581.36C384.473 581.36 385.993 582.54 385.993 585.58V592H384.333V585.46C384.333 583.62 383.553 582.8 381.873 582.8C380.333 582.8 378.953 583.78 378.953 585.66V592H377.293ZM393.526 592.18C390.566 592.18 388.466 590.1 388.466 586.88V586.72C388.466 583.56 390.486 581.36 393.366 581.36C395.786 581.36 398.066 582.82 398.066 586.56V587.1H390.186C390.266 589.48 391.406 590.8 393.546 590.8C395.166 590.8 396.106 590.2 396.326 588.98H397.986C397.626 591.08 395.886 592.18 393.526 592.18ZM390.246 585.76H396.366C396.206 583.6 395.086 582.74 393.366 582.74C391.666 582.74 390.526 583.9 390.246 585.76ZM400.614 592V581.54H402.274V583.42C402.934 582.24 403.834 581.42 405.714 581.36V582.92C403.614 583.02 402.274 583.68 402.274 586.26V592H400.614ZM412.12 592.18C409.16 592.18 407.06 590.1 407.06 586.88V586.72C407.06 583.56 409.08 581.36 411.96 581.36C414.38 581.36 416.66 582.82 416.66 586.56V587.1H408.78C408.86 589.48 410 590.8 412.14 590.8C413.76 590.8 414.7 590.2 414.92 588.98H416.58C416.22 591.08 414.48 592.18 412.12 592.18ZM408.84 585.76H414.96C414.8 583.6 413.68 582.74 411.96 582.74C410.26 582.74 409.12 583.9 408.84 585.76Z" fill="#333333"/>
<path d="M540 606.258H176" stroke="#BEBAAC"/>
<path fill-rule="evenodd" clip-rule="evenodd" d="M240.538 180.564C242.985 180.318 245.662 180.951 247.284 182.847C248.845 184.669 248.317 187.324 248.384 189.741C248.459 192.284 249.299 195.118 247.678 197.044C246.004 199.037 243.104 199.067 240.538 199.074C237.965 199.074 235.31 198.806 233.377 197.066C231.332 195.229 229.815 192.5 230.157 189.741C230.476 187.153 233.057 185.77 234.983 184.059C236.694 182.549 238.285 180.787 240.538 180.564V180.564Z" fill="#FFC4BC"/>
<path fill-rule="evenodd" clip-rule="evenodd" d="M253.527 158.302C255.973 158.057 258.651 158.689 260.272 160.585C261.834 162.407 261.306 165.062 261.372 167.479C261.439 170.022 262.287 172.856 260.666 174.782C258.993 176.775 256.092 176.805 253.527 176.812C250.954 176.812 248.299 176.544 246.365 174.804C244.32 172.967 242.803 170.238 243.145 167.479C243.465 164.891 246.045 163.5 247.971 161.797C249.682 160.288 251.273 158.525 253.527 158.302V158.302Z" fill="#FFC4BC"/>
<path fill-rule="evenodd" clip-rule="evenodd" d="M240.538 136.028C242.985 135.783 245.662 136.415 247.284 138.311C248.845 140.133 248.317 142.788 248.384 145.205C248.459 147.749 249.299 150.582 247.678 152.508C246.004 154.501 243.104 154.531 240.538 154.538C237.965 154.538 235.31 154.271 233.377 152.53C231.332 150.693 229.815 147.964 230.157 145.205C230.476 142.617 233.057 141.234 234.983 139.523C236.694 138.014 238.285 136.251 240.538 136.028V136.028Z" fill="#FFC4BC"/>
<path fill-rule="evenodd" clip-rule="evenodd" d="M262.804 136.028C265.251 135.783 267.928 136.415 269.549 138.311C271.111 140.133 270.583 142.788 270.65 145.205C270.724 147.749 271.565 150.582 269.943 152.508C268.27 154.501 265.37 154.531 262.804 154.538C260.231 154.538 257.576 154.271 255.642 152.53C253.597 150.693 252.08 147.964 252.422 145.205C252.742 142.617 255.323 141.234 257.249 139.523C258.959 138.014 260.551 136.251 262.804 136.028V136.028Z" fill="#FFC4BC"/>
<path fill-rule="evenodd" clip-rule="evenodd" d="M275.79 113.754C278.237 113.509 280.914 114.141 282.535 116.038C284.097 117.86 283.569 120.514 283.636 122.931C283.703 125.475 284.551 128.308 282.93 130.234C281.256 132.227 278.356 132.257 275.79 132.265C273.217 132.265 270.562 131.997 268.629 130.257C266.584 128.42 265.067 125.69 265.409 122.931C265.728 120.343 268.309 118.96 270.235 117.25C271.946 115.74 273.537 113.978 275.79 113.754V113.754Z" fill="#FFC4BC"/>
<path fill-rule="evenodd" clip-rule="evenodd" d="M342.592 113.754C345.039 113.509 347.716 114.141 349.337 116.038C350.899 117.86 350.371 120.514 350.438 122.931C350.505 125.475 351.353 128.308 349.731 130.234C348.058 132.227 345.158 132.257 342.592 132.265C340.019 132.265 337.364 131.997 335.431 130.257C333.385 128.42 331.868 125.69 332.21 122.931C332.53 120.343 335.111 118.96 337.037 117.25C338.747 115.74 340.339 113.978 342.592 113.754V113.754Z" fill="#FFC4BC"/>
<path fill-rule="evenodd" clip-rule="evenodd" d="M285.069 136.028C287.515 135.783 290.193 136.415 291.814 138.311C293.376 140.133 292.848 142.788 292.914 145.205C292.989 147.749 293.829 150.582 292.208 152.508C290.535 154.501 287.634 154.531 285.069 154.538C282.496 154.538 279.841 154.271 277.907 152.53C275.862 150.694 274.345 147.964 274.687 145.205C275.007 142.617 277.587 141.234 279.513 139.524C281.224 138.014 282.815 136.251 285.069 136.028V136.028Z" fill="#FFC4BC"/>
<path fill-rule="evenodd" clip-rule="evenodd" d="M298.062 113.755C300.509 113.509 303.186 114.141 304.807 116.038C306.369 117.86 305.841 120.515 305.908 122.931C305.975 125.475 306.822 128.308 305.201 130.234C303.528 132.227 300.628 132.257 298.062 132.265C295.489 132.265 292.834 131.997 290.9 130.257C288.855 128.42 287.338 125.69 287.68 122.931C288 120.343 290.58 118.96 292.507 117.25C294.217 115.74 295.809 113.978 298.062 113.755V113.755Z" fill="#FFC4BC"/>
<path fill-rule="evenodd" clip-rule="evenodd" d="M364.866 113.754C367.312 113.509 369.989 114.141 371.611 116.038C373.172 117.86 372.644 120.514 372.711 122.931C372.778 125.475 373.626 128.308 372.005 130.234C370.332 132.227 367.431 132.257 364.866 132.265C362.292 132.265 359.638 131.997 357.704 130.257C355.659 128.42 354.142 125.69 354.484 122.931C354.804 120.343 357.384 118.96 359.31 117.25C361.021 115.74 362.612 113.978 364.866 113.754V113.754Z" fill="#FFC4BC"/>
<path fill-rule="evenodd" clip-rule="evenodd" d="M353.725 91.4935C356.172 91.2481 358.849 91.8802 360.47 93.7766C362.032 95.5986 361.504 98.2535 361.571 100.67C361.638 103.214 362.485 106.047 360.864 107.973C359.191 109.966 356.291 109.996 353.725 110.004C351.152 110.004 348.497 109.736 346.563 107.996C344.518 106.159 343.001 103.429 343.343 100.67C343.663 98.0825 346.244 96.6992 348.17 94.9888C349.88 93.4791 351.472 91.7166 353.725 91.4935V91.4935Z" fill="#FFC4BC"/>
<path fill-rule="evenodd" clip-rule="evenodd" d="M372.286 69.2197C374.733 68.9743 377.41 69.6064 379.032 71.5028C380.593 73.3248 380.065 75.9797 380.132 78.3966C380.199 80.94 381.047 83.7734 379.426 85.6995C377.752 87.6926 374.852 87.7223 372.286 87.7297C369.713 87.7297 367.058 87.462 365.125 85.7218C363.08 83.885 361.563 81.1557 361.905 78.3966C362.225 75.8086 364.805 74.4254 366.731 72.715C368.442 71.2053 370.033 69.4428 372.286 69.2197V69.2197Z" fill="#FFC4BC"/>
<path fill-rule="evenodd" clip-rule="evenodd" d="M375.998 91.4935C378.445 91.2481 381.122 91.8802 382.743 93.7766C384.305 95.5986 383.777 98.2535 383.844 100.67C383.911 103.214 384.759 106.047 383.138 107.973C381.464 109.966 378.564 109.996 375.998 110.004C373.425 110.004 370.77 109.736 368.837 107.996C366.792 106.159 365.275 103.429 365.617 100.67C365.936 98.0825 368.517 96.6992 370.443 94.9888C372.154 93.4791 373.745 91.7166 375.998 91.4935V91.4935Z" fill="#FFC4BC"/>
<path fill-rule="evenodd" clip-rule="evenodd" d="M398.276 91.4935C400.722 91.2481 403.4 91.8802 405.021 93.7766C406.583 95.5986 406.055 98.2535 406.121 100.67C406.188 103.214 407.036 106.047 405.415 107.973C403.742 109.966 400.841 109.996 398.276 110.004C395.703 110.004 393.048 109.736 391.114 107.996C389.069 106.159 387.552 103.429 387.894 100.67C388.214 98.0825 390.794 96.6992 392.72 94.9888C394.431 93.4791 396.022 91.7166 398.276 91.4935V91.4935Z" fill="#FFC4BC"/>
<path fill-rule="evenodd" clip-rule="evenodd" d="M420.536 91.4935C422.983 91.2481 425.66 91.8802 427.282 93.7766C428.843 95.5986 428.315 98.2535 428.382 100.67C428.449 103.214 429.297 106.047 427.676 107.973C426.002 109.966 423.102 109.996 420.536 110.004C417.963 110.004 415.308 109.736 413.375 107.996C411.33 106.159 409.813 103.429 410.155 100.67C410.475 98.0825 413.055 96.6992 414.981 94.9888C416.692 93.4791 418.283 91.7166 420.536 91.4935V91.4935Z" fill="#FFC4BC"/>
<path fill-rule="evenodd" clip-rule="evenodd" d="M411.257 67.3708C413.704 67.1254 416.381 67.7575 418.002 69.6539C419.564 71.4759 419.036 74.1308 419.103 76.5477C419.177 79.0911 420.018 81.9245 418.396 83.8506C416.723 85.8437 413.823 85.8734 411.257 85.8808C408.684 85.8808 406.029 85.6131 404.096 83.8729C402.05 82.036 400.533 79.3068 400.875 76.5477C401.195 73.9597 403.776 72.5765 405.702 70.866C407.412 69.3564 409.004 67.5939 411.257 67.3708V67.3708Z" fill="#FFC4BC"/>
<path fill-rule="evenodd" clip-rule="evenodd" d="M409.405 113.755C411.851 113.509 414.529 114.141 416.15 116.038C417.711 117.86 417.183 120.515 417.25 122.931C417.317 125.475 418.165 128.308 416.544 130.234C414.871 132.227 411.97 132.257 409.405 132.265C406.832 132.265 404.177 131.997 402.243 130.257C400.198 128.42 398.681 125.69 399.023 122.931C399.343 120.343 401.923 118.96 403.849 117.25C405.56 115.74 407.151 113.978 409.405 113.755V113.755Z" fill="#FFC4BC"/>
<path fill-rule="evenodd" clip-rule="evenodd" d="M307.339 136.028C309.786 135.783 312.463 136.415 314.084 138.311C315.646 140.133 315.118 142.788 315.185 145.205C315.259 147.749 316.1 150.582 314.478 152.508C312.805 154.501 309.905 154.531 307.339 154.538C304.766 154.538 302.111 154.271 300.178 152.53C298.132 150.694 296.615 147.964 296.957 145.205C297.277 142.617 299.858 141.234 301.784 139.524C303.494 138.014 305.086 136.251 307.339 136.028V136.028Z" fill="#FFC4BC"/>
<path fill-rule="evenodd" clip-rule="evenodd" d="M320.334 113.754C322.781 113.509 325.458 114.141 327.079 116.038C328.641 117.86 328.113 120.514 328.18 122.931C328.247 125.475 329.095 128.308 327.474 130.234C325.8 132.227 322.9 132.257 320.334 132.265C317.761 132.265 315.106 131.997 313.173 130.257C311.128 128.42 309.611 125.69 309.953 122.931C310.272 120.343 312.853 118.96 314.779 117.25C316.489 115.74 318.081 113.978 320.334 113.754V113.754Z" fill="#FFC4BC"/>
<path fill-rule="evenodd" clip-rule="evenodd" d="M387.128 113.754C389.575 113.509 392.252 114.141 393.873 116.038C395.435 117.86 394.907 120.514 394.974 122.931C395.041 125.475 395.889 128.308 394.267 130.234C392.594 132.227 389.694 132.257 387.128 132.265C384.555 132.265 381.9 131.997 379.967 130.257C377.922 128.42 376.404 125.69 376.747 122.931C377.066 120.343 379.647 118.96 381.573 117.25C383.283 115.74 384.875 113.978 387.128 113.754V113.754Z" fill="#FFC4BC"/>
<path fill-rule="evenodd" clip-rule="evenodd" d="M431.662 113.755C434.109 113.509 436.786 114.141 438.408 116.038C439.969 117.86 439.441 120.515 439.508 122.931C439.575 125.475 440.423 128.308 438.802 130.234C437.128 132.227 434.228 132.257 431.662 132.265C429.089 132.265 426.434 131.997 424.501 130.257C422.456 128.42 420.939 125.69 421.281 122.931C421.601 120.343 424.181 118.96 426.107 117.25C427.818 115.74 429.409 113.978 431.662 113.755V113.755Z" fill="#FFC4BC"/>
<path fill-rule="evenodd" clip-rule="evenodd" d="M442.8 91.4935C445.247 91.2481 447.924 91.8802 449.545 93.7766C451.107 95.5986 450.579 98.2535 450.646 100.67C450.713 103.214 451.561 106.047 449.939 107.973C448.266 109.966 445.366 109.996 442.8 110.004C440.227 110.004 437.572 109.736 435.638 107.996C433.593 106.159 432.076 103.429 432.418 100.67C432.738 98.0825 435.319 96.6992 437.245 94.9888C438.955 93.4791 440.547 91.7166 442.8 91.4935V91.4935Z" fill="#FFC4BC"/>
<path fill-rule="evenodd" clip-rule="evenodd" d="M465.07 89.6382C467.516 89.3928 470.194 90.0249 471.815 91.9213C473.376 93.7433 472.848 96.3982 472.915 98.8151C472.982 101.358 473.83 104.192 472.209 106.118C470.536 108.111 467.635 108.141 465.07 108.148C462.497 108.148 459.842 107.881 457.908 106.14C455.863 104.303 454.346 101.574 454.688 98.8151C455.008 96.2271 457.588 94.8439 459.514 93.1334C461.225 91.6238 462.816 89.8613 465.07 89.6382V89.6382Z" fill="#FFC4BC"/>
<path fill-rule="evenodd" clip-rule="evenodd" d="M487.343 89.6382C489.79 89.3928 492.467 90.0249 494.088 91.9213C495.65 93.7433 495.122 96.3982 495.189 98.8151C495.256 101.358 496.104 104.192 494.482 106.118C492.809 108.111 489.909 108.141 487.343 108.148C484.77 108.148 482.115 107.881 480.182 106.14C478.136 104.303 476.619 101.574 476.961 98.8151C477.281 96.2271 479.862 94.8439 481.788 93.1334C483.498 91.6238 485.09 89.8613 487.343 89.6382V89.6382Z" fill="#FFC4BC"/>
<path fill-rule="evenodd" clip-rule="evenodd" d="M509.605 71.0807C512.052 70.8353 514.729 71.4674 516.35 73.3638C517.912 75.1858 517.384 77.8407 517.451 80.2576C517.518 82.801 518.365 85.6344 516.744 87.5605C515.071 89.5536 512.17 89.5833 509.605 89.5907C507.032 89.5907 504.377 89.323 502.443 87.5828C500.398 85.7459 498.881 83.0167 499.223 80.2576C499.543 77.6696 502.123 76.2864 504.05 74.5759C505.76 73.0663 507.351 71.3038 509.605 71.0807V71.0807Z" fill="#FFC4BC"/>
<path fill-rule="evenodd" clip-rule="evenodd" d="M531.873 78.5013C534.32 78.2559 536.997 78.888 538.619 80.7844C540.18 82.6064 539.652 85.2613 539.719 87.6782C539.786 90.2216 540.634 93.055 539.013 94.9811C537.339 96.9742 534.439 97.0039 531.873 97.0113C529.3 97.0113 526.645 96.7436 524.712 95.0034C522.667 93.1665 521.15 90.4372 521.492 87.6782C521.811 85.0902 524.392 83.707 526.318 81.9965C528.029 80.4869 529.62 78.7244 531.873 78.5013V78.5013Z" fill="#FFC4BC"/>
<path fill-rule="evenodd" clip-rule="evenodd" d="M509.605 95.2034C512.052 94.958 514.729 95.5901 516.35 97.4865C517.912 99.3085 517.384 101.963 517.451 104.38C517.518 106.924 518.365 109.757 516.744 111.683C515.071 113.676 512.17 113.706 509.605 113.713C507.032 113.713 504.377 113.446 502.443 111.706C500.398 109.869 498.881 107.139 499.223 104.38C499.543 101.792 502.123 100.409 504.05 98.6987C505.76 97.189 507.351 95.4265 509.605 95.2034V95.2034Z" fill="#FFC4BC"/>
<path fill-rule="evenodd" clip-rule="evenodd" d="M531.873 117.465C534.32 117.22 536.997 117.852 538.619 119.748C540.18 121.57 539.652 124.225 539.719 126.642C539.786 129.186 540.634 132.019 539.013 133.945C537.339 135.938 534.439 135.968 531.873 135.975C529.3 135.975 526.645 135.708 524.712 133.967C522.667 132.13 521.15 129.401 521.492 126.642C521.811 124.054 524.392 122.671 526.318 120.96C528.029 119.451 529.62 117.688 531.873 117.465Z" fill="#FFC4BC"/>
<path fill-rule="evenodd" clip-rule="evenodd" d="M481.773 67.3708C484.219 67.1254 486.897 67.7575 488.518 69.6539C490.08 71.4759 489.552 74.1308 489.619 76.5477C489.685 79.0911 490.533 81.9245 488.912 83.8506C487.239 85.8437 484.338 85.8734 481.773 85.8808C479.2 85.8808 476.545 85.6131 474.611 83.8729C472.566 82.036 471.049 79.3068 471.391 76.5477C471.711 73.9597 474.291 72.5765 476.218 70.866C477.928 69.3564 479.519 67.5939 481.773 67.3708V67.3708Z" fill="#FFC4BC"/>
<path fill-rule="evenodd" clip-rule="evenodd" d="M452.083 69.2196C454.53 68.9742 457.207 69.6063 458.828 71.5027C460.39 73.3247 459.862 75.9796 459.929 78.3965C459.996 80.9399 460.844 83.7733 459.223 85.6994C457.549 87.6925 454.649 87.7222 452.083 87.7297C449.51 87.7297 446.855 87.4619 444.922 85.7217C442.877 83.8849 441.36 81.1556 441.702 78.3965C442.021 75.8086 444.602 74.4253 446.528 72.7149C448.239 71.2052 449.83 69.4427 452.083 69.2196V69.2196Z" fill="#FFC4BC"/>
<path fill-rule="evenodd" clip-rule="evenodd" d="M422.39 136.028C424.837 135.783 427.514 136.415 429.135 138.311C430.697 140.133 430.169 142.788 430.236 145.205C430.303 147.749 431.15 150.582 429.529 152.508C427.856 154.501 424.956 154.531 422.39 154.538C419.817 154.538 417.162 154.271 415.228 152.53C413.183 150.694 411.666 147.964 412.008 145.205C412.328 142.617 414.909 141.234 416.835 139.524C418.545 138.014 420.137 136.251 422.39 136.028V136.028Z" fill="#FFC4BC"/>
<path fill-rule="evenodd" clip-rule="evenodd" d="M400.124 136.028C402.571 135.783 405.248 136.415 406.869 138.311C408.431 140.133 407.903 142.788 407.97 145.205C408.037 147.749 408.885 150.582 407.264 152.508C405.59 154.501 402.69 154.531 400.124 154.538C397.551 154.538 394.896 154.271 392.963 152.53C390.918 150.694 389.401 147.964 389.743 145.205C390.062 142.617 392.643 141.234 394.569 139.524C396.28 138.014 397.871 136.251 400.124 136.028V136.028Z" fill="#FFC4BC"/>
<path fill-rule="evenodd" clip-rule="evenodd" d="M377.85 136.028C380.297 135.783 382.974 136.415 384.595 138.311C386.157 140.133 385.629 142.788 385.696 145.205C385.77 147.749 386.61 150.582 384.989 152.508C383.316 154.501 380.416 154.531 377.85 154.538C375.277 154.538 372.622 154.271 370.688 152.53C368.643 150.694 367.126 147.964 367.468 145.205C367.788 142.617 370.369 141.234 372.295 139.524C374.005 138.014 375.597 136.251 377.85 136.028V136.028Z" fill="#FFC4BC"/>
<path fill-rule="evenodd" clip-rule="evenodd" d="M275.79 158.302C278.237 158.057 280.914 158.689 282.535 160.585C284.097 162.407 283.569 165.062 283.636 167.479C283.703 170.022 284.551 172.856 282.93 174.782C281.256 176.775 278.356 176.805 275.79 176.812C273.217 176.812 270.562 176.544 268.629 174.804C266.584 172.967 265.067 170.238 265.409 167.479C265.728 164.891 268.309 163.5 270.235 161.797C271.946 160.288 273.537 158.525 275.79 158.302V158.302Z" fill="#FFC4BC"/>
<path fill-rule="evenodd" clip-rule="evenodd" d="M218.273 180.564C220.719 180.318 223.397 180.951 225.018 182.847C226.58 184.669 226.052 187.324 226.119 189.741C226.185 192.284 227.033 195.118 225.412 197.044C223.739 199.037 220.838 199.067 218.273 199.074C215.7 199.074 213.045 198.806 211.111 197.066C209.066 195.229 207.549 192.5 207.891 189.741C208.211 187.153 210.791 185.77 212.718 184.059C214.428 182.549 216.019 180.787 218.273 180.564V180.564Z" fill="#FFC4BC"/>
<path fill-rule="evenodd" clip-rule="evenodd" d="M195.999 158.302C198.446 158.057 201.123 158.689 202.744 160.585C204.306 162.407 203.778 165.062 203.845 167.479C203.912 170.022 204.76 172.856 203.139 174.782C201.465 176.775 198.565 176.805 195.999 176.812C193.426 176.812 190.771 176.544 188.838 174.804C186.793 172.967 185.276 170.238 185.618 167.479C185.937 164.891 188.518 163.5 190.444 161.797C192.155 160.288 193.746 158.525 195.999 158.302Z" fill="#FFC4BC"/>
<path fill-rule="evenodd" clip-rule="evenodd" d="M218.273 143.449C220.719 143.203 223.397 143.836 225.018 145.732C226.58 147.554 226.052 150.209 226.119 152.626C226.185 155.169 227.033 158.003 225.412 159.929C223.739 161.922 220.838 161.952 218.273 161.959C215.7 161.959 213.045 161.691 211.111 159.951C209.066 158.114 207.549 155.385 207.891 152.626C208.211 150.038 210.791 148.655 212.718 146.944C214.428 145.435 216.019 143.672 218.273 143.449V143.449Z" fill="#FFC4BC"/>
<path fill-rule="evenodd" clip-rule="evenodd" d="M231.258 202.83C233.705 202.585 236.382 203.217 238.003 205.114C239.565 206.936 239.037 209.59 239.104 212.007C239.171 214.551 240.019 217.384 238.397 219.31C236.724 221.303 233.824 221.333 231.258 221.341C228.685 221.341 226.03 221.073 224.097 219.333C222.051 217.496 220.534 214.766 220.876 212.007C221.196 209.419 223.777 208.029 225.703 206.326C227.413 204.816 229.005 203.054 231.258 202.83V202.83Z" fill="#FFC4BC"/>
<path fill-rule="evenodd" clip-rule="evenodd" d="M208.99 202.83C211.436 202.585 214.113 203.217 215.735 205.114C217.296 206.936 216.768 209.59 216.835 212.007C216.902 214.551 217.75 217.384 216.129 219.31C214.456 221.303 211.555 221.333 208.99 221.341C206.416 221.341 203.762 221.073 201.828 219.333C199.783 217.496 198.266 214.766 198.608 212.007C198.928 209.419 201.508 208.029 203.434 206.326C205.145 204.816 206.736 203.054 208.99 202.83V202.83Z" fill="#FFC4BC"/>
<path fill-rule="evenodd" clip-rule="evenodd" d="M221.974 225.099C224.421 224.853 227.098 225.485 228.719 227.382C230.281 229.204 229.753 231.859 229.82 234.276C229.894 236.819 230.734 239.652 229.113 241.578C227.44 243.572 224.54 243.601 221.974 243.609C219.401 243.609 216.746 243.341 214.812 241.601C212.767 239.764 211.25 237.035 211.592 234.276C211.912 231.688 214.493 230.304 216.419 228.594C218.129 227.084 219.721 225.322 221.974 225.099V225.099Z" fill="#FFC4BC"/>
<path fill-rule="evenodd" clip-rule="evenodd" d="M199.709 225.099C202.156 224.853 204.833 225.485 206.454 227.382C208.016 229.204 207.488 231.859 207.555 234.276C207.622 236.819 208.47 239.652 206.849 241.578C205.175 243.572 202.275 243.601 199.709 243.609C197.136 243.609 194.481 243.341 192.548 241.601C190.503 239.764 188.986 237.035 189.328 234.276C189.647 231.688 192.228 230.304 194.154 228.594C195.865 227.084 197.456 225.322 199.709 225.099V225.099Z" fill="#FFC4BC"/>
<path fill-rule="evenodd" clip-rule="evenodd" d="M212.697 247.373C215.143 247.127 217.821 247.759 219.442 249.656C221.003 251.478 220.475 254.133 220.542 256.549C220.617 259.093 221.457 261.926 219.836 263.852C218.163 265.845 215.262 265.875 212.697 265.883C210.123 265.883 207.469 265.615 205.535 263.875C203.49 262.038 201.973 259.308 202.315 256.549C202.635 253.961 205.215 252.578 207.141 250.868C208.852 249.358 210.443 247.596 212.697 247.373V247.373Z" fill="#FFC4BC"/>
<path fill-rule="evenodd" clip-rule="evenodd" d="M190.427 247.373C192.874 247.127 195.551 247.759 197.172 249.656C198.734 251.478 198.206 254.133 198.273 256.549C198.347 259.093 199.188 261.926 197.566 263.852C195.893 265.845 192.993 265.875 190.427 265.883C187.854 265.883 185.199 265.615 183.265 263.875C181.22 262.038 179.703 259.308 180.045 256.549C180.365 253.961 182.946 252.578 184.872 250.868C186.582 249.358 188.174 247.596 190.427 247.373V247.373Z" fill="#FFC4BC"/>
<path fill-rule="evenodd" clip-rule="evenodd" d="M168.166 247.373C170.613 247.127 173.29 247.759 174.911 249.656C176.473 251.478 175.945 254.133 176.012 256.549C176.086 259.093 176.927 261.926 175.306 263.852C173.632 265.845 170.732 265.875 168.166 265.883C165.593 265.883 162.938 265.615 161.005 263.875C158.96 262.038 157.443 259.308 157.785 256.549C158.104 253.961 160.685 252.578 162.611 250.868C164.322 249.358 165.913 247.596 168.166 247.373V247.373Z" fill="#FFC4BC"/>
<path fill-rule="evenodd" clip-rule="evenodd" d="M203.421 269.633C205.868 269.388 208.545 270.02 210.166 271.917C211.728 273.739 211.2 276.393 211.267 278.81C211.334 281.354 212.182 284.187 210.56 286.113C208.887 288.106 205.987 288.136 203.421 288.144C200.848 288.144 198.193 287.876 196.26 286.136C194.215 284.299 192.697 281.569 193.04 278.81C193.359 276.222 195.94 274.839 197.866 273.129C199.576 271.619 201.168 269.857 203.421 269.633V269.633Z" fill="#FFC4BC"/>
<path fill-rule="evenodd" clip-rule="evenodd" d="M181.158 269.633C183.604 269.388 186.281 270.02 187.903 271.917C189.464 273.739 188.936 276.393 189.003 278.81C189.07 281.354 189.918 284.187 188.297 286.113C186.624 288.106 183.723 288.136 181.158 288.144C178.584 288.144 175.93 287.876 173.996 286.136C171.951 284.299 170.434 281.569 170.776 278.81C171.096 276.222 173.676 274.839 175.602 273.129C177.313 271.619 178.904 269.857 181.158 269.633Z" fill="#FFC4BC"/>
<path fill-rule="evenodd" clip-rule="evenodd" d="M158.883 269.633C161.33 269.388 164.007 270.02 165.628 271.917C167.19 273.739 166.662 276.393 166.729 278.81C166.796 281.354 167.644 284.187 166.022 286.113C164.349 288.106 161.449 288.136 158.883 288.144C156.31 288.144 153.655 287.876 151.722 286.136C149.676 284.299 148.159 281.569 148.501 278.81C148.821 276.222 151.402 274.839 153.328 273.129C155.038 271.619 156.63 269.857 158.883 269.633Z" fill="#FFC4BC"/>
<path fill-rule="evenodd" clip-rule="evenodd" d="M194.148 291.902C196.594 291.656 199.272 292.288 200.893 294.185C202.455 296.007 201.927 298.662 201.994 301.079C202.06 303.622 202.908 306.455 201.287 308.381C199.614 310.375 196.713 310.404 194.148 310.412C191.575 310.412 188.92 310.144 186.986 308.404C184.941 306.567 183.424 303.838 183.766 301.079C184.086 298.491 186.666 297.1 188.593 295.397C190.303 293.887 191.894 292.125 194.148 291.902Z" fill="#FFC4BC"/>
<path fill-rule="evenodd" clip-rule="evenodd" d="M171.876 291.902C174.323 291.656 177 292.288 178.621 294.185C180.183 296.007 179.655 298.662 179.722 301.079C179.789 303.622 180.637 306.455 179.016 308.381C177.342 310.375 174.442 310.404 171.876 310.412C169.303 310.412 166.648 310.144 164.715 308.404C162.67 306.567 161.152 303.838 161.495 301.079C161.814 298.491 164.395 297.1 166.321 295.397C168.031 293.887 169.623 292.125 171.876 291.902Z" fill="#FFC4BC"/>
<path fill-rule="evenodd" clip-rule="evenodd" d="M149.61 291.902C152.056 291.656 154.734 292.288 156.355 294.185C157.917 296.007 157.389 298.662 157.455 301.079C157.522 303.622 158.37 306.455 156.749 308.381C155.076 310.375 152.175 310.404 149.61 310.412C147.037 310.412 144.382 310.144 142.448 308.404C140.403 306.567 138.886 303.838 139.228 301.079C139.548 298.491 142.128 297.1 144.054 295.397C145.765 293.887 147.356 292.125 149.61 291.902Z" fill="#FFC4BC"/>
<path fill-rule="evenodd" clip-rule="evenodd" d="M184.867 314.175C187.313 313.929 189.99 314.561 191.612 316.458C193.173 318.28 192.645 320.935 192.712 323.352C192.787 325.895 193.627 328.728 192.006 330.655C190.333 332.648 187.432 332.677 184.867 332.685C182.293 332.685 179.638 332.417 177.705 330.677C175.66 328.84 174.143 326.111 174.485 323.352C174.805 320.764 177.385 319.38 179.311 317.67C181.022 316.16 182.613 314.398 184.867 314.175V314.175Z" fill="#FFC4BC"/>
<path fill-rule="evenodd" clip-rule="evenodd" d="M162.595 314.175C165.042 313.929 167.719 314.561 169.34 316.458C170.902 318.28 170.374 320.935 170.441 323.352C170.508 325.895 171.356 328.728 169.734 330.655C168.061 332.648 165.161 332.677 162.595 332.685C160.022 332.685 157.367 332.417 155.433 330.677C153.388 328.84 151.871 326.111 152.213 323.352C152.533 320.764 155.114 319.38 157.04 317.67C158.75 316.16 160.342 314.398 162.595 314.175Z" fill="#FFC4BC"/>
<path fill-rule="evenodd" clip-rule="evenodd" d="M140.329 314.175C142.776 313.929 145.453 314.561 147.075 316.458C148.636 318.28 148.108 320.935 148.175 323.352C148.25 325.895 149.09 328.728 147.469 330.655C145.795 332.648 142.895 332.677 140.329 332.685C137.756 332.685 135.101 332.417 133.168 330.677C131.123 328.84 129.606 326.111 129.948 323.352C130.267 320.764 132.848 319.38 134.774 317.67C136.485 316.16 138.076 314.398 140.329 314.175Z" fill="#FFC4BC"/>
<path fill-rule="evenodd" clip-rule="evenodd" d="M118.063 314.175C120.51 313.929 123.187 314.561 124.808 316.458C126.37 318.28 125.842 320.935 125.909 323.352C125.983 325.895 126.823 328.728 125.202 330.655C123.529 332.648 120.628 332.677 118.063 332.685C115.49 332.685 112.835 332.417 110.901 330.677C108.856 328.84 107.339 326.111 107.681 323.352C108.001 320.764 110.581 319.38 112.508 317.67C114.218 316.16 115.809 314.398 118.063 314.175Z" fill="#FFC4BC"/>
<path fill-rule="evenodd" clip-rule="evenodd" d="M153.32 336.443C155.766 336.197 158.444 336.83 160.065 338.726C161.626 340.548 161.098 343.203 161.165 345.62C161.232 348.163 162.08 350.997 160.459 352.923C158.786 354.916 155.885 354.946 153.32 354.953C150.747 354.953 148.092 354.685 146.158 352.945C144.113 351.108 142.596 348.379 142.938 345.62C143.258 343.032 145.838 341.641 147.764 339.938C149.475 338.428 151.066 336.666 153.32 336.443Z" fill="#FFC4BC"/>
<path fill-rule="evenodd" clip-rule="evenodd" d="M131.057 336.443C133.504 336.197 136.181 336.83 137.802 338.726C139.364 340.548 138.836 343.203 138.903 345.62C138.97 348.163 139.817 350.997 138.196 352.923C136.523 354.916 133.623 354.946 131.057 354.953C128.484 354.953 125.829 354.685 123.895 352.945C121.85 351.108 120.333 348.379 120.675 345.62C120.995 343.032 123.576 341.641 125.502 339.938C127.212 338.428 128.804 336.666 131.057 336.443Z" fill="#FFC4BC"/>
<path fill-rule="evenodd" clip-rule="evenodd" d="M108.78 336.443C111.226 336.197 113.904 336.83 115.525 338.726C117.086 340.548 116.558 343.203 116.625 345.62C116.692 348.163 117.54 350.997 115.919 352.923C114.246 354.916 111.345 354.946 108.78 354.953C106.206 354.953 103.552 354.685 101.618 352.945C99.5729 351.108 98.0558 348.379 98.3979 345.62C98.7177 343.032 101.298 341.641 103.224 339.938C104.935 338.428 106.526 336.666 108.78 336.443Z" fill="#E61A6B"/>
<path fill-rule="evenodd" clip-rule="evenodd" d="M86.5169 336.443C88.9636 336.197 91.6408 336.83 93.262 338.726C94.8238 340.548 94.2957 343.203 94.3627 345.62C94.4296 348.163 95.2774 350.997 93.6562 352.923C91.9829 354.916 89.0826 354.946 86.5169 354.953C83.9438 354.953 81.2889 354.685 79.3553 352.945C77.3102 351.108 75.7931 348.379 76.1352 345.62C76.455 343.032 79.0355 341.641 80.9617 339.938C82.6721 338.428 84.2636 336.666 86.5169 336.443V336.443Z" fill="#FFC4BC"/>
<path fill-rule="evenodd" clip-rule="evenodd" d="M144.039 358.704C146.486 358.458 149.163 359.09 150.785 360.987C152.346 362.809 151.818 365.464 151.885 367.881C151.952 370.424 152.8 373.258 151.179 375.184C149.505 377.177 146.605 377.206 144.039 377.214C141.466 377.214 138.811 376.946 136.878 375.206C134.833 373.369 133.316 370.64 133.658 367.881C133.977 365.293 136.558 363.909 138.484 362.199C140.195 360.689 141.786 358.927 144.039 358.704Z" fill="#FFC4BC"/>
<path fill-rule="evenodd" clip-rule="evenodd" d="M121.773 358.704C124.219 358.458 126.897 359.09 128.518 360.987C130.08 362.809 129.552 365.464 129.619 367.881C129.685 370.424 130.533 373.258 128.912 375.184C127.239 377.177 124.338 377.206 121.773 377.214C119.2 377.214 116.545 376.946 114.611 375.206C112.566 373.369 111.049 370.64 111.391 367.881C111.711 365.293 114.291 363.909 116.218 362.199C117.928 360.689 119.519 358.927 121.773 358.704Z" fill="#FFC4BC"/>
<path fill-rule="evenodd" clip-rule="evenodd" d="M99.4993 358.704C101.946 358.458 104.623 359.091 106.244 360.987C107.806 362.809 107.278 365.464 107.345 367.881C107.419 370.424 108.26 373.258 106.639 375.184C104.965 377.177 102.065 377.206 99.4993 377.214C96.9262 377.214 94.2713 376.946 92.3377 375.206C90.2926 373.369 88.7755 370.64 89.1176 367.881C89.4374 365.293 92.018 363.91 93.9441 362.199C95.6545 360.689 97.246 358.927 99.4993 358.704Z" fill="#FFC4BC"/>
<path fill-rule="evenodd" clip-rule="evenodd" d="M77.2327 358.704C79.6794 358.458 82.3567 359.091 83.9779 360.987C85.5396 362.809 85.0116 365.464 85.0785 367.881C85.1454 370.424 85.9932 373.258 84.372 375.184C82.6987 377.177 79.7984 377.206 77.2327 377.214C74.6596 377.214 72.0047 376.946 70.0711 375.206C68.026 373.369 66.5089 370.64 66.851 367.881C67.1708 365.293 69.7514 363.91 71.6775 362.199C73.3879 360.689 74.9794 358.927 77.2327 358.704Z" fill="#FFC4BC"/>
<path fill-rule="evenodd" clip-rule="evenodd" d="M54.9671 358.704C57.4138 358.458 60.091 359.091 61.7122 360.987C63.274 362.809 62.7459 365.464 62.8129 367.881C62.8798 370.424 63.7276 373.258 62.1064 375.184C60.4331 377.177 57.5328 377.206 54.9671 377.214C52.394 377.214 49.7391 376.946 47.8055 375.206C45.7604 373.369 44.2433 370.64 44.5854 367.881C44.9052 365.293 47.4857 363.91 49.4119 362.199C51.1223 360.689 52.7138 358.927 54.9671 358.704Z" fill="#FFC4BC"/>
<path fill-rule="evenodd" clip-rule="evenodd" d="M136.617 380.965C139.063 380.72 141.74 381.352 143.362 383.241C144.923 385.063 144.395 387.718 144.462 390.134C144.529 392.678 145.377 395.511 143.756 397.437C142.083 399.43 139.182 399.46 136.617 399.468C134.043 399.468 131.388 399.2 129.455 397.46C127.41 395.623 125.893 392.894 126.235 390.134C126.555 387.546 129.135 386.163 131.061 384.453C132.772 382.943 134.363 381.181 136.617 380.958V380.965Z" fill="#FFC4BC"/>
<path fill-rule="evenodd" clip-rule="evenodd" d="M114.35 380.965C116.797 380.72 119.474 381.352 121.095 383.241C122.657 385.063 122.129 387.718 122.196 390.134C122.27 392.678 123.11 395.511 121.489 397.437C119.816 399.43 116.916 399.46 114.35 399.468C111.777 399.468 109.122 399.2 107.188 397.46C105.143 395.623 103.626 392.894 103.968 390.134C104.288 387.546 106.869 386.163 108.795 384.453C110.505 382.943 112.097 381.181 114.35 380.958V380.965Z" fill="#FFC4BC"/>
<path fill-rule="evenodd" clip-rule="evenodd" d="M92.0872 380.965C94.5339 380.719 97.2111 381.352 98.8324 383.24C100.394 385.062 99.8661 387.717 99.933 390.134C99.9999 392.678 100.848 395.511 99.2265 397.437C97.5532 399.43 94.6529 399.46 92.0872 399.467C89.5141 399.467 86.8592 399.2 84.9256 397.46C82.8805 395.623 81.3634 392.893 81.7055 390.134C82.0253 387.546 84.6059 386.163 86.532 384.453C88.2424 382.943 89.8339 381.181 92.0872 380.957V380.965Z" fill="#FFC4BC"/>
<path fill-rule="evenodd" clip-rule="evenodd" d="M69.8138 380.965C72.2605 380.719 74.9377 381.352 76.5589 383.24C78.1206 385.062 77.5926 387.717 77.6596 390.134C77.7265 392.678 78.5743 395.511 76.9531 397.437C75.2798 399.43 72.3795 399.46 69.8138 399.467C67.2407 399.467 64.5858 399.2 62.6522 397.46C60.6071 395.623 59.09 392.893 59.4321 390.134C59.7519 387.546 62.3324 386.163 64.2585 384.453C65.969 382.943 67.5605 381.181 69.8138 380.957V380.965Z" fill="#FFC4BC"/>
<path fill-rule="evenodd" clip-rule="evenodd" d="M47.5462 380.965C49.9929 380.719 52.6701 381.352 54.2913 383.24C55.8531 385.062 55.3251 387.717 55.392 390.134C55.4663 392.678 56.3067 395.511 54.6855 397.437C53.0122 399.43 50.1119 399.46 47.5462 399.467C44.9731 399.467 42.3182 399.2 40.3846 397.46C38.3395 395.623 36.8224 392.893 37.1645 390.134C37.4843 387.546 40.0648 386.163 41.991 384.453C43.7014 382.943 45.2929 381.181 47.5462 380.957V380.965Z" fill="#FFC4BC"/>
<path fill-rule="evenodd" clip-rule="evenodd" d="M131.057 403.239C133.504 402.993 136.181 403.625 137.802 405.522C139.364 407.344 138.836 409.999 138.903 412.416C138.97 414.959 139.817 417.792 138.196 419.718C136.523 421.711 133.623 421.741 131.057 421.749C128.484 421.749 125.829 421.481 123.895 419.741C121.85 417.904 120.333 415.175 120.675 412.416C120.995 409.828 123.576 408.444 125.502 406.734C127.212 405.224 128.804 403.462 131.057 403.239Z" fill="#FFC4BC"/>
<path fill-rule="evenodd" clip-rule="evenodd" d="M108.78 403.239C111.226 402.993 113.904 403.625 115.525 405.522C117.086 407.344 116.558 409.999 116.625 412.416C116.692 414.959 117.54 417.792 115.919 419.718C114.246 421.711 111.345 421.741 108.78 421.749C106.206 421.749 103.552 421.481 101.618 419.741C99.5729 417.904 98.0558 415.175 98.3979 412.416C98.7177 409.828 101.298 408.444 103.224 406.734C104.935 405.224 106.526 403.462 108.78 403.239Z" fill="#FFC4BC"/>
<path fill-rule="evenodd" clip-rule="evenodd" d="M86.5169 403.239C88.9636 402.993 91.6408 403.625 93.262 405.522C94.8238 407.344 94.2957 409.999 94.3627 412.416C94.4296 414.959 95.2774 417.792 93.6562 419.718C91.9829 421.711 89.0826 421.741 86.5169 421.749C83.9438 421.749 81.2889 421.481 79.3553 419.741C77.3102 417.904 75.7931 415.175 76.1352 412.416C76.455 409.828 79.0355 408.444 80.9617 406.734C82.6721 405.224 84.2636 403.462 86.5169 403.239V403.239Z" fill="#FFC4BC"/>
<path fill-rule="evenodd" clip-rule="evenodd" d="M41.9769 403.239C44.4236 402.993 47.1008 403.625 48.722 405.522C50.2837 407.344 49.7557 409.999 49.8226 412.416C49.897 414.959 50.7374 417.792 49.1162 419.718C47.4429 421.711 44.5426 421.741 41.9769 421.749C39.4038 421.749 36.7488 421.481 34.8153 419.741C32.7702 417.904 31.2531 415.175 31.5952 412.416C31.915 409.828 34.4955 408.444 36.4216 406.734C38.1321 405.224 39.7235 403.462 41.9769 403.239V403.239Z" fill="#FFC4BC"/>
<path fill-rule="evenodd" clip-rule="evenodd" d="M64.2484 403.239C66.695 402.993 69.3723 403.625 70.9935 405.522C72.5552 407.344 72.0272 409.999 72.0941 412.416C72.1611 414.959 73.0088 417.792 71.3876 419.718C69.7144 421.711 66.814 421.741 64.2484 421.749C61.6752 421.749 59.0203 421.481 57.0868 419.741C55.0417 417.904 53.5246 415.175 53.8667 412.416C54.1864 409.828 56.767 408.444 58.6931 406.734C60.4036 405.224 61.995 403.462 64.2484 403.239V403.239Z" fill="#FFC4BC"/>
<path fill-rule="evenodd" clip-rule="evenodd" d="M19.7132 403.239C22.1599 402.993 24.8371 403.625 26.4583 405.522C28.0201 407.344 27.492 409.999 27.559 412.416C27.6333 414.959 28.4737 417.792 26.8525 419.718C25.1792 421.711 22.2789 421.741 19.7132 421.749C17.1401 421.749 14.4852 421.481 12.5516 419.741C10.5065 417.904 8.98941 415.175 9.3315 412.416C9.65128 409.828 12.2318 408.444 14.158 406.734C15.8684 405.224 17.4599 403.462 19.7132 403.239V403.239Z" fill="#FFC4BC"/>
<path fill-rule="evenodd" clip-rule="evenodd" d="M25.2816 380.965C27.7283 380.719 30.4055 381.352 32.0267 383.24C33.5884 385.062 33.0604 387.717 33.1273 390.134C33.2017 392.678 34.0421 395.511 32.4208 397.437C30.7476 399.43 27.8472 399.46 25.2816 399.467C22.7084 399.467 20.0535 399.2 18.12 397.46C16.0749 395.623 14.5578 392.893 14.8999 390.134C15.2196 387.546 17.8002 386.163 19.7263 384.453C21.4368 382.943 23.0282 381.181 25.2816 380.957V380.965Z" fill="#FFC4BC"/>
<path fill-rule="evenodd" clip-rule="evenodd" d="M153.32 412.52C155.766 412.275 158.444 412.907 160.065 414.803C161.626 416.625 161.098 419.28 161.165 421.697C161.232 424.241 162.08 427.074 160.459 429C158.786 430.993 155.885 431.023 153.32 431.03C150.747 431.03 148.092 430.763 146.158 429.022C144.113 427.185 142.596 424.456 142.938 421.697C143.258 419.109 145.838 417.718 147.764 416.015C149.475 414.506 151.066 412.743 153.32 412.52Z" fill="#FFC4BC"/>
<path fill-rule="evenodd" clip-rule="evenodd" d="M145.899 434.788C148.345 434.543 151.023 435.175 152.644 437.071C154.206 438.893 153.678 441.548 153.745 443.965C153.819 446.509 154.659 449.342 153.038 451.268C151.365 453.261 148.464 453.291 145.899 453.298C143.326 453.298 140.671 453.031 138.737 451.29C136.692 449.454 135.175 446.724 135.517 443.965C135.837 441.377 138.417 439.994 140.344 438.284C142.054 436.774 143.645 435.011 145.899 434.788V434.788Z" fill="#FFC4BC"/>
<path fill-rule="evenodd" clip-rule="evenodd" d="M136.617 457.056C139.063 456.81 141.74 457.442 143.362 459.339C144.923 461.161 144.395 463.816 144.462 466.233C144.529 468.776 145.377 471.609 143.756 473.535C142.083 475.528 139.182 475.558 136.617 475.566C134.043 475.566 131.388 475.298 129.455 473.558C127.41 471.721 125.893 468.992 126.235 466.233C126.555 463.645 129.135 462.261 131.061 460.551C132.772 459.041 134.363 457.279 136.617 457.056Z" fill="#FFC4BC"/>
<path fill-rule="evenodd" clip-rule="evenodd" d="M131.056 479.323C133.503 479.078 136.18 479.71 137.801 481.606C139.363 483.428 138.835 486.083 138.902 488.5C138.969 491.043 139.816 493.877 138.195 495.803C136.522 497.796 133.622 497.826 131.056 497.833C128.483 497.833 125.828 497.565 123.894 495.825C121.849 493.988 120.332 491.259 120.674 488.5C120.994 485.912 123.575 484.529 125.501 482.818C127.211 481.309 128.803 479.546 131.056 479.323Z" fill="#FFC4BC"/>
<path fill-rule="evenodd" clip-rule="evenodd" d="M121.773 425.506C124.219 425.261 126.897 425.893 128.518 427.789C130.08 429.611 129.552 432.266 129.619 434.683C129.685 437.226 130.533 440.06 128.912 441.986C127.239 443.979 124.338 444.009 121.773 444.016C119.2 444.016 116.545 443.748 114.611 442.008C112.566 440.171 111.049 437.442 111.391 434.683C111.711 432.095 114.291 430.704 116.218 429.001C117.928 427.492 119.519 425.729 121.773 425.506Z" fill="#FFC4BC"/>
<path fill-rule="evenodd" clip-rule="evenodd" d="M99.4993 425.506C101.946 425.261 104.623 425.893 106.244 427.789C107.806 429.611 107.278 432.266 107.345 434.683C107.419 437.226 108.26 440.06 106.639 441.986C104.965 443.979 102.065 444.009 99.4993 444.016C96.9262 444.016 94.2713 443.748 92.3377 442.008C90.2926 440.171 88.7755 437.442 89.1176 434.683C89.4374 432.095 92.018 430.704 93.9441 429.001C95.6545 427.492 97.246 425.729 99.4993 425.506Z" fill="#FFC4BC"/>
<path fill-rule="evenodd" clip-rule="evenodd" d="M77.2327 425.506C79.6794 425.261 82.3567 425.893 83.9779 427.789C85.5396 429.611 85.0116 432.266 85.0785 434.683C85.1454 437.226 85.9932 440.06 84.372 441.986C82.6987 443.979 79.7984 444.009 77.2327 444.016C74.6596 444.016 72.0047 443.748 70.0711 442.008C68.026 440.171 66.5089 437.442 66.851 434.683C67.1708 432.095 69.7514 430.704 71.6775 429.001C73.3879 427.492 74.9794 425.729 77.2327 425.506Z" fill="#FFC4BC"/>
<path fill-rule="evenodd" clip-rule="evenodd" d="M32.7025 425.506C35.1492 425.261 37.8264 425.893 39.4476 427.789C41.0093 429.611 40.4813 432.266 40.5482 434.683C40.6226 437.226 41.4629 440.06 39.8417 441.986C38.1685 443.979 35.2681 444.009 32.7025 444.016C30.1293 444.016 27.4744 443.748 25.5409 442.008C23.4958 440.171 21.9787 437.442 22.3208 434.683C22.6405 432.095 25.2211 430.704 27.1472 429.001C28.8577 427.492 30.4491 425.729 32.7025 425.506V425.506Z" fill="#FFC4BC"/>
<path fill-rule="evenodd" clip-rule="evenodd" d="M54.9671 425.506C57.4138 425.261 60.091 425.893 61.7122 427.789C63.274 429.611 62.7459 432.266 62.8129 434.683C62.8798 437.226 63.7276 440.06 62.1064 441.986C60.4331 443.979 57.5328 444.009 54.9671 444.016C52.394 444.016 49.7391 443.748 47.8055 442.008C45.7604 440.171 44.2433 437.442 44.5854 434.683C44.9052 432.095 47.4857 430.704 49.4119 429.001C51.1223 427.492 52.7138 425.729 54.9671 425.506Z" fill="#FFC4BC"/>
<path fill-rule="evenodd" clip-rule="evenodd" d="M10.43 425.506C12.8767 425.261 15.5539 425.893 17.1751 427.789C18.7368 429.611 18.2088 432.266 18.2758 434.683C18.3501 437.226 19.1905 440.06 17.5693 441.986C15.896 443.979 12.9957 444.009 10.43 444.016C7.85689 444.016 5.20197 443.748 3.26841 442.008C1.22331 440.171 -0.293791 437.442 0.0482999 434.683C0.36808 432.095 2.94863 430.704 4.87475 429.001C6.5852 427.492 8.17667 425.729 10.43 425.506Z" fill="#FFC4BC"/>
<path fill-rule="evenodd" clip-rule="evenodd" d="M112.49 447.773C114.936 447.528 117.613 448.16 119.235 450.056C120.796 451.878 120.268 454.533 120.335 456.95C120.402 459.494 121.25 462.327 119.629 464.253C117.956 466.246 115.055 466.276 112.49 466.283C109.916 466.283 107.262 466.016 105.328 464.276C103.283 462.439 101.766 459.709 102.108 456.95C102.428 454.362 105.008 452.979 106.934 451.269C108.645 449.759 110.236 447.996 112.49 447.773Z" fill="#FFC4BC"/>
<path fill-rule="evenodd" clip-rule="evenodd" d="M90.2288 447.773C92.6755 447.528 95.3527 448.16 96.974 450.056C98.5357 451.878 98.0077 454.533 98.0746 456.95C98.149 459.494 98.9893 462.327 97.3681 464.253C95.6948 466.246 92.7945 466.276 90.2288 466.283C87.6557 466.283 85.0008 466.016 83.0672 464.276C81.0221 462.439 79.505 459.709 79.8471 456.95C80.1669 454.362 82.7475 452.979 84.6736 451.269C86.384 449.759 87.9755 447.996 90.2288 447.773Z" fill="#FFC4BC"/>
<path fill-rule="evenodd" clip-rule="evenodd" d="M67.9554 447.773C70.4021 447.528 73.0793 448.16 74.7005 450.056C76.2622 451.878 75.7342 454.533 75.8012 456.95C75.8681 459.494 76.7159 462.327 75.0947 464.253C73.4214 466.246 70.5211 466.276 67.9554 466.283C65.3823 466.283 62.7274 466.016 60.7938 464.276C58.7487 462.439 57.2316 459.709 57.5737 456.95C57.8935 454.362 60.474 452.979 62.4001 451.269C64.1106 449.759 65.7021 447.996 67.9554 447.773Z" fill="#FFC4BC"/>
<path fill-rule="evenodd" clip-rule="evenodd" d="M45.6868 447.773C48.1335 447.528 50.8108 448.16 52.432 450.056C53.9937 451.878 53.4657 454.533 53.5326 456.95C53.607 459.494 54.4473 462.327 52.8261 464.253C51.1528 466.246 48.2525 466.276 45.6868 466.283C43.1137 466.283 40.4588 466.016 38.5252 464.276C36.4801 462.439 34.963 459.709 35.3051 456.95C35.6249 454.362 38.2055 452.979 40.1316 451.269C41.842 449.759 43.4335 447.996 45.6868 447.773Z" fill="#FFC4BC"/>
<path fill-rule="evenodd" clip-rule="evenodd" d="M103.219 470.047C105.666 469.802 108.343 470.434 109.964 472.33C111.526 474.152 110.998 476.807 111.065 479.224C111.132 481.768 111.98 484.601 110.358 486.527C108.685 488.52 105.785 488.55 103.219 488.557C100.646 488.557 97.991 488.29 96.0575 486.549C94.0124 484.712 92.4953 481.983 92.8374 479.224C93.1571 476.636 95.7377 475.253 97.6638 473.543C99.3743 472.033 100.966 470.27 103.219 470.047Z" fill="#FFC4BC"/>
<path fill-rule="evenodd" clip-rule="evenodd" d="M80.9446 470.047C83.3913 469.802 86.0686 470.434 87.6898 472.33C89.2515 474.152 88.7235 476.807 88.7904 479.224C88.8573 481.768 89.7051 484.601 88.0839 486.527C86.4107 488.52 83.5103 488.55 80.9446 488.557C78.3715 488.557 75.7166 488.29 73.7831 486.549C71.738 484.712 70.2209 481.983 70.5629 479.224C70.8827 476.636 73.4633 475.253 75.3894 473.543C77.0999 472.033 78.6913 470.27 80.9446 470.047Z" fill="#FFC4BC"/>
<path fill-rule="evenodd" clip-rule="evenodd" d="M73.5257 492.315C75.9724 492.07 78.6496 492.702 80.2708 494.591C81.8325 496.413 81.3045 499.068 81.3715 501.485C81.4458 504.028 82.2862 506.862 80.665 508.788C78.9917 510.781 76.0914 510.811 73.5257 510.818C70.9526 510.818 68.2977 510.55 66.3641 508.81C64.319 506.973 62.8019 504.244 63.144 501.485C63.4638 498.897 66.0443 497.514 67.9705 495.803C69.6809 494.294 71.2724 492.531 73.5257 492.308V492.315Z" fill="#FFC4BC"/>
<path fill-rule="evenodd" clip-rule="evenodd" d="M58.681 470.047C61.1277 469.802 63.8049 470.434 65.4261 472.33C66.9878 474.152 66.4598 476.807 66.5267 479.224C66.5937 481.768 67.4415 484.601 65.8203 486.527C64.147 488.52 61.2467 488.55 58.681 488.557C56.1079 488.557 53.4529 488.29 51.5194 486.549C49.4743 484.712 47.9572 481.983 48.2993 479.224C48.6191 476.636 51.1996 475.253 53.1257 473.543C54.8362 472.033 56.4276 470.27 58.681 470.047Z" fill="#FFC4BC"/>
<path fill-rule="evenodd" clip-rule="evenodd" d="M51.2601 492.315C53.7068 492.07 56.384 492.702 58.0052 494.591C59.5669 496.413 59.0389 499.068 59.1058 501.485C59.1802 504.028 60.0206 506.862 58.3994 508.788C56.7261 510.781 53.8258 510.811 51.2601 510.818C48.687 510.818 46.032 510.55 44.0985 508.81C42.0534 506.973 40.5363 504.244 40.8784 501.485C41.1982 498.897 43.7787 497.514 45.7048 495.803C47.4153 494.294 49.0067 492.531 51.2601 492.308V492.315Z" fill="#FFC4BC"/>
<path fill-rule="evenodd" clip-rule="evenodd" d="M36.4075 470.047C38.8542 469.802 41.5315 470.434 43.1527 472.33C44.7144 474.152 44.1864 476.807 44.2533 479.224C44.3277 481.768 45.168 484.601 43.5468 486.527C41.8735 488.52 38.9732 488.55 36.4075 488.557C33.8344 488.557 31.1795 488.29 29.2459 486.549C27.2008 484.712 25.6837 481.983 26.0258 479.224C26.3456 476.636 28.9262 475.253 30.8523 473.543C32.5627 472.033 34.1542 470.27 36.4075 470.047V470.047Z" fill="#FFC4BC"/>
<path fill-rule="evenodd" clip-rule="evenodd" d="M14.1468 466.337C16.5935 466.092 19.2707 466.724 20.8919 468.62C22.4536 470.442 21.9256 473.097 21.9926 475.514C22.0669 478.058 22.9073 480.891 21.2861 482.817C19.6128 484.81 16.7125 484.84 14.1468 484.847C11.5737 484.847 8.91876 484.58 6.98521 482.84C4.9401 481.003 3.42301 478.273 3.7651 475.514C4.08488 472.926 6.66543 471.543 8.59155 469.833C10.302 468.323 11.8935 466.56 14.1468 466.337V466.337Z" fill="#FFC4BC"/>
<path fill-rule="evenodd" clip-rule="evenodd" d="M28.9964 492.315C31.4431 492.07 34.1203 492.702 35.7415 494.591C37.3033 496.413 36.7752 499.068 36.8422 501.485C36.9165 504.028 37.7569 506.862 36.1357 508.788C34.4624 510.781 31.5621 510.811 28.9964 510.818C26.4233 510.818 23.7684 510.55 21.8348 508.81C19.7897 506.973 18.2726 504.244 18.6147 501.485C18.9345 498.897 21.515 497.514 23.4412 495.803C25.1516 494.294 26.7431 492.531 28.9964 492.308V492.315Z" fill="#FFC4BC"/>
</svg>
