<svg width="540" height="644" viewBox="0 0 540 644" fill="none" xmlns="http://www.w3.org/2000/svg">
<path fill-rule="evenodd" clip-rule="evenodd" d="M456.917 220.11C466.197 268.509 546.171 298.967 531.12 346.598C517.035 391.173 443.34 387.061 397.762 407.316C358.201 424.897 324.444 455.424 280.889 457.8C236.116 460.243 195.592 439.828 156.486 420.482C114.08 399.503 56.0629 384.154 44.701 340.955C33.0418 296.626 84.4859 259.154 102.747 216.161C116.481 183.827 112.394 144.791 138.678 119.703C164.711 94.8545 208.713 100.618 241.413 83.8032C288.51 59.5861 317.998 -1.51674 371.414 0.0287883C422.326 1.50183 465.034 46.9292 482.065 90.7661C498.254 132.436 448.536 176.403 456.917 220.11Z" fill="#EDE8D7"/>
<path d="M173.5 551.742H182.44C182.8 551.742 182.94 551.562 183.02 551.222L183.52 548.722C183.58 548.462 183.46 548.322 183.24 548.322H183.04C182.26 548.322 182 550.722 180.66 550.722H177C176.5 550.722 176.26 550.302 176.26 549.782V539.202C176.26 538.402 177.08 538.342 177.08 537.882V537.822C177.08 537.642 176.9 537.542 176.64 537.542H173.5C173.24 537.542 173.08 537.642 173.08 537.822V537.882C173.08 538.342 173.82 538.402 173.82 539.202V550.082C173.82 550.862 173.08 550.962 173.08 551.402V551.462C173.08 551.622 173.24 551.742 173.5 551.742ZM192.479 548.802C192.079 549.602 191.179 550.262 189.919 550.262C188.499 550.262 187.479 549.422 186.979 548.062L191.819 546.282C192.439 546.062 192.839 545.642 192.839 544.882C192.839 543.482 191.679 541.942 189.099 541.942C186.459 541.942 184.319 544.002 184.319 546.862C184.319 549.962 186.379 551.942 189.059 551.942C191.599 551.942 192.939 550.182 193.119 549.002C193.159 548.602 192.699 548.522 192.479 548.802ZM188.699 542.702C189.859 542.702 190.599 544.142 190.599 544.962C190.599 545.362 190.439 545.642 190.079 545.802L186.759 547.242C186.679 546.842 186.639 546.422 186.639 545.962C186.639 544.042 187.439 542.702 188.699 542.702ZM203.762 550.082V537.102C203.762 536.702 203.542 536.582 203.062 536.742L200.942 537.422C200.722 537.502 200.582 537.642 200.582 537.822V537.862C200.582 538.302 201.502 538.322 201.502 539.202V542.962C200.862 542.342 199.962 541.942 198.882 541.942C196.262 541.942 194.182 543.982 194.182 546.922C194.182 550.042 196.402 551.942 198.842 551.942C199.942 551.942 200.982 551.502 201.642 550.662L201.702 551.362C201.722 551.582 201.862 551.742 202.102 551.742H204.182C204.402 551.742 204.522 551.642 204.522 551.462V551.402C204.522 550.982 203.762 550.862 203.762 550.082ZM199.382 551.182C197.562 551.142 196.402 548.822 196.462 546.102C196.502 543.982 197.482 542.702 198.962 542.702C200.362 542.702 201.502 544.122 201.502 545.402V548.602C201.502 550.342 200.362 551.182 199.382 551.182ZM207.746 540.482C208.726 540.482 209.366 539.862 209.366 538.982C209.366 538.122 208.726 537.482 207.746 537.482C206.746 537.482 206.086 538.122 206.086 538.982C206.086 539.862 206.746 540.482 207.746 540.482ZM206.266 551.742H209.306C209.566 551.742 209.746 551.622 209.746 551.442V551.362C209.746 550.922 208.926 550.842 208.926 550.062V542.362C208.926 542.042 208.666 541.802 208.206 542.022L206.206 543.022C205.986 543.142 205.846 543.222 205.846 543.382V543.442C205.846 543.802 206.586 544.002 206.586 544.822V550.062C206.586 550.842 205.846 550.922 205.846 551.362V551.442C205.846 551.622 206.006 551.742 206.266 551.742ZM219.659 542.142C217.379 542.142 216.939 541.942 215.619 541.942C212.879 541.942 211.019 543.642 211.019 546.062C211.019 548.282 212.979 549.982 215.519 549.982C215.779 549.982 216.019 549.962 216.259 549.942C217.359 550.062 218.019 550.862 218.019 552.002C218.019 553.222 217.079 554.062 215.639 554.062C212.799 554.042 213.379 550.962 211.899 550.962C211.239 550.962 210.939 551.422 210.939 551.902C210.939 553.322 212.539 554.802 215.559 554.802C218.319 554.802 220.379 553.682 220.379 551.902C220.379 550.802 219.639 549.902 217.899 549.502C219.319 548.842 220.219 547.562 220.219 545.962C220.219 544.982 219.699 543.962 218.959 543.302C219.559 543.142 220.279 543.222 220.519 542.702C220.699 542.402 220.539 542.142 219.659 542.142ZM213.339 545.042C213.339 543.682 214.059 542.702 215.239 542.702C216.839 542.702 217.899 544.662 217.899 546.842C217.899 548.202 217.139 549.202 215.899 549.202C214.499 549.202 213.339 547.302 213.339 545.042ZM229.92 548.802C229.52 549.602 228.62 550.262 227.36 550.262C225.94 550.262 224.92 549.422 224.42 548.062L229.26 546.282C229.88 546.062 230.28 545.642 230.28 544.882C230.28 543.482 229.12 541.942 226.54 541.942C223.9 541.942 221.76 544.002 221.76 546.862C221.76 549.962 223.82 551.942 226.5 551.942C229.04 551.942 230.38 550.182 230.56 549.002C230.6 548.602 230.14 548.522 229.92 548.802ZM226.14 542.702C227.3 542.702 228.04 544.142 228.04 544.962C228.04 545.362 227.88 545.642 227.52 545.802L224.2 547.242C224.12 546.842 224.08 546.422 224.08 545.962C224.08 544.042 224.88 542.702 226.14 542.702ZM240.06 551.922C242.64 551.922 244.26 550.702 244.26 549.142C244.26 545.182 238.44 546.922 238.44 544.202C238.44 543.342 239.14 542.662 240.12 542.662C242.22 542.662 241.68 545.182 243.08 545.182C243.6 545.182 244 544.822 244 544.322C244 543.162 242.5 541.942 240 541.942C237.7 541.942 236.08 543.162 236.08 544.782C236.08 548.782 241.9 547.002 241.9 549.702C241.9 550.722 241.12 551.242 240.06 551.242C237.72 551.242 238.38 548.702 236.88 548.702C236.3 548.702 235.88 549.002 235.88 549.622C235.88 550.722 237.44 551.922 240.06 551.922ZM249.155 551.942C250.955 551.942 251.975 550.602 251.975 549.262C251.975 548.902 251.495 548.842 251.315 549.162C251.195 549.742 250.735 550.202 249.895 550.202C249.235 550.202 248.755 549.682 248.755 548.722V543.122H251.275C251.475 543.122 251.635 542.982 251.635 542.782V542.502C251.635 542.302 251.475 542.142 251.275 542.142H248.755L248.735 540.202C248.735 539.922 248.615 539.762 248.355 539.762H248.055C247.855 539.762 247.695 539.922 247.655 540.202C247.495 541.362 246.875 542.142 245.835 542.142H245.215C244.995 542.142 244.875 542.282 244.875 542.502V542.782C244.875 542.982 245.015 543.122 245.215 543.122H246.355V548.702C246.355 550.862 247.475 551.942 249.155 551.942ZM254.816 540.482C255.796 540.482 256.436 539.862 256.436 538.982C256.436 538.122 255.796 537.482 254.816 537.482C253.816 537.482 253.156 538.122 253.156 538.982C253.156 539.862 253.816 540.482 254.816 540.482ZM253.336 551.742H256.376C256.636 551.742 256.816 551.622 256.816 551.442V551.362C256.816 550.922 255.996 550.842 255.996 550.062V542.362C255.996 542.042 255.736 541.802 255.276 542.022L253.276 543.022C253.056 543.142 252.916 543.222 252.916 543.382V543.442C252.916 543.802 253.656 544.002 253.656 544.822V550.062C253.656 550.842 252.916 550.922 252.916 551.362V551.442C252.916 551.622 253.076 551.742 253.336 551.742ZM258.509 551.742H261.549C261.809 551.742 261.989 551.622 261.989 551.442V551.382C261.989 550.922 261.169 550.862 261.169 550.082V537.082C261.169 536.782 260.909 536.542 260.449 536.762L258.429 537.762C258.229 537.862 258.089 537.942 258.089 538.122V538.182C258.089 538.542 258.829 538.702 258.829 539.542V550.082C258.829 550.862 258.089 550.922 258.089 551.382V551.442C258.089 551.622 258.249 551.742 258.509 551.742ZM263.646 551.742H266.686C266.946 551.742 267.126 551.622 267.126 551.442V551.382C267.126 550.922 266.306 550.862 266.306 550.082V537.082C266.306 536.782 266.046 536.542 265.586 536.762L263.566 537.762C263.366 537.862 263.226 537.942 263.226 538.122V538.182C263.226 538.542 263.966 538.702 263.966 539.542V550.082C263.966 550.862 263.226 550.922 263.226 551.382V551.442C263.226 551.622 263.386 551.742 263.646 551.742ZM270.383 540.482C271.363 540.482 272.003 539.862 272.003 538.982C272.003 538.122 271.363 537.482 270.383 537.482C269.383 537.482 268.723 538.122 268.723 538.982C268.723 539.862 269.383 540.482 270.383 540.482ZM268.903 551.742H271.943C272.203 551.742 272.383 551.622 272.383 551.442V551.362C272.383 550.922 271.563 550.842 271.563 550.062V542.362C271.563 542.042 271.303 541.802 270.843 542.022L268.843 543.022C268.623 543.142 268.483 543.222 268.483 543.382V543.442C268.483 543.802 269.223 544.002 269.223 544.822V550.062C269.223 550.842 268.483 550.922 268.483 551.362V551.442C268.483 551.622 268.643 551.742 268.903 551.742ZM283.656 550.062L283.416 546.282C283.216 543.142 281.496 541.942 279.616 541.942C278.236 541.942 277.136 542.602 276.576 543.682V542.382C276.576 542.042 276.376 541.802 275.956 542.022L274.016 542.962C273.796 543.062 273.656 543.162 273.656 543.322V543.382C273.656 543.822 274.556 543.842 274.556 544.722V550.082C274.556 550.862 273.756 550.942 273.756 551.382V551.462C273.756 551.642 273.916 551.762 274.176 551.762H277.276C277.556 551.762 277.716 551.642 277.716 551.462V551.382C277.716 550.942 276.896 550.862 276.896 550.082V545.382C276.896 543.942 277.716 542.902 278.996 542.902C280.216 542.902 280.996 543.922 281.096 546.202L281.296 550.062C281.336 550.862 280.576 550.942 280.576 551.382V551.462C280.576 551.642 280.736 551.762 281.016 551.762H283.936C284.196 551.762 284.376 551.642 284.376 551.462V551.382C284.376 550.942 283.696 550.862 283.656 550.062ZM294.053 542.142C291.773 542.142 291.333 541.942 290.013 541.942C287.273 541.942 285.413 543.642 285.413 546.062C285.413 548.282 287.373 549.982 289.913 549.982C290.173 549.982 290.413 549.962 290.653 549.942C291.753 550.062 292.413 550.862 292.413 552.002C292.413 553.222 291.473 554.062 290.033 554.062C287.193 554.042 287.773 550.962 286.293 550.962C285.633 550.962 285.333 551.422 285.333 551.902C285.333 553.322 286.933 554.802 289.953 554.802C292.713 554.802 294.773 553.682 294.773 551.902C294.773 550.802 294.033 549.902 292.293 549.502C293.713 548.842 294.613 547.562 294.613 545.962C294.613 544.982 294.093 543.962 293.353 543.302C293.953 543.142 294.673 543.222 294.913 542.702C295.093 542.402 294.933 542.142 294.053 542.142ZM287.733 545.042C287.733 543.682 288.453 542.702 289.633 542.702C291.233 542.702 292.293 544.662 292.293 546.842C292.293 548.202 291.533 549.202 290.293 549.202C288.893 549.202 287.733 547.302 287.733 545.042ZM304.315 548.802C303.915 549.602 303.015 550.262 301.755 550.262C300.335 550.262 299.315 549.422 298.815 548.062L303.655 546.282C304.275 546.062 304.675 545.642 304.675 544.882C304.675 543.482 303.515 541.942 300.935 541.942C298.295 541.942 296.155 544.002 296.155 546.862C296.155 549.962 298.215 551.942 300.895 551.942C303.435 551.942 304.775 550.182 304.955 549.002C304.995 548.602 304.535 548.522 304.315 548.802ZM300.535 542.702C301.695 542.702 302.435 544.142 302.435 544.962C302.435 545.362 302.275 545.642 301.915 545.802L298.595 547.242C298.515 546.842 298.475 546.422 298.475 545.962C298.475 544.042 299.275 542.702 300.535 542.702ZM311.638 541.942C310.358 541.942 309.418 542.642 308.978 543.922V542.362C308.978 542.022 308.818 541.822 308.398 542.022L306.438 542.922C306.218 543.042 306.078 543.182 306.078 543.342V543.402C306.078 543.842 306.938 543.882 306.938 544.702V550.082C306.938 550.862 306.178 550.942 306.178 551.382V551.462C306.178 551.642 306.338 551.742 306.598 551.742H309.698C309.958 551.742 310.118 551.642 310.118 551.462V551.382C310.118 550.942 309.198 550.862 309.198 550.082V545.802C309.198 544.502 309.638 543.322 310.578 543.322C311.738 543.322 311.138 544.882 312.438 544.882C313.198 544.882 313.478 544.302 313.478 543.622C313.478 542.702 312.818 541.942 311.638 541.942Z" fill="#333333"/>
<path fill-rule="evenodd" clip-rule="evenodd" d="M149.671 574.608C152.643 574.31 155.895 575.078 157.865 577.382C159.762 579.595 159.12 582.82 159.202 585.756C159.292 588.846 160.313 592.288 158.343 594.628C156.311 597.049 152.787 597.085 149.671 597.095C146.545 597.095 143.319 596.769 140.971 594.655C138.486 592.424 136.643 589.108 137.059 585.756C137.447 582.613 140.582 580.923 142.922 578.854C145 577.02 146.933 574.879 149.671 574.608Z" fill="#423D89"/>
<path d="M183.8 592H188.7C191.56 592 193.4 590.7 193.4 588V587.92C193.4 586.06 192.62 585 190.54 584.5C192.18 583.94 192.7 582.78 192.7 581.48V581.4C192.7 578.58 190.76 577.7 188.1 577.7H183.8V592ZM185.5 590.64V585.3H188.42C190.72 585.3 191.7 586.14 191.7 587.9V587.98C191.7 589.72 190.74 590.64 188.66 590.64H185.5ZM185.5 583.94V579.06H188.06C190.06 579.06 191 579.72 191 581.34V581.42C191 583.18 190.2 583.94 188.1 583.94H185.5ZM200.401 592.18C202.761 592.18 204.501 591.08 204.861 588.98H203.201C202.981 590.2 202.041 590.8 200.421 590.8C198.281 590.8 197.141 589.48 197.061 587.1H204.941V586.56C204.941 582.82 202.661 581.36 200.241 581.36C197.361 581.36 195.341 583.56 195.341 586.72V586.88C195.341 590.1 197.441 592.18 200.401 592.18ZM197.121 585.76C197.401 583.9 198.541 582.74 200.241 582.74C201.961 582.74 203.081 583.6 203.241 585.76H197.121ZM207.489 592H209.149V586.26C209.149 583.68 210.489 583.02 212.589 582.92V581.36C210.709 581.42 209.809 582.24 209.149 583.42V581.54H207.489V592ZM218.895 595.82C221.815 595.82 223.875 594.34 223.895 591.3V581.54H222.235V583.22C221.635 582.2 220.555 581.36 218.815 581.36C215.935 581.36 213.935 583.72 213.935 586.56V586.7C213.935 589.58 215.955 591.66 218.695 591.66C220.215 591.66 221.635 590.7 222.235 589.68V591.2C222.235 593.44 220.935 594.42 218.875 594.42C217.095 594.42 216.095 593.8 215.855 592.6H214.155C214.435 594.36 215.795 595.82 218.895 595.82ZM218.875 590.28C217.115 590.28 215.655 588.92 215.655 586.64V586.48C215.655 584.28 216.895 582.74 218.975 582.74C221.015 582.74 222.295 584.1 222.295 586.44V586.58C222.295 588.92 220.815 590.28 218.875 590.28ZM231.534 592.18C233.894 592.18 235.634 591.08 235.994 588.98H234.334C234.114 590.2 233.174 590.8 231.554 590.8C229.414 590.8 228.274 589.48 228.194 587.1H236.074V586.56C236.074 582.82 233.794 581.36 231.374 581.36C228.494 581.36 226.474 583.56 226.474 586.72V586.88C226.474 590.1 228.574 592.18 231.534 592.18ZM228.254 585.76C228.534 583.9 229.674 582.74 231.374 582.74C233.094 582.74 234.214 583.6 234.374 585.76H228.254ZM238.621 592H240.281V585.66C240.281 583.78 241.661 582.8 243.201 582.8C244.881 582.8 245.661 583.62 245.661 585.46V592H247.321V585.58C247.321 582.54 245.801 581.36 243.641 581.36C241.921 581.36 240.761 582.22 240.281 583.2V581.54H238.621V592Z" fill="#333333"/>
<path d="M310.86 592H312.6V577.7H310.98L307.66 580.1V581.72L310.86 579.42V592ZM325.501 592.18C327.181 592.18 328.341 591.32 328.821 590.34V592H330.481V581.54H328.821V587.88C328.821 589.76 327.421 590.74 325.941 590.74C324.301 590.74 323.521 589.92 323.521 588.08V581.54H321.861V588.16C321.861 591.04 323.421 592.18 325.501 592.18ZM337.016 592.14C337.696 592.14 338.096 592.04 338.436 591.92V590.52C338.076 590.66 337.676 590.74 337.156 590.74C336.316 590.74 335.856 590.24 335.856 589.22V582.94H338.296V581.54H335.856V579.16H334.196V581.54H332.696V582.94H334.196V589.38C334.196 591.02 335.116 592.14 337.016 592.14ZM343.566 592H345.686L349.446 581.54H347.726L344.666 590.32L341.566 581.54H339.766L343.566 592ZM351.669 592H353.329V581.54H351.669V592ZM352.469 579.36C353.069 579.36 353.569 578.86 353.569 578.26C353.569 577.66 353.069 577.16 352.469 577.16C351.869 577.16 351.369 577.66 351.369 578.26C351.369 578.86 351.869 579.36 352.469 579.36ZM356.727 592H358.387V586.58L363.027 592H365.047L360.187 586.4L364.667 581.54H362.727L358.387 586.36V576.54H356.727V592ZM367.079 592H368.759V576.54H367.079V592ZM376.437 592.18C378.797 592.18 380.537 591.08 380.897 588.98H379.237C379.017 590.2 378.077 590.8 376.457 590.8C374.317 590.8 373.177 589.48 373.097 587.1H380.977V586.56C380.977 582.82 378.697 581.36 376.277 581.36C373.397 581.36 371.377 583.56 371.377 586.72V586.88C371.377 590.1 373.477 592.18 376.437 592.18ZM373.157 585.76C373.437 583.9 374.577 582.74 376.277 582.74C377.997 582.74 379.117 583.6 379.277 585.76H373.157ZM383.524 592H385.184V586.26C385.184 583.68 386.524 583.02 388.624 582.92V581.36C386.744 581.42 385.844 582.24 385.184 583.42V581.54H383.524V592Z" fill="#333333"/>
<path d="M430.86 592H432.6V577.7H430.98L427.66 580.1V581.72L430.86 579.42V592ZM445.901 592.18C447.421 592.18 448.881 591.22 449.481 590.2V592H451.141V576.54H449.481V583.22C448.881 582.2 447.801 581.36 446.061 581.36C443.181 581.36 441.181 583.62 441.181 586.82V586.98C441.181 590.24 443.161 592.18 445.901 592.18ZM446.081 590.8C444.321 590.8 442.901 589.54 442.901 586.9V586.74C442.901 584.2 444.141 582.74 446.221 582.74C448.261 582.74 449.541 584 449.541 586.68V586.84C449.541 589.52 448.021 590.8 446.081 590.8ZM458.78 592.18C461.14 592.18 462.88 591.08 463.24 588.98H461.58C461.36 590.2 460.42 590.8 458.8 590.8C456.66 590.8 455.52 589.48 455.44 587.1H463.32V586.56C463.32 582.82 461.04 581.36 458.62 581.36C455.74 581.36 453.72 583.56 453.72 586.72V586.88C453.72 590.1 455.82 592.18 458.78 592.18ZM455.5 585.76C455.78 583.9 456.92 582.74 458.62 582.74C460.34 582.74 461.46 583.6 461.62 585.76H455.5ZM469.205 592.18C471.745 592.18 473.045 590.9 473.045 589C473.045 586.78 471.525 586.3 469.365 585.9C467.445 585.56 466.925 585.18 466.925 584.24C466.925 583.34 467.705 582.74 468.905 582.74C470.225 582.74 470.865 583.24 471.105 584.38H472.705C472.425 582.12 470.805 581.36 468.925 581.36C467.285 581.36 465.385 582.36 465.385 584.3C465.385 586.12 466.305 586.88 469.025 587.38C470.645 587.68 471.465 588.04 471.465 589.14C471.465 590.26 470.765 590.8 469.185 590.8C467.505 590.8 466.845 590.02 466.725 588.78H465.105C465.205 590.92 466.705 592.18 469.205 592.18ZM475.615 592H477.275V581.54H475.615V592ZM476.415 579.36C477.015 579.36 477.515 578.86 477.515 578.26C477.515 577.66 477.015 577.16 476.415 577.16C475.815 577.16 475.315 577.66 475.315 578.26C475.315 578.86 475.815 579.36 476.415 579.36ZM484.852 595.82C487.772 595.82 489.832 594.34 489.852 591.3V581.54H488.192V583.22C487.592 582.2 486.512 581.36 484.772 581.36C481.892 581.36 479.892 583.72 479.892 586.56V586.7C479.892 589.58 481.912 591.66 484.652 591.66C486.172 591.66 487.592 590.7 488.192 589.68V591.2C488.192 593.44 486.892 594.42 484.832 594.42C483.052 594.42 482.052 593.8 481.812 592.6H480.112C480.392 594.36 481.752 595.82 484.852 595.82ZM484.832 590.28C483.072 590.28 481.612 588.92 481.612 586.64V586.48C481.612 584.28 482.852 582.74 484.932 582.74C486.972 582.74 488.252 584.1 488.252 586.44V586.58C488.252 588.92 486.772 590.28 484.832 590.28ZM493.211 592H494.871V585.66C494.871 583.78 496.251 582.8 497.791 582.8C499.471 582.8 500.251 583.62 500.251 585.46V592H501.911V585.58C501.911 582.54 500.391 581.36 498.231 581.36C496.511 581.36 495.351 582.22 494.871 583.2V581.54H493.211V592ZM509.444 592.18C511.804 592.18 513.544 591.08 513.904 588.98H512.244C512.024 590.2 511.084 590.8 509.464 590.8C507.324 590.8 506.184 589.48 506.104 587.1H513.984V586.56C513.984 582.82 511.704 581.36 509.284 581.36C506.404 581.36 504.384 583.56 504.384 586.72V586.88C504.384 590.1 506.484 592.18 509.444 592.18ZM506.164 585.76C506.444 583.9 507.584 582.74 509.284 582.74C511.004 582.74 512.124 583.6 512.284 585.76H506.164ZM516.532 592H518.192V586.26C518.192 583.68 519.532 583.02 521.632 582.92V581.36C519.752 581.42 518.852 582.24 518.192 583.42V581.54H516.532V592Z" fill="#333333"/>
<path fill-rule="evenodd" clip-rule="evenodd" d="M149.671 611.608C152.643 611.31 155.895 612.078 157.865 614.382C159.762 616.595 159.12 619.82 159.202 622.756C159.283 625.846 160.313 629.288 158.343 631.628C156.311 634.049 152.787 634.085 149.671 634.094C146.545 634.094 143.319 633.769 140.971 631.655C138.486 629.424 136.643 626.108 137.059 622.756C137.447 619.613 140.582 617.923 142.922 615.854C145 614.02 146.933 611.879 149.671 611.608Z" fill="#E61A6B"/>
<path d="M186.74 631H188.48V618.12H192.64V616.7H182.58V618.12H186.74V631ZM194.09 631H195.75V625.26C195.75 622.68 197.09 622.02 199.19 621.92V620.36C197.31 620.42 196.41 621.24 195.75 622.42V620.54H194.09V631ZM205.677 629.8C203.557 629.8 202.257 628.24 202.257 625.86V625.7C202.257 623.3 203.577 621.74 205.677 621.74C207.757 621.74 209.097 623.3 209.097 625.72V625.86C209.097 628.22 207.777 629.8 205.677 629.8ZM205.657 631.18C208.637 631.18 210.817 629 210.817 625.84V625.68C210.817 622.54 208.637 620.36 205.677 620.36C202.717 620.36 200.537 622.56 200.537 625.7V625.86C200.537 628.92 202.677 631.18 205.657 631.18ZM213.387 631H215.047V624.66C215.047 622.78 216.427 621.8 217.967 621.8C219.647 621.8 220.427 622.62 220.427 624.46V631H222.087V624.58C222.087 621.54 220.567 620.36 218.407 620.36C216.687 620.36 215.527 621.22 215.047 622.2V620.54H213.387V631ZM229.28 631.18C230.8 631.18 232.26 630.22 232.86 629.2V631H234.52V615.54H232.86V622.22C232.26 621.2 231.18 620.36 229.44 620.36C226.56 620.36 224.56 622.62 224.56 625.82V625.98C224.56 629.24 226.54 631.18 229.28 631.18ZM229.46 629.8C227.7 629.8 226.28 628.54 226.28 625.9V625.74C226.28 623.2 227.52 621.74 229.6 621.74C231.64 621.74 232.92 623 232.92 625.68V625.84C232.92 628.52 231.4 629.8 229.46 629.8ZM237.879 631H239.539V624.66C239.539 622.78 240.919 621.8 242.459 621.8C244.139 621.8 244.919 622.62 244.919 624.46V631H246.579V624.58C246.579 621.54 245.059 620.36 242.899 620.36C241.179 620.36 240.019 621.22 239.539 622.2V615.54H237.879V631ZM254.112 631.18C256.472 631.18 258.212 630.08 258.572 627.98H256.912C256.692 629.2 255.752 629.8 254.132 629.8C251.992 629.8 250.852 628.48 250.772 626.1H258.652V625.56C258.652 621.82 256.372 620.36 253.952 620.36C251.072 620.36 249.052 622.56 249.052 625.72V625.88C249.052 629.1 251.152 631.18 254.112 631.18ZM250.832 624.76C251.112 622.9 252.252 621.74 253.952 621.74C255.672 621.74 256.792 622.6 256.952 624.76H250.832ZM261.24 631H262.9V620.54H261.24V631ZM262.04 618.36C262.64 618.36 263.14 617.86 263.14 617.26C263.14 616.66 262.64 616.16 262.04 616.16C261.44 616.16 260.94 616.66 260.94 617.26C260.94 617.86 261.44 618.36 262.04 618.36ZM266.297 631H267.957V624.6C267.957 622.72 269.357 621.8 270.717 621.8C272.157 621.8 272.937 622.56 272.937 624.4V631H274.597V624.6C274.597 622.72 275.997 621.8 277.357 621.8C278.797 621.8 279.577 622.56 279.577 624.4V631H281.237V624.52C281.237 621.48 279.597 620.36 277.717 620.36C276.417 620.36 274.857 620.96 274.137 622.32C273.597 620.92 272.417 620.36 271.077 620.36C269.577 620.36 268.437 621.16 267.957 622.14V620.54H266.297V631Z" fill="#333333"/>
<path d="M312.8 631.18C315.76 631.18 317.88 629.62 317.88 627.02C317.88 625.04 316.8 623.86 315.12 623.42C316.42 622.88 317.38 621.92 317.38 620.3C317.38 618.32 315.8 616.52 313.08 616.52C310.36 616.52 308.5 618.38 308.4 620.64H309.92C310.1 619.02 311.3 617.94 313.08 617.94C314.82 617.94 315.68 618.98 315.68 620.34C315.68 621.9 314.86 622.78 313 622.78H312V624.24H313.08C315.1 624.24 316.1 625.18 316.1 627.02C316.1 628.7 315.08 629.78 312.84 629.78C310.58 629.78 309.56 628.48 309.4 626.78H307.8C307.9 629.28 309.76 631.18 312.8 631.18ZM329.583 631.18C331.263 631.18 332.423 630.32 332.903 629.34V631H334.563V620.54H332.903V626.88C332.903 628.76 331.503 629.74 330.023 629.74C328.383 629.74 327.603 628.92 327.603 627.08V620.54H325.943V627.16C325.943 630.04 327.503 631.18 329.583 631.18ZM341.098 631.14C341.778 631.14 342.178 631.04 342.518 630.92V629.52C342.158 629.66 341.758 629.74 341.238 629.74C340.398 629.74 339.938 629.24 339.938 628.22V621.94H342.378V620.54H339.938V618.16H338.278V620.54H336.778V621.94H338.278V628.38C338.278 630.02 339.198 631.14 341.098 631.14ZM347.648 631H349.768L353.528 620.54H351.808L348.748 629.32L345.648 620.54H343.848L347.648 631ZM355.751 631H357.411V620.54H355.751V631ZM356.551 618.36C357.151 618.36 357.651 617.86 357.651 617.26C357.651 616.66 357.151 616.16 356.551 616.16C355.951 616.16 355.451 616.66 355.451 617.26C355.451 617.86 355.951 618.36 356.551 618.36ZM360.809 631H362.469V625.58L367.109 631H369.129L364.269 625.4L368.749 620.54H366.809L362.469 625.36V615.54H360.809V631ZM371.161 631H372.841V615.54H371.161V631ZM380.519 631.18C382.879 631.18 384.619 630.08 384.979 627.98H383.319C383.099 629.2 382.159 629.8 380.539 629.8C378.399 629.8 377.259 628.48 377.179 626.1H385.059V625.56C385.059 621.82 382.779 620.36 380.359 620.36C377.479 620.36 375.459 622.56 375.459 625.72V625.88C375.459 629.1 377.559 631.18 380.519 631.18ZM377.239 624.76C377.519 622.9 378.659 621.74 380.359 621.74C382.079 621.74 383.199 622.6 383.359 624.76H377.239ZM387.606 631H389.266V625.26C389.266 622.68 390.606 622.02 392.706 621.92V620.36C390.826 620.42 389.926 621.24 389.266 622.42V620.54H387.606V631ZM399.112 631.18C401.472 631.18 403.212 630.08 403.572 627.98H401.912C401.692 629.2 400.752 629.8 399.132 629.8C396.992 629.8 395.852 628.48 395.772 626.1H403.652V625.56C403.652 621.82 401.372 620.36 398.952 620.36C396.072 620.36 394.052 622.56 394.052 625.72V625.88C394.052 629.1 396.152 631.18 399.112 631.18ZM395.832 624.76C396.112 622.9 397.252 621.74 398.952 621.74C400.672 621.74 401.792 622.6 401.952 624.76H395.832Z" fill="#333333"/>
<path d="M427.38 631H436.96V629.58H430.06L434 625.74C435.76 624.02 436.88 622.3 436.88 620.54C436.88 618.08 435.2 616.52 432.56 616.52C429.84 616.52 428.14 618.3 427.92 621.1H429.54C429.82 618.86 430.9 617.92 432.56 617.92C434.18 617.92 435.12 618.88 435.12 620.48C435.12 621.94 434.36 623.24 433.06 624.62L427.38 630.6V631ZM448.987 631.18C450.507 631.18 451.967 630.22 452.567 629.2V631H454.227V615.54H452.567V622.22C451.967 621.2 450.887 620.36 449.147 620.36C446.267 620.36 444.267 622.62 444.267 625.82V625.98C444.267 629.24 446.247 631.18 448.987 631.18ZM449.167 629.8C447.407 629.8 445.987 628.54 445.987 625.9V625.74C445.987 623.2 447.227 621.74 449.307 621.74C451.347 621.74 452.627 623 452.627 625.68V625.84C452.627 628.52 451.107 629.8 449.167 629.8ZM461.866 631.18C464.226 631.18 465.966 630.08 466.326 627.98H464.666C464.446 629.2 463.506 629.8 461.886 629.8C459.746 629.8 458.606 628.48 458.526 626.1H466.406V625.56C466.406 621.82 464.126 620.36 461.706 620.36C458.826 620.36 456.806 622.56 456.806 625.72V625.88C456.806 629.1 458.906 631.18 461.866 631.18ZM458.586 624.76C458.866 622.9 460.006 621.74 461.706 621.74C463.426 621.74 464.546 622.6 464.706 624.76H458.586ZM472.291 631.18C474.831 631.18 476.131 629.9 476.131 628C476.131 625.78 474.611 625.3 472.451 624.9C470.531 624.56 470.011 624.18 470.011 623.24C470.011 622.34 470.791 621.74 471.991 621.74C473.311 621.74 473.951 622.24 474.191 623.38H475.791C475.511 621.12 473.891 620.36 472.011 620.36C470.371 620.36 468.471 621.36 468.471 623.3C468.471 625.12 469.391 625.88 472.111 626.38C473.731 626.68 474.551 627.04 474.551 628.14C474.551 629.26 473.851 629.8 472.271 629.8C470.591 629.8 469.931 629.02 469.811 627.78H468.191C468.291 629.92 469.791 631.18 472.291 631.18ZM478.7 631H480.36V620.54H478.7V631ZM479.5 618.36C480.1 618.36 480.6 617.86 480.6 617.26C480.6 616.66 480.1 616.16 479.5 616.16C478.9 616.16 478.4 616.66 478.4 617.26C478.4 617.86 478.9 618.36 479.5 618.36ZM487.938 634.82C490.858 634.82 492.918 633.34 492.938 630.3V620.54H491.278V622.22C490.678 621.2 489.598 620.36 487.858 620.36C484.978 620.36 482.978 622.72 482.978 625.56V625.7C482.978 628.58 484.998 630.66 487.738 630.66C489.258 630.66 490.678 629.7 491.278 628.68V630.2C491.278 632.44 489.978 633.42 487.918 633.42C486.138 633.42 485.138 632.8 484.898 631.6H483.198C483.478 633.36 484.838 634.82 487.938 634.82ZM487.918 629.28C486.158 629.28 484.698 627.92 484.698 625.64V625.48C484.698 623.28 485.938 621.74 488.018 621.74C490.058 621.74 491.338 623.1 491.338 625.44V625.58C491.338 627.92 489.858 629.28 487.918 629.28ZM496.297 631H497.957V624.66C497.957 622.78 499.337 621.8 500.877 621.8C502.557 621.8 503.337 622.62 503.337 624.46V631H504.997V624.58C504.997 621.54 503.477 620.36 501.317 620.36C499.597 620.36 498.437 621.22 497.957 622.2V620.54H496.297V631ZM512.53 631.18C514.89 631.18 516.63 630.08 516.99 627.98H515.33C515.11 629.2 514.17 629.8 512.55 629.8C510.41 629.8 509.27 628.48 509.19 626.1H517.07V625.56C517.07 621.82 514.79 620.36 512.37 620.36C509.49 620.36 507.47 622.56 507.47 625.72V625.88C507.47 629.1 509.57 631.18 512.53 631.18ZM509.25 624.76C509.53 622.9 510.67 621.74 512.37 621.74C514.09 621.74 515.21 622.6 515.37 624.76H509.25ZM519.618 631H521.278V625.26C521.278 622.68 522.618 622.02 524.718 621.92V620.36C522.838 620.42 521.938 621.24 521.278 622.42V620.54H519.618V631ZM531.124 631.18C533.484 631.18 535.224 630.08 535.584 627.98H533.924C533.704 629.2 532.764 629.8 531.144 629.8C529.004 629.8 527.864 628.48 527.784 626.1H535.664V625.56C535.664 621.82 533.384 620.36 530.964 620.36C528.084 620.36 526.064 622.56 526.064 625.72V625.88C526.064 629.1 528.164 631.18 531.124 631.18ZM527.844 624.76C528.124 622.9 529.264 621.74 530.964 621.74C532.684 621.74 533.804 622.6 533.964 624.76H527.844Z" fill="#333333"/>
<path d="M540 606.258H176" stroke="#BEBAAC"/>
<path fill-rule="evenodd" clip-rule="evenodd" d="M240.539 180.564C242.986 180.318 245.663 180.951 247.285 182.847C248.846 184.669 248.318 187.324 248.385 189.741C248.459 192.284 249.3 195.118 247.679 197.044C246.005 199.037 243.105 199.067 240.539 199.074C237.966 199.074 235.311 198.806 233.378 197.066C231.333 195.229 229.816 192.5 230.158 189.741C230.477 187.153 233.058 185.77 234.984 184.059C236.695 182.549 238.286 180.787 240.539 180.564V180.564Z" fill="#FFC4BC"/>
<path fill-rule="evenodd" clip-rule="evenodd" d="M253.528 158.302C255.974 158.057 258.652 158.689 260.273 160.585C261.834 162.407 261.306 165.062 261.373 167.479C261.44 170.022 262.288 172.856 260.667 174.782C258.994 176.775 256.093 176.805 253.528 176.812C250.955 176.812 248.3 176.545 246.366 174.804C244.321 172.967 242.804 170.238 243.146 167.479C243.466 164.891 246.046 163.5 247.972 161.797C249.683 160.288 251.274 158.525 253.528 158.302V158.302Z" fill="#FFC4BC"/>
<path fill-rule="evenodd" clip-rule="evenodd" d="M240.539 136.028C242.986 135.783 245.663 136.415 247.285 138.311C248.846 140.133 248.318 142.788 248.385 145.205C248.459 147.749 249.3 150.582 247.679 152.508C246.005 154.501 243.105 154.531 240.539 154.538C237.966 154.538 235.311 154.271 233.378 152.53C231.333 150.694 229.816 147.964 230.158 145.205C230.477 142.617 233.058 141.234 234.984 139.524C236.695 138.014 238.286 136.251 240.539 136.028V136.028Z" fill="#FFC4BC"/>
<path fill-rule="evenodd" clip-rule="evenodd" d="M262.805 136.028C265.252 135.783 267.929 136.415 269.55 138.311C271.112 140.133 270.584 142.788 270.651 145.205C270.725 147.749 271.565 150.582 269.944 152.508C268.271 154.501 265.371 154.531 262.805 154.538C260.232 154.538 257.577 154.271 255.643 152.53C253.598 150.694 252.081 147.964 252.423 145.205C252.743 142.617 255.324 141.234 257.25 139.524C258.96 138.014 260.552 136.251 262.805 136.028V136.028Z" fill="#FFC4BC"/>
<path fill-rule="evenodd" clip-rule="evenodd" d="M275.789 113.755C278.236 113.509 280.913 114.141 282.535 116.038C284.096 117.86 283.568 120.515 283.635 122.932C283.702 125.475 284.55 128.308 282.929 130.234C281.255 132.227 278.355 132.257 275.789 132.265C273.216 132.265 270.561 131.997 268.628 130.257C266.583 128.42 265.066 125.691 265.408 122.932C265.727 120.344 268.308 118.96 270.234 117.25C271.945 115.74 273.536 113.978 275.789 113.755V113.755Z" fill="#FFC4BC"/>
<path fill-rule="evenodd" clip-rule="evenodd" d="M342.592 113.755C345.039 113.509 347.716 114.141 349.337 116.038C350.899 117.86 350.371 120.515 350.438 122.932C350.505 125.475 351.353 128.308 349.731 130.234C348.058 132.227 345.158 132.257 342.592 132.265C340.019 132.265 337.364 131.997 335.431 130.257C333.385 128.42 331.868 125.691 332.21 122.932C332.53 120.344 335.111 118.96 337.037 117.25C338.747 115.74 340.339 113.978 342.592 113.755V113.755Z" fill="#FFC4BC"/>
<path fill-rule="evenodd" clip-rule="evenodd" d="M285.069 136.028C287.515 135.783 290.193 136.415 291.814 138.311C293.376 140.133 292.848 142.788 292.914 145.205C292.989 147.749 293.829 150.582 292.208 152.508C290.535 154.501 287.634 154.531 285.069 154.538C282.496 154.538 279.841 154.271 277.907 152.53C275.862 150.694 274.345 147.964 274.687 145.205C275.007 142.617 277.587 141.234 279.513 139.524C281.224 138.014 282.815 136.251 285.069 136.028V136.028Z" fill="#FFC4BC"/>
<path fill-rule="evenodd" clip-rule="evenodd" d="M298.063 113.755C300.51 113.509 303.187 114.141 304.808 116.038C306.37 117.86 305.842 120.515 305.909 122.932C305.976 125.475 306.823 128.308 305.202 130.234C303.529 132.227 300.629 132.257 298.063 132.265C295.49 132.265 292.835 131.997 290.901 130.257C288.856 128.42 287.339 125.691 287.681 122.932C288.001 120.344 290.581 118.96 292.508 117.25C294.218 115.74 295.809 113.978 298.063 113.755V113.755Z" fill="#FFC4BC"/>
<path fill-rule="evenodd" clip-rule="evenodd" d="M364.866 113.755C367.312 113.509 369.989 114.141 371.611 116.038C373.172 117.86 372.644 120.515 372.711 122.932C372.778 125.475 373.626 128.308 372.005 130.234C370.332 132.227 367.431 132.257 364.866 132.265C362.292 132.265 359.638 131.997 357.704 130.257C355.659 128.42 354.142 125.691 354.484 122.932C354.804 120.344 357.384 118.96 359.31 117.25C361.021 115.74 362.612 113.978 364.866 113.755V113.755Z" fill="#FFC4BC"/>
<path fill-rule="evenodd" clip-rule="evenodd" d="M353.725 91.4936C356.172 91.2482 358.849 91.8803 360.47 93.7767C362.032 95.5987 361.504 98.2536 361.571 100.671C361.638 103.214 362.485 106.047 360.864 107.973C359.191 109.966 356.291 109.996 353.725 110.004C351.152 110.004 348.497 109.736 346.563 107.996C344.518 106.159 343.001 103.43 343.343 100.671C343.663 98.0825 346.244 96.6993 348.17 94.9889C349.88 93.4792 351.472 91.7167 353.725 91.4936V91.4936Z" fill="#FFC4BC"/>
<path fill-rule="evenodd" clip-rule="evenodd" d="M372.285 69.2197C374.732 68.9742 377.409 69.6064 379.031 71.5027C380.592 73.3247 380.064 75.9797 380.131 78.3966C380.198 80.94 381.046 83.7734 379.425 85.6995C377.751 87.6925 374.851 87.7223 372.285 87.7297C369.712 87.7297 367.057 87.462 365.124 85.7218C363.079 83.8849 361.562 81.1556 361.904 78.3966C362.224 75.8086 364.804 74.4254 366.73 72.7149C368.441 71.2053 370.032 69.4428 372.285 69.2197V69.2197Z" fill="#FFC4BC"/>
<path fill-rule="evenodd" clip-rule="evenodd" d="M375.998 91.4936C378.445 91.2482 381.122 91.8803 382.743 93.7767C384.305 95.5987 383.777 98.2536 383.844 100.671C383.911 103.214 384.759 106.047 383.138 107.973C381.464 109.966 378.564 109.996 375.998 110.004C373.425 110.004 370.77 109.736 368.837 107.996C366.792 106.159 365.275 103.43 365.617 100.671C365.936 98.0825 368.517 96.6993 370.443 94.9889C372.154 93.4792 373.745 91.7167 375.998 91.4936V91.4936Z" fill="#FFC4BC"/>
<path fill-rule="evenodd" clip-rule="evenodd" d="M398.276 91.4936C400.722 91.2482 403.4 91.8803 405.021 93.7767C406.583 95.5987 406.055 98.2536 406.121 100.671C406.188 103.214 407.036 106.047 405.415 107.973C403.742 109.966 400.841 109.996 398.276 110.004C395.703 110.004 393.048 109.736 391.114 107.996C389.069 106.159 387.552 103.43 387.894 100.671C388.214 98.0825 390.794 96.6993 392.72 94.9889C394.431 93.4792 396.022 91.7167 398.276 91.4936V91.4936Z" fill="#FFC4BC"/>
<path fill-rule="evenodd" clip-rule="evenodd" d="M420.535 91.4936C422.982 91.2482 425.659 91.8803 427.281 93.7767C428.842 95.5987 428.314 98.2536 428.381 100.671C428.448 103.214 429.296 106.047 427.675 107.973C426.001 109.966 423.101 109.996 420.535 110.004C417.962 110.004 415.307 109.736 413.374 107.996C411.329 106.159 409.812 103.43 410.154 100.671C410.474 98.0825 413.054 96.6993 414.98 94.9889C416.691 93.4792 418.282 91.7167 420.535 91.4936V91.4936Z" fill="#FFC4BC"/>
<path fill-rule="evenodd" clip-rule="evenodd" d="M411.258 67.3708C413.705 67.1254 416.382 67.7575 418.003 69.6539C419.565 71.4759 419.037 74.1308 419.104 76.5477C419.178 79.0911 420.019 81.9245 418.397 83.8506C416.724 85.8437 413.824 85.8734 411.258 85.8808C408.685 85.8808 406.03 85.6131 404.097 83.8729C402.051 82.036 400.534 79.3068 400.876 76.5477C401.196 73.9597 403.777 72.5765 405.703 70.866C407.413 69.3564 409.005 67.5939 411.258 67.3708V67.3708Z" fill="#FFC4BC"/>
<path fill-rule="evenodd" clip-rule="evenodd" d="M409.405 113.755C411.851 113.509 414.529 114.141 416.15 116.038C417.711 117.86 417.183 120.515 417.25 122.932C417.317 125.475 418.165 128.308 416.544 130.234C414.871 132.227 411.97 132.257 409.405 132.265C406.832 132.265 404.177 131.997 402.243 130.257C400.198 128.42 398.681 125.691 399.023 122.932C399.343 120.344 401.923 118.96 403.849 117.25C405.56 115.74 407.151 113.978 409.405 113.755V113.755Z" fill="#FFC4BC"/>
<path fill-rule="evenodd" clip-rule="evenodd" d="M307.34 136.028C309.787 135.783 312.464 136.415 314.085 138.311C315.647 140.133 315.119 142.788 315.186 145.205C315.26 147.749 316.101 150.582 314.479 152.508C312.806 154.501 309.906 154.531 307.34 154.538C304.767 154.538 302.112 154.271 300.179 152.53C298.133 150.694 296.616 147.964 296.958 145.205C297.278 142.617 299.859 141.234 301.785 139.524C303.495 138.014 305.087 136.251 307.34 136.028V136.028Z" fill="#FFC4BC"/>
<path fill-rule="evenodd" clip-rule="evenodd" d="M320.334 113.755C322.781 113.509 325.458 114.141 327.079 116.038C328.641 117.86 328.113 120.515 328.18 122.932C328.247 125.475 329.095 128.308 327.474 130.234C325.8 132.227 322.9 132.257 320.334 132.265C317.761 132.265 315.106 131.997 313.173 130.257C311.128 128.42 309.611 125.691 309.953 122.932C310.272 120.344 312.853 118.96 314.779 117.25C316.489 115.74 318.081 113.978 320.334 113.755V113.755Z" fill="#FFC4BC"/>
<path fill-rule="evenodd" clip-rule="evenodd" d="M387.129 113.755C389.576 113.509 392.253 114.141 393.874 116.038C395.436 117.86 394.908 120.515 394.975 122.932C395.042 125.475 395.89 128.308 394.268 130.234C392.595 132.227 389.695 132.257 387.129 132.265C384.556 132.265 381.901 131.997 379.968 130.257C377.923 128.42 376.405 125.691 376.748 122.932C377.067 120.344 379.648 118.96 381.574 117.25C383.284 115.74 384.876 113.978 387.129 113.755V113.755Z" fill="#FFC4BC"/>
<path fill-rule="evenodd" clip-rule="evenodd" d="M431.662 113.755C434.109 113.509 436.786 114.141 438.408 116.038C439.969 117.86 439.441 120.515 439.508 122.932C439.575 125.475 440.423 128.308 438.802 130.234C437.128 132.227 434.228 132.257 431.662 132.265C429.089 132.265 426.434 131.997 424.501 130.257C422.456 128.42 420.939 125.691 421.281 122.932C421.601 120.344 424.181 118.96 426.107 117.25C427.818 115.74 429.409 113.978 431.662 113.755V113.755Z" fill="#FFC4BC"/>
<path fill-rule="evenodd" clip-rule="evenodd" d="M442.801 91.4936C445.248 91.2482 447.925 91.8803 449.546 93.7767C451.108 95.5987 450.58 98.2536 450.647 100.671C450.714 103.214 451.562 106.047 449.94 107.973C448.267 109.966 445.367 109.996 442.801 110.004C440.228 110.004 437.573 109.736 435.639 107.996C433.594 106.159 432.077 103.43 432.419 100.671C432.739 98.0825 435.32 96.6993 437.246 94.9889C438.956 93.4792 440.548 91.7167 442.801 91.4936V91.4936Z" fill="#FFC4BC"/>
<path fill-rule="evenodd" clip-rule="evenodd" d="M465.071 89.6381C467.517 89.3927 470.195 90.0248 471.816 91.9212C473.377 93.7432 472.849 96.3981 472.916 98.8151C472.983 101.358 473.831 104.192 472.21 106.118C470.537 108.111 467.636 108.141 465.071 108.148C462.497 108.148 459.843 107.88 457.909 106.14C455.864 104.303 454.347 101.574 454.689 98.8151C455.009 96.2271 457.589 94.8438 459.515 93.1334C461.226 91.6237 462.817 89.8612 465.071 89.6381V89.6381Z" fill="#FFC4BC"/>
<path fill-rule="evenodd" clip-rule="evenodd" d="M487.344 89.6381C489.791 89.3927 492.468 90.0248 494.089 91.9212C495.651 93.7432 495.123 96.3981 495.19 98.8151C495.257 101.358 496.105 104.192 494.483 106.118C492.81 108.111 489.91 108.141 487.344 108.148C484.771 108.148 482.116 107.88 480.182 106.14C478.137 104.303 476.62 101.574 476.962 98.8151C477.282 96.2271 479.863 94.8438 481.789 93.1334C483.499 91.6237 485.091 89.8612 487.344 89.6381V89.6381Z" fill="#FFC4BC"/>
<path fill-rule="evenodd" clip-rule="evenodd" d="M509.606 71.0807C512.052 70.8353 514.73 71.4674 516.351 73.3638C517.913 75.1858 517.385 77.8407 517.452 80.2577C517.518 82.8011 518.366 85.6345 516.745 87.5606C515.072 89.5536 512.171 89.5834 509.606 89.5908C507.033 89.5908 504.378 89.3231 502.444 87.5829C500.399 85.746 498.882 83.0167 499.224 80.2577C499.544 77.6697 502.124 76.2865 504.051 74.576C505.761 73.0663 507.352 71.3038 509.606 71.0807V71.0807Z" fill="#FFC4BC"/>
<path fill-rule="evenodd" clip-rule="evenodd" d="M531.873 78.5011C534.32 78.2557 536.997 78.8879 538.619 80.7842C540.18 82.6062 539.652 85.2611 539.719 87.6781C539.786 90.2215 540.634 93.0549 539.013 94.981C537.339 96.974 534.439 97.0038 531.873 97.0112C529.3 97.0112 526.645 96.7435 524.712 95.0033C522.667 93.1664 521.15 90.4371 521.492 87.6781C521.811 85.0901 524.392 83.7069 526.318 81.9964C528.029 80.4868 529.62 78.7242 531.873 78.5011V78.5011Z" fill="#FFC4BC"/>
<path fill-rule="evenodd" clip-rule="evenodd" d="M509.606 95.2033C512.052 94.9579 514.73 95.59 516.351 97.4864C517.913 99.3084 517.385 101.963 517.452 104.38C517.518 106.924 518.366 109.757 516.745 111.683C515.072 113.676 512.171 113.706 509.606 113.713C507.033 113.713 504.378 113.446 502.444 111.705C500.399 109.869 498.882 107.139 499.224 104.38C499.544 101.792 502.124 100.409 504.051 98.6986C505.761 97.1889 507.352 95.4264 509.606 95.2033V95.2033Z" fill="#FFC4BC"/>
<path fill-rule="evenodd" clip-rule="evenodd" d="M531.873 117.465C534.32 117.22 536.997 117.852 538.619 119.748C540.18 121.57 539.652 124.225 539.719 126.642C539.786 129.186 540.634 132.019 539.013 133.945C537.339 135.938 534.439 135.968 531.873 135.975C529.3 135.975 526.645 135.708 524.712 133.967C522.667 132.131 521.15 129.401 521.492 126.642C521.811 124.054 524.392 122.671 526.318 120.961C528.029 119.451 529.62 117.688 531.873 117.465Z" fill="#FFC4BC"/>
<path fill-rule="evenodd" clip-rule="evenodd" d="M481.772 67.3708C484.219 67.1254 486.896 67.7575 488.517 69.6539C490.079 71.4759 489.551 74.1308 489.618 76.5477C489.685 79.0911 490.532 81.9245 488.911 83.8506C487.238 85.8437 484.337 85.8734 481.772 85.8808C479.199 85.8808 476.544 85.6131 474.61 83.8729C472.565 82.036 471.048 79.3068 471.39 76.5477C471.71 73.9597 474.29 72.5765 476.217 70.866C477.927 69.3564 479.518 67.5939 481.772 67.3708V67.3708Z" fill="#FFC4BC"/>
<path fill-rule="evenodd" clip-rule="evenodd" d="M452.082 69.2197C454.529 68.9742 457.206 69.6064 458.827 71.5027C460.389 73.3247 459.861 75.9797 459.928 78.3966C459.995 80.94 460.843 83.7734 459.222 85.6995C457.548 87.6925 454.648 87.7223 452.082 87.7297C449.509 87.7297 446.854 87.462 444.921 85.7218C442.876 83.8849 441.359 81.1556 441.701 78.3966C442.02 75.8086 444.601 74.4254 446.527 72.7149C448.238 71.2053 449.829 69.4428 452.082 69.2197V69.2197Z" fill="#FFC4BC"/>
<path fill-rule="evenodd" clip-rule="evenodd" d="M422.391 136.028C424.838 135.783 427.515 136.415 429.136 138.311C430.698 140.133 430.17 142.788 430.237 145.205C430.304 147.749 431.151 150.582 429.53 152.508C427.857 154.501 424.957 154.531 422.391 154.538C419.818 154.538 417.163 154.271 415.229 152.53C413.184 150.694 411.667 147.964 412.009 145.205C412.329 142.617 414.91 141.234 416.836 139.524C418.546 138.014 420.138 136.251 422.391 136.028V136.028Z" fill="#FFC4BC"/>
<path fill-rule="evenodd" clip-rule="evenodd" d="M400.125 136.028C402.572 135.783 405.249 136.415 406.87 138.311C408.432 140.133 407.904 142.788 407.971 145.205C408.038 147.749 408.886 150.582 407.265 152.508C405.591 154.501 402.691 154.531 400.125 154.538C397.552 154.538 394.897 154.271 392.964 152.53C390.919 150.694 389.402 147.964 389.744 145.205C390.063 142.617 392.644 141.234 394.57 139.524C396.281 138.014 397.872 136.251 400.125 136.028V136.028Z" fill="#FFC4BC"/>
<path fill-rule="evenodd" clip-rule="evenodd" d="M377.85 136.028C380.297 135.783 382.974 136.415 384.595 138.311C386.157 140.133 385.629 142.788 385.696 145.205C385.77 147.749 386.61 150.582 384.989 152.508C383.316 154.501 380.416 154.531 377.85 154.538C375.277 154.538 372.622 154.271 370.688 152.53C368.643 150.694 367.126 147.964 367.468 145.205C367.788 142.617 370.369 141.234 372.295 139.524C374.005 138.014 375.597 136.251 377.85 136.028V136.028Z" fill="#FFC4BC"/>
<path fill-rule="evenodd" clip-rule="evenodd" d="M275.789 158.302C278.236 158.057 280.913 158.689 282.535 160.585C284.096 162.407 283.568 165.062 283.635 167.479C283.702 170.022 284.55 172.856 282.929 174.782C281.255 176.775 278.355 176.805 275.789 176.812C273.216 176.812 270.561 176.545 268.628 174.804C266.583 172.967 265.066 170.238 265.408 167.479C265.727 164.891 268.308 163.5 270.234 161.797C271.945 160.288 273.536 158.525 275.789 158.302V158.302Z" fill="#FFC4BC"/>
<path fill-rule="evenodd" clip-rule="evenodd" d="M218.274 180.564C220.72 180.318 223.398 180.951 225.019 182.847C226.581 184.669 226.053 187.324 226.12 189.741C226.186 192.284 227.034 195.118 225.413 197.044C223.74 199.037 220.839 199.067 218.274 199.074C215.701 199.074 213.046 198.806 211.112 197.066C209.067 195.229 207.55 192.5 207.892 189.741C208.212 187.153 210.792 185.77 212.718 184.059C214.429 182.549 216.02 180.787 218.274 180.564V180.564Z" fill="#FFC4BC"/>
<path fill-rule="evenodd" clip-rule="evenodd" d="M196 158.302C198.447 158.057 201.124 158.689 202.745 160.585C204.307 162.407 203.779 165.062 203.846 167.479C203.913 170.022 204.761 172.856 203.14 174.782C201.466 176.775 198.566 176.805 196 176.812C193.427 176.812 190.772 176.545 188.839 174.804C186.794 172.967 185.277 170.238 185.619 167.479C185.938 164.891 188.519 163.5 190.445 161.797C192.156 160.288 193.747 158.525 196 158.302Z" fill="#FFC4BC"/>
<path fill-rule="evenodd" clip-rule="evenodd" d="M218.274 143.449C220.72 143.203 223.398 143.836 225.019 145.732C226.581 147.554 226.053 150.209 226.12 152.626C226.186 155.169 227.034 158.003 225.413 159.929C223.74 161.922 220.839 161.952 218.274 161.959C215.701 161.959 213.046 161.691 211.112 159.951C209.067 158.114 207.55 155.385 207.892 152.626C208.212 150.038 210.792 148.655 212.718 146.944C214.429 145.435 216.02 143.672 218.274 143.449V143.449Z" fill="#FFC4BC"/>
<path fill-rule="evenodd" clip-rule="evenodd" d="M231.258 202.83C233.705 202.585 236.382 203.217 238.003 205.114C239.565 206.936 239.037 209.59 239.104 212.007C239.171 214.551 240.019 217.384 238.397 219.31C236.724 221.303 233.824 221.333 231.258 221.341C228.685 221.341 226.03 221.073 224.097 219.333C222.051 217.496 220.534 214.766 220.876 212.007C221.196 209.419 223.777 208.029 225.703 206.326C227.413 204.816 229.005 203.054 231.258 202.83V202.83Z" fill="#FFC4BC"/>
<path fill-rule="evenodd" clip-rule="evenodd" d="M208.989 202.83C211.435 202.585 214.113 203.217 215.734 205.114C217.295 206.936 216.767 209.59 216.834 212.007C216.901 214.551 217.749 217.384 216.128 219.31C214.455 221.303 211.554 221.333 208.989 221.341C206.415 221.341 203.761 221.073 201.827 219.333C199.782 217.496 198.265 214.766 198.607 212.007C198.927 209.419 201.507 208.029 203.433 206.326C205.144 204.816 206.735 203.054 208.989 202.83V202.83Z" fill="#FFC4BC"/>
<path fill-rule="evenodd" clip-rule="evenodd" d="M221.973 225.099C224.42 224.853 227.097 225.485 228.718 227.382C230.28 229.204 229.752 231.859 229.819 234.276C229.893 236.819 230.733 239.652 229.112 241.579C227.439 243.572 224.539 243.601 221.973 243.609C219.4 243.609 216.745 243.341 214.811 241.601C212.766 239.764 211.249 237.035 211.591 234.276C211.911 231.688 214.492 230.304 216.418 228.594C218.128 227.084 219.72 225.322 221.973 225.099V225.099Z" fill="#FFC4BC"/>
<path fill-rule="evenodd" clip-rule="evenodd" d="M199.709 225.099C202.156 224.853 204.833 225.485 206.454 227.382C208.016 229.204 207.488 231.859 207.555 234.276C207.622 236.819 208.47 239.652 206.849 241.579C205.175 243.572 202.275 243.601 199.709 243.609C197.136 243.609 194.481 243.341 192.548 241.601C190.503 239.764 188.986 237.035 189.328 234.276C189.647 231.688 192.228 230.304 194.154 228.594C195.865 227.084 197.456 225.322 199.709 225.099V225.099Z" fill="#FFC4BC"/>
<path fill-rule="evenodd" clip-rule="evenodd" d="M212.696 247.372C215.142 247.127 217.82 247.759 219.441 249.656C221.002 251.478 220.474 254.132 220.541 256.549C220.616 259.093 221.456 261.926 219.835 263.852C218.162 265.845 215.261 265.875 212.696 265.883C210.123 265.883 207.468 265.615 205.534 263.875C203.489 262.038 201.972 259.308 202.314 256.549C202.634 253.961 205.214 252.578 207.14 250.868C208.851 249.358 210.442 247.596 212.696 247.372V247.372Z" fill="#FFC4BC"/>
<path fill-rule="evenodd" clip-rule="evenodd" d="M190.426 247.372C192.873 247.127 195.55 247.759 197.171 249.656C198.733 251.478 198.205 254.132 198.272 256.549C198.346 259.093 199.187 261.926 197.565 263.852C195.892 265.845 192.992 265.875 190.426 265.883C187.853 265.883 185.198 265.615 183.264 263.875C181.219 262.038 179.702 259.308 180.044 256.549C180.364 253.961 182.945 252.578 184.871 250.868C186.581 249.358 188.173 247.596 190.426 247.372V247.372Z" fill="#FFC4BC"/>
<path fill-rule="evenodd" clip-rule="evenodd" d="M168.166 247.372C170.613 247.127 173.29 247.759 174.911 249.656C176.473 251.478 175.945 254.132 176.012 256.549C176.086 259.093 176.927 261.926 175.306 263.852C173.632 265.845 170.732 265.875 168.166 265.883C165.593 265.883 162.938 265.615 161.005 263.875C158.96 262.038 157.443 259.308 157.785 256.549C158.104 253.961 160.685 252.578 162.611 250.868C164.322 249.358 165.913 247.596 168.166 247.372V247.372Z" fill="#FFC4BC"/>
<path fill-rule="evenodd" clip-rule="evenodd" d="M203.422 269.633C205.869 269.388 208.546 270.02 210.167 271.917C211.729 273.739 211.201 276.393 211.268 278.81C211.335 281.354 212.183 284.187 210.561 286.113C208.888 288.106 205.988 288.136 203.422 288.144C200.849 288.144 198.194 287.876 196.261 286.136C194.215 284.299 192.698 281.569 193.04 278.81C193.36 276.222 195.941 274.839 197.867 273.129C199.577 271.619 201.169 269.857 203.422 269.633V269.633Z" fill="#FFC4BC"/>
<path fill-rule="evenodd" clip-rule="evenodd" d="M181.157 269.633C183.603 269.388 186.28 270.02 187.902 271.917C189.463 273.739 188.935 276.393 189.002 278.81C189.069 281.354 189.917 284.187 188.296 286.113C186.623 288.106 183.722 288.136 181.157 288.144C178.583 288.144 175.929 287.876 173.995 286.136C171.95 284.299 170.433 281.569 170.775 278.81C171.095 276.222 173.675 274.839 175.601 273.129C177.312 271.619 178.903 269.857 181.157 269.633Z" fill="#FFC4BC"/>
<path fill-rule="evenodd" clip-rule="evenodd" d="M158.883 269.633C161.33 269.388 164.007 270.02 165.628 271.917C167.19 273.739 166.662 276.393 166.729 278.81C166.796 281.354 167.644 284.187 166.022 286.113C164.349 288.106 161.449 288.136 158.883 288.144C156.31 288.144 153.655 287.876 151.722 286.136C149.676 284.299 148.159 281.569 148.501 278.81C148.821 276.222 151.402 274.839 153.328 273.129C155.038 271.619 156.63 269.857 158.883 269.633Z" fill="#FFC4BC"/>
<path fill-rule="evenodd" clip-rule="evenodd" d="M194.149 291.902C196.595 291.656 199.273 292.288 200.894 294.185C202.456 296.007 201.928 298.662 201.995 301.079C202.061 303.622 202.909 306.455 201.288 308.381C199.615 310.375 196.714 310.404 194.149 310.412C191.576 310.412 188.921 310.144 186.987 308.404C184.942 306.567 183.425 303.838 183.767 301.079C184.087 298.491 186.667 297.1 188.593 295.397C190.304 293.887 191.895 292.125 194.149 291.902Z" fill="#FFC4BC"/>
<path fill-rule="evenodd" clip-rule="evenodd" d="M171.875 291.902C174.322 291.656 176.999 292.288 178.62 294.185C180.182 296.007 179.654 298.662 179.721 301.079C179.788 303.622 180.636 306.455 179.015 308.381C177.341 310.375 174.441 310.404 171.875 310.412C169.302 310.412 166.647 310.144 164.714 308.404C162.669 306.567 161.152 303.838 161.494 301.079C161.813 298.491 164.394 297.1 166.32 295.397C168.031 293.887 169.622 292.125 171.875 291.902Z" fill="#FFC4BC"/>
<path fill-rule="evenodd" clip-rule="evenodd" d="M149.61 291.902C152.056 291.656 154.734 292.288 156.355 294.185C157.917 296.007 157.389 298.662 157.455 301.079C157.522 303.622 158.37 306.455 156.749 308.381C155.076 310.375 152.175 310.404 149.61 310.412C147.037 310.412 144.382 310.144 142.448 308.404C140.403 306.567 138.886 303.838 139.228 301.079C139.548 298.491 142.128 297.1 144.054 295.397C145.765 293.887 147.356 292.125 149.61 291.902Z" fill="#FFC4BC"/>
<path fill-rule="evenodd" clip-rule="evenodd" d="M184.868 314.175C187.314 313.929 189.991 314.561 191.613 316.458C193.174 318.28 192.646 320.935 192.713 323.352C192.788 325.895 193.628 328.728 192.007 330.655C190.334 332.648 187.433 332.677 184.868 332.685C182.294 332.685 179.639 332.417 177.706 330.677C175.661 328.84 174.144 326.111 174.486 323.352C174.806 320.764 177.386 319.38 179.312 317.67C181.023 316.16 182.614 314.398 184.868 314.175V314.175Z" fill="#FFC4BC"/>
<path fill-rule="evenodd" clip-rule="evenodd" d="M162.594 314.175C165.041 313.929 167.718 314.561 169.339 316.458C170.901 318.28 170.373 320.935 170.44 323.352C170.507 325.895 171.355 328.728 169.733 330.655C168.06 332.648 165.16 332.677 162.594 332.685C160.021 332.685 157.366 332.417 155.432 330.677C153.387 328.84 151.87 326.111 152.212 323.352C152.532 320.764 155.113 319.38 157.039 317.67C158.749 316.16 160.341 314.398 162.594 314.175Z" fill="#FFC4BC"/>
<path fill-rule="evenodd" clip-rule="evenodd" d="M140.328 314.175C142.775 313.929 145.452 314.561 147.074 316.458C148.635 318.28 148.107 320.935 148.174 323.352C148.249 325.895 149.089 328.728 147.468 330.655C145.794 332.648 142.894 332.677 140.328 332.685C137.755 332.685 135.1 332.417 133.167 330.677C131.122 328.84 129.605 326.111 129.947 323.352C130.267 320.764 132.847 319.38 134.773 317.67C136.484 316.16 138.075 314.398 140.328 314.175Z" fill="#FFC4BC"/>
<path fill-rule="evenodd" clip-rule="evenodd" d="M118.063 314.175C120.51 313.929 123.187 314.561 124.808 316.458C126.37 318.28 125.842 320.935 125.909 323.352C125.983 325.895 126.823 328.728 125.202 330.655C123.529 332.648 120.628 332.677 118.063 332.685C115.49 332.685 112.835 332.417 110.901 330.677C108.856 328.84 107.339 326.111 107.681 323.352C108.001 320.764 110.581 319.38 112.508 317.67C114.218 316.16 115.809 314.398 118.063 314.175Z" fill="#FFC4BC"/>
<path fill-rule="evenodd" clip-rule="evenodd" d="M153.321 336.443C155.767 336.198 158.445 336.83 160.066 338.726C161.627 340.548 161.099 343.203 161.166 345.62C161.233 348.163 162.081 350.997 160.46 352.923C158.787 354.916 155.886 354.946 153.321 354.953C150.748 354.953 148.093 354.685 146.159 352.945C144.114 351.108 142.597 348.379 142.939 345.62C143.259 343.032 145.839 341.641 147.765 339.938C149.476 338.429 151.067 336.666 153.321 336.443Z" fill="#FFC4BC"/>
<path fill-rule="evenodd" clip-rule="evenodd" d="M131.057 336.443C133.504 336.198 136.181 336.83 137.802 338.726C139.364 340.548 138.836 343.203 138.903 345.62C138.97 348.163 139.817 350.997 138.196 352.923C136.523 354.916 133.623 354.946 131.057 354.953C128.484 354.953 125.829 354.685 123.895 352.945C121.85 351.108 120.333 348.379 120.675 345.62C120.995 343.032 123.576 341.641 125.502 339.938C127.212 338.429 128.804 336.666 131.057 336.443Z" fill="#FFC4BC"/>
<path fill-rule="evenodd" clip-rule="evenodd" d="M108.78 336.443C111.226 336.198 113.904 336.83 115.525 338.726C117.086 340.548 116.558 343.203 116.625 345.62C116.692 348.163 117.54 350.997 115.919 352.923C114.246 354.916 111.345 354.946 108.78 354.953C106.206 354.953 103.552 354.685 101.618 352.945C99.5729 351.108 98.0558 348.379 98.3979 345.62C98.7177 343.032 101.298 341.641 103.224 339.938C104.935 338.429 106.526 336.666 108.78 336.443Z" fill="#E61A6B"/>
<path fill-rule="evenodd" clip-rule="evenodd" d="M86.5159 336.443C88.9626 336.198 91.6399 336.83 93.2611 338.726C94.8228 340.548 94.2948 343.203 94.3617 345.62C94.4286 348.163 95.2764 350.997 93.6552 352.923C91.9819 354.916 89.0816 354.946 86.5159 354.953C83.9428 354.953 81.2879 354.685 79.3543 352.945C77.3092 351.108 75.7921 348.379 76.1342 345.62C76.454 343.032 79.0346 341.641 80.9607 339.938C82.6711 338.429 84.2626 336.666 86.5159 336.443V336.443Z" fill="#FFC4BC"/>
<path fill-rule="evenodd" clip-rule="evenodd" d="M144.039 358.704C146.486 358.458 149.163 359.09 150.785 360.987C152.346 362.809 151.818 365.464 151.885 367.881C151.952 370.424 152.8 373.258 151.179 375.184C149.505 377.177 146.605 377.206 144.039 377.214C141.466 377.214 138.811 376.946 136.878 375.206C134.833 373.369 133.316 370.64 133.658 367.881C133.977 365.293 136.558 363.909 138.484 362.199C140.195 360.689 141.786 358.927 144.039 358.704Z" fill="#FFC4BC"/>
<path fill-rule="evenodd" clip-rule="evenodd" d="M121.774 358.704C124.22 358.458 126.898 359.09 128.519 360.987C130.081 362.809 129.553 365.464 129.62 367.881C129.686 370.424 130.534 373.258 128.913 375.184C127.24 377.177 124.339 377.206 121.774 377.214C119.201 377.214 116.546 376.946 114.612 375.206C112.567 373.369 111.05 370.64 111.392 367.881C111.712 365.293 114.292 363.909 116.219 362.199C117.929 360.689 119.52 358.927 121.774 358.704Z" fill="#FFC4BC"/>
<path fill-rule="evenodd" clip-rule="evenodd" d="M99.5003 358.704C101.947 358.458 104.624 359.09 106.245 360.987C107.807 362.809 107.279 365.464 107.346 367.881C107.42 370.424 108.261 373.258 106.64 375.184C104.966 377.177 102.066 377.206 99.5003 377.214C96.9272 377.214 94.2723 376.946 92.3387 375.206C90.2936 373.369 88.7765 370.64 89.1186 367.881C89.4384 365.293 92.0189 363.909 93.9451 362.199C95.6555 360.689 97.247 358.927 99.5003 358.704Z" fill="#FFC4BC"/>
<path fill-rule="evenodd" clip-rule="evenodd" d="M77.2327 358.704C79.6794 358.458 82.3567 359.09 83.9779 360.987C85.5396 362.809 85.0116 365.464 85.0785 367.881C85.1454 370.424 85.9932 373.258 84.372 375.184C82.6987 377.177 79.7984 377.206 77.2327 377.214C74.6596 377.214 72.0047 376.946 70.0711 375.206C68.026 373.369 66.5089 370.64 66.851 367.881C67.1708 365.293 69.7514 363.909 71.6775 362.199C73.3879 360.689 74.9794 358.927 77.2327 358.704Z" fill="#FFC4BC"/>
<path fill-rule="evenodd" clip-rule="evenodd" d="M54.9671 358.704C57.4138 358.458 60.091 359.09 61.7122 360.987C63.274 362.809 62.7459 365.464 62.8129 367.881C62.8798 370.424 63.7276 373.258 62.1064 375.184C60.4331 377.177 57.5328 377.206 54.9671 377.214C52.394 377.214 49.7391 376.946 47.8055 375.206C45.7604 373.369 44.2433 370.64 44.5854 367.881C44.9052 365.293 47.4857 363.909 49.4119 362.199C51.1223 360.689 52.7138 358.927 54.9671 358.704Z" fill="#FFC4BC"/>
<path fill-rule="evenodd" clip-rule="evenodd" d="M136.617 380.965C139.064 380.72 141.741 381.352 143.363 383.241C144.924 385.063 144.396 387.718 144.463 390.135C144.53 392.678 145.378 395.511 143.757 397.437C142.084 399.43 139.183 399.46 136.617 399.468C134.044 399.468 131.389 399.2 129.456 397.46C127.411 395.623 125.894 392.894 126.236 390.135C126.556 387.547 129.136 386.163 131.062 384.453C132.773 382.943 134.364 381.181 136.617 380.958V380.965Z" fill="#FFC4BC"/>
<path fill-rule="evenodd" clip-rule="evenodd" d="M114.35 380.965C116.797 380.72 119.474 381.352 121.095 383.241C122.657 385.063 122.129 387.718 122.196 390.135C122.27 392.678 123.11 395.511 121.489 397.437C119.816 399.43 116.916 399.46 114.35 399.468C111.777 399.468 109.122 399.2 107.188 397.46C105.143 395.623 103.626 392.894 103.968 390.135C104.288 387.547 106.869 386.163 108.795 384.453C110.505 382.943 112.097 381.181 114.35 380.958V380.965Z" fill="#FFC4BC"/>
<path fill-rule="evenodd" clip-rule="evenodd" d="M92.0863 380.965C94.5329 380.719 97.2102 381.351 98.8314 383.24C100.393 385.062 99.8651 387.717 99.932 390.134C99.9989 392.678 100.847 395.511 99.2255 397.437C97.5523 399.43 94.6519 399.46 92.0863 399.467C89.5131 399.467 86.8582 399.2 84.9247 397.459C82.8796 395.623 81.3625 392.893 81.7045 390.134C82.0243 387.546 84.6049 386.163 86.531 384.453C88.2415 382.943 89.8329 381.18 92.0863 380.957V380.965Z" fill="#FFC4BC"/>
<path fill-rule="evenodd" clip-rule="evenodd" d="M69.8128 380.965C72.2595 380.719 74.9367 381.351 76.5579 383.24C78.1197 385.062 77.5916 387.717 77.6586 390.134C77.7255 392.678 78.5733 395.511 76.9521 397.437C75.2788 399.43 72.3785 399.46 69.8128 399.467C67.2397 399.467 64.5848 399.2 62.6512 397.459C60.6061 395.623 59.089 392.893 59.4311 390.134C59.7509 387.546 62.3314 386.163 64.2576 384.453C65.968 382.943 67.5595 381.18 69.8128 380.957V380.965Z" fill="#FFC4BC"/>
<path fill-rule="evenodd" clip-rule="evenodd" d="M47.5472 380.965C49.9939 380.719 52.6711 381.351 54.2923 383.24C55.854 385.062 55.326 387.717 55.393 390.134C55.4673 392.678 56.3077 395.511 54.6865 397.437C53.0132 399.43 50.1129 399.46 47.5472 399.467C44.9741 399.467 42.3192 399.2 40.3856 397.459C38.3405 395.623 36.8234 392.893 37.1655 390.134C37.4853 387.546 40.0658 386.163 41.9919 384.453C43.7024 382.943 45.2939 381.18 47.5472 380.957V380.965Z" fill="#FFC4BC"/>
<path fill-rule="evenodd" clip-rule="evenodd" d="M131.057 403.239C133.504 402.993 136.181 403.625 137.802 405.522C139.364 407.344 138.836 409.999 138.903 412.416C138.97 414.959 139.817 417.792 138.196 419.718C136.523 421.711 133.623 421.741 131.057 421.749C128.484 421.749 125.829 421.481 123.895 419.741C121.85 417.904 120.333 415.175 120.675 412.416C120.995 409.828 123.576 408.444 125.502 406.734C127.212 405.224 128.804 403.462 131.057 403.239Z" fill="#FFC4BC"/>
<path fill-rule="evenodd" clip-rule="evenodd" d="M108.78 403.239C111.226 402.993 113.904 403.625 115.525 405.522C117.086 407.344 116.558 409.999 116.625 412.416C116.692 414.959 117.54 417.792 115.919 419.718C114.246 421.711 111.345 421.741 108.78 421.749C106.206 421.749 103.552 421.481 101.618 419.741C99.5729 417.904 98.0558 415.175 98.3979 412.416C98.7177 409.828 101.298 408.444 103.224 406.734C104.935 405.224 106.526 403.462 108.78 403.239Z" fill="#FFC4BC"/>
<path fill-rule="evenodd" clip-rule="evenodd" d="M86.5159 403.239C88.9626 402.993 91.6399 403.625 93.2611 405.522C94.8228 407.344 94.2948 409.999 94.3617 412.416C94.4286 414.959 95.2764 417.792 93.6552 419.718C91.9819 421.711 89.0816 421.741 86.5159 421.749C83.9428 421.749 81.2879 421.481 79.3543 419.741C77.3092 417.904 75.7921 415.175 76.1342 412.416C76.454 409.828 79.0346 408.444 80.9607 406.734C82.6711 405.224 84.2626 403.462 86.5159 403.239V403.239Z" fill="#FFC4BC"/>
<path fill-rule="evenodd" clip-rule="evenodd" d="M41.9769 403.239C44.4236 402.993 47.1008 403.625 48.722 405.522C50.2837 407.344 49.7557 409.999 49.8226 412.416C49.897 414.959 50.7374 417.792 49.1162 419.718C47.4429 421.711 44.5426 421.741 41.9769 421.749C39.4038 421.749 36.7488 421.481 34.8153 419.741C32.7702 417.904 31.2531 415.175 31.5952 412.416C31.915 409.828 34.4955 408.444 36.4216 406.734C38.1321 405.224 39.7235 403.462 41.9769 403.239V403.239Z" fill="#FFC4BC"/>
<path fill-rule="evenodd" clip-rule="evenodd" d="M64.2484 403.239C66.695 402.993 69.3723 403.625 70.9935 405.522C72.5552 407.344 72.0272 409.999 72.0941 412.416C72.1611 414.959 73.0088 417.792 71.3876 419.718C69.7144 421.711 66.814 421.741 64.2484 421.749C61.6752 421.749 59.0203 421.481 57.0868 419.741C55.0417 417.904 53.5246 415.175 53.8667 412.416C54.1864 409.828 56.767 408.444 58.6931 406.734C60.4036 405.224 61.995 403.462 64.2484 403.239V403.239Z" fill="#FFC4BC"/>
<path fill-rule="evenodd" clip-rule="evenodd" d="M19.7132 403.239C22.1599 402.993 24.8371 403.625 26.4583 405.522C28.0201 407.344 27.492 409.999 27.559 412.416C27.6333 414.959 28.4737 417.792 26.8525 419.718C25.1792 421.711 22.2789 421.741 19.7132 421.749C17.1401 421.749 14.4852 421.481 12.5516 419.741C10.5065 417.904 8.98941 415.175 9.3315 412.416C9.65128 409.828 12.2318 408.444 14.158 406.734C15.8684 405.224 17.4599 403.462 19.7132 403.239V403.239Z" fill="#FFC4BC"/>
<path fill-rule="evenodd" clip-rule="evenodd" d="M25.2816 380.965C27.7283 380.719 30.4055 381.351 32.0267 383.24C33.5884 385.062 33.0604 387.717 33.1273 390.134C33.2017 392.678 34.0421 395.511 32.4208 397.437C30.7476 399.43 27.8472 399.46 25.2816 399.467C22.7084 399.467 20.0535 399.2 18.12 397.459C16.0749 395.623 14.5578 392.893 14.8999 390.134C15.2196 387.546 17.8002 386.163 19.7263 384.453C21.4368 382.943 23.0282 381.18 25.2816 380.957V380.965Z" fill="#FFC4BC"/>
<path fill-rule="evenodd" clip-rule="evenodd" d="M153.321 412.52C155.767 412.275 158.445 412.907 160.066 414.803C161.627 416.625 161.099 419.28 161.166 421.697C161.233 424.241 162.081 427.074 160.46 429C158.787 430.993 155.886 431.023 153.321 431.03C150.748 431.03 148.093 430.763 146.159 429.022C144.114 427.185 142.597 424.456 142.939 421.697C143.259 419.109 145.839 417.718 147.765 416.015C149.476 414.506 151.067 412.743 153.321 412.52Z" fill="#FFC4BC"/>
<path fill-rule="evenodd" clip-rule="evenodd" d="M145.899 434.788C148.345 434.543 151.023 435.175 152.644 437.071C154.206 438.893 153.678 441.548 153.745 443.965C153.819 446.509 154.659 449.342 153.038 451.268C151.365 453.261 148.464 453.291 145.899 453.298C143.326 453.298 140.671 453.031 138.737 451.29C136.692 449.454 135.175 446.724 135.517 443.965C135.837 441.377 138.417 439.994 140.344 438.284C142.054 436.774 143.645 435.011 145.899 434.788V434.788Z" fill="#FFC4BC"/>
<path fill-rule="evenodd" clip-rule="evenodd" d="M136.617 457.056C139.064 456.81 141.741 457.442 143.363 459.339C144.924 461.161 144.396 463.816 144.463 466.233C144.53 468.776 145.378 471.609 143.757 473.535C142.084 475.528 139.183 475.558 136.617 475.566C134.044 475.566 131.389 475.298 129.456 473.558C127.411 471.721 125.894 468.992 126.236 466.233C126.556 463.645 129.136 462.261 131.062 460.551C132.773 459.041 134.364 457.279 136.617 457.056Z" fill="#FFC4BC"/>
<path fill-rule="evenodd" clip-rule="evenodd" d="M131.055 479.323C133.502 479.078 136.179 479.71 137.8 481.606C139.362 483.428 138.834 486.083 138.901 488.5C138.968 491.043 139.815 493.877 138.194 495.803C136.521 497.796 133.621 497.826 131.055 497.833C128.482 497.833 125.827 497.566 123.893 495.825C121.848 493.988 120.331 491.259 120.673 488.5C120.993 485.912 123.574 484.529 125.5 482.818C127.21 481.309 128.802 479.546 131.055 479.323Z" fill="#FFC4BC"/>
<path fill-rule="evenodd" clip-rule="evenodd" d="M121.774 425.506C124.22 425.261 126.898 425.893 128.519 427.789C130.081 429.611 129.553 432.266 129.62 434.683C129.686 437.226 130.534 440.06 128.913 441.986C127.24 443.979 124.339 444.009 121.774 444.016C119.201 444.016 116.546 443.748 114.612 442.008C112.567 440.171 111.05 437.442 111.392 434.683C111.712 432.095 114.292 430.704 116.219 429.001C117.929 427.492 119.52 425.729 121.774 425.506Z" fill="#FFC4BC"/>
<path fill-rule="evenodd" clip-rule="evenodd" d="M99.5003 425.506C101.947 425.261 104.624 425.893 106.245 427.789C107.807 429.611 107.279 432.266 107.346 434.683C107.42 437.226 108.261 440.06 106.64 441.986C104.966 443.979 102.066 444.009 99.5003 444.016C96.9272 444.016 94.2723 443.748 92.3387 442.008C90.2936 440.171 88.7765 437.442 89.1186 434.683C89.4384 432.095 92.0189 430.704 93.9451 429.001C95.6555 427.492 97.247 425.729 99.5003 425.506Z" fill="#FFC4BC"/>
<path fill-rule="evenodd" clip-rule="evenodd" d="M77.2327 425.506C79.6794 425.261 82.3567 425.893 83.9779 427.789C85.5396 429.611 85.0116 432.266 85.0785 434.683C85.1454 437.226 85.9932 440.06 84.372 441.986C82.6987 443.979 79.7984 444.009 77.2327 444.016C74.6596 444.016 72.0047 443.748 70.0711 442.008C68.026 440.171 66.5089 437.442 66.851 434.683C67.1708 432.095 69.7514 430.704 71.6775 429.001C73.3879 427.492 74.9794 425.729 77.2327 425.506Z" fill="#FFC4BC"/>
<path fill-rule="evenodd" clip-rule="evenodd" d="M32.7034 425.506C35.1501 425.261 37.8274 425.893 39.4486 427.789C41.0103 429.611 40.4823 432.266 40.5492 434.683C40.6236 437.226 41.4639 440.06 39.8427 441.986C38.1694 443.979 35.2691 444.009 32.7034 444.016C30.1303 444.016 27.4754 443.748 25.5418 442.008C23.4967 440.171 21.9796 437.442 22.3217 434.683C22.6415 432.095 25.2221 430.704 27.1482 429.001C28.8586 427.492 30.4501 425.729 32.7034 425.506V425.506Z" fill="#FFC4BC"/>
<path fill-rule="evenodd" clip-rule="evenodd" d="M54.9671 425.506C57.4138 425.261 60.091 425.893 61.7122 427.789C63.274 429.611 62.7459 432.266 62.8129 434.683C62.8798 437.226 63.7276 440.06 62.1064 441.986C60.4331 443.979 57.5328 444.009 54.9671 444.016C52.394 444.016 49.7391 443.748 47.8055 442.008C45.7604 440.171 44.2433 437.442 44.5854 434.683C44.9052 432.095 47.4857 430.704 49.4119 429.001C51.1223 427.492 52.7138 425.729 54.9671 425.506Z" fill="#FFC4BC"/>
<path fill-rule="evenodd" clip-rule="evenodd" d="M10.43 425.506C12.8767 425.261 15.5539 425.893 17.1751 427.789C18.7368 429.611 18.2088 432.266 18.2758 434.683C18.3501 437.226 19.1905 440.06 17.5693 441.986C15.896 443.979 12.9957 444.009 10.43 444.016C7.85689 444.016 5.20197 443.748 3.26841 442.008C1.22331 440.171 -0.293791 437.442 0.0482999 434.683C0.36808 432.095 2.94863 430.704 4.87475 429.001C6.5852 427.492 8.17667 425.729 10.43 425.506Z" fill="#423D89"/>
<path fill-rule="evenodd" clip-rule="evenodd" d="M112.489 447.773C114.935 447.528 117.613 448.16 119.234 450.056C120.795 451.878 120.267 454.533 120.334 456.95C120.401 459.494 121.249 462.327 119.628 464.253C117.955 466.246 115.054 466.276 112.489 466.283C109.915 466.283 107.261 466.016 105.327 464.276C103.282 462.439 101.765 459.709 102.107 456.95C102.427 454.362 105.007 452.979 106.933 451.269C108.644 449.759 110.235 447.996 112.489 447.773Z" fill="#03DAC6"/>
<path fill-rule="evenodd" clip-rule="evenodd" d="M90.2288 447.773C92.6755 447.528 95.3527 448.16 96.974 450.056C98.5357 451.878 98.0077 454.533 98.0746 456.95C98.149 459.494 98.9893 462.327 97.3681 464.253C95.6948 466.246 92.7945 466.276 90.2288 466.283C87.6557 466.283 85.0008 466.016 83.0672 464.276C81.0221 462.439 79.505 459.709 79.8471 456.95C80.1669 454.362 82.7475 452.979 84.6736 451.269C86.384 449.759 87.9755 447.996 90.2288 447.773Z" fill="#FFC4BC"/>
<path fill-rule="evenodd" clip-rule="evenodd" d="M67.9554 447.773C70.4021 447.528 73.0793 448.16 74.7005 450.056C76.2622 451.878 75.7342 454.533 75.8012 456.95C75.8681 459.494 76.7159 462.327 75.0947 464.253C73.4214 466.246 70.5211 466.276 67.9554 466.283C65.3823 466.283 62.7274 466.016 60.7938 464.276C58.7487 462.439 57.2316 459.709 57.5737 456.95C57.8935 454.362 60.474 452.979 62.4001 451.269C64.1106 449.759 65.7021 447.996 67.9554 447.773Z" fill="#FFC4BC"/>
<path fill-rule="evenodd" clip-rule="evenodd" d="M45.6878 447.773C48.1345 447.528 50.8117 448.16 52.4329 450.056C53.9947 451.878 53.4667 454.533 53.5336 456.95C53.608 459.494 54.4483 462.327 52.8271 464.253C51.1538 466.246 48.2535 466.276 45.6878 466.283C43.1147 466.283 40.4598 466.016 38.5262 464.276C36.4811 462.439 34.964 459.709 35.3061 456.95C35.6259 454.362 38.2064 452.979 40.1326 451.269C41.843 449.759 43.4345 447.996 45.6878 447.773Z" fill="#FFC4BC"/>
<path fill-rule="evenodd" clip-rule="evenodd" d="M103.219 470.047C105.666 469.802 108.343 470.434 109.964 472.33C111.526 474.152 110.998 476.807 111.065 479.224C111.132 481.768 111.98 484.601 110.358 486.527C108.685 488.52 105.785 488.55 103.219 488.557C100.646 488.557 97.991 488.29 96.0575 486.549C94.0124 484.713 92.4953 481.983 92.8374 479.224C93.1571 476.636 95.7377 475.253 97.6638 473.543C99.3743 472.033 100.966 470.27 103.219 470.047Z" fill="#FFC4BC"/>
<path fill-rule="evenodd" clip-rule="evenodd" d="M80.9456 470.047C83.3923 469.802 86.0695 470.434 87.6908 472.33C89.2525 474.152 88.7245 476.807 88.7914 479.224C88.8583 481.768 89.7061 484.601 88.0849 486.527C86.4116 488.52 83.5113 488.55 80.9456 488.557C78.3725 488.557 75.7176 488.29 73.784 486.549C71.7389 484.713 70.2218 481.983 70.5639 479.224C70.8837 476.636 73.4643 475.253 75.3904 473.543C77.1008 472.033 78.6923 470.27 80.9456 470.047Z" fill="#FFC4BC"/>
<path fill-rule="evenodd" clip-rule="evenodd" d="M73.5257 492.315C75.9724 492.07 78.6496 492.702 80.2708 494.591C81.8325 496.413 81.3045 499.068 81.3715 501.485C81.4458 504.028 82.2862 506.862 80.665 508.788C78.9917 510.781 76.0914 510.811 73.5257 510.818C70.9526 510.818 68.2977 510.55 66.3641 508.81C64.319 506.973 62.8019 504.244 63.144 501.485C63.4638 498.897 66.0443 497.514 67.9705 495.803C69.6809 494.294 71.2724 492.531 73.5257 492.308V492.315Z" fill="#FFC4BC"/>
<path fill-rule="evenodd" clip-rule="evenodd" d="M58.68 470.047C61.1267 469.802 63.8039 470.434 65.4251 472.33C66.9868 474.152 66.4588 476.807 66.5258 479.224C66.5927 481.768 67.4405 484.601 65.8193 486.527C64.146 488.52 61.2457 488.55 58.68 488.557C56.1069 488.557 53.452 488.29 51.5184 486.549C49.4733 484.713 47.9562 481.983 48.2983 479.224C48.6181 476.636 51.1986 475.253 53.1247 473.543C54.8352 472.033 56.4267 470.27 58.68 470.047Z" fill="#FFC4BC"/>
<path fill-rule="evenodd" clip-rule="evenodd" d="M51.2601 492.315C53.7068 492.07 56.384 492.702 58.0052 494.591C59.5669 496.413 59.0389 499.068 59.1058 501.485C59.1802 504.028 60.0206 506.862 58.3994 508.788C56.7261 510.781 53.8258 510.811 51.2601 510.818C48.687 510.818 46.032 510.55 44.0985 508.81C42.0534 506.973 40.5363 504.244 40.8784 501.485C41.1982 498.897 43.7787 497.514 45.7048 495.803C47.4153 494.294 49.0067 492.531 51.2601 492.308V492.315Z" fill="#FFC4BC"/>
<path fill-rule="evenodd" clip-rule="evenodd" d="M36.4066 470.047C38.8533 469.802 41.5305 470.434 43.1517 472.33C44.7134 474.152 44.1854 476.807 44.2523 479.224C44.3267 481.768 45.1671 484.601 43.5458 486.527C41.8726 488.52 38.9722 488.55 36.4066 488.557C33.8334 488.557 31.1785 488.29 29.245 486.549C27.1999 484.713 25.6828 481.983 26.0249 479.224C26.3446 476.636 28.9252 475.253 30.8513 473.543C32.5618 472.033 34.1532 470.27 36.4066 470.047V470.047Z" fill="#FFC4BC"/>
<path fill-rule="evenodd" clip-rule="evenodd" d="M14.1468 466.337C16.5935 466.092 19.2707 466.724 20.8919 468.62C22.4536 470.442 21.9256 473.097 21.9926 475.514C22.0669 478.058 22.9073 480.891 21.2861 482.817C19.6128 484.81 16.7125 484.84 14.1468 484.847C11.5737 484.847 8.91876 484.58 6.98521 482.839C4.9401 481.003 3.42301 478.273 3.7651 475.514C4.08488 472.926 6.66543 471.543 8.59155 469.833C10.302 468.323 11.8935 466.56 14.1468 466.337V466.337Z" fill="#FFC4BC"/>
<path fill-rule="evenodd" clip-rule="evenodd" d="M28.9964 492.315C31.4431 492.07 34.1203 492.702 35.7415 494.591C37.3033 496.413 36.7752 499.068 36.8422 501.485C36.9165 504.028 37.7569 506.862 36.1357 508.788C34.4624 510.781 31.5621 510.811 28.9964 510.818C26.4233 510.818 23.7684 510.55 21.8348 508.81C19.7897 506.973 18.2726 504.244 18.6147 501.485C18.9345 498.897 21.515 497.514 23.4412 495.803C25.1516 494.294 26.7431 492.531 28.9964 492.308V492.315Z" fill="#FFC4BC"/>
</svg>
