<svg width="548" height="681" viewBox="0 0 548 681" fill="none" xmlns="http://www.w3.org/2000/svg">
<path fillRule="evenodd" clip-rule="evenodd" d="M460.917 220.11C470.197 268.509 550.171 298.967 535.12 346.598C521.035 391.173 447.34 387.061 401.762 407.316C362.201 424.897 328.444 455.424 284.889 457.8C240.116 460.243 199.592 439.828 160.486 420.482C118.08 399.503 60.0629 384.154 48.701 340.955C37.0418 296.626 88.4859 259.154 106.747 216.161C120.481 183.827 116.394 144.791 142.678 119.703C168.711 94.8545 212.713 100.618 245.413 83.8032C292.51 59.5861 321.998 -1.51671 375.414 0.0288189C426.326 1.50186 469.034 46.9292 486.065 90.7661C502.254 132.436 452.536 176.403 460.917 220.11Z" fill="#EDE8D7"/>
<path d="M177.5 551.742H186.44C186.8 551.742 186.94 551.562 187.02 551.222L187.52 548.722C187.58 548.462 187.46 548.322 187.24 548.322H187.04C186.26 548.322 186 550.722 184.66 550.722H181C180.5 550.722 180.26 550.302 180.26 549.782V539.202C180.26 538.402 181.08 538.342 181.08 537.882V537.822C181.08 537.642 180.9 537.542 180.64 537.542H177.5C177.24 537.542 177.08 537.642 177.08 537.822V537.882C177.08 538.342 177.82 538.402 177.82 539.202V550.082C177.82 550.862 177.08 550.962 177.08 551.402V551.462C177.08 551.622 177.24 551.742 177.5 551.742ZM196.479 548.802C196.079 549.602 195.179 550.262 193.919 550.262C192.499 550.262 191.479 549.422 190.979 548.062L195.819 546.282C196.439 546.062 196.839 545.642 196.839 544.882C196.839 543.482 195.679 541.942 193.099 541.942C190.459 541.942 188.319 544.002 188.319 546.862C188.319 549.962 190.379 551.942 193.059 551.942C195.599 551.942 196.939 550.182 197.119 549.002C197.159 548.602 196.699 548.522 196.479 548.802ZM192.699 542.702C193.859 542.702 194.599 544.142 194.599 544.962C194.599 545.362 194.439 545.642 194.079 545.802L190.759 547.242C190.679 546.842 190.639 546.422 190.639 545.962C190.639 544.042 191.439 542.702 192.699 542.702ZM207.762 550.082V537.102C207.762 536.702 207.542 536.582 207.062 536.742L204.942 537.422C204.722 537.502 204.582 537.642 204.582 537.822V537.862C204.582 538.302 205.502 538.322 205.502 539.202V542.962C204.862 542.342 203.962 541.942 202.882 541.942C200.262 541.942 198.182 543.982 198.182 546.922C198.182 550.042 200.402 551.942 202.842 551.942C203.942 551.942 204.982 551.502 205.642 550.662L205.702 551.362C205.722 551.582 205.862 551.742 206.102 551.742H208.182C208.402 551.742 208.522 551.642 208.522 551.462V551.402C208.522 550.982 207.762 550.862 207.762 550.082ZM203.382 551.182C201.562 551.142 200.402 548.822 200.462 546.102C200.502 543.982 201.482 542.702 202.962 542.702C204.362 542.702 205.502 544.122 205.502 545.402V548.602C205.502 550.342 204.362 551.182 203.382 551.182ZM211.746 540.482C212.726 540.482 213.366 539.862 213.366 538.982C213.366 538.122 212.726 537.482 211.746 537.482C210.746 537.482 210.086 538.122 210.086 538.982C210.086 539.862 210.746 540.482 211.746 540.482ZM210.266 551.742H213.306C213.566 551.742 213.746 551.622 213.746 551.442V551.362C213.746 550.922 212.926 550.842 212.926 550.062V542.362C212.926 542.042 212.666 541.802 212.206 542.022L210.206 543.022C209.986 543.142 209.846 543.222 209.846 543.382V543.442C209.846 543.802 210.586 544.002 210.586 544.822V550.062C210.586 550.842 209.846 550.922 209.846 551.362V551.442C209.846 551.622 210.006 551.742 210.266 551.742ZM223.659 542.142C221.379 542.142 220.939 541.942 219.619 541.942C216.879 541.942 215.019 543.642 215.019 546.062C215.019 548.282 216.979 549.982 219.519 549.982C219.779 549.982 220.019 549.962 220.259 549.942C221.359 550.062 222.019 550.862 222.019 552.002C222.019 553.222 221.079 554.062 219.639 554.062C216.799 554.042 217.379 550.962 215.899 550.962C215.239 550.962 214.939 551.422 214.939 551.902C214.939 553.322 216.539 554.802 219.559 554.802C222.319 554.802 224.379 553.682 224.379 551.902C224.379 550.802 223.639 549.902 221.899 549.502C223.319 548.842 224.219 547.562 224.219 545.962C224.219 544.982 223.699 543.962 222.959 543.302C223.559 543.142 224.279 543.222 224.519 542.702C224.699 542.402 224.539 542.142 223.659 542.142ZM217.339 545.042C217.339 543.682 218.059 542.702 219.239 542.702C220.839 542.702 221.899 544.662 221.899 546.842C221.899 548.202 221.139 549.202 219.899 549.202C218.499 549.202 217.339 547.302 217.339 545.042ZM233.92 548.802C233.52 549.602 232.62 550.262 231.36 550.262C229.94 550.262 228.92 549.422 228.42 548.062L233.26 546.282C233.88 546.062 234.28 545.642 234.28 544.882C234.28 543.482 233.12 541.942 230.54 541.942C227.9 541.942 225.76 544.002 225.76 546.862C225.76 549.962 227.82 551.942 230.5 551.942C233.04 551.942 234.38 550.182 234.56 549.002C234.6 548.602 234.14 548.522 233.92 548.802ZM230.14 542.702C231.3 542.702 232.04 544.142 232.04 544.962C232.04 545.362 231.88 545.642 231.52 545.802L228.2 547.242C228.12 546.842 228.08 546.422 228.08 545.962C228.08 544.042 228.88 542.702 230.14 542.702ZM244.06 551.922C246.64 551.922 248.26 550.702 248.26 549.142C248.26 545.182 242.44 546.922 242.44 544.202C242.44 543.342 243.14 542.662 244.12 542.662C246.22 542.662 245.68 545.182 247.08 545.182C247.6 545.182 248 544.822 248 544.322C248 543.162 246.5 541.942 244 541.942C241.7 541.942 240.08 543.162 240.08 544.782C240.08 548.782 245.9 547.002 245.9 549.702C245.9 550.722 245.12 551.242 244.06 551.242C241.72 551.242 242.38 548.702 240.88 548.702C240.3 548.702 239.88 549.002 239.88 549.622C239.88 550.722 241.44 551.922 244.06 551.922ZM253.155 551.942C254.955 551.942 255.975 550.602 255.975 549.262C255.975 548.902 255.495 548.842 255.315 549.162C255.195 549.742 254.735 550.202 253.895 550.202C253.235 550.202 252.755 549.682 252.755 548.722V543.122H255.275C255.475 543.122 255.635 542.982 255.635 542.782V542.502C255.635 542.302 255.475 542.142 255.275 542.142H252.755L252.735 540.202C252.735 539.922 252.615 539.762 252.355 539.762H252.055C251.855 539.762 251.695 539.922 251.655 540.202C251.495 541.362 250.875 542.142 249.835 542.142H249.215C248.995 542.142 248.875 542.282 248.875 542.502V542.782C248.875 542.982 249.015 543.122 249.215 543.122H250.355V548.702C250.355 550.862 251.475 551.942 253.155 551.942ZM258.816 540.482C259.796 540.482 260.436 539.862 260.436 538.982C260.436 538.122 259.796 537.482 258.816 537.482C257.816 537.482 257.156 538.122 257.156 538.982C257.156 539.862 257.816 540.482 258.816 540.482ZM257.336 551.742H260.376C260.636 551.742 260.816 551.622 260.816 551.442V551.362C260.816 550.922 259.996 550.842 259.996 550.062V542.362C259.996 542.042 259.736 541.802 259.276 542.022L257.276 543.022C257.056 543.142 256.916 543.222 256.916 543.382V543.442C256.916 543.802 257.656 544.002 257.656 544.822V550.062C257.656 550.842 256.916 550.922 256.916 551.362V551.442C256.916 551.622 257.076 551.742 257.336 551.742ZM262.509 551.742H265.549C265.809 551.742 265.989 551.622 265.989 551.442V551.382C265.989 550.922 265.169 550.862 265.169 550.082V537.082C265.169 536.782 264.909 536.542 264.449 536.762L262.429 537.762C262.229 537.862 262.089 537.942 262.089 538.122V538.182C262.089 538.542 262.829 538.702 262.829 539.542V550.082C262.829 550.862 262.089 550.922 262.089 551.382V551.442C262.089 551.622 262.249 551.742 262.509 551.742ZM267.646 551.742H270.686C270.946 551.742 271.126 551.622 271.126 551.442V551.382C271.126 550.922 270.306 550.862 270.306 550.082V537.082C270.306 536.782 270.046 536.542 269.586 536.762L267.566 537.762C267.366 537.862 267.226 537.942 267.226 538.122V538.182C267.226 538.542 267.966 538.702 267.966 539.542V550.082C267.966 550.862 267.226 550.922 267.226 551.382V551.442C267.226 551.622 267.386 551.742 267.646 551.742ZM274.383 540.482C275.363 540.482 276.003 539.862 276.003 538.982C276.003 538.122 275.363 537.482 274.383 537.482C273.383 537.482 272.723 538.122 272.723 538.982C272.723 539.862 273.383 540.482 274.383 540.482ZM272.903 551.742H275.943C276.203 551.742 276.383 551.622 276.383 551.442V551.362C276.383 550.922 275.563 550.842 275.563 550.062V542.362C275.563 542.042 275.303 541.802 274.843 542.022L272.843 543.022C272.623 543.142 272.483 543.222 272.483 543.382V543.442C272.483 543.802 273.223 544.002 273.223 544.822V550.062C273.223 550.842 272.483 550.922 272.483 551.362V551.442C272.483 551.622 272.643 551.742 272.903 551.742ZM287.656 550.062L287.416 546.282C287.216 543.142 285.496 541.942 283.616 541.942C282.236 541.942 281.136 542.602 280.576 543.682V542.382C280.576 542.042 280.376 541.802 279.956 542.022L278.016 542.962C277.796 543.062 277.656 543.162 277.656 543.322V543.382C277.656 543.822 278.556 543.842 278.556 544.722V550.082C278.556 550.862 277.756 550.942 277.756 551.382V551.462C277.756 551.642 277.916 551.762 278.176 551.762H281.276C281.556 551.762 281.716 551.642 281.716 551.462V551.382C281.716 550.942 280.896 550.862 280.896 550.082V545.382C280.896 543.942 281.716 542.902 282.996 542.902C284.216 542.902 284.996 543.922 285.096 546.202L285.296 550.062C285.336 550.862 284.576 550.942 284.576 551.382V551.462C284.576 551.642 284.736 551.762 285.016 551.762H287.936C288.196 551.762 288.376 551.642 288.376 551.462V551.382C288.376 550.942 287.696 550.862 287.656 550.062ZM298.053 542.142C295.773 542.142 295.333 541.942 294.013 541.942C291.273 541.942 289.413 543.642 289.413 546.062C289.413 548.282 291.373 549.982 293.913 549.982C294.173 549.982 294.413 549.962 294.653 549.942C295.753 550.062 296.413 550.862 296.413 552.002C296.413 553.222 295.473 554.062 294.033 554.062C291.193 554.042 291.773 550.962 290.293 550.962C289.633 550.962 289.333 551.422 289.333 551.902C289.333 553.322 290.933 554.802 293.953 554.802C296.713 554.802 298.773 553.682 298.773 551.902C298.773 550.802 298.033 549.902 296.293 549.502C297.713 548.842 298.613 547.562 298.613 545.962C298.613 544.982 298.093 543.962 297.353 543.302C297.953 543.142 298.673 543.222 298.913 542.702C299.093 542.402 298.933 542.142 298.053 542.142ZM291.733 545.042C291.733 543.682 292.453 542.702 293.633 542.702C295.233 542.702 296.293 544.662 296.293 546.842C296.293 548.202 295.533 549.202 294.293 549.202C292.893 549.202 291.733 547.302 291.733 545.042ZM308.315 548.802C307.915 549.602 307.015 550.262 305.755 550.262C304.335 550.262 303.315 549.422 302.815 548.062L307.655 546.282C308.275 546.062 308.675 545.642 308.675 544.882C308.675 543.482 307.515 541.942 304.935 541.942C302.295 541.942 300.155 544.002 300.155 546.862C300.155 549.962 302.215 551.942 304.895 551.942C307.435 551.942 308.775 550.182 308.955 549.002C308.995 548.602 308.535 548.522 308.315 548.802ZM304.535 542.702C305.695 542.702 306.435 544.142 306.435 544.962C306.435 545.362 306.275 545.642 305.915 545.802L302.595 547.242C302.515 546.842 302.475 546.422 302.475 545.962C302.475 544.042 303.275 542.702 304.535 542.702ZM315.638 541.942C314.358 541.942 313.418 542.642 312.978 543.922V542.362C312.978 542.022 312.818 541.822 312.398 542.022L310.438 542.922C310.218 543.042 310.078 543.182 310.078 543.342V543.402C310.078 543.842 310.938 543.882 310.938 544.702V550.082C310.938 550.862 310.178 550.942 310.178 551.382V551.462C310.178 551.642 310.338 551.742 310.598 551.742H313.698C313.958 551.742 314.118 551.642 314.118 551.462V551.382C314.118 550.942 313.198 550.862 313.198 550.082V545.802C313.198 544.502 313.638 543.322 314.578 543.322C315.738 543.322 315.138 544.882 316.438 544.882C317.198 544.882 317.478 544.302 317.478 543.622C317.478 542.702 316.818 541.942 315.638 541.942Z" fill="#333333"/>
<path fillRule="evenodd" clip-rule="evenodd" d="M153.671 574.608C156.643 574.31 159.895 575.078 161.865 577.382C163.762 579.595 163.12 582.82 163.202 585.757C163.292 588.846 164.313 592.288 162.343 594.628C160.311 597.049 156.787 597.086 153.671 597.095C150.545 597.095 147.319 596.769 144.971 594.655C142.486 592.424 140.643 589.108 141.059 585.757C141.447 582.613 144.582 580.923 146.922 578.854C149 577.02 150.933 574.879 153.671 574.608Z" fill="#423D89"/>
<path d="M187.8 592V577.7H192.1C194.76 577.7 196.7 578.58 196.7 581.4V581.48C196.7 582.78 196.18 583.94 194.54 584.5C196.62 585 197.4 586.06 197.4 587.92V588C197.4 590.7 195.56 592 192.7 592H187.8ZM189.5 583.94H192.1C194.2 583.94 195 583.18 195 581.42V581.34C195 579.72 194.06 579.06 192.06 579.06H189.5V583.94ZM189.5 590.64H192.66C194.74 590.64 195.7 589.72 195.7 587.98V587.9C195.7 586.14 194.72 585.3 192.42 585.3H189.5V590.64ZM204.401 592.18C201.441 592.18 199.341 590.1 199.341 586.88V586.72C199.341 583.56 201.361 581.36 204.241 581.36C206.661 581.36 208.941 582.82 208.941 586.56V587.1H201.061C201.141 589.48 202.281 590.8 204.421 590.8C206.041 590.8 206.981 590.2 207.201 588.98H208.861C208.501 591.08 206.761 592.18 204.401 592.18ZM201.121 585.76H207.241C207.081 583.6 205.961 582.74 204.241 582.74C202.541 582.74 201.401 583.9 201.121 585.76ZM211.489 592V581.54H213.149V583.42C213.809 582.24 214.709 581.42 216.589 581.36V582.92C214.489 583.02 213.149 583.68 213.149 586.26V592H211.489ZM222.895 595.82C219.795 595.82 218.435 594.36 218.155 592.6H219.855C220.095 593.8 221.095 594.42 222.875 594.42C224.935 594.42 226.235 593.44 226.235 591.2V589.68C225.635 590.7 224.215 591.66 222.695 591.66C219.955 591.66 217.935 589.58 217.935 586.7V586.56C217.935 583.72 219.935 581.36 222.815 581.36C224.555 581.36 225.635 582.2 226.235 583.22V581.54H227.895V591.3C227.875 594.34 225.815 595.82 222.895 595.82ZM222.875 590.28C224.815 590.28 226.295 588.92 226.295 586.58V586.44C226.295 584.1 225.015 582.74 222.975 582.74C220.895 582.74 219.655 584.28 219.655 586.48V586.64C219.655 588.92 221.115 590.28 222.875 590.28ZM235.534 592.18C232.574 592.18 230.474 590.1 230.474 586.88V586.72C230.474 583.56 232.494 581.36 235.374 581.36C237.794 581.36 240.074 582.82 240.074 586.56V587.1H232.194C232.274 589.48 233.414 590.8 235.554 590.8C237.174 590.8 238.114 590.2 238.334 588.98H239.994C239.634 591.08 237.894 592.18 235.534 592.18ZM232.254 585.76H238.374C238.214 583.6 237.094 582.74 235.374 582.74C233.674 582.74 232.534 583.9 232.254 585.76ZM242.621 592V581.54H244.281V583.2C244.761 582.22 245.921 581.36 247.641 581.36C249.801 581.36 251.321 582.54 251.321 585.58V592H249.661V585.46C249.661 583.62 248.881 582.8 247.201 582.8C245.661 582.8 244.281 583.78 244.281 585.66V592H242.621Z" fill="#333333"/>
<path d="M311.38 592V591.6L317.06 585.62C318.36 584.24 319.12 582.94 319.12 581.48C319.12 579.88 318.18 578.92 316.56 578.92C314.9 578.92 313.82 579.86 313.54 582.1H311.92C312.14 579.3 313.84 577.52 316.56 577.52C319.2 577.52 320.88 579.08 320.88 581.54C320.88 583.3 319.76 585.02 318 586.74L314.06 590.58H320.96V592H311.38ZM332.587 592.18C330.507 592.18 328.947 591.04 328.947 588.16V581.54H330.607V588.08C330.607 589.92 331.387 590.74 333.027 590.74C334.507 590.74 335.907 589.76 335.907 587.88V581.54H337.567V592H335.907V590.34C335.427 591.32 334.267 592.18 332.587 592.18ZM344.102 592.14C342.202 592.14 341.282 591.02 341.282 589.38V582.94H339.782V581.54H341.282V579.16H342.942V581.54H345.382V582.94H342.942V589.22C342.942 590.24 343.402 590.74 344.242 590.74C344.762 590.74 345.162 590.66 345.522 590.52V591.92C345.182 592.04 344.782 592.14 344.102 592.14ZM350.652 592L346.852 581.54H348.652L351.752 590.32L354.812 581.54H356.532L352.772 592H350.652ZM359.555 579.36C358.955 579.36 358.455 578.86 358.455 578.26C358.455 577.66 358.955 577.16 359.555 577.16C360.155 577.16 360.655 577.66 360.655 578.26C360.655 578.86 360.155 579.36 359.555 579.36ZM358.755 592V581.54H360.415V592H358.755ZM363.813 592V576.54H365.473V586.36L369.813 581.54H371.753L367.273 586.4L372.133 592H370.113L365.473 586.58V592H363.813ZM374.165 592V576.54H375.845V592H374.165ZM383.523 592.18C380.563 592.18 378.463 590.1 378.463 586.88V586.72C378.463 583.56 380.483 581.36 383.363 581.36C385.783 581.36 388.063 582.82 388.063 586.56V587.1H380.183C380.263 589.48 381.403 590.8 383.543 590.8C385.163 590.8 386.103 590.2 386.323 588.98H387.983C387.623 591.08 385.883 592.18 383.523 592.18ZM380.243 585.76H386.363C386.203 583.6 385.083 582.74 383.363 582.74C381.663 582.74 380.523 583.9 380.243 585.76ZM390.61 592V581.54H392.27V583.42C392.93 582.24 393.83 581.42 395.71 581.36V582.92C393.61 583.02 392.27 583.68 392.27 586.26V592H390.61ZM402.116 592.18C399.156 592.18 397.056 590.1 397.056 586.88V586.72C397.056 583.56 399.076 581.36 401.956 581.36C404.376 581.36 406.656 582.82 406.656 586.56V587.1H398.776C398.856 589.48 399.996 590.8 402.136 590.8C403.756 590.8 404.696 590.2 404.916 588.98H406.576C406.216 591.08 404.476 592.18 402.116 592.18ZM398.836 585.76H404.956C404.796 583.6 403.676 582.74 401.956 582.74C400.256 582.74 399.116 583.9 398.836 585.76Z" fill="#333333"/>
<path d="M434.86 592V579.42L431.66 581.72V580.1L434.98 577.7H436.6V592H434.86ZM449.901 592.18C447.161 592.18 445.181 590.24 445.181 586.98V586.82C445.181 583.62 447.181 581.36 450.061 581.36C451.801 581.36 452.881 582.2 453.481 583.22V576.54H455.141V592H453.481V590.2C452.881 591.22 451.421 592.18 449.901 592.18ZM450.081 590.8C452.021 590.8 453.541 589.52 453.541 586.84V586.68C453.541 584 452.261 582.74 450.221 582.74C448.141 582.74 446.901 584.2 446.901 586.74V586.9C446.901 589.54 448.321 590.8 450.081 590.8ZM462.78 592.18C459.82 592.18 457.72 590.1 457.72 586.88V586.72C457.72 583.56 459.74 581.36 462.62 581.36C465.04 581.36 467.32 582.82 467.32 586.56V587.1H459.44C459.52 589.48 460.66 590.8 462.8 590.8C464.42 590.8 465.36 590.2 465.58 588.98H467.24C466.88 591.08 465.14 592.18 462.78 592.18ZM459.5 585.76H465.62C465.46 583.6 464.34 582.74 462.62 582.74C460.92 582.74 459.78 583.9 459.5 585.76ZM473.205 592.18C470.705 592.18 469.205 590.92 469.105 588.78H470.725C470.845 590.02 471.505 590.8 473.185 590.8C474.765 590.8 475.465 590.26 475.465 589.14C475.465 588.04 474.645 587.68 473.025 587.38C470.305 586.88 469.385 586.12 469.385 584.3C469.385 582.36 471.285 581.36 472.925 581.36C474.805 581.36 476.425 582.12 476.705 584.38H475.105C474.865 583.24 474.225 582.74 472.905 582.74C471.705 582.74 470.925 583.34 470.925 584.24C470.925 585.18 471.445 585.56 473.365 585.9C475.525 586.3 477.045 586.78 477.045 589C477.045 590.9 475.745 592.18 473.205 592.18ZM480.415 579.36C479.815 579.36 479.315 578.86 479.315 578.26C479.315 577.66 479.815 577.16 480.415 577.16C481.015 577.16 481.515 577.66 481.515 578.26C481.515 578.86 481.015 579.36 480.415 579.36ZM479.615 592V581.54H481.275V592H479.615ZM488.852 595.82C485.752 595.82 484.392 594.36 484.112 592.6H485.812C486.052 593.8 487.052 594.42 488.832 594.42C490.892 594.42 492.192 593.44 492.192 591.2V589.68C491.592 590.7 490.172 591.66 488.652 591.66C485.912 591.66 483.892 589.58 483.892 586.7V586.56C483.892 583.72 485.892 581.36 488.772 581.36C490.512 581.36 491.592 582.2 492.192 583.22V581.54H493.852V591.3C493.832 594.34 491.772 595.82 488.852 595.82ZM488.832 590.28C490.772 590.28 492.252 588.92 492.252 586.58V586.44C492.252 584.1 490.972 582.74 488.932 582.74C486.852 582.74 485.612 584.28 485.612 586.48V586.64C485.612 588.92 487.072 590.28 488.832 590.28ZM497.211 592V581.54H498.871V583.2C499.351 582.22 500.511 581.36 502.231 581.36C504.391 581.36 505.911 582.54 505.911 585.58V592H504.251V585.46C504.251 583.62 503.471 582.8 501.791 582.8C500.251 582.8 498.871 583.78 498.871 585.66V592H497.211ZM513.444 592.18C510.484 592.18 508.384 590.1 508.384 586.88V586.72C508.384 583.56 510.404 581.36 513.284 581.36C515.704 581.36 517.984 582.82 517.984 586.56V587.1H510.104C510.184 589.48 511.324 590.8 513.464 590.8C515.084 590.8 516.024 590.2 516.244 588.98H517.904C517.544 591.08 515.804 592.18 513.444 592.18ZM510.164 585.76H516.284C516.124 583.6 515.004 582.74 513.284 582.74C511.584 582.74 510.444 583.9 510.164 585.76ZM520.532 592V581.54H522.192V583.42C522.852 582.24 523.752 581.42 525.632 581.36V582.92C523.532 583.02 522.192 583.68 522.192 586.26V592H520.532Z" fill="#333333"/>
<path fillRule="evenodd" clip-rule="evenodd" d="M153.671 650.608C156.643 650.31 159.895 651.078 161.865 653.382C163.762 655.595 163.12 658.82 163.202 661.757C163.292 664.846 164.313 668.288 162.343 670.628C160.311 673.049 156.787 673.086 153.671 673.095C150.545 673.095 147.319 672.769 144.971 670.655C142.486 668.424 140.643 665.108 141.059 661.757C141.447 658.613 144.582 656.923 146.922 654.854C149 653.02 150.933 650.879 153.671 650.608Z" fill="#03DAC6"/>
<path d="M194.18 668.18C189.96 668.18 187.1 664.94 187.1 660.94V660.78C187.1 656.72 189.94 653.52 194.14 653.52C198.34 653.52 201.12 656.72 201.12 660.74V660.9C201.12 664.94 198.34 668.18 194.18 668.18ZM194.18 666.74C197.36 666.74 199.32 664.34 199.32 660.88V660.72C199.32 657.52 197.44 654.92 194.14 654.92C190.82 654.92 188.9 657.36 188.9 660.76V660.92C188.9 664.38 191.2 666.74 194.18 666.74ZM207.131 668.18C204.631 668.18 203.131 666.92 203.031 664.78H204.651C204.771 666.02 205.431 666.8 207.111 666.8C208.691 666.8 209.391 666.26 209.391 665.14C209.391 664.04 208.571 663.68 206.951 663.38C204.231 662.88 203.311 662.12 203.311 660.3C203.311 658.36 205.211 657.36 206.851 657.36C208.731 657.36 210.351 658.12 210.631 660.38H209.031C208.791 659.24 208.151 658.74 206.831 658.74C205.631 658.74 204.851 659.34 204.851 660.24C204.851 661.18 205.371 661.56 207.291 661.9C209.451 662.3 210.971 662.78 210.971 665C210.971 666.9 209.671 668.18 207.131 668.18ZM213.54 668V652.54H215.22V668H213.54ZM222.958 668.18C219.978 668.18 217.838 665.92 217.838 662.86V662.7C217.838 659.56 220.018 657.36 222.978 657.36C225.938 657.36 228.118 659.54 228.118 662.68V662.84C228.118 666 225.938 668.18 222.958 668.18ZM222.978 666.8C225.078 666.8 226.398 665.22 226.398 662.86V662.72C226.398 660.3 225.058 658.74 222.978 658.74C220.878 658.74 219.558 660.3 219.558 662.7V662.86C219.558 665.24 220.858 666.8 222.978 666.8Z" fill="#333333"/>
<path d="M316.8 668.18C313.76 668.18 311.9 666.28 311.8 663.78H313.4C313.56 665.48 314.58 666.78 316.84 666.78C319.08 666.78 320.1 665.7 320.1 664.02C320.1 662.18 319.1 661.24 317.08 661.24H316V659.78H317C318.86 659.78 319.68 658.9 319.68 657.34C319.68 655.98 318.82 654.94 317.08 654.94C315.3 654.94 314.1 656.02 313.92 657.64H312.4C312.5 655.38 314.36 653.52 317.08 653.52C319.8 653.52 321.38 655.32 321.38 657.3C321.38 658.92 320.42 659.88 319.12 660.42C320.8 660.86 321.88 662.04 321.88 664.02C321.88 666.62 319.76 668.18 316.8 668.18ZM333.583 668.18C331.503 668.18 329.943 667.04 329.943 664.16V657.54H331.603V664.08C331.603 665.92 332.383 666.74 334.023 666.74C335.503 666.74 336.903 665.76 336.903 663.88V657.54H338.563V668H336.903V666.34C336.423 667.32 335.263 668.18 333.583 668.18ZM345.098 668.14C343.198 668.14 342.278 667.02 342.278 665.38V658.94H340.778V657.54H342.278V655.16H343.938V657.54H346.378V658.94H343.938V665.22C343.938 666.24 344.398 666.74 345.238 666.74C345.758 666.74 346.158 666.66 346.518 666.52V667.92C346.178 668.04 345.778 668.14 345.098 668.14ZM351.648 668L347.848 657.54H349.648L352.748 666.32L355.808 657.54H357.528L353.768 668H351.648ZM360.551 655.36C359.951 655.36 359.451 654.86 359.451 654.26C359.451 653.66 359.951 653.16 360.551 653.16C361.151 653.16 361.651 653.66 361.651 654.26C361.651 654.86 361.151 655.36 360.551 655.36ZM359.751 668V657.54H361.411V668H359.751ZM364.809 668V652.54H366.469V662.36L370.809 657.54H372.749L368.269 662.4L373.129 668H371.109L366.469 662.58V668H364.809ZM375.161 668V652.54H376.841V668H375.161ZM384.519 668.18C381.559 668.18 379.459 666.1 379.459 662.88V662.72C379.459 659.56 381.479 657.36 384.359 657.36C386.779 657.36 389.059 658.82 389.059 662.56V663.1H381.179C381.259 665.48 382.399 666.8 384.539 666.8C386.159 666.8 387.099 666.2 387.319 664.98H388.979C388.619 667.08 386.879 668.18 384.519 668.18ZM381.239 661.76H387.359C387.199 659.6 386.079 658.74 384.359 658.74C382.659 658.74 381.519 659.9 381.239 661.76ZM391.606 668V657.54H393.266V659.42C393.926 658.24 394.826 657.42 396.706 657.36V658.92C394.606 659.02 393.266 659.68 393.266 662.26V668H391.606ZM403.112 668.18C400.152 668.18 398.052 666.1 398.052 662.88V662.72C398.052 659.56 400.072 657.36 402.952 657.36C405.372 657.36 407.652 658.82 407.652 662.56V663.1H399.772C399.852 665.48 400.992 666.8 403.132 666.8C404.752 666.8 405.692 666.2 405.912 664.98H407.572C407.212 667.08 405.472 668.18 403.112 668.18ZM399.832 661.76H405.952C405.792 659.6 404.672 658.74 402.952 658.74C401.252 658.74 400.112 659.9 399.832 661.76Z" fill="#333333"/>
<path d="M436.8 668.18C433.76 668.18 431.9 666.28 431.8 663.78H433.4C433.56 665.48 434.58 666.78 436.84 666.78C439.08 666.78 440.1 665.7 440.1 664.02C440.1 662.18 439.1 661.24 437.08 661.24H436V659.78H437C438.86 659.78 439.68 658.9 439.68 657.34C439.68 655.98 438.82 654.94 437.08 654.94C435.3 654.94 434.1 656.02 433.92 657.64H432.4C432.5 655.38 434.36 653.52 437.08 653.52C439.8 653.52 441.38 655.32 441.38 657.3C441.38 658.92 440.42 659.88 439.12 660.42C440.8 660.86 441.88 662.04 441.88 664.02C441.88 666.62 439.76 668.18 436.8 668.18ZM453.983 668.18C451.243 668.18 449.263 666.24 449.263 662.98V662.82C449.263 659.62 451.263 657.36 454.143 657.36C455.883 657.36 456.963 658.2 457.563 659.22V652.54H459.223V668H457.563V666.2C456.963 667.22 455.503 668.18 453.983 668.18ZM454.163 666.8C456.103 666.8 457.623 665.52 457.623 662.84V662.68C457.623 660 456.343 658.74 454.303 658.74C452.223 658.74 450.983 660.2 450.983 662.74V662.9C450.983 665.54 452.403 666.8 454.163 666.8ZM466.862 668.18C463.902 668.18 461.802 666.1 461.802 662.88V662.72C461.802 659.56 463.822 657.36 466.702 657.36C469.122 657.36 471.402 658.82 471.402 662.56V663.1H463.522C463.602 665.48 464.742 666.8 466.882 666.8C468.502 666.8 469.442 666.2 469.662 664.98H471.322C470.962 667.08 469.222 668.18 466.862 668.18ZM463.582 661.76H469.702C469.542 659.6 468.422 658.74 466.702 658.74C465.002 658.74 463.862 659.9 463.582 661.76ZM477.287 668.18C474.787 668.18 473.287 666.92 473.187 664.78H474.807C474.927 666.02 475.587 666.8 477.267 666.8C478.847 666.8 479.547 666.26 479.547 665.14C479.547 664.04 478.727 663.68 477.107 663.38C474.387 662.88 473.467 662.12 473.467 660.3C473.467 658.36 475.367 657.36 477.007 657.36C478.887 657.36 480.507 658.12 480.787 660.38H479.187C478.947 659.24 478.307 658.74 476.987 658.74C475.787 658.74 475.007 659.34 475.007 660.24C475.007 661.18 475.527 661.56 477.447 661.9C479.607 662.3 481.127 662.78 481.127 665C481.127 666.9 479.827 668.18 477.287 668.18ZM484.497 655.36C483.897 655.36 483.397 654.86 483.397 654.26C483.397 653.66 483.897 653.16 484.497 653.16C485.097 653.16 485.597 653.66 485.597 654.26C485.597 654.86 485.097 655.36 484.497 655.36ZM483.697 668V657.54H485.357V668H483.697ZM492.934 671.82C489.834 671.82 488.474 670.36 488.194 668.6H489.894C490.134 669.8 491.134 670.42 492.914 670.42C494.974 670.42 496.274 669.44 496.274 667.2V665.68C495.674 666.7 494.254 667.66 492.734 667.66C489.994 667.66 487.974 665.58 487.974 662.7V662.56C487.974 659.72 489.974 657.36 492.854 657.36C494.594 657.36 495.674 658.2 496.274 659.22V657.54H497.934V667.3C497.914 670.34 495.854 671.82 492.934 671.82ZM492.914 666.28C494.854 666.28 496.334 664.92 496.334 662.58V662.44C496.334 660.1 495.054 658.74 493.014 658.74C490.934 658.74 489.694 660.28 489.694 662.48V662.64C489.694 664.92 491.154 666.28 492.914 666.28ZM501.293 668V657.54H502.953V659.2C503.433 658.22 504.593 657.36 506.313 657.36C508.473 657.36 509.993 658.54 509.993 661.58V668H508.333V661.46C508.333 659.62 507.553 658.8 505.873 658.8C504.333 658.8 502.953 659.78 502.953 661.66V668H501.293ZM517.526 668.18C514.566 668.18 512.466 666.1 512.466 662.88V662.72C512.466 659.56 514.486 657.36 517.366 657.36C519.786 657.36 522.066 658.82 522.066 662.56V663.1H514.186C514.266 665.48 515.406 666.8 517.546 666.8C519.166 666.8 520.106 666.2 520.326 664.98H521.986C521.626 667.08 519.886 668.18 517.526 668.18ZM514.246 661.76H520.366C520.206 659.6 519.086 658.74 517.366 658.74C515.666 658.74 514.526 659.9 514.246 661.76ZM524.614 668V657.54H526.274V659.42C526.934 658.24 527.834 657.42 529.714 657.36V658.92C527.614 659.02 526.274 659.68 526.274 662.26V668H524.614ZM536.12 668.18C533.16 668.18 531.06 666.1 531.06 662.88V662.72C531.06 659.56 533.08 657.36 535.96 657.36C538.38 657.36 540.66 658.82 540.66 662.56V663.1H532.78C532.86 665.48 534 666.8 536.14 666.8C537.76 666.8 538.7 666.2 538.92 664.98H540.58C540.22 667.08 538.48 668.18 536.12 668.18ZM532.84 661.76H538.96C538.8 659.6 537.68 658.74 535.96 658.74C534.26 658.74 533.12 659.9 532.84 661.76Z" fill="#333333"/>
<path d="M544 606.258H180" stroke="#BEBAAC"/>
<path fillRule="evenodd" clip-rule="evenodd" d="M153.671 611.608C156.643 611.31 159.895 612.078 161.865 614.382C163.762 616.595 163.12 619.82 163.202 622.757C163.283 625.846 164.313 629.288 162.343 631.628C160.311 634.049 156.787 634.086 153.671 634.095C150.545 634.095 147.319 633.769 144.971 631.655C142.486 629.424 140.643 626.108 141.059 622.757C141.447 619.613 144.582 617.923 146.922 615.854C149 614.02 150.933 611.879 153.671 611.608Z" fill="#E61A6B"/>
<path d="M190.74 631H192.48V618.12H196.64V616.7H186.58V618.12H190.74V631ZM198.09 631H199.75V625.26C199.75 622.68 201.09 622.02 203.19 621.92V620.36C201.31 620.42 200.41 621.24 199.75 622.42V620.54H198.09V631ZM209.677 629.8C207.557 629.8 206.257 628.24 206.257 625.86V625.7C206.257 623.3 207.577 621.74 209.677 621.74C211.757 621.74 213.097 623.3 213.097 625.72V625.86C213.097 628.22 211.777 629.8 209.677 629.8ZM209.657 631.18C212.637 631.18 214.817 629 214.817 625.84V625.68C214.817 622.54 212.637 620.36 209.677 620.36C206.717 620.36 204.537 622.56 204.537 625.7V625.86C204.537 628.92 206.677 631.18 209.657 631.18ZM217.387 631H219.047V624.66C219.047 622.78 220.427 621.8 221.967 621.8C223.647 621.8 224.427 622.62 224.427 624.46V631H226.087V624.58C226.087 621.54 224.567 620.36 222.407 620.36C220.687 620.36 219.527 621.22 219.047 622.2V620.54H217.387V631ZM233.28 631.18C234.8 631.18 236.26 630.22 236.86 629.2V631H238.52V615.54H236.86V622.22C236.26 621.2 235.18 620.36 233.44 620.36C230.56 620.36 228.56 622.62 228.56 625.82V625.98C228.56 629.24 230.54 631.18 233.28 631.18ZM233.46 629.8C231.7 629.8 230.28 628.54 230.28 625.9V625.74C230.28 623.2 231.52 621.74 233.6 621.74C235.64 621.74 236.92 623 236.92 625.68V625.84C236.92 628.52 235.4 629.8 233.46 629.8ZM241.879 631H243.539V624.66C243.539 622.78 244.919 621.8 246.459 621.8C248.139 621.8 248.919 622.62 248.919 624.46V631H250.579V624.58C250.579 621.54 249.059 620.36 246.899 620.36C245.179 620.36 244.019 621.22 243.539 622.2V615.54H241.879V631ZM258.112 631.18C260.472 631.18 262.212 630.08 262.572 627.98H260.912C260.692 629.2 259.752 629.8 258.132 629.8C255.992 629.8 254.852 628.48 254.772 626.1H262.652V625.56C262.652 621.82 260.372 620.36 257.952 620.36C255.072 620.36 253.052 622.56 253.052 625.72V625.88C253.052 629.1 255.152 631.18 258.112 631.18ZM254.832 624.76C255.112 622.9 256.252 621.74 257.952 621.74C259.672 621.74 260.792 622.6 260.952 624.76H254.832ZM265.24 631H266.9V620.54H265.24V631ZM266.04 618.36C266.64 618.36 267.14 617.86 267.14 617.26C267.14 616.66 266.64 616.16 266.04 616.16C265.44 616.16 264.94 616.66 264.94 617.26C264.94 617.86 265.44 618.36 266.04 618.36ZM270.297 631H271.957V624.6C271.957 622.72 273.357 621.8 274.717 621.8C276.157 621.8 276.937 622.56 276.937 624.4V631H278.597V624.6C278.597 622.72 279.997 621.8 281.357 621.8C282.797 621.8 283.577 622.56 283.577 624.4V631H285.237V624.52C285.237 621.48 283.597 620.36 281.717 620.36C280.417 620.36 278.857 620.96 278.137 622.32C277.597 620.92 276.417 620.36 275.077 620.36C273.577 620.36 272.437 621.16 271.957 622.14V620.54H270.297V631Z" fill="#333333"/>
<path d="M318.94 631V628H311.78V627.44L318.32 616.7H320.64V626.58H322.62V628H320.64V631H318.94ZM313.98 626.58H318.94V618.02L313.98 626.58ZM333.857 631.18C331.777 631.18 330.217 630.04 330.217 627.16V620.54H331.877V627.08C331.877 628.92 332.657 629.74 334.297 629.74C335.777 629.74 337.177 628.76 337.177 626.88V620.54H338.837V631H337.177V629.34C336.697 630.32 335.537 631.18 333.857 631.18ZM345.372 631.14C343.472 631.14 342.552 630.02 342.552 628.38V621.94H341.052V620.54H342.552V618.16H344.212V620.54H346.652V621.94H344.212V628.22C344.212 629.24 344.672 629.74 345.512 629.74C346.032 629.74 346.432 629.66 346.792 629.52V630.92C346.452 631.04 346.052 631.14 345.372 631.14ZM351.921 631L348.121 620.54H349.921L353.021 629.32L356.081 620.54H357.801L354.041 631H351.921ZM360.825 618.36C360.225 618.36 359.725 617.86 359.725 617.26C359.725 616.66 360.225 616.16 360.825 616.16C361.425 616.16 361.925 616.66 361.925 617.26C361.925 617.86 361.425 618.36 360.825 618.36ZM360.025 631V620.54H361.685V631H360.025ZM365.082 631V615.54H366.742V625.36L371.082 620.54H373.022L368.542 625.4L373.402 631H371.382L366.742 625.58V631H365.082ZM375.435 631V615.54H377.115V631H375.435ZM384.792 631.18C381.832 631.18 379.732 629.1 379.732 625.88V625.72C379.732 622.56 381.752 620.36 384.632 620.36C387.052 620.36 389.332 621.82 389.332 625.56V626.1H381.452C381.532 628.48 382.672 629.8 384.812 629.8C386.432 629.8 387.372 629.2 387.592 627.98H389.252C388.892 630.08 387.152 631.18 384.792 631.18ZM381.512 624.76H387.632C387.472 622.6 386.352 621.74 384.632 621.74C382.932 621.74 381.792 622.9 381.512 624.76ZM391.879 631V620.54H393.539V622.42C394.199 621.24 395.099 620.42 396.979 620.36V621.92C394.879 622.02 393.539 622.68 393.539 625.26V631H391.879ZM403.386 631.18C400.426 631.18 398.326 629.1 398.326 625.88V625.72C398.326 622.56 400.346 620.36 403.226 620.36C405.646 620.36 407.926 621.82 407.926 625.56V626.1H400.046C400.126 628.48 401.266 629.8 403.406 629.8C405.026 629.8 405.966 629.2 406.186 627.98H407.846C407.486 630.08 405.746 631.18 403.386 631.18ZM400.106 624.76H406.226C406.066 622.6 404.946 621.74 403.226 621.74C401.526 621.74 400.386 622.9 400.106 624.76Z" fill="#333333"/>
<path d="M438.94 631V628H431.78V627.44L438.32 616.7H440.64V626.58H442.62V628H440.64V631H438.94ZM433.98 626.58H438.94V618.02L433.98 626.58ZM454.257 631.18C451.517 631.18 449.537 629.24 449.537 625.98V625.82C449.537 622.62 451.537 620.36 454.417 620.36C456.157 620.36 457.237 621.2 457.837 622.22V615.54H459.497V631H457.837V629.2C457.237 630.22 455.777 631.18 454.257 631.18ZM454.437 629.8C456.377 629.8 457.897 628.52 457.897 625.84V625.68C457.897 623 456.617 621.74 454.577 621.74C452.497 621.74 451.257 623.2 451.257 625.74V625.9C451.257 628.54 452.677 629.8 454.437 629.8ZM467.136 631.18C464.176 631.18 462.076 629.1 462.076 625.88V625.72C462.076 622.56 464.096 620.36 466.976 620.36C469.396 620.36 471.676 621.82 471.676 625.56V626.1H463.796C463.876 628.48 465.016 629.8 467.156 629.8C468.776 629.8 469.716 629.2 469.936 627.98H471.596C471.236 630.08 469.496 631.18 467.136 631.18ZM463.856 624.76H469.976C469.816 622.6 468.696 621.74 466.976 621.74C465.276 621.74 464.136 622.9 463.856 624.76ZM477.561 631.18C475.061 631.18 473.561 629.92 473.461 627.78H475.081C475.201 629.02 475.861 629.8 477.541 629.8C479.121 629.8 479.821 629.26 479.821 628.14C479.821 627.04 479.001 626.68 477.381 626.38C474.661 625.88 473.741 625.12 473.741 623.3C473.741 621.36 475.641 620.36 477.281 620.36C479.161 620.36 480.781 621.12 481.061 623.38H479.461C479.221 622.24 478.581 621.74 477.261 621.74C476.061 621.74 475.281 622.34 475.281 623.24C475.281 624.18 475.801 624.56 477.721 624.9C479.881 625.3 481.401 625.78 481.401 628C481.401 629.9 480.101 631.18 477.561 631.18ZM484.77 618.36C484.17 618.36 483.67 617.86 483.67 617.26C483.67 616.66 484.17 616.16 484.77 616.16C485.37 616.16 485.87 616.66 485.87 617.26C485.87 617.86 485.37 618.36 484.77 618.36ZM483.97 631V620.54H485.63V631H483.97ZM493.208 634.82C490.108 634.82 488.748 633.36 488.468 631.6H490.168C490.408 632.8 491.408 633.42 493.188 633.42C495.248 633.42 496.548 632.44 496.548 630.2V628.68C495.948 629.7 494.528 630.66 493.008 630.66C490.268 630.66 488.248 628.58 488.248 625.7V625.56C488.248 622.72 490.248 620.36 493.128 620.36C494.868 620.36 495.948 621.2 496.548 622.22V620.54H498.208V630.3C498.188 633.34 496.128 634.82 493.208 634.82ZM493.188 629.28C495.128 629.28 496.608 627.92 496.608 625.58V625.44C496.608 623.1 495.328 621.74 493.288 621.74C491.208 621.74 489.968 623.28 489.968 625.48V625.64C489.968 627.92 491.428 629.28 493.188 629.28ZM501.567 631V620.54H503.227V622.2C503.707 621.22 504.867 620.36 506.587 620.36C508.747 620.36 510.267 621.54 510.267 624.58V631H508.607V624.46C508.607 622.62 507.827 621.8 506.147 621.8C504.607 621.8 503.227 622.78 503.227 624.66V631H501.567ZM517.8 631.18C514.84 631.18 512.74 629.1 512.74 625.88V625.72C512.74 622.56 514.76 620.36 517.64 620.36C520.06 620.36 522.34 621.82 522.34 625.56V626.1H514.46C514.54 628.48 515.68 629.8 517.82 629.8C519.44 629.8 520.38 629.2 520.6 627.98H522.26C521.9 630.08 520.16 631.18 517.8 631.18ZM514.52 624.76H520.64C520.48 622.6 519.36 621.74 517.64 621.74C515.94 621.74 514.8 622.9 514.52 624.76ZM524.887 631V620.54H526.547V622.42C527.207 621.24 528.107 620.42 529.987 620.36V621.92C527.887 622.02 526.547 622.68 526.547 625.26V631H524.887ZM536.394 631.18C533.434 631.18 531.334 629.1 531.334 625.88V625.72C531.334 622.56 533.354 620.36 536.234 620.36C538.654 620.36 540.934 621.82 540.934 625.56V626.1H533.054C533.134 628.48 534.274 629.8 536.414 629.8C538.034 629.8 538.974 629.2 539.194 627.98H540.854C540.494 630.08 538.754 631.18 536.394 631.18ZM533.114 624.76H539.234C539.074 622.6 537.954 621.74 536.234 621.74C534.534 621.74 533.394 622.9 533.114 624.76Z" fill="#333333"/>
<path d="M540 644H176" stroke="#BEBAAC"/>
<g filter="url(#filter0_d_3_241)">
<path fillRule="evenodd" clip-rule="evenodd" d="M244.538 180.564C246.985 180.319 249.662 180.951 251.284 182.847C252.845 184.669 252.317 187.324 252.384 189.741C252.459 192.284 253.299 195.118 251.678 197.044C250.004 199.037 247.104 199.067 244.538 199.074C241.965 199.074 239.31 198.806 237.377 197.066C235.332 195.229 233.815 192.5 234.157 189.741C234.476 187.153 237.057 185.77 238.983 184.059C240.694 182.55 242.285 180.787 244.538 180.564Z" fill="#FFC4BC"/>
<path fillRule="evenodd" clip-rule="evenodd" d="M257.527 158.302C259.973 158.057 262.651 158.689 264.272 160.585C265.834 162.407 265.306 165.062 265.372 167.479C265.439 170.022 266.287 172.856 264.666 174.782C262.993 176.775 260.092 176.805 257.527 176.812C254.954 176.812 252.299 176.545 250.365 174.804C248.32 172.967 246.803 170.238 247.145 167.479C247.465 164.891 250.045 163.5 251.971 161.797C253.682 160.288 255.273 158.525 257.527 158.302Z" fill="#FFC4BC"/>
<path fillRule="evenodd" clip-rule="evenodd" d="M244.538 136.028C246.985 135.783 249.662 136.415 251.284 138.311C252.845 140.133 252.317 142.788 252.384 145.205C252.459 147.749 253.299 150.582 251.678 152.508C250.004 154.501 247.104 154.531 244.538 154.538C241.965 154.538 239.31 154.271 237.377 152.53C235.332 150.694 233.815 147.964 234.157 145.205C234.476 142.617 237.057 141.234 238.983 139.524C240.694 138.014 242.285 136.251 244.538 136.028Z" fill="#FFC4BC"/>
<path fillRule="evenodd" clip-rule="evenodd" d="M266.804 136.028C269.251 135.783 271.928 136.415 273.549 138.311C275.111 140.133 274.583 142.788 274.65 145.205C274.724 147.749 275.565 150.582 273.943 152.508C272.27 154.501 269.37 154.531 266.804 154.538C264.231 154.538 261.576 154.271 259.642 152.53C257.597 150.694 256.08 147.964 256.422 145.205C256.742 142.617 259.323 141.234 261.249 139.524C262.959 138.014 264.551 136.251 266.804 136.028Z" fill="#FFC4BC"/>
<path fillRule="evenodd" clip-rule="evenodd" d="M279.79 113.755C282.237 113.509 284.914 114.141 286.535 116.038C288.097 117.86 287.569 120.515 287.636 122.931C287.703 125.475 288.551 128.308 286.93 130.234C285.256 132.227 282.356 132.257 279.79 132.265C277.217 132.265 274.562 131.997 272.629 130.257C270.584 128.42 269.067 125.69 269.409 122.931C269.728 120.343 272.309 118.96 274.235 117.25C275.946 115.74 277.537 113.978 279.79 113.755Z" fill="#FFC4BC"/>
<path fillRule="evenodd" clip-rule="evenodd" d="M346.592 113.755C349.039 113.509 351.716 114.141 353.337 116.038C354.899 117.86 354.371 120.515 354.438 122.931C354.505 125.475 355.353 128.308 353.731 130.234C352.058 132.227 349.158 132.257 346.592 132.265C344.019 132.265 341.364 131.997 339.431 130.257C337.385 128.42 335.868 125.69 336.21 122.931C336.53 120.343 339.111 118.96 341.037 117.25C342.747 115.74 344.339 113.978 346.592 113.755Z" fill="#FFC4BC"/>
<path fillRule="evenodd" clip-rule="evenodd" d="M289.069 136.028C291.515 135.783 294.193 136.415 295.814 138.311C297.376 140.133 296.848 142.788 296.914 145.205C296.989 147.749 297.829 150.582 296.208 152.508C294.535 154.501 291.634 154.531 289.069 154.538C286.496 154.538 283.841 154.271 281.907 152.53C279.862 150.694 278.345 147.964 278.687 145.205C279.007 142.617 281.587 141.234 283.513 139.524C285.224 138.014 286.815 136.251 289.069 136.028Z" fill="#FFC4BC"/>
<path fillRule="evenodd" clip-rule="evenodd" d="M302.062 113.755C304.509 113.509 307.186 114.141 308.807 116.038C310.369 117.86 309.841 120.515 309.908 122.931C309.975 125.475 310.822 128.308 309.201 130.234C307.528 132.227 304.628 132.257 302.062 132.265C299.489 132.265 296.834 131.997 294.9 130.257C292.855 128.42 291.338 125.691 291.68 122.931C292 120.343 294.58 118.96 296.507 117.25C298.217 115.74 299.809 113.978 302.062 113.755Z" fill="#FFC4BC"/>
<path fillRule="evenodd" clip-rule="evenodd" d="M368.866 113.755C371.312 113.509 373.989 114.141 375.611 116.038C377.172 117.86 376.644 120.515 376.711 122.931C376.778 125.475 377.626 128.308 376.005 130.234C374.332 132.227 371.431 132.257 368.866 132.265C366.292 132.265 363.638 131.997 361.704 130.257C359.659 128.42 358.142 125.69 358.484 122.931C358.804 120.343 361.384 118.96 363.31 117.25C365.021 115.74 366.612 113.978 368.866 113.755Z" fill="#FFC4BC"/>
<path fillRule="evenodd" clip-rule="evenodd" d="M357.725 91.4936C360.172 91.2482 362.849 91.8803 364.47 93.7766C366.032 95.5987 365.504 98.2536 365.571 100.671C365.638 103.214 366.485 106.047 364.864 107.973C363.191 109.966 360.291 109.996 357.725 110.004C355.152 110.004 352.497 109.736 350.563 107.996C348.518 106.159 347.001 103.43 347.343 100.671C347.663 98.0825 350.244 96.6993 352.17 94.9888C353.88 93.4792 355.472 91.7167 357.725 91.4936Z" fill="#FFC4BC"/>
<path fillRule="evenodd" clip-rule="evenodd" d="M376.286 69.2197C378.733 68.9743 381.41 69.6064 383.032 71.5028C384.593 73.3248 384.065 75.9797 384.132 78.3967C384.199 80.9401 385.047 83.7735 383.426 85.6996C381.752 87.6926 378.852 87.7224 376.286 87.7298C373.713 87.7298 371.058 87.4621 369.125 85.7219C367.08 83.885 365.563 81.1557 365.905 78.3967C366.225 75.8087 368.805 74.4255 370.731 72.715C372.442 71.2053 374.033 69.4428 376.286 69.2197Z" fill="#FFC4BC"/>
<path fillRule="evenodd" clip-rule="evenodd" d="M379.998 91.4936C382.445 91.2482 385.122 91.8803 386.743 93.7766C388.305 95.5987 387.777 98.2536 387.844 100.671C387.911 103.214 388.759 106.047 387.138 107.973C385.464 109.966 382.564 109.996 379.998 110.004C377.425 110.004 374.77 109.736 372.837 107.996C370.792 106.159 369.275 103.43 369.617 100.671C369.936 98.0825 372.517 96.6993 374.443 94.9888C376.154 93.4792 377.745 91.7167 379.998 91.4936Z" fill="#FFC4BC"/>
<path fillRule="evenodd" clip-rule="evenodd" d="M402.276 91.4936C404.722 91.2482 407.4 91.8803 409.021 93.7766C410.583 95.5987 410.055 98.2536 410.121 100.671C410.188 103.214 411.036 106.047 409.415 107.973C407.742 109.966 404.841 109.996 402.276 110.004C399.703 110.004 397.048 109.736 395.114 107.996C393.069 106.159 391.552 103.43 391.894 100.671C392.214 98.0825 394.794 96.6993 396.72 94.9888C398.431 93.4792 400.022 91.7167 402.276 91.4936Z" fill="#FFC4BC"/>
<path fillRule="evenodd" clip-rule="evenodd" d="M424.536 91.4936C426.983 91.2482 429.66 91.8803 431.282 93.7766C432.843 95.5987 432.315 98.2536 432.382 100.671C432.449 103.214 433.297 106.047 431.676 107.973C430.002 109.966 427.102 109.996 424.536 110.004C421.963 110.004 419.308 109.736 417.375 107.996C415.33 106.159 413.813 103.43 414.155 100.671C414.475 98.0825 417.055 96.6993 418.981 94.9888C420.692 93.4792 422.283 91.7167 424.536 91.4936Z" fill="#FFC4BC"/>
<path fillRule="evenodd" clip-rule="evenodd" d="M415.257 67.3708C417.704 67.1254 420.381 67.7575 422.002 69.6539C423.564 71.4759 423.036 74.1308 423.103 76.5478C423.177 79.0911 424.018 81.9245 422.396 83.8507C420.723 85.8437 417.823 85.8734 415.257 85.8809C412.684 85.8809 410.029 85.6132 408.096 83.873C406.05 82.0361 404.533 79.3068 404.875 76.5478C405.195 73.9598 407.776 72.5765 409.702 70.8661C411.412 69.3564 413.004 67.5939 415.257 67.3708Z" fill="#FFC4BC"/>
<path fillRule="evenodd" clip-rule="evenodd" d="M413.405 113.755C415.851 113.509 418.529 114.141 420.15 116.038C421.711 117.86 421.183 120.515 421.25 122.931C421.317 125.475 422.165 128.308 420.544 130.234C418.871 132.227 415.97 132.257 413.405 132.265C410.832 132.265 408.177 131.997 406.243 130.257C404.198 128.42 402.681 125.691 403.023 122.931C403.343 120.343 405.923 118.96 407.849 117.25C409.56 115.74 411.151 113.978 413.405 113.755Z" fill="#FFC4BC"/>
<path fillRule="evenodd" clip-rule="evenodd" d="M311.339 136.028C313.786 135.783 316.463 136.415 318.084 138.311C319.646 140.133 319.118 142.788 319.185 145.205C319.259 147.749 320.1 150.582 318.478 152.508C316.805 154.501 313.905 154.531 311.339 154.538C308.766 154.538 306.111 154.271 304.178 152.53C302.133 150.694 300.615 147.964 300.957 145.205C301.277 142.617 303.858 141.234 305.784 139.524C307.494 138.014 309.086 136.251 311.339 136.028Z" fill="#FFC4BC"/>
<path fillRule="evenodd" clip-rule="evenodd" d="M324.334 113.755C326.781 113.509 329.458 114.141 331.079 116.038C332.641 117.86 332.113 120.515 332.18 122.931C332.247 125.475 333.095 128.308 331.474 130.234C329.8 132.227 326.9 132.257 324.334 132.265C321.761 132.265 319.106 131.997 317.173 130.257C315.128 128.42 313.611 125.69 313.953 122.931C314.272 120.343 316.853 118.96 318.779 117.25C320.49 115.74 322.081 113.978 324.334 113.755Z" fill="#FFC4BC"/>
<path fillRule="evenodd" clip-rule="evenodd" d="M391.128 113.755C393.575 113.509 396.252 114.141 397.873 116.038C399.435 117.86 398.907 120.515 398.974 122.931C399.041 125.475 399.889 128.308 398.267 130.234C396.594 132.227 393.694 132.257 391.128 132.265C388.555 132.265 385.9 131.997 383.967 130.257C381.922 128.42 380.404 125.69 380.747 122.931C381.066 120.343 383.647 118.96 385.573 117.25C387.283 115.74 388.875 113.978 391.128 113.755Z" fill="#FFC4BC"/>
<path fillRule="evenodd" clip-rule="evenodd" d="M435.662 113.755C438.109 113.509 440.786 114.141 442.408 116.038C443.969 117.86 443.441 120.515 443.508 122.931C443.575 125.475 444.423 128.308 442.802 130.234C441.128 132.227 438.228 132.257 435.662 132.265C433.089 132.265 430.434 131.997 428.501 130.257C426.456 128.42 424.939 125.691 425.281 122.931C425.601 120.343 428.181 118.96 430.107 117.25C431.818 115.74 433.409 113.978 435.662 113.755Z" fill="#FFC4BC"/>
<path fillRule="evenodd" clip-rule="evenodd" d="M446.8 91.4936C449.247 91.2482 451.924 91.8803 453.545 93.7766C455.107 95.5987 454.579 98.2536 454.646 100.671C454.713 103.214 455.561 106.047 453.939 107.973C452.266 109.966 449.366 109.996 446.8 110.004C444.227 110.004 441.572 109.736 439.638 107.996C437.593 106.159 436.076 103.43 436.418 100.671C436.738 98.0825 439.319 96.6993 441.245 94.9888C442.955 93.4792 444.547 91.7167 446.8 91.4936Z" fill="#FFC4BC"/>
<path fillRule="evenodd" clip-rule="evenodd" d="M469.07 89.6382C471.516 89.3928 474.194 90.0249 475.815 91.9213C477.376 93.7433 476.848 96.3982 476.915 98.8152C476.982 101.359 477.83 104.192 476.209 106.118C474.536 108.111 471.635 108.141 469.07 108.148C466.496 108.148 463.842 107.881 461.908 106.14C459.863 104.303 458.346 101.574 458.688 98.8152C459.008 96.2272 461.588 94.8439 463.514 93.1335C465.225 91.6238 466.816 89.8613 469.07 89.6382Z" fill="#FFC4BC"/>
<path fillRule="evenodd" clip-rule="evenodd" d="M491.343 89.6382C493.79 89.3928 496.467 90.0249 498.088 91.9213C499.65 93.7433 499.122 96.3982 499.189 98.8152C499.256 101.359 500.104 104.192 498.482 106.118C496.809 108.111 493.909 108.141 491.343 108.148C488.77 108.148 486.115 107.881 484.182 106.14C482.136 104.303 480.619 101.574 480.961 98.8152C481.281 96.2272 483.862 94.8439 485.788 93.1335C487.498 91.6238 489.09 89.8613 491.343 89.6382Z" fill="#FFC4BC"/>
<path fillRule="evenodd" clip-rule="evenodd" d="M513.605 71.0807C516.052 70.8353 518.729 71.4674 520.35 73.3638C521.912 75.1858 521.384 77.8407 521.451 80.2577C521.517 82.801 522.365 85.6344 520.744 87.5605C519.071 89.5536 516.171 89.5833 513.605 89.5908C511.032 89.5908 508.377 89.3231 506.443 87.5829C504.398 85.746 502.881 83.0167 503.223 80.2577C503.543 77.6697 506.123 76.2864 508.05 74.576C509.76 73.0663 511.351 71.3038 513.605 71.0807Z" fill="#FFC4BC"/>
<path fillRule="evenodd" clip-rule="evenodd" d="M535.873 78.5013C538.32 78.2559 540.997 78.888 542.619 80.7844C544.18 82.6064 543.652 85.2613 543.719 87.6782C543.786 90.2216 544.634 93.055 543.013 94.9811C541.339 96.9742 538.439 97.0039 535.873 97.0114C533.3 97.0114 530.645 96.7436 528.712 95.0034C526.667 93.1666 525.15 90.4373 525.492 87.6782C525.811 85.0903 528.392 83.707 530.318 81.9966C532.029 80.4869 533.62 78.7244 535.873 78.5013Z" fill="#FFC4BC"/>
<path fillRule="evenodd" clip-rule="evenodd" d="M513.605 95.2035C516.052 94.958 518.729 95.5902 520.35 97.4865C521.912 99.3085 521.384 101.963 521.451 104.38C521.517 106.924 522.365 109.757 520.744 111.683C519.071 113.676 516.171 113.706 513.605 113.714C511.032 113.714 508.377 113.446 506.443 111.706C504.398 109.869 502.881 107.139 503.223 104.38C503.543 101.792 506.123 100.409 508.05 98.6987C509.76 97.1891 511.351 95.4266 513.605 95.2035Z" fill="#FFC4BC"/>
<path fillRule="evenodd" clip-rule="evenodd" d="M535.873 117.465C538.32 117.22 540.997 117.852 542.619 119.748C544.18 121.57 543.652 124.225 543.719 126.642C543.786 129.186 544.634 132.019 543.013 133.945C541.339 135.938 538.439 135.968 535.873 135.975C533.3 135.975 530.645 135.708 528.712 133.967C526.667 132.13 525.15 129.401 525.492 126.642C525.811 124.054 528.392 122.671 530.318 120.96C532.029 119.451 533.62 117.688 535.873 117.465Z" fill="#FFC4BC"/>
<path fillRule="evenodd" clip-rule="evenodd" d="M485.773 67.3708C488.219 67.1254 490.897 67.7575 492.518 69.6539C494.079 71.4759 493.551 74.1308 493.618 76.5478C493.685 79.0911 494.533 81.9245 492.912 83.8507C491.239 85.8437 488.338 85.8734 485.773 85.8809C483.199 85.8809 480.545 85.6132 478.611 83.873C476.566 82.0361 475.049 79.3068 475.391 76.5478C475.711 73.9598 478.291 72.5765 480.217 70.8661C481.928 69.3564 483.519 67.5939 485.773 67.3708Z" fill="#FFC4BC"/>
<path fillRule="evenodd" clip-rule="evenodd" d="M456.083 69.2196C458.53 68.9742 461.207 69.6064 462.828 71.5027C464.39 73.3247 463.862 75.9796 463.929 78.3966C463.996 80.94 464.844 83.7734 463.223 85.6995C461.549 87.6925 458.649 87.7223 456.083 87.7297C453.51 87.7297 450.855 87.462 448.922 85.7218C446.877 83.8849 445.36 81.1556 445.702 78.3966C446.021 75.8086 448.602 74.4254 450.528 72.7149C452.239 71.2053 453.83 69.4427 456.083 69.2196Z" fill="#FFC4BC"/>
<path fillRule="evenodd" clip-rule="evenodd" d="M426.39 136.028C428.837 135.783 431.514 136.415 433.135 138.311C434.697 140.133 434.169 142.788 434.236 145.205C434.303 147.749 435.15 150.582 433.529 152.508C431.856 154.501 428.956 154.531 426.39 154.538C423.817 154.538 421.162 154.271 419.228 152.53C417.183 150.694 415.666 147.964 416.008 145.205C416.328 142.617 418.909 141.234 420.835 139.524C422.545 138.014 424.137 136.251 426.39 136.028Z" fill="#FFC4BC"/>
<path fillRule="evenodd" clip-rule="evenodd" d="M404.124 136.028C406.571 135.783 409.248 136.415 410.869 138.311C412.431 140.133 411.903 142.788 411.97 145.205C412.037 147.749 412.885 150.582 411.264 152.508C409.59 154.501 406.69 154.531 404.124 154.538C401.551 154.538 398.896 154.271 396.963 152.53C394.918 150.694 393.401 147.964 393.743 145.205C394.062 142.617 396.643 141.234 398.569 139.524C400.28 138.014 401.871 136.251 404.124 136.028Z" fill="#FFC4BC"/>
<path fillRule="evenodd" clip-rule="evenodd" d="M381.85 136.028C384.297 135.783 386.974 136.415 388.595 138.311C390.157 140.133 389.629 142.788 389.696 145.205C389.77 147.749 390.61 150.582 388.989 152.508C387.316 154.501 384.416 154.531 381.85 154.538C379.277 154.538 376.622 154.271 374.688 152.53C372.643 150.694 371.126 147.964 371.468 145.205C371.788 142.617 374.369 141.234 376.295 139.524C378.005 138.014 379.597 136.251 381.85 136.028Z" fill="#FFC4BC"/>
<path fillRule="evenodd" clip-rule="evenodd" d="M279.79 158.302C282.237 158.057 284.914 158.689 286.535 160.585C288.097 162.407 287.569 165.062 287.636 167.479C287.703 170.022 288.551 172.856 286.93 174.782C285.256 176.775 282.356 176.805 279.79 176.812C277.217 176.812 274.562 176.545 272.629 174.804C270.584 172.967 269.067 170.238 269.409 167.479C269.728 164.891 272.309 163.5 274.235 161.797C275.946 160.288 277.537 158.525 279.79 158.302Z" fill="#FFC4BC"/>
<path fillRule="evenodd" clip-rule="evenodd" d="M222.273 180.564C224.719 180.319 227.397 180.951 229.018 182.847C230.58 184.669 230.052 187.324 230.119 189.741C230.185 192.284 231.033 195.118 229.412 197.044C227.739 199.037 224.838 199.067 222.273 199.074C219.7 199.074 217.045 198.806 215.111 197.066C213.066 195.229 211.549 192.5 211.891 189.741C212.211 187.153 214.791 185.77 216.718 184.059C218.428 182.55 220.019 180.787 222.273 180.564Z" fill="#FFC4BC"/>
<path fillRule="evenodd" clip-rule="evenodd" d="M199.999 158.302C202.446 158.057 205.123 158.689 206.744 160.585C208.306 162.407 207.778 165.062 207.845 167.479C207.912 170.022 208.76 172.856 207.139 174.782C205.465 176.775 202.565 176.805 199.999 176.812C197.426 176.812 194.771 176.545 192.838 174.804C190.793 172.967 189.276 170.238 189.618 167.479C189.937 164.891 192.518 163.5 194.444 161.797C196.155 160.288 197.746 158.525 199.999 158.302Z" fill="#FFC4BC"/>
<path fillRule="evenodd" clip-rule="evenodd" d="M222.273 143.449C224.719 143.204 227.397 143.836 229.018 145.732C230.58 147.554 230.052 150.209 230.119 152.626C230.185 155.169 231.033 158.003 229.412 159.929C227.739 161.922 224.838 161.952 222.273 161.959C219.7 161.959 217.045 161.691 215.111 159.951C213.066 158.114 211.549 155.385 211.891 152.626C212.211 150.038 214.791 148.655 216.718 146.944C218.428 145.435 220.019 143.672 222.273 143.449Z" fill="#FFC4BC"/>
<path fillRule="evenodd" clip-rule="evenodd" d="M235.258 202.831C237.705 202.585 240.382 203.217 242.003 205.114C243.565 206.936 243.037 209.591 243.104 212.007C243.171 214.551 244.019 217.384 242.397 219.31C240.724 221.303 237.824 221.333 235.258 221.341C232.685 221.341 230.03 221.073 228.097 219.333C226.051 217.496 224.534 214.766 224.876 212.007C225.196 209.419 227.777 208.029 229.703 206.326C231.413 204.816 233.005 203.054 235.258 202.831Z" fill="#FFC4BC"/>
<path fillRule="evenodd" clip-rule="evenodd" d="M212.99 202.831C215.436 202.585 218.113 203.217 219.735 205.114C221.296 206.936 220.768 209.591 220.835 212.007C220.902 214.551 221.75 217.384 220.129 219.31C218.456 221.303 215.555 221.333 212.99 221.341C210.416 221.341 207.762 221.073 205.828 219.333C203.783 217.496 202.266 214.766 202.608 212.007C202.928 209.419 205.508 208.029 207.434 206.326C209.145 204.816 210.736 203.054 212.99 202.831Z" fill="#FFC4BC"/>
<path fillRule="evenodd" clip-rule="evenodd" d="M225.974 225.099C228.421 224.853 231.098 225.485 232.719 227.382C234.281 229.204 233.753 231.859 233.82 234.276C233.894 236.819 234.734 239.652 233.113 241.579C231.44 243.572 228.54 243.601 225.974 243.609C223.401 243.609 220.746 243.341 218.812 241.601C216.767 239.764 215.25 237.035 215.592 234.276C215.912 231.688 218.493 230.304 220.419 228.594C222.129 227.084 223.721 225.322 225.974 225.099Z" fill="#FFC4BC"/>
<path fillRule="evenodd" clip-rule="evenodd" d="M203.709 225.099C206.156 224.853 208.833 225.485 210.454 227.382C212.016 229.204 211.488 231.859 211.555 234.276C211.622 236.819 212.47 239.652 210.849 241.579C209.175 243.572 206.275 243.601 203.709 243.609C201.136 243.609 198.481 243.341 196.548 241.601C194.503 239.764 192.986 237.035 193.328 234.276C193.647 231.688 196.228 230.304 198.154 228.594C199.865 227.084 201.456 225.322 203.709 225.099Z" fill="#FFC4BC"/>
<path fillRule="evenodd" clip-rule="evenodd" d="M216.697 247.373C219.143 247.127 221.821 247.759 223.442 249.656C225.003 251.478 224.475 254.133 224.542 256.549C224.617 259.093 225.457 261.926 223.836 263.852C222.163 265.845 219.262 265.875 216.697 265.883C214.123 265.883 211.469 265.615 209.535 263.875C207.49 262.038 205.973 259.309 206.315 256.549C206.635 253.962 209.215 252.578 211.141 250.868C212.852 249.358 214.443 247.596 216.697 247.373Z" fill="#FFC4BC"/>
<path fillRule="evenodd" clip-rule="evenodd" d="M194.427 247.373C196.874 247.127 199.551 247.759 201.172 249.656C202.734 251.478 202.206 254.133 202.273 256.549C202.347 259.093 203.188 261.926 201.566 263.852C199.893 265.845 196.993 265.875 194.427 265.883C191.854 265.883 189.199 265.615 187.265 263.875C185.22 262.038 183.703 259.309 184.045 256.549C184.365 253.962 186.946 252.578 188.872 250.868C190.582 249.358 192.174 247.596 194.427 247.373Z" fill="#FFC4BC"/>
<path fillRule="evenodd" clip-rule="evenodd" d="M172.166 247.373C174.613 247.127 177.29 247.759 178.911 249.656C180.473 251.478 179.945 254.133 180.012 256.549C180.086 259.093 180.927 261.926 179.306 263.852C177.632 265.845 174.732 265.875 172.166 265.883C169.593 265.883 166.938 265.615 165.005 263.875C162.96 262.038 161.443 259.309 161.785 256.549C162.104 253.962 164.685 252.578 166.611 250.868C168.322 249.358 169.913 247.596 172.166 247.373Z" fill="#FFC4BC"/>
<path fillRule="evenodd" clip-rule="evenodd" d="M207.421 269.634C209.868 269.388 212.545 270.02 214.166 271.917C215.728 273.739 215.2 276.394 215.267 278.81C215.334 281.354 216.182 284.187 214.56 286.113C212.887 288.106 209.987 288.136 207.421 288.144C204.848 288.144 202.193 287.876 200.26 286.136C198.215 284.299 196.697 281.57 197.04 278.81C197.359 276.222 199.94 274.839 201.866 273.129C203.576 271.619 205.168 269.857 207.421 269.634Z" fill="#FFC4BC"/>
<path fillRule="evenodd" clip-rule="evenodd" d="M185.158 269.634C187.604 269.388 190.281 270.02 191.903 271.917C193.464 273.739 192.936 276.394 193.003 278.81C193.07 281.354 193.918 284.187 192.297 286.113C190.624 288.106 187.723 288.136 185.158 288.144C182.584 288.144 179.93 287.876 177.996 286.136C175.951 284.299 174.434 281.57 174.776 278.81C175.096 276.222 177.676 274.839 179.602 273.129C181.313 271.619 182.904 269.857 185.158 269.634Z" fill="#FFC4BC"/>
<path fillRule="evenodd" clip-rule="evenodd" d="M162.883 269.634C165.33 269.388 168.007 270.02 169.628 271.917C171.19 273.739 170.662 276.394 170.729 278.81C170.796 281.354 171.644 284.187 170.022 286.113C168.349 288.106 165.449 288.136 162.883 288.144C160.31 288.144 157.655 287.876 155.722 286.136C153.676 284.299 152.159 281.57 152.501 278.81C152.821 276.222 155.402 274.839 157.328 273.129C159.038 271.619 160.63 269.857 162.883 269.634Z" fill="#FFC4BC"/>
<path fillRule="evenodd" clip-rule="evenodd" d="M198.148 291.902C200.594 291.656 203.272 292.288 204.893 294.185C206.455 296.007 205.927 298.662 205.994 301.079C206.06 303.622 206.908 306.455 205.287 308.382C203.614 310.375 200.713 310.404 198.148 310.412C195.575 310.412 192.92 310.144 190.986 308.404C188.941 306.567 187.424 303.838 187.766 301.079C188.086 298.491 190.666 297.1 192.593 295.397C194.303 293.887 195.894 292.125 198.148 291.902Z" fill="#FFC4BC"/>
<path fillRule="evenodd" clip-rule="evenodd" d="M175.876 291.902C178.323 291.656 181 292.288 182.621 294.185C184.183 296.007 183.655 298.662 183.722 301.079C183.789 303.622 184.637 306.455 183.016 308.382C181.342 310.375 178.442 310.404 175.876 310.412C173.303 310.412 170.648 310.144 168.715 308.404C166.67 306.567 165.152 303.838 165.495 301.079C165.814 298.491 168.395 297.1 170.321 295.397C172.031 293.887 173.623 292.125 175.876 291.902Z" fill="#FFC4BC"/>
<path fillRule="evenodd" clip-rule="evenodd" d="M153.61 291.902C156.056 291.656 158.734 292.288 160.355 294.185C161.917 296.007 161.389 298.662 161.455 301.079C161.522 303.622 162.37 306.455 160.749 308.382C159.076 310.375 156.175 310.404 153.61 310.412C151.037 310.412 148.382 310.144 146.448 308.404C144.403 306.567 142.886 303.838 143.228 301.079C143.548 298.491 146.128 297.1 148.054 295.397C149.765 293.887 151.356 292.125 153.61 291.902Z" fill="#FFC4BC"/>
<path fillRule="evenodd" clip-rule="evenodd" d="M188.867 314.175C191.313 313.929 193.99 314.561 195.612 316.458C197.173 318.28 196.645 320.935 196.712 323.352C196.787 325.895 197.627 328.728 196.006 330.655C194.333 332.648 191.432 332.677 188.867 332.685C186.293 332.685 183.638 332.417 181.705 330.677C179.66 328.84 178.143 326.111 178.485 323.352C178.805 320.764 181.385 319.38 183.311 317.67C185.022 316.16 186.613 314.398 188.867 314.175Z" fill="#FFC4BC"/>
<path fillRule="evenodd" clip-rule="evenodd" d="M166.595 314.175C169.042 313.929 171.719 314.561 173.34 316.458C174.902 318.28 174.374 320.935 174.441 323.352C174.508 325.895 175.356 328.728 173.734 330.655C172.061 332.648 169.161 332.677 166.595 332.685C164.022 332.685 161.367 332.417 159.433 330.677C157.388 328.84 155.871 326.111 156.213 323.352C156.533 320.764 159.114 319.38 161.04 317.67C162.75 316.16 164.342 314.398 166.595 314.175Z" fill="#FFC4BC"/>
<path fillRule="evenodd" clip-rule="evenodd" d="M144.329 314.175C146.776 313.929 149.453 314.561 151.075 316.458C152.636 318.28 152.108 320.935 152.175 323.352C152.25 325.895 153.09 328.728 151.469 330.655C149.795 332.648 146.895 332.677 144.329 332.685C141.756 332.685 139.101 332.417 137.168 330.677C135.123 328.84 133.606 326.111 133.948 323.352C134.267 320.764 136.848 319.38 138.774 317.67C140.485 316.16 142.076 314.398 144.329 314.175Z" fill="#FFC4BC"/>
<path fillRule="evenodd" clip-rule="evenodd" d="M122.063 314.175C124.51 313.929 127.187 314.561 128.808 316.458C130.37 318.28 129.842 320.935 129.909 323.352C129.983 325.895 130.823 328.728 129.202 330.655C127.529 332.648 124.628 332.677 122.063 332.685C119.49 332.685 116.835 332.417 114.901 330.677C112.856 328.84 111.339 326.111 111.681 323.352C112.001 320.764 114.581 319.38 116.508 317.67C118.218 316.16 119.809 314.398 122.063 314.175Z" fill="#FFC4BC"/>
<path fillRule="evenodd" clip-rule="evenodd" d="M157.32 336.443C159.766 336.198 162.444 336.83 164.065 338.726C165.626 340.548 165.098 343.203 165.165 345.62C165.232 348.163 166.08 350.997 164.459 352.923C162.786 354.916 159.885 354.946 157.32 354.953C154.747 354.953 152.092 354.685 150.158 352.945C148.113 351.108 146.596 348.379 146.938 345.62C147.258 343.032 149.838 341.641 151.764 339.938C153.475 338.429 155.066 336.666 157.32 336.443Z" fill="#FFC4BC"/>
<path fillRule="evenodd" clip-rule="evenodd" d="M135.057 336.443C137.504 336.198 140.181 336.83 141.802 338.726C143.364 340.548 142.836 343.203 142.903 345.62C142.97 348.163 143.817 350.997 142.196 352.923C140.523 354.916 137.623 354.946 135.057 354.953C132.484 354.953 129.829 354.685 127.895 352.945C125.85 351.108 124.333 348.379 124.675 345.62C124.995 343.032 127.576 341.641 129.502 339.938C131.212 338.429 132.804 336.666 135.057 336.443Z" fill="#FFC4BC"/>
<path fillRule="evenodd" clip-rule="evenodd" d="M112.78 336.443C115.226 336.198 117.904 336.83 119.525 338.726C121.086 340.548 120.558 343.203 120.625 345.62C120.692 348.163 121.54 350.997 119.919 352.923C118.246 354.916 115.345 354.946 112.78 354.953C110.206 354.953 107.552 354.685 105.618 352.945C103.573 351.108 102.056 348.379 102.398 345.62C102.718 343.032 105.298 341.641 107.224 339.938C108.935 338.429 110.526 336.666 112.78 336.443Z" fill="#E61A6B"/>
<path fillRule="evenodd" clip-rule="evenodd" d="M90.5169 336.443C92.9636 336.198 95.6408 336.83 97.262 338.726C98.8238 340.548 98.2957 343.203 98.3627 345.62C98.4296 348.163 99.2774 350.997 97.6562 352.923C95.9829 354.916 93.0826 354.946 90.5169 354.953C87.9438 354.953 85.2889 354.685 83.3553 352.945C81.3102 351.108 79.7931 348.379 80.1352 345.62C80.455 343.032 83.0355 341.641 84.9617 339.938C86.6721 338.429 88.2636 336.666 90.5169 336.443Z" fill="#FFC4BC"/>
<path fillRule="evenodd" clip-rule="evenodd" d="M148.039 358.704C150.486 358.458 153.163 359.091 154.785 360.987C156.346 362.809 155.818 365.464 155.885 367.881C155.952 370.424 156.8 373.258 155.179 375.184C153.505 377.177 150.605 377.206 148.039 377.214C145.466 377.214 142.811 376.946 140.878 375.206C138.833 373.369 137.316 370.64 137.658 367.881C137.977 365.293 140.558 363.91 142.484 362.199C144.195 360.689 145.786 358.927 148.039 358.704Z" fill="#FFC4BC"/>
<path fillRule="evenodd" clip-rule="evenodd" d="M125.773 358.704C128.219 358.458 130.897 359.091 132.518 360.987C134.08 362.809 133.552 365.464 133.619 367.881C133.685 370.424 134.533 373.258 132.912 375.184C131.239 377.177 128.338 377.206 125.773 377.214C123.2 377.214 120.545 376.946 118.611 375.206C116.566 373.369 115.049 370.64 115.391 367.881C115.711 365.293 118.291 363.91 120.218 362.199C121.928 360.689 123.519 358.927 125.773 358.704Z" fill="#FFC4BC"/>
<path fillRule="evenodd" clip-rule="evenodd" d="M103.499 358.704C105.946 358.458 108.623 359.091 110.244 360.987C111.806 362.809 111.278 365.464 111.345 367.881C111.419 370.424 112.26 373.258 110.639 375.184C108.965 377.177 106.065 377.206 103.499 377.214C100.926 377.214 98.2713 376.946 96.3377 375.206C94.2926 373.369 92.7755 370.64 93.1176 367.881C93.4374 365.293 96.018 363.91 97.9441 362.199C99.6545 360.689 101.246 358.927 103.499 358.704Z" fill="#FFC4BC"/>
<path fillRule="evenodd" clip-rule="evenodd" d="M81.2327 358.704C83.6794 358.458 86.3566 359.091 87.9779 360.987C89.5396 362.809 89.0116 365.464 89.0785 367.881C89.1454 370.424 89.9932 373.258 88.372 375.184C86.6987 377.177 83.7984 377.206 81.2327 377.214C78.6596 377.214 76.0047 376.946 74.0711 375.206C72.026 373.369 70.5089 370.64 70.851 367.881C71.1708 365.293 73.7514 363.91 75.6775 362.199C77.3879 360.689 78.9794 358.927 81.2327 358.704Z" fill="#FFC4BC"/>
<path fillRule="evenodd" clip-rule="evenodd" d="M58.9671 358.704C61.4138 358.458 64.091 359.091 65.7122 360.987C67.274 362.809 66.7459 365.464 66.8129 367.881C66.8798 370.424 67.7276 373.258 66.1064 375.184C64.4331 377.177 61.5328 377.206 58.9671 377.214C56.394 377.214 53.7391 376.946 51.8055 375.206C49.7604 373.369 48.2433 370.64 48.5854 367.881C48.9052 365.293 51.4857 363.91 53.4119 362.199C55.1223 360.689 56.7138 358.927 58.9671 358.704Z" fill="#FFC4BC"/>
<path fillRule="evenodd" clip-rule="evenodd" d="M140.617 380.965C143.063 380.72 145.74 381.352 147.362 383.241C148.923 385.063 148.395 387.718 148.462 390.135C148.529 392.678 149.377 395.511 147.756 397.437C146.083 399.43 143.182 399.46 140.617 399.468C138.043 399.468 135.388 399.2 133.455 397.46C131.41 395.623 129.893 392.894 130.235 390.135C130.555 387.547 133.135 386.163 135.061 384.453C136.772 382.943 138.363 381.181 140.617 380.958V380.965Z" fill="#FFC4BC"/>
<path fillRule="evenodd" clip-rule="evenodd" d="M118.35 380.965C120.797 380.72 123.474 381.352 125.095 383.241C126.657 385.063 126.129 387.718 126.196 390.135C126.27 392.678 127.11 395.511 125.489 397.437C123.816 399.43 120.916 399.46 118.35 399.468C115.777 399.468 113.122 399.2 111.188 397.46C109.143 395.623 107.626 392.894 107.968 390.135C108.288 387.547 110.869 386.163 112.795 384.453C114.505 382.943 116.097 381.181 118.35 380.958V380.965Z" fill="#FFC4BC"/>
<path fillRule="evenodd" clip-rule="evenodd" d="M96.0872 380.965C98.5339 380.719 101.211 381.352 102.832 383.241C104.394 385.063 103.866 387.717 103.933 390.134C104 392.678 104.848 395.511 103.227 397.437C101.553 399.43 98.6529 399.46 96.0872 399.468C93.5141 399.468 90.8592 399.2 88.9256 397.46C86.8805 395.623 85.3634 392.893 85.7055 390.134C86.0253 387.546 88.6059 386.163 90.532 384.453C92.2424 382.943 93.8339 381.181 96.0872 380.957V380.965Z" fill="#FFC4BC"/>
<path fillRule="evenodd" clip-rule="evenodd" d="M73.8138 380.965C76.2605 380.719 78.9377 381.352 80.5589 383.241C82.1206 385.063 81.5926 387.717 81.6596 390.134C81.7265 392.678 82.5743 395.511 80.9531 397.437C79.2798 399.43 76.3795 399.46 73.8138 399.468C71.2407 399.468 68.5857 399.2 66.6522 397.46C64.6071 395.623 63.09 392.893 63.4321 390.134C63.7519 387.546 66.3324 386.163 68.2585 384.453C69.969 382.943 71.5605 381.181 73.8138 380.957V380.965Z" fill="#FFC4BC"/>
<path fillRule="evenodd" clip-rule="evenodd" d="M51.5462 380.965C53.9929 380.719 56.6701 381.352 58.2913 383.241C59.8531 385.063 59.325 387.717 59.392 390.134C59.4663 392.678 60.3067 395.511 58.6855 397.437C57.0122 399.43 54.1119 399.46 51.5462 399.468C48.9731 399.468 46.3182 399.2 44.3846 397.46C42.3395 395.623 40.8224 392.893 41.1645 390.134C41.4843 387.546 44.0648 386.163 45.991 384.453C47.7014 382.943 49.2929 381.181 51.5462 380.957V380.965Z" fill="#FFC4BC"/>
<path fillRule="evenodd" clip-rule="evenodd" d="M135.057 403.239C137.504 402.993 140.181 403.625 141.802 405.522C143.364 407.344 142.836 409.999 142.903 412.416C142.97 414.959 143.817 417.792 142.196 419.718C140.523 421.712 137.623 421.741 135.057 421.749C132.484 421.749 129.829 421.481 127.895 419.741C125.85 417.904 124.333 415.175 124.675 412.416C124.995 409.828 127.576 408.444 129.502 406.734C131.212 405.224 132.804 403.462 135.057 403.239Z" fill="#FFC4BC"/>
<path fillRule="evenodd" clip-rule="evenodd" d="M112.78 403.239C115.226 402.993 117.904 403.625 119.525 405.522C121.086 407.344 120.558 409.999 120.625 412.416C120.692 414.959 121.54 417.792 119.919 419.718C118.246 421.712 115.345 421.741 112.78 421.749C110.206 421.749 107.552 421.481 105.618 419.741C103.573 417.904 102.056 415.175 102.398 412.416C102.718 409.828 105.298 408.444 107.224 406.734C108.935 405.224 110.526 403.462 112.78 403.239Z" fill="#FFC4BC"/>
<path fillRule="evenodd" clip-rule="evenodd" d="M90.5169 403.239C92.9636 402.993 95.6408 403.625 97.262 405.522C98.8238 407.344 98.2957 409.999 98.3627 412.416C98.4296 414.959 99.2774 417.792 97.6562 419.718C95.9829 421.712 93.0826 421.741 90.5169 421.749C87.9438 421.749 85.2889 421.481 83.3553 419.741C81.3102 417.904 79.7931 415.175 80.1352 412.416C80.455 409.828 83.0355 408.444 84.9617 406.734C86.6721 405.224 88.2636 403.462 90.5169 403.239Z" fill="#FFC4BC"/>
<path fillRule="evenodd" clip-rule="evenodd" d="M45.9769 403.239C48.4236 402.993 51.1008 403.625 52.722 405.522C54.2837 407.344 53.7557 409.999 53.8226 412.416C53.897 414.959 54.7374 417.792 53.1162 419.718C51.4429 421.712 48.5426 421.741 45.9769 421.749C43.4038 421.749 40.7488 421.481 38.8153 419.741C36.7702 417.904 35.2531 415.175 35.5952 412.416C35.915 409.828 38.4955 408.444 40.4216 406.734C42.1321 405.224 43.7235 403.462 45.9769 403.239Z" fill="#FFC4BC"/>
<path fillRule="evenodd" clip-rule="evenodd" d="M68.2484 403.239C70.695 402.993 73.3723 403.625 74.9935 405.522C76.5552 407.344 76.0272 409.999 76.0941 412.416C76.1611 414.959 77.0088 417.792 75.3876 419.718C73.7144 421.712 70.814 421.741 68.2484 421.749C65.6752 421.749 63.0203 421.481 61.0868 419.741C59.0417 417.904 57.5246 415.175 57.8667 412.416C58.1864 409.828 60.767 408.444 62.6931 406.734C64.4036 405.224 65.995 403.462 68.2484 403.239Z" fill="#FFC4BC"/>
<path fillRule="evenodd" clip-rule="evenodd" d="M23.7132 403.239C26.1599 402.993 28.8371 403.625 30.4583 405.522C32.0201 407.344 31.492 409.999 31.559 412.416C31.6333 414.959 32.4737 417.792 30.8525 419.718C29.1792 421.712 26.2789 421.741 23.7132 421.749C21.1401 421.749 18.4852 421.481 16.5516 419.741C14.5065 417.904 12.9894 415.175 13.3315 412.416C13.6513 409.828 16.2318 408.444 18.158 406.734C19.8684 405.224 21.4599 403.462 23.7132 403.239Z" fill="#FFC4BC"/>
<path fillRule="evenodd" clip-rule="evenodd" d="M29.2816 380.965C31.7283 380.719 34.4055 381.352 36.0267 383.241C37.5884 385.063 37.0604 387.717 37.1273 390.134C37.2017 392.678 38.0421 395.511 36.4208 397.437C34.7476 399.43 31.8472 399.46 29.2816 399.468C26.7084 399.468 24.0535 399.2 22.12 397.46C20.0749 395.623 18.5578 392.893 18.8999 390.134C19.2196 387.546 21.8002 386.163 23.7263 384.453C25.4368 382.943 27.0282 381.181 29.2816 380.957V380.965Z" fill="#FFC4BC"/>
<path fillRule="evenodd" clip-rule="evenodd" d="M157.32 412.52C159.766 412.275 162.444 412.907 164.065 414.803C165.626 416.625 165.098 419.28 165.165 421.697C165.232 424.241 166.08 427.074 164.459 429C162.786 430.993 159.885 431.023 157.32 431.03C154.747 431.03 152.092 430.763 150.158 429.022C148.113 427.186 146.596 424.456 146.938 421.697C147.258 419.109 149.838 417.719 151.764 416.016C153.475 414.506 155.066 412.743 157.32 412.52Z" fill="#FFC4BC"/>
<path fillRule="evenodd" clip-rule="evenodd" d="M149.899 434.788C152.345 434.543 155.023 435.175 156.644 437.071C158.206 438.893 157.678 441.548 157.745 443.965C157.819 446.509 158.659 449.342 157.038 451.268C155.365 453.261 152.464 453.291 149.899 453.298C147.326 453.298 144.671 453.031 142.737 451.291C140.692 449.454 139.175 446.724 139.517 443.965C139.837 441.377 142.417 439.994 144.344 438.284C146.054 436.774 147.645 435.011 149.899 434.788Z" fill="#FFC4BC"/>
<path fillRule="evenodd" clip-rule="evenodd" d="M140.617 457.056C143.063 456.81 145.74 457.442 147.362 459.339C148.923 461.161 148.395 463.816 148.462 466.233C148.529 468.776 149.377 471.609 147.756 473.535C146.083 475.528 143.182 475.558 140.617 475.566C138.043 475.566 135.388 475.298 133.455 473.558C131.41 471.721 129.893 468.992 130.235 466.233C130.555 463.645 133.135 462.261 135.061 460.551C136.772 459.041 138.363 457.279 140.617 457.056Z" fill="#FFC4BC"/>
<path fillRule="evenodd" clip-rule="evenodd" d="M135.056 479.323C137.503 479.078 140.18 479.71 141.801 481.606C143.363 483.428 142.835 486.083 142.902 488.5C142.969 491.043 143.816 493.877 142.195 495.803C140.522 497.796 137.622 497.826 135.056 497.833C132.483 497.833 129.828 497.566 127.894 495.825C125.849 493.988 124.332 491.259 124.674 488.5C124.994 485.912 127.575 484.529 129.501 482.818C131.211 481.309 132.803 479.546 135.056 479.323Z" fill="#FFC4BC"/>
<path fillRule="evenodd" clip-rule="evenodd" d="M125.773 425.506C128.219 425.261 130.897 425.893 132.518 427.789C134.08 429.611 133.552 432.266 133.619 434.683C133.685 437.226 134.533 440.06 132.912 441.986C131.239 443.979 128.338 444.009 125.773 444.016C123.2 444.016 120.545 443.748 118.611 442.008C116.566 440.171 115.049 437.442 115.391 434.683C115.711 432.095 118.291 430.704 120.218 429.001C121.928 427.492 123.519 425.729 125.773 425.506Z" fill="#FFC4BC"/>
<path fillRule="evenodd" clip-rule="evenodd" d="M103.43 425.051C105.877 424.805 108.554 425.437 110.175 427.334C111.737 429.156 111.209 431.811 111.276 434.227C111.35 436.771 112.19 439.604 110.569 441.53C108.896 443.523 105.996 443.553 103.43 443.561C100.857 443.561 98.202 443.293 96.2684 441.553C94.2233 439.716 92.7062 436.986 93.0483 434.227C93.3681 431.639 95.9486 430.249 97.8747 428.546C99.5852 427.036 101.177 425.274 103.43 425.051Z" fill="#FFC4BC"/>
<path fillRule="evenodd" clip-rule="evenodd" d="M81.2327 425.506C83.6794 425.261 86.3566 425.893 87.9779 427.789C89.5396 429.611 89.0116 432.266 89.0785 434.683C89.1454 437.226 89.9932 440.06 88.372 441.986C86.6987 443.979 83.7984 444.009 81.2327 444.016C78.6596 444.016 76.0047 443.748 74.0711 442.008C72.026 440.171 70.5089 437.442 70.851 434.683C71.1708 432.095 73.7514 430.704 75.6775 429.001C77.3879 427.492 78.9794 425.729 81.2327 425.506Z" fill="#FFC4BC"/>
<path fillRule="evenodd" clip-rule="evenodd" d="M36.7025 425.506C39.1492 425.261 41.8264 425.893 43.4476 427.789C45.0093 429.611 44.4813 432.266 44.5482 434.683C44.6226 437.226 45.4629 440.06 43.8417 441.986C42.1685 443.979 39.2681 444.009 36.7025 444.016C34.1293 444.016 31.4744 443.748 29.5409 442.008C27.4958 440.171 25.9787 437.442 26.3208 434.683C26.6405 432.095 29.2211 430.704 31.1472 429.001C32.8577 427.492 34.4491 425.729 36.7025 425.506Z" fill="#FFC4BC"/>
<path fillRule="evenodd" clip-rule="evenodd" d="M58.9671 425.506C61.4138 425.261 64.091 425.893 65.7122 427.789C67.274 429.611 66.7459 432.266 66.8129 434.683C66.8798 437.226 67.7276 440.06 66.1064 441.986C64.4331 443.979 61.5328 444.009 58.9671 444.016C56.394 444.016 53.7391 443.748 51.8055 442.008C49.7604 440.171 48.2433 437.442 48.5854 434.683C48.9052 432.095 51.4857 430.704 53.4119 429.001C55.1223 427.492 56.7138 425.729 58.9671 425.506Z" fill="#FFC4BC"/>
<path fillRule="evenodd" clip-rule="evenodd" d="M14.43 425.506C16.8767 425.261 19.5539 425.893 21.1751 427.789C22.7368 429.611 22.2088 432.266 22.2758 434.683C22.3501 437.226 23.1905 440.06 21.5693 441.986C19.896 443.979 16.9957 444.009 14.43 444.016C11.8569 444.016 9.20197 443.748 7.26841 442.008C5.22331 440.171 3.70621 437.442 4.0483 434.683C4.36808 432.095 6.94863 430.704 8.87475 429.001C10.5852 427.492 12.1767 425.729 14.43 425.506Z" fill="#423D89"/>
<path fillRule="evenodd" clip-rule="evenodd" d="M116.49 447.773C118.936 447.528 121.613 448.16 123.235 450.057C124.796 451.879 124.268 454.533 124.335 456.95C124.402 459.494 125.25 462.327 123.629 464.253C121.956 466.246 119.055 466.276 116.49 466.283C113.916 466.283 111.262 466.016 109.328 464.276C107.283 462.439 105.766 459.709 106.108 456.95C106.428 454.362 109.008 452.979 110.934 451.269C112.645 449.759 114.236 447.997 116.49 447.773Z" fill="#03DAC6"/>
<path fillRule="evenodd" clip-rule="evenodd" d="M94.2288 447.773C96.6755 447.528 99.3527 448.16 100.974 450.057C102.536 451.879 102.008 454.533 102.075 456.95C102.149 459.494 102.989 462.327 101.368 464.253C99.6948 466.246 96.7945 466.276 94.2288 466.283C91.6557 466.283 89.0008 466.016 87.0672 464.276C85.0221 462.439 83.505 459.709 83.8471 456.95C84.1669 454.362 86.7475 452.979 88.6736 451.269C90.384 449.759 91.9755 447.997 94.2288 447.773Z" fill="#FFC4BC"/>
<path fillRule="evenodd" clip-rule="evenodd" d="M71.9554 447.773C74.4021 447.528 77.0793 448.16 78.7005 450.057C80.2622 451.879 79.7342 454.533 79.8012 456.95C79.8681 459.494 80.7159 462.327 79.0947 464.253C77.4214 466.246 74.5211 466.276 71.9554 466.283C69.3823 466.283 66.7274 466.016 64.7938 464.276C62.7487 462.439 61.2316 459.709 61.5737 456.95C61.8935 454.362 64.474 452.979 66.4001 451.269C68.1106 449.759 69.7021 447.997 71.9554 447.773Z" fill="#FFC4BC"/>
<path fillRule="evenodd" clip-rule="evenodd" d="M49.6868 447.773C52.1335 447.528 54.8108 448.16 56.432 450.057C57.9937 451.879 57.4657 454.533 57.5326 456.95C57.607 459.494 58.4473 462.327 56.8261 464.253C55.1528 466.246 52.2525 466.276 49.6868 466.283C47.1137 466.283 44.4588 466.016 42.5252 464.276C40.4801 462.439 38.963 459.709 39.3051 456.95C39.6249 454.362 42.2055 452.979 44.1316 451.269C45.842 449.759 47.4335 447.997 49.6868 447.773Z" fill="#FFC4BC"/>
<path fillRule="evenodd" clip-rule="evenodd" d="M107.219 470.047C109.666 469.802 112.343 470.434 113.964 472.33C115.526 474.152 114.998 476.807 115.065 479.224C115.132 481.768 115.98 484.601 114.358 486.527C112.685 488.52 109.785 488.55 107.219 488.557C104.646 488.557 101.991 488.29 100.057 486.549C98.0124 484.713 96.4953 481.983 96.8374 479.224C97.1571 476.636 99.7377 475.253 101.664 473.543C103.374 472.033 104.966 470.27 107.219 470.047Z" fill="#FFC4BC"/>
<path fillRule="evenodd" clip-rule="evenodd" d="M84.9446 470.047C87.3913 469.802 90.0686 470.434 91.6898 472.33C93.2515 474.152 92.7235 476.807 92.7904 479.224C92.8573 481.768 93.7051 484.601 92.0839 486.527C90.4107 488.52 87.5103 488.55 84.9446 488.557C82.3715 488.557 79.7166 488.29 77.7831 486.549C75.738 484.713 74.2209 481.983 74.563 479.224C74.8827 476.636 77.4633 475.253 79.3894 473.543C81.0999 472.033 82.6913 470.27 84.9446 470.047Z" fill="#FFC4BC"/>
<path fillRule="evenodd" clip-rule="evenodd" d="M77.5257 492.315C79.9724 492.07 82.6496 492.702 84.2708 494.591C85.8325 496.413 85.3045 499.068 85.3715 501.485C85.4458 504.028 86.2862 506.862 84.665 508.788C82.9917 510.781 80.0914 510.811 77.5257 510.818C74.9526 510.818 72.2977 510.55 70.3641 508.81C68.319 506.973 66.8019 504.244 67.144 501.485C67.4638 498.897 70.0443 497.514 71.9705 495.803C73.6809 494.294 75.2724 492.531 77.5257 492.308V492.315Z" fill="#FFC4BC"/>
<path fillRule="evenodd" clip-rule="evenodd" d="M62.681 470.047C65.1277 469.802 67.8049 470.434 69.4261 472.33C70.9878 474.152 70.4598 476.807 70.5267 479.224C70.5937 481.768 71.4415 484.601 69.8203 486.527C68.147 488.52 65.2467 488.55 62.681 488.557C60.1079 488.557 57.4529 488.29 55.5194 486.549C53.4743 484.713 51.9572 481.983 52.2993 479.224C52.6191 476.636 55.1996 475.253 57.1257 473.543C58.8362 472.033 60.4276 470.27 62.681 470.047Z" fill="#FFC4BC"/>
<path fillRule="evenodd" clip-rule="evenodd" d="M55.2601 492.315C57.7068 492.07 60.384 492.702 62.0052 494.591C63.5669 496.413 63.0389 499.068 63.1058 501.485C63.1802 504.028 64.0206 506.862 62.3994 508.788C60.7261 510.781 57.8258 510.811 55.2601 510.818C52.687 510.818 50.032 510.55 48.0985 508.81C46.0534 506.973 44.5363 504.244 44.8784 501.485C45.1982 498.897 47.7787 497.514 49.7048 495.803C51.4153 494.294 53.0067 492.531 55.2601 492.308V492.315Z" fill="#FFC4BC"/>
<path fillRule="evenodd" clip-rule="evenodd" d="M40.4075 470.047C42.8542 469.802 45.5315 470.434 47.1527 472.33C48.7144 474.152 48.1864 476.807 48.2533 479.224C48.3277 481.768 49.168 484.601 47.5468 486.527C45.8735 488.52 42.9732 488.55 40.4075 488.557C37.8344 488.557 35.1795 488.29 33.2459 486.549C31.2008 484.713 29.6837 481.983 30.0258 479.224C30.3456 476.636 32.9262 475.253 34.8523 473.543C36.5627 472.033 38.1542 470.27 40.4075 470.047Z" fill="#FFC4BC"/>
<path fillRule="evenodd" clip-rule="evenodd" d="M18.1468 466.337C20.5935 466.092 23.2707 466.724 24.8919 468.621C26.4536 470.443 25.9256 473.097 25.9926 475.514C26.0669 478.058 26.9073 480.891 25.2861 482.817C23.6128 484.81 20.7125 484.84 18.1468 484.848C15.5737 484.848 12.9188 484.58 10.9852 482.84C8.9401 481.003 7.42301 478.273 7.7651 475.514C8.08488 472.926 10.6654 471.543 12.5915 469.833C14.302 468.323 15.8935 466.561 18.1468 466.337Z" fill="#FFC4BC"/>
<path fillRule="evenodd" clip-rule="evenodd" d="M32.9964 492.315C35.4431 492.07 38.1203 492.702 39.7415 494.591C41.3033 496.413 40.7752 499.068 40.8422 501.485C40.9165 504.028 41.7569 506.862 40.1357 508.788C38.4624 510.781 35.5621 510.811 32.9964 510.818C30.4233 510.818 27.7684 510.55 25.8348 508.81C23.7897 506.973 22.2726 504.244 22.6147 501.485C22.9345 498.897 25.515 497.514 27.4412 495.803C29.1516 494.294 30.7431 492.531 32.9964 492.308V492.315Z" fill="#FFC4BC"/>
</g>
<defs>
<filter id="filter0_d_3_241" x="0" y="67.3204" width="548" height="451.498" filterUnits="userSpaceOnUse" color-interpolation-filters="sRGB">
<feFlood flood-opacity="0" result="BackgroundImageFix"/>
<feColorMatrix in="SourceAlpha" type="matrix" values="0 0 0 0 0 0 0 0 0 0 0 0 0 0 0 0 0 0 127 0" result="hardAlpha"/>
<feOffset dy="4"/>
<feGaussianBlur stdDeviation="2"/>
<feComposite in2="hardAlpha" operator="out"/>
<feColorMatrix type="matrix" values="0 0 0 0 0 0 0 0 0 0 0 0 0 0 0 0 0 0 0.25 0"/>
<feBlend mode="normal" in2="BackgroundImageFix" result="effect1_dropShadow_3_241"/>
<feBlend mode="normal" in="SourceGraphic" in2="effect1_dropShadow_3_241" result="shape"/>
</filter>
</defs>
</svg>
