<svg width="474" height="443" viewBox="0 0 474 443" fill="none" xmlns="http://www.w3.org/2000/svg">
<path fillRule="evenodd" clip-rule="evenodd" d="M386.242 191.512C394.316 233.623 463.899 260.124 450.804 301.566C438.549 340.35 374.429 336.772 334.772 354.396C300.352 369.692 270.98 396.253 233.085 398.32C194.129 400.446 158.87 382.684 124.844 365.851C87.9479 347.598 37.4688 334.243 27.583 296.656C17.4387 258.086 62.1989 225.483 78.0876 188.076C90.0373 159.943 86.4813 125.979 109.35 104.15C132 82.5305 170.286 87.545 198.738 72.915C239.715 51.8443 265.372 -1.31972 311.848 0.0250121C356.145 1.30666 393.304 40.8319 408.122 78.9732C422.208 115.229 378.95 153.483 386.242 191.512Z" fill="#282552"/>
<path fillRule="evenodd" clip-rule="evenodd" d="M201.571 356.884C204.157 356.625 206.987 357.293 208.7 359.297C210.351 361.223 209.793 364.029 209.864 366.584C209.935 369.272 210.831 372.267 209.117 374.303C207.348 376.41 204.283 376.441 201.571 376.449C198.851 376.449 196.045 376.166 194.001 374.327C191.84 372.385 190.236 369.5 190.598 366.584C190.936 363.848 193.663 362.386 195.699 360.578C197.507 358.983 199.189 357.12 201.571 356.884Z" fill="#03DAC6"/>
<path d="M233.358 372V361.054L230.574 363.056V361.646L233.463 359.558H234.872V372H233.358ZM242.937 372.157C239.961 372.157 237.994 369.755 237.994 366.136V365.44C237.994 361.768 239.856 359.401 242.902 359.401C245.964 359.401 247.757 361.855 247.757 365.405V366.101C247.757 369.72 245.999 372.157 242.937 372.157ZM242.937 370.904C245.112 370.904 246.225 369.233 246.225 366.083V365.387C246.225 362.499 245.007 360.619 242.902 360.619C240.796 360.619 239.543 362.36 239.543 365.422V366.118C239.543 369.268 240.866 370.904 242.937 370.904ZM257.681 372.157C255.506 372.157 254.201 371.06 254.114 369.198H255.523C255.628 370.277 256.202 370.956 257.664 370.956C259.038 370.956 259.647 370.486 259.647 369.512C259.647 368.555 258.934 368.241 257.524 367.98C255.158 367.545 254.357 366.884 254.357 365.3C254.357 363.612 256.01 362.742 257.437 362.742C259.073 362.742 260.483 363.404 260.726 365.37H259.334C259.125 364.378 258.568 363.943 257.42 363.943C256.376 363.943 255.697 364.465 255.697 365.248C255.697 366.066 256.15 366.397 257.82 366.693C259.7 367.041 261.022 367.458 261.022 369.39C261.022 371.043 259.891 372.157 257.681 372.157ZM266.999 372.157C264.406 372.157 262.544 370.19 262.544 367.528V367.389C262.544 364.657 264.441 362.742 267.016 362.742C269.592 362.742 271.489 364.639 271.489 367.371V367.51C271.489 370.26 269.592 372.157 266.999 372.157ZM267.016 370.956C268.844 370.956 269.992 369.581 269.992 367.528V367.406C269.992 365.3 268.826 363.943 267.016 363.943C265.189 363.943 264.041 365.3 264.041 367.389V367.528C264.041 369.599 265.172 370.956 267.016 370.956ZM273.725 372V362.899H275.169V364.291C275.587 363.438 276.579 362.742 277.884 362.742C279.05 362.742 280.076 363.23 280.546 364.448C281.173 363.264 282.53 362.742 283.661 362.742C285.297 362.742 286.724 363.717 286.724 366.362V372H285.28V366.258C285.28 364.657 284.601 363.995 283.348 363.995C282.165 363.995 280.947 364.796 280.947 366.432V372H279.502V366.258C279.502 364.657 278.824 363.995 277.571 363.995C276.387 363.995 275.169 364.796 275.169 366.432V372H273.725ZM289.563 372V362.899H291.007V364.291C291.425 363.438 292.417 362.742 293.722 362.742C294.888 362.742 295.915 363.23 296.384 364.448C297.011 363.264 298.368 362.742 299.499 362.742C301.135 362.742 302.562 363.717 302.562 366.362V372H301.118V366.258C301.118 364.657 300.439 363.995 299.186 363.995C298.003 363.995 296.785 364.796 296.785 366.432V372H295.34V366.258C295.34 364.657 294.662 363.995 293.409 363.995C292.225 363.995 291.007 364.796 291.007 366.432V372H289.563ZM309.125 372.157C306.55 372.157 304.722 370.347 304.722 367.545V367.406C304.722 364.657 306.48 362.742 308.986 362.742C311.091 362.742 313.075 364.013 313.075 367.267V367.737H306.219C306.289 369.807 307.28 370.956 309.142 370.956C310.552 370.956 311.37 370.434 311.561 369.372H313.006C312.692 371.2 311.178 372.157 309.125 372.157ZM306.271 366.571H311.596C311.457 364.691 310.482 363.943 308.986 363.943C307.507 363.943 306.515 364.952 306.271 366.571ZM315.291 372V362.899H316.736V364.535C317.31 363.508 318.093 362.795 319.729 362.742V364.1C317.902 364.187 316.736 364.761 316.736 367.006V372H315.291ZM322.565 361.002C322.043 361.002 321.608 360.567 321.608 360.045C321.608 359.523 322.043 359.088 322.565 359.088C323.087 359.088 323.522 359.523 323.522 360.045C323.522 360.567 323.087 361.002 322.565 361.002ZM320.529 375.324V374.106C321.556 374.019 321.869 373.497 321.869 372.696V362.899H323.313V372.574C323.313 374.314 322.547 375.254 320.529 375.324ZM330.045 372.157C327.453 372.157 325.591 370.19 325.591 367.528V367.389C325.591 364.657 327.487 362.742 330.063 362.742C332.638 362.742 334.535 364.639 334.535 367.371V367.51C334.535 370.26 332.638 372.157 330.045 372.157ZM330.063 370.956C331.89 370.956 333.038 369.581 333.038 367.528V367.406C333.038 365.3 331.873 363.943 330.063 363.943C328.236 363.943 327.087 365.3 327.087 367.389V367.528C327.087 369.599 328.218 370.956 330.063 370.956ZM341.296 372.157C339.817 372.157 338.738 371.408 338.216 370.503V372H336.771V358.549H338.216V364.43C338.738 363.543 339.973 362.742 341.296 362.742C343.68 362.742 345.437 364.483 345.437 367.319V367.458C345.437 370.242 343.802 372.157 341.296 372.157ZM341.157 370.956C342.966 370.956 343.941 369.738 343.941 367.528V367.389C343.941 365.092 342.67 363.943 341.139 363.943C339.451 363.943 338.163 365.057 338.163 367.389V367.528C338.163 369.86 339.382 370.956 341.157 370.956ZM352.206 372.157C350.727 372.157 349.648 371.408 349.126 370.503V372H347.681V358.549H349.126V364.43C349.648 363.543 350.883 362.742 352.206 362.742C354.59 362.742 356.347 364.483 356.347 367.319V367.458C356.347 370.242 354.711 372.157 352.206 372.157ZM352.066 370.956C353.876 370.956 354.851 369.738 354.851 367.528V367.389C354.851 365.092 353.58 363.943 352.049 363.943C350.361 363.943 349.073 365.057 349.073 367.389V367.528C349.073 369.86 350.291 370.956 352.066 370.956ZM362.315 372.157C359.74 372.157 357.913 370.347 357.913 367.545V367.406C357.913 364.657 359.67 362.742 362.176 362.742C364.281 362.742 366.265 364.013 366.265 367.267V367.737H359.409C359.479 369.807 360.471 370.956 362.333 370.956C363.742 370.956 364.56 370.434 364.751 369.372H366.196C365.882 371.2 364.368 372.157 362.315 372.157ZM359.461 366.571H364.786C364.647 364.691 363.672 363.943 362.176 363.943C360.697 363.943 359.705 364.952 359.461 366.571ZM368.481 372V362.899H369.926V364.535C370.5 363.508 371.283 362.795 372.919 362.742V364.1C371.092 364.187 369.926 364.761 369.926 367.006V372H368.481ZM380.36 361.002C379.838 361.002 379.403 360.567 379.403 360.045C379.403 359.523 379.838 359.088 380.36 359.088C380.882 359.088 381.317 359.523 381.317 360.045C381.317 360.567 380.882 361.002 380.36 361.002ZM379.664 372V362.899H381.108V372H379.664ZM391.332 372V360.793H387.713V359.558H396.466V360.793H392.846V372H391.332ZM397.728 372V362.899H399.172V364.535C399.746 363.508 400.529 362.795 402.165 362.742V364.1C400.338 364.187 399.172 364.761 399.172 367.006V372H397.728ZM407.791 372.157C405.199 372.157 403.337 370.19 403.337 367.528V367.389C403.337 364.657 405.233 362.742 407.809 362.742C410.384 362.742 412.281 364.639 412.281 367.371V367.51C412.281 370.26 410.384 372.157 407.791 372.157ZM407.809 370.956C409.636 370.956 410.784 369.581 410.784 367.528V367.406C410.784 365.3 409.618 363.943 407.809 363.943C405.982 363.943 404.833 365.3 404.833 367.389V367.528C404.833 369.599 405.964 370.956 407.809 370.956ZM414.517 372V362.899H415.962V364.343C416.379 363.491 417.389 362.742 418.885 362.742C420.764 362.742 422.087 363.769 422.087 366.414V372H420.643V366.31C420.643 364.709 419.964 363.995 418.502 363.995C417.162 363.995 415.962 364.848 415.962 366.484V372H414.517ZM428.345 372.157C425.961 372.157 424.239 370.469 424.239 367.632V367.493C424.239 364.709 425.979 362.742 428.485 362.742C429.999 362.742 430.938 363.473 431.46 364.361V358.549H432.905V372H431.46V370.434C430.938 371.321 429.668 372.157 428.345 372.157ZM428.502 370.956C430.19 370.956 431.513 369.842 431.513 367.51V367.371C431.513 365.039 430.399 363.943 428.624 363.943C426.814 363.943 425.735 365.213 425.735 367.423V367.563C425.735 369.86 426.971 370.956 428.502 370.956ZM435.827 372V358.549H437.272V364.343C437.689 363.491 438.699 362.742 440.195 362.742C442.074 362.742 443.397 363.769 443.397 366.414V372H441.953V366.31C441.953 364.709 441.274 363.995 439.812 363.995C438.472 363.995 437.272 364.848 437.272 366.484V372H435.827ZM449.951 372.157C447.376 372.157 445.549 370.347 445.549 367.545V367.406C445.549 364.657 447.306 362.742 449.812 362.742C451.918 362.742 453.901 364.013 453.901 367.267V367.737H447.045C447.115 369.807 448.107 370.956 449.969 370.956C451.378 370.956 452.196 370.434 452.388 369.372H453.832C453.519 371.2 452.005 372.157 449.951 372.157ZM447.097 366.571H452.422C452.283 364.691 451.309 363.943 449.812 363.943C448.333 363.943 447.341 364.952 447.097 366.571ZM456.849 361.002C456.327 361.002 455.891 360.567 455.891 360.045C455.891 359.523 456.327 359.088 456.849 359.088C457.371 359.088 457.806 359.523 457.806 360.045C457.806 360.567 457.371 361.002 456.849 361.002ZM456.153 372V362.899H457.597V372H456.153ZM460.553 372V362.899H461.997V364.291C462.415 363.438 463.407 362.742 464.712 362.742C465.878 362.742 466.905 363.23 467.374 364.448C468.001 363.264 469.358 362.742 470.489 362.742C472.125 362.742 473.552 363.717 473.552 366.362V372H472.108V366.258C472.108 364.657 471.429 363.995 470.176 363.995C468.993 363.995 467.775 364.796 467.775 366.432V372H466.33V366.258C466.33 364.657 465.652 363.995 464.399 363.995C463.215 363.995 461.997 364.796 461.997 366.432V372H460.553Z" fill="white"/>
<path fillRule="evenodd" clip-rule="evenodd" d="M192.87 388.305C195.456 388.046 198.286 388.714 199.999 390.718C201.65 392.644 201.092 395.45 201.163 398.005C201.241 400.693 202.13 403.688 200.416 405.724C198.647 407.83 195.582 407.862 192.87 407.87C190.15 407.87 187.344 407.587 185.3 405.747C183.139 403.806 181.535 400.921 181.897 398.005C182.235 395.269 184.962 393.799 186.998 391.999C188.806 390.404 190.488 388.541 192.87 388.305Z" fill="#E61A6B"/>
<path d="M224.358 406V395.054L221.574 397.056V395.646L224.463 393.558H225.872V406H224.358ZM233.937 406.157C230.961 406.157 228.994 403.755 228.994 400.136V399.44C228.994 395.768 230.856 393.401 233.902 393.401C236.964 393.401 238.757 395.855 238.757 399.405V400.101C238.757 403.72 236.999 406.157 233.937 406.157ZM233.937 404.904C236.112 404.904 237.225 403.233 237.225 400.083V399.387C237.225 396.499 236.007 394.619 233.902 394.619C231.796 394.619 230.543 396.36 230.543 399.422V400.118C230.543 403.268 231.866 404.904 233.937 404.904ZM248.681 406.157C246.506 406.157 245.201 405.06 245.114 403.198H246.523C246.628 404.277 247.202 404.956 248.664 404.956C250.038 404.956 250.647 404.486 250.647 403.512C250.647 402.555 249.934 402.241 248.524 401.98C246.158 401.545 245.357 400.884 245.357 399.3C245.357 397.612 247.01 396.742 248.437 396.742C250.073 396.742 251.483 397.404 251.726 399.37H250.334C250.125 398.378 249.568 397.943 248.42 397.943C247.376 397.943 246.697 398.465 246.697 399.248C246.697 400.066 247.15 400.397 248.82 400.693C250.7 401.041 252.022 401.458 252.022 403.39C252.022 405.043 250.891 406.157 248.681 406.157ZM257.999 406.157C255.406 406.157 253.544 404.19 253.544 401.528V401.389C253.544 398.657 255.441 396.742 258.016 396.742C260.592 396.742 262.489 398.639 262.489 401.371V401.51C262.489 404.26 260.592 406.157 257.999 406.157ZM258.016 404.956C259.844 404.956 260.992 403.581 260.992 401.528V401.406C260.992 399.3 259.826 397.943 258.016 397.943C256.189 397.943 255.041 399.3 255.041 401.389V401.528C255.041 403.599 256.172 404.956 258.016 404.956ZM264.725 406V396.899H266.169V398.291C266.587 397.438 267.579 396.742 268.884 396.742C270.05 396.742 271.076 397.23 271.546 398.448C272.173 397.264 273.53 396.742 274.661 396.742C276.297 396.742 277.724 397.717 277.724 400.362V406H276.28V400.258C276.28 398.657 275.601 397.995 274.348 397.995C273.165 397.995 271.947 398.796 271.947 400.432V406H270.502V400.258C270.502 398.657 269.824 397.995 268.571 397.995C267.387 397.995 266.169 398.796 266.169 400.432V406H264.725ZM280.563 406V396.899H282.007V398.291C282.425 397.438 283.417 396.742 284.722 396.742C285.888 396.742 286.915 397.23 287.384 398.448C288.011 397.264 289.368 396.742 290.499 396.742C292.135 396.742 293.562 397.717 293.562 400.362V406H292.118V400.258C292.118 398.657 291.439 397.995 290.186 397.995C289.003 397.995 287.785 398.796 287.785 400.432V406H286.34V400.258C286.34 398.657 285.662 397.995 284.409 397.995C283.225 397.995 282.007 398.796 282.007 400.432V406H280.563ZM300.125 406.157C297.55 406.157 295.722 404.347 295.722 401.545V401.406C295.722 398.657 297.48 396.742 299.986 396.742C302.091 396.742 304.075 398.013 304.075 401.267V401.737H297.219C297.289 403.807 298.28 404.956 300.142 404.956C301.552 404.956 302.37 404.434 302.561 403.372H304.006C303.692 405.2 302.178 406.157 300.125 406.157ZM297.271 400.571H302.596C302.457 398.691 301.482 397.943 299.986 397.943C298.507 397.943 297.515 398.952 297.271 400.571ZM306.291 406V396.899H307.736V398.535C308.31 397.508 309.093 396.795 310.729 396.742V398.1C308.902 398.187 307.736 398.761 307.736 401.006V406H306.291ZM313.565 395.002C313.043 395.002 312.608 394.567 312.608 394.045C312.608 393.523 313.043 393.088 313.565 393.088C314.087 393.088 314.522 393.523 314.522 394.045C314.522 394.567 314.087 395.002 313.565 395.002ZM311.529 409.324V408.106C312.556 408.019 312.869 407.497 312.869 406.696V396.899H314.313V406.574C314.313 408.314 313.547 409.254 311.529 409.324ZM321.045 406.157C318.453 406.157 316.591 404.19 316.591 401.528V401.389C316.591 398.657 318.487 396.742 321.063 396.742C323.638 396.742 325.535 398.639 325.535 401.371V401.51C325.535 404.26 323.638 406.157 321.045 406.157ZM321.063 404.956C322.89 404.956 324.038 403.581 324.038 401.528V401.406C324.038 399.3 322.873 397.943 321.063 397.943C319.236 397.943 318.087 399.3 318.087 401.389V401.528C318.087 403.599 319.218 404.956 321.063 404.956ZM332.296 406.157C330.817 406.157 329.738 405.408 329.216 404.503V406H327.771V392.549H329.216V398.43C329.738 397.543 330.973 396.742 332.296 396.742C334.68 396.742 336.437 398.483 336.437 401.319V401.458C336.437 404.242 334.802 406.157 332.296 406.157ZM332.157 404.956C333.966 404.956 334.941 403.738 334.941 401.528V401.389C334.941 399.092 333.67 397.943 332.139 397.943C330.451 397.943 329.163 399.057 329.163 401.389V401.528C329.163 403.86 330.382 404.956 332.157 404.956ZM343.206 406.157C341.727 406.157 340.648 405.408 340.126 404.503V406H338.681V392.549H340.126V398.43C340.648 397.543 341.883 396.742 343.206 396.742C345.59 396.742 347.347 398.483 347.347 401.319V401.458C347.347 404.242 345.711 406.157 343.206 406.157ZM343.066 404.956C344.876 404.956 345.851 403.738 345.851 401.528V401.389C345.851 399.092 344.58 397.943 343.049 397.943C341.361 397.943 340.073 399.057 340.073 401.389V401.528C340.073 403.86 341.291 404.956 343.066 404.956ZM353.315 406.157C350.74 406.157 348.913 404.347 348.913 401.545V401.406C348.913 398.657 350.67 396.742 353.176 396.742C355.281 396.742 357.265 398.013 357.265 401.267V401.737H350.409C350.479 403.807 351.471 404.956 353.333 404.956C354.742 404.956 355.56 404.434 355.751 403.372H357.196C356.882 405.2 355.368 406.157 353.315 406.157ZM350.461 400.571H355.786C355.647 398.691 354.672 397.943 353.176 397.943C351.697 397.943 350.705 398.952 350.461 400.571ZM359.481 406V396.899H360.926V398.535C361.5 397.508 362.283 396.795 363.919 396.742V398.1C362.092 398.187 360.926 398.761 360.926 401.006V406H359.481ZM371.36 395.002C370.838 395.002 370.403 394.567 370.403 394.045C370.403 393.523 370.838 393.088 371.36 393.088C371.882 393.088 372.317 393.523 372.317 394.045C372.317 394.567 371.882 395.002 371.36 395.002ZM370.664 406V396.899H372.108V406H370.664ZM385.325 406.157C381.654 406.157 379.165 403.338 379.165 399.857V399.718C379.165 396.186 381.636 393.401 385.291 393.401C388.945 393.401 391.364 396.186 391.364 399.683V399.822C391.364 403.338 388.945 406.157 385.325 406.157ZM385.325 404.904C388.092 404.904 389.798 402.816 389.798 399.805V399.666C389.798 396.882 388.162 394.619 385.291 394.619C382.402 394.619 380.731 396.742 380.731 399.701V399.84C380.731 402.85 382.733 404.904 385.325 404.904ZM396.594 406.157C394.419 406.157 393.113 405.06 393.026 403.198H394.436C394.54 404.277 395.115 404.956 396.576 404.956C397.951 404.956 398.56 404.486 398.56 403.512C398.56 402.555 397.847 402.241 396.437 401.98C394.07 401.545 393.27 400.884 393.27 399.3C393.27 397.612 394.923 396.742 396.35 396.742C397.986 396.742 399.395 397.404 399.639 399.37H398.247C398.038 398.378 397.481 397.943 396.333 397.943C395.289 397.943 394.61 398.465 394.61 399.248C394.61 400.066 395.062 400.397 396.733 400.693C398.612 401.041 399.935 401.458 399.935 403.39C399.935 405.043 398.804 406.157 396.594 406.157ZM402.17 406V392.549H403.632V406H402.17ZM410.364 406.157C407.771 406.157 405.909 404.19 405.909 401.528V401.389C405.909 398.657 407.806 396.742 410.381 396.742C412.957 396.742 414.854 398.639 414.854 401.371V401.51C414.854 404.26 412.957 406.157 410.364 406.157ZM410.381 404.956C412.209 404.956 413.357 403.581 413.357 401.528V401.406C413.357 399.3 412.191 397.943 410.381 397.943C408.554 397.943 407.406 399.3 407.406 401.389V401.528C407.406 403.599 408.537 404.956 410.381 404.956Z" fill="white"/>
<path fillRule="evenodd" clip-rule="evenodd" d="M184.169 420.498C186.755 420.238 189.585 420.906 191.299 422.911C192.949 424.837 192.391 427.643 192.462 430.198C192.533 432.886 193.429 435.881 191.715 437.917C189.947 440.023 186.881 440.055 184.169 440.062C181.45 440.062 178.643 439.779 176.6 437.94C174.438 435.999 172.834 433.114 173.196 430.198C173.534 427.462 176.262 425.992 178.298 424.192C180.105 422.596 181.788 420.733 184.169 420.498Z" fill="#FFC4BC"/>
<path d="M217.345 439.645C214.7 439.645 213.081 437.992 212.994 435.817H214.387C214.526 437.296 215.413 438.427 217.38 438.427C219.329 438.427 220.216 437.487 220.216 436.025C220.216 434.424 219.346 433.607 217.588 433.607H216.649V432.336H217.519C219.137 432.336 219.851 431.571 219.851 430.213C219.851 429.03 219.102 428.125 217.588 428.125C216.04 428.125 214.996 429.065 214.839 430.474H213.516C213.603 428.508 215.222 426.89 217.588 426.89C219.955 426.89 221.33 428.456 221.33 430.178C221.33 431.588 220.494 432.423 219.363 432.893C220.825 433.276 221.765 434.303 221.765 436.025C221.765 438.288 219.92 439.645 217.345 439.645ZM231.686 439.645C229.511 439.645 228.206 438.549 228.119 436.687H229.529C229.633 437.766 230.207 438.444 231.669 438.444C233.044 438.444 233.653 437.974 233.653 437C233.653 436.043 232.939 435.73 231.53 435.469C229.163 435.033 228.363 434.372 228.363 432.789C228.363 431.101 230.016 430.231 231.443 430.231C233.079 430.231 234.488 430.892 234.732 432.858H233.34C233.131 431.866 232.574 431.431 231.425 431.431C230.381 431.431 229.703 431.953 229.703 432.737C229.703 433.554 230.155 433.885 231.826 434.181C233.705 434.529 235.028 434.946 235.028 436.878C235.028 438.531 233.896 439.645 231.686 439.645ZM241.004 439.645C238.412 439.645 236.55 437.679 236.55 435.016V434.877C236.55 432.145 238.446 430.231 241.022 430.231C243.597 430.231 245.494 432.127 245.494 434.859V434.999C245.494 437.748 243.597 439.645 241.004 439.645ZM241.022 438.444C242.849 438.444 243.997 437.069 243.997 435.016V434.894C243.997 432.789 242.832 431.431 241.022 431.431C239.195 431.431 238.046 432.789 238.046 434.877V435.016C238.046 437.087 239.177 438.444 241.022 438.444ZM247.73 439.488V430.387H249.175V431.779C249.592 430.927 250.584 430.231 251.889 430.231C253.055 430.231 254.082 430.718 254.552 431.936C255.178 430.753 256.536 430.231 257.667 430.231C259.302 430.231 260.729 431.205 260.729 433.85V439.488H259.285V433.746C259.285 432.145 258.606 431.484 257.353 431.484C256.17 431.484 254.952 432.284 254.952 433.92V439.488H253.508V433.746C253.508 432.145 252.829 431.484 251.576 431.484C250.393 431.484 249.175 432.284 249.175 433.92V439.488H247.73ZM263.568 439.488V430.387H265.013V431.779C265.43 430.927 266.422 430.231 267.727 430.231C268.893 430.231 269.92 430.718 270.39 431.936C271.016 430.753 272.374 430.231 273.505 430.231C275.14 430.231 276.567 431.205 276.567 433.85V439.488H275.123V433.746C275.123 432.145 274.444 431.484 273.191 431.484C272.008 431.484 270.79 432.284 270.79 433.92V439.488H269.346V433.746C269.346 432.145 268.667 431.484 267.414 431.484C266.231 431.484 265.013 432.284 265.013 433.92V439.488H263.568ZM283.13 439.645C280.555 439.645 278.728 437.835 278.728 435.033V434.894C278.728 432.145 280.485 430.231 282.991 430.231C285.097 430.231 287.081 431.501 287.081 434.755V435.225H280.224C280.294 437.296 281.286 438.444 283.148 438.444C284.557 438.444 285.375 437.922 285.567 436.861H287.011C286.698 438.688 285.184 439.645 283.13 439.645ZM280.277 434.059H285.601C285.462 432.18 284.488 431.431 282.991 431.431C281.512 431.431 280.52 432.441 280.277 434.059ZM289.297 439.488V430.387H290.741V432.023C291.315 430.996 292.098 430.283 293.734 430.231V431.588C291.907 431.675 290.741 432.249 290.741 434.494V439.488H289.297ZM296.57 428.491C296.048 428.491 295.613 428.056 295.613 427.533C295.613 427.011 296.048 426.576 296.57 426.576C297.092 426.576 297.527 427.011 297.527 427.533C297.527 428.056 297.092 428.491 296.57 428.491ZM294.534 442.812V441.594C295.561 441.507 295.874 440.985 295.874 440.184V430.387H297.318V440.063C297.318 441.803 296.553 442.742 294.534 442.812ZM304.051 439.645C301.458 439.645 299.596 437.679 299.596 435.016V434.877C299.596 432.145 301.493 430.231 304.068 430.231C306.644 430.231 308.54 432.127 308.54 434.859V434.999C308.54 437.748 306.644 439.645 304.051 439.645ZM304.068 438.444C305.895 438.444 307.044 437.069 307.044 435.016V434.894C307.044 432.789 305.878 431.431 304.068 431.431C302.241 431.431 301.093 432.789 301.093 434.877V435.016C301.093 437.087 302.224 438.444 304.068 438.444ZM315.301 439.645C313.822 439.645 312.743 438.897 312.221 437.992V439.488H310.777V426.037H312.221V431.919C312.743 431.031 313.979 430.231 315.301 430.231C317.685 430.231 319.443 431.971 319.443 434.807V434.946C319.443 437.731 317.807 439.645 315.301 439.645ZM315.162 438.444C316.972 438.444 317.946 437.226 317.946 435.016V434.877C317.946 432.58 316.676 431.431 315.145 431.431C313.457 431.431 312.169 432.545 312.169 434.877V435.016C312.169 437.348 313.387 438.444 315.162 438.444ZM326.211 439.645C324.732 439.645 323.653 438.897 323.131 437.992V439.488H321.687V426.037H323.131V431.919C323.653 431.031 324.889 430.231 326.211 430.231C328.595 430.231 330.353 431.971 330.353 434.807V434.946C330.353 437.731 328.717 439.645 326.211 439.645ZM326.072 438.444C327.882 438.444 328.856 437.226 328.856 435.016V434.877C328.856 432.58 327.586 431.431 326.054 431.431C324.367 431.431 323.079 432.545 323.079 434.877V435.016C323.079 437.348 324.297 438.444 326.072 438.444ZM336.321 439.645C333.745 439.645 331.918 437.835 331.918 435.033V434.894C331.918 432.145 333.676 430.231 336.181 430.231C338.287 430.231 340.271 431.501 340.271 434.755V435.225H333.414C333.484 437.296 334.476 438.444 336.338 438.444C337.747 438.444 338.565 437.922 338.757 436.861H340.201C339.888 438.688 338.374 439.645 336.321 439.645ZM333.467 434.059H338.792C338.652 432.18 337.678 431.431 336.181 431.431C334.702 431.431 333.71 432.441 333.467 434.059ZM342.487 439.488V430.387H343.931V432.023C344.506 430.996 345.289 430.283 346.924 430.231V431.588C345.097 431.675 343.931 432.249 343.931 434.494V439.488H342.487ZM354.366 428.491C353.844 428.491 353.409 428.056 353.409 427.533C353.409 427.011 353.844 426.576 354.366 426.576C354.888 426.576 355.323 427.011 355.323 427.533C355.323 428.056 354.888 428.491 354.366 428.491ZM353.67 439.488V430.387H355.114V439.488H353.67ZM362.78 439.488V427.046H366.521C368.836 427.046 370.523 427.812 370.523 430.265V430.335C370.523 431.466 370.071 432.475 368.644 432.963C370.454 433.398 371.133 434.32 371.133 435.938V436.008C371.133 438.357 369.532 439.488 367.043 439.488H362.78ZM364.259 432.475H366.521C368.348 432.475 369.044 431.814 369.044 430.283V430.213C369.044 428.804 368.226 428.23 366.486 428.23H364.259V432.475ZM364.259 438.305H367.008C368.818 438.305 369.653 437.505 369.653 435.991V435.921C369.653 434.39 368.801 433.659 366.8 433.659H364.259V438.305ZM377.224 439.645C374.649 439.645 372.822 437.835 372.822 435.033V434.894C372.822 432.145 374.579 430.231 377.085 430.231C379.191 430.231 381.174 431.501 381.174 434.755V435.225H374.318C374.388 437.296 375.38 438.444 377.242 438.444C378.651 438.444 379.469 437.922 379.66 436.861H381.105C380.792 438.688 379.278 439.645 377.224 439.645ZM374.37 434.059H379.695C379.556 432.18 378.582 431.431 377.085 431.431C375.606 431.431 374.614 432.441 374.37 434.059ZM383.391 439.488V430.387H384.835V432.023C385.409 430.996 386.192 430.283 387.828 430.231V431.588C386.001 431.675 384.835 432.249 384.835 434.494V439.488H383.391ZM393.315 442.812C390.618 442.812 389.435 441.542 389.191 440.01H390.67C390.879 441.054 391.749 441.594 393.298 441.594C395.09 441.594 396.221 440.741 396.221 438.792V437.47C395.699 438.357 394.464 439.192 393.141 439.192C390.757 439.192 389 437.383 389 434.877V434.755C389 432.284 390.74 430.231 393.246 430.231C394.76 430.231 395.699 430.962 396.221 431.849V430.387H397.666V438.879C397.648 441.524 395.856 442.812 393.315 442.812ZM393.298 437.992C394.986 437.992 396.273 436.808 396.273 434.772V434.651C396.273 432.615 395.16 431.431 393.385 431.431C391.575 431.431 390.496 432.771 390.496 434.685V434.825C390.496 436.808 391.766 437.992 393.298 437.992ZM404.312 439.645C401.737 439.645 399.91 437.835 399.91 435.033V434.894C399.91 432.145 401.667 430.231 404.173 430.231C406.278 430.231 408.262 431.501 408.262 434.755V435.225H401.406C401.476 437.296 402.468 438.444 404.33 438.444C405.739 438.444 406.557 437.922 406.748 436.861H408.193C407.879 438.688 406.366 439.645 404.312 439.645ZM401.458 434.059H406.783C406.644 432.18 405.669 431.431 404.173 431.431C402.694 431.431 401.702 432.441 401.458 434.059ZM410.479 439.488V430.387H411.923V431.832C412.34 430.979 413.35 430.231 414.846 430.231C416.726 430.231 418.048 431.257 418.048 433.902V439.488H416.604V433.798C416.604 432.197 415.925 431.484 414.463 431.484C413.124 431.484 411.923 432.336 411.923 433.972V439.488H410.479Z" fill="white"/>
<path fillRule="evenodd" clip-rule="evenodd" d="M209.286 155.086C211.415 154.872 213.744 155.422 215.155 157.072C216.514 158.657 216.054 160.967 216.113 163.07C216.177 165.283 216.909 167.748 215.498 169.424C214.042 171.158 211.519 171.184 209.286 171.191C207.047 171.191 204.738 170.958 203.055 169.444C201.276 167.845 199.956 165.471 200.253 163.07C200.532 160.818 202.777 159.615 204.453 158.127C205.941 156.813 207.326 155.28 209.286 155.086V155.086Z" fill="#997671"/>
<path fillRule="evenodd" clip-rule="evenodd" d="M220.587 135.716C222.716 135.503 225.045 136.053 226.456 137.703C227.815 139.288 227.355 141.598 227.413 143.701C227.472 145.914 228.209 148.379 226.799 150.055C225.343 151.789 222.819 151.815 220.587 151.821C218.348 151.821 216.038 151.588 214.356 150.074C212.577 148.476 211.257 146.101 211.554 143.701C211.832 141.449 214.078 140.239 215.754 138.757C217.242 137.444 218.627 135.91 220.587 135.716V135.716Z" fill="#997671"/>
<path fillRule="evenodd" clip-rule="evenodd" d="M209.286 116.336C211.415 116.123 213.744 116.673 215.155 118.323C216.514 119.908 216.054 122.218 216.113 124.321C216.177 126.534 216.909 128.999 215.498 130.675C214.042 132.409 211.519 132.435 209.286 132.441C207.047 132.441 204.738 132.208 203.055 130.694C201.276 129.096 199.956 126.721 200.253 124.321C200.532 122.069 202.777 120.866 204.453 119.377C205.941 118.064 207.326 116.53 209.286 116.336V116.336Z" fill="#997671"/>
<path fillRule="evenodd" clip-rule="evenodd" d="M228.659 116.336C230.788 116.123 233.117 116.673 234.528 118.323C235.887 119.908 235.427 122.218 235.485 124.321C235.55 126.534 236.281 128.999 234.871 130.675C233.415 132.409 230.891 132.435 228.659 132.441C226.42 132.441 224.11 132.208 222.428 130.694C220.649 129.096 219.329 126.721 219.626 124.321C219.904 122.069 222.15 120.866 223.826 119.377C225.314 118.064 226.699 116.53 228.659 116.336V116.336Z" fill="#997671"/>
<path fillRule="evenodd" clip-rule="evenodd" d="M239.958 96.9564C242.087 96.7429 244.416 97.2928 245.827 98.9428C247.186 100.528 246.726 102.838 246.785 104.941C246.843 107.154 247.58 109.619 246.17 111.295C244.714 113.029 242.191 113.055 239.958 113.062C237.719 113.062 235.409 112.829 233.727 111.314C231.948 109.716 230.628 107.342 230.925 104.941C231.204 102.689 233.449 101.486 235.125 99.9975C236.613 98.684 237.998 97.1505 239.958 96.9564V96.9564Z" fill="#997671"/>
<path fillRule="evenodd" clip-rule="evenodd" d="M298.081 96.9564C300.21 96.7429 302.539 97.2928 303.95 98.9428C305.308 100.528 304.849 102.838 304.907 104.941C304.965 107.154 305.703 109.619 304.292 111.295C302.837 113.029 300.313 113.055 298.081 113.062C295.842 113.062 293.532 112.829 291.85 111.314C290.07 109.716 288.75 107.342 289.048 104.941C289.326 102.689 291.571 101.486 293.247 99.9975C294.735 98.684 296.12 97.1505 298.081 96.9564V96.9564Z" fill="#997671"/>
<path fillRule="evenodd" clip-rule="evenodd" d="M248.031 116.336C250.16 116.123 252.489 116.673 253.9 118.323C255.259 119.908 254.799 122.218 254.857 124.321C254.922 126.534 255.653 128.999 254.243 130.675C252.787 132.409 250.263 132.435 248.031 132.441C245.792 132.441 243.482 132.208 241.8 130.694C240.02 129.096 238.7 126.721 238.998 124.321C239.276 122.069 241.522 120.866 243.197 119.377C244.686 118.064 246.07 116.53 248.031 116.336V116.336Z" fill="#997671"/>
<path fillRule="evenodd" clip-rule="evenodd" d="M259.336 96.9564C261.465 96.7429 263.794 97.2928 265.205 98.9428C266.564 100.528 266.104 102.838 266.163 104.941C266.221 107.154 266.958 109.619 265.548 111.295C264.092 113.029 261.568 113.055 259.336 113.062C257.097 113.062 254.787 112.829 253.105 111.314C251.326 109.716 250.006 107.342 250.303 104.941C250.581 102.689 252.827 101.486 254.503 99.9975C255.991 98.684 257.376 97.1505 259.336 96.9564V96.9564Z" fill="#997671"/>
<path fillRule="evenodd" clip-rule="evenodd" d="M317.46 96.9564C319.589 96.7429 321.919 97.2928 323.329 98.9428C324.688 100.528 324.229 102.838 324.287 104.941C324.345 107.154 325.083 109.619 323.672 111.295C322.216 113.029 319.693 113.055 317.46 113.062C315.222 113.062 312.912 112.829 311.229 111.314C309.45 109.716 308.13 107.342 308.428 104.941C308.706 102.689 310.951 101.486 312.627 99.9975C314.115 98.684 315.5 97.1505 317.46 96.9564V96.9564Z" fill="#997671"/>
<path fillRule="evenodd" clip-rule="evenodd" d="M307.767 77.5876C309.896 77.3741 312.225 77.9241 313.636 79.5741C314.995 81.1593 314.535 83.4693 314.593 85.5722C314.652 87.7852 315.389 90.2504 313.979 91.9263C312.523 93.6604 309.999 93.6863 307.767 93.6927C305.528 93.6927 303.218 93.4598 301.536 91.9457C299.757 90.3475 298.437 87.9728 298.734 85.5722C299.012 83.3205 301.258 82.117 302.934 80.6288C304.422 79.3152 305.806 77.7817 307.767 77.5876V77.5876Z" fill="#997671"/>
<path fillRule="evenodd" clip-rule="evenodd" d="M323.917 58.2077C326.046 57.9942 328.375 58.5442 329.786 60.1942C331.144 61.7795 330.685 64.0894 330.743 66.1924C330.802 68.4053 331.539 70.8705 330.129 72.5464C328.673 74.2805 326.149 74.3064 323.917 74.3129C321.678 74.3129 319.368 74.0799 317.686 72.5658C315.906 70.9676 314.586 68.5929 314.884 66.1924C315.162 63.9406 317.408 62.7371 319.083 61.2489C320.572 59.9354 321.956 58.4018 323.917 58.2077V58.2077Z" fill="#997671"/>
<path fillRule="evenodd" clip-rule="evenodd" d="M327.147 77.5876C329.275 77.3741 331.605 77.9241 333.015 79.5741C334.374 81.1593 333.915 83.4693 333.973 85.5722C334.031 87.7852 334.769 90.2504 333.358 91.9263C331.902 93.6604 329.379 93.6863 327.147 93.6927C324.908 93.6927 322.598 93.4598 320.916 91.9457C319.136 90.3475 317.816 87.9728 318.114 85.5722C318.392 83.3205 320.637 82.117 322.313 80.6288C323.801 79.3152 325.186 77.7817 327.147 77.5876V77.5876Z" fill="#997671"/>
<path fillRule="evenodd" clip-rule="evenodd" d="M346.53 77.5876C348.659 77.3741 350.988 77.9241 352.399 79.5741C353.758 81.1593 353.298 83.4693 353.356 85.5722C353.415 87.7852 354.152 90.2504 352.742 91.9263C351.286 93.6604 348.762 93.6863 346.53 93.6927C344.291 93.6927 341.981 93.4598 340.299 91.9457C338.519 90.3475 337.199 87.9728 337.497 85.5722C337.775 83.3205 340.021 82.117 341.696 80.6288C343.185 79.3152 344.569 77.7817 346.53 77.5876V77.5876Z" fill="#997671"/>
<path fillRule="evenodd" clip-rule="evenodd" d="M365.899 77.5876C368.027 77.3741 370.357 77.9241 371.767 79.5741C373.126 81.1593 372.667 83.4693 372.725 85.5722C372.783 87.7852 373.521 90.2504 372.11 91.9263C370.654 93.6604 368.131 93.6863 365.899 93.6927C363.66 93.6927 361.35 93.4598 359.667 91.9457C357.888 90.3475 356.568 87.9728 356.866 85.5722C357.144 83.3205 359.389 82.117 361.065 80.6288C362.553 79.3152 363.938 77.7817 365.899 77.5876V77.5876Z" fill="#997671"/>
<path fillRule="evenodd" clip-rule="evenodd" d="M357.825 56.5991C359.954 56.3856 362.283 56.9355 363.694 58.5855C365.052 60.1708 364.593 62.4808 364.651 64.5837C364.716 66.7966 365.447 69.2619 364.037 70.9378C362.581 72.6719 360.057 72.6978 357.825 72.7042C355.586 72.7042 353.276 72.4713 351.594 70.9572C349.814 69.359 348.494 66.9843 348.792 64.5837C349.07 62.332 351.316 61.1285 352.991 59.6402C354.48 58.3267 355.864 56.7932 357.825 56.5991V56.5991Z" fill="#997671"/>
<path fillRule="evenodd" clip-rule="evenodd" d="M356.213 96.9564C358.342 96.7429 360.671 97.2928 362.082 98.9428C363.441 100.528 362.981 102.838 363.039 104.941C363.098 107.154 363.835 109.619 362.425 111.295C360.969 113.029 358.445 113.055 356.213 113.062C353.974 113.062 351.664 112.829 349.982 111.314C348.203 109.716 346.883 107.342 347.18 104.941C347.458 102.689 349.704 101.486 351.38 99.9975C352.868 98.684 354.253 97.1505 356.213 96.9564V96.9564Z" fill="#997671"/>
<path fillRule="evenodd" clip-rule="evenodd" d="M267.408 116.336C269.537 116.123 271.866 116.673 273.277 118.323C274.636 119.908 274.176 122.218 274.235 124.321C274.299 126.534 275.03 128.999 273.62 130.675C272.164 132.409 269.64 132.435 267.408 132.441C265.169 132.441 262.859 132.208 261.177 130.694C259.398 129.096 258.078 126.721 258.375 124.321C258.654 122.069 260.899 120.866 262.575 119.377C264.063 118.064 265.448 116.53 267.408 116.336V116.336Z" fill="#997671"/>
<path fillRule="evenodd" clip-rule="evenodd" d="M278.715 96.9564C280.844 96.7429 283.173 97.2928 284.584 98.9428C285.942 100.528 285.483 102.838 285.541 104.941C285.599 107.154 286.337 109.619 284.926 111.295C283.471 113.029 280.947 113.055 278.715 113.062C276.476 113.062 274.166 112.829 272.484 111.314C270.704 109.716 269.384 107.342 269.682 104.941C269.96 102.689 272.205 101.486 273.881 99.9975C275.37 98.684 276.754 97.1505 278.715 96.9564V96.9564Z" fill="#997671"/>
<path fillRule="evenodd" clip-rule="evenodd" d="M336.831 96.9564C338.96 96.7429 341.289 97.2928 342.7 98.9428C344.059 100.528 343.599 102.838 343.657 104.941C343.716 107.154 344.453 109.619 343.043 111.295C341.587 113.029 339.063 113.055 336.831 113.062C334.592 113.062 332.282 112.829 330.6 111.314C328.82 109.716 327.5 107.342 327.798 104.941C328.076 102.689 330.322 101.486 331.998 99.9975C333.486 98.684 334.87 97.1505 336.831 96.9564V96.9564Z" fill="#997671"/>
<path fillRule="evenodd" clip-rule="evenodd" d="M375.579 96.9564C377.708 96.7429 380.037 97.2928 381.448 98.9428C382.807 100.528 382.347 102.838 382.405 104.941C382.464 107.154 383.201 109.619 381.791 111.295C380.335 113.029 377.811 113.055 375.579 113.062C373.34 113.062 371.03 112.829 369.348 111.314C367.569 109.716 366.249 107.342 366.546 104.941C366.824 102.689 369.07 101.486 370.746 99.9975C372.234 98.684 373.618 97.1505 375.579 96.9564V96.9564Z" fill="#997671"/>
<path fillRule="evenodd" clip-rule="evenodd" d="M385.27 77.5876C387.398 77.3741 389.728 77.9241 391.138 79.5741C392.497 81.1593 392.038 83.4693 392.096 85.5722C392.154 87.7852 392.892 90.2504 391.481 91.9263C390.026 93.6604 387.502 93.6863 385.27 93.6927C383.031 93.6927 380.721 93.4598 379.039 91.9457C377.259 90.3475 375.939 87.9728 376.237 85.5722C376.515 83.3205 378.76 82.117 380.436 80.6288C381.924 79.3152 383.309 77.7817 385.27 77.5876V77.5876Z" fill="#997671"/>
<path fillRule="evenodd" clip-rule="evenodd" d="M404.646 75.9733C406.775 75.7598 409.104 76.3098 410.515 77.9598C411.874 79.5451 411.414 81.8551 411.473 83.958C411.531 86.1709 412.268 88.6362 410.858 90.312C409.402 92.0461 406.878 92.072 404.646 92.0785C402.407 92.0785 400.097 91.8456 398.415 90.3314C396.636 88.7332 395.316 86.3585 395.613 83.958C395.892 81.7062 398.137 80.5027 399.813 79.0145C401.301 77.701 402.686 76.1675 404.646 75.9733V75.9733Z" fill="#997671"/>
<path fillRule="evenodd" clip-rule="evenodd" d="M424.026 75.9733C426.155 75.7598 428.484 76.3098 429.895 77.9598C431.253 79.5451 430.794 81.8551 430.852 83.958C430.91 86.1709 431.648 88.6362 430.238 90.312C428.782 92.0461 426.258 92.072 424.026 92.0785C421.787 92.0785 419.477 91.8456 417.795 90.3314C416.015 88.7332 414.695 86.3585 414.993 83.958C415.271 81.7062 417.516 80.5027 419.192 79.0145C420.681 77.701 422.065 76.1675 424.026 75.9733V75.9733Z" fill="#997671"/>
<path fillRule="evenodd" clip-rule="evenodd" d="M443.395 59.8269C445.524 59.6133 447.853 60.1633 449.264 61.8133C450.623 63.3986 450.163 65.7086 450.222 67.8115C450.28 70.0244 451.017 72.4897 449.607 74.1656C448.151 75.8997 445.628 75.9255 443.395 75.932C441.156 75.932 438.846 75.6991 437.164 74.185C435.385 72.5867 434.065 70.2121 434.362 67.8115C434.641 65.5598 436.886 64.3562 438.562 62.868C440.05 61.5545 441.435 60.021 443.395 59.8269V59.8269Z" fill="#997671"/>
<path fillRule="evenodd" clip-rule="evenodd" d="M462.77 66.2834C464.899 66.0699 467.229 66.6199 468.639 68.2699C469.998 69.8551 469.539 72.1651 469.597 74.268C469.655 76.481 470.393 78.9462 468.982 80.6221C467.526 82.3562 465.003 82.3821 462.77 82.3885C460.532 82.3885 458.222 82.1556 456.539 80.6415C454.76 79.0433 453.44 76.6686 453.738 74.268C454.016 72.0163 456.261 70.8128 457.937 69.3246C459.425 68.011 460.81 66.4775 462.77 66.2834V66.2834Z" fill="#997671"/>
<path fillRule="evenodd" clip-rule="evenodd" d="M443.395 80.8155C445.524 80.602 447.853 81.152 449.264 82.802C450.623 84.3872 450.163 86.6972 450.222 88.8001C450.28 91.0131 451.017 93.4783 449.607 95.1542C448.151 96.8883 445.628 96.9142 443.395 96.9207C441.156 96.9207 438.846 96.6877 437.164 95.1736C435.385 93.5754 434.065 91.2007 434.362 88.8001C434.641 86.5484 436.886 85.3449 438.562 83.8567C440.05 82.5431 441.435 81.0096 443.395 80.8155V80.8155Z" fill="#997671"/>
<path fillRule="evenodd" clip-rule="evenodd" d="M462.77 100.185C464.899 99.9714 467.229 100.521 468.639 102.171C469.998 103.757 469.539 106.067 469.597 108.17C469.655 110.382 470.393 112.848 468.982 114.524C467.526 116.258 465.003 116.284 462.77 116.29C460.532 116.29 458.222 116.057 456.539 114.543C454.76 112.945 453.44 110.57 453.738 108.17C454.016 105.918 456.261 104.714 457.937 103.226C459.425 101.913 460.81 100.379 462.77 100.185Z" fill="#997671"/>
<path fillRule="evenodd" clip-rule="evenodd" d="M419.179 56.5991C421.308 56.3856 423.637 56.9355 425.048 58.5855C426.407 60.1708 425.947 62.4808 426.006 64.5837C426.064 66.7966 426.801 69.2619 425.391 70.9378C423.935 72.6719 421.411 72.6978 419.179 72.7042C416.94 72.7042 414.63 72.4713 412.948 70.9572C411.169 69.359 409.849 66.9843 410.146 64.5837C410.425 62.332 412.67 61.1285 414.346 59.6402C415.834 58.3267 417.219 56.7932 419.179 56.5991V56.5991Z" fill="#997671"/>
<path fillRule="evenodd" clip-rule="evenodd" d="M393.347 58.2076C395.475 57.9941 397.805 58.5441 399.215 60.1941C400.574 61.7793 400.115 64.0893 400.173 66.1922C400.231 68.4052 400.969 70.8704 399.558 72.5463C398.102 74.2804 395.579 74.3063 393.347 74.3127C391.108 74.3127 388.798 74.0798 387.116 72.5657C385.336 70.9675 384.016 68.5928 384.314 66.1922C384.592 63.9405 386.837 62.737 388.513 61.2488C390.001 59.9352 391.386 58.4017 393.347 58.2076V58.2076Z" fill="#997671"/>
<path fillRule="evenodd" clip-rule="evenodd" d="M367.511 116.336C369.64 116.123 371.969 116.673 373.38 118.323C374.739 119.908 374.279 122.218 374.338 124.321C374.396 126.534 375.133 128.999 373.723 130.675C372.267 132.409 369.743 132.435 367.511 132.441C365.272 132.441 362.962 132.208 361.28 130.694C359.501 129.096 358.181 126.721 358.478 124.321C358.757 122.069 361.002 120.866 362.678 119.377C364.166 118.064 365.551 116.53 367.511 116.336V116.336Z" fill="#997671"/>
<path fillRule="evenodd" clip-rule="evenodd" d="M348.138 116.336C350.267 116.123 352.597 116.673 354.007 118.323C355.366 119.908 354.907 122.218 354.965 124.321C355.023 126.534 355.761 128.999 354.35 130.675C352.894 132.409 350.371 132.435 348.138 132.441C345.9 132.441 343.59 132.208 341.907 130.694C340.128 129.096 338.808 126.721 339.106 124.321C339.384 122.069 341.629 120.866 343.305 119.377C344.793 118.064 346.178 116.53 348.138 116.336V116.336Z" fill="#997671"/>
<path fillRule="evenodd" clip-rule="evenodd" d="M328.758 116.336C330.887 116.123 333.216 116.673 334.627 118.323C335.985 119.908 335.526 122.218 335.584 124.321C335.649 126.534 336.38 128.999 334.969 130.675C333.514 132.409 330.99 132.435 328.758 132.441C326.519 132.441 324.209 132.208 322.527 130.694C320.747 129.096 319.427 126.721 319.725 124.321C320.003 122.069 322.248 120.866 323.924 119.377C325.412 118.064 326.797 116.53 328.758 116.336V116.336Z" fill="#997671"/>
<path fillRule="evenodd" clip-rule="evenodd" d="M239.958 135.716C242.087 135.503 244.416 136.053 245.827 137.703C247.186 139.288 246.726 141.598 246.785 143.701C246.843 145.914 247.58 148.379 246.17 150.055C244.714 151.789 242.191 151.815 239.958 151.821C237.719 151.821 235.409 151.588 233.727 150.074C231.948 148.476 230.628 146.101 230.925 143.701C231.204 141.449 233.449 140.239 235.125 138.757C236.613 137.444 237.998 135.91 239.958 135.716V135.716Z" fill="#997671"/>
<path fillRule="evenodd" clip-rule="evenodd" d="M189.913 155.086C192.042 154.872 194.372 155.422 195.782 157.072C197.141 158.657 196.682 160.967 196.74 163.07C196.798 165.283 197.536 167.748 196.125 169.424C194.669 171.158 192.146 171.184 189.913 171.191C187.675 171.191 185.365 170.958 183.682 169.444C181.903 167.845 180.583 165.471 180.881 163.07C181.159 160.818 183.404 159.615 185.08 158.127C186.568 156.813 187.953 155.28 189.913 155.086V155.086Z" fill="#997671"/>
<path fillRule="evenodd" clip-rule="evenodd" d="M170.534 135.716C172.663 135.503 174.992 136.053 176.403 137.703C177.762 139.288 177.302 141.598 177.361 143.701C177.419 145.914 178.156 148.379 176.746 150.055C175.29 151.789 172.766 151.815 170.534 151.821C168.295 151.821 165.985 151.588 164.303 150.074C162.524 148.476 161.204 146.101 161.501 143.701C161.779 141.449 164.025 140.239 165.701 138.757C167.189 137.444 168.574 135.91 170.534 135.716Z" fill="#997671"/>
<path fillRule="evenodd" clip-rule="evenodd" d="M189.913 122.793C192.042 122.579 194.372 123.129 195.782 124.779C197.141 126.364 196.682 128.674 196.74 130.777C196.798 132.99 197.536 135.456 196.125 137.131C194.669 138.865 192.146 138.891 189.913 138.898C187.675 138.898 185.365 138.665 183.682 137.151C181.903 135.553 180.583 133.178 180.881 130.777C181.159 128.526 183.404 127.322 185.08 125.834C186.568 124.52 187.953 122.987 189.913 122.793V122.793Z" fill="#997671"/>
<path fillRule="evenodd" clip-rule="evenodd" d="M201.212 174.459C203.341 174.246 205.67 174.796 207.081 176.446C208.439 178.031 207.98 180.341 208.038 182.444C208.096 184.657 208.834 187.122 207.424 188.798C205.968 190.532 203.444 190.558 201.212 190.564C198.973 190.564 196.663 190.331 194.981 188.817C193.201 187.219 191.881 184.844 192.179 182.444C192.457 180.192 194.702 178.982 196.378 177.5C197.867 176.187 199.251 174.653 201.212 174.459V174.459Z" fill="#997671"/>
<path fillRule="evenodd" clip-rule="evenodd" d="M181.837 174.459C183.965 174.246 186.295 174.796 187.705 176.446C189.064 178.031 188.605 180.341 188.663 182.444C188.721 184.657 189.459 187.122 188.048 188.798C186.592 190.532 184.069 190.558 181.837 190.564C179.598 190.564 177.288 190.331 175.605 188.817C173.826 187.219 172.506 184.844 172.804 182.444C173.082 180.192 175.327 178.982 177.003 177.5C178.491 176.187 179.876 174.653 181.837 174.459V174.459Z" fill="#997671"/>
<path fillRule="evenodd" clip-rule="evenodd" d="M193.134 193.834C195.263 193.621 197.592 194.171 199.003 195.821C200.362 197.406 199.902 199.716 199.96 201.819C200.025 204.032 200.756 206.497 199.346 208.173C197.89 209.907 195.366 209.933 193.134 209.939C190.895 209.939 188.585 209.706 186.903 208.192C185.123 206.594 183.803 204.219 184.101 201.819C184.379 199.567 186.625 198.364 188.3 196.875C189.789 195.562 191.173 194.028 193.134 193.834V193.834Z" fill="#997671"/>
<path fillRule="evenodd" clip-rule="evenodd" d="M173.762 193.834C175.891 193.621 178.22 194.171 179.631 195.821C180.989 197.406 180.53 199.716 180.588 201.819C180.647 204.032 181.384 206.497 179.974 208.173C178.518 209.907 175.994 209.933 173.762 209.939C171.523 209.939 169.213 209.706 167.531 208.192C165.751 206.594 164.431 204.219 164.729 201.819C165.007 199.567 167.253 198.364 168.928 196.875C170.417 195.562 171.801 194.028 173.762 193.834V193.834Z" fill="#997671"/>
<path fillRule="evenodd" clip-rule="evenodd" d="M185.062 213.214C187.191 213.001 189.52 213.551 190.931 215.201C192.29 216.786 191.83 219.096 191.888 221.199C191.953 223.412 192.684 225.877 191.274 227.553C189.818 229.287 187.294 229.313 185.062 229.319C182.823 229.319 180.513 229.086 178.831 227.572C177.051 225.974 175.731 223.599 176.029 221.199C176.307 218.947 178.553 217.743 180.228 216.255C181.717 214.942 183.101 213.408 185.062 213.214V213.214Z" fill="#997671"/>
<path fillRule="evenodd" clip-rule="evenodd" d="M165.686 213.214C167.815 213.001 170.144 213.551 171.554 215.201C172.913 216.786 172.454 219.096 172.512 221.199C172.577 223.412 173.308 225.877 171.897 227.553C170.442 229.287 167.918 229.313 165.686 229.319C163.447 229.319 161.137 229.086 159.455 227.572C157.675 225.974 156.355 223.599 156.653 221.199C156.931 218.947 159.176 217.743 160.852 216.255C162.34 214.942 163.725 213.408 165.686 213.214V213.214Z" fill="#997671"/>
<path fillRule="evenodd" clip-rule="evenodd" d="M146.317 213.214C148.446 213.001 150.776 213.551 152.186 215.201C153.545 216.786 153.085 219.096 153.144 221.199C153.208 223.412 153.94 225.877 152.529 227.553C151.073 229.287 148.55 229.313 146.317 229.319C144.079 229.319 141.769 229.086 140.086 227.572C138.307 225.974 136.987 223.599 137.284 221.199C137.563 218.947 139.808 217.743 141.484 216.255C142.972 214.942 144.357 213.408 146.317 213.214V213.214Z" fill="#997671"/>
<path fillRule="evenodd" clip-rule="evenodd" d="M176.992 232.583C179.12 232.369 181.45 232.919 182.86 234.569C184.219 236.154 183.76 238.464 183.818 240.567C183.876 242.78 184.614 245.246 183.203 246.921C181.747 248.656 179.224 248.681 176.992 248.688C174.753 248.688 172.443 248.455 170.761 246.941C168.981 245.343 167.661 242.968 167.959 240.567C168.237 238.316 170.482 237.112 172.158 235.624C173.646 234.31 175.031 232.777 176.992 232.583V232.583Z" fill="#997671"/>
<path fillRule="evenodd" clip-rule="evenodd" d="M157.621 232.583C159.749 232.369 162.079 232.919 163.489 234.569C164.848 236.154 164.389 238.464 164.447 240.567C164.505 242.78 165.243 245.246 163.832 246.921C162.376 248.656 159.853 248.681 157.621 248.688C155.382 248.688 153.072 248.455 151.389 246.941C149.61 245.343 148.29 242.968 148.588 240.567C148.866 238.316 151.111 237.112 152.787 235.624C154.275 234.31 155.66 232.777 157.621 232.583Z" fill="#997671"/>
<path fillRule="evenodd" clip-rule="evenodd" d="M138.24 232.583C140.369 232.369 142.698 232.919 144.109 234.569C145.468 236.154 145.008 238.464 145.067 240.567C145.125 242.78 145.862 245.246 144.452 246.921C142.996 248.656 140.472 248.681 138.24 248.688C136.001 248.688 133.691 248.455 132.009 246.941C130.23 245.343 128.91 242.968 129.207 240.567C129.486 238.316 131.731 237.112 133.407 235.624C134.895 234.31 136.28 232.777 138.24 232.583Z" fill="#997671"/>
<path fillRule="evenodd" clip-rule="evenodd" d="M168.923 251.958C171.052 251.744 173.381 252.294 174.792 253.944C176.151 255.529 175.691 257.839 175.749 259.942C175.808 262.155 176.545 264.621 175.135 266.296C173.679 268.031 171.155 268.056 168.923 268.063C166.684 268.063 164.374 267.83 162.692 266.316C160.913 264.718 159.593 262.343 159.89 259.942C160.168 257.691 162.414 256.481 164.09 254.999C165.578 253.685 166.962 252.152 168.923 251.958Z" fill="#997671"/>
<path fillRule="evenodd" clip-rule="evenodd" d="M149.545 251.958C151.674 251.744 154.003 252.294 155.414 253.944C156.773 255.529 156.313 257.839 156.372 259.942C156.43 262.155 157.167 264.621 155.757 266.296C154.301 268.031 151.777 268.056 149.545 268.063C147.306 268.063 144.996 267.83 143.314 266.316C141.535 264.718 140.215 262.343 140.512 259.942C140.79 257.691 143.036 256.481 144.712 254.999C146.2 253.685 147.585 252.152 149.545 251.958Z" fill="#997671"/>
<path fillRule="evenodd" clip-rule="evenodd" d="M130.172 251.958C132.3 251.744 134.63 252.294 136.04 253.944C137.399 255.529 136.94 257.839 136.998 259.942C137.056 262.155 137.794 264.621 136.383 266.296C134.927 268.031 132.404 268.056 130.172 268.063C127.933 268.063 125.623 267.83 123.94 266.316C122.161 264.718 120.841 262.343 121.139 259.942C121.417 257.691 123.662 256.481 125.338 254.999C126.826 253.685 128.211 252.152 130.172 251.958Z" fill="#997671"/>
<path fillRule="evenodd" clip-rule="evenodd" d="M160.848 271.337C162.976 271.123 165.306 271.673 166.716 273.323C168.075 274.909 167.616 277.219 167.674 279.322C167.739 281.534 168.47 284 167.059 285.676C165.603 287.41 163.08 287.436 160.848 287.442C158.609 287.442 156.299 287.209 154.616 285.695C152.837 284.097 151.517 281.722 151.815 279.322C152.093 277.07 154.338 275.866 156.014 274.378C157.502 273.065 158.887 271.531 160.848 271.337V271.337Z" fill="#997671"/>
<path fillRule="evenodd" clip-rule="evenodd" d="M141.47 271.337C143.599 271.123 145.928 271.673 147.339 273.323C148.697 274.909 148.238 277.219 148.296 279.322C148.355 281.534 149.092 284 147.682 285.676C146.226 287.41 143.702 287.436 141.47 287.442C139.231 287.442 136.921 287.209 135.239 285.695C133.459 284.097 132.139 281.722 132.437 279.322C132.715 277.07 134.961 275.866 136.636 274.378C138.125 273.065 139.509 271.531 141.47 271.337Z" fill="#997671"/>
<path fillRule="evenodd" clip-rule="evenodd" d="M122.097 271.337C124.226 271.123 126.555 271.673 127.966 273.323C129.325 274.909 128.865 277.219 128.924 279.322C128.988 281.534 129.719 284 128.309 285.676C126.853 287.41 124.329 287.436 122.097 287.442C119.858 287.442 117.548 287.209 115.866 285.695C114.087 284.097 112.767 281.722 113.064 279.322C113.342 277.07 115.588 275.866 117.264 274.378C118.752 273.065 120.137 271.531 122.097 271.337Z" fill="#997671"/>
<path fillRule="evenodd" clip-rule="evenodd" d="M102.724 271.337C104.852 271.123 107.182 271.673 108.592 273.323C109.951 274.909 109.492 277.219 109.55 279.322C109.615 281.534 110.346 284 108.935 285.676C107.479 287.41 104.956 287.436 102.724 287.442C100.485 287.442 98.1748 287.209 96.4924 285.695C94.7131 284.097 93.3931 281.722 93.6907 279.322C93.9689 277.07 96.2142 275.866 97.8901 274.378C99.3783 273.065 100.763 271.531 102.724 271.337Z" fill="#997671"/>
<path fillRule="evenodd" clip-rule="evenodd" d="M133.4 290.712C135.528 290.498 137.858 291.048 139.268 292.698C140.627 294.284 140.168 296.594 140.226 298.697C140.284 300.91 141.022 303.375 139.611 305.051C138.155 306.785 135.632 306.811 133.4 306.817C131.161 306.817 128.851 306.584 127.168 305.07C125.389 303.472 124.069 301.097 124.367 298.697C124.645 296.445 126.89 295.235 128.566 293.753C130.054 292.44 131.439 290.906 133.4 290.712Z" fill="#997671"/>
<path fillRule="evenodd" clip-rule="evenodd" d="M114.029 290.712C116.158 290.498 118.487 291.048 119.898 292.698C121.257 294.284 120.797 296.594 120.856 298.697C120.914 300.91 121.652 303.375 120.241 305.051C118.785 306.785 116.262 306.811 114.029 306.817C111.79 306.817 109.48 306.584 107.798 305.07C106.019 303.472 104.699 301.097 104.996 298.697C105.275 296.445 107.52 295.235 109.196 293.753C110.684 292.44 112.069 290.906 114.029 290.712Z" fill="#997671"/>
<path fillRule="evenodd" clip-rule="evenodd" d="M94.6464 290.712C96.7752 290.498 99.1046 291.048 100.515 292.698C101.874 294.284 101.415 296.594 101.473 298.697C101.531 300.91 102.269 303.375 100.858 305.051C99.4022 306.785 96.8787 306.811 94.6464 306.817C92.4076 306.817 90.0976 306.584 88.4153 305.07C86.6359 303.472 85.3159 301.097 85.6136 298.697C85.8918 296.445 88.1371 295.235 89.8129 293.753C91.3012 292.44 92.6858 290.906 94.6464 290.712Z" fill="#03DAC6"/>
<path fillRule="evenodd" clip-rule="evenodd" d="M75.2761 290.712C77.4049 290.498 79.7342 291.048 81.1448 292.698C82.5036 294.284 82.0442 296.594 82.1025 298.697C82.1607 300.91 82.8983 303.375 81.4878 305.051C80.0319 306.785 77.5084 306.811 75.2761 306.817C73.0372 306.817 70.7273 306.584 69.0449 305.07C67.2655 303.472 65.9456 301.097 66.2432 298.697C66.5214 296.445 68.7667 295.235 70.4426 293.753C71.9308 292.44 73.3155 290.906 75.2761 290.712V290.712Z" fill="#997671"/>
<path fillRule="evenodd" clip-rule="evenodd" d="M125.325 310.081C127.454 309.867 129.783 310.417 131.194 312.067C132.553 313.652 132.093 315.962 132.152 318.065C132.21 320.278 132.947 322.743 131.537 324.419C130.081 326.153 127.557 326.179 125.325 326.186C123.086 326.186 120.776 325.953 119.094 324.439C117.315 322.84 115.995 320.466 116.292 318.065C116.571 315.813 118.816 314.61 120.492 313.122C121.98 311.808 123.365 310.275 125.325 310.081Z" fill="#997671"/>
<path fillRule="evenodd" clip-rule="evenodd" d="M105.951 310.081C108.08 309.867 110.41 310.417 111.82 312.067C113.179 313.652 112.72 315.962 112.778 318.065C112.836 320.278 113.574 322.743 112.163 324.419C110.707 326.153 108.184 326.179 105.951 326.186C103.713 326.186 101.403 325.953 99.7202 324.439C97.9408 322.84 96.6208 320.466 96.9185 318.065C97.1967 315.813 99.442 314.61 101.118 313.122C102.606 311.808 103.991 310.275 105.951 310.081Z" fill="#997671"/>
<path fillRule="evenodd" clip-rule="evenodd" d="M86.5719 310.081C88.7007 309.867 91.0301 310.417 92.4407 312.067C93.7995 313.652 93.3401 315.962 93.3984 318.065C93.4631 320.278 94.1942 322.743 92.7837 324.419C91.3278 326.153 88.8043 326.179 86.5719 326.186C84.3331 326.186 82.0232 325.953 80.3408 324.439C78.5614 322.84 77.2415 320.466 77.5391 318.065C77.8173 315.813 80.0626 314.61 81.7385 313.122C83.2267 311.808 84.6114 310.275 86.5719 310.081Z" fill="#997671"/>
<path fillRule="evenodd" clip-rule="evenodd" d="M67.1982 310.081C69.327 309.867 71.6564 310.417 73.0669 312.067C74.4257 313.652 73.9663 315.962 74.0246 318.065C74.0828 320.278 74.8204 322.743 73.4099 324.419C71.954 326.153 69.4305 326.179 67.1982 326.186C64.9594 326.186 62.6494 325.953 60.9671 324.439C59.1877 322.84 57.8677 320.466 58.1653 318.065C58.4435 315.813 60.6888 314.61 62.3647 313.122C63.8529 311.808 65.2376 310.275 67.1982 310.081Z" fill="#997671"/>
<path fillRule="evenodd" clip-rule="evenodd" d="M47.8254 310.081C49.9542 309.867 52.2836 310.417 53.6941 312.067C55.0529 313.652 54.5935 315.962 54.6518 318.065C54.71 320.278 55.4476 322.743 54.0371 324.419C52.5812 326.153 50.0577 326.179 47.8254 326.186C45.5866 326.186 43.2766 325.953 41.5942 324.439C39.8149 322.84 38.4949 320.466 38.7925 318.065C39.0707 315.813 41.316 314.61 42.9919 313.122C44.4801 311.808 45.8648 310.275 47.8254 310.081Z" fill="#997671"/>
<path fillRule="evenodd" clip-rule="evenodd" d="M118.867 329.449C120.995 329.236 123.325 329.786 124.735 331.429C126.094 333.015 125.635 335.325 125.693 337.428C125.751 339.641 126.489 342.106 125.078 343.782C123.622 345.516 121.099 345.542 118.867 345.548C116.628 345.548 114.318 345.315 112.636 343.801C110.856 342.203 109.536 339.828 109.834 337.428C110.112 335.176 112.357 333.972 114.033 332.484C115.521 331.171 116.906 329.637 118.867 329.443V329.449Z" fill="#997671"/>
<path fillRule="evenodd" clip-rule="evenodd" d="M99.4928 329.449C101.622 329.236 103.951 329.786 105.362 331.429C106.72 333.015 106.261 335.325 106.319 337.428C106.384 339.641 107.115 342.106 105.705 343.782C104.249 345.516 101.725 345.542 99.4928 345.548C97.254 345.548 94.9441 345.315 93.2617 343.801C91.4823 342.203 90.1623 339.828 90.46 337.428C90.7382 335.176 92.9835 333.972 94.6594 332.484C96.1476 331.171 97.5323 329.637 99.4928 329.443V329.449Z" fill="#997671"/>
<path fillRule="evenodd" clip-rule="evenodd" d="M80.1227 329.449C82.2515 329.236 84.5809 329.786 85.9915 331.429C87.3503 333.015 86.8909 335.325 86.9491 337.427C87.0074 339.64 87.745 342.106 86.3344 343.782C84.8786 345.516 82.3551 345.542 80.1227 345.548C77.8839 345.548 75.574 345.315 73.8916 343.801C72.1122 342.203 70.7922 339.828 71.0899 337.427C71.3681 335.176 73.6134 333.972 75.2892 332.484C76.7775 331.17 78.1622 329.637 80.1227 329.443V329.449Z" fill="#997671"/>
<path fillRule="evenodd" clip-rule="evenodd" d="M60.7431 329.449C62.8719 329.236 65.2013 329.786 66.6119 331.429C67.9707 333.015 67.5113 335.325 67.5695 337.427C67.6277 339.64 68.3654 342.106 66.9548 343.782C65.4989 345.516 62.9754 345.542 60.7431 345.548C58.5043 345.548 56.1943 345.315 54.512 343.801C52.7326 342.203 51.4126 339.828 51.7102 337.427C51.9885 335.176 54.2337 333.972 55.9096 332.484C57.3978 331.17 58.7825 329.637 60.7431 329.443V329.449Z" fill="#997671"/>
<path fillRule="evenodd" clip-rule="evenodd" d="M41.3688 329.449C43.4976 329.236 45.827 329.786 47.2376 331.429C48.5964 333.015 48.137 335.325 48.1952 337.427C48.2599 339.64 48.9911 342.106 47.5805 343.782C46.1247 345.516 43.6012 345.542 41.3688 345.548C39.13 345.548 36.82 345.315 35.1377 343.801C33.3583 342.203 32.0383 339.828 32.336 337.427C32.6142 335.176 34.8595 333.972 36.5353 332.484C38.0236 331.17 39.4083 329.637 41.3688 329.443V329.449Z" fill="#997671"/>
<path fillRule="evenodd" clip-rule="evenodd" d="M114.029 348.829C116.158 348.616 118.487 349.166 119.898 350.816C121.257 352.401 120.797 354.711 120.856 356.814C120.914 359.027 121.652 361.492 120.241 363.168C118.785 364.902 116.262 364.928 114.029 364.934C111.79 364.934 109.48 364.701 107.798 363.187C106.019 361.589 104.699 359.214 104.996 356.814C105.275 354.562 107.52 353.359 109.196 351.87C110.684 350.557 112.069 349.023 114.029 348.829Z" fill="#997671"/>
<path fillRule="evenodd" clip-rule="evenodd" d="M94.6464 348.829C96.7752 348.616 99.1046 349.166 100.515 350.816C101.874 352.401 101.415 354.711 101.473 356.814C101.531 359.027 102.269 361.492 100.858 363.168C99.4022 364.902 96.8787 364.928 94.6464 364.934C92.4076 364.934 90.0976 364.701 88.4153 363.187C86.6359 361.589 85.3159 359.214 85.6136 356.814C85.8918 354.562 88.1371 353.359 89.8129 351.87C91.3012 350.557 92.6858 349.023 94.6464 348.829Z" fill="#997671"/>
<path fillRule="evenodd" clip-rule="evenodd" d="M75.2761 348.829C77.4049 348.616 79.7342 349.166 81.1448 350.816C82.5036 352.401 82.0442 354.711 82.1025 356.814C82.1607 359.027 82.8983 361.492 81.4878 363.168C80.0319 364.902 77.5084 364.928 75.2761 364.934C73.0372 364.934 70.7273 364.701 69.0449 363.187C67.2655 361.589 65.9456 359.214 66.2432 356.814C66.5214 354.562 68.7667 353.359 70.4426 351.87C71.9308 350.557 73.3155 349.023 75.2761 348.829V348.829Z" fill="#997671"/>
<path fillRule="evenodd" clip-rule="evenodd" d="M36.5231 348.829C38.6519 348.616 40.9813 349.166 42.3919 350.816C43.7507 352.401 43.2913 354.711 43.3495 356.814C43.4142 359.027 44.1454 361.492 42.7348 363.168C41.279 364.902 38.7555 364.928 36.5231 364.934C34.2843 364.934 31.9743 364.701 30.292 363.187C28.5126 361.589 27.1926 359.214 27.4903 356.814C27.7685 354.562 30.0138 353.359 31.6896 351.87C33.1779 350.557 34.5626 349.023 36.5231 348.829V348.829Z" fill="#997671"/>
<path fillRule="evenodd" clip-rule="evenodd" d="M55.9008 348.829C58.0296 348.616 60.359 349.166 61.7696 350.816C63.1284 352.401 62.669 354.711 62.7272 356.814C62.7854 359.027 63.5231 361.492 62.1125 363.168C60.6566 364.902 58.1331 364.928 55.9008 364.934C53.662 364.934 51.352 364.701 49.6697 363.187C47.8903 361.589 46.5703 359.214 46.868 356.814C47.1462 354.562 49.3915 353.359 51.0673 351.87C52.5555 350.557 53.9402 349.023 55.9008 348.829V348.829Z" fill="#997671"/>
<path fillRule="evenodd" clip-rule="evenodd" d="M17.152 348.829C19.2808 348.616 21.6102 349.166 23.0208 350.816C24.3796 352.401 23.9202 354.711 23.9784 356.814C24.0431 359.027 24.7743 361.492 23.3637 363.168C21.9079 364.902 19.3844 364.928 17.152 364.934C14.9132 364.934 12.6032 364.701 10.9209 363.187C9.14152 361.589 7.82153 359.214 8.11917 356.814C8.39741 354.562 10.6427 353.359 12.3185 351.87C13.8068 350.557 15.1915 349.023 17.152 348.829V348.829Z" fill="#997671"/>
<path fillRule="evenodd" clip-rule="evenodd" d="M21.9968 329.449C24.1256 329.236 26.4549 329.786 27.8655 331.429C29.2243 333.015 28.7649 335.325 28.8232 337.427C28.8879 339.64 29.619 342.106 28.2085 343.782C26.7526 345.516 24.2291 345.542 21.9968 345.548C19.758 345.548 17.448 345.315 15.7656 343.801C13.9862 342.203 12.6663 339.828 12.9639 337.427C13.2421 335.176 15.4874 333.972 17.1633 332.484C18.6515 331.17 20.0362 329.637 21.9968 329.443V329.449Z" fill="#997671"/>
<path fillRule="evenodd" clip-rule="evenodd" d="M133.4 356.905C135.528 356.691 137.858 357.241 139.268 358.891C140.627 360.477 140.168 362.787 140.226 364.889C140.284 367.102 141.022 369.568 139.611 371.244C138.155 372.978 135.632 373.004 133.4 373.01C131.161 373.01 128.851 372.777 127.168 371.263C125.389 369.665 124.069 367.29 124.367 364.889C124.645 362.638 126.89 361.428 128.566 359.946C130.054 358.633 131.439 357.099 133.4 356.905Z" fill="#997671"/>
<path fillRule="evenodd" clip-rule="evenodd" d="M126.943 376.28C129.072 376.066 131.401 376.616 132.812 378.266C134.17 379.852 133.711 382.162 133.769 384.264C133.834 386.477 134.565 388.943 133.155 390.619C131.699 392.353 129.175 392.379 126.943 392.385C124.704 392.385 122.394 392.152 120.712 390.638C118.932 389.04 117.612 386.665 117.91 384.264C118.188 382.013 120.433 380.809 122.109 379.321C123.598 378.007 124.982 376.474 126.943 376.28V376.28Z" fill="#997671"/>
<path fillRule="evenodd" clip-rule="evenodd" d="M118.867 395.654C120.995 395.44 123.325 395.99 124.735 397.64C126.094 399.226 125.635 401.536 125.693 403.639C125.751 405.852 126.489 408.317 125.078 409.993C123.622 411.727 121.099 411.753 118.867 411.759C116.628 411.759 114.318 411.526 112.636 410.012C110.856 408.414 109.536 406.039 109.834 403.639C110.112 401.387 112.357 400.183 114.033 398.695C115.521 397.382 116.906 395.848 118.867 395.654Z" fill="#997671"/>
<path fillRule="evenodd" clip-rule="evenodd" d="M114.028 415.028C116.157 414.815 118.487 415.365 119.897 417.015C121.256 418.6 120.797 420.91 120.855 423.013C120.913 425.226 121.651 427.691 120.24 429.367C118.784 431.101 116.261 431.127 114.028 431.134C111.79 431.134 109.48 430.901 107.797 429.387C106.018 427.788 104.698 425.414 104.996 423.013C105.274 420.761 107.519 419.558 109.195 418.07C110.683 416.756 112.068 415.223 114.028 415.028Z" fill="#997671"/>
<path fillRule="evenodd" clip-rule="evenodd" d="M105.951 368.204C108.08 367.99 110.41 368.54 111.82 370.19C113.179 371.775 112.72 374.085 112.778 376.188C112.836 378.401 113.574 380.866 112.163 382.542C110.707 384.276 108.184 384.302 105.951 384.309C103.713 384.309 101.403 384.076 99.7202 382.562C97.9408 380.963 96.6208 378.589 96.9185 376.188C97.1967 373.936 99.442 372.726 101.118 371.245C102.606 369.931 103.991 368.398 105.951 368.204Z" fill="#997671"/>
<path fillRule="evenodd" clip-rule="evenodd" d="M86.5719 368.204C88.7007 367.99 91.0301 368.54 92.4407 370.19C93.7995 371.775 93.3401 374.085 93.3984 376.188C93.4631 378.401 94.1942 380.866 92.7837 382.542C91.3278 384.276 88.8043 384.302 86.5719 384.309C84.3331 384.309 82.0232 384.076 80.3408 382.562C78.5614 380.963 77.2415 378.589 77.5391 376.188C77.8173 373.936 80.0626 372.726 81.7385 371.245C83.2267 369.931 84.6114 368.398 86.5719 368.204Z" fill="#997671"/>
<path fillRule="evenodd" clip-rule="evenodd" d="M67.1982 368.204C69.327 367.99 71.6564 368.54 73.0669 370.19C74.4257 371.775 73.9663 374.085 74.0246 376.188C74.0828 378.401 74.8204 380.866 73.4099 382.542C71.954 384.276 69.4305 384.302 67.1982 384.309C64.9594 384.309 62.6494 384.076 60.9671 382.562C59.1877 380.963 57.8677 378.589 58.1653 376.188C58.4435 373.936 60.6888 372.726 62.3647 371.245C63.8529 369.931 65.2376 368.398 67.1982 368.204Z" fill="#997671"/>
<path fillRule="evenodd" clip-rule="evenodd" d="M28.4535 368.204C30.5823 367.99 32.9117 368.54 34.3223 370.19C35.6811 371.775 35.2217 374.085 35.2799 376.188C35.3447 378.401 36.0758 380.866 34.6652 382.542C33.2094 384.276 30.6859 384.302 28.4535 384.309C26.2147 384.309 23.9048 384.076 22.2224 382.562C20.443 380.963 19.123 378.589 19.4207 376.188C19.6989 373.936 21.9442 372.726 23.6201 371.245C25.1083 369.931 26.493 368.398 28.4535 368.204V368.204Z" fill="#997671"/>
<path fillRule="evenodd" clip-rule="evenodd" d="M47.8254 368.204C49.9542 367.99 52.2836 368.54 53.6941 370.19C55.0529 371.775 54.5935 374.085 54.6518 376.188C54.71 378.401 55.4476 380.866 54.0371 382.542C52.5812 384.276 50.0577 384.302 47.8254 384.309C45.5866 384.309 43.2766 384.076 41.5942 382.562C39.8149 380.963 38.4949 378.589 38.7925 376.188C39.0707 373.936 41.316 372.726 42.9919 371.245C44.4801 369.931 45.8648 368.398 47.8254 368.204Z" fill="#997671"/>
<path fillRule="evenodd" clip-rule="evenodd" d="M9.07488 368.203C11.2037 367.99 13.5331 368.54 14.9436 370.19C16.3025 371.775 15.843 374.085 15.9013 376.188C15.966 378.401 16.6972 380.866 15.2866 382.542C13.8307 384.276 11.3072 384.302 9.07488 384.308C6.83608 384.308 4.5261 384.076 2.84376 382.561C1.06437 380.963 -0.25562 378.589 0.0420245 376.188C0.320257 373.936 2.56553 372.726 4.2414 371.244C5.72962 369.931 7.11431 368.397 9.07488 368.203Z" fill="#FFC4BC"/>
<path fillRule="evenodd" clip-rule="evenodd" d="M97.8742 387.578C100.003 387.364 102.332 387.914 103.743 389.564C105.102 391.149 104.642 393.459 104.701 395.562C104.759 397.775 105.496 400.241 104.086 401.916C102.63 403.651 100.107 403.676 97.8742 403.683C95.6354 403.683 93.3254 403.45 91.6431 401.936C89.8637 400.338 88.5437 397.963 88.8413 395.562C89.1196 393.311 91.3648 392.107 93.0407 390.619C94.5289 389.305 95.9136 387.772 97.8742 387.578Z" fill="#E61A6B"/>
<path fillRule="evenodd" clip-rule="evenodd" d="M78.5058 387.578C80.6346 387.364 82.964 387.914 84.3746 389.564C85.7334 391.149 85.274 393.459 85.3322 395.562C85.3969 397.775 86.1281 400.241 84.7175 401.916C83.2616 403.651 80.7381 403.676 78.5058 403.683C76.267 403.683 73.957 403.45 72.2747 401.936C70.4953 400.338 69.1753 397.963 69.4729 395.562C69.7512 393.311 71.9964 392.107 73.6723 390.619C75.1605 389.305 76.5452 387.772 78.5058 387.578Z" fill="#997671"/>
<path fillRule="evenodd" clip-rule="evenodd" d="M59.1261 387.578C61.255 387.364 63.5843 387.914 64.9949 389.564C66.3537 391.149 65.8943 393.459 65.9526 395.562C66.0108 397.775 66.7484 400.241 65.3379 401.916C63.882 403.651 61.3585 403.676 59.1261 403.683C56.8873 403.683 54.5774 403.45 52.895 401.936C51.1156 400.338 49.7956 397.963 50.0933 395.562C50.3715 393.311 52.6168 392.107 54.2927 390.619C55.7809 389.305 57.1656 387.772 59.1261 387.578Z" fill="#997671"/>
<path fillRule="evenodd" clip-rule="evenodd" d="M39.7509 387.578C41.8797 387.364 44.2091 387.914 45.6197 389.564C46.9785 391.149 46.5191 393.459 46.5773 395.562C46.642 397.775 47.3732 400.241 45.9626 401.916C44.5067 403.651 41.9832 403.676 39.7509 403.683C37.5121 403.683 35.2021 403.45 33.5198 401.936C31.7404 400.338 30.4204 397.963 30.718 395.562C30.9963 393.311 33.2416 392.107 34.9174 390.619C36.4056 389.305 37.7903 387.772 39.7509 387.578Z" fill="#997671"/>
<path fillRule="evenodd" clip-rule="evenodd" d="M89.8083 406.958C91.9371 406.744 94.2665 407.294 95.677 408.944C97.0359 410.529 96.5764 412.839 96.6347 414.942C96.6929 417.155 97.4306 419.621 96.02 421.296C94.5641 423.031 92.0406 423.056 89.8083 423.063C87.5695 423.063 85.2595 422.83 83.5772 421.316C81.7978 419.718 80.4778 417.343 80.7754 414.942C81.0537 412.691 83.2989 411.487 84.9748 409.999C86.463 408.685 87.8477 407.152 89.8083 406.958Z" fill="#997671"/>
<path fillRule="evenodd" clip-rule="evenodd" d="M70.4279 406.958C72.5567 406.744 74.8861 407.294 76.2967 408.944C77.6555 410.529 77.1961 412.839 77.2543 414.942C77.3125 417.155 78.0502 419.621 76.6396 421.296C75.1837 423.031 72.6602 423.056 70.4279 423.063C68.1891 423.063 65.8791 422.83 64.1968 421.316C62.4174 419.718 61.0974 417.343 61.3951 414.942C61.6733 412.691 63.9186 411.487 65.5944 409.999C67.0826 408.685 68.4673 407.152 70.4279 406.958Z" fill="#997671"/>
<path fillRule="evenodd" clip-rule="evenodd" d="M63.9728 426.333C66.1016 426.119 68.431 426.669 69.8416 428.313C71.2004 429.898 70.741 432.208 70.7992 434.311C70.8639 436.524 71.5951 438.989 70.1845 440.665C68.7287 442.399 66.2052 442.425 63.9728 442.431C61.734 442.431 59.424 442.198 57.7417 440.684C55.9623 439.086 54.6423 436.711 54.94 434.311C55.2182 432.059 57.4635 430.856 59.1393 429.367C60.6276 428.054 62.0123 426.52 63.9728 426.326V426.333Z" fill="#997671"/>
<path fillRule="evenodd" clip-rule="evenodd" d="M51.0568 406.958C53.1856 406.744 55.515 407.294 56.9256 408.944C58.2844 410.529 57.825 412.839 57.8832 414.942C57.9415 417.155 58.6791 419.621 57.2685 421.296C55.8126 423.031 53.2891 423.056 51.0568 423.063C48.818 423.063 46.508 422.83 44.8257 421.316C43.0463 419.718 41.7263 417.343 42.024 414.942C42.3022 412.691 44.5475 411.487 46.2233 409.999C47.7115 408.685 49.0962 407.152 51.0568 406.958Z" fill="#997671"/>
<path fillRule="evenodd" clip-rule="evenodd" d="M44.6 426.333C46.7288 426.119 49.0582 426.669 50.4688 428.313C51.8276 429.898 51.3682 432.208 51.4264 434.311C51.4911 436.524 52.2223 438.989 50.8117 440.665C49.3559 442.399 46.8324 442.425 44.6 442.431C42.3612 442.431 40.0512 442.198 38.3689 440.684C36.5895 439.086 35.2695 436.711 35.5672 434.311C35.8454 432.059 38.0907 430.856 39.7665 429.367C41.2548 428.054 42.6395 426.52 44.6 426.326V426.333Z" fill="#997671"/>
<path fillRule="evenodd" clip-rule="evenodd" d="M31.6772 406.958C33.806 406.744 36.1354 407.294 37.5459 408.944C38.9048 410.529 38.4453 412.839 38.5036 414.942C38.5683 417.155 39.2995 419.621 37.8889 421.296C36.433 423.031 33.9095 423.056 31.6772 423.063C29.4384 423.063 27.1284 422.83 25.4461 421.316C23.6667 419.718 22.3467 417.343 22.6443 414.942C22.9226 412.691 25.1678 411.487 26.8437 409.999C28.3319 408.685 29.7166 407.152 31.6772 406.958V406.958Z" fill="#997671"/>
<path fillRule="evenodd" clip-rule="evenodd" d="M12.3088 403.73C14.4376 403.516 16.767 404.066 18.1775 405.716C19.5363 407.302 19.0769 409.612 19.1352 411.715C19.1999 413.928 19.931 416.393 18.5205 418.069C17.0646 419.803 14.5411 419.829 12.3088 419.835C10.07 419.835 7.75999 419.602 6.07765 418.088C4.29825 416.49 2.97827 414.115 3.27591 411.715C3.55414 409.463 5.79942 408.259 7.47528 406.771C8.9635 405.458 10.3482 403.924 12.3088 403.73V403.73Z" fill="#997671"/>
<path fillRule="evenodd" clip-rule="evenodd" d="M25.2289 426.333C27.3577 426.119 29.6871 426.669 31.0977 428.313C32.4565 429.898 31.9971 432.208 32.0553 434.311C32.12 436.524 32.8512 438.989 31.4406 440.665C29.9848 442.399 27.4613 442.425 25.2289 442.431C22.9901 442.431 20.6802 442.198 18.9978 440.684C17.2184 439.086 15.8984 436.711 16.1961 434.311C16.4743 432.059 18.7196 430.856 20.3954 429.367C21.8837 428.054 23.2684 426.52 25.2289 426.326V426.333Z" fill="#997671"/>
</svg>