<svg width="540" height="516" viewBox="0 0 540 516" fill="none" xmlns="http://www.w3.org/2000/svg">
<path fill-rule="evenodd" clip-rule="evenodd" d="M443.917 220.11C453.197 268.509 533.171 298.967 518.12 346.598C504.035 391.173 430.34 387.061 384.762 407.316C345.201 424.897 311.444 455.424 267.889 457.8C223.116 460.243 182.592 439.828 143.486 420.482C101.08 399.503 43.0629 384.154 31.701 340.955C20.0418 296.626 71.4859 259.154 89.7472 216.161C103.481 183.827 99.3943 144.791 125.678 119.703C151.711 94.8545 195.713 100.618 228.413 83.8032C275.51 59.5861 304.998 -1.51674 358.414 0.0287883C409.326 1.50183 452.034 46.9292 469.065 90.7661C485.254 132.436 435.536 176.403 443.917 220.11Z" fill="#282552"/>
<path fill-rule="evenodd" clip-rule="evenodd" d="M231.671 409.742C234.643 409.444 237.895 410.212 239.865 412.516C241.762 414.729 241.12 417.954 241.202 420.891C241.283 423.98 242.313 427.422 240.343 429.762C238.311 432.183 234.787 432.22 231.671 432.229C228.545 432.229 225.319 431.903 222.971 429.789C220.486 427.558 218.643 424.242 219.059 420.891C219.447 417.747 222.582 416.066 224.922 413.988C227 412.154 228.933 410.013 231.671 409.742Z" fill="#03DAC6"/>
<path d="M270.08 424.861C267.74 424.861 265.14 423.461 265.14 420.621C265.14 418.701 266.32 417.461 267.84 416.921C266.48 416.401 265.68 415.321 265.68 413.921C265.68 411.601 267.88 410.201 270.08 410.201C272.3 410.201 274.46 411.641 274.46 413.881C274.46 415.321 273.58 416.321 272.26 416.901C273.92 417.501 275 418.741 275 420.581C275 423.441 272.5 424.861 270.08 424.861ZM270.14 416.301C271.66 416.301 272.7 415.421 272.7 413.901C272.7 412.521 271.56 411.561 270.08 411.561C268.6 411.561 267.44 412.461 267.44 413.941C267.44 415.441 268.68 416.301 270.14 416.301ZM270.08 423.441C271.84 423.441 273.22 422.421 273.22 420.521C273.22 418.641 271.82 417.681 270.12 417.681C268.42 417.681 266.92 418.661 266.92 420.561C266.92 422.441 268.42 423.441 270.08 423.441ZM286.361 424.861C283.861 424.861 282.361 423.601 282.261 421.461H283.881C284.001 422.701 284.661 423.481 286.341 423.481C287.921 423.481 288.621 422.941 288.621 421.821C288.621 420.721 287.801 420.361 286.181 420.061C283.461 419.561 282.541 418.801 282.541 416.981C282.541 415.041 284.441 414.041 286.081 414.041C287.961 414.041 289.581 414.801 289.861 417.061H288.261C288.021 415.921 287.381 415.421 286.061 415.421C284.861 415.421 284.081 416.021 284.081 416.921C284.081 417.861 284.601 418.241 286.521 418.581C288.681 418.981 290.201 419.461 290.201 421.681C290.201 423.581 288.901 424.861 286.361 424.861ZM297.071 424.861C294.091 424.861 291.951 422.601 291.951 419.541V419.381C291.951 416.241 294.131 414.041 297.091 414.041C300.051 414.041 302.231 416.221 302.231 419.361V419.521C302.231 422.681 300.051 424.861 297.071 424.861ZM297.091 423.481C299.191 423.481 300.511 421.901 300.511 419.541V419.401C300.511 416.981 299.171 415.421 297.091 415.421C294.991 415.421 293.671 416.981 293.671 419.381V419.541C293.671 421.921 294.971 423.481 297.091 423.481ZM304.801 424.681V414.221H306.461V415.821C306.941 414.841 308.081 414.041 309.581 414.041C310.921 414.041 312.101 414.601 312.641 416.001C313.361 414.641 314.921 414.041 316.221 414.041C318.101 414.041 319.741 415.161 319.741 418.201V424.681H318.081V418.081C318.081 416.241 317.301 415.481 315.861 415.481C314.501 415.481 313.101 416.401 313.101 418.281V424.681H311.441V418.081C311.441 416.241 310.661 415.481 309.221 415.481C307.861 415.481 306.461 416.401 306.461 418.281V424.681H304.801ZM323.004 424.681V414.221H324.664V415.821C325.144 414.841 326.284 414.041 327.784 414.041C329.124 414.041 330.304 414.601 330.844 416.001C331.564 414.641 333.124 414.041 334.424 414.041C336.304 414.041 337.944 415.161 337.944 418.201V424.681H336.284V418.081C336.284 416.241 335.504 415.481 334.064 415.481C332.704 415.481 331.304 416.401 331.304 418.281V424.681H329.644V418.081C329.644 416.241 328.864 415.481 327.424 415.481C326.064 415.481 324.664 416.401 324.664 418.281V424.681H323.004ZM345.487 424.861C342.527 424.861 340.427 422.781 340.427 419.561V419.401C340.427 416.241 342.447 414.041 345.327 414.041C347.747 414.041 350.027 415.501 350.027 419.241V419.781H342.147C342.227 422.161 343.367 423.481 345.507 423.481C347.127 423.481 348.067 422.881 348.287 421.661H349.947C349.587 423.761 347.847 424.861 345.487 424.861ZM342.207 418.441H348.327C348.167 416.281 347.047 415.421 345.327 415.421C343.627 415.421 342.487 416.581 342.207 418.441ZM352.575 424.681V414.221H354.235V416.101C354.895 414.921 355.795 414.101 357.675 414.041V415.601C355.575 415.701 354.235 416.361 354.235 418.941V424.681H352.575ZM360.934 412.041C360.334 412.041 359.834 411.541 359.834 410.941C359.834 410.341 360.334 409.841 360.934 409.841C361.534 409.841 362.034 410.341 362.034 410.941C362.034 411.541 361.534 412.041 360.934 412.041ZM358.594 428.501V427.101C359.774 427.001 360.134 426.401 360.134 425.481V414.221H361.794V425.341C361.794 427.341 360.914 428.421 358.594 428.501ZM369.532 424.861C366.552 424.861 364.412 422.601 364.412 419.541V419.381C364.412 416.241 366.592 414.041 369.552 414.041C372.512 414.041 374.692 416.221 374.692 419.361V419.521C374.692 422.681 372.512 424.861 369.532 424.861ZM369.552 423.481C371.652 423.481 372.972 421.901 372.972 419.541V419.401C372.972 416.981 371.632 415.421 369.552 415.421C367.452 415.421 366.132 416.981 366.132 419.381V419.541C366.132 421.921 367.432 423.481 369.552 423.481ZM382.462 424.861C380.762 424.861 379.522 424.001 378.922 422.961V424.681H377.262V409.221H378.922V415.981C379.522 414.961 380.942 414.041 382.462 414.041C385.202 414.041 387.222 416.041 387.222 419.301V419.461C387.222 422.661 385.342 424.861 382.462 424.861ZM382.302 423.481C384.382 423.481 385.502 422.081 385.502 419.541V419.381C385.502 416.741 384.042 415.421 382.282 415.421C380.342 415.421 378.862 416.701 378.862 419.381V419.541C378.862 422.221 380.262 423.481 382.302 423.481ZM395.001 424.861C393.301 424.861 392.061 424.001 391.461 422.961V424.681H389.801V409.221H391.461V415.981C392.061 414.961 393.481 414.041 395.001 414.041C397.741 414.041 399.761 416.041 399.761 419.301V419.461C399.761 422.661 397.881 424.861 395.001 424.861ZM394.841 423.481C396.921 423.481 398.041 422.081 398.041 419.541V419.381C398.041 416.741 396.581 415.421 394.821 415.421C392.881 415.421 391.401 416.701 391.401 419.381V419.541C391.401 422.221 392.801 423.481 394.841 423.481ZM406.62 424.861C403.66 424.861 401.56 422.781 401.56 419.561V419.401C401.56 416.241 403.58 414.041 406.46 414.041C408.88 414.041 411.16 415.501 411.16 419.241V419.781H403.28C403.36 422.161 404.5 423.481 406.64 423.481C408.26 423.481 409.2 422.881 409.42 421.661H411.08C410.72 423.761 408.98 424.861 406.62 424.861ZM403.34 418.441H409.46C409.3 416.281 408.18 415.421 406.46 415.421C404.76 415.421 403.62 416.581 403.34 418.441ZM413.707 424.681V414.221H415.367V416.101C416.027 414.921 416.927 414.101 418.807 414.041V415.601C416.707 415.701 415.367 416.361 415.367 418.941V424.681H413.707ZM427.36 412.041C426.76 412.041 426.26 411.541 426.26 410.941C426.26 410.341 426.76 409.841 427.36 409.841C427.96 409.841 428.46 410.341 428.46 410.941C428.46 411.541 427.96 412.041 427.36 412.041ZM426.56 424.681V414.221H428.22V424.681H426.56ZM439.97 424.681V411.801H435.81V410.381H445.87V411.801H441.71V424.681H439.97ZM447.321 424.681V414.221H448.981V416.101C449.641 414.921 450.541 414.101 452.421 414.041V415.601C450.321 415.701 448.981 416.361 448.981 418.941V424.681H447.321ZM458.887 424.861C455.907 424.861 453.767 422.601 453.767 419.541V419.381C453.767 416.241 455.947 414.041 458.907 414.041C461.867 414.041 464.047 416.221 464.047 419.361V419.521C464.047 422.681 461.867 424.861 458.887 424.861ZM458.907 423.481C461.007 423.481 462.327 421.901 462.327 419.541V419.401C462.327 416.981 460.987 415.421 458.907 415.421C456.807 415.421 455.487 416.981 455.487 419.381V419.541C455.487 421.921 456.787 423.481 458.907 423.481ZM466.618 424.681V414.221H468.278V415.881C468.758 414.901 469.918 414.041 471.638 414.041C473.798 414.041 475.318 415.221 475.318 418.261V424.681H473.658V418.141C473.658 416.301 472.878 415.481 471.198 415.481C469.658 415.481 468.278 416.461 468.278 418.341V424.681H466.618ZM482.511 424.861C479.771 424.861 477.791 422.921 477.791 419.661V419.501C477.791 416.301 479.791 414.041 482.671 414.041C484.411 414.041 485.491 414.881 486.091 415.901V409.221H487.751V424.681H486.091V422.881C485.491 423.901 484.031 424.861 482.511 424.861ZM482.691 423.481C484.631 423.481 486.151 422.201 486.151 419.521V419.361C486.151 416.681 484.871 415.421 482.831 415.421C480.751 415.421 479.511 416.881 479.511 419.421V419.581C479.511 422.221 480.931 423.481 482.691 423.481ZM491.11 424.681V409.221H492.77V415.881C493.25 414.901 494.41 414.041 496.13 414.041C498.29 414.041 499.81 415.221 499.81 418.261V424.681H498.15V418.141C498.15 416.301 497.37 415.481 495.69 415.481C494.15 415.481 492.77 416.461 492.77 418.341V424.681H491.11ZM507.343 424.861C504.383 424.861 502.283 422.781 502.283 419.561V419.401C502.283 416.241 504.303 414.041 507.183 414.041C509.603 414.041 511.883 415.501 511.883 419.241V419.781H504.003C504.083 422.161 505.223 423.481 507.363 423.481C508.983 423.481 509.923 422.881 510.143 421.661H511.803C511.443 423.761 509.703 424.861 507.343 424.861ZM504.063 418.441H510.183C510.023 416.281 508.903 415.421 507.183 415.421C505.483 415.421 504.343 416.581 504.063 418.441ZM515.27 412.041C514.67 412.041 514.17 411.541 514.17 410.941C514.17 410.341 514.67 409.841 515.27 409.841C515.87 409.841 516.37 410.341 516.37 410.941C516.37 411.541 515.87 412.041 515.27 412.041ZM514.47 424.681V414.221H516.13V424.681H514.47ZM519.528 424.681V414.221H521.188V415.821C521.668 414.841 522.808 414.041 524.308 414.041C525.648 414.041 526.828 414.601 527.368 416.001C528.088 414.641 529.648 414.041 530.948 414.041C532.828 414.041 534.468 415.161 534.468 418.201V424.681H532.808V418.081C532.808 416.241 532.028 415.481 530.588 415.481C529.228 415.481 527.828 416.401 527.828 418.281V424.681H526.168V418.081C526.168 416.241 525.388 415.481 523.948 415.481C522.588 415.481 521.188 416.401 521.188 418.281V424.681H519.528Z" fill="white"/>
<path fill-rule="evenodd" clip-rule="evenodd" d="M221.671 446.289C224.643 445.991 227.895 446.759 229.865 449.063C231.762 451.276 231.12 454.501 231.202 457.438C231.292 460.527 232.313 463.969 230.343 466.309C228.311 468.73 224.787 468.767 221.671 468.776C218.545 468.776 215.319 468.45 212.971 466.336C210.486 464.105 208.643 460.789 209.059 457.438C209.447 454.294 212.582 452.604 214.922 450.535C217 448.701 218.933 446.56 221.671 446.289Z" fill="#E61A6B"/>
<path d="M260.08 464.18C257.74 464.18 255.14 462.78 255.14 459.94C255.14 458.02 256.32 456.78 257.84 456.24C256.48 455.72 255.68 454.64 255.68 453.24C255.68 450.92 257.88 449.52 260.08 449.52C262.3 449.52 264.46 450.96 264.46 453.2C264.46 454.64 263.58 455.64 262.26 456.22C263.92 456.82 265 458.06 265 459.9C265 462.76 262.5 464.18 260.08 464.18ZM260.14 455.62C261.66 455.62 262.7 454.74 262.7 453.22C262.7 451.84 261.56 450.88 260.08 450.88C258.6 450.88 257.44 451.78 257.44 453.26C257.44 454.76 258.68 455.62 260.14 455.62ZM260.08 462.76C261.84 462.76 263.22 461.74 263.22 459.84C263.22 457.96 261.82 457 260.12 457C258.42 457 256.92 457.98 256.92 459.88C256.92 461.76 258.42 462.76 260.08 462.76ZM276.361 464.18C273.861 464.18 272.361 462.92 272.261 460.78H273.881C274.001 462.02 274.661 462.8 276.341 462.8C277.921 462.8 278.621 462.26 278.621 461.14C278.621 460.04 277.801 459.68 276.181 459.38C273.461 458.88 272.541 458.12 272.541 456.3C272.541 454.36 274.441 453.36 276.081 453.36C277.961 453.36 279.581 454.12 279.861 456.38H278.261C278.021 455.24 277.381 454.74 276.061 454.74C274.861 454.74 274.081 455.34 274.081 456.24C274.081 457.18 274.601 457.56 276.521 457.9C278.681 458.3 280.201 458.78 280.201 461C280.201 462.9 278.901 464.18 276.361 464.18ZM287.071 464.18C284.091 464.18 281.951 461.92 281.951 458.86V458.7C281.951 455.56 284.131 453.36 287.091 453.36C290.051 453.36 292.231 455.54 292.231 458.68V458.84C292.231 462 290.051 464.18 287.071 464.18ZM287.091 462.8C289.191 462.8 290.511 461.22 290.511 458.86V458.72C290.511 456.3 289.171 454.74 287.091 454.74C284.991 454.74 283.671 456.3 283.671 458.7V458.86C283.671 461.24 284.971 462.8 287.091 462.8ZM294.801 464V453.54H296.461V455.14C296.941 454.16 298.081 453.36 299.581 453.36C300.921 453.36 302.101 453.92 302.641 455.32C303.361 453.96 304.921 453.36 306.221 453.36C308.101 453.36 309.741 454.48 309.741 457.52V464H308.081V457.4C308.081 455.56 307.301 454.8 305.861 454.8C304.501 454.8 303.101 455.72 303.101 457.6V464H301.441V457.4C301.441 455.56 300.661 454.8 299.221 454.8C297.861 454.8 296.461 455.72 296.461 457.6V464H294.801ZM313.004 464V453.54H314.664V455.14C315.144 454.16 316.284 453.36 317.784 453.36C319.124 453.36 320.304 453.92 320.844 455.32C321.564 453.96 323.124 453.36 324.424 453.36C326.304 453.36 327.944 454.48 327.944 457.52V464H326.284V457.4C326.284 455.56 325.504 454.8 324.064 454.8C322.704 454.8 321.304 455.72 321.304 457.6V464H319.644V457.4C319.644 455.56 318.864 454.8 317.424 454.8C316.064 454.8 314.664 455.72 314.664 457.6V464H313.004ZM335.487 464.18C332.527 464.18 330.427 462.1 330.427 458.88V458.72C330.427 455.56 332.447 453.36 335.327 453.36C337.747 453.36 340.027 454.82 340.027 458.56V459.1H332.147C332.227 461.48 333.367 462.8 335.507 462.8C337.127 462.8 338.067 462.2 338.287 460.98H339.947C339.587 463.08 337.847 464.18 335.487 464.18ZM332.207 457.76H338.327C338.167 455.6 337.047 454.74 335.327 454.74C333.627 454.74 332.487 455.9 332.207 457.76ZM342.575 464V453.54H344.235V455.42C344.895 454.24 345.795 453.42 347.675 453.36V454.92C345.575 455.02 344.235 455.68 344.235 458.26V464H342.575ZM350.934 451.36C350.334 451.36 349.834 450.86 349.834 450.26C349.834 449.66 350.334 449.16 350.934 449.16C351.534 449.16 352.034 449.66 352.034 450.26C352.034 450.86 351.534 451.36 350.934 451.36ZM348.594 467.82V466.42C349.774 466.32 350.134 465.72 350.134 464.8V453.54H351.794V464.66C351.794 466.66 350.914 467.74 348.594 467.82ZM359.532 464.18C356.552 464.18 354.412 461.92 354.412 458.86V458.7C354.412 455.56 356.592 453.36 359.552 453.36C362.512 453.36 364.692 455.54 364.692 458.68V458.84C364.692 462 362.512 464.18 359.532 464.18ZM359.552 462.8C361.652 462.8 362.972 461.22 362.972 458.86V458.72C362.972 456.3 361.632 454.74 359.552 454.74C357.452 454.74 356.132 456.3 356.132 458.7V458.86C356.132 461.24 357.432 462.8 359.552 462.8ZM372.462 464.18C370.762 464.18 369.522 463.32 368.922 462.28V464H367.262V448.54H368.922V455.3C369.522 454.28 370.942 453.36 372.462 453.36C375.202 453.36 377.222 455.36 377.222 458.62V458.78C377.222 461.98 375.342 464.18 372.462 464.18ZM372.302 462.8C374.382 462.8 375.502 461.4 375.502 458.86V458.7C375.502 456.06 374.042 454.74 372.282 454.74C370.342 454.74 368.862 456.02 368.862 458.7V458.86C368.862 461.54 370.262 462.8 372.302 462.8ZM385.001 464.18C383.301 464.18 382.061 463.32 381.461 462.28V464H379.801V448.54H381.461V455.3C382.061 454.28 383.481 453.36 385.001 453.36C387.741 453.36 389.761 455.36 389.761 458.62V458.78C389.761 461.98 387.881 464.18 385.001 464.18ZM384.841 462.8C386.921 462.8 388.041 461.4 388.041 458.86V458.7C388.041 456.06 386.581 454.74 384.821 454.74C382.881 454.74 381.401 456.02 381.401 458.7V458.86C381.401 461.54 382.801 462.8 384.841 462.8ZM396.62 464.18C393.66 464.18 391.56 462.1 391.56 458.88V458.72C391.56 455.56 393.58 453.36 396.46 453.36C398.88 453.36 401.16 454.82 401.16 458.56V459.1H393.28C393.36 461.48 394.5 462.8 396.64 462.8C398.26 462.8 399.2 462.2 399.42 460.98H401.08C400.72 463.08 398.98 464.18 396.62 464.18ZM393.34 457.76H399.46C399.3 455.6 398.18 454.74 396.46 454.74C394.76 454.74 393.62 455.9 393.34 457.76ZM403.707 464V453.54H405.367V455.42C406.027 454.24 406.927 453.42 408.807 453.36V454.92C406.707 455.02 405.367 455.68 405.367 458.26V464H403.707ZM417.36 451.36C416.76 451.36 416.26 450.86 416.26 450.26C416.26 449.66 416.76 449.16 417.36 449.16C417.96 449.16 418.46 449.66 418.46 450.26C418.46 450.86 417.96 451.36 417.36 451.36ZM416.56 464V453.54H418.22V464H416.56ZM433.41 464.18C429.19 464.18 426.33 460.94 426.33 456.94V456.78C426.33 452.72 429.17 449.52 433.37 449.52C437.57 449.52 440.35 452.72 440.35 456.74V456.9C440.35 460.94 437.57 464.18 433.41 464.18ZM433.41 462.74C436.59 462.74 438.55 460.34 438.55 456.88V456.72C438.55 453.52 436.67 450.92 433.37 450.92C430.05 450.92 428.13 453.36 428.13 456.76V456.92C428.13 460.38 430.43 462.74 433.41 462.74ZM446.361 464.18C443.861 464.18 442.361 462.92 442.261 460.78H443.881C444.001 462.02 444.661 462.8 446.341 462.8C447.921 462.8 448.621 462.26 448.621 461.14C448.621 460.04 447.801 459.68 446.181 459.38C443.461 458.88 442.541 458.12 442.541 456.3C442.541 454.36 444.441 453.36 446.081 453.36C447.961 453.36 449.581 454.12 449.861 456.38H448.261C448.021 455.24 447.381 454.74 446.061 454.74C444.861 454.74 444.081 455.34 444.081 456.24C444.081 457.18 444.601 457.56 446.521 457.9C448.681 458.3 450.201 458.78 450.201 461C450.201 462.9 448.901 464.18 446.361 464.18ZM452.771 464V448.54H454.451V464H452.771ZM462.188 464.18C459.208 464.18 457.068 461.92 457.068 458.86V458.7C457.068 455.56 459.248 453.36 462.208 453.36C465.168 453.36 467.348 455.54 467.348 458.68V458.84C467.348 462 465.168 464.18 462.188 464.18ZM462.208 462.8C464.308 462.8 465.628 461.22 465.628 458.86V458.72C465.628 456.3 464.288 454.74 462.208 454.74C460.108 454.74 458.788 456.3 458.788 458.7V458.86C458.788 461.24 460.088 462.8 462.208 462.8Z" fill="white"/>
<path fill-rule="evenodd" clip-rule="evenodd" d="M211.671 483.289C214.643 482.991 217.895 483.759 219.865 486.063C221.762 488.276 221.12 491.501 221.202 494.438C221.283 497.527 222.313 500.969 220.343 503.309C218.311 505.73 214.787 505.766 211.671 505.776C208.545 505.776 205.319 505.45 202.971 503.336C200.486 501.105 198.643 497.789 199.059 494.438C199.447 491.294 202.582 489.604 204.922 487.535C207 485.701 208.933 483.56 211.671 483.289Z" fill="#FFC4BC"/>
<path d="M249.8 502.861C246.76 502.861 244.9 500.961 244.8 498.461H246.4C246.56 500.161 247.58 501.461 249.84 501.461C252.08 501.461 253.1 500.381 253.1 498.701C253.1 496.861 252.1 495.921 250.08 495.921H249V494.461H250C251.86 494.461 252.68 493.581 252.68 492.021C252.68 490.661 251.82 489.621 250.08 489.621C248.3 489.621 247.1 490.701 246.92 492.321H245.4C245.5 490.061 247.36 488.201 250.08 488.201C252.8 488.201 254.38 490.001 254.38 491.981C254.38 493.601 253.42 494.561 252.12 495.101C253.8 495.541 254.88 496.721 254.88 498.701C254.88 501.301 252.76 502.861 249.8 502.861ZM266.283 502.861C263.783 502.861 262.283 501.601 262.183 499.461H263.803C263.923 500.701 264.583 501.481 266.263 501.481C267.843 501.481 268.543 500.941 268.543 499.821C268.543 498.721 267.723 498.361 266.103 498.061C263.383 497.561 262.463 496.801 262.463 494.981C262.463 493.041 264.363 492.041 266.003 492.041C267.883 492.041 269.503 492.801 269.783 495.061H268.183C267.943 493.921 267.303 493.421 265.983 493.421C264.783 493.421 264.003 494.021 264.003 494.921C264.003 495.861 264.523 496.241 266.443 496.581C268.603 496.981 270.123 497.461 270.123 499.681C270.123 501.581 268.823 502.861 266.283 502.861ZM276.993 502.861C274.013 502.861 271.873 500.601 271.873 497.541V497.381C271.873 494.241 274.053 492.041 277.013 492.041C279.973 492.041 282.153 494.221 282.153 497.361V497.521C282.153 500.681 279.973 502.861 276.993 502.861ZM277.013 501.481C279.113 501.481 280.433 499.901 280.433 497.541V497.401C280.433 494.981 279.093 493.421 277.013 493.421C274.913 493.421 273.593 494.981 273.593 497.381V497.541C273.593 499.921 274.893 501.481 277.013 501.481ZM284.723 502.681V492.221H286.383V493.821C286.863 492.841 288.003 492.041 289.503 492.041C290.843 492.041 292.023 492.601 292.563 494.001C293.283 492.641 294.843 492.041 296.143 492.041C298.023 492.041 299.663 493.161 299.663 496.201V502.681H298.003V496.081C298.003 494.241 297.223 493.481 295.783 493.481C294.423 493.481 293.023 494.401 293.023 496.281V502.681H291.363V496.081C291.363 494.241 290.583 493.481 289.143 493.481C287.783 493.481 286.383 494.401 286.383 496.281V502.681H284.723ZM302.926 502.681V492.221H304.586V493.821C305.066 492.841 306.206 492.041 307.706 492.041C309.046 492.041 310.226 492.601 310.766 494.001C311.486 492.641 313.046 492.041 314.346 492.041C316.226 492.041 317.866 493.161 317.866 496.201V502.681H316.206V496.081C316.206 494.241 315.426 493.481 313.986 493.481C312.626 493.481 311.226 494.401 311.226 496.281V502.681H309.566V496.081C309.566 494.241 308.786 493.481 307.346 493.481C305.986 493.481 304.586 494.401 304.586 496.281V502.681H302.926ZM325.409 502.861C322.449 502.861 320.349 500.781 320.349 497.561V497.401C320.349 494.241 322.369 492.041 325.249 492.041C327.669 492.041 329.949 493.501 329.949 497.241V497.781H322.069C322.149 500.161 323.289 501.481 325.429 501.481C327.049 501.481 327.989 500.881 328.209 499.661H329.869C329.509 501.761 327.769 502.861 325.409 502.861ZM322.129 496.441H328.249C328.089 494.281 326.969 493.421 325.249 493.421C323.549 493.421 322.409 494.581 322.129 496.441ZM332.496 502.681V492.221H334.156V494.101C334.816 492.921 335.716 492.101 337.596 492.041V493.601C335.496 493.701 334.156 494.361 334.156 496.941V502.681H332.496ZM340.856 490.041C340.256 490.041 339.756 489.541 339.756 488.941C339.756 488.341 340.256 487.841 340.856 487.841C341.456 487.841 341.956 488.341 341.956 488.941C341.956 489.541 341.456 490.041 340.856 490.041ZM338.516 506.501V505.101C339.696 505.001 340.056 504.401 340.056 503.481V492.221H341.716V503.341C341.716 505.341 340.836 506.421 338.516 506.501ZM349.454 502.861C346.474 502.861 344.334 500.601 344.334 497.541V497.381C344.334 494.241 346.514 492.041 349.474 492.041C352.434 492.041 354.614 494.221 354.614 497.361V497.521C354.614 500.681 352.434 502.861 349.454 502.861ZM349.474 501.481C351.574 501.481 352.894 499.901 352.894 497.541V497.401C352.894 494.981 351.554 493.421 349.474 493.421C347.374 493.421 346.054 494.981 346.054 497.381V497.541C346.054 499.921 347.354 501.481 349.474 501.481ZM362.384 502.861C360.684 502.861 359.444 502.001 358.844 500.961V502.681H357.184V487.221H358.844V493.981C359.444 492.961 360.864 492.041 362.384 492.041C365.124 492.041 367.144 494.041 367.144 497.301V497.461C367.144 500.661 365.264 502.861 362.384 502.861ZM362.224 501.481C364.304 501.481 365.424 500.081 365.424 497.541V497.381C365.424 494.741 363.964 493.421 362.204 493.421C360.264 493.421 358.784 494.701 358.784 497.381V497.541C358.784 500.221 360.184 501.481 362.224 501.481ZM374.923 502.861C373.223 502.861 371.983 502.001 371.383 500.961V502.681H369.723V487.221H371.383V493.981C371.983 492.961 373.403 492.041 374.923 492.041C377.663 492.041 379.683 494.041 379.683 497.301V497.461C379.683 500.661 377.803 502.861 374.923 502.861ZM374.763 501.481C376.843 501.481 377.963 500.081 377.963 497.541V497.381C377.963 494.741 376.503 493.421 374.743 493.421C372.803 493.421 371.323 494.701 371.323 497.381V497.541C371.323 500.221 372.723 501.481 374.763 501.481ZM386.542 502.861C383.582 502.861 381.482 500.781 381.482 497.561V497.401C381.482 494.241 383.502 492.041 386.382 492.041C388.802 492.041 391.082 493.501 391.082 497.241V497.781H383.202C383.282 500.161 384.422 501.481 386.562 501.481C388.182 501.481 389.122 500.881 389.342 499.661H391.002C390.642 501.761 388.902 502.861 386.542 502.861ZM383.262 496.441H389.382C389.222 494.281 388.102 493.421 386.382 493.421C384.682 493.421 383.542 494.581 383.262 496.441ZM393.629 502.681V492.221H395.289V494.101C395.949 492.921 396.849 492.101 398.729 492.041V493.601C396.629 493.701 395.289 494.361 395.289 496.941V502.681H393.629ZM407.282 490.041C406.682 490.041 406.182 489.541 406.182 488.941C406.182 488.341 406.682 487.841 407.282 487.841C407.882 487.841 408.382 488.341 408.382 488.941C408.382 489.541 407.882 490.041 407.282 490.041ZM406.482 502.681V492.221H408.142V502.681H406.482ZM416.952 502.681V488.381H421.252C423.912 488.381 425.852 489.261 425.852 492.081V492.161C425.852 493.461 425.332 494.621 423.692 495.181C425.772 495.681 426.552 496.741 426.552 498.601V498.681C426.552 501.381 424.712 502.681 421.852 502.681H416.952ZM418.652 494.621H421.252C423.352 494.621 424.152 493.861 424.152 492.101V492.021C424.152 490.401 423.212 489.741 421.212 489.741H418.652V494.621ZM418.652 501.321H421.812C423.892 501.321 424.852 500.401 424.852 498.661V498.581C424.852 496.821 423.872 495.981 421.572 495.981H418.652V501.321ZM433.554 502.861C430.594 502.861 428.494 500.781 428.494 497.561V497.401C428.494 494.241 430.514 492.041 433.394 492.041C435.814 492.041 438.094 493.501 438.094 497.241V497.781H430.214C430.294 500.161 431.434 501.481 433.574 501.481C435.194 501.481 436.134 500.881 436.354 499.661H438.014C437.654 501.761 435.914 502.861 433.554 502.861ZM430.274 496.441H436.394C436.234 494.281 435.114 493.421 433.394 493.421C431.694 493.421 430.554 494.581 430.274 496.441ZM440.641 502.681V492.221H442.301V494.101C442.961 492.921 443.861 492.101 445.741 492.041V493.601C443.641 493.701 442.301 494.361 442.301 496.941V502.681H440.641ZM452.048 506.501C448.948 506.501 447.588 505.041 447.308 503.281H449.008C449.248 504.481 450.248 505.101 452.028 505.101C454.088 505.101 455.388 504.121 455.388 501.881V500.361C454.788 501.381 453.368 502.341 451.848 502.341C449.108 502.341 447.088 500.261 447.088 497.381V497.241C447.088 494.401 449.088 492.041 451.968 492.041C453.708 492.041 454.788 492.881 455.388 493.901V492.221H457.048V501.981C457.028 505.021 454.968 506.501 452.048 506.501ZM452.028 500.961C453.968 500.961 455.448 499.601 455.448 497.261V497.121C455.448 494.781 454.168 493.421 452.128 493.421C450.048 493.421 448.808 494.961 448.808 497.161V497.321C448.808 499.601 450.268 500.961 452.028 500.961ZM464.687 502.861C461.727 502.861 459.627 500.781 459.627 497.561V497.401C459.627 494.241 461.647 492.041 464.527 492.041C466.947 492.041 469.227 493.501 469.227 497.241V497.781H461.347C461.427 500.161 462.567 501.481 464.707 501.481C466.327 501.481 467.267 500.881 467.487 499.661H469.147C468.787 501.761 467.047 502.861 464.687 502.861ZM461.407 496.441H467.527C467.367 494.281 466.247 493.421 464.527 493.421C462.827 493.421 461.687 494.581 461.407 496.441ZM471.774 502.681V492.221H473.434V493.881C473.914 492.901 475.074 492.041 476.794 492.041C478.954 492.041 480.474 493.221 480.474 496.261V502.681H478.814V496.141C478.814 494.301 478.034 493.481 476.354 493.481C474.814 493.481 473.434 494.461 473.434 496.341V502.681H471.774Z" fill="white"/>
<path fill-rule="evenodd" clip-rule="evenodd" d="M240.538 178.244C242.985 177.999 245.662 178.631 247.284 180.527C248.845 182.349 248.317 185.004 248.384 187.421C248.459 189.964 249.299 192.798 247.678 194.724C246.004 196.717 243.104 196.747 240.538 196.754C237.965 196.754 235.31 196.486 233.377 194.746C231.332 192.909 229.815 190.18 230.157 187.421C230.476 184.833 233.057 183.45 234.983 181.739C236.694 180.23 238.285 178.467 240.538 178.244V178.244Z" fill="#997671"/>
<path fill-rule="evenodd" clip-rule="evenodd" d="M253.527 155.982C255.973 155.737 258.651 156.369 260.272 158.265C261.834 160.087 261.306 162.742 261.372 165.159C261.439 167.703 262.287 170.536 260.666 172.462C258.993 174.455 256.092 174.485 253.527 174.492C250.954 174.492 248.299 174.225 246.365 172.484C244.32 170.647 242.803 167.918 243.145 165.159C243.465 162.571 246.045 161.181 247.971 159.477C249.682 157.968 251.273 156.205 253.527 155.982V155.982Z" fill="#997671"/>
<path fill-rule="evenodd" clip-rule="evenodd" d="M240.538 133.708C242.985 133.463 245.662 134.095 247.284 135.991C248.845 137.813 248.317 140.468 248.384 142.885C248.459 145.429 249.299 148.262 247.678 150.188C246.004 152.181 243.104 152.211 240.538 152.218C237.965 152.218 235.31 151.951 233.377 150.21C231.332 148.374 229.815 145.644 230.157 142.885C230.476 140.297 233.057 138.914 234.983 137.204C236.694 135.694 238.285 133.931 240.538 133.708V133.708Z" fill="#997671"/>
<path fill-rule="evenodd" clip-rule="evenodd" d="M262.804 133.708C265.251 133.463 267.928 134.095 269.549 135.991C271.111 137.813 270.583 140.468 270.65 142.885C270.724 145.429 271.565 148.262 269.943 150.188C268.27 152.181 265.37 152.211 262.804 152.218C260.231 152.218 257.576 151.951 255.642 150.21C253.597 148.374 252.08 145.644 252.422 142.885C252.742 140.297 255.323 138.914 257.249 137.204C258.959 135.694 260.551 133.931 262.804 133.708V133.708Z" fill="#997671"/>
<path fill-rule="evenodd" clip-rule="evenodd" d="M275.79 111.435C278.237 111.189 280.914 111.821 282.535 113.718C284.097 115.54 283.569 118.195 283.636 120.611C283.703 123.155 284.551 125.988 282.93 127.914C281.256 129.907 278.356 129.937 275.79 129.945C273.217 129.945 270.562 129.677 268.629 127.937C266.584 126.1 265.067 123.371 265.409 120.611C265.728 118.024 268.309 116.64 270.235 114.93C271.946 113.42 273.537 111.658 275.79 111.435V111.435Z" fill="#997671"/>
<path fill-rule="evenodd" clip-rule="evenodd" d="M342.592 111.435C345.039 111.189 347.716 111.821 349.337 113.718C350.899 115.54 350.371 118.195 350.438 120.611C350.505 123.155 351.353 125.988 349.731 127.914C348.058 129.907 345.158 129.937 342.592 129.945C340.019 129.945 337.364 129.677 335.431 127.937C333.385 126.1 331.868 123.371 332.21 120.611C332.53 118.024 335.111 116.64 337.037 114.93C338.747 113.42 340.339 111.658 342.592 111.435V111.435Z" fill="#997671"/>
<path fill-rule="evenodd" clip-rule="evenodd" d="M285.069 133.708C287.515 133.463 290.193 134.095 291.814 135.991C293.376 137.813 292.848 140.468 292.914 142.885C292.989 145.429 293.829 148.262 292.208 150.188C290.535 152.181 287.634 152.211 285.069 152.218C282.496 152.218 279.841 151.951 277.907 150.211C275.862 148.374 274.345 145.644 274.687 142.885C275.007 140.297 277.587 138.914 279.513 137.204C281.224 135.694 282.815 133.931 285.069 133.708V133.708Z" fill="#997671"/>
<path fill-rule="evenodd" clip-rule="evenodd" d="M298.062 111.435C300.509 111.189 303.186 111.821 304.807 113.718C306.369 115.54 305.841 118.195 305.908 120.612C305.975 123.155 306.822 125.988 305.201 127.914C303.528 129.907 300.628 129.937 298.062 129.945C295.489 129.945 292.834 129.677 290.9 127.937C288.855 126.1 287.338 123.371 287.68 120.612C288 118.024 290.58 116.64 292.507 114.93C294.217 113.42 295.809 111.658 298.062 111.435V111.435Z" fill="#997671"/>
<path fill-rule="evenodd" clip-rule="evenodd" d="M364.866 111.435C367.312 111.189 369.989 111.821 371.611 113.718C373.172 115.54 372.644 118.195 372.711 120.611C372.778 123.155 373.626 125.988 372.005 127.914C370.332 129.907 367.431 129.937 364.866 129.945C362.292 129.945 359.638 129.677 357.704 127.937C355.659 126.1 354.142 123.371 354.484 120.611C354.804 118.024 357.384 116.64 359.31 114.93C361.021 113.42 362.612 111.658 364.866 111.435V111.435Z" fill="#997671"/>
<path fill-rule="evenodd" clip-rule="evenodd" d="M353.725 89.1736C356.172 88.9282 358.849 89.5603 360.47 91.4567C362.032 93.2787 361.504 95.9336 361.571 98.3505C361.638 100.894 362.485 103.727 360.864 105.653C359.191 107.646 356.291 107.676 353.725 107.684C351.152 107.684 348.497 107.416 346.563 105.676C344.518 103.839 343.001 101.11 343.343 98.3505C343.663 95.7625 346.244 94.3793 348.17 92.6689C349.88 91.1592 351.472 89.3967 353.725 89.1736V89.1736Z" fill="#997671"/>
<path fill-rule="evenodd" clip-rule="evenodd" d="M372.286 66.8998C374.733 66.6543 377.41 67.2865 379.032 69.1828C380.593 71.0048 380.065 73.6598 380.132 76.0767C380.199 78.6201 381.047 81.4535 379.426 83.3796C377.752 85.3726 374.852 85.4024 372.286 85.4098C369.713 85.4098 367.058 85.1421 365.125 83.4019C363.08 81.565 361.563 78.8357 361.905 76.0767C362.225 73.4887 364.805 72.1055 366.731 70.395C368.442 68.8854 370.033 67.1229 372.286 66.8998V66.8998Z" fill="#997671"/>
<path fill-rule="evenodd" clip-rule="evenodd" d="M375.998 89.1736C378.445 88.9282 381.122 89.5603 382.743 91.4567C384.305 93.2787 383.777 95.9336 383.844 98.3505C383.911 100.894 384.759 103.727 383.138 105.653C381.464 107.646 378.564 107.676 375.998 107.684C373.425 107.684 370.77 107.416 368.837 105.676C366.792 103.839 365.275 101.11 365.617 98.3505C365.936 95.7625 368.517 94.3793 370.443 92.6689C372.154 91.1592 373.745 89.3967 375.998 89.1736V89.1736Z" fill="#997671"/>
<path fill-rule="evenodd" clip-rule="evenodd" d="M398.276 89.1736C400.722 88.9282 403.4 89.5603 405.021 91.4567C406.583 93.2787 406.055 95.9336 406.121 98.3505C406.188 100.894 407.036 103.727 405.415 105.653C403.742 107.646 400.841 107.676 398.276 107.684C395.703 107.684 393.048 107.416 391.114 105.676C389.069 103.839 387.552 101.11 387.894 98.3505C388.214 95.7625 390.794 94.3793 392.72 92.6689C394.431 91.1592 396.022 89.3967 398.276 89.1736V89.1736Z" fill="#997671"/>
<path fill-rule="evenodd" clip-rule="evenodd" d="M420.536 89.1736C422.983 88.9282 425.66 89.5603 427.282 91.4567C428.843 93.2787 428.315 95.9336 428.382 98.3505C428.449 100.894 429.297 103.727 427.676 105.653C426.002 107.646 423.102 107.676 420.536 107.684C417.963 107.684 415.308 107.416 413.375 105.676C411.33 103.839 409.813 101.11 410.155 98.3505C410.475 95.7625 413.055 94.3793 414.981 92.6689C416.692 91.1592 418.283 89.3967 420.536 89.1736V89.1736Z" fill="#997671"/>
<path fill-rule="evenodd" clip-rule="evenodd" d="M411.257 65.0508C413.704 64.8054 416.381 65.4376 418.002 67.3339C419.564 69.1559 419.036 71.8108 419.103 74.2278C419.177 76.7712 420.018 79.6046 418.396 81.5307C416.723 83.5237 413.823 83.5535 411.257 83.5609C408.684 83.5609 406.029 83.2932 404.096 81.553C402.05 79.7161 400.533 76.9868 400.875 74.2278C401.195 71.6398 403.776 70.2566 405.702 68.5461C407.412 67.0365 409.004 65.2739 411.257 65.0508V65.0508Z" fill="#997671"/>
<path fill-rule="evenodd" clip-rule="evenodd" d="M409.405 111.435C411.851 111.189 414.529 111.821 416.15 113.718C417.711 115.54 417.183 118.195 417.25 120.612C417.317 123.155 418.165 125.988 416.544 127.914C414.871 129.907 411.97 129.937 409.405 129.945C406.832 129.945 404.177 129.677 402.243 127.937C400.198 126.1 398.681 123.371 399.023 120.612C399.343 118.024 401.923 116.64 403.849 114.93C405.56 113.42 407.151 111.658 409.405 111.435V111.435Z" fill="#997671"/>
<path fill-rule="evenodd" clip-rule="evenodd" d="M307.339 133.708C309.786 133.463 312.463 134.095 314.084 135.991C315.646 137.813 315.118 140.468 315.185 142.885C315.259 145.429 316.1 148.262 314.478 150.188C312.805 152.181 309.905 152.211 307.339 152.218C304.766 152.218 302.111 151.951 300.178 150.211C298.132 148.374 296.615 145.644 296.957 142.885C297.277 140.297 299.858 138.914 301.784 137.204C303.494 135.694 305.086 133.931 307.339 133.708V133.708Z" fill="#997671"/>
<path fill-rule="evenodd" clip-rule="evenodd" d="M320.334 111.435C322.781 111.189 325.458 111.821 327.079 113.718C328.641 115.54 328.113 118.195 328.18 120.611C328.247 123.155 329.095 125.988 327.474 127.914C325.8 129.907 322.9 129.937 320.334 129.945C317.761 129.945 315.106 129.677 313.173 127.937C311.128 126.1 309.611 123.371 309.953 120.611C310.272 118.024 312.853 116.64 314.779 114.93C316.489 113.42 318.081 111.658 320.334 111.435V111.435Z" fill="#997671"/>
<path fill-rule="evenodd" clip-rule="evenodd" d="M387.128 111.435C389.575 111.189 392.252 111.821 393.873 113.718C395.435 115.54 394.907 118.195 394.974 120.611C395.041 123.155 395.889 125.988 394.267 127.914C392.594 129.907 389.694 129.937 387.128 129.945C384.555 129.945 381.9 129.677 379.967 127.937C377.922 126.1 376.404 123.371 376.747 120.611C377.066 118.024 379.647 116.64 381.573 114.93C383.283 113.42 384.875 111.658 387.128 111.435V111.435Z" fill="#997671"/>
<path fill-rule="evenodd" clip-rule="evenodd" d="M431.662 111.435C434.109 111.189 436.786 111.821 438.408 113.718C439.969 115.54 439.441 118.195 439.508 120.612C439.575 123.155 440.423 125.988 438.802 127.914C437.128 129.907 434.228 129.937 431.662 129.945C429.089 129.945 426.434 129.677 424.501 127.937C422.456 126.1 420.939 123.371 421.281 120.612C421.601 118.024 424.181 116.64 426.107 114.93C427.818 113.42 429.409 111.658 431.662 111.435V111.435Z" fill="#997671"/>
<path fill-rule="evenodd" clip-rule="evenodd" d="M442.8 89.1736C445.247 88.9282 447.924 89.5603 449.545 91.4567C451.107 93.2787 450.579 95.9336 450.646 98.3505C450.713 100.894 451.561 103.727 449.939 105.653C448.266 107.646 445.366 107.676 442.8 107.684C440.227 107.684 437.572 107.416 435.638 105.676C433.593 103.839 432.076 101.11 432.418 98.3505C432.738 95.7625 435.319 94.3793 437.245 92.6689C438.955 91.1592 440.547 89.3967 442.8 89.1736V89.1736Z" fill="#997671"/>
<path fill-rule="evenodd" clip-rule="evenodd" d="M465.07 87.3182C467.516 87.0728 470.194 87.705 471.815 89.6013C473.376 91.4233 472.848 94.0782 472.915 96.4952C472.982 99.0386 473.83 101.872 472.209 103.798C470.536 105.791 467.635 105.821 465.07 105.828C462.497 105.828 459.842 105.561 457.908 103.82C455.863 101.984 454.346 99.2542 454.688 96.4952C455.008 93.9072 457.588 92.524 459.514 90.8135C461.225 89.3039 462.816 87.5413 465.07 87.3182V87.3182Z" fill="#997671"/>
<path fill-rule="evenodd" clip-rule="evenodd" d="M487.343 87.3182C489.79 87.0728 492.467 87.705 494.088 89.6013C495.65 91.4233 495.122 94.0782 495.189 96.4952C495.256 99.0386 496.104 101.872 494.482 103.798C492.809 105.791 489.909 105.821 487.343 105.828C484.77 105.828 482.115 105.561 480.182 103.82C478.136 101.984 476.619 99.2542 476.961 96.4952C477.281 93.9072 479.862 92.524 481.788 90.8135C483.498 89.3039 485.09 87.5413 487.343 87.3182V87.3182Z" fill="#997671"/>
<path fill-rule="evenodd" clip-rule="evenodd" d="M509.605 68.7607C512.052 68.5153 514.729 69.1475 516.35 71.0438C517.912 72.8658 517.384 75.5207 517.451 77.9377C517.518 80.4811 518.365 83.3145 516.744 85.2406C515.071 87.2336 512.17 87.2634 509.605 87.2708C507.032 87.2708 504.377 87.0031 502.443 85.2629C500.398 83.426 498.881 80.6967 499.223 77.9377C499.543 75.3497 502.123 73.9665 504.05 72.256C505.76 70.7464 507.351 68.9838 509.605 68.7607V68.7607Z" fill="#997671"/>
<path fill-rule="evenodd" clip-rule="evenodd" d="M531.873 76.1813C534.32 75.9359 536.997 76.568 538.619 78.4644C540.18 80.2864 539.652 82.9413 539.719 85.3583C539.786 87.9016 540.634 90.735 539.013 92.6612C537.339 94.6542 534.439 94.684 531.873 94.6914C529.3 94.6914 526.645 94.4237 524.712 92.6835C522.667 90.8466 521.15 88.1173 521.492 85.3583C521.811 82.7703 524.392 81.387 526.318 79.6766C528.029 78.1669 529.62 76.4044 531.873 76.1813V76.1813Z" fill="#997671"/>
<path fill-rule="evenodd" clip-rule="evenodd" d="M509.605 92.8835C512.052 92.6381 514.729 93.2702 516.35 95.1666C517.912 96.9886 517.384 99.6435 517.451 102.06C517.518 104.604 518.365 107.437 516.744 109.363C515.071 111.356 512.17 111.386 509.605 111.394C507.032 111.394 504.377 111.126 502.443 109.386C500.398 107.549 498.881 104.819 499.223 102.06C499.543 99.4724 502.123 98.0892 504.05 96.3788C505.76 94.8691 507.351 93.1066 509.605 92.8835V92.8835Z" fill="#997671"/>
<path fill-rule="evenodd" clip-rule="evenodd" d="M531.873 115.145C534.32 114.9 536.997 115.532 538.619 117.428C540.18 119.25 539.652 121.905 539.719 124.322C539.786 126.866 540.634 129.699 539.013 131.625C537.339 133.618 534.439 133.648 531.873 133.655C529.3 133.655 526.645 133.388 524.712 131.647C522.667 129.811 521.15 127.081 521.492 124.322C521.811 121.734 524.392 120.351 526.318 118.641C528.029 117.131 529.62 115.368 531.873 115.145Z" fill="#997671"/>
<path fill-rule="evenodd" clip-rule="evenodd" d="M481.773 65.0508C484.219 64.8054 486.897 65.4376 488.518 67.3339C490.08 69.1559 489.552 71.8108 489.619 74.2278C489.685 76.7712 490.533 79.6046 488.912 81.5307C487.239 83.5237 484.338 83.5535 481.773 83.5609C479.2 83.5609 476.545 83.2932 474.611 81.553C472.566 79.7161 471.049 76.9868 471.391 74.2278C471.711 71.6398 474.291 70.2566 476.218 68.5461C477.928 67.0365 479.519 65.2739 481.773 65.0508V65.0508Z" fill="#997671"/>
<path fill-rule="evenodd" clip-rule="evenodd" d="M452.083 66.8997C454.53 66.6542 457.207 67.2864 458.828 69.1827C460.39 71.0047 459.862 73.6597 459.929 76.0766C459.996 78.62 460.844 81.4534 459.223 83.3795C457.549 85.3725 454.649 85.4023 452.083 85.4097C449.51 85.4097 446.855 85.142 444.922 83.4018C442.877 81.5649 441.36 78.8356 441.702 76.0766C442.021 73.4886 444.602 72.1054 446.528 70.3949C448.239 68.8853 449.83 67.1228 452.083 66.8997V66.8997Z" fill="#997671"/>
<path fill-rule="evenodd" clip-rule="evenodd" d="M422.39 133.708C424.837 133.463 427.514 134.095 429.135 135.991C430.697 137.813 430.169 140.468 430.236 142.885C430.303 145.429 431.15 148.262 429.529 150.188C427.856 152.181 424.956 152.211 422.39 152.218C419.817 152.218 417.162 151.951 415.228 150.211C413.183 148.374 411.666 145.644 412.008 142.885C412.328 140.297 414.909 138.914 416.835 137.204C418.545 135.694 420.137 133.931 422.39 133.708V133.708Z" fill="#997671"/>
<path fill-rule="evenodd" clip-rule="evenodd" d="M400.124 133.708C402.571 133.463 405.248 134.095 406.869 135.991C408.431 137.813 407.903 140.468 407.97 142.885C408.037 145.429 408.885 148.262 407.264 150.188C405.59 152.181 402.69 152.211 400.124 152.218C397.551 152.218 394.896 151.951 392.963 150.211C390.918 148.374 389.401 145.644 389.743 142.885C390.062 140.297 392.643 138.914 394.569 137.204C396.28 135.694 397.871 133.931 400.124 133.708V133.708Z" fill="#997671"/>
<path fill-rule="evenodd" clip-rule="evenodd" d="M377.85 133.708C380.297 133.463 382.974 134.095 384.595 135.991C386.157 137.813 385.629 140.468 385.696 142.885C385.77 145.429 386.61 148.262 384.989 150.188C383.316 152.181 380.416 152.211 377.85 152.218C375.277 152.218 372.622 151.951 370.688 150.211C368.643 148.374 367.126 145.644 367.468 142.885C367.788 140.297 370.369 138.914 372.295 137.204C374.005 135.694 375.597 133.931 377.85 133.708V133.708Z" fill="#997671"/>
<path fill-rule="evenodd" clip-rule="evenodd" d="M275.79 155.982C278.237 155.737 280.914 156.369 282.535 158.265C284.097 160.087 283.569 162.742 283.636 165.159C283.703 167.703 284.551 170.536 282.93 172.462C281.256 174.455 278.356 174.485 275.79 174.492C273.217 174.492 270.562 174.225 268.629 172.484C266.584 170.647 265.067 167.918 265.409 165.159C265.728 162.571 268.309 161.181 270.235 159.477C271.946 157.968 273.537 156.205 275.79 155.982V155.982Z" fill="#997671"/>
<path fill-rule="evenodd" clip-rule="evenodd" d="M218.273 178.244C220.719 177.999 223.397 178.631 225.018 180.527C226.58 182.349 226.052 185.004 226.119 187.421C226.185 189.964 227.033 192.798 225.412 194.724C223.739 196.717 220.838 196.747 218.273 196.754C215.7 196.754 213.045 196.486 211.111 194.746C209.066 192.909 207.549 190.18 207.891 187.421C208.211 184.833 210.791 183.45 212.718 181.739C214.428 180.23 216.019 178.467 218.273 178.244V178.244Z" fill="#997671"/>
<path fill-rule="evenodd" clip-rule="evenodd" d="M195.999 155.982C198.446 155.737 201.123 156.369 202.744 158.265C204.306 160.087 203.778 162.742 203.845 165.159C203.912 167.703 204.76 170.536 203.139 172.462C201.465 174.455 198.565 174.485 195.999 174.492C193.426 174.492 190.771 174.225 188.838 172.484C186.793 170.647 185.276 167.918 185.618 165.159C185.937 162.571 188.518 161.181 190.444 159.477C192.155 157.968 193.746 156.205 195.999 155.982Z" fill="#997671"/>
<path fill-rule="evenodd" clip-rule="evenodd" d="M218.273 141.129C220.719 140.884 223.397 141.516 225.018 143.412C226.58 145.234 226.052 147.889 226.119 150.306C226.185 152.849 227.033 155.683 225.412 157.609C223.739 159.602 220.838 159.632 218.273 159.639C215.7 159.639 213.045 159.371 211.111 157.631C209.066 155.794 207.549 153.065 207.891 150.306C208.211 147.718 210.791 146.335 212.718 144.624C214.428 143.115 216.019 141.352 218.273 141.129V141.129Z" fill="#997671"/>
<path fill-rule="evenodd" clip-rule="evenodd" d="M231.258 200.511C233.705 200.265 236.382 200.897 238.003 202.794C239.565 204.616 239.037 207.271 239.104 209.687C239.171 212.231 240.019 215.064 238.397 216.99C236.724 218.983 233.824 219.013 231.258 219.021C228.685 219.021 226.03 218.753 224.097 217.013C222.051 215.176 220.534 212.447 220.876 209.687C221.196 207.1 223.777 205.709 225.703 204.006C227.413 202.496 229.005 200.734 231.258 200.511V200.511Z" fill="#997671"/>
<path fill-rule="evenodd" clip-rule="evenodd" d="M208.99 200.511C211.436 200.265 214.113 200.897 215.735 202.794C217.296 204.616 216.768 207.271 216.835 209.687C216.902 212.231 217.75 215.064 216.129 216.99C214.456 218.983 211.555 219.013 208.99 219.021C206.416 219.021 203.762 218.753 201.828 217.013C199.783 215.176 198.266 212.447 198.608 209.687C198.928 207.1 201.508 205.709 203.434 204.006C205.145 202.496 206.736 200.734 208.99 200.511V200.511Z" fill="#997671"/>
<path fill-rule="evenodd" clip-rule="evenodd" d="M221.974 222.779C224.421 222.533 227.098 223.165 228.719 225.062C230.281 226.884 229.753 229.539 229.82 231.956C229.894 234.499 230.734 237.332 229.113 239.259C227.44 241.252 224.54 241.281 221.974 241.289C219.401 241.289 216.746 241.021 214.812 239.281C212.767 237.444 211.25 234.715 211.592 231.956C211.912 229.368 214.493 227.984 216.419 226.274C218.129 224.764 219.721 223.002 221.974 222.779V222.779Z" fill="#997671"/>
<path fill-rule="evenodd" clip-rule="evenodd" d="M199.709 222.779C202.156 222.533 204.833 223.165 206.454 225.062C208.016 226.884 207.488 229.539 207.555 231.956C207.622 234.499 208.47 237.332 206.849 239.259C205.175 241.252 202.275 241.281 199.709 241.289C197.136 241.289 194.481 241.021 192.548 239.281C190.503 237.444 188.986 234.715 189.328 231.956C189.647 229.368 192.228 227.984 194.154 226.274C195.865 224.764 197.456 223.002 199.709 222.779V222.779Z" fill="#997671"/>
<path fill-rule="evenodd" clip-rule="evenodd" d="M212.697 245.053C215.143 244.807 217.821 245.439 219.442 247.336C221.003 249.158 220.475 251.813 220.542 254.23C220.617 256.773 221.457 259.606 219.836 261.532C218.163 263.525 215.262 263.555 212.697 263.563C210.123 263.563 207.469 263.295 205.535 261.555C203.49 259.718 201.973 256.989 202.315 254.23C202.635 251.642 205.215 250.258 207.141 248.548C208.852 247.038 210.443 245.276 212.697 245.053V245.053Z" fill="#997671"/>
<path fill-rule="evenodd" clip-rule="evenodd" d="M190.427 245.053C192.874 244.807 195.551 245.439 197.172 247.336C198.734 249.158 198.206 251.813 198.273 254.23C198.347 256.773 199.188 259.606 197.566 261.532C195.893 263.525 192.993 263.555 190.427 263.563C187.854 263.563 185.199 263.295 183.265 261.555C181.22 259.718 179.703 256.989 180.045 254.23C180.365 251.642 182.946 250.258 184.872 248.548C186.582 247.038 188.174 245.276 190.427 245.053V245.053Z" fill="#997671"/>
<path fill-rule="evenodd" clip-rule="evenodd" d="M168.166 245.053C170.613 244.807 173.29 245.439 174.911 247.336C176.473 249.158 175.945 251.813 176.012 254.23C176.086 256.773 176.927 259.606 175.306 261.532C173.632 263.525 170.732 263.555 168.166 263.563C165.593 263.563 162.938 263.295 161.005 261.555C158.96 259.718 157.443 256.989 157.785 254.23C158.104 251.642 160.685 250.258 162.611 248.548C164.322 247.038 165.913 245.276 168.166 245.053V245.053Z" fill="#997671"/>
<path fill-rule="evenodd" clip-rule="evenodd" d="M203.421 267.314C205.868 267.068 208.545 267.7 210.166 269.597C211.728 271.419 211.2 274.074 211.267 276.49C211.334 279.034 212.182 281.867 210.56 283.793C208.887 285.786 205.987 285.816 203.421 285.824C200.848 285.824 198.193 285.556 196.26 283.816C194.215 281.979 192.697 279.25 193.04 276.49C193.359 273.903 195.94 272.519 197.866 270.809C199.576 269.299 201.168 267.537 203.421 267.314V267.314Z" fill="#997671"/>
<path fill-rule="evenodd" clip-rule="evenodd" d="M181.158 267.314C183.604 267.068 186.281 267.7 187.903 269.597C189.464 271.419 188.936 274.074 189.003 276.49C189.07 279.034 189.918 281.867 188.297 283.793C186.624 285.786 183.723 285.816 181.158 285.824C178.584 285.824 175.93 285.556 173.996 283.816C171.951 281.979 170.434 279.25 170.776 276.49C171.096 273.903 173.676 272.519 175.602 270.809C177.313 269.299 178.904 267.537 181.158 267.314Z" fill="#997671"/>
<path fill-rule="evenodd" clip-rule="evenodd" d="M158.883 267.314C161.33 267.068 164.007 267.7 165.628 269.597C167.19 271.419 166.662 274.074 166.729 276.49C166.796 279.034 167.644 281.867 166.022 283.793C164.349 285.786 161.449 285.816 158.883 285.824C156.31 285.824 153.655 285.556 151.722 283.816C149.676 281.979 148.159 279.25 148.501 276.49C148.821 273.903 151.402 272.519 153.328 270.809C155.038 269.299 156.63 267.537 158.883 267.314Z" fill="#997671"/>
<path fill-rule="evenodd" clip-rule="evenodd" d="M194.148 289.582C196.594 289.336 199.272 289.968 200.893 291.865C202.455 293.687 201.927 296.342 201.994 298.759C202.06 301.302 202.908 304.135 201.287 306.062C199.614 308.055 196.713 308.084 194.148 308.092C191.575 308.092 188.92 307.824 186.986 306.084C184.941 304.247 183.424 301.518 183.766 298.759C184.086 296.171 186.666 294.78 188.593 293.077C190.303 291.567 191.894 289.805 194.148 289.582Z" fill="#997671"/>
<path fill-rule="evenodd" clip-rule="evenodd" d="M171.876 289.582C174.323 289.336 177 289.968 178.621 291.865C180.183 293.687 179.655 296.342 179.722 298.759C179.789 301.302 180.637 304.135 179.016 306.062C177.342 308.055 174.442 308.084 171.876 308.092C169.303 308.092 166.648 307.824 164.715 306.084C162.67 304.247 161.152 301.518 161.495 298.759C161.814 296.171 164.395 294.78 166.321 293.077C168.031 291.567 169.623 289.805 171.876 289.582Z" fill="#997671"/>
<path fill-rule="evenodd" clip-rule="evenodd" d="M149.61 289.582C152.056 289.336 154.734 289.968 156.355 291.865C157.917 293.687 157.389 296.342 157.455 298.759C157.522 301.302 158.37 304.135 156.749 306.062C155.076 308.055 152.175 308.084 149.61 308.092C147.037 308.092 144.382 307.824 142.448 306.084C140.403 304.247 138.886 301.518 139.228 298.759C139.548 296.171 142.128 294.78 144.054 293.077C145.765 291.567 147.356 289.805 149.61 289.582Z" fill="#997671"/>
<path fill-rule="evenodd" clip-rule="evenodd" d="M184.867 311.855C187.313 311.609 189.99 312.241 191.612 314.138C193.173 315.96 192.645 318.615 192.712 321.032C192.787 323.575 193.627 326.408 192.006 328.335C190.333 330.328 187.432 330.357 184.867 330.365C182.293 330.365 179.638 330.097 177.705 328.357C175.66 326.52 174.143 323.791 174.485 321.032C174.805 318.444 177.385 317.06 179.311 315.35C181.022 313.84 182.613 312.078 184.867 311.855V311.855Z" fill="#997671"/>
<path fill-rule="evenodd" clip-rule="evenodd" d="M162.595 311.855C165.042 311.609 167.719 312.241 169.34 314.138C170.902 315.96 170.374 318.615 170.441 321.032C170.508 323.575 171.356 326.408 169.734 328.335C168.061 330.328 165.161 330.357 162.595 330.365C160.022 330.365 157.367 330.097 155.433 328.357C153.388 326.52 151.871 323.791 152.213 321.032C152.533 318.444 155.114 317.06 157.04 315.35C158.75 313.84 160.342 312.078 162.595 311.855Z" fill="#997671"/>
<path fill-rule="evenodd" clip-rule="evenodd" d="M140.329 311.855C142.776 311.609 145.453 312.241 147.075 314.138C148.636 315.96 148.108 318.615 148.175 321.032C148.25 323.575 149.09 326.408 147.469 328.335C145.795 330.328 142.895 330.357 140.329 330.365C137.756 330.365 135.101 330.097 133.168 328.357C131.123 326.52 129.606 323.791 129.948 321.032C130.267 318.444 132.848 317.06 134.774 315.35C136.485 313.84 138.076 312.078 140.329 311.855Z" fill="#997671"/>
<path fill-rule="evenodd" clip-rule="evenodd" d="M118.063 311.855C120.51 311.609 123.187 312.241 124.808 314.138C126.37 315.96 125.842 318.615 125.909 321.032C125.983 323.575 126.823 326.408 125.202 328.335C123.529 330.328 120.628 330.357 118.063 330.365C115.49 330.365 112.835 330.097 110.901 328.357C108.856 326.52 107.339 323.791 107.681 321.032C108.001 318.444 110.581 317.06 112.508 315.35C114.218 313.84 115.809 312.078 118.063 311.855Z" fill="#997671"/>
<path fill-rule="evenodd" clip-rule="evenodd" d="M153.32 334.123C155.766 333.878 158.444 334.51 160.065 336.406C161.626 338.228 161.098 340.883 161.165 343.3C161.232 345.843 162.08 348.677 160.459 350.603C158.786 352.596 155.885 352.626 153.32 352.633C150.747 352.633 148.092 352.365 146.158 350.625C144.113 348.788 142.596 346.059 142.938 343.3C143.258 340.712 145.838 339.321 147.764 337.618C149.475 336.109 151.066 334.346 153.32 334.123Z" fill="#997671"/>
<path fill-rule="evenodd" clip-rule="evenodd" d="M131.057 334.123C133.504 333.878 136.181 334.51 137.802 336.406C139.364 338.228 138.836 340.883 138.903 343.3C138.97 345.843 139.817 348.677 138.196 350.603C136.523 352.596 133.623 352.626 131.057 352.633C128.484 352.633 125.829 352.365 123.895 350.625C121.85 348.788 120.333 346.059 120.675 343.3C120.995 340.712 123.576 339.321 125.502 337.618C127.212 336.109 128.804 334.346 131.057 334.123Z" fill="#997671"/>
<path fill-rule="evenodd" clip-rule="evenodd" d="M108.78 334.123C111.226 333.878 113.904 334.51 115.525 336.406C117.086 338.228 116.558 340.883 116.625 343.3C116.692 345.843 117.54 348.677 115.919 350.603C114.246 352.596 111.345 352.626 108.78 352.633C106.206 352.633 103.552 352.365 101.618 350.625C99.5729 348.788 98.0558 346.059 98.3979 343.3C98.7177 340.712 101.298 339.321 103.224 337.618C104.935 336.109 106.526 334.346 108.78 334.123Z" fill="#03DAC6"/>
<path fill-rule="evenodd" clip-rule="evenodd" d="M86.5169 334.123C88.9636 333.878 91.6408 334.51 93.262 336.406C94.8238 338.228 94.2957 340.883 94.3627 343.3C94.4296 345.843 95.2774 348.677 93.6562 350.603C91.9829 352.596 89.0826 352.626 86.5169 352.633C83.9438 352.633 81.2889 352.365 79.3553 350.625C77.3102 348.788 75.7931 346.059 76.1352 343.3C76.455 340.712 79.0355 339.321 80.9617 337.618C82.6721 336.109 84.2636 334.346 86.5169 334.123V334.123Z" fill="#997671"/>
<path fill-rule="evenodd" clip-rule="evenodd" d="M144.039 356.384C146.486 356.138 149.163 356.771 150.785 358.667C152.346 360.489 151.818 363.144 151.885 365.561C151.952 368.104 152.8 370.938 151.179 372.864C149.505 374.857 146.605 374.886 144.039 374.894C141.466 374.894 138.811 374.626 136.878 372.886C134.833 371.049 133.316 368.32 133.658 365.561C133.977 362.973 136.558 361.59 138.484 359.879C140.195 358.369 141.786 356.607 144.039 356.384Z" fill="#997671"/>
<path fill-rule="evenodd" clip-rule="evenodd" d="M121.773 356.384C124.219 356.138 126.897 356.771 128.518 358.667C130.08 360.489 129.552 363.144 129.619 365.561C129.685 368.104 130.533 370.938 128.912 372.864C127.239 374.857 124.338 374.886 121.773 374.894C119.2 374.894 116.545 374.626 114.611 372.886C112.566 371.049 111.049 368.32 111.391 365.561C111.711 362.973 114.291 361.59 116.218 359.879C117.928 358.369 119.519 356.607 121.773 356.384Z" fill="#997671"/>
<path fill-rule="evenodd" clip-rule="evenodd" d="M99.4993 356.384C101.946 356.138 104.623 356.771 106.244 358.667C107.806 360.489 107.278 363.144 107.345 365.561C107.419 368.104 108.26 370.938 106.639 372.864C104.965 374.857 102.065 374.887 99.4993 374.894C96.9262 374.894 94.2713 374.626 92.3377 372.886C90.2926 371.049 88.7755 368.32 89.1176 365.561C89.4374 362.973 92.018 361.59 93.9441 359.879C95.6545 358.369 97.246 356.607 99.4993 356.384Z" fill="#997671"/>
<path fill-rule="evenodd" clip-rule="evenodd" d="M77.2327 356.384C79.6794 356.138 82.3567 356.771 83.9779 358.667C85.5396 360.489 85.0116 363.144 85.0785 365.561C85.1454 368.104 85.9932 370.938 84.372 372.864C82.6987 374.857 79.7984 374.887 77.2327 374.894C74.6596 374.894 72.0047 374.626 70.0711 372.886C68.026 371.049 66.5089 368.32 66.851 365.561C67.1708 362.973 69.7514 361.59 71.6775 359.879C73.3879 358.369 74.9794 356.607 77.2327 356.384Z" fill="#997671"/>
<path fill-rule="evenodd" clip-rule="evenodd" d="M54.9671 356.384C57.4138 356.138 60.091 356.771 61.7122 358.667C63.274 360.489 62.7459 363.144 62.8129 365.561C62.8798 368.104 63.7276 370.938 62.1064 372.864C60.4331 374.857 57.5328 374.887 54.9671 374.894C52.394 374.894 49.7391 374.626 47.8055 372.886C45.7604 371.049 44.2433 368.32 44.5854 365.561C44.9052 362.973 47.4857 361.59 49.4119 359.879C51.1223 358.369 52.7138 356.607 54.9671 356.384Z" fill="#997671"/>
<path fill-rule="evenodd" clip-rule="evenodd" d="M136.617 378.645C139.063 378.4 141.74 379.032 143.362 380.921C144.923 382.743 144.395 385.398 144.462 387.815C144.529 390.358 145.377 393.191 143.756 395.117C142.083 397.11 139.182 397.14 136.617 397.148C134.043 397.148 131.388 396.88 129.455 395.14C127.41 393.303 125.893 390.574 126.235 387.815C126.555 385.227 129.135 383.843 131.061 382.133C132.772 380.623 134.363 378.861 136.617 378.638V378.645Z" fill="#997671"/>
<path fill-rule="evenodd" clip-rule="evenodd" d="M114.35 378.645C116.797 378.4 119.474 379.032 121.095 380.921C122.657 382.743 122.129 385.398 122.196 387.815C122.27 390.358 123.11 393.191 121.489 395.117C119.816 397.11 116.916 397.14 114.35 397.148C111.777 397.148 109.122 396.88 107.188 395.14C105.143 393.303 103.626 390.574 103.968 387.815C104.288 385.227 106.869 383.843 108.795 382.133C110.505 380.623 112.097 378.861 114.35 378.638V378.645Z" fill="#997671"/>
<path fill-rule="evenodd" clip-rule="evenodd" d="M92.0872 378.645C94.5339 378.399 97.2111 379.032 98.8324 380.921C100.394 382.743 99.8661 385.397 99.933 387.814C99.9999 390.358 100.848 393.191 99.2265 395.117C97.5532 397.11 94.6529 397.14 92.0872 397.148C89.5141 397.148 86.8592 396.88 84.9256 395.14C82.8805 393.303 81.3634 390.573 81.7055 387.814C82.0253 385.226 84.6059 383.843 86.532 382.133C88.2424 380.623 89.8339 378.861 92.0872 378.637V378.645Z" fill="#997671"/>
<path fill-rule="evenodd" clip-rule="evenodd" d="M69.8138 378.645C72.2605 378.399 74.9377 379.032 76.5589 380.921C78.1206 382.743 77.5926 385.397 77.6596 387.814C77.7265 390.358 78.5743 393.191 76.9531 395.117C75.2798 397.11 72.3795 397.14 69.8138 397.148C67.2407 397.148 64.5858 396.88 62.6522 395.14C60.6071 393.303 59.09 390.573 59.4321 387.814C59.7519 385.226 62.3324 383.843 64.2585 382.133C65.969 380.623 67.5605 378.861 69.8138 378.637V378.645Z" fill="#997671"/>
<path fill-rule="evenodd" clip-rule="evenodd" d="M47.5462 378.645C49.9929 378.399 52.6701 379.032 54.2913 380.921C55.8531 382.743 55.3251 385.397 55.392 387.814C55.4663 390.358 56.3067 393.191 54.6855 395.117C53.0122 397.11 50.1119 397.14 47.5462 397.148C44.9731 397.148 42.3182 396.88 40.3846 395.14C38.3395 393.303 36.8224 390.573 37.1645 387.814C37.4843 385.226 40.0648 383.843 41.991 382.133C43.7014 380.623 45.2929 378.861 47.5462 378.637V378.645Z" fill="#997671"/>
<path fill-rule="evenodd" clip-rule="evenodd" d="M131.057 400.919C133.504 400.673 136.181 401.305 137.802 403.202C139.364 405.024 138.836 407.679 138.903 410.096C138.97 412.639 139.817 415.472 138.196 417.398C136.523 419.392 133.623 419.421 131.057 419.429C128.484 419.429 125.829 419.161 123.895 417.421C121.85 415.584 120.333 412.855 120.675 410.096C120.995 407.508 123.576 406.124 125.502 404.414C127.212 402.904 128.804 401.142 131.057 400.919Z" fill="#997671"/>
<path fill-rule="evenodd" clip-rule="evenodd" d="M108.78 400.919C111.226 400.673 113.904 401.305 115.525 403.202C117.086 405.024 116.558 407.679 116.625 410.096C116.692 412.639 117.54 415.472 115.919 417.398C114.246 419.392 111.345 419.421 108.78 419.429C106.206 419.429 103.552 419.161 101.618 417.421C99.5729 415.584 98.0558 412.855 98.3979 410.096C98.7177 407.508 101.298 406.124 103.224 404.414C104.935 402.904 106.526 401.142 108.78 400.919Z" fill="#997671"/>
<path fill-rule="evenodd" clip-rule="evenodd" d="M86.5169 400.919C88.9636 400.673 91.6408 401.305 93.262 403.202C94.8238 405.024 94.2957 407.679 94.3627 410.096C94.4296 412.639 95.2774 415.472 93.6562 417.398C91.9829 419.392 89.0826 419.421 86.5169 419.429C83.9438 419.429 81.2889 419.161 79.3553 417.421C77.3102 415.584 75.7931 412.855 76.1352 410.096C76.455 407.508 79.0355 406.124 80.9617 404.414C82.6721 402.904 84.2636 401.142 86.5169 400.919V400.919Z" fill="#997671"/>
<path fill-rule="evenodd" clip-rule="evenodd" d="M41.9769 400.919C44.4236 400.673 47.1008 401.305 48.722 403.202C50.2837 405.024 49.7557 407.679 49.8226 410.096C49.897 412.639 50.7374 415.472 49.1162 417.398C47.4429 419.392 44.5426 419.421 41.9769 419.429C39.4038 419.429 36.7488 419.161 34.8153 417.421C32.7702 415.584 31.2531 412.855 31.5952 410.096C31.915 407.508 34.4955 406.124 36.4216 404.414C38.1321 402.904 39.7235 401.142 41.9769 400.919V400.919Z" fill="#997671"/>
<path fill-rule="evenodd" clip-rule="evenodd" d="M64.2484 400.919C66.695 400.673 69.3723 401.305 70.9935 403.202C72.5552 405.024 72.0272 407.679 72.0941 410.096C72.1611 412.639 73.0088 415.472 71.3876 417.398C69.7144 419.392 66.814 419.421 64.2484 419.429C61.6752 419.429 59.0203 419.161 57.0868 417.421C55.0417 415.584 53.5246 412.855 53.8667 410.096C54.1864 407.508 56.767 406.124 58.6931 404.414C60.4036 402.904 61.995 401.142 64.2484 400.919V400.919Z" fill="#997671"/>
<path fill-rule="evenodd" clip-rule="evenodd" d="M19.7132 400.919C22.1599 400.673 24.8371 401.305 26.4583 403.202C28.0201 405.024 27.492 407.679 27.559 410.096C27.6333 412.639 28.4737 415.472 26.8525 417.398C25.1792 419.392 22.2789 419.421 19.7132 419.429C17.1401 419.429 14.4852 419.161 12.5516 417.421C10.5065 415.584 8.98941 412.855 9.3315 410.096C9.65128 407.508 12.2318 406.124 14.158 404.414C15.8684 402.904 17.4599 401.142 19.7132 400.919V400.919Z" fill="#997671"/>
<path fill-rule="evenodd" clip-rule="evenodd" d="M25.2816 378.645C27.7283 378.399 30.4055 379.032 32.0267 380.921C33.5884 382.743 33.0604 385.397 33.1273 387.814C33.2017 390.358 34.0421 393.191 32.4208 395.117C30.7476 397.11 27.8472 397.14 25.2816 397.148C22.7084 397.148 20.0535 396.88 18.12 395.14C16.0749 393.303 14.5578 390.573 14.8999 387.814C15.2196 385.226 17.8002 383.843 19.7263 382.133C21.4368 380.623 23.0282 378.861 25.2816 378.637V378.645Z" fill="#997671"/>
<path fill-rule="evenodd" clip-rule="evenodd" d="M153.32 410.2C155.766 409.955 158.444 410.587 160.065 412.483C161.626 414.305 161.098 416.96 161.165 419.377C161.232 421.921 162.08 424.754 160.459 426.68C158.786 428.673 155.885 428.703 153.32 428.71C150.747 428.71 148.092 428.443 146.158 426.702C144.113 424.866 142.596 422.136 142.938 419.377C143.258 416.789 145.838 415.399 147.764 413.696C149.475 412.186 151.066 410.423 153.32 410.2Z" fill="#997671"/>
<path fill-rule="evenodd" clip-rule="evenodd" d="M145.899 432.468C148.345 432.223 151.023 432.855 152.644 434.752C154.206 436.574 153.678 439.228 153.745 441.645C153.819 444.189 154.659 447.022 153.038 448.948C151.365 450.941 148.464 450.971 145.899 450.979C143.326 450.979 140.671 450.711 138.737 448.971C136.692 447.134 135.175 444.404 135.517 441.645C135.837 439.057 138.417 437.674 140.344 435.964C142.054 434.454 143.645 432.692 145.899 432.468V432.468Z" fill="#997671"/>
<path fill-rule="evenodd" clip-rule="evenodd" d="M136.617 454.736C139.063 454.49 141.74 455.122 143.362 457.019C144.923 458.841 144.395 461.496 144.462 463.913C144.529 466.456 145.377 469.289 143.756 471.215C142.083 473.209 139.182 473.238 136.617 473.246C134.043 473.246 131.388 472.978 129.455 471.238C127.41 469.401 125.893 466.672 126.235 463.913C126.555 461.325 129.135 459.941 131.061 458.231C132.772 456.721 134.363 454.959 136.617 454.736Z" fill="#997671"/>
<path fill-rule="evenodd" clip-rule="evenodd" d="M131.056 477.003C133.503 476.758 136.18 477.39 137.801 479.286C139.363 481.108 138.835 483.763 138.902 486.18C138.969 488.724 139.816 491.557 138.195 493.483C136.522 495.476 133.622 495.506 131.056 495.513C128.483 495.513 125.828 495.246 123.894 493.505C121.849 491.668 120.332 488.939 120.674 486.18C120.994 483.592 123.575 482.209 125.501 480.499C127.211 478.989 128.803 477.226 131.056 477.003Z" fill="#997671"/>
<path fill-rule="evenodd" clip-rule="evenodd" d="M121.773 423.186C124.219 422.941 126.897 423.573 128.518 425.469C130.08 427.291 129.552 429.946 129.619 432.363C129.685 434.906 130.533 437.74 128.912 439.666C127.239 441.659 124.338 441.689 121.773 441.696C119.2 441.696 116.545 441.428 114.611 439.688C112.566 437.851 111.049 435.122 111.391 432.363C111.711 429.775 114.291 428.384 116.218 426.681C117.928 425.172 119.519 423.409 121.773 423.186Z" fill="#997671"/>
<path fill-rule="evenodd" clip-rule="evenodd" d="M99.4993 423.186C101.946 422.941 104.623 423.573 106.244 425.469C107.806 427.291 107.278 429.946 107.345 432.363C107.419 434.906 108.26 437.74 106.639 439.666C104.965 441.659 102.065 441.689 99.4993 441.696C96.9262 441.696 94.2713 441.428 92.3377 439.688C90.2926 437.851 88.7755 435.122 89.1176 432.363C89.4374 429.775 92.018 428.384 93.9441 426.681C95.6545 425.172 97.246 423.409 99.4993 423.186Z" fill="#997671"/>
<path fill-rule="evenodd" clip-rule="evenodd" d="M77.2327 423.186C79.6794 422.941 82.3567 423.573 83.9779 425.469C85.5396 427.291 85.0116 429.946 85.0785 432.363C85.1454 434.906 85.9932 437.74 84.372 439.666C82.6987 441.659 79.7984 441.689 77.2327 441.696C74.6596 441.696 72.0047 441.428 70.0711 439.688C68.026 437.851 66.5089 435.122 66.851 432.363C67.1708 429.775 69.7514 428.384 71.6775 426.681C73.3879 425.172 74.9794 423.409 77.2327 423.186Z" fill="#997671"/>
<path fill-rule="evenodd" clip-rule="evenodd" d="M32.7025 423.186C35.1492 422.941 37.8264 423.573 39.4476 425.469C41.0093 427.291 40.4813 429.946 40.5482 432.363C40.6226 434.906 41.4629 437.74 39.8417 439.666C38.1685 441.659 35.2681 441.689 32.7025 441.696C30.1293 441.696 27.4744 441.428 25.5409 439.688C23.4958 437.851 21.9787 435.122 22.3208 432.363C22.6405 429.775 25.2211 428.384 27.1472 426.681C28.8577 425.172 30.4491 423.409 32.7025 423.186V423.186Z" fill="#997671"/>
<path fill-rule="evenodd" clip-rule="evenodd" d="M54.9671 423.186C57.4138 422.941 60.091 423.573 61.7122 425.469C63.274 427.291 62.7459 429.946 62.8129 432.363C62.8798 434.906 63.7276 437.74 62.1064 439.666C60.4331 441.659 57.5328 441.689 54.9671 441.696C52.394 441.696 49.7391 441.428 47.8055 439.688C45.7604 437.851 44.2433 435.122 44.5854 432.363C44.9052 429.775 47.4857 428.384 49.4119 426.681C51.1223 425.172 52.7138 423.409 54.9671 423.186Z" fill="#997671"/>
<path fill-rule="evenodd" clip-rule="evenodd" d="M10.43 423.186C12.8767 422.941 15.5539 423.573 17.1751 425.469C18.7368 427.291 18.2088 429.946 18.2758 432.363C18.3501 434.906 19.1905 437.74 17.5693 439.666C15.896 441.659 12.9957 441.689 10.43 441.696C7.85689 441.696 5.20197 441.428 3.26841 439.688C1.22331 437.851 -0.293791 435.122 0.0482999 432.363C0.36808 429.775 2.94863 428.384 4.87475 426.681C6.5852 425.172 8.17667 423.409 10.43 423.186Z" fill="#FFC4BC"/>
<path fill-rule="evenodd" clip-rule="evenodd" d="M112.49 445.453C114.936 445.208 117.613 445.84 119.235 447.737C120.796 449.559 120.268 452.213 120.335 454.63C120.402 457.174 121.25 460.007 119.629 461.933C117.956 463.926 115.055 463.956 112.49 463.964C109.916 463.964 107.262 463.696 105.328 461.956C103.283 460.119 101.766 457.389 102.108 454.63C102.428 452.042 105.008 450.659 106.934 448.949C108.645 447.439 110.236 445.677 112.49 445.453Z" fill="#E61A6B"/>
<path fill-rule="evenodd" clip-rule="evenodd" d="M90.2288 445.453C92.6755 445.208 95.3527 445.84 96.974 447.737C98.5357 449.559 98.0077 452.213 98.0746 454.63C98.149 457.174 98.9893 460.007 97.3681 461.933C95.6948 463.926 92.7945 463.956 90.2288 463.964C87.6557 463.964 85.0008 463.696 83.0672 461.956C81.0221 460.119 79.505 457.389 79.8471 454.63C80.1669 452.042 82.7475 450.659 84.6736 448.949C86.384 447.439 87.9755 445.677 90.2288 445.453Z" fill="#997671"/>
<path fill-rule="evenodd" clip-rule="evenodd" d="M67.9554 445.453C70.4021 445.208 73.0793 445.84 74.7005 447.737C76.2622 449.559 75.7342 452.213 75.8012 454.63C75.8681 457.174 76.7159 460.007 75.0947 461.933C73.4214 463.926 70.5211 463.956 67.9554 463.964C65.3823 463.964 62.7274 463.696 60.7938 461.956C58.7487 460.119 57.2316 457.389 57.5737 454.63C57.8935 452.042 60.474 450.659 62.4001 448.949C64.1106 447.439 65.7021 445.677 67.9554 445.453Z" fill="#997671"/>
<path fill-rule="evenodd" clip-rule="evenodd" d="M45.6868 445.453C48.1335 445.208 50.8108 445.84 52.432 447.737C53.9937 449.559 53.4657 452.213 53.5326 454.63C53.607 457.174 54.4473 460.007 52.8261 461.933C51.1528 463.926 48.2525 463.956 45.6868 463.964C43.1137 463.964 40.4588 463.696 38.5252 461.956C36.4801 460.119 34.963 457.389 35.3051 454.63C35.6249 452.042 38.2055 450.659 40.1316 448.949C41.842 447.439 43.4335 445.677 45.6868 445.453Z" fill="#997671"/>
<path fill-rule="evenodd" clip-rule="evenodd" d="M103.219 467.727C105.666 467.482 108.343 468.114 109.964 470.01C111.526 471.832 110.998 474.487 111.065 476.904C111.132 479.448 111.98 482.281 110.358 484.207C108.685 486.2 105.785 486.23 103.219 486.237C100.646 486.237 97.991 485.97 96.0575 484.229C94.0124 482.393 92.4953 479.663 92.8374 476.904C93.1571 474.316 95.7377 472.933 97.6638 471.223C99.3743 469.713 100.966 467.95 103.219 467.727Z" fill="#997671"/>
<path fill-rule="evenodd" clip-rule="evenodd" d="M80.9446 467.727C83.3913 467.482 86.0686 468.114 87.6898 470.01C89.2515 471.832 88.7235 474.487 88.7904 476.904C88.8573 479.448 89.7051 482.281 88.0839 484.207C86.4107 486.2 83.5103 486.23 80.9446 486.237C78.3715 486.237 75.7166 485.97 73.7831 484.229C71.738 482.393 70.2209 479.663 70.5629 476.904C70.8827 474.316 73.4633 472.933 75.3894 471.223C77.0999 469.713 78.6913 467.95 80.9446 467.727Z" fill="#997671"/>
<path fill-rule="evenodd" clip-rule="evenodd" d="M73.5257 489.996C75.9724 489.75 78.6496 490.382 80.2708 492.271C81.8325 494.093 81.3045 496.748 81.3715 499.165C81.4458 501.708 82.2862 504.542 80.665 506.468C78.9917 508.461 76.0914 508.491 73.5257 508.498C70.9526 508.498 68.2977 508.23 66.3641 506.49C64.319 504.653 62.8019 501.924 63.144 499.165C63.4638 496.577 66.0443 495.194 67.9705 493.483C69.6809 491.974 71.2724 490.211 73.5257 489.988V489.996Z" fill="#997671"/>
<path fill-rule="evenodd" clip-rule="evenodd" d="M58.681 467.727C61.1277 467.482 63.8049 468.114 65.4261 470.01C66.9878 471.832 66.4598 474.487 66.5267 476.904C66.5937 479.448 67.4415 482.281 65.8203 484.207C64.147 486.2 61.2467 486.23 58.681 486.237C56.1079 486.237 53.4529 485.97 51.5194 484.229C49.4743 482.393 47.9572 479.663 48.2993 476.904C48.6191 474.316 51.1996 472.933 53.1257 471.223C54.8362 469.713 56.4276 467.95 58.681 467.727Z" fill="#997671"/>
<path fill-rule="evenodd" clip-rule="evenodd" d="M51.2601 489.996C53.7068 489.75 56.384 490.382 58.0052 492.271C59.5669 494.093 59.0389 496.748 59.1058 499.165C59.1802 501.708 60.0206 504.542 58.3994 506.468C56.7261 508.461 53.8258 508.491 51.2601 508.498C48.687 508.498 46.032 508.23 44.0985 506.49C42.0534 504.653 40.5363 501.924 40.8784 499.165C41.1982 496.577 43.7787 495.194 45.7048 493.483C47.4153 491.974 49.0067 490.211 51.2601 489.988V489.996Z" fill="#997671"/>
<path fill-rule="evenodd" clip-rule="evenodd" d="M36.4075 467.727C38.8542 467.482 41.5315 468.114 43.1527 470.01C44.7144 471.832 44.1864 474.487 44.2533 476.904C44.3277 479.448 45.168 482.281 43.5468 484.207C41.8735 486.2 38.9732 486.23 36.4075 486.237C33.8344 486.237 31.1795 485.97 29.2459 484.229C27.2008 482.393 25.6837 479.663 26.0258 476.904C26.3456 474.316 28.9262 472.933 30.8523 471.223C32.5627 469.713 34.1542 467.95 36.4075 467.727V467.727Z" fill="#997671"/>
<path fill-rule="evenodd" clip-rule="evenodd" d="M14.1468 464.018C16.5935 463.772 19.2707 464.404 20.8919 466.301C22.4536 468.123 21.9256 470.778 21.9926 473.194C22.0669 475.738 22.9073 478.571 21.2861 480.497C19.6128 482.49 16.7125 482.52 14.1468 482.528C11.5737 482.528 8.91876 482.26 6.98521 480.52C4.9401 478.683 3.42301 475.954 3.7651 473.194C4.08488 470.606 6.66543 469.223 8.59155 467.513C10.302 466.003 11.8935 464.241 14.1468 464.018V464.018Z" fill="#997671"/>
<path fill-rule="evenodd" clip-rule="evenodd" d="M28.9964 489.996C31.4431 489.75 34.1203 490.382 35.7415 492.271C37.3033 494.093 36.7752 496.748 36.8422 499.165C36.9165 501.708 37.7569 504.542 36.1357 506.468C34.4624 508.461 31.5621 508.491 28.9964 508.498C26.4233 508.498 23.7684 508.23 21.8348 506.49C19.7897 504.653 18.2726 501.924 18.6147 499.165C18.9345 496.577 21.515 495.194 23.4412 493.483C25.1516 491.974 26.7431 490.211 28.9964 489.988V489.996Z" fill="#997671"/>
</svg>
