<svg xmlns="http://www.w3.org/2000/svg" width="70" height="18" viewBox="0 0 70 18" fill="none">
<path d="M2.82504 6.53702L5.53204 12.413L8.23004 6.53702H10.947L5.51104 17.72L0.118042 6.53702H2.82504V6.53702ZM19.916 6.53702H22.344V17H19.916V15.904C18.921 16.835 17.85 17.301 16.704 17.301C15.257 17.301 14.061 16.778 13.116 15.732C12.178 14.665 11.709 13.333 11.709 11.736C11.709 10.168 12.179 8.86102 13.116 7.81602C14.054 6.77002 15.229 6.24702 16.64 6.24702C17.857 6.24702 18.95 6.74802 19.916 7.75102V6.53702ZM14.18 11.737C14.18 12.739 14.448 13.555 14.985 14.185C15.537 14.823 16.231 15.142 17.069 15.142C17.965 15.142 18.688 14.834 19.239 14.218C19.791 13.58 20.066 12.771 20.066 11.79C20.066 10.809 19.791 10 19.239 9.36202C18.688 8.73902 17.972 8.42802 17.091 8.42802C16.261 8.42802 15.565 8.74302 15.007 9.37302C14.455 10.01 14.18 10.798 14.18 11.736V11.737ZM25.395 6.53702H27.811V7.47202C28.256 7.00602 28.649 6.68702 28.993 6.51602C29.344 6.33602 29.759 6.24702 30.239 6.24702C30.877 6.24702 31.543 6.45502 32.237 6.87002L31.131 9.08302C30.672 8.75302 30.225 8.58902 29.788 8.58902C28.47 8.58902 27.811 9.58402 27.811 11.575V17H25.395V6.53702V6.53702ZM36.384 6.53702V17H33.967V6.53702H36.384ZM33.602 2.18702C33.602 1.76402 33.756 1.39902 34.064 1.09102C34.2071 0.942599 34.379 0.825038 34.5692 0.745582C34.7594 0.666127 34.9639 0.626459 35.17 0.629023C35.607 0.629023 35.98 0.783023 36.287 1.09102C36.595 1.39102 36.749 1.76102 36.749 2.19702C36.749 2.63402 36.595 3.00702 36.287 3.31402C35.987 3.62202 35.617 3.77602 35.181 3.77602C34.744 3.77602 34.371 3.62202 34.064 3.31402C33.9142 3.16767 33.7958 2.99217 33.7164 2.79834C33.6369 2.60451 33.598 2.39647 33.602 2.18702V2.18702ZM47.158 6.53702H49.586V17H47.158V15.904C46.163 16.835 45.092 17.301 43.946 17.301C42.5 17.301 41.304 16.778 40.358 15.732C39.42 14.665 38.951 13.333 38.951 11.736C38.951 10.168 39.421 8.86102 40.358 7.81602C41.297 6.77002 42.471 6.24702 43.882 6.24702C45.099 6.24702 46.192 6.74802 47.158 7.75102V6.53702V6.53702ZM41.422 11.737C41.422 12.739 41.69 13.555 42.228 14.185C42.779 14.823 43.474 15.142 44.312 15.142C45.207 15.142 45.93 14.834 46.482 14.218C47.032 13.58 47.309 12.771 47.309 11.79C47.309 10.809 47.033 10 46.481 9.36202C45.93 8.73902 45.214 8.42802 44.333 8.42802C43.503 8.42802 42.808 8.74302 42.249 9.37302C41.698 10.01 41.422 10.798 41.422 11.736V11.737ZM52.637 6.53702H55.065V7.50402C55.91 6.66602 56.862 6.24702 57.922 6.24702C59.139 6.24702 60.088 6.63002 60.769 7.39702C61.356 8.04802 61.649 9.11202 61.649 10.587V17H59.222V11.156C59.222 10.125 59.078 9.41202 58.792 9.01902C58.512 8.61802 58.004 8.41702 57.267 8.41702C56.464 8.41702 55.895 8.68202 55.559 9.21202C55.229 9.73502 55.065 10.648 55.065 11.952V17H52.637V6.53702V6.53702ZM67.203 8.79302V17H64.786V8.79302H63.755V6.53702H64.786V2.70202H67.203V6.53702H69.083V8.79302H67.203Z" fill="white"/>
</svg>