<svg width="70" height="18" fill="none" xmlns="http://www.w3.org/2000/svg"><path d="M2.825 6.537l2.707 5.876L8.23 6.537h2.717L5.511 17.72.118 6.537h2.707zM19.916 6.537h2.428V17h-2.428v-1.096c-.995.931-2.066 1.397-3.212 1.397-1.447 0-2.643-.523-3.588-1.569-.938-1.067-1.407-2.399-1.407-3.996 0-1.568.47-2.875 1.407-3.92.938-1.046 2.113-1.569 3.524-1.569 1.217 0 2.31.501 3.276 1.504V6.537zm-5.736 5.2c0 1.002.268 1.818.805 2.448.552.638 1.246.957 2.084.957.896 0 1.619-.308 2.17-.924.552-.638.827-1.447.827-2.428 0-.981-.275-1.79-.827-2.428-.551-.623-1.267-.934-2.148-.934-.83 0-1.526.315-2.084.945-.552.637-.827 1.425-.827 2.363zM25.395 6.537h2.416v.935c.445-.466.838-.785 1.182-.956.351-.18.766-.269 1.246-.269.638 0 1.304.208 1.998.623l-1.106 2.213c-.459-.33-.906-.494-1.343-.494-1.318 0-1.977.995-1.977 2.986V17h-2.416V6.537zM36.384 6.537V17h-2.417V6.537h2.417zm-2.782-4.35c0-.423.154-.788.462-1.096A1.51 1.51 0 0135.17.629c.437 0 .81.154 1.117.462.308.3.462.67.462 1.106 0 .437-.154.81-.462 1.117-.3.308-.67.462-1.106.462-.437 0-.81-.154-1.117-.462a1.534 1.534 0 01-.462-1.127zM47.158 6.537h2.428V17h-2.428v-1.096c-.995.931-2.066 1.397-3.212 1.397-1.446 0-2.642-.523-3.588-1.569-.938-1.067-1.407-2.399-1.407-3.996 0-1.568.47-2.875 1.407-3.92.939-1.046 2.113-1.569 3.524-1.569 1.217 0 2.31.501 3.276 1.504V6.537zm-5.736 5.2c0 1.002.268 1.818.806 2.448.551.638 1.246.957 2.084.957.895 0 1.618-.308 2.17-.924.55-.638.827-1.447.827-2.428 0-.981-.276-1.79-.828-2.428-.551-.623-1.267-.934-2.148-.934-.83 0-1.525.315-2.084.945-.551.637-.827 1.425-.827 2.363zM52.637 6.537h2.428v.967c.845-.838 1.797-1.257 2.857-1.257 1.217 0 2.166.383 2.847 1.15.587.651.88 1.715.88 3.19V17h-2.427v-5.844c0-1.031-.144-1.744-.43-2.137-.28-.401-.788-.602-1.525-.602-.803 0-1.372.265-1.708.795-.33.523-.494 1.436-.494 2.74V17h-2.428V6.537zM67.203 8.793V17h-2.417V8.793h-1.031V6.537h1.031V2.702h2.417v3.835h1.88v2.256h-1.88z" fill="#333"/></svg>