<svg width="258" height="313" viewBox="0 0 258 313" fill="none"
    xmlns="http://www.w3.org/2000/svg">
    <path d="M72 312.592C119.198 315.707 162.237 284.052 177.312 239.218C192.869 192.948 180.943 137.85 139.338 112.317C103.632 90.4042 64.1833 123.147 32.1266 150.119C8.69217 169.836 -5.05448 197.922 2.24496 227.665C11.8982 266.999 31.5863 309.925 72 312.592Z" fill="#423D89"/>
    <path d="M172.92 19.34L170.08 15.14C172.04 14.44 173.06 12.9 173.06 11.24C173.04 8.22 170.52 6.8 167.02 6.8H162.5C162.24 6.8 162.08 6.9 162.08 7.08V7.14C162.08 7.58 162.82 7.68 162.82 8.46V19.34C162.82 20.12 162.08 20.22 162.08 20.66V20.72C162.08 20.9 162.24 21 162.5 21H165.64C165.9 21 166.08 20.9 166.08 20.72V20.66C166.08 20.22 165.26 20.12 165.26 19.34V15.58L167.64 15.54H167.82L170.36 19.34C170.84 20.16 169.94 20.22 169.94 20.66V20.72C169.94 20.9 170.1 21 170.36 21H173.84C174.1 21 174.26 20.9 174.26 20.72V20.66C174.26 20.22 173.5 20.2 172.92 19.34ZM167.36 14.54H166.24C165.6 14.54 165.26 14.24 165.26 13.4V8.62C165.26 8.14 165.46 7.82 165.86 7.82H166.86C168.76 7.82 170.58 9.06 170.58 11.54C170.58 13.5 169.24 14.54 167.36 14.54ZM182.612 18.06C182.212 18.86 181.312 19.52 180.052 19.52C178.632 19.52 177.612 18.68 177.112 17.32L181.952 15.54C182.572 15.32 182.972 14.9 182.972 14.14C182.972 12.74 181.812 11.2 179.232 11.2C176.592 11.2 174.452 13.26 174.452 16.12C174.452 19.22 176.512 21.2 179.192 21.2C181.732 21.2 183.072 19.44 183.252 18.26C183.292 17.86 182.832 17.78 182.612 18.06ZM178.832 11.96C179.992 11.96 180.732 13.4 180.732 14.22C180.732 14.62 180.572 14.9 180.212 15.06L176.892 16.5C176.812 16.1 176.772 15.68 176.772 15.22C176.772 13.3 177.572 11.96 178.832 11.96ZM186.375 9.74C187.355 9.74 187.995 9.12 187.995 8.24C187.995 7.38 187.355 6.74 186.375 6.74C185.375 6.74 184.715 7.38 184.715 8.24C184.715 9.12 185.375 9.74 186.375 9.74ZM184.895 21H187.935C188.195 21 188.375 20.88 188.375 20.7V20.62C188.375 20.18 187.555 20.1 187.555 19.32V11.62C187.555 11.3 187.295 11.06 186.835 11.28L184.835 12.28C184.615 12.4 184.475 12.48 184.475 12.64V12.7C184.475 13.06 185.215 13.26 185.215 14.08V19.32C185.215 20.1 184.475 20.18 184.475 20.62V20.7C184.475 20.88 184.635 21 184.895 21ZM193.748 21.18C196.328 21.18 197.948 19.96 197.948 18.4C197.948 14.44 192.128 16.18 192.128 13.46C192.128 12.6 192.828 11.92 193.808 11.92C195.908 11.92 195.368 14.44 196.768 14.44C197.288 14.44 197.688 14.08 197.688 13.58C197.688 12.42 196.188 11.2 193.688 11.2C191.388 11.2 189.768 12.42 189.768 14.04C189.768 18.04 195.588 16.26 195.588 18.96C195.588 19.98 194.808 20.5 193.748 20.5C191.408 20.5 192.068 17.96 190.568 17.96C189.988 17.96 189.568 18.26 189.568 18.88C189.568 19.98 191.128 21.18 193.748 21.18ZM207.221 18.06C206.821 18.86 205.921 19.52 204.661 19.52C203.241 19.52 202.221 18.68 201.721 17.32L206.561 15.54C207.181 15.32 207.581 14.9 207.581 14.14C207.581 12.74 206.421 11.2 203.841 11.2C201.201 11.2 199.061 13.26 199.061 16.12C199.061 19.22 201.121 21.2 203.801 21.2C206.341 21.2 207.681 19.44 207.861 18.26C207.901 17.86 207.441 17.78 207.221 18.06ZM203.441 11.96C204.601 11.96 205.341 13.4 205.341 14.22C205.341 14.62 205.181 14.9 204.821 15.06L201.501 16.5C201.421 16.1 201.381 15.68 201.381 15.22C201.381 13.3 202.181 11.96 203.441 11.96ZM209.724 15.14H216.104C216.324 15.14 216.444 15 216.444 14.78V14.24C216.444 14.02 216.324 13.9 216.104 13.9H209.724C209.504 13.9 209.384 14.02 209.384 14.24V14.78C209.384 15 209.504 15.14 209.724 15.14ZM223.707 11.2C222.627 11.2 221.687 11.58 221.067 12.26V6.36C221.067 5.94 220.767 5.82 220.347 6.02L218.287 7C217.987 7.14 217.887 7.22 217.887 7.4V7.46C217.887 7.9 218.747 7.96 218.747 8.82V19.32C218.747 20.12 217.987 20.24 217.987 20.66V20.72C217.987 20.9 218.127 21 218.347 21L220.507 21.04C220.767 21.04 220.907 20.92 220.907 20.66L220.887 19.94C221.567 20.74 222.527 21.2 223.727 21.2C226.247 21.2 228.347 19.08 228.347 16.04C228.347 13 226.107 11.2 223.707 11.2ZM223.447 20.44C222.227 20.44 221.067 19.06 221.067 17.6V14.22C221.067 12.94 222.007 11.96 223.127 11.96C224.847 11.96 225.987 13.92 225.987 16.78C225.987 19.12 225.027 20.44 223.447 20.44ZM229.99 21H233.03C233.29 21 233.47 20.88 233.47 20.7V20.64C233.47 20.18 232.65 20.12 232.65 19.34V6.34C232.65 6.04 232.39 5.8 231.93 6.02L229.91 7.02C229.71 7.12 229.57 7.2 229.57 7.38V7.44C229.57 7.8 230.31 7.96 230.31 8.8V19.34C230.31 20.12 229.57 20.18 229.57 20.64V20.7C229.57 20.88 229.73 21 229.99 21ZM240.066 21.2C242.966 21.2 244.886 19 244.886 16.26C244.886 13.5 242.766 11.2 239.606 11.2C236.866 11.2 234.646 13.26 234.646 16.1C234.646 18.76 236.666 21.2 240.066 21.2ZM240.366 20.44C238.346 20.44 237.006 17.8 237.006 15.32C237.006 13.12 237.926 11.96 239.346 11.96C241.186 11.96 242.526 14.28 242.526 17.08C242.526 19.24 241.606 20.44 240.366 20.44ZM251.832 11.2C250.752 11.2 249.812 11.58 249.192 12.26V6.36C249.192 5.94 248.892 5.82 248.472 6.02L246.412 7C246.112 7.14 246.012 7.22 246.012 7.4V7.46C246.012 7.9 246.872 7.96 246.872 8.82V19.32C246.872 20.12 246.112 20.24 246.112 20.66V20.72C246.112 20.9 246.252 21 246.472 21L248.632 21.04C248.892 21.04 249.032 20.92 249.032 20.66L249.012 19.94C249.692 20.74 250.652 21.2 251.852 21.2C254.372 21.2 256.472 19.08 256.472 16.04C256.472 13 254.232 11.2 251.832 11.2ZM251.572 20.44C250.352 20.44 249.192 19.06 249.192 17.6V14.22C249.192 12.94 250.132 11.96 251.252 11.96C252.972 11.96 254.112 13.92 254.112 16.78C254.112 19.12 253.152 20.44 251.572 20.44Z" fill="#333333"/>
    <g clip-path="url(#clip0)">
        <path d="M198.58 117.576C202.804 118.762 207.027 119.952 211.253 121.128C211.673 121.245 211.814 121.41 211.692 121.798C211.574 122.173 211.469 122.558 211.424 122.952C211.368 123.454 211.153 123.578 210.599 123.475C207.447 122.888 204.295 122.266 201.135 121.803C197.435 121.26 193.726 120.867 190.021 120.409C189.813 120.383 189.605 120.349 189.311 120.305C189.384 120.052 189.426 119.848 189.5 119.658C191.795 113.819 193.598 107.799 195.174 101.694C195.416 100.755 195.28 100.804 196.345 101.039C197.935 101.391 197.924 101.386 197.688 102.874C197.092 106.638 196.509 110.404 195.921 114.17C195.906 114.27 195.911 114.375 195.904 114.541C196.059 114.485 196.164 114.462 196.252 114.413C199.963 112.34 203.551 110.117 206.666 107.297C213.185 101.397 217.346 94.1758 218.599 85.3511C219.613 78.2106 218.519 71.1201 215.644 64.0992C214.083 60.2866 212.007 56.7007 209.56 53.2766C209.056 52.5708 209.064 52.5654 209.763 52.1582C210.156 51.9292 210.56 51.7157 210.942 51.4714C211.339 51.2173 211.59 51.3205 211.88 51.73C213.97 54.678 215.854 57.7198 217.379 60.9359C220.258 67.0094 221.889 73.2543 222.021 79.6897C222.235 90.0642 218.861 98.9714 212.141 106.483C209.453 109.488 206.362 112.08 202.888 114.257C201.428 115.172 199.929 116.035 198.448 116.922C198.263 117.032 198.074 117.138 197.888 117.245C197.896 117.294 197.905 117.342 197.915 117.39C198.136 117.452 198.358 117.513 198.58 117.575L198.58 117.576Z" fill="#333333"/>
        <path d="M197.914 117.39C198.136 117.452 198.358 117.513 198.58 117.576C202.804 118.762 207.027 119.953 211.253 121.128C211.673 121.245 211.814 121.411 211.692 121.798C211.574 122.173 211.469 122.559 211.424 122.953C211.368 123.455 211.153 123.578 210.599 123.475C207.447 122.888 204.295 122.266 201.135 121.803C197.435 121.26 193.726 120.868 190.021 120.409C189.813 120.384 189.605 120.349 189.311 120.306C189.384 120.052 189.426 119.848 189.5 119.659C191.795 113.819 193.598 107.799 195.174 101.695C195.416 100.756 195.28 100.804 196.345 101.039C197.935 101.392 197.924 101.386 197.688 102.874C197.092 106.638 196.509 110.404 195.921 114.17C195.906 114.27 195.911 114.375 195.904 114.541C196.059 114.485 196.164 114.462 196.252 114.413C199.963 112.34 203.551 110.117 206.666 107.297C213.185 101.397 217.346 94.1761 218.599 85.3514C219.613 78.2109 218.519 71.1203 215.644 64.0994C214.083 60.2868 212.007 56.7009 209.56 53.2768C209.056 52.571 209.064 52.5657 209.763 52.1585C210.156 51.9294 210.56 51.716 210.942 51.4717C211.339 51.2175 211.59 51.3208 211.88 51.7303C213.97 54.6782 215.854 57.72 217.379 60.9361C220.258 67.0096 221.889 73.2546 222.021 79.69C222.235 90.0645 218.861 98.9716 212.141 106.483C209.453 109.488 206.362 112.08 202.888 114.257C201.428 115.172 199.929 116.036 198.448 116.922C198.263 117.033 198.074 117.138 197.888 117.246C197.897 117.294 197.906 117.342 197.914 117.39L197.914 117.39Z" fill="#333333"/>
    </g>
    <defs>
        <clipPath id="clip0">
            <rect width="58.5851" height="62.7146" fill="white" transform="matrix(-0.866389 0.499369 0.571966 0.820278 211.758 51)"/>
        </clipPath>
    </defs>
</svg>
